<?xml version="1.0" encoding="UTF-8" standalone="no"?>
<!DOCTYPE svg PUBLIC "-//W3C//DTD SVG 1.1//EN"
 "http://www.w3.org/Graphics/SVG/1.1/DTD/svg11.dtd">
<!-- Generated by graphviz version 9.0.0 (20230911.1827)
 -->
<!-- Title: finite_state_machine Pages: 1 -->
<svg width="304pt" height="360pt"
 viewBox="0.00 0.00 304.09 360.00" xmlns="http://www.w3.org/2000/svg" xmlns:xlink="http://www.w3.org/1999/xlink">
<g id="graph0" class="graph" transform="scale(0.145054 0.145054) rotate(0) translate(4 2477.84)">
<title>finite_state_machine</title>
<polygon fill="white" stroke="none" points="-4,4 -4,-2477.84 2092.38,-2477.84 2092.38,4 -4,4"/>
<text text-anchor="middle" x="1044.19" y="-6.45" font-family="Times New Roman,serif" font-size="14.00">Expertise</text>
<g id="clust1" class="cluster">
<title>Revision</title>
<polygon fill="none" stroke="black" points="235,-1370.65 235,-1851.03 603,-1851.03 603,-1370.65 235,-1370.65"/>
<text text-anchor="middle" x="419" y="-1833.73" font-family="Times New Roman,serif" font-size="14.00">Revision</text>
</g>
<g id="clust4" class="cluster">
<title>Collaboration</title>
<polygon fill="none" stroke="black" points="796,-1075.55 796,-1590.87 1469,-1590.87 1469,-1075.55 796,-1075.55"/>
<text text-anchor="middle" x="1132.5" y="-1573.57" font-family="Times New Roman,serif" font-size="14.00">Collaboration</text>
</g>
<!-- RevisionePerizia -->
<g id="node1" class="node">
<title>RevisionePerizia</title>
<ellipse fill="none" stroke="black" cx="476" cy="-1747.76" rx="71.52" ry="71.52"/>
<text text-anchor="middle" x="476" y="-1742.33" font-family="Times New Roman,serif" font-size="14.00">RevisionePerizia</text>
</g>
<!-- RevisioneRifiutata -->
<g id="node2" class="node">
<title>RevisioneRifiutata</title>
<ellipse fill="none" stroke="black" cx="321" cy="-1468.13" rx="78.01" ry="78.01"/>
<text text-anchor="middle" x="321" y="-1462.71" font-family="Times New Roman,serif" font-size="14.00">RevisioneRifiutata</text>
</g>
<!-- RevisionePerizia&#45;&gt;RevisioneRifiutata -->
<g id="edge11" class="edge">
<title>RevisionePerizia&#45;&gt;RevisioneRifiutata</title>
<path fill="none" stroke="black" d="M432.37,-1690.93C415.99,-1668.59 397.92,-1642.18 383.75,-1616.82 372.36,-1596.44 361.71,-1573.58 352.53,-1552.05"/>
<polygon fill="black" stroke="black" points="355.82,-1550.86 348.73,-1543 349.37,-1553.57 355.82,-1550.86"/>
<text text-anchor="middle" x="433.62" y="-1603.52" font-family="Times New Roman,serif" font-size="14.00">RevisioneRifiutata</text>
</g>
<!-- RevisioneCompletata -->
<g id="node3" class="node">
<title>RevisioneCompletata</title>
<ellipse fill="none" stroke="black" cx="506" cy="-1468.13" rx="89.49" ry="89.49"/>
<text text-anchor="middle" x="506" y="-1462.71" font-family="Times New Roman,serif" font-size="14.00">RevisioneCompletata</text>
</g>
<!-- RevisionePerizia&#45;&gt;RevisioneCompletata -->
<g id="edge12" class="edge">
<title>RevisionePerizia&#45;&gt;RevisioneCompletata</title>
<path fill="none" stroke="black" d="M482.75,-1676.34C485.11,-1652.43 487.84,-1625.58 490.5,-1601.07 491.64,-1590.6 492.86,-1579.68 494.1,-1568.78"/>
<polygon fill="black" stroke="black" points="497.57,-1569.3 495.23,-1558.97 490.61,-1568.5 497.57,-1569.3"/>
<text text-anchor="middle" x="549.25" y="-1603.52" font-family="Times New Roman,serif" font-size="14.00">RevisioneCompletata</text>
</g>
<!-- PeriziaInRevisione -->
<g id="node14" class="node">
<title>PeriziaInRevisione</title>
<ellipse fill="none" stroke="black" cx="411" cy="-1192.5" rx="79.01" ry="79.01"/>
<text text-anchor="middle" x="411" y="-1187.08" font-family="Times New Roman,serif" font-size="14.00">PeriziaInRevisione</text>
</g>
<!-- RevisioneRifiutata&#45;&gt;PeriziaInRevisione -->
<g id="edge13" class="edge">
<title>RevisioneRifiutata&#45;&gt;PeriziaInRevisione</title>
<path fill="none" stroke="black" stroke-dasharray="1,5" d="M345.12,-1393.81C356.78,-1358.36 370.84,-1315.61 382.97,-1278.72"/>
<polygon fill="black" stroke="black" points="386.23,-1280.02 386.03,-1269.42 379.58,-1277.83 386.23,-1280.02"/>
</g>
<!-- RevisioneCompletata&#45;&gt;PeriziaInRevisione -->
<g id="edge14" class="edge">
<title>RevisioneCompletata&#45;&gt;PeriziaInRevisione</title>
<path fill="none" stroke="black" stroke-dasharray="1,5" d="M476.85,-1383.18C465.29,-1349.86 452,-1311.61 440.41,-1278.22"/>
<polygon fill="black" stroke="black" points="443.8,-1277.29 437.21,-1268.99 437.18,-1279.59 443.8,-1277.29"/>
</g>
<!-- AvvioChiusura -->
<g id="node4" class="node">
<title>AvvioChiusura</title>
<ellipse fill="lightgrey" stroke="black" cx="277" cy="-89.78" rx="66.03" ry="66.03"/>
<text text-anchor="middle" x="277" y="-84.36" font-family="Times New Roman,serif" font-size="14.00">AvvioChiusura</text>
</g>
<!-- Assessment -->
<g id="node5" class="node">
<title>Assessment</title>
<polygon fill="lightgrey" stroke="black" points="2088.38,-2368.92 2005.62,-2368.92 2005.62,-2332.92 2088.38,-2332.92 2088.38,-2368.92"/>
<text text-anchor="middle" x="2047" y="-2345.5" font-family="Times New Roman,serif" font-size="14.00">Assessment</text>
</g>
<!-- AvvioPerizia -->
<g id="node10" class="node">
<title>AvvioPerizia</title>
<ellipse fill="none" stroke="black" cx="1866" cy="-1192.5" rx="57.55" ry="57.55"/>
<ellipse fill="none" stroke="black" cx="1866" cy="-1192.5" rx="61.55" ry="61.55"/>
<text text-anchor="middle" x="1866" y="-1187.08" font-family="Times New Roman,serif" font-size="14.00">AvvioPerizia</text>
</g>
<!-- Assessment&#45;&gt;AvvioPerizia -->
<g id="edge3" class="edge">
<title>Assessment&#45;&gt;AvvioPerizia</title>
<path fill="none" stroke="black" d="M2050.71,-2332.5C2060.27,-2286.08 2085,-2155.39 2085,-2045.35 2085,-2045.35 2085,-2045.35 2085,-1467.13 2085,-1365.64 1992.03,-1280.24 1927.24,-1233.05"/>
<polygon fill="black" stroke="black" points="1929.3,-1230.22 1919.13,-1227.25 1925.23,-1235.91 1929.3,-1230.22"/>
</g>
<!-- AvvioPeriziaPostDesk -->
<g id="node12" class="node">
<title>AvvioPeriziaPostDesk</title>
<ellipse fill="none" stroke="black" cx="1960" cy="-2044.35" rx="93.48" ry="93.48"/>
<ellipse fill="none" stroke="black" cx="1960" cy="-2044.35" rx="97.48" ry="97.48"/>
<text text-anchor="middle" x="1960" y="-2038.92" font-family="Times New Roman,serif" font-size="14.00">AvvioPeriziaPostDesk</text>
</g>
<!-- Assessment&#45;&gt;AvvioPeriziaPostDesk -->
<g id="edge4" class="edge">
<title>Assessment&#45;&gt;AvvioPeriziaPostDesk</title>
<path fill="none" stroke="black" d="M2042.07,-2332.67C2032.11,-2297.79 2008.88,-2216.47 1989.67,-2149.22"/>
<polygon fill="black" stroke="black" points="1993.15,-2148.66 1987.04,-2140.01 1986.42,-2150.59 1993.15,-2148.66"/>
</g>
<!-- CollaborazionePerizia -->
<g id="node6" class="node">
<title>CollaborazionePerizia</title>
<ellipse fill="none" stroke="black" cx="1128" cy="-1468.13" rx="90.98" ry="90.98"/>
<text text-anchor="middle" x="1128" y="-1462.71" font-family="Times New Roman,serif" font-size="14.00">CollaborazionePerizia</text>
</g>
<!-- CollaborazioneRifiutata -->
<g id="node7" class="node">
<title>CollaborazioneRifiutata</title>
<ellipse fill="none" stroke="black" cx="1128" cy="-1192.5" rx="97.47" ry="97.47"/>
<text text-anchor="middle" x="1128" y="-1187.08" font-family="Times New Roman,serif" font-size="14.00">CollaborazioneRifiutata</text>
</g>
<!-- CollaborazionePerizia&#45;&gt;CollaborazioneRifiutata -->
<g id="edge5" class="edge">
<title>CollaborazionePerizia&#45;&gt;CollaborazioneRifiutata</title>
<path fill="none" stroke="black" d="M1128,-1376.78C1128,-1352.75 1128,-1326.55 1128,-1301.67"/>
<polygon fill="black" stroke="black" points="1131.5,-1301.86 1128,-1291.86 1124.5,-1301.86 1131.5,-1301.86"/>
<text text-anchor="middle" x="1169.62" y="-1321.9" font-family="Times New Roman,serif" font-size="14.00">CollabRifiutata</text>
</g>
<!-- CollaborazioneCompletata -->
<g id="node8" class="node">
<title>CollaborazioneCompletata</title>
<ellipse fill="none" stroke="black" cx="1352" cy="-1192.5" rx="108.95" ry="108.95"/>
<text text-anchor="middle" x="1352" y="-1187.08" font-family="Times New Roman,serif" font-size="14.00">CollaborazioneCompletata</text>
</g>
<!-- CollaborazionePerizia&#45;&gt;CollaborazioneCompletata -->
<g id="edge6" class="edge">
<title>CollaborazionePerizia&#45;&gt;CollaborazioneCompletata</title>
<path fill="none" stroke="black" d="M1185.39,-1397.02C1213,-1363.31 1246.45,-1322.43 1276.13,-1286.19"/>
<polygon fill="black" stroke="black" points="1278.6,-1288.69 1282.22,-1278.74 1273.18,-1284.26 1278.6,-1288.69"/>
<text text-anchor="middle" x="1296.25" y="-1321.9" font-family="Times New Roman,serif" font-size="14.00">CollabCompletata</text>
</g>
<!-- CollaborazioneCancellata -->
<g id="node9" class="node">
<title>CollaborazioneCancellata</title>
<ellipse fill="none" stroke="black" cx="908" cy="-1192.5" rx="104.46" ry="104.46"/>
<text text-anchor="middle" x="908" y="-1187.08" font-family="Times New Roman,serif" font-size="14.00">CollaborazioneCancellata</text>
</g>
<!-- CollaborazionePerizia&#45;&gt;CollaborazioneCancellata -->
<g id="edge7" class="edge">
<title>CollaborazionePerizia&#45;&gt;CollaborazioneCancellata</title>
<path fill="none" stroke="black" d="M1071.34,-1396.67C1043.53,-1362.07 1009.71,-1320 980.07,-1283.14"/>
<polygon fill="black" stroke="black" points="982.97,-1281.17 973.98,-1275.57 977.52,-1285.55 982.97,-1281.17"/>
<text text-anchor="middle" x="1064.88" y="-1321.9" font-family="Times New Roman,serif" font-size="14.00">CollabCancellata</text>
</g>
<!-- EsecuzionePerizia -->
<g id="node11" class="node">
<title>EsecuzionePerizia</title>
<ellipse fill="none" stroke="black" cx="669" cy="-954.79" rx="77.01" ry="77.01"/>
<text text-anchor="middle" x="669" y="-949.37" font-family="Times New Roman,serif" font-size="14.00">EsecuzionePerizia</text>
</g>
<!-- CollaborazioneRifiutata&#45;&gt;EsecuzionePerizia -->
<g id="edge8" class="edge">
<title>CollaborazioneRifiutata&#45;&gt;EsecuzionePerizia</title>
<path fill="none" stroke="black" stroke-dasharray="1,5" d="M1068.13,-1115.48C1053.88,-1100.76 1037.88,-1086.53 1021,-1075.55 938.87,-1022.13 830.39,-989.95 755.67,-972.61"/>
<polygon fill="black" stroke="black" points="756.91,-969.3 746.38,-970.5 755.35,-976.13 756.91,-969.3"/>
</g>
<!-- CollaborazioneCompletata&#45;&gt;EsecuzionePerizia -->
<g id="edge9" class="edge">
<title>CollaborazioneCompletata&#45;&gt;EsecuzionePerizia</title>
<path fill="none" stroke="black" stroke-dasharray="1,5" d="M1281.08,-1109.52C1266.63,-1096.57 1250.7,-1084.52 1234,-1075.55 1079.9,-992.81 873.47,-967.23 757.58,-959.32"/>
<polygon fill="black" stroke="black" points="758.02,-955.84 747.82,-958.69 757.57,-962.83 758.02,-955.84"/>
</g>
<!-- CollaborazioneCancellata&#45;&gt;EsecuzionePerizia -->
<g id="edge10" class="edge">
<title>CollaborazioneCancellata&#45;&gt;EsecuzionePerizia</title>
<path fill="none" stroke="black" stroke-dasharray="1,5" d="M834.02,-1118.54C801.16,-1086.13 762.9,-1048.4 731.5,-1017.43"/>
<polygon fill="black" stroke="black" points="734.33,-1015.3 724.75,-1010.77 729.41,-1020.29 734.33,-1015.3"/>
</g>
<!-- AvvioPerizia&#45;&gt;EsecuzionePerizia -->
<g id="edge1" class="edge">
<title>AvvioPerizia&#45;&gt;EsecuzionePerizia</title>
<path fill="none" stroke="black" d="M1807.74,-1171.54C1731.59,-1146.09 1593.69,-1102.21 1473,-1075.55 1215.64,-1018.71 905.88,-981.07 757.15,-964.86"/>
<polygon fill="black" stroke="black" points="757.68,-961.4 747.36,-963.8 756.93,-968.36 757.68,-961.4"/>
<text text-anchor="middle" x="1447.38" y="-1052.25" font-family="Times New Roman,serif" font-size="14.00">PeriziaAvviata</text>
</g>
<!-- EsecuzionePerizia&#45;&gt;RevisionePerizia -->
<g id="edge16" class="edge">
<title>EsecuzionePerizia&#45;&gt;RevisionePerizia</title>
<path fill="none" stroke="black" stroke-dasharray="1,5" d="M657.13,-1031.1C654.96,-1045.83 652.82,-1061.16 651,-1075.55 637.34,-1183.66 634.67,-1210.83 626,-1319.45 615.47,-1451.41 663.83,-1496.33 609,-1616.82 594.46,-1648.76 568.29,-1677.01 542.98,-1698.93"/>
<polygon fill="black" stroke="black" points="541,-1696.03 535.61,-1705.15 545.51,-1701.38 541,-1696.03"/>
<text text-anchor="middle" x="669.5" y="-1321.9" font-family="Times New Roman,serif" font-size="14.00">AvviaRevisione</text>
</g>
<!-- EsecuzionePerizia&#45;&gt;CollaborazionePerizia -->
<g id="edge15" class="edge">
<title>EsecuzionePerizia&#45;&gt;CollaborazionePerizia</title>
<path fill="none" stroke="black" stroke-dasharray="1,5" d="M661.55,-1031.8C654.48,-1120.36 648.9,-1259.88 678.75,-1301.45 689.53,-1316.46 902.22,-1390.6 1031.03,-1434.45"/>
<polygon fill="black" stroke="black" points="1029.66,-1437.69 1040.25,-1437.59 1031.91,-1431.06 1029.66,-1437.69"/>
<text text-anchor="middle" x="736.12" y="-1187.08" font-family="Times New Roman,serif" font-size="14.00">AvviaCollaborazione</text>
</g>
<!-- EsecuzionePerizia&#45;&gt;EsecuzionePerizia -->
<g id="edge17" class="edge">
<title>EsecuzionePerizia&#45;&gt;EsecuzionePerizia</title>
<path fill="none" stroke="black" d="M745.79,-963.45C756.7,-962.05 764.01,-959.16 764.01,-954.79 764.01,-952.13 761.3,-950.02 756.71,-948.46"/>
<polygon fill="black" stroke="black" points="757.78,-945.11 747.27,-946.45 756.33,-951.96 757.78,-945.11"/>
<text text-anchor="middle" x="822.14" y="-949.37" font-family="Times New Roman,serif" font-size="14.00">AvviaCollaborazione</text>
</g>
<!-- EsecuzionePerizia&#45;&gt;EsecuzionePerizia -->
<g id="edge18" class="edge">
<title>EsecuzionePerizia&#45;&gt;EsecuzionePerizia</title>
<path fill="none" stroke="black" d="M744.29,-972.27C806.17,-977.42 880.26,-971.6 880.26,-954.79 880.26,-939.01 814.87,-932.91 755.64,-936.5"/>
<polygon fill="black" stroke="black" points="755.52,-933 745.8,-937.21 756.02,-939.98 755.52,-933"/>
<text text-anchor="middle" x="966.14" y="-949.37" font-family="Times New Roman,serif" font-size="14.00">CollaborazioneNonCompletata</text>
</g>
<!-- EsecuzionePerizia&#45;&gt;PeriziaInRevisione -->
<g id="edge19" class="edge">
<title>EsecuzionePerizia&#45;&gt;PeriziaInRevisione</title>
<path fill="none" stroke="black" d="M601.58,-992.33C575.33,-1008.19 545.88,-1028.11 522,-1049.8 500.15,-1069.66 479.32,-1094.15 461.72,-1117.16"/>
<polygon fill="black" stroke="black" points="459.02,-1114.93 455.8,-1125.02 464.61,-1119.14 459.02,-1114.93"/>
<text text-anchor="middle" x="565.5" y="-1052.25" font-family="Times New Roman,serif" font-size="14.00">AvviaRevisione</text>
</g>
<!-- VerificaAuthority -->
<g id="node15" class="node">
<title>VerificaAuthority</title>
<ellipse fill="none" stroke="black" cx="812" cy="-751.51" rx="74.52" ry="74.52"/>
<text text-anchor="middle" x="812" y="-746.09" font-family="Times New Roman,serif" font-size="14.00">VerificaAuthority</text>
</g>
<!-- EsecuzionePerizia&#45;&gt;VerificaAuthority -->
<g id="edge20" class="edge">
<title>EsecuzionePerizia&#45;&gt;VerificaAuthority</title>
<path fill="none" stroke="black" d="M735.6,-915.17C755.92,-900.31 776.44,-881.58 790,-859.78 794.43,-852.65 797.99,-844.79 800.84,-836.67"/>
<polygon fill="black" stroke="black" points="804.12,-837.9 803.75,-827.31 797.44,-835.82 804.12,-837.9"/>
<text text-anchor="middle" x="852.25" y="-846.48" font-family="Times New Roman,serif" font-size="14.00">AuthorityNecessaria</text>
</g>
<!-- ComunicazioneEsito -->
<g id="node16" class="node">
<title>ComunicazioneEsito</title>
<ellipse fill="none" stroke="black" cx="604" cy="-538.26" rx="86.99" ry="86.99"/>
<text text-anchor="middle" x="604" y="-532.83" font-family="Times New Roman,serif" font-size="14.00">ComunicazioneEsito</text>
</g>
<!-- EsecuzionePerizia&#45;&gt;ComunicazioneEsito -->
<g id="edge21" class="edge">
<title>EsecuzionePerizia&#45;&gt;ComunicazioneEsito</title>
<path fill="none" stroke="black" d="M622.86,-892.95C610.13,-872.73 598.03,-849.39 591.5,-826.03 574.17,-764.05 577.51,-691.63 585.07,-635.07"/>
<polygon fill="black" stroke="black" points="588.49,-635.86 586.42,-625.47 581.56,-634.89 588.49,-635.86"/>
<text text-anchor="middle" x="659.25" y="-746.09" font-family="Times New Roman,serif" font-size="14.00">AuthorityNonNecessaria</text>
</g>
<!-- EsecuzionePeriziaPostDesk -->
<g id="node13" class="node">
<title>EsecuzionePeriziaPostDesk</title>
<ellipse fill="none" stroke="black" cx="1370" cy="-1747.76" rx="112.94" ry="112.94"/>
<text text-anchor="middle" x="1370" y="-1742.33" font-family="Times New Roman,serif" font-size="14.00">EsecuzionePeriziaPostDesk</text>
</g>
<!-- AvvioPeriziaPostDesk&#45;&gt;EsecuzionePeriziaPostDesk -->
<g id="edge2" class="edge">
<title>AvvioPeriziaPostDesk&#45;&gt;EsecuzionePeriziaPostDesk</title>
<path fill="none" stroke="black" d="M1964,-1946.51C1960.37,-1921.78 1952.01,-1897.04 1935,-1878.7 1876.22,-1815.31 1641.94,-1778.49 1494.14,-1761.12"/>
<polygon fill="black" stroke="black" points="1494.61,-1757.65 1484.28,-1759.97 1493.81,-1764.6 1494.61,-1757.65"/>
<text text-anchor="middle" x="1984.38" y="-1881.15" font-family="Times New Roman,serif" font-size="14.00">PeriziaAvviata</text>
</g>
<!-- EsecuzionePeriziaPostDesk&#45;&gt;CollaborazionePerizia -->
<g id="edge31" class="edge">
<title>EsecuzionePeriziaPostDesk&#45;&gt;CollaborazionePerizia</title>
<path fill="none" stroke="black" stroke-dasharray="1,5" d="M1272.37,-1690.95C1242.91,-1670.55 1212.42,-1645.37 1189.75,-1616.82 1177.76,-1601.72 1167.73,-1583.96 1159.49,-1566.08"/>
<polygon fill="black" stroke="black" points="1162.69,-1564.68 1155.45,-1556.95 1156.29,-1567.51 1162.69,-1564.68"/>
<text text-anchor="middle" x="1247.12" y="-1603.52" font-family="Times New Roman,serif" font-size="14.00">AvviaCollaborazione</text>
</g>
<!-- EsecuzionePeriziaPostDesk&#45;&gt;EsecuzionePeriziaPostDesk -->
<g id="edge32" class="edge">
<title>EsecuzionePeriziaPostDesk&#45;&gt;EsecuzionePeriziaPostDesk</title>
<path fill="none" stroke="black" d="M1482.68,-1758.37C1493.84,-1756.24 1500.94,-1752.71 1500.94,-1747.76 1500.94,-1744.74 1498.3,-1742.25 1493.72,-1740.29"/>
<polygon fill="black" stroke="black" points="1494.71,-1736.93 1484.14,-1737.56 1492.8,-1743.66 1494.71,-1736.93"/>
<text text-anchor="middle" x="1559.06" y="-1742.33" font-family="Times New Roman,serif" font-size="14.00">AvviaCollaborazione</text>
</g>
<!-- EsecuzionePeriziaPostDesk&#45;&gt;EsecuzionePeriziaPostDesk -->
<g id="edge33" class="edge">
<title>EsecuzionePeriziaPostDesk&#45;&gt;EsecuzionePeriziaPostDesk</title>
<path fill="none" stroke="black" d="M1480.57,-1772.87C1547.55,-1776.74 1617.19,-1768.36 1617.19,-1747.76 1617.19,-1728.32 1555.21,-1719.77 1491.97,-1722.11"/>
<polygon fill="black" stroke="black" points="1491.91,-1718.61 1482.08,-1722.58 1492.24,-1725.6 1491.91,-1718.61"/>
<text text-anchor="middle" x="1703.06" y="-1742.33" font-family="Times New Roman,serif" font-size="14.00">CollaborazioneNonCompletata</text>
</g>
<!-- PeriziaInRevisionePostDesk -->
<g id="node18" class="node">
<title>PeriziaInRevisionePostDesk</title>
<ellipse fill="none" stroke="black" cx="1592" cy="-1468.13" rx="114.94" ry="114.94"/>
<text text-anchor="middle" x="1592" y="-1462.71" font-family="Times New Roman,serif" font-size="14.00">PeriziaInRevisionePostDesk</text>
</g>
<!-- EsecuzionePeriziaPostDesk&#45;&gt;PeriziaInRevisionePostDesk -->
<g id="edge34" class="edge">
<title>EsecuzionePeriziaPostDesk&#45;&gt;PeriziaInRevisionePostDesk</title>
<path fill="none" stroke="black" d="M1419.46,-1645.68C1429.87,-1629.68 1441.77,-1614.14 1455,-1601.07 1461.54,-1594.61 1465.71,-1596.48 1473,-1590.87 1484.48,-1582.03 1495.92,-1572.12 1506.92,-1561.86"/>
<polygon fill="black" stroke="black" points="1509.3,-1564.43 1514.15,-1555.01 1504.48,-1559.35 1509.3,-1564.43"/>
<text text-anchor="middle" x="1498.5" y="-1603.52" font-family="Times New Roman,serif" font-size="14.00">AvviaRevisione</text>
</g>
<!-- VerificaAuthorityPostDesk -->
<g id="node19" class="node">
<title>VerificaAuthorityPostDesk</title>
<ellipse fill="none" stroke="black" cx="1835" cy="-1468.13" rx="110.44" ry="110.44"/>
<text text-anchor="middle" x="1835" y="-1462.71" font-family="Times New Roman,serif" font-size="14.00">VerificaAuthorityPostDesk</text>
</g>
<!-- EsecuzionePeriziaPostDesk&#45;&gt;VerificaAuthorityPostDesk -->
<g id="edge35" class="edge">
<title>EsecuzionePeriziaPostDesk&#45;&gt;VerificaAuthorityPostDesk</title>
<path fill="none" stroke="black" d="M1460.02,-1678.81C1509.76,-1641.42 1562.21,-1602.29 1565.5,-1601.07 1596.94,-1589.45 1685.56,-1604.91 1716,-1590.87 1731.19,-1583.86 1745.48,-1574 1758.53,-1562.89"/>
<polygon fill="black" stroke="black" points="1760.64,-1565.7 1765.79,-1556.44 1755.99,-1560.47 1760.64,-1565.7"/>
<text text-anchor="middle" x="1621.25" y="-1603.52" font-family="Times New Roman,serif" font-size="14.00">AuthorityNecessaria</text>
</g>
<!-- ComunicazioneEsitoPostDesk -->
<g id="node20" class="node">
<title>ComunicazioneEsitoPostDesk</title>
<ellipse fill="none" stroke="black" cx="1209" cy="-2350.92" rx="122.92" ry="122.92"/>
<text text-anchor="middle" x="1209" y="-2345.5" font-family="Times New Roman,serif" font-size="14.00">ComunicazioneEsitoPostDesk</text>
</g>
<!-- EsecuzionePeriziaPostDesk&#45;&gt;ComunicazioneEsitoPostDesk -->
<g id="edge36" class="edge">
<title>EsecuzionePeriziaPostDesk&#45;&gt;ComunicazioneEsitoPostDesk</title>
<path fill="none" stroke="black" d="M1380.48,-1860.53C1384.68,-1949.03 1381.39,-2074.29 1343,-2176.25 1332.99,-2202.84 1317.43,-2228.68 1300.42,-2251.95"/>
<polygon fill="black" stroke="black" points="1297.68,-2249.76 1294.48,-2259.86 1303.28,-2253.96 1297.68,-2249.76"/>
<text text-anchor="middle" x="1449.25" y="-2038.92" font-family="Times New Roman,serif" font-size="14.00">AuthorityNonNecessaria</text>
</g>
<!-- PeriziaInRevisione&#45;&gt;EsecuzionePerizia -->
<g id="edge22" class="edge">
<title>PeriziaInRevisione&#45;&gt;EsecuzionePerizia</title>
<path fill="none" stroke="black" d="M377.24,-1120.74C370.69,-1096.41 369.77,-1070.19 384.5,-1049.8 428.86,-988.43 514.77,-966.46 580.63,-958.92"/>
<polygon fill="black" stroke="black" points="580.76,-962.42 590.34,-957.91 580.03,-955.46 580.76,-962.42"/>
<text text-anchor="middle" x="443.25" y="-1052.25" font-family="Times New Roman,serif" font-size="14.00">RevisioneCompletata</text>
</g>
<!-- VerificaAuthority&#45;&gt;EsecuzionePerizia -->
<g id="edge23" class="edge">
<title>VerificaAuthority&#45;&gt;EsecuzionePerizia</title>
<path fill="none" stroke="black" d="M758.08,-803.13C747.33,-811.58 735.72,-819.65 724,-826.03 700.29,-838.93 682.01,-822.3 666,-844.03 660.81,-851.07 657.58,-859.12 655.77,-867.58"/>
<polygon fill="black" stroke="black" points="652.32,-867 654.38,-877.4 659.25,-867.99 652.32,-867"/>
<text text-anchor="middle" x="726" y="-846.48" font-family="Times New Roman,serif" font-size="14.00">PeriziaNonApprovata</text>
</g>
<!-- VerificaAuthority&#45;&gt;ComunicazioneEsito -->
<g id="edge24" class="edge">
<title>VerificaAuthority&#45;&gt;ComunicazioneEsito</title>
<path fill="none" stroke="black" d="M760.05,-697.75C733.65,-670.94 701.23,-638.01 672.79,-609.12"/>
<polygon fill="black" stroke="black" points="675.45,-606.84 665.94,-602.17 670.46,-611.75 675.45,-606.84"/>
<text text-anchor="middle" x="768" y="-645.7" font-family="Times New Roman,serif" font-size="14.00">PeriziaApprovata</text>
</g>
<!-- ComunicazioneEsito&#45;&gt;AvvioChiusura -->
<g id="edge27" class="edge">
<title>ComunicazioneEsito&#45;&gt;AvvioChiusura</title>
<path fill="none" stroke="black" d="M627.33,-454.16C642.34,-381.78 650.44,-277.72 598,-207.57 541.18,-131.55 429.96,-104.94 354.55,-95.67"/>
<polygon fill="black" stroke="black" points="355.07,-92.2 344.74,-94.54 354.28,-99.16 355.07,-92.2"/>
<text text-anchor="middle" x="738.12" y="-298.12" font-family="Times New Roman,serif" font-size="14.00">AccordoRaggiunto&#45;o&#45;NonRichiesto</text>
</g>
<!-- ComunicazioneEsito&#45;&gt;ComunicazioneEsito -->
<g id="edge25" class="edge">
<title>ComunicazioneEsito&#45;&gt;ComunicazioneEsito</title>
<path fill="none" stroke="black" d="M689.27,-557.14C701.09,-554.03 708.99,-547.74 708.99,-538.26 708.99,-532.04 705.59,-527.19 699.91,-523.71"/>
<polygon fill="black" stroke="black" points="701.26,-520.48 690.68,-519.94 698.61,-526.96 701.26,-520.48"/>
<text text-anchor="middle" x="777.24" y="-532.83" font-family="Times New Roman,serif" font-size="14.00">DatiObbligatoriMancanti</text>
</g>
<!-- GestioneContestazione -->
<g id="node17" class="node">
<title>GestioneContestazione</title>
<ellipse fill="none" stroke="black" cx="339" cy="-303.54" rx="95.97" ry="95.97"/>
<text text-anchor="middle" x="339" y="-298.12" font-family="Times New Roman,serif" font-size="14.00">GestioneContestazione</text>
</g>
<!-- ComunicazioneEsito&#45;&gt;GestioneContestazione -->
<g id="edge26" class="edge">
<title>ComunicazioneEsito&#45;&gt;GestioneContestazione</title>
<path fill="none" stroke="black" d="M537.13,-482.2C518.42,-466.55 498.17,-449.38 479.75,-433.26 459.27,-415.35 437.44,-395.67 417.23,-377.2"/>
<polygon fill="black" stroke="black" points="419.83,-374.84 410.09,-370.67 415.1,-380 419.83,-374.84"/>
<text text-anchor="middle" x="544.62" y="-419.96" font-family="Times New Roman,serif" font-size="14.00">AccordoNonRaggiunto</text>
</g>
<!-- GestioneContestazione&#45;&gt;AvvioChiusura -->
<g id="edge30" class="edge">
<title>GestioneContestazione&#45;&gt;AvvioChiusura</title>
<path fill="none" stroke="black" d="M312.17,-210.89C307.61,-195.33 302.93,-179.35 298.54,-164.34"/>
<polygon fill="black" stroke="black" points="301.98,-163.66 295.81,-155.04 295.26,-165.62 301.98,-163.66"/>
<text text-anchor="middle" x="357.88" y="-176.27" font-family="Times New Roman,serif" font-size="14.00">ConfermaAccordo</text>
</g>
<!-- GestioneContestazione&#45;&gt;EsecuzionePerizia -->
<g id="edge28" class="edge">
<title>GestioneContestazione&#45;&gt;EsecuzionePerizia</title>
<path fill="none" stroke="black" d="M358.81,-397.67C376.5,-471.08 406.15,-574.75 448.25,-659 497.54,-757.64 527.21,-772.04 594,-859.78 600.34,-868.1 607.06,-876.77 613.79,-885.33"/>
<polygon fill="black" stroke="black" points="610.9,-887.31 619.84,-892.99 616.39,-882.98 610.9,-887.31"/>
<text text-anchor="middle" x="512.88" y="-645.7" font-family="Times New Roman,serif" font-size="14.00">NonConfermaAccordo</text>
</g>
<!-- GestioneContestazione&#45;&gt;GestioneContestazione -->
<g id="edge29" class="edge">
<title>GestioneContestazione&#45;&gt;GestioneContestazione</title>
<path fill="none" stroke="black" d="M433.33,-323.44C445.18,-319.93 452.97,-313.3 452.97,-303.54 452.97,-296.99 449.45,-291.84 443.55,-288.11"/>
<polygon fill="black" stroke="black" points="445.28,-285.04 434.72,-284.25 442.48,-291.46 445.28,-285.04"/>
<text text-anchor="middle" x="521.22" y="-298.12" font-family="Times New Roman,serif" font-size="14.00">DatiObbligatoriMancanti</text>
</g>
<!-- PeriziaInRevisionePostDesk&#45;&gt;EsecuzionePeriziaPostDesk -->
<g id="edge37" class="edge">
<title>PeriziaInRevisionePostDesk&#45;&gt;EsecuzionePeriziaPostDesk</title>
<path fill="none" stroke="black" d="M1520.59,-1558.5C1506.21,-1571.39 1490.18,-1582.96 1473,-1590.87 1457.47,-1598.02 1331.18,-1588.59 1319.5,-1601.07 1308.79,-1612.52 1305.62,-1626.35 1307.11,-1640.89"/>
<polygon fill="black" stroke="black" points="1303.64,-1641.38 1308.84,-1650.62 1310.53,-1640.16 1303.64,-1641.38"/>
<text text-anchor="middle" x="1378.25" y="-1603.52" font-family="Times New Roman,serif" font-size="14.00">RevisioneCompletata</text>
</g>
<!-- VerificaAuthorityPostDesk&#45;&gt;EsecuzionePeriziaPostDesk -->
<g id="edge38" class="edge">
<title>VerificaAuthorityPostDesk&#45;&gt;EsecuzionePeriziaPostDesk</title>
<path fill="none" stroke="black" d="M1760.37,-1550.07C1746.11,-1564.19 1730.96,-1578.35 1716,-1590.87 1709.82,-1596.04 1707.66,-1596.53 1701,-1601.07 1690.77,-1608.05 1688.87,-1610.88 1678,-1616.82 1616.86,-1650.21 1545.33,-1680.86 1486.6,-1703.99"/>
<polygon fill="black" stroke="black" points="1485.62,-1700.62 1477.58,-1707.53 1488.17,-1707.14 1485.62,-1700.62"/>
<text text-anchor="middle" x="1761" y="-1603.52" font-family="Times New Roman,serif" font-size="14.00">PeriziaNonApprovata</text>
</g>
<!-- VerificaAuthorityPostDesk&#45;&gt;ComunicazioneEsitoPostDesk -->
<g id="edge39" class="edge">
<title>VerificaAuthorityPostDesk&#45;&gt;ComunicazioneEsitoPostDesk</title>
<path fill="none" stroke="black" d="M1849.25,-1577.82C1855.33,-1658.97 1853.9,-1770.87 1816,-1860.7 1725.28,-2075.7 1481.43,-2223.01 1331.86,-2296.28"/>
<polygon fill="black" stroke="black" points="1330.53,-2293.03 1323.07,-2300.55 1333.59,-2299.33 1330.53,-2293.03"/>
<text text-anchor="middle" x="1854" y="-1881.15" font-family="Times New Roman,serif" font-size="14.00">PeriziaApprovata</text>
</g>
<!-- ComunicazioneEsitoPostDesk&#45;&gt;AvvioChiusura -->
<g id="edge40" class="edge">
<title>ComunicazioneEsitoPostDesk&#45;&gt;AvvioChiusura</title>
<path fill="none" stroke="black" d="M1085.86,-2344.98C778.11,-2329.28 0,-2267.62 0,-2045.35 0,-2045.35 0,-2045.35 0,-302.54 0,-200.29 120.6,-140.78 202.65,-112.13"/>
<polygon fill="black" stroke="black" points="203.68,-115.47 212.02,-108.94 201.42,-108.85 203.68,-115.47"/>
<text text-anchor="middle" x="100.12" y="-1052.25" font-family="Times New Roman,serif" font-size="14.00">AccordoRaggiunto&#45;o&#45;NonRichiesto</text>
</g>
<!-- ComunicazioneEsitoPostDesk&#45;&gt;ComunicazioneEsitoPostDesk -->
<g id="edge41" class="edge">
<title>ComunicazioneEsitoPostDesk&#45;&gt;ComunicazioneEsitoPostDesk</title>
<path fill="none" stroke="black" d="M1330.27,-2373.67C1342.28,-2369.11 1349.92,-2361.53 1349.92,-2350.92 1349.92,-2343.63 1346.31,-2337.76 1340.15,-2333.33"/>
<polygon fill="black" stroke="black" points="1342.1,-2330.4 1331.61,-2328.87 1338.86,-2336.6 1342.1,-2330.4"/>
<text text-anchor="middle" x="1418.17" y="-2345.5" font-family="Times New Roman,serif" font-size="14.00">DatiObbligatoriMancanti</text>
</g>
<!-- GestioneContestazionePostDesk -->
<g id="node21" class="node">
<title>GestioneContestazionePostDesk</title>
<ellipse fill="none" stroke="black" cx="1048" cy="-2044.35" rx="131.9" ry="131.9"/>
<text text-anchor="middle" x="1048" y="-2038.92" font-family="Times New Roman,serif" font-size="14.00">GestioneContestazionePostDesk</text>
</g>
<!-- ComunicazioneEsitoPostDesk&#45;&gt;GestioneContestazionePostDesk -->
<g id="edge42" class="edge">
<title>ComunicazioneEsitoPostDesk&#45;&gt;GestioneContestazionePostDesk</title>
<path fill="none" stroke="black" d="M1151.78,-2241.68C1139.76,-2218.94 1126.98,-2194.77 1114.65,-2171.44"/>
<polygon fill="black" stroke="black" points="1117.87,-2170.04 1110.11,-2162.84 1111.68,-2173.31 1117.87,-2170.04"/>
<text text-anchor="middle" x="1198.62" y="-2196.7" font-family="Times New Roman,serif" font-size="14.00">AccordoNonRaggiunto</text>
</g>
<!-- GestioneContestazionePostDesk&#45;&gt;AvvioChiusura -->
<g id="edge43" class="edge">
<title>GestioneContestazionePostDesk&#45;&gt;AvvioChiusura</title>
<path fill="none" stroke="black" d="M916.23,-2031.85C709.34,-2010.97 322.41,-1959.53 231,-1860.7 196.88,-1823.8 215,-1799.02 215,-1748.76 215,-1748.76 215,-1748.76 215,-302.54 215,-253.84 230.29,-201.28 245.69,-160.71"/>
<polygon fill="black" stroke="black" points="248.89,-162.13 249.26,-151.54 242.37,-159.59 248.89,-162.13"/>
<text text-anchor="middle" x="267.88" y="-949.37" font-family="Times New Roman,serif" font-size="14.00">ConfermaAccordo</text>
</g>
<!-- GestioneContestazionePostDesk&#45;&gt;EsecuzionePeriziaPostDesk -->
<g id="edge44" class="edge">
<title>GestioneContestazionePostDesk&#45;&gt;EsecuzionePeriziaPostDesk</title>
<path fill="none" stroke="black" d="M1144.5,-1953.86C1170.95,-1929.43 1199.66,-1903 1226.25,-1878.7 1242.9,-1863.49 1260.68,-1847.33 1277.87,-1831.77"/>
<polygon fill="black" stroke="black" points="1280.06,-1834.51 1285.13,-1825.2 1275.36,-1829.32 1280.06,-1834.51"/>
<text text-anchor="middle" x="1290.88" y="-1881.15" font-family="Times New Roman,serif" font-size="14.00">NonConfermaAccordo</text>
</g>
<!-- GestioneContestazionePostDesk&#45;&gt;GestioneContestazionePostDesk -->
<g id="edge45" class="edge">
<title>GestioneContestazionePostDesk&#45;&gt;GestioneContestazionePostDesk</title>
<path fill="none" stroke="black" d="M1178.04,-2068.07C1190.21,-2063.19 1197.9,-2055.29 1197.9,-2044.35 1197.9,-2036.83 1194.27,-2030.74 1188.04,-2026.09"/>
<polygon fill="black" stroke="black" points="1189.82,-2023.07 1179.37,-2021.36 1186.47,-2029.22 1189.82,-2023.07"/>
<text text-anchor="middle" x="1266.15" y="-2038.92" font-family="Times New Roman,serif" font-size="14.00">DatiObbligatoriMancanti</text>
</g>
</g>
</svg>
