<?xml version="1.0" encoding="UTF-8" standalone="no"?>
<!DOCTYPE svg PUBLIC "-//W3C//DTD SVG 1.1//EN"
 "http://www.w3.org/Graphics/SVG/1.1/DTD/svg11.dtd">
<!-- Generated by graphviz version 9.0.0 (20230911.1827)
 -->
<!-- perizia post desk, perizia conciliazione e perizia incompleta (vedi chiusura) -->
<!-- Title: finite_state_machine Pages: 1 -->
<svg width="295pt" height="360pt"
 viewBox="0.00 0.00 295.16 360.00" xmlns="http://www.w3.org/2000/svg" xmlns:xlink="http://www.w3.org/1999/xlink">
<g id="graph0" class="graph" transform="scale(0.158181 0.158181) rotate(0) translate(4 2271.88)">
<title>finite_state_machine</title>
<polygon fill="white" stroke="none" points="-4,4 -4,-2271.88 1861.97,-2271.88 1861.97,4 -4,4"/>
<text text-anchor="middle" x="928.98" y="-6.45" font-family="Times New Roman,serif" font-size="14.00">Expertise</text>
<g id="clust1" class="cluster">
<title>Revision</title>
<polygon fill="none" stroke="black" points="8,-1823.11 8,-2259.88 376,-2259.88 376,-1823.11 8,-1823.11"/>
<text text-anchor="middle" x="192" y="-2242.58" font-family="Times New Roman,serif" font-size="14.00">Revision</text>
</g>
<g id="clust4" class="cluster">
<title>Collaboration</title>
<polygon fill="none" stroke="black" points="501,-1551.97 501,-2043.33 1174,-2043.33 1174,-1551.97 501,-1551.97"/>
<text text-anchor="middle" x="837.5" y="-2026.03" font-family="Times New Roman,serif" font-size="14.00">Collaboration</text>
</g>
<!-- RevisionePerizia -->
<g id="node1" class="node">
<title>RevisionePerizia</title>
<ellipse fill="none" stroke="black" cx="249" cy="-2156.61" rx="71.52" ry="71.52"/>
<text text-anchor="middle" x="249" y="-2151.18" font-family="Times New Roman,serif" font-size="14.00">RevisionePerizia</text>
</g>
<!-- RevisioneRifiutata -->
<g id="node2" class="node">
<title>RevisioneRifiutata</title>
<ellipse fill="none" stroke="black" cx="94" cy="-1920.6" rx="78.01" ry="78.01"/>
<text text-anchor="middle" x="94" y="-1915.17" font-family="Times New Roman,serif" font-size="14.00">RevisioneRifiutata</text>
</g>
<!-- RevisionePerizia&#45;&gt;RevisioneRifiutata -->
<g id="edge12" class="edge">
<title>RevisionePerizia&#45;&gt;RevisioneRifiutata</title>
<path fill="none" stroke="black" d="M193.57,-2110.87C179.66,-2097.79 165.62,-2082.76 154.75,-2067.08 141.88,-2048.51 130.99,-2026.79 122.14,-2005.88"/>
<polygon fill="black" stroke="black" points="125.44,-2004.7 118.41,-1996.77 118.97,-2007.35 125.44,-2004.7"/>
<text text-anchor="middle" x="205.62" y="-2053.78" font-family="Times New Roman,serif" font-size="14.00">RevisioneRifiutata</text>
</g>
<!-- RevisioneCompletata -->
<g id="node3" class="node">
<title>RevisioneCompletata</title>
<ellipse fill="none" stroke="black" cx="279" cy="-1920.6" rx="89.49" ry="89.49"/>
<text text-anchor="middle" x="279" y="-1915.17" font-family="Times New Roman,serif" font-size="14.00">RevisioneCompletata</text>
</g>
<!-- RevisionePerizia&#45;&gt;RevisioneCompletata -->
<g id="edge13" class="edge">
<title>RevisionePerizia&#45;&gt;RevisioneCompletata</title>
<path fill="none" stroke="black" d="M258,-2085.4C260.6,-2065.1 263.49,-2042.56 266.27,-2020.86"/>
<polygon fill="black" stroke="black" points="269.73,-2021.47 267.53,-2011.1 262.78,-2020.58 269.73,-2021.47"/>
<text text-anchor="middle" x="321.25" y="-2053.78" font-family="Times New Roman,serif" font-size="14.00">RevisioneCompletata</text>
</g>
<!-- PeriziaInRevisione -->
<g id="node15" class="node">
<title>PeriziaInRevisione</title>
<ellipse fill="none" stroke="black" cx="131" cy="-1668.92" rx="79.01" ry="79.01"/>
<text text-anchor="middle" x="131" y="-1663.49" font-family="Times New Roman,serif" font-size="14.00">PeriziaInRevisione</text>
</g>
<!-- RevisioneRifiutata&#45;&gt;PeriziaInRevisione -->
<g id="edge14" class="edge">
<title>RevisioneRifiutata&#45;&gt;PeriziaInRevisione</title>
<path fill="none" stroke="black" stroke-dasharray="1,5" d="M105.35,-1842.99C109.31,-1816.28 113.78,-1786.09 117.87,-1758.49"/>
<polygon fill="black" stroke="black" points="121.32,-1759.15 119.32,-1748.74 114.39,-1758.12 121.32,-1759.15"/>
</g>
<!-- RevisioneCompletata&#45;&gt;PeriziaInRevisione -->
<g id="edge15" class="edge">
<title>RevisioneCompletata&#45;&gt;PeriziaInRevisione</title>
<path fill="none" stroke="black" stroke-dasharray="1,5" d="M233.59,-1842.99C215.57,-1812.59 194.88,-1777.69 176.82,-1747.22"/>
<polygon fill="black" stroke="black" points="179.94,-1745.62 171.83,-1738.8 173.92,-1749.19 179.94,-1745.62"/>
</g>
<!-- Chiusura -->
<g id="node4" class="node">
<title>Chiusura</title>
<polygon fill="lightgrey" stroke="black" points="1787.75,-1938.6 1722.25,-1938.6 1722.25,-1902.6 1787.75,-1902.6 1787.75,-1938.6"/>
<text text-anchor="middle" x="1755" y="-1915.17" font-family="Times New Roman,serif" font-size="14.00">Chiusura</text>
</g>
<!-- AvvioPeriziaIncompleta -->
<g id="node14" class="node">
<title>AvvioPeriziaIncompleta</title>
<ellipse fill="none" stroke="black" cx="1755" cy="-1668.92" rx="98.97" ry="98.97"/>
<ellipse fill="none" stroke="black" cx="1755" cy="-1668.92" rx="102.97" ry="102.97"/>
<text text-anchor="middle" x="1755" y="-1663.49" font-family="Times New Roman,serif" font-size="14.00">AvvioPeriziaIncompleta</text>
</g>
<!-- Chiusura&#45;&gt;AvvioPeriziaIncompleta -->
<g id="edge32" class="edge">
<title>Chiusura&#45;&gt;AvvioPeriziaIncompleta</title>
<path fill="none" stroke="black" d="M1755,-1902.44C1755,-1877.6 1755,-1829.57 1755,-1783.57"/>
<polygon fill="black" stroke="black" points="1758.5,-1783.76 1755,-1773.76 1751.5,-1783.76 1758.5,-1783.76"/>
</g>
<!-- AvvioChiusura -->
<g id="node5" class="node">
<title>AvvioChiusura</title>
<ellipse fill="lightgrey" stroke="black" cx="619" cy="-131.2" rx="66.03" ry="66.03"/>
<text text-anchor="middle" x="619" y="-125.78" font-family="Times New Roman,serif" font-size="14.00">AvvioChiusura</text>
</g>
<!-- Assessment -->
<g id="node6" class="node">
<title>Assessment</title>
<polygon fill="lightgrey" stroke="black" points="1490.38,-1938.6 1407.62,-1938.6 1407.62,-1902.6 1490.38,-1902.6 1490.38,-1938.6"/>
<text text-anchor="middle" x="1449" y="-1915.17" font-family="Times New Roman,serif" font-size="14.00">Assessment</text>
</g>
<!-- AvvioPerizia -->
<g id="node11" class="node">
<title>AvvioPerizia</title>
<ellipse fill="none" stroke="black" cx="1360" cy="-1668.92" rx="57.55" ry="57.55"/>
<ellipse fill="none" stroke="black" cx="1360" cy="-1668.92" rx="61.55" ry="61.55"/>
<text text-anchor="middle" x="1360" y="-1663.49" font-family="Times New Roman,serif" font-size="14.00">AvvioPerizia</text>
</g>
<!-- Assessment&#45;&gt;AvvioPerizia -->
<g id="edge4" class="edge">
<title>Assessment&#45;&gt;AvvioPerizia</title>
<path fill="none" stroke="black" d="M1442.88,-1902.44C1430.98,-1869.06 1404.14,-1793.76 1384.21,-1737.85"/>
<polygon fill="black" stroke="black" points="1387.61,-1736.96 1380.96,-1728.72 1381.02,-1739.31 1387.61,-1736.96"/>
</g>
<!-- AvvioPeriziaPostDesk -->
<g id="node13" class="node">
<title>AvvioPeriziaPostDesk</title>
<ellipse fill="none" stroke="black" cx="1537" cy="-1668.92" rx="93.48" ry="93.48"/>
<ellipse fill="none" stroke="black" cx="1537" cy="-1668.92" rx="97.48" ry="97.48"/>
<text text-anchor="middle" x="1537" y="-1663.49" font-family="Times New Roman,serif" font-size="14.00">AvvioPeriziaPostDesk</text>
</g>
<!-- Assessment&#45;&gt;AvvioPeriziaPostDesk -->
<g id="edge5" class="edge">
<title>Assessment&#45;&gt;AvvioPeriziaPostDesk</title>
<path fill="none" stroke="black" d="M1455.05,-1902.44C1464.55,-1875.49 1483.67,-1821.24 1501.05,-1771.91"/>
<polygon fill="black" stroke="black" points="1504.32,-1773.17 1504.34,-1762.57 1497.72,-1770.84 1504.32,-1773.17"/>
</g>
<!-- CollaborazionePerizia -->
<g id="node7" class="node">
<title>CollaborazionePerizia</title>
<ellipse fill="none" stroke="black" cx="959" cy="-1920.6" rx="90.98" ry="90.98"/>
<text text-anchor="middle" x="959" y="-1915.17" font-family="Times New Roman,serif" font-size="14.00">CollaborazionePerizia</text>
</g>
<!-- CollaborazioneRifiutata -->
<g id="node8" class="node">
<title>CollaborazioneRifiutata</title>
<ellipse fill="none" stroke="black" cx="1069" cy="-1668.92" rx="97.47" ry="97.47"/>
<text text-anchor="middle" x="1069" y="-1663.49" font-family="Times New Roman,serif" font-size="14.00">CollaborazioneRifiutata</text>
</g>
<!-- CollaborazionePerizia&#45;&gt;CollaborazioneRifiutata -->
<g id="edge6" class="edge">
<title>CollaborazionePerizia&#45;&gt;CollaborazioneRifiutata</title>
<path fill="none" stroke="black" d="M995.48,-1836.81C1005.07,-1815.02 1015.53,-1791.29 1025.46,-1768.75"/>
<polygon fill="black" stroke="black" points="1028.54,-1770.44 1029.37,-1759.88 1022.13,-1767.62 1028.54,-1770.44"/>
<text text-anchor="middle" x="1051.62" y="-1798.32" font-family="Times New Roman,serif" font-size="14.00">CollabRifiutata</text>
</g>
<!-- CollaborazioneCompletata -->
<g id="node9" class="node">
<title>CollaborazioneCompletata</title>
<ellipse fill="none" stroke="black" cx="618" cy="-1668.92" rx="108.95" ry="108.95"/>
<text text-anchor="middle" x="618" y="-1663.49" font-family="Times New Roman,serif" font-size="14.00">CollaborazioneCompletata</text>
</g>
<!-- CollaborazionePerizia&#45;&gt;CollaborazioneCompletata -->
<g id="edge7" class="edge">
<title>CollaborazionePerizia&#45;&gt;CollaborazioneCompletata</title>
<path fill="none" stroke="black" d="M880.39,-1874.26C836.63,-1847.89 781.89,-1813.01 736,-1777.87 725.67,-1769.95 715.16,-1761.32 704.89,-1752.49"/>
<polygon fill="black" stroke="black" points="707.32,-1749.96 697.48,-1746.04 702.72,-1755.24 707.32,-1749.96"/>
<text text-anchor="middle" x="826.25" y="-1798.32" font-family="Times New Roman,serif" font-size="14.00">CollabCompletata</text>
</g>
<!-- CollaborazioneCancellata -->
<g id="node10" class="node">
<title>CollaborazioneCancellata</title>
<ellipse fill="none" stroke="black" cx="849" cy="-1668.92" rx="104.46" ry="104.46"/>
<text text-anchor="middle" x="849" y="-1663.49" font-family="Times New Roman,serif" font-size="14.00">CollaborazioneCancellata</text>
</g>
<!-- CollaborazionePerizia&#45;&gt;CollaborazioneCancellata -->
<g id="edge8" class="edge">
<title>CollaborazionePerizia&#45;&gt;CollaborazioneCancellata</title>
<path fill="none" stroke="black" d="M920.85,-1837.47C916.9,-1828.76 912.97,-1820.01 909.25,-1811.62 904.19,-1800.18 898.96,-1788.19 893.8,-1776.23"/>
<polygon fill="black" stroke="black" points="897.05,-1774.94 889.89,-1767.13 890.62,-1777.7 897.05,-1774.94"/>
<text text-anchor="middle" x="955.88" y="-1798.32" font-family="Times New Roman,serif" font-size="14.00">CollabCancellata</text>
</g>
<!-- EsecuzionePerizia -->
<g id="node12" class="node">
<title>EsecuzionePerizia</title>
<ellipse fill="none" stroke="black" cx="986" cy="-1431.21" rx="77.01" ry="77.01"/>
<text text-anchor="middle" x="986" y="-1425.78" font-family="Times New Roman,serif" font-size="14.00">EsecuzionePerizia</text>
</g>
<!-- CollaborazioneRifiutata&#45;&gt;EsecuzionePerizia -->
<g id="edge9" class="edge">
<title>CollaborazioneRifiutata&#45;&gt;EsecuzionePerizia</title>
<path fill="none" stroke="black" stroke-dasharray="1,5" d="M1036.79,-1576.45C1029.68,-1556.25 1022.18,-1534.96 1015.2,-1515.12"/>
<polygon fill="black" stroke="black" points="1018.5,-1513.96 1011.88,-1505.69 1011.9,-1516.29 1018.5,-1513.96"/>
</g>
<!-- CollaborazioneCompletata&#45;&gt;EsecuzionePerizia -->
<g id="edge10" class="edge">
<title>CollaborazioneCompletata&#45;&gt;EsecuzionePerizia</title>
<path fill="none" stroke="black" stroke-dasharray="1,5" d="M691.84,-1588.2C705.82,-1575.25 720.83,-1562.61 736,-1551.97 787.96,-1515.53 852.72,-1484.85 903.31,-1463.67"/>
<polygon fill="black" stroke="black" points="904.58,-1466.93 912.49,-1459.87 901.91,-1460.46 904.58,-1466.93"/>
</g>
<!-- CollaborazioneCancellata&#45;&gt;EsecuzionePerizia -->
<g id="edge11" class="edge">
<title>CollaborazioneCancellata&#45;&gt;EsecuzionePerizia</title>
<path fill="none" stroke="black" stroke-dasharray="1,5" d="M901.18,-1578.13C914.62,-1555.01 928.95,-1530.37 941.93,-1508.03"/>
<polygon fill="black" stroke="black" points="944.84,-1510 946.84,-1499.59 938.78,-1506.48 944.84,-1510"/>
</g>
<!-- AvvioPerizia&#45;&gt;EsecuzionePerizia -->
<g id="edge1" class="edge">
<title>AvvioPerizia&#45;&gt;EsecuzionePerizia</title>
<path fill="none" stroke="black" d="M1333.82,-1612.97C1321.46,-1591.64 1304.99,-1568.43 1285,-1551.97 1222.97,-1500.9 1136.38,-1469.43 1072.34,-1451.65"/>
<polygon fill="black" stroke="black" points="1073.49,-1448.33 1062.92,-1449.09 1071.65,-1455.09 1073.49,-1448.33"/>
<text text-anchor="middle" x="1310.38" y="-1528.67" font-family="Times New Roman,serif" font-size="14.00">PeriziaAvviata</text>
</g>
<!-- EsecuzionePerizia&#45;&gt;RevisionePerizia -->
<g id="edge17" class="edge">
<title>EsecuzionePerizia&#45;&gt;RevisionePerizia</title>
<path fill="none" stroke="black" stroke-dasharray="1,5" d="M909.57,-1442.27C788.04,-1459.65 558.21,-1498.65 497,-1551.97 409.07,-1628.57 425.97,-1682.12 400.25,-1795.87 373.6,-1913.7 442.59,-1962.56 382,-2067.08 368.73,-2089.97 346.89,-2108.09 324.7,-2121.82"/>
<polygon fill="black" stroke="black" points="322.99,-2118.77 316.15,-2126.86 326.55,-2124.8 322.99,-2118.77"/>
<text text-anchor="middle" x="448.38" y="-1798.32" font-family="Times New Roman,serif" font-size="14.00">RevisioneAvviata</text>
</g>
<!-- EsecuzionePerizia&#45;&gt;CollaborazionePerizia -->
<g id="edge16" class="edge">
<title>EsecuzionePerizia&#45;&gt;CollaborazionePerizia</title>
<path fill="none" stroke="black" stroke-dasharray="1,5" d="M1058.67,-1457.66C1100.81,-1476.61 1150.28,-1507.05 1175,-1551.97 1199.2,-1595.95 1198.85,-1733.69 1175,-1777.87 1149.25,-1825.57 1099.67,-1859.82 1054.5,-1882.69"/>
<polygon fill="black" stroke="black" points="1053.13,-1879.46 1045.7,-1887.01 1056.21,-1885.74 1053.13,-1879.46"/>
<text text-anchor="middle" x="1232.38" y="-1663.49" font-family="Times New Roman,serif" font-size="14.00">CollabAvviata</text>
</g>
<!-- EsecuzionePerizia&#45;&gt;EsecuzionePerizia -->
<g id="edge18" class="edge">
<title>EsecuzionePerizia&#45;&gt;EsecuzionePerizia</title>
<path fill="none" stroke="black" d="M1062.79,-1439.86C1073.7,-1438.46 1081.01,-1435.58 1081.01,-1431.21 1081.01,-1428.55 1078.3,-1426.43 1073.71,-1424.87"/>
<polygon fill="black" stroke="black" points="1074.78,-1421.52 1064.27,-1422.87 1073.33,-1428.37 1074.78,-1421.52"/>
<text text-anchor="middle" x="1120.39" y="-1425.78" font-family="Times New Roman,serif" font-size="14.00">CollabAvviata</text>
</g>
<!-- EsecuzionePerizia&#45;&gt;EsecuzionePerizia -->
<g id="edge19" class="edge">
<title>EsecuzionePerizia&#45;&gt;EsecuzionePerizia</title>
<path fill="none" stroke="black" d="M1061.22,-1449.58C1109.23,-1453.01 1159.76,-1446.88 1159.76,-1431.21 1159.76,-1416.76 1116.81,-1410.43 1072.49,-1412.21"/>
<polygon fill="black" stroke="black" points="1072.52,-1408.7 1062.73,-1412.76 1072.91,-1415.69 1072.52,-1408.7"/>
<text text-anchor="middle" x="1245.64" y="-1425.78" font-family="Times New Roman,serif" font-size="14.00">CollaborazioneNonCompletata</text>
</g>
<!-- EsecuzionePerizia&#45;&gt;PeriziaInRevisione -->
<g id="edge20" class="edge">
<title>EsecuzionePerizia&#45;&gt;PeriziaInRevisione</title>
<path fill="none" stroke="black" d="M908.94,-1436.71C750.68,-1446.9 394.73,-1474.92 285.25,-1526.22 248.84,-1543.28 215.1,-1572.04 188.52,-1599.21"/>
<polygon fill="black" stroke="black" points="186.31,-1596.47 181.91,-1606.11 191.36,-1601.31 186.31,-1596.47"/>
<text text-anchor="middle" x="333.38" y="-1528.67" font-family="Times New Roman,serif" font-size="14.00">RevisioneAvviata</text>
</g>
<!-- VerificaAuthority -->
<g id="node16" class="node">
<title>VerificaAuthority</title>
<ellipse fill="none" stroke="black" cx="1054" cy="-1227.93" rx="74.52" ry="74.52"/>
<text text-anchor="middle" x="1054" y="-1222.51" font-family="Times New Roman,serif" font-size="14.00">VerificaAuthority</text>
</g>
<!-- EsecuzionePerizia&#45;&gt;VerificaAuthority -->
<g id="edge21" class="edge">
<title>EsecuzionePerizia&#45;&gt;VerificaAuthority</title>
<path fill="none" stroke="black" d="M928.81,-1379.19C914.6,-1360.43 906.65,-1339.19 919.5,-1320.45 932.03,-1302.17 946.91,-1313.7 966,-1302.45 974.35,-1297.53 982.7,-1291.82 990.76,-1285.8"/>
<polygon fill="black" stroke="black" points="992.73,-1288.7 998.52,-1279.82 988.46,-1283.16 992.73,-1288.7"/>
<text text-anchor="middle" x="975.25" y="-1322.9" font-family="Times New Roman,serif" font-size="14.00">AuthorityNecessaria</text>
</g>
<!-- ComunicazioneEsito -->
<g id="node17" class="node">
<title>ComunicazioneEsito</title>
<ellipse fill="none" stroke="black" cx="841" cy="-1014.67" rx="86.99" ry="86.99"/>
<text text-anchor="middle" x="841" y="-1009.25" font-family="Times New Roman,serif" font-size="14.00">ComunicazioneEsito</text>
</g>
<!-- EsecuzionePerizia&#45;&gt;ComunicazioneEsito -->
<g id="edge22" class="edge">
<title>EsecuzionePerizia&#45;&gt;ComunicazioneEsito</title>
<path fill="none" stroke="black" d="M918.65,-1392.96C886.5,-1371.18 851.25,-1340.47 833.5,-1302.45 805.69,-1242.88 808.56,-1168.5 817.85,-1110.42"/>
<polygon fill="black" stroke="black" points="821.25,-1111.34 819.47,-1100.89 814.35,-1110.17 821.25,-1111.34"/>
<text text-anchor="middle" x="901.25" y="-1222.51" font-family="Times New Roman,serif" font-size="14.00">AuthorityNonNecessaria</text>
</g>
<!-- AvvioPeriziaPostDesk&#45;&gt;EsecuzionePerizia -->
<g id="edge2" class="edge">
<title>AvvioPeriziaPostDesk&#45;&gt;EsecuzionePerizia</title>
<path fill="none" stroke="black" d="M1477.53,-1591.51C1463.48,-1576.91 1447.69,-1562.82 1431,-1551.97 1320.94,-1480.42 1169.16,-1451.39 1074.35,-1439.77"/>
<polygon fill="black" stroke="black" points="1074.92,-1436.31 1064.58,-1438.61 1074.1,-1443.26 1074.92,-1436.31"/>
<text text-anchor="middle" x="1448.38" y="-1528.67" font-family="Times New Roman,serif" font-size="14.00">PeriziaAvviata</text>
</g>
<!-- AvvioPeriziaIncompleta&#45;&gt;EsecuzionePerizia -->
<g id="edge3" class="edge">
<title>AvvioPeriziaIncompleta&#45;&gt;EsecuzionePerizia</title>
<path fill="none" stroke="black" d="M1690.9,-1587.88C1676.47,-1574.08 1660.27,-1561.22 1643,-1551.97 1545.71,-1499.89 1229.83,-1459.04 1074.24,-1441.52"/>
<polygon fill="black" stroke="black" points="1074.7,-1438.05 1064.37,-1440.42 1073.92,-1445.01 1074.7,-1438.05"/>
<text text-anchor="middle" x="1654.38" y="-1528.67" font-family="Times New Roman,serif" font-size="14.00">PeriziaAvviata</text>
</g>
<!-- PeriziaInRevisione&#45;&gt;EsecuzionePerizia -->
<g id="edge23" class="edge">
<title>PeriziaInRevisione&#45;&gt;EsecuzionePerizia</title>
<path fill="none" stroke="black" d="M118.32,-1590.72C118.76,-1567.27 124.22,-1543.23 140.5,-1526.22 192.21,-1472.19 691.37,-1444.81 897.57,-1435.73"/>
<polygon fill="black" stroke="black" points="897.59,-1439.23 907.43,-1435.3 897.29,-1432.24 897.59,-1439.23"/>
<text text-anchor="middle" x="198.75" y="-1528.67" font-family="Times New Roman,serif" font-size="14.00">RevisioniCompletate</text>
</g>
<!-- PeriziaInRevisione&#45;&gt;PeriziaInRevisione -->
<g id="edge24" class="edge">
<title>PeriziaInRevisione&#45;&gt;PeriziaInRevisione</title>
<path fill="none" stroke="black" d="M206.65,-1692.41C219.29,-1689.13 228.01,-1681.29 228.01,-1668.92 228.01,-1660.41 223.89,-1654.05 217.2,-1649.84"/>
<polygon fill="black" stroke="black" points="218.62,-1646.64 208.05,-1646.01 215.92,-1653.09 218.62,-1646.64"/>
<text text-anchor="middle" x="297.76" y="-1663.49" font-family="Times New Roman,serif" font-size="14.00">RevisioniNonCompletate</text>
</g>
<!-- VerificaAuthority&#45;&gt;EsecuzionePerizia -->
<g id="edge25" class="edge">
<title>VerificaAuthority&#45;&gt;EsecuzionePerizia</title>
<path fill="none" stroke="black" d="M1041.67,-1301.72C1038.95,-1313.39 1035.74,-1325.22 1032,-1336.2 1030.2,-1341.49 1028.16,-1346.87 1025.97,-1352.24"/>
<polygon fill="black" stroke="black" points="1022.89,-1350.55 1022.2,-1361.12 1029.33,-1353.29 1022.89,-1350.55"/>
<text text-anchor="middle" x="1096" y="-1322.9" font-family="Times New Roman,serif" font-size="14.00">PeriziaNonApprovata</text>
</g>
<!-- VerificaAuthority&#45;&gt;ComunicazioneEsito -->
<g id="edge26" class="edge">
<title>VerificaAuthority&#45;&gt;ComunicazioneEsito</title>
<path fill="none" stroke="black" d="M1001.35,-1174.71C973.87,-1147.45 939.9,-1113.76 910.31,-1084.41"/>
<polygon fill="black" stroke="black" points="913.12,-1082.28 903.56,-1077.72 908.2,-1087.25 913.12,-1082.28"/>
<text text-anchor="middle" x="1008" y="-1122.11" font-family="Times New Roman,serif" font-size="14.00">PeriziaApprovata</text>
</g>
<!-- ComunicazioneEsito&#45;&gt;AvvioChiusura -->
<g id="edge28" class="edge">
<title>ComunicazioneEsito&#45;&gt;AvvioChiusura</title>
<path fill="none" stroke="black" d="M755.76,-995.12C665.22,-969.81 535,-914.81 535,-807.9 535,-807.9 535,-807.9 535,-374.4 535,-312.82 559.53,-247.07 582.08,-199.63"/>
<polygon fill="black" stroke="black" points="585.12,-201.38 586.34,-190.85 578.83,-198.32 585.12,-201.38"/>
<text text-anchor="middle" x="635.12" y="-593.71" font-family="Times New Roman,serif" font-size="14.00">AccordoRaggiunto&#45;o&#45;NonRichiesto</text>
</g>
<!-- ComunicazioneEsito&#45;&gt;ComunicazioneEsito -->
<g id="edge27" class="edge">
<title>ComunicazioneEsito&#45;&gt;ComunicazioneEsito</title>
<path fill="none" stroke="black" d="M926.27,-1033.56C938.09,-1030.45 945.99,-1024.15 945.99,-1014.67 945.99,-1008.45 942.59,-1003.6 936.91,-1000.12"/>
<polygon fill="black" stroke="black" points="938.26,-996.89 927.68,-996.36 935.61,-1003.38 938.26,-996.89"/>
<text text-anchor="middle" x="1014.24" y="-1009.25" font-family="Times New Roman,serif" font-size="14.00">DatiObbligatoriMancanti</text>
</g>
<!-- ConciliazionePerizia -->
<g id="node18" class="node">
<title>ConciliazionePerizia</title>
<ellipse fill="none" stroke="black" cx="922" cy="-375.4" rx="85" ry="85"/>
<text text-anchor="middle" x="922" y="-369.97" font-family="Times New Roman,serif" font-size="14.00">ConciliazionePerizia</text>
</g>
<!-- ComunicazioneEsito&#45;&gt;ConciliazionePerizia -->
<g id="edge29" class="edge">
<title>ComunicazioneEsito&#45;&gt;ConciliazionePerizia</title>
<path fill="none" stroke="black" d="M909.41,-960.4C923.72,-945.63 936.91,-928.44 945,-909.68 1018.16,-740.02 954.33,-678.88 957,-494.14 957.1,-487.14 958.15,-485.3 957,-478.39 956.33,-474.37 955.52,-470.29 954.6,-466.2"/>
<polygon fill="black" stroke="black" points="958.08,-465.7 952.28,-456.83 951.28,-467.38 958.08,-465.7"/>
<text text-anchor="middle" x="1043.62" y="-706.58" font-family="Times New Roman,serif" font-size="14.00">AccordoNonRaggiunto</text>
</g>
<!-- InvioEmailEsito -->
<g id="node19" class="node">
<title>InvioEmailEsito</title>
<ellipse fill="none" stroke="black" cx="725" cy="-806.9" rx="69.03" ry="69.03"/>
<text text-anchor="middle" x="725" y="-801.48" font-family="Times New Roman,serif" font-size="14.00">InvioEmailEsito</text>
</g>
<!-- ComunicazioneEsito&#45;&gt;InvioEmailEsito -->
<g id="edge30" class="edge">
<title>ComunicazioneEsito&#45;&gt;InvioEmailEsito</title>
<path fill="none" stroke="black" d="M779.07,-953.3C767.83,-939.82 757.18,-924.96 749.25,-909.68 745.41,-902.28 742.17,-894.26 739.44,-886.09"/>
<polygon fill="black" stroke="black" points="742.85,-885.27 736.57,-876.73 736.15,-887.32 742.85,-885.27"/>
<text text-anchor="middle" x="797.38" y="-896.38" font-family="Times New Roman,serif" font-size="14.00">EsitoScrittoEmail</text>
</g>
<!-- InvioAtto -->
<g id="node20" class="node">
<title>InvioAtto</title>
<ellipse fill="none" stroke="black" cx="858" cy="-806.9" rx="46.07" ry="46.07"/>
<text text-anchor="middle" x="858" y="-801.48" font-family="Times New Roman,serif" font-size="14.00">InvioAtto</text>
</g>
<!-- ComunicazioneEsito&#45;&gt;InvioAtto -->
<g id="edge31" class="edge">
<title>ComunicazioneEsito&#45;&gt;InvioAtto</title>
<path fill="none" stroke="black" d="M848.11,-927.6C849.87,-906.34 851.7,-884.1 853.31,-864.64"/>
<polygon fill="black" stroke="black" points="856.8,-864.98 854.13,-854.73 849.82,-864.41 856.8,-864.98"/>
<text text-anchor="middle" x="895.38" y="-896.38" font-family="Times New Roman,serif" font-size="14.00">EsitoScrittoAtto</text>
</g>
<!-- ConciliazionePerizia&#45;&gt;AvvioChiusura -->
<g id="edge33" class="edge">
<title>ConciliazionePerizia&#45;&gt;AvvioChiusura</title>
<path fill="none" stroke="black" d="M857.91,-319.31C846.36,-309.59 834.38,-299.63 823,-290.4 775.76,-252.07 721.26,-209.91 680.49,-178.76"/>
<polygon fill="black" stroke="black" points="682.76,-176.09 672.68,-172.81 678.51,-181.66 682.76,-176.09"/>
<text text-anchor="middle" x="847.88" y="-259.1" font-family="Times New Roman,serif" font-size="14.00">ConfermaAccordo</text>
</g>
<!-- ConciliazionePerizia&#45;&gt;ConciliazionePerizia -->
<g id="edge34" class="edge">
<title>ConciliazionePerizia&#45;&gt;ConciliazionePerizia</title>
<path fill="none" stroke="black" d="M1005.25,-394.05C1017.07,-391.03 1025,-384.82 1025,-375.4 1025,-369.21 1021.58,-364.41 1015.89,-360.99"/>
<polygon fill="black" stroke="black" points="1017.24,-357.76 1006.65,-357.3 1014.64,-364.26 1017.24,-357.76"/>
<text text-anchor="middle" x="1093.25" y="-369.97" font-family="Times New Roman,serif" font-size="14.00">DatiObbligatoriMancanti</text>
</g>
<!-- AvvioPeriziaConciliazione -->
<g id="node21" class="node">
<title>AvvioPeriziaConciliazione</title>
<ellipse fill="none" stroke="black" cx="1055" cy="-131.2" rx="107.45" ry="107.45"/>
<text text-anchor="middle" x="1055" y="-125.78" font-family="Times New Roman,serif" font-size="14.00">AvvioPeriziaConciliazione</text>
</g>
<!-- ConciliazionePerizia&#45;&gt;AvvioPeriziaConciliazione -->
<g id="edge35" class="edge">
<title>ConciliazionePerizia&#45;&gt;AvvioPeriziaConciliazione</title>
<path fill="none" stroke="black" d="M962.63,-300.41C973.82,-280.03 986.18,-257.53 998.11,-235.8"/>
<polygon fill="black" stroke="black" points="1001.08,-237.65 1002.83,-227.2 994.95,-234.28 1001.08,-237.65"/>
<text text-anchor="middle" x="1048.88" y="-259.1" font-family="Times New Roman,serif" font-size="14.00">NonConfermaAccordo</text>
</g>
<!-- AttesaRicezioneAtto -->
<g id="node22" class="node">
<title>AttesaRicezioneAtto</title>
<ellipse fill="none" stroke="black" cx="840" cy="-599.13" rx="86.99" ry="86.99"/>
<text text-anchor="middle" x="840" y="-593.71" font-family="Times New Roman,serif" font-size="14.00">AttesaRicezioneAtto</text>
</g>
<!-- InvioEmailEsito&#45;&gt;AttesaRicezioneAtto -->
<g id="edge36" class="edge">
<title>InvioEmailEsito&#45;&gt;AttesaRicezioneAtto</title>
<path fill="none" stroke="black" d="M736.05,-738.27C739.33,-726.52 743.56,-714.7 749,-704.13 755.09,-692.29 762.81,-680.71 771.17,-669.81"/>
<polygon fill="black" stroke="black" points="773.89,-672.02 777.38,-662.02 768.41,-667.66 773.89,-672.02"/>
<text text-anchor="middle" x="797" y="-706.58" font-family="Times New Roman,serif" font-size="14.00">EmailEsitoInviata</text>
</g>
<!-- InvioAtto&#45;&gt;AttesaRicezioneAtto -->
<g id="edge37" class="edge">
<title>InvioAtto&#45;&gt;AttesaRicezioneAtto</title>
<path fill="none" stroke="black" d="M854.05,-760.75C852.41,-742.02 850.44,-719.53 848.51,-697.38"/>
<polygon fill="black" stroke="black" points="852.02,-697.37 847.66,-687.72 845.05,-697.98 852.02,-697.37"/>
<text text-anchor="middle" x="881.5" y="-706.58" font-family="Times New Roman,serif" font-size="14.00">AttoInviato</text>
</g>
<!-- AvvioPeriziaConciliazione&#45;&gt;EsecuzionePerizia -->
<g id="edge40" class="edge">
<title>AvvioPeriziaConciliazione&#45;&gt;EsecuzionePerizia</title>
<path fill="none" stroke="black" d="M1125.92,-212.53C1158.07,-257.07 1189,-315.29 1189,-374.4 1189,-1228.93 1189,-1228.93 1189,-1228.93 1189,-1278.32 1190.66,-1297.48 1160,-1336.2 1136.82,-1365.47 1101.95,-1386.83 1069.49,-1401.73"/>
<polygon fill="black" stroke="black" points="1068.17,-1398.48 1060.44,-1405.73 1071,-1404.89 1068.17,-1398.48"/>
<text text-anchor="middle" x="1228.38" y="-801.48" font-family="Times New Roman,serif" font-size="14.00">PeriziaAvviata</text>
</g>
<!-- AttesaRicezioneAtto&#45;&gt;AvvioChiusura -->
<g id="edge38" class="edge">
<title>AttesaRicezioneAtto&#45;&gt;AvvioChiusura</title>
<path fill="none" stroke="black" d="M776.27,-539.45C764.31,-529.75 751.6,-520.22 739,-512.14 693.1,-482.7 657.68,-505.98 627.75,-460.39 578.31,-385.09 586.58,-277.68 600.15,-206.51"/>
<polygon fill="black" stroke="black" points="603.54,-207.38 602.06,-196.89 596.67,-206.01 603.54,-207.38"/>
<text text-anchor="middle" x="727.12" y="-369.97" font-family="Times New Roman,serif" font-size="14.00">AccordoRaggiunto&#45;o&#45;NonRichiesto</text>
</g>
<!-- AttesaRicezioneAtto&#45;&gt;ConciliazionePerizia -->
<g id="edge39" class="edge">
<title>AttesaRicezioneAtto&#45;&gt;ConciliazionePerizia</title>
<path fill="none" stroke="black" d="M819.57,-514.3C819.55,-501.99 821.27,-489.68 825.75,-478.39 831.36,-464.28 839.94,-450.99 849.73,-438.96"/>
<polygon fill="black" stroke="black" points="852.2,-441.45 856.05,-431.58 846.89,-436.9 852.2,-441.45"/>
<text text-anchor="middle" x="890.62" y="-480.84" font-family="Times New Roman,serif" font-size="14.00">AccordoNonRaggiunto</text>
</g>
</g>
</svg>
