<?xml version="1.0" encoding="UTF-8" standalone="no"?>
<!DOCTYPE svg PUBLIC "-//W3C//DTD SVG 1.1//EN"
 "http://www.w3.org/Graphics/SVG/1.1/DTD/svg11.dtd">
<!-- Generated by graphviz version 9.0.0 (20230911.1827)
 -->
<!-- perizia post desk, e perizia incompleta (vedi chiusura) -->
<!-- Title: Expertise_activity Pages: 1 -->
<svg width="288pt" height="142pt"
 viewBox="0.00 0.00 288.00 142.18" xmlns="http://www.w3.org/2000/svg" xmlns:xlink="http://www.w3.org/1999/xlink">
<g id="graph0" class="graph" transform="scale(0.211105 0.211105) rotate(0) translate(4 669.5)">
<title>Expertise_activity</title>
<polygon fill="white" stroke="none" points="-4,4 -4,-669.5 1360.25,-669.5 1360.25,4 -4,4"/>
<g id="clust2" class="cluster">
<title>cluster_perito</title>
<polygon fill="none" stroke="black" points="340,-92.75 340,-551 750,-551 750,-92.75 340,-92.75"/>
<text text-anchor="middle" x="545" y="-533.7" font-family="Times New Roman,serif" font-size="14.00">PERITO REFERENTE</text>
</g>
<g id="clust1" class="cluster">
<title>cluster_revisione</title>
<polygon fill="none" stroke="black" points="46,-368.75 46,-551 332,-551 332,-368.75 46,-368.75"/>
<text text-anchor="middle" x="189" y="-533.7" font-family="Times New Roman,serif" font-size="14.00">PERITO REVISORE</text>
</g>
<g id="clust5" class="cluster">
<title>cluster_authority</title>
<polygon fill="none" stroke="black" points="777,-368.75 777,-444.5 942,-444.5 942,-368.75 777,-368.75"/>
<text text-anchor="middle" x="859.5" y="-427.2" font-family="Times New Roman,serif" font-size="14.00">PERITO SUPERVISORE</text>
</g>
<g id="clust3" class="cluster">
<title>cluster_collaborazione</title>
<polygon fill="none" stroke="black" points="758,-475.25 758,-657.5 1278,-657.5 1278,-475.25 758,-475.25"/>
<text text-anchor="middle" x="1018" y="-640.2" font-family="Times New Roman,serif" font-size="14.00">PERITO INGAGGIATO</text>
</g>
<g id="clust4" class="cluster">
<title>cluster_conciliation</title>
<polygon fill="none" stroke="black" points="8,-8 8,-168.5 214,-168.5 214,-8 8,-8"/>
<text text-anchor="middle" x="111" y="-151.2" font-family="Times New Roman,serif" font-size="14.00">PERITO CONCILIATORE</text>
</g>
<!-- RevisionePerizia -->
<g id="node1" class="node">
<title>RevisionePerizia</title>
<path fill="none" stroke="black" d="M272.75,-519.25C272.75,-519.25 189.25,-519.25 189.25,-519.25 183.25,-519.25 177.25,-513.25 177.25,-507.25 177.25,-507.25 177.25,-495.25 177.25,-495.25 177.25,-489.25 183.25,-483.25 189.25,-483.25 189.25,-483.25 272.75,-483.25 272.75,-483.25 278.75,-483.25 284.75,-489.25 284.75,-495.25 284.75,-495.25 284.75,-507.25 284.75,-507.25 284.75,-513.25 278.75,-519.25 272.75,-519.25"/>
<text text-anchor="middle" x="231" y="-495.82" font-family="Times New Roman,serif" font-size="14.00">RevisionePerizia</text>
</g>
<!-- RevisioneRifiutata -->
<g id="node2" class="node">
<title>RevisioneRifiutata</title>
<path fill="none" stroke="black" d="M159.62,-412.75C159.62,-412.75 66.38,-412.75 66.38,-412.75 60.38,-412.75 54.38,-406.75 54.38,-400.75 54.38,-400.75 54.38,-388.75 54.38,-388.75 54.38,-382.75 60.38,-376.75 66.38,-376.75 66.38,-376.75 159.62,-376.75 159.62,-376.75 165.62,-376.75 171.62,-382.75 171.62,-388.75 171.62,-388.75 171.62,-400.75 171.62,-400.75 171.62,-406.75 165.62,-412.75 159.62,-412.75"/>
<text text-anchor="middle" x="113" y="-389.32" font-family="Times New Roman,serif" font-size="14.00">RevisioneRifiutata</text>
</g>
<!-- RevisionePerizia&#45;&gt;RevisioneRifiutata -->
<g id="edge27" class="edge">
<title>RevisionePerizia&#45;&gt;RevisioneRifiutata</title>
<path fill="none" stroke="black" d="M183.75,-482.93C174.18,-478.12 164.65,-472.24 156.75,-465.25 143.52,-453.54 132.85,-436.88 125.36,-422.81"/>
<polygon fill="black" stroke="black" points="121.02,-414.21 129.54,-421.11 122.72,-417.59 125.53,-423.14 125.53,-423.14 125.53,-423.14 122.72,-417.59 121.51,-425.17 121.02,-414.21"/>
<text text-anchor="middle" x="197.12" y="-454.8" font-family="Times New Roman,serif" font-size="11.00">RevisioneRifiutata</text>
</g>
<!-- RevisioneCompletata -->
<g id="node3" class="node">
<title>RevisioneCompletata</title>
<path fill="none" stroke="black" d="M312.25,-412.75C312.25,-412.75 201.75,-412.75 201.75,-412.75 195.75,-412.75 189.75,-406.75 189.75,-400.75 189.75,-400.75 189.75,-388.75 189.75,-388.75 189.75,-382.75 195.75,-376.75 201.75,-376.75 201.75,-376.75 312.25,-376.75 312.25,-376.75 318.25,-376.75 324.25,-382.75 324.25,-388.75 324.25,-388.75 324.25,-400.75 324.25,-400.75 324.25,-406.75 318.25,-412.75 312.25,-412.75"/>
<text text-anchor="middle" x="257" y="-389.32" font-family="Times New Roman,serif" font-size="14.00">RevisioneCompletata</text>
</g>
<!-- RevisionePerizia&#45;&gt;RevisioneCompletata -->
<g id="edge28" class="edge">
<title>RevisionePerizia&#45;&gt;RevisioneCompletata</title>
<path fill="none" stroke="black" d="M235.29,-482.99C239.3,-466.88 245.35,-442.56 250.05,-423.68"/>
<polygon fill="black" stroke="black" points="252.41,-414.21 254.36,-425 251.49,-417.88 249.99,-423.92 249.99,-423.92 249.99,-423.92 251.49,-417.88 245.62,-422.83 252.41,-414.21"/>
<text text-anchor="middle" x="289.5" y="-454.8" font-family="Times New Roman,serif" font-size="11.00">RevisioneCompletata</text>
</g>
<!-- PeriziaInRevisione -->
<g id="node7" class="node">
<title>PeriziaInRevisione</title>
<path fill="none" stroke="black" d="M454.38,-328C454.38,-328 359.62,-328 359.62,-328 353.62,-328 347.62,-322 347.62,-316 347.62,-316 347.62,-304 347.62,-304 347.62,-298 353.62,-292 359.62,-292 359.62,-292 454.38,-292 454.38,-292 460.38,-292 466.38,-298 466.38,-304 466.38,-304 466.38,-316 466.38,-316 466.38,-322 460.38,-328 454.38,-328"/>
<text text-anchor="middle" x="407" y="-304.57" font-family="Times New Roman,serif" font-size="14.00">PeriziaInRevisione</text>
</g>
<!-- RevisioneRifiutata&#45;&gt;PeriziaInRevisione -->
<g id="edge29" class="edge">
<title>RevisioneRifiutata&#45;&gt;PeriziaInRevisione</title>
<path fill="none" stroke="black" stroke-dasharray="1,5" d="M158.5,-376.29C165.98,-373.64 173.67,-371.03 181,-368.75 232.63,-352.71 291.86,-337.69 336.74,-327"/>
<polygon fill="black" stroke="black" points="346.35,-324.72 337.65,-331.41 342.67,-325.59 336.62,-327.03 336.62,-327.03 336.62,-327.03 342.67,-325.59 335.58,-322.65 346.35,-324.72"/>
</g>
<!-- RevisioneCompletata&#45;&gt;PeriziaInRevisione -->
<g id="edge30" class="edge">
<title>RevisioneCompletata&#45;&gt;PeriziaInRevisione</title>
<path fill="none" stroke="black" stroke-dasharray="1,5" d="M288.44,-376.4C310.87,-364.03 341.24,-347.27 365.63,-333.82"/>
<polygon fill="black" stroke="black" points="374.27,-329.06 367.69,-337.83 370.96,-330.88 365.52,-333.89 365.52,-333.89 365.52,-333.89 370.96,-330.88 363.34,-329.95 374.27,-329.06"/>
</g>
<!-- AvvioPerizia -->
<g id="node4" class="node">
<title>AvvioPerizia</title>
<path fill="none" stroke="black" d="M566.25,-519.25C566.25,-519.25 503.75,-519.25 503.75,-519.25 497.75,-519.25 491.75,-513.25 491.75,-507.25 491.75,-507.25 491.75,-495.25 491.75,-495.25 491.75,-489.25 497.75,-483.25 503.75,-483.25 503.75,-483.25 566.25,-483.25 566.25,-483.25 572.25,-483.25 578.25,-489.25 578.25,-495.25 578.25,-495.25 578.25,-507.25 578.25,-507.25 578.25,-513.25 572.25,-519.25 566.25,-519.25"/>
<text text-anchor="middle" x="535" y="-495.82" font-family="Times New Roman,serif" font-size="14.00">AvvioPerizia</text>
</g>
<!-- EsecuzionePerizia -->
<g id="node6" class="node">
<title>EsecuzionePerizia</title>
<path fill="none" stroke="black" d="M682.88,-412.75C682.88,-412.75 591.12,-412.75 591.12,-412.75 585.12,-412.75 579.12,-406.75 579.12,-400.75 579.12,-400.75 579.12,-388.75 579.12,-388.75 579.12,-382.75 585.12,-376.75 591.12,-376.75 591.12,-376.75 682.88,-376.75 682.88,-376.75 688.88,-376.75 694.88,-382.75 694.88,-388.75 694.88,-388.75 694.88,-400.75 694.88,-400.75 694.88,-406.75 688.88,-412.75 682.88,-412.75"/>
<text text-anchor="middle" x="637" y="-389.32" font-family="Times New Roman,serif" font-size="14.00">EsecuzionePerizia</text>
</g>
<!-- AvvioPerizia&#45;&gt;EsecuzionePerizia -->
<g id="edge4" class="edge">
<title>AvvioPerizia&#45;&gt;EsecuzionePerizia</title>
<path fill="none" stroke="black" d="M551.84,-482.99C568.38,-466.05 593.78,-440.03 612.54,-420.81"/>
<polygon fill="black" stroke="black" points="619.28,-413.9 615.52,-424.2 616.64,-416.61 612.3,-421.06 612.3,-421.06 612.3,-421.06 616.64,-416.61 609.08,-417.92 619.28,-413.9"/>
<text text-anchor="middle" x="612.25" y="-454.8" font-family="Times New Roman,serif" font-size="11.00">PeriziaAvviata</text>
</g>
<!-- AvvioPeriziaPostDesk -->
<g id="node5" class="node">
<title>AvvioPeriziaPostDesk</title>
<path fill="none" stroke="black" d="M725.25,-519.25C725.25,-519.25 608.75,-519.25 608.75,-519.25 602.75,-519.25 596.75,-513.25 596.75,-507.25 596.75,-507.25 596.75,-495.25 596.75,-495.25 596.75,-489.25 602.75,-483.25 608.75,-483.25 608.75,-483.25 725.25,-483.25 725.25,-483.25 731.25,-483.25 737.25,-489.25 737.25,-495.25 737.25,-495.25 737.25,-507.25 737.25,-507.25 737.25,-513.25 731.25,-519.25 725.25,-519.25"/>
<text text-anchor="middle" x="667" y="-495.82" font-family="Times New Roman,serif" font-size="14.00">AvvioPeriziaPostDesk</text>
</g>
<!-- AvvioPeriziaPostDesk&#45;&gt;EsecuzionePerizia -->
<g id="edge5" class="edge">
<title>AvvioPeriziaPostDesk&#45;&gt;EsecuzionePerizia</title>
<path fill="none" stroke="black" d="M662.05,-482.99C657.42,-466.88 650.44,-442.56 645.02,-423.68"/>
<polygon fill="black" stroke="black" points="642.3,-414.2 649.38,-422.57 643.34,-417.84 645.06,-423.81 645.06,-423.81 645.06,-423.81 643.34,-417.84 640.73,-425.06 642.3,-414.2"/>
<text text-anchor="middle" x="689.25" y="-454.8" font-family="Times New Roman,serif" font-size="11.00">PeriziaAvviata</text>
</g>
<!-- EsecuzionePerizia&#45;&gt;RevisionePerizia -->
<g id="edge9" class="edge">
<title>EsecuzionePerizia&#45;&gt;RevisionePerizia</title>
<path fill="none" stroke="black" stroke-dasharray="1,5" d="M578.92,-410.7C503.88,-430.01 373.65,-463.53 295.57,-483.63"/>
<polygon fill="black" stroke="black" points="286.09,-486.07 294.66,-479.22 289.76,-485.13 295.78,-483.58 295.78,-483.58 295.78,-483.58 289.76,-485.13 296.9,-487.93 286.09,-486.07"/>
<text text-anchor="middle" x="448.62" y="-454.8" font-family="Times New Roman,serif" font-size="11.00">RevisioneAvviata</text>
</g>
<!-- EsecuzionePerizia&#45;&gt;PeriziaInRevisione -->
<g id="edge6" class="edge">
<title>EsecuzionePerizia&#45;&gt;PeriziaInRevisione</title>
<path fill="none" stroke="black" d="M578.89,-391.83C521.59,-388.69 439.41,-380.43 416.75,-358.75 411.46,-353.68 408.63,-346.58 407.2,-339.39"/>
<polygon fill="black" stroke="black" points="406.1,-329.53 411.68,-338.97 406.52,-333.29 407.21,-339.47 407.21,-339.47 407.21,-339.47 406.52,-333.29 402.74,-339.97 406.1,-329.53"/>
<text text-anchor="middle" x="455.62" y="-348.3" font-family="Times New Roman,serif" font-size="11.00">RevisioneAvviata</text>
</g>
<!-- ComunicazioneEsito -->
<g id="node8" class="node">
<title>ComunicazioneEsito</title>
<path fill="none" stroke="black" d="M730.38,-328C730.38,-328 623.62,-328 623.62,-328 617.62,-328 611.62,-322 611.62,-316 611.62,-316 611.62,-304 611.62,-304 611.62,-298 617.62,-292 623.62,-292 623.62,-292 730.38,-292 730.38,-292 736.38,-292 742.38,-298 742.38,-304 742.38,-304 742.38,-316 742.38,-316 742.38,-322 736.38,-328 730.38,-328"/>
<text text-anchor="middle" x="677" y="-304.57" font-family="Times New Roman,serif" font-size="14.00">ComunicazioneEsito</text>
</g>
<!-- EsecuzionePerizia&#45;&gt;ComunicazioneEsito -->
<g id="edge7" class="edge">
<title>EsecuzionePerizia&#45;&gt;ComunicazioneEsito</title>
<path fill="none" stroke="black" d="M638.29,-376.26C639.51,-366.9 641.88,-355.41 646.5,-346 648.01,-342.92 649.87,-339.89 651.91,-336.99"/>
<polygon fill="black" stroke="black" points="658.12,-329.17 655.43,-339.8 655.77,-332.13 651.9,-337 651.9,-337 651.9,-337 655.77,-332.13 648.38,-334.2 658.12,-329.17"/>
<text text-anchor="middle" x="701.75" y="-348.3" font-family="Times New Roman,serif" font-size="11.00">AuthorityNonNecessaria</text>
</g>
<!-- CollaborazionePerizia -->
<g id="node12" class="node">
<title>CollaborazionePerizia</title>
<path fill="none" stroke="black" d="M1165.38,-625.75C1165.38,-625.75 1052.62,-625.75 1052.62,-625.75 1046.62,-625.75 1040.62,-619.75 1040.62,-613.75 1040.62,-613.75 1040.62,-601.75 1040.62,-601.75 1040.62,-595.75 1046.62,-589.75 1052.62,-589.75 1052.62,-589.75 1165.38,-589.75 1165.38,-589.75 1171.38,-589.75 1177.38,-595.75 1177.38,-601.75 1177.38,-601.75 1177.38,-613.75 1177.38,-613.75 1177.38,-619.75 1171.38,-625.75 1165.38,-625.75"/>
<text text-anchor="middle" x="1109" y="-602.33" font-family="Times New Roman,serif" font-size="14.00">CollaborazionePerizia</text>
</g>
<!-- EsecuzionePerizia&#45;&gt;CollaborazionePerizia -->
<g id="edge8" class="edge">
<title>EsecuzionePerizia&#45;&gt;CollaborazionePerizia</title>
<path fill="none" stroke="black" stroke-dasharray="1,5" d="M675.69,-413.16C702.43,-424.31 739.15,-437.88 773,-444.5 828.28,-455.31 1240.63,-434.02 1279,-475.25 1301.94,-499.9 1298.23,-523.37 1279,-551 1258.67,-580.22 1222.47,-594.45 1188.69,-601.25"/>
<polygon fill="black" stroke="black" points="1179.03,-603 1188.07,-596.79 1182.75,-602.33 1188.87,-601.22 1188.87,-601.22 1188.87,-601.22 1182.75,-602.33 1189.67,-605.65 1179.03,-603"/>
<text text-anchor="middle" x="1325.12" y="-497.18" font-family="Times New Roman,serif" font-size="11.00">CollabAvviata</text>
</g>
<!-- VerificaAuthority -->
<g id="node18" class="node">
<title>VerificaAuthority</title>
<path fill="none" stroke="black" d="M903,-412.75C903,-412.75 815,-412.75 815,-412.75 809,-412.75 803,-406.75 803,-400.75 803,-400.75 803,-388.75 803,-388.75 803,-382.75 809,-376.75 815,-376.75 815,-376.75 903,-376.75 903,-376.75 909,-376.75 915,-382.75 915,-388.75 915,-388.75 915,-400.75 915,-400.75 915,-406.75 909,-412.75 903,-412.75"/>
<text text-anchor="middle" x="859" y="-389.32" font-family="Times New Roman,serif" font-size="14.00">VerificaAuthority</text>
</g>
<!-- EsecuzionePerizia&#45;&gt;VerificaAuthority -->
<g id="edge10" class="edge">
<title>EsecuzionePerizia&#45;&gt;VerificaAuthority</title>
<path fill="none" stroke="black" d="M695.33,-394.75C724.85,-394.75 760.84,-394.75 791.54,-394.75"/>
<polygon fill="black" stroke="black" points="801.38,-394.75 791.38,-399.25 797.59,-394.75 791.38,-394.75 791.38,-394.75 791.38,-394.75 797.59,-394.75 791.38,-390.25 801.38,-394.75"/>
<text text-anchor="middle" x="748.94" y="-400.05" font-family="Times New Roman,serif" font-size="11.00">AuthorityNecessaria</text>
</g>
<!-- PeriziaInRevisione&#45;&gt;EsecuzionePerizia -->
<g id="edge11" class="edge">
<title>PeriziaInRevisione&#45;&gt;EsecuzionePerizia</title>
<path fill="none" stroke="black" d="M455.43,-328.42C491.19,-341.29 540.06,-358.87 578.09,-372.55"/>
<polygon fill="black" stroke="black" points="587.36,-375.89 576.42,-376.74 583.8,-374.61 577.95,-372.5 577.95,-372.5 577.95,-372.5 583.8,-374.61 579.47,-368.27 587.36,-375.89"/>
<text text-anchor="middle" x="581" y="-348.3" font-family="Times New Roman,serif" font-size="11.00">RevisioniCompletate</text>
</g>
<!-- PeriziaInRevisione&#45;&gt;PeriziaInRevisione -->
<g id="edge12" class="edge">
<title>PeriziaInRevisione&#45;&gt;PeriziaInRevisione</title>
<path fill="none" stroke="black" d="M466.69,-317.45C477.12,-316.46 484.38,-313.97 484.38,-310 484.38,-307.64 481.82,-305.81 477.56,-304.5"/>
<polygon fill="black" stroke="black" points="467.89,-302.77 478.53,-300.1 471.62,-303.43 477.74,-304.53 477.74,-304.53 477.74,-304.53 471.62,-303.43 476.94,-308.96 467.89,-302.77"/>
<text text-anchor="middle" x="538.75" y="-305.93" font-family="Times New Roman,serif" font-size="11.00">RevisioniNonCompletate</text>
</g>
<!-- InvioEmailEsito -->
<g id="node9" class="node">
<title>InvioEmailEsito</title>
<path fill="none" stroke="black" d="M617.88,-243.25C617.88,-243.25 538.12,-243.25 538.12,-243.25 532.12,-243.25 526.12,-237.25 526.12,-231.25 526.12,-231.25 526.12,-219.25 526.12,-219.25 526.12,-213.25 532.12,-207.25 538.12,-207.25 538.12,-207.25 617.88,-207.25 617.88,-207.25 623.88,-207.25 629.88,-213.25 629.88,-219.25 629.88,-219.25 629.88,-231.25 629.88,-231.25 629.88,-237.25 623.88,-243.25 617.88,-243.25"/>
<text text-anchor="middle" x="578" y="-219.82" font-family="Times New Roman,serif" font-size="14.00">InvioEmailEsito</text>
</g>
<!-- ComunicazioneEsito&#45;&gt;InvioEmailEsito -->
<g id="edge14" class="edge">
<title>ComunicazioneEsito&#45;&gt;InvioEmailEsito</title>
<path fill="none" stroke="black" d="M628.32,-291.53C619.21,-286.79 610.28,-280.99 603,-274 597.04,-268.27 592.21,-260.81 588.45,-253.49"/>
<polygon fill="black" stroke="black" points="584.34,-244.55 592.6,-251.76 585.92,-247.99 588.51,-253.64 588.51,-253.64 588.51,-253.64 585.92,-247.99 584.43,-255.51 584.34,-244.55"/>
<text text-anchor="middle" x="640.5" y="-263.55" font-family="Times New Roman,serif" font-size="11.00">EsitoScrittoEmail</text>
</g>
<!-- InvioAtto -->
<g id="node10" class="node">
<title>InvioAtto</title>
<path fill="none" stroke="black" d="M711.62,-243.25C711.62,-243.25 666.38,-243.25 666.38,-243.25 660.38,-243.25 654.38,-237.25 654.38,-231.25 654.38,-231.25 654.38,-219.25 654.38,-219.25 654.38,-213.25 660.38,-207.25 666.38,-207.25 666.38,-207.25 711.62,-207.25 711.62,-207.25 717.62,-207.25 723.62,-213.25 723.62,-219.25 723.62,-219.25 723.62,-231.25 723.62,-231.25 723.62,-237.25 717.62,-243.25 711.62,-243.25"/>
<text text-anchor="middle" x="689" y="-219.82" font-family="Times New Roman,serif" font-size="14.00">InvioAtto</text>
</g>
<!-- ComunicazioneEsito&#45;&gt;InvioAtto -->
<g id="edge15" class="edge">
<title>ComunicazioneEsito&#45;&gt;InvioAtto</title>
<path fill="none" stroke="black" d="M679.49,-291.85C681.05,-281.05 683.11,-266.85 684.91,-254.42"/>
<polygon fill="black" stroke="black" points="686.3,-244.86 689.32,-255.41 685.76,-248.61 684.87,-254.76 684.87,-254.76 684.87,-254.76 685.76,-248.61 680.41,-254.12 686.3,-244.86"/>
<text text-anchor="middle" x="717.88" y="-263.55" font-family="Times New Roman,serif" font-size="11.00">EsitoScrittoAtto</text>
</g>
<!-- ConciliazionePerizia -->
<g id="node16" class="node">
<title>ConciliazionePerizia</title>
<path fill="none" stroke="black" d="M193.88,-136.75C193.88,-136.75 90.12,-136.75 90.12,-136.75 84.12,-136.75 78.12,-130.75 78.12,-124.75 78.12,-124.75 78.12,-112.75 78.12,-112.75 78.12,-106.75 84.12,-100.75 90.12,-100.75 90.12,-100.75 193.88,-100.75 193.88,-100.75 199.88,-100.75 205.88,-106.75 205.88,-112.75 205.88,-112.75 205.88,-124.75 205.88,-124.75 205.88,-130.75 199.88,-136.75 193.88,-136.75"/>
<text text-anchor="middle" x="142" y="-113.33" font-family="Times New Roman,serif" font-size="14.00">ConciliazionePerizia</text>
</g>
<!-- ComunicazioneEsito&#45;&gt;ConciliazionePerizia -->
<g id="edge16" class="edge">
<title>ComunicazioneEsito&#45;&gt;ConciliazionePerizia</title>
<path fill="none" stroke="black" d="M611.25,-293.57C608.13,-293.01 605.03,-292.48 602,-292 467.15,-270.81 419.76,-306.42 298.75,-243.25 247.6,-216.55 196.65,-172.31 167.3,-144.66"/>
<polygon fill="black" stroke="black" points="160.14,-137.83 170.48,-141.48 162.88,-140.44 167.38,-144.74 167.38,-144.74 167.38,-144.74 162.88,-140.44 164.27,-147.99 160.14,-137.83"/>
<text text-anchor="middle" x="349.62" y="-221.18" font-family="Times New Roman,serif" font-size="11.00">AccordoNonRaggiunto</text>
</g>
<!-- end -->
<g id="node20" class="node">
<title>end</title>
<polygon fill="lightgrey" stroke="black" points="445.25,-52 382.75,-52 382.75,-16 445.25,-16 445.25,-52"/>
<text text-anchor="middle" x="414" y="-28.57" font-family="Times New Roman,serif" font-size="14.00">chiusura</text>
</g>
<!-- ComunicazioneEsito&#45;&gt;end -->
<g id="edge13" class="edge">
<title>ComunicazioneEsito&#45;&gt;end</title>
<path fill="none" stroke="black" d="M624.17,-291.56C556.97,-268.16 446.91,-225.38 424.5,-189.25 400.69,-150.85 403.65,-96.26 408.47,-63.37"/>
<polygon fill="black" stroke="black" points="410.09,-53.51 412.91,-64.11 409.48,-57.24 408.47,-63.38 408.47,-63.38 408.47,-63.38 409.48,-57.24 404.03,-62.65 410.09,-53.51"/>
<text text-anchor="middle" x="502.25" y="-178.8" font-family="Times New Roman,serif" font-size="11.00">AccordoRaggiunto&#45;o&#45;NonRichiesto</text>
</g>
<!-- AttesaRicezioneAtto -->
<g id="node11" class="node">
<title>AttesaRicezioneAtto</title>
<path fill="none" stroke="black" d="M645.38,-136.75C645.38,-136.75 538.62,-136.75 538.62,-136.75 532.62,-136.75 526.62,-130.75 526.62,-124.75 526.62,-124.75 526.62,-112.75 526.62,-112.75 526.62,-106.75 532.62,-100.75 538.62,-100.75 538.62,-100.75 645.38,-100.75 645.38,-100.75 651.38,-100.75 657.38,-106.75 657.38,-112.75 657.38,-112.75 657.38,-124.75 657.38,-124.75 657.38,-130.75 651.38,-136.75 645.38,-136.75"/>
<text text-anchor="middle" x="592" y="-113.33" font-family="Times New Roman,serif" font-size="14.00">AttesaRicezioneAtto</text>
</g>
<!-- InvioEmailEsito&#45;&gt;AttesaRicezioneAtto -->
<g id="edge17" class="edge">
<title>InvioEmailEsito&#45;&gt;AttesaRicezioneAtto</title>
<path fill="none" stroke="black" d="M580.31,-206.99C582.46,-190.96 585.7,-166.79 588.22,-147.95"/>
<polygon fill="black" stroke="black" points="589.52,-138.24 592.66,-148.75 589.02,-141.99 588.2,-148.15 588.2,-148.15 588.2,-148.15 589.02,-141.99 583.73,-147.55 589.52,-138.24"/>
<text text-anchor="middle" x="623.25" y="-178.8" font-family="Times New Roman,serif" font-size="11.00">EmailEsitoInviata</text>
</g>
<!-- InvioAtto&#45;&gt;AttesaRicezioneAtto -->
<g id="edge18" class="edge">
<title>InvioAtto&#45;&gt;AttesaRicezioneAtto</title>
<path fill="none" stroke="black" d="M682.46,-206.8C678.35,-197.24 672.42,-185.53 665,-176.5 654.83,-164.12 641.5,-152.77 629.01,-143.53"/>
<polygon fill="black" stroke="black" points="621.12,-137.9 631.88,-140.05 624.2,-140.09 629.26,-143.71 629.26,-143.71 629.26,-143.71 624.2,-140.09 626.65,-147.37 621.12,-137.9"/>
<text text-anchor="middle" x="698.75" y="-178.8" font-family="Times New Roman,serif" font-size="11.00">AttoInviato</text>
</g>
<!-- AttesaRicezioneAtto&#45;&gt;ConciliazionePerizia -->
<g id="edge20" class="edge">
<title>AttesaRicezioneAtto&#45;&gt;ConciliazionePerizia</title>
<path fill="none" stroke="black" d="M526.4,-118.75C444.15,-118.75 303.49,-118.75 217.04,-118.75"/>
<polygon fill="black" stroke="black" points="207.21,-118.75 217.21,-114.25 211,-118.75 217.21,-118.75 217.21,-118.75 217.21,-118.75 211,-118.75 217.21,-123.25 207.21,-118.75"/>
<text text-anchor="middle" x="366.25" y="-124.05" font-family="Times New Roman,serif" font-size="11.00">ConciliazioneAvviata</text>
</g>
<!-- AttesaRicezioneAtto&#45;&gt;end -->
<g id="edge19" class="edge">
<title>AttesaRicezioneAtto&#45;&gt;end</title>
<path fill="none" stroke="black" d="M554.69,-100.4C525.78,-86.96 485.74,-68.35 455.76,-54.41"/>
<polygon fill="black" stroke="black" points="446.72,-50.21 457.68,-50.35 450.15,-51.8 455.79,-54.43 455.79,-54.43 455.79,-54.43 450.15,-51.8 453.89,-58.51 446.72,-50.21"/>
<text text-anchor="middle" x="554.5" y="-72.3" font-family="Times New Roman,serif" font-size="11.00">ForzaturaChiusura</text>
</g>
<!-- CollaborazioneRifiutata -->
<g id="node13" class="node">
<title>CollaborazioneRifiutata</title>
<path fill="none" stroke="black" d="M1082.25,-519.25C1082.25,-519.25 959.75,-519.25 959.75,-519.25 953.75,-519.25 947.75,-513.25 947.75,-507.25 947.75,-507.25 947.75,-495.25 947.75,-495.25 947.75,-489.25 953.75,-483.25 959.75,-483.25 959.75,-483.25 1082.25,-483.25 1082.25,-483.25 1088.25,-483.25 1094.25,-489.25 1094.25,-495.25 1094.25,-495.25 1094.25,-507.25 1094.25,-507.25 1094.25,-513.25 1088.25,-519.25 1082.25,-519.25"/>
<text text-anchor="middle" x="1021" y="-495.82" font-family="Times New Roman,serif" font-size="14.00">CollaborazioneRifiutata</text>
</g>
<!-- CollaborazionePerizia&#45;&gt;CollaborazioneRifiutata -->
<g id="edge21" class="edge">
<title>CollaborazionePerizia&#45;&gt;CollaborazioneRifiutata</title>
<path fill="none" stroke="black" d="M1086.14,-589.27C1079.86,-583.97 1073.26,-577.91 1067.75,-571.75 1055.97,-558.58 1044.84,-542.25 1036.4,-528.74"/>
<polygon fill="black" stroke="black" points="1031.39,-520.51 1040.44,-526.71 1033.36,-523.74 1036.59,-529.05 1036.59,-529.05 1036.59,-529.05 1033.36,-523.74 1032.75,-531.4 1031.39,-520.51"/>
<text text-anchor="middle" x="1099.62" y="-561.3" font-family="Times New Roman,serif" font-size="11.00">CollabRifiutata</text>
</g>
<!-- CollaborazioneCancellata -->
<g id="node14" class="node">
<title>CollaborazioneCancellata</title>
<path fill="none" stroke="black" d="M1257.5,-519.25C1257.5,-519.25 1124.5,-519.25 1124.5,-519.25 1118.5,-519.25 1112.5,-513.25 1112.5,-507.25 1112.5,-507.25 1112.5,-495.25 1112.5,-495.25 1112.5,-489.25 1118.5,-483.25 1124.5,-483.25 1124.5,-483.25 1257.5,-483.25 1257.5,-483.25 1263.5,-483.25 1269.5,-489.25 1269.5,-495.25 1269.5,-495.25 1269.5,-507.25 1269.5,-507.25 1269.5,-513.25 1263.5,-519.25 1257.5,-519.25"/>
<text text-anchor="middle" x="1191" y="-495.82" font-family="Times New Roman,serif" font-size="14.00">CollaborazioneCancellata</text>
</g>
<!-- CollaborazionePerizia&#45;&gt;CollaborazioneCancellata -->
<g id="edge22" class="edge">
<title>CollaborazionePerizia&#45;&gt;CollaborazioneCancellata</title>
<path fill="none" stroke="black" d="M1122.54,-589.49C1135.6,-572.85 1155.53,-547.45 1170.53,-528.34"/>
<polygon fill="black" stroke="black" points="1176.69,-520.49 1174.05,-531.14 1174.35,-523.47 1170.51,-528.36 1170.51,-528.36 1170.51,-528.36 1174.35,-523.47 1166.97,-525.58 1176.69,-520.49"/>
<text text-anchor="middle" x="1182.12" y="-561.3" font-family="Times New Roman,serif" font-size="11.00">CollabCancellata</text>
</g>
<!-- CollaborazioneCompletata -->
<g id="node15" class="node">
<title>CollaborazioneCompletata</title>
<path fill="none" stroke="black" d="M917.88,-519.25C917.88,-519.25 778.12,-519.25 778.12,-519.25 772.12,-519.25 766.12,-513.25 766.12,-507.25 766.12,-507.25 766.12,-495.25 766.12,-495.25 766.12,-489.25 772.12,-483.25 778.12,-483.25 778.12,-483.25 917.88,-483.25 917.88,-483.25 923.88,-483.25 929.88,-489.25 929.88,-495.25 929.88,-495.25 929.88,-507.25 929.88,-507.25 929.88,-513.25 923.88,-519.25 917.88,-519.25"/>
<text text-anchor="middle" x="848" y="-495.82" font-family="Times New Roman,serif" font-size="14.00">CollaborazioneCompletata</text>
</g>
<!-- CollaborazionePerizia&#45;&gt;CollaborazioneCompletata -->
<g id="edge23" class="edge">
<title>CollaborazionePerizia&#45;&gt;CollaborazioneCompletata</title>
<path fill="none" stroke="black" d="M1040.14,-592.2C1018.9,-586.81 995.67,-579.96 975,-571.75 943.04,-559.05 908.96,-540.07 884.16,-525.15"/>
<polygon fill="black" stroke="black" points="875.84,-520.09 886.72,-521.45 879.07,-522.05 884.38,-525.29 884.38,-525.29 884.38,-525.29 879.07,-522.05 882.04,-529.13 875.84,-520.09"/>
<text text-anchor="middle" x="1014" y="-561.3" font-family="Times New Roman,serif" font-size="11.00">CollabCompletata</text>
</g>
<!-- CollaborazioneRifiutata&#45;&gt;EsecuzionePerizia -->
<g id="edge24" class="edge">
<title>CollaborazioneRifiutata&#45;&gt;EsecuzionePerizia</title>
<path fill="none" stroke="black" stroke-dasharray="1,5" d="M966.99,-482.84C957.7,-480.12 948.11,-477.47 939,-475.25 866.11,-457.45 845.44,-464.06 773,-444.5 745.24,-437.01 715.08,-426.45 690.22,-417.08"/>
<polygon fill="black" stroke="black" points="681.06,-413.58 692.01,-412.94 684.59,-414.93 690.4,-417.14 690.4,-417.14 690.4,-417.14 684.59,-414.93 688.8,-421.35 681.06,-413.58"/>
</g>
<!-- CollaborazioneCancellata&#45;&gt;EsecuzionePerizia -->
<g id="edge25" class="edge">
<title>CollaborazioneCancellata&#45;&gt;EsecuzionePerizia</title>
<path fill="none" stroke="black" stroke-dasharray="1,5" d="M1135.5,-482.82C1124.8,-479.94 1113.62,-477.24 1103,-475.25 996.82,-455.35 968.57,-462.45 861,-452.5 821.89,-448.88 811.35,-452.97 773,-444.5 744.07,-438.11 712.88,-427.24 687.68,-417.38"/>
<polygon fill="black" stroke="black" points="678.4,-413.68 689.36,-413.2 681.91,-415.08 687.69,-417.38 687.69,-417.38 687.69,-417.38 681.91,-415.08 686.02,-421.56 678.4,-413.68"/>
</g>
<!-- CollaborazioneCompletata&#45;&gt;EsecuzionePerizia -->
<g id="edge26" class="edge">
<title>CollaborazioneCompletata&#45;&gt;EsecuzionePerizia</title>
<path fill="none" stroke="black" stroke-dasharray="1,5" d="M812.68,-482.76C776.82,-465 721.16,-437.43 682.12,-418.1"/>
<polygon fill="black" stroke="black" points="673.17,-413.66 684.13,-414.07 676.56,-415.34 682.13,-418.1 682.13,-418.1 682.13,-418.1 676.56,-415.34 680.14,-422.14 673.17,-413.66"/>
</g>
<!-- EsecuzionePeriziaConciliazione -->
<g id="node17" class="node">
<title>EsecuzionePeriziaConciliazione</title>
<path fill="none" stroke="black" d="M194.38,-52C194.38,-52 27.62,-52 27.62,-52 21.62,-52 15.62,-46 15.62,-40 15.62,-40 15.62,-28 15.62,-28 15.62,-22 21.62,-16 27.62,-16 27.62,-16 194.38,-16 194.38,-16 200.38,-16 206.38,-22 206.38,-28 206.38,-28 206.38,-40 206.38,-40 206.38,-46 200.38,-52 194.38,-52"/>
<text text-anchor="middle" x="111" y="-28.57" font-family="Times New Roman,serif" font-size="14.00">EsecuzionePeriziaConciliazione</text>
</g>
<!-- ConciliazionePerizia&#45;&gt;EsecuzionePeriziaConciliazione -->
<g id="edge35" class="edge">
<title>ConciliazionePerizia&#45;&gt;EsecuzionePeriziaConciliazione</title>
<path fill="none" stroke="black" d="M77.84,-110.48C61.25,-105.35 45.21,-96.83 35,-82.75 27.85,-72.9 32.15,-64.61 41.56,-57.85"/>
<polygon fill="black" stroke="black" points="49.94,-52.92 43.6,-61.87 46.68,-54.84 41.32,-57.99 41.32,-57.99 41.32,-57.99 46.68,-54.84 39.04,-54.11 49.94,-52.92"/>
<text text-anchor="middle" x="95" y="-72.3" font-family="Times New Roman,serif" font-size="11.00">PeriziaConcilazioneAvviata</text>
</g>
<!-- ConciliazionePerizia&#45;&gt;end -->
<g id="edge33" class="edge">
<title>ConciliazionePerizia&#45;&gt;end</title>
<path fill="none" stroke="black" d="M206.19,-105.47C230.4,-99.87 257.9,-92.32 282,-82.75 292.77,-78.47 294.12,-74.62 304.75,-70 326.27,-60.64 351.12,-52.48 371.68,-46.4"/>
<polygon fill="black" stroke="black" points="381.14,-43.67 372.78,-50.77 377.5,-44.72 371.53,-46.44 371.53,-46.44 371.53,-46.44 377.5,-44.72 370.28,-42.12 381.14,-43.67"/>
<text text-anchor="middle" x="352.62" y="-72.3" font-family="Times New Roman,serif" font-size="11.00">ChiusuraConAccordo</text>
</g>
<!-- ConciliazionePerizia&#45;&gt;end -->
<g id="edge34" class="edge">
<title>ConciliazionePerizia&#45;&gt;end</title>
<path fill="none" stroke="black" d="M149.35,-100.41C154.74,-89.88 163.11,-77.13 174.5,-70 206.54,-49.95 311.83,-40.79 371.59,-37.12"/>
<polygon fill="black" stroke="black" points="381.33,-36.55 371.61,-41.63 377.55,-36.77 371.35,-37.14 371.35,-37.14 371.35,-37.14 377.55,-36.77 371.08,-32.65 381.33,-36.55"/>
<text text-anchor="middle" x="226.75" y="-72.3" font-family="Times New Roman,serif" font-size="11.00">ChiusuraSenzaAccordo</text>
</g>
<!-- VerificaAuthority&#45;&gt;EsecuzionePerizia -->
<g id="edge31" class="edge">
<title>VerificaAuthority&#45;&gt;EsecuzionePerizia</title>
<path fill="none" stroke="black" d="M802.66,-394.75C770.45,-394.75 738.24,-394.75 706.03,-394.75"/>
<polygon fill="black" stroke="black" points="696.32,-394.75 706.32,-390.25 700.1,-394.75 706.32,-394.75 706.32,-394.75 706.32,-394.75 700.1,-394.75 706.32,-399.25 696.32,-394.75"/>
<text text-anchor="middle" x="749.06" y="-384.3" font-family="Times New Roman,serif" font-size="11.00">PeriziaNonApprovata</text>
</g>
<!-- VerificaAuthority&#45;&gt;ComunicazioneEsito -->
<g id="edge32" class="edge">
<title>VerificaAuthority&#45;&gt;ComunicazioneEsito</title>
<path fill="none" stroke="black" d="M824.76,-376.46C806.05,-367.16 782.39,-355.66 761,-346 751.06,-341.51 740.38,-336.9 730.08,-332.56"/>
<polygon fill="black" stroke="black" points="721.07,-328.79 732.03,-328.5 724.55,-330.25 730.29,-332.65 730.29,-332.65 730.29,-332.65 724.55,-330.25 728.56,-336.8 721.07,-328.79"/>
<text text-anchor="middle" x="826.25" y="-348.3" font-family="Times New Roman,serif" font-size="11.00">PeriziaApprovata</text>
</g>
<!-- start -->
<g id="node19" class="node">
<title>start</title>
<polygon fill="lightgrey" stroke="black" points="641.38,-625.75 558.62,-625.75 558.62,-589.75 641.38,-589.75 641.38,-625.75"/>
<text text-anchor="middle" x="600" y="-602.33" font-family="Times New Roman,serif" font-size="14.00">Assessment</text>
</g>
<!-- start&#45;&gt;AvvioPerizia -->
<g id="edge1" class="edge">
<title>start&#45;&gt;AvvioPerizia</title>
<path fill="none" stroke="black" d="M589.27,-589.49C579.01,-573.01 563.4,-547.91 551.55,-528.86"/>
<polygon fill="black" stroke="black" points="546.39,-520.57 555.5,-526.68 548.39,-523.78 551.67,-529.06 551.67,-529.06 551.67,-529.06 548.39,-523.78 547.85,-531.43 546.39,-520.57"/>
</g>
<!-- start&#45;&gt;AvvioPeriziaPostDesk -->
<g id="edge2" class="edge">
<title>start&#45;&gt;AvvioPeriziaPostDesk</title>
<path fill="none" stroke="black" d="M611.06,-589.49C621.64,-573.01 637.72,-547.91 649.94,-528.86"/>
<polygon fill="black" stroke="black" points="655.26,-520.56 653.65,-531.4 653.22,-523.74 649.86,-528.98 649.86,-528.98 649.86,-528.98 653.22,-523.74 646.08,-526.55 655.26,-520.56"/>
</g>
<!-- end&#45;&gt;EsecuzionePerizia -->
<g id="edge3" class="edge">
<title>end&#45;&gt;EsecuzionePerizia</title>
<path fill="none" stroke="black" d="M445.59,-35.64C532.72,-38.25 770,-51.44 770,-117.75 770,-311 770,-311 770,-311 770,-333.12 771.63,-343.11 756,-358.75 742.51,-372.25 724.11,-380.6 705.8,-385.74"/>
<polygon fill="black" stroke="black" points="696.25,-388.12 704.87,-381.34 699.92,-387.21 705.96,-385.7 705.96,-385.7 705.96,-385.7 699.92,-387.21 707.04,-390.07 696.25,-388.12"/>
<text text-anchor="middle" x="826.62" y="-221.18" font-family="Times New Roman,serif" font-size="11.00">PeriziaIncompletaAvviata</text>
</g>
</g>
</svg>
