<?xml version="1.0" encoding="UTF-8" standalone="no"?>
<!DOCTYPE svg PUBLIC "-//W3C//DTD SVG 1.1//EN"
 "http://www.w3.org/Graphics/SVG/1.1/DTD/svg11.dtd">
<!-- Generated by graphviz version 9.0.0 (20230911.1827)
 -->
<!-- perizia post desk, e perizia incompleta (vedi chiusura) -->
<!-- Title: finite_state_machine Pages: 1 -->
<svg width="242pt" height="360pt"
 viewBox="0.00 0.00 241.94 360.00" xmlns="http://www.w3.org/2000/svg" xmlns:xlink="http://www.w3.org/1999/xlink">
<g id="graph0" class="graph" transform="scale(0.1782 0.1782) rotate(0) translate(4 2016.2)">
<title>finite_state_machine</title>
<polygon fill="white" stroke="none" points="-4,4 -4,-2016.2 1353.69,-2016.2 1353.69,4 -4,4"/>
<text text-anchor="middle" x="674.84" y="-6.45" font-family="Times New Roman,serif" font-size="14.00">Expertise</text>
<g id="clust3" class="cluster">
<title>Revision</title>
<polygon fill="none" stroke="black" points="107.44,-856.81 107.44,-1273.32 475.44,-1273.32 475.44,-856.81 107.44,-856.81"/>
<text text-anchor="middle" x="291.44" y="-1256.02" font-family="Times New Roman,serif" font-size="14.00">Revision</text>
</g>
<g id="clust2" class="cluster">
<title>Collaboration</title>
<polygon fill="none" stroke="black" points="515.44,-1512.84 515.44,-2004.2 1188.44,-2004.2 1188.44,-1512.84 515.44,-1512.84"/>
<text text-anchor="middle" x="851.94" y="-1986.9" font-family="Times New Roman,serif" font-size="14.00">Collaboration</text>
</g>
<!-- Assessment -->
<g id="node1" class="node">
<title>Assessment</title>
<polygon fill="lightgrey" stroke="black" points="242.81,-1899.47 160.06,-1899.47 160.06,-1863.47 242.81,-1863.47 242.81,-1899.47"/>
<text text-anchor="middle" x="201.44" y="-1876.05" font-family="Times New Roman,serif" font-size="14.00">Assessment</text>
</g>
<!-- AvvioPerizia -->
<g id="node12" class="node">
<title>AvvioPerizia</title>
<ellipse fill="none" stroke="black" cx="328.44" cy="-1629.79" rx="57.55" ry="57.55"/>
<ellipse fill="none" stroke="black" cx="328.44" cy="-1629.79" rx="61.55" ry="61.55"/>
<text text-anchor="middle" x="328.44" y="-1624.37" font-family="Times New Roman,serif" font-size="14.00">AvvioPerizia</text>
</g>
<!-- Assessment&#45;&gt;AvvioPerizia -->
<g id="edge3" class="edge">
<title>Assessment&#45;&gt;AvvioPerizia</title>
<path fill="none" stroke="black" d="M210.17,-1863.31C227.47,-1829.29 266.92,-1751.73 295.51,-1695.53"/>
<polygon fill="black" stroke="black" points="298.61,-1697.14 300.03,-1686.64 292.37,-1693.97 298.61,-1697.14"/>
</g>
<!-- AvvioPeriziaPostDesk -->
<g id="node14" class="node">
<title>AvvioPeriziaPostDesk</title>
<ellipse fill="none" stroke="black" cx="151.44" cy="-1629.79" rx="93.48" ry="93.48"/>
<ellipse fill="none" stroke="black" cx="151.44" cy="-1629.79" rx="97.48" ry="97.48"/>
<text text-anchor="middle" x="151.44" y="-1624.37" font-family="Times New Roman,serif" font-size="14.00">AvvioPeriziaPostDesk</text>
</g>
<!-- Assessment&#45;&gt;AvvioPeriziaPostDesk -->
<g id="edge4" class="edge">
<title>Assessment&#45;&gt;AvvioPeriziaPostDesk</title>
<path fill="none" stroke="black" d="M198,-1863.31C192.76,-1837.14 182.36,-1785.22 172.72,-1737.07"/>
<polygon fill="black" stroke="black" points="176.18,-1736.5 170.78,-1727.38 169.31,-1737.87 176.18,-1736.5"/>
</g>
<!-- CollaborazionePerizia -->
<g id="node2" class="node">
<title>CollaborazionePerizia</title>
<ellipse fill="none" stroke="black" cx="721.44" cy="-1881.47" rx="90.98" ry="90.98"/>
<text text-anchor="middle" x="721.44" y="-1876.05" font-family="Times New Roman,serif" font-size="14.00">CollaborazionePerizia</text>
</g>
<!-- CollaborazioneRifiutata -->
<g id="node3" class="node">
<title>CollaborazioneRifiutata</title>
<ellipse fill="none" stroke="black" cx="1083.44" cy="-1629.79" rx="97.47" ry="97.47"/>
<text text-anchor="middle" x="1083.44" y="-1624.37" font-family="Times New Roman,serif" font-size="14.00">CollaborazioneRifiutata</text>
</g>
<!-- CollaborazionePerizia&#45;&gt;CollaborazioneRifiutata -->
<g id="edge5" class="edge">
<title>CollaborazionePerizia&#45;&gt;CollaborazioneRifiutata</title>
<path fill="none" stroke="black" d="M804,-1842.08C855.77,-1816.23 922.65,-1779.5 976.44,-1738.74 987.83,-1730.1 999.2,-1720.28 1010.04,-1710.17"/>
<polygon fill="black" stroke="black" points="1012.28,-1712.87 1017.12,-1703.44 1007.46,-1707.8 1012.28,-1712.87"/>
<text text-anchor="middle" x="992.06" y="-1759.19" font-family="Times New Roman,serif" font-size="14.00">CollabRifiutata</text>
</g>
<!-- CollaborazioneCompletata -->
<g id="node4" class="node">
<title>CollaborazioneCompletata</title>
<ellipse fill="none" stroke="black" cx="632.44" cy="-1629.79" rx="108.95" ry="108.95"/>
<text text-anchor="middle" x="632.44" y="-1624.37" font-family="Times New Roman,serif" font-size="14.00">CollaborazioneCompletata</text>
</g>
<!-- CollaborazionePerizia&#45;&gt;CollaborazioneCompletata -->
<g id="edge6" class="edge">
<title>CollaborazionePerizia&#45;&gt;CollaborazioneCompletata</title>
<path fill="none" stroke="black" d="M691.06,-1795.24C685.14,-1778.63 678.84,-1760.97 672.66,-1743.63"/>
<polygon fill="black" stroke="black" points="675.99,-1742.55 669.34,-1734.31 669.4,-1744.9 675.99,-1742.55"/>
<text text-anchor="middle" x="731.69" y="-1759.19" font-family="Times New Roman,serif" font-size="14.00">CollabCompletata</text>
</g>
<!-- CollaborazioneCancellata -->
<g id="node5" class="node">
<title>CollaborazioneCancellata</title>
<ellipse fill="none" stroke="black" cx="863.44" cy="-1629.79" rx="104.46" ry="104.46"/>
<text text-anchor="middle" x="863.44" y="-1624.37" font-family="Times New Roman,serif" font-size="14.00">CollaborazioneCancellata</text>
</g>
<!-- CollaborazionePerizia&#45;&gt;CollaborazioneCancellata -->
<g id="edge7" class="edge">
<title>CollaborazionePerizia&#45;&gt;CollaborazioneCancellata</title>
<path fill="none" stroke="black" d="M768.54,-1803.15C774.63,-1792.88 780.73,-1782.46 786.44,-1772.49 793.88,-1759.48 801.57,-1745.73 809.09,-1732.1"/>
<polygon fill="black" stroke="black" points="812.05,-1733.98 813.8,-1723.53 805.91,-1730.61 812.05,-1733.98"/>
<text text-anchor="middle" x="841.31" y="-1759.19" font-family="Times New Roman,serif" font-size="14.00">CollabCancellata</text>
</g>
<!-- EsecuzionePerizia -->
<g id="node13" class="node">
<title>EsecuzionePerizia</title>
<ellipse fill="none" stroke="black" cx="632.44" cy="-1392.08" rx="77.01" ry="77.01"/>
<text text-anchor="middle" x="632.44" y="-1386.66" font-family="Times New Roman,serif" font-size="14.00">EsecuzionePerizia</text>
</g>
<!-- CollaborazioneRifiutata&#45;&gt;EsecuzionePerizia -->
<g id="edge8" class="edge">
<title>CollaborazioneRifiutata&#45;&gt;EsecuzionePerizia</title>
<path fill="none" stroke="black" stroke-dasharray="1,5" d="M1023.21,-1552.56C1009.05,-1537.94 993.16,-1523.81 976.44,-1512.84 896.83,-1460.66 791.91,-1428.44 718.97,-1410.74"/>
<polygon fill="black" stroke="black" points="720,-1407.39 709.46,-1408.48 718.38,-1414.2 720,-1407.39"/>
</g>
<!-- CollaborazioneCompletata&#45;&gt;EsecuzionePerizia -->
<g id="edge9" class="edge">
<title>CollaborazioneCompletata&#45;&gt;EsecuzionePerizia</title>
<path fill="none" stroke="black" stroke-dasharray="1,5" d="M632.44,-1520.59C632.44,-1507.21 632.44,-1493.66 632.44,-1480.63"/>
<polygon fill="black" stroke="black" points="635.94,-1480.86 632.44,-1470.86 628.94,-1480.86 635.94,-1480.86"/>
</g>
<!-- CollaborazioneCancellata&#45;&gt;EsecuzionePerizia -->
<g id="edge10" class="edge">
<title>CollaborazioneCancellata&#45;&gt;EsecuzionePerizia</title>
<path fill="none" stroke="black" stroke-dasharray="1,5" d="M790.86,-1554.2C777.43,-1540.43 763.52,-1526.19 750.44,-1512.84 732.11,-1494.15 712.15,-1473.85 693.94,-1455.37"/>
<polygon fill="black" stroke="black" points="696.82,-1453.31 687.31,-1448.65 691.84,-1458.23 696.82,-1453.31"/>
</g>
<!-- RevisionePerizia -->
<g id="node6" class="node">
<title>RevisionePerizia</title>
<ellipse fill="none" stroke="black" cx="366.44" cy="-1170.05" rx="71.52" ry="71.52"/>
<text text-anchor="middle" x="366.44" y="-1164.62" font-family="Times New Roman,serif" font-size="14.00">RevisionePerizia</text>
</g>
<!-- RevisioneRifiutata -->
<g id="node7" class="node">
<title>RevisioneRifiutata</title>
<ellipse fill="none" stroke="black" cx="389.44" cy="-954.29" rx="78.01" ry="78.01"/>
<text text-anchor="middle" x="389.44" y="-948.87" font-family="Times New Roman,serif" font-size="14.00">RevisioneRifiutata</text>
</g>
<!-- RevisionePerizia&#45;&gt;RevisioneRifiutata -->
<g id="edge11" class="edge">
<title>RevisionePerizia&#45;&gt;RevisioneRifiutata</title>
<path fill="none" stroke="black" d="M374.03,-1098.46C375.93,-1080.84 377.99,-1061.72 379.96,-1043.37"/>
<polygon fill="black" stroke="black" points="383.43,-1043.88 381.02,-1033.57 376.47,-1043.13 383.43,-1043.88"/>
<text text-anchor="middle" x="428.06" y="-1064.23" font-family="Times New Roman,serif" font-size="14.00">RevisioneRifiutata</text>
</g>
<!-- RevisioneCompletata -->
<g id="node8" class="node">
<title>RevisioneCompletata</title>
<ellipse fill="none" stroke="black" cx="204.44" cy="-954.29" rx="89.49" ry="89.49"/>
<text text-anchor="middle" x="204.44" y="-948.87" font-family="Times New Roman,serif" font-size="14.00">RevisioneCompletata</text>
</g>
<!-- RevisionePerizia&#45;&gt;RevisioneCompletata -->
<g id="edge12" class="edge">
<title>RevisionePerizia&#45;&gt;RevisioneCompletata</title>
<path fill="none" stroke="black" d="M306.95,-1129.72C288.12,-1115.07 268.45,-1097.17 253.94,-1077.53 247.68,-1069.06 242.07,-1059.68 237.08,-1050"/>
<polygon fill="black" stroke="black" points="240.3,-1048.63 232.77,-1041.18 234.02,-1051.7 240.3,-1048.63"/>
<text text-anchor="middle" x="312.69" y="-1064.23" font-family="Times New Roman,serif" font-size="14.00">RevisioneCompletata</text>
</g>
<!-- PeriziaInRevisione -->
<g id="node15" class="node">
<title>PeriziaInRevisione</title>
<ellipse fill="none" stroke="black" cx="286.44" cy="-734.05" rx="79.01" ry="79.01"/>
<text text-anchor="middle" x="286.44" y="-728.62" font-family="Times New Roman,serif" font-size="14.00">PeriziaInRevisione</text>
</g>
<!-- RevisioneRifiutata&#45;&gt;PeriziaInRevisione -->
<g id="edge13" class="edge">
<title>RevisioneRifiutata&#45;&gt;PeriziaInRevisione</title>
<path fill="none" stroke="black" stroke-dasharray="1,5" d="M356.42,-883.34C346.36,-862.03 335.22,-838.42 324.84,-816.42"/>
<polygon fill="black" stroke="black" points="328.05,-815.02 320.62,-807.48 321.72,-818.01 328.05,-815.02"/>
</g>
<!-- RevisioneCompletata&#45;&gt;PeriziaInRevisione -->
<g id="edge14" class="edge">
<title>RevisioneCompletata&#45;&gt;PeriziaInRevisione</title>
<path fill="none" stroke="black" stroke-dasharray="1,5" d="M235.67,-870.16C242.01,-853.3 248.67,-835.57 255.01,-818.69"/>
<polygon fill="black" stroke="black" points="258.14,-820.32 258.38,-809.73 251.59,-817.86 258.14,-820.32"/>
</g>
<!-- Chiusura -->
<g id="node9" class="node">
<title>Chiusura</title>
<polygon fill="lightgrey" stroke="black" points="1304.19,-1899.47 1238.69,-1899.47 1238.69,-1863.47 1304.19,-1863.47 1304.19,-1899.47"/>
<text text-anchor="middle" x="1271.44" y="-1876.05" font-family="Times New Roman,serif" font-size="14.00">Chiusura</text>
</g>
<!-- VerificaChiusura -->
<g id="node11" class="node">
<title>VerificaChiusura</title>
<ellipse fill="lightgrey" stroke="black" cx="1271.44" cy="-1629.79" rx="72.52" ry="72.52"/>
<text text-anchor="middle" x="1271.44" y="-1624.37" font-family="Times New Roman,serif" font-size="14.00">VerificaChiusura</text>
</g>
<!-- Chiusura&#45;&gt;VerificaChiusura -->
<g id="edge31" class="edge">
<title>Chiusura&#45;&gt;VerificaChiusura</title>
<path fill="none" stroke="black" d="M1271.44,-1863.31C1271.44,-1832.86 1271.44,-1767.55 1271.44,-1713.87"/>
<polygon fill="black" stroke="black" points="1274.94,-1714.12 1271.44,-1704.12 1267.94,-1714.12 1274.94,-1714.12"/>
</g>
<!-- AvvioChiusura -->
<g id="node10" class="node">
<title>AvvioChiusura</title>
<ellipse fill="lightgrey" stroke="black" cx="948.44" cy="-89.78" rx="66.03" ry="66.03"/>
<text text-anchor="middle" x="948.44" y="-84.36" font-family="Times New Roman,serif" font-size="14.00">AvvioChiusura</text>
</g>
<!-- VerificaChiusura&#45;&gt;EsecuzionePerizia -->
<g id="edge32" class="edge">
<title>VerificaChiusura&#45;&gt;EsecuzionePerizia</title>
<path fill="none" stroke="black" d="M1239.79,-1564.21C1227.47,-1545.04 1211.64,-1525.75 1192.44,-1512.84 1116.14,-1461.57 857.85,-1421.88 720.32,-1403.79"/>
<polygon fill="black" stroke="black" points="720.88,-1400.34 710.51,-1402.51 719.98,-1407.28 720.88,-1400.34"/>
<text text-anchor="middle" x="1239.94" y="-1489.54" font-family="Times New Roman,serif" font-size="14.00">PeriziaIncompletaAvviata</text>
</g>
<!-- AvvioPerizia&#45;&gt;EsecuzionePerizia -->
<g id="edge1" class="edge">
<title>AvvioPerizia&#45;&gt;EsecuzionePerizia</title>
<path fill="none" stroke="black" d="M315.95,-1569.09C313.63,-1541.56 316.22,-1510 333.69,-1487.09 382.49,-1423.1 474.72,-1401.68 543.86,-1394.99"/>
<polygon fill="black" stroke="black" points="544.01,-1398.49 553.67,-1394.14 543.4,-1391.52 544.01,-1398.49"/>
<text text-anchor="middle" x="372.81" y="-1489.54" font-family="Times New Roman,serif" font-size="14.00">PeriziaAvviata</text>
</g>
<!-- EsecuzionePerizia&#45;&gt;CollaborazionePerizia -->
<g id="edge15" class="edge">
<title>EsecuzionePerizia&#45;&gt;CollaborazionePerizia</title>
<path fill="none" stroke="black" stroke-dasharray="1,5" d="M559.36,-1416.72C515.01,-1435.28 462.04,-1465.96 435.69,-1512.84 411.09,-1556.6 409.23,-1696.08 435.69,-1738.74 476.06,-1803.82 556.2,-1839.95 621.37,-1859.41"/>
<polygon fill="black" stroke="black" points="620.07,-1862.68 630.65,-1862.09 622.01,-1855.96 620.07,-1862.68"/>
<text text-anchor="middle" x="474.81" y="-1624.37" font-family="Times New Roman,serif" font-size="14.00">CollabAvviata</text>
</g>
<!-- EsecuzionePerizia&#45;&gt;RevisionePerizia -->
<g id="edge16" class="edge">
<title>EsecuzionePerizia&#45;&gt;RevisionePerizia</title>
<path fill="none" stroke="black" stroke-dasharray="1,5" d="M555.96,-1381.03C501.79,-1369.82 431.71,-1346.27 390.69,-1297.07 380.25,-1284.56 373.8,-1268.91 369.91,-1252.94"/>
<polygon fill="black" stroke="black" points="373.38,-1252.43 367.91,-1243.35 366.52,-1253.85 373.38,-1252.43"/>
<text text-anchor="middle" x="438.81" y="-1283.77" font-family="Times New Roman,serif" font-size="14.00">RevisioneAvviata</text>
</g>
<!-- EsecuzionePerizia&#45;&gt;EsecuzionePerizia -->
<g id="edge17" class="edge">
<title>EsecuzionePerizia&#45;&gt;EsecuzionePerizia</title>
<path fill="none" stroke="black" d="M709.23,-1400.74C720.13,-1399.34 727.45,-1396.45 727.45,-1392.08 727.45,-1389.42 724.73,-1387.31 720.14,-1385.75"/>
<polygon fill="black" stroke="black" points="721.22,-1382.4 710.71,-1383.74 719.77,-1389.24 721.22,-1382.4"/>
<text text-anchor="middle" x="766.82" y="-1386.66" font-family="Times New Roman,serif" font-size="14.00">CollabAvviata</text>
</g>
<!-- EsecuzionePerizia&#45;&gt;EsecuzionePerizia -->
<g id="edge18" class="edge">
<title>EsecuzionePerizia&#45;&gt;EsecuzionePerizia</title>
<path fill="none" stroke="black" d="M707.66,-1410.45C755.66,-1413.88 806.2,-1407.76 806.2,-1392.08 806.2,-1377.63 763.25,-1371.3 718.93,-1373.08"/>
<polygon fill="black" stroke="black" points="718.96,-1369.58 709.17,-1373.63 719.35,-1376.57 718.96,-1369.58"/>
<text text-anchor="middle" x="892.07" y="-1386.66" font-family="Times New Roman,serif" font-size="14.00">CollaborazioneNonCompletata</text>
</g>
<!-- EsecuzionePerizia&#45;&gt;PeriziaInRevisione -->
<g id="edge19" class="edge">
<title>EsecuzionePerizia&#45;&gt;PeriziaInRevisione</title>
<path fill="none" stroke="black" d="M555.79,-1382.22C426.7,-1365.99 173.15,-1328.03 103.44,-1273.32 22.11,-1209.49 -15.93,-1162.66 6.69,-1061.78 28.72,-963.48 37.59,-933.05 103.44,-856.81 131.82,-823.94 171.13,-796.23 206.05,-775.59"/>
<polygon fill="black" stroke="black" points="207.56,-778.76 214.46,-770.72 204.05,-772.71 207.56,-778.76"/>
<text text-anchor="middle" x="55.81" y="-1064.23" font-family="Times New Roman,serif" font-size="14.00">RevisioneAvviata</text>
</g>
<!-- VerificaAuthority -->
<g id="node16" class="node">
<title>VerificaAuthority</title>
<ellipse fill="none" stroke="black" cx="808.44" cy="-1170.05" rx="74.52" ry="74.52"/>
<text text-anchor="middle" x="808.44" y="-1164.62" font-family="Times New Roman,serif" font-size="14.00">VerificaAuthority</text>
</g>
<!-- EsecuzionePerizia&#45;&gt;VerificaAuthority -->
<g id="edge20" class="edge">
<title>EsecuzionePerizia&#45;&gt;VerificaAuthority</title>
<path fill="none" stroke="black" d="M704.26,-1363.24C734.18,-1348.07 766.52,-1326.33 786.44,-1297.07 794.75,-1284.85 800.23,-1270.47 803.79,-1255.88"/>
<polygon fill="black" stroke="black" points="807.19,-1256.7 805.84,-1246.19 800.35,-1255.26 807.19,-1256.7"/>
<text text-anchor="middle" x="850.69" y="-1283.77" font-family="Times New Roman,serif" font-size="14.00">AuthorityNecessaria</text>
</g>
<!-- ComunicazioneEsito -->
<g id="node17" class="node">
<title>ComunicazioneEsito</title>
<ellipse fill="none" stroke="black" cx="930.44" cy="-954.29" rx="86.99" ry="86.99"/>
<text text-anchor="middle" x="930.44" y="-948.87" font-family="Times New Roman,serif" font-size="14.00">ComunicazioneEsito</text>
</g>
<!-- EsecuzionePerizia&#45;&gt;ComunicazioneEsito -->
<g id="edge21" class="edge">
<title>EsecuzionePerizia&#45;&gt;ComunicazioneEsito</title>
<path fill="none" stroke="black" d="M709.54,-1387.78C774.55,-1380.51 864.3,-1358.99 911.44,-1297.07 964.34,-1227.58 962.76,-1125.25 951.83,-1050.67"/>
<polygon fill="black" stroke="black" points="955.3,-1050.26 950.31,-1040.91 948.39,-1051.33 955.3,-1050.26"/>
<text text-anchor="middle" x="1025.69" y="-1164.62" font-family="Times New Roman,serif" font-size="14.00">AuthorityNonNecessaria</text>
</g>
<!-- AvvioPeriziaPostDesk&#45;&gt;EsecuzionePerizia -->
<g id="edge2" class="edge">
<title>AvvioPeriziaPostDesk&#45;&gt;EsecuzionePerizia</title>
<path fill="none" stroke="black" d="M193.01,-1541.39C206.34,-1521 222.89,-1501.16 242.69,-1487.09 332.2,-1423.5 459.39,-1402.58 543.83,-1395.89"/>
<polygon fill="black" stroke="black" points="543.97,-1399.39 553.69,-1395.17 543.46,-1392.41 543.97,-1399.39"/>
<text text-anchor="middle" x="282.81" y="-1489.54" font-family="Times New Roman,serif" font-size="14.00">PeriziaAvviata</text>
</g>
<!-- PeriziaInRevisione&#45;&gt;EsecuzionePerizia -->
<g id="edge22" class="edge">
<title>PeriziaInRevisione&#45;&gt;EsecuzionePerizia</title>
<path fill="none" stroke="black" d="M360.4,-762.5C402.49,-782.14 452.1,-812.92 479.44,-856.81 531.59,-940.55 478.64,-981.92 502.94,-1077.53 524.07,-1160.66 563.07,-1250.69 592.77,-1312.86"/>
<polygon fill="black" stroke="black" points="589.49,-1314.12 596.98,-1321.61 595.8,-1311.09 589.49,-1314.12"/>
<text text-anchor="middle" x="560.19" y="-1064.23" font-family="Times New Roman,serif" font-size="14.00">RevisioniCompletate</text>
</g>
<!-- PeriziaInRevisione&#45;&gt;PeriziaInRevisione -->
<g id="edge23" class="edge">
<title>PeriziaInRevisione&#45;&gt;PeriziaInRevisione</title>
<path fill="none" stroke="black" d="M363.68,-751.98C375.45,-749.25 383.44,-743.27 383.44,-734.05 383.44,-728 380,-723.35 374.31,-720.09"/>
<polygon fill="black" stroke="black" points="375.69,-716.87 365.1,-716.65 373.24,-723.43 375.69,-716.87"/>
<text text-anchor="middle" x="453.19" y="-728.62" font-family="Times New Roman,serif" font-size="14.00">RevisioniNonCompletate</text>
</g>
<!-- VerificaAuthority&#45;&gt;EsecuzionePerizia -->
<g id="edge24" class="edge">
<title>VerificaAuthority&#45;&gt;EsecuzionePerizia</title>
<path fill="none" stroke="black" d="M743.37,-1206.79C714.74,-1225.53 683.01,-1250.94 662.44,-1281.32 657.49,-1288.62 653.36,-1296.72 649.9,-1305.1"/>
<polygon fill="black" stroke="black" points="646.64,-1303.84 646.41,-1314.43 653.2,-1306.29 646.64,-1303.84"/>
<text text-anchor="middle" x="722.44" y="-1283.77" font-family="Times New Roman,serif" font-size="14.00">PeriziaNonApprovata</text>
</g>
<!-- VerificaAuthority&#45;&gt;ComunicazioneEsito -->
<g id="edge25" class="edge">
<title>VerificaAuthority&#45;&gt;ComunicazioneEsito</title>
<path fill="none" stroke="black" d="M814.71,-1095.31C817.41,-1083.7 821.18,-1072.13 826.44,-1061.78 834.12,-1046.66 844.69,-1032.29 856.18,-1019.29"/>
<polygon fill="black" stroke="black" points="858.63,-1021.8 862.81,-1012.06 853.47,-1017.06 858.63,-1021.8"/>
<text text-anchor="middle" x="874.44" y="-1064.23" font-family="Times New Roman,serif" font-size="14.00">PeriziaApprovata</text>
</g>
<!-- ComunicazioneEsito&#45;&gt;AvvioChiusura -->
<g id="edge27" class="edge">
<title>ComunicazioneEsito&#45;&gt;AvvioChiusura</title>
<path fill="none" stroke="black" d="M1012.24,-924.43C1049.91,-907.28 1092.19,-881.92 1119.44,-846.81 1150.97,-806.18 1149.44,-786.48 1149.44,-735.05 1149.44,-735.05 1149.44,-735.05 1149.44,-291.56 1149.44,-252.35 1146.02,-238.89 1122.44,-207.57 1095.43,-171.7 1054.04,-143.28 1018.39,-123.46"/>
<polygon fill="black" stroke="black" points="1020.3,-120.51 1009.84,-118.81 1016.96,-126.66 1020.3,-120.51"/>
<text text-anchor="middle" x="1249.56" y="-510.88" font-family="Times New Roman,serif" font-size="14.00">AccordoRaggiunto&#45;o&#45;NonRichiesto</text>
</g>
<!-- ComunicazioneEsito&#45;&gt;ComunicazioneEsito -->
<g id="edge26" class="edge">
<title>ComunicazioneEsito&#45;&gt;ComunicazioneEsito</title>
<path fill="none" stroke="black" d="M1015.71,-973.6C1027.53,-970.42 1035.43,-963.98 1035.43,-954.29 1035.43,-947.78 1031.86,-942.74 1025.94,-939.17"/>
<polygon fill="black" stroke="black" points="1027.69,-936.11 1017.11,-935.56 1025.04,-942.59 1027.69,-936.11"/>
<text text-anchor="middle" x="1103.68" y="-948.87" font-family="Times New Roman,serif" font-size="14.00">DatiObbligatoriMancanti</text>
</g>
<!-- ConciliazionePerizia -->
<g id="node18" class="node">
<title>ConciliazionePerizia</title>
<ellipse fill="none" stroke="black" cx="743.44" cy="-292.56" rx="85" ry="85"/>
<text text-anchor="middle" x="743.44" y="-287.14" font-family="Times New Roman,serif" font-size="14.00">ConciliazionePerizia</text>
</g>
<!-- ComunicazioneEsito&#45;&gt;ConciliazionePerizia -->
<g id="edge28" class="edge">
<title>ComunicazioneEsito&#45;&gt;ConciliazionePerizia</title>
<path fill="none" stroke="black" d="M887.72,-878.21C876.94,-857.5 866.01,-834.75 857.44,-813.06 801.2,-670.76 770,-495.01 754.99,-388.74"/>
<polygon fill="black" stroke="black" points="758.46,-388.32 753.62,-378.9 751.53,-389.29 758.46,-388.32"/>
<text text-anchor="middle" x="867.06" y="-623.74" font-family="Times New Roman,serif" font-size="14.00">AccordoNonRaggiunto</text>
</g>
<!-- InvioEmailEsito -->
<g id="node19" class="node">
<title>InvioEmailEsito</title>
<ellipse fill="none" stroke="black" cx="1045.44" cy="-734.05" rx="69.03" ry="69.03"/>
<text text-anchor="middle" x="1045.44" y="-728.62" font-family="Times New Roman,serif" font-size="14.00">InvioEmailEsito</text>
</g>
<!-- ComunicazioneEsito&#45;&gt;InvioEmailEsito -->
<g id="edge29" class="edge">
<title>ComunicazioneEsito&#45;&gt;InvioEmailEsito</title>
<path fill="none" stroke="black" d="M986.91,-887.64C996.33,-874.66 1005.33,-860.73 1012.44,-846.81 1017.93,-836.04 1022.65,-824.22 1026.67,-812.42"/>
<polygon fill="black" stroke="black" points="1029.95,-813.65 1029.69,-803.06 1023.29,-811.5 1029.95,-813.65"/>
<text text-anchor="middle" x="1066.81" y="-833.51" font-family="Times New Roman,serif" font-size="14.00">EsitoScrittoEmail</text>
</g>
<!-- InvioAtto -->
<g id="node20" class="node">
<title>InvioAtto</title>
<ellipse fill="none" stroke="black" cx="912.44" cy="-734.05" rx="46.07" ry="46.07"/>
<text text-anchor="middle" x="912.44" y="-728.62" font-family="Times New Roman,serif" font-size="14.00">InvioAtto</text>
</g>
<!-- ComunicazioneEsito&#45;&gt;InvioAtto -->
<g id="edge30" class="edge">
<title>ComunicazioneEsito&#45;&gt;InvioAtto</title>
<path fill="none" stroke="black" d="M923.35,-867.35C921.25,-841.94 919.01,-814.78 917.11,-791.71"/>
<polygon fill="black" stroke="black" points="920.61,-791.59 916.3,-781.91 913.64,-792.16 920.61,-791.59"/>
<text text-anchor="middle" x="966.81" y="-833.51" font-family="Times New Roman,serif" font-size="14.00">EsitoScrittoAtto</text>
</g>
<!-- ConciliazionePerizia&#45;&gt;AvvioChiusura -->
<g id="edge34" class="edge">
<title>ConciliazionePerizia&#45;&gt;AvvioChiusura</title>
<path fill="none" stroke="black" d="M807.45,-236.24C824.02,-221.4 841.64,-205.13 857.44,-189.57 870.64,-176.56 884.42,-162.1 897.14,-148.35"/>
<polygon fill="black" stroke="black" points="899.7,-150.74 903.89,-141.01 894.54,-146 899.7,-150.74"/>
<text text-anchor="middle" x="934.31" y="-176.27" font-family="Times New Roman,serif" font-size="14.00">ChiusuraConAccordo</text>
</g>
<!-- ConciliazionePerizia&#45;&gt;AvvioChiusura -->
<g id="edge35" class="edge">
<title>ConciliazionePerizia&#45;&gt;AvvioChiusura</title>
<path fill="none" stroke="black" d="M711.54,-213.4C710.34,-199.36 712.51,-185.5 720.69,-173.82 754.41,-125.63 819.18,-105.31 871.06,-96.79"/>
<polygon fill="black" stroke="black" points="871.39,-100.28 880.75,-95.33 870.34,-93.36 871.39,-100.28"/>
<text text-anchor="middle" x="786.81" y="-176.27" font-family="Times New Roman,serif" font-size="14.00">ChiusuraSenzaAccordo</text>
</g>
<!-- ConciliazionePerizia&#45;&gt;EsecuzionePerizia -->
<g id="edge33" class="edge">
<title>ConciliazionePerizia&#45;&gt;EsecuzionePerizia</title>
<path fill="none" stroke="black" d="M690.54,-359.24C661.95,-401.3 632.44,-458.47 632.44,-515.3 632.44,-1171.05 632.44,-1171.05 632.44,-1171.05 632.44,-1214.6 632.44,-1263 632.44,-1303.3"/>
<polygon fill="black" stroke="black" points="628.94,-1303.19 632.44,-1313.19 635.94,-1303.19 628.94,-1303.19"/>
<text text-anchor="middle" x="707.81" y="-833.51" font-family="Times New Roman,serif" font-size="14.00">PeriziaConcilazioneAvviata</text>
</g>
<!-- ConciliazionePerizia&#45;&gt;ConciliazionePerizia -->
<g id="edge36" class="edge">
<title>ConciliazionePerizia&#45;&gt;ConciliazionePerizia</title>
<path fill="none" stroke="black" d="M826.68,-311.22C838.5,-308.2 846.43,-301.98 846.43,-292.56 846.43,-286.38 843.02,-281.58 837.33,-278.15"/>
<polygon fill="black" stroke="black" points="838.68,-274.92 828.09,-274.47 836.08,-281.42 838.68,-274.92"/>
<text text-anchor="middle" x="914.68" y="-287.14" font-family="Times New Roman,serif" font-size="14.00">DatiObbligatoriMancanti</text>
</g>
<!-- AttesaRicezioneAtto -->
<g id="node21" class="node">
<title>AttesaRicezioneAtto</title>
<ellipse fill="none" stroke="black" cx="985.44" cy="-516.3" rx="86.99" ry="86.99"/>
<text text-anchor="middle" x="985.44" y="-510.88" font-family="Times New Roman,serif" font-size="14.00">AttesaRicezioneAtto</text>
</g>
<!-- InvioEmailEsito&#45;&gt;AttesaRicezioneAtto -->
<g id="edge37" class="edge">
<title>InvioEmailEsito&#45;&gt;AttesaRicezioneAtto</title>
<path fill="none" stroke="black" d="M1028.65,-666.76C1024.74,-651.78 1020.53,-635.97 1016.44,-621.29 1015.51,-617.95 1014.55,-614.55 1013.57,-611.12"/>
<polygon fill="black" stroke="black" points="1016.95,-610.2 1010.83,-601.55 1010.22,-612.13 1016.95,-610.2"/>
<text text-anchor="middle" x="1068.44" y="-623.74" font-family="Times New Roman,serif" font-size="14.00">EmailEsitoInviata</text>
</g>
<!-- InvioAtto&#45;&gt;AttesaRicezioneAtto -->
<g id="edge38" class="edge">
<title>InvioAtto&#45;&gt;AttesaRicezioneAtto</title>
<path fill="none" stroke="black" d="M926.62,-689.75C933.45,-669.02 941.8,-643.84 949.44,-621.29 950.74,-617.45 952.07,-613.52 953.43,-609.56"/>
<polygon fill="black" stroke="black" points="956.62,-611.04 956.54,-600.44 950,-608.77 956.62,-611.04"/>
<text text-anchor="middle" x="980.94" y="-623.74" font-family="Times New Roman,serif" font-size="14.00">AttoInviato</text>
</g>
<!-- AttesaRicezioneAtto&#45;&gt;AvvioChiusura -->
<g id="edge39" class="edge">
<title>AttesaRicezioneAtto&#45;&gt;AvvioChiusura</title>
<path fill="none" stroke="black" d="M1003.84,-431.09C1015.73,-360.88 1024.89,-258.94 1000.44,-173.82 998.5,-167.06 995.82,-160.32 992.71,-153.76"/>
<polygon fill="black" stroke="black" points="995.88,-152.28 988.19,-144.99 989.66,-155.48 995.88,-152.28"/>
<text text-anchor="middle" x="1066.81" y="-287.14" font-family="Times New Roman,serif" font-size="14.00">ForzaturaChiusura</text>
</g>
<!-- AttesaRicezioneAtto&#45;&gt;ConciliazionePerizia -->
<g id="edge40" class="edge">
<title>AttesaRicezioneAtto&#45;&gt;ConciliazionePerizia</title>
<path fill="none" stroke="black" d="M921.54,-456.75C888.35,-426.34 847.73,-389.12 813.66,-357.91"/>
<polygon fill="black" stroke="black" points="816.45,-355.72 806.72,-351.54 811.73,-360.88 816.45,-355.72"/>
<text text-anchor="middle" x="929.94" y="-398.01" font-family="Times New Roman,serif" font-size="14.00">ConciliazioneAvviata</text>
</g>
</g>
</svg>
