<?xml version="1.0" encoding="UTF-8" standalone="no"?>
<!DOCTYPE svg PUBLIC "-//W3C//DTD SVG 1.1//EN"
 "http://www.w3.org/Graphics/SVG/1.1/DTD/svg11.dtd">
<!-- Generated by graphviz version 9.0.0 (20230911.1827)
 -->
<!-- perizia incompleta (vedi chiusura) -->
<!-- Title: Expertise_activity Pages: 1 -->
<svg width="288pt" height="114pt"
 viewBox="0.00 0.00 288.00 114.02" xmlns="http://www.w3.org/2000/svg" xmlns:xlink="http://www.w3.org/1999/xlink">
<g id="graph0" class="graph" transform="scale(0.18677 0.18677) rotate(0) translate(4 606.5)">
<title>Expertise_activity</title>
<polygon fill="white" stroke="none" points="-4,4 -4,-606.5 1538,-606.5 1538,4 -4,4"/>
<g id="clust1" class="cluster">
<title>cluster_perito</title>
<polygon fill="none" stroke="black" points="922,-114.5 922,-488 1353,-488 1353,-114.5 922,-114.5"/>
<text text-anchor="middle" x="1137.5" y="-470.7" font-family="Times New Roman,serif" font-size="14.00">PERITO REFERENTE</text>
</g>
<g id="clust5" class="cluster">
<title>cluster_chisura</title>
<polygon fill="lightgrey" stroke="black" points="952,-8 952,-83.75 1226,-83.75 1226,-8 952,-8"/>
<text text-anchor="middle" x="1089" y="-66.45" font-family="Times New Roman,serif" font-size="14.00">CHIUSURA</text>
</g>
<g id="clust2" class="cluster">
<title>cluster_revisione</title>
<polygon fill="none" stroke="black" points="8,-305.75 8,-488 294,-488 294,-305.75 8,-305.75"/>
<text text-anchor="middle" x="151" y="-470.7" font-family="Times New Roman,serif" font-size="14.00">PERITO REVISORE</text>
</g>
<g id="clust6" class="cluster">
<title>cluster_conciliation</title>
<polygon fill="none" stroke="black" points="617,-8 617,-190.25 823,-190.25 823,-8 617,-8"/>
<text text-anchor="middle" x="720" y="-172.95" font-family="Times New Roman,serif" font-size="14.00">PERITO CONCILIATORE</text>
</g>
<g id="clust4" class="cluster">
<title>cluster_authority</title>
<polygon fill="none" stroke="black" points="1361,-305.75 1361,-381.5 1526,-381.5 1526,-305.75 1361,-305.75"/>
<text text-anchor="middle" x="1443.5" y="-364.2" font-family="Times New Roman,serif" font-size="14.00">PERITO SUPERVISORE</text>
</g>
<g id="clust3" class="cluster">
<title>cluster_collaborazione</title>
<polygon fill="none" stroke="black" points="302,-412.25 302,-594.5 821,-594.5 821,-412.25 302,-412.25"/>
<text text-anchor="middle" x="561.5" y="-577.2" font-family="Times New Roman,serif" font-size="14.00">PERITO INGAGGIATO</text>
</g>
<!-- AvvioPerizia -->
<g id="node1" class="node">
<title>AvvioPerizia</title>
<path fill="none" stroke="black" d="M1004.25,-456.25C1004.25,-456.25 941.75,-456.25 941.75,-456.25 935.75,-456.25 929.75,-450.25 929.75,-444.25 929.75,-444.25 929.75,-432.25 929.75,-432.25 929.75,-426.25 935.75,-420.25 941.75,-420.25 941.75,-420.25 1004.25,-420.25 1004.25,-420.25 1010.25,-420.25 1016.25,-426.25 1016.25,-432.25 1016.25,-432.25 1016.25,-444.25 1016.25,-444.25 1016.25,-450.25 1010.25,-456.25 1004.25,-456.25"/>
<text text-anchor="middle" x="973" y="-432.82" font-family="Times New Roman,serif" font-size="14.00">AvvioPerizia</text>
</g>
<!-- EsecuzionePerizia -->
<g id="node3" class="node">
<title>EsecuzionePerizia</title>
<path fill="none" stroke="black" d="M1033.88,-349.75C1033.88,-349.75 942.12,-349.75 942.12,-349.75 936.12,-349.75 930.12,-343.75 930.12,-337.75 930.12,-337.75 930.12,-325.75 930.12,-325.75 930.12,-319.75 936.12,-313.75 942.12,-313.75 942.12,-313.75 1033.88,-313.75 1033.88,-313.75 1039.88,-313.75 1045.88,-319.75 1045.88,-325.75 1045.88,-325.75 1045.88,-337.75 1045.88,-337.75 1045.88,-343.75 1039.88,-349.75 1033.88,-349.75"/>
<text text-anchor="middle" x="988" y="-326.32" font-family="Times New Roman,serif" font-size="14.00">EsecuzionePerizia</text>
</g>
<!-- AvvioPerizia&#45;&gt;EsecuzionePerizia -->
<g id="edge3" class="edge">
<title>AvvioPerizia&#45;&gt;EsecuzionePerizia</title>
<path fill="none" stroke="black" d="M975.48,-419.99C977.78,-403.96 981.25,-379.79 983.95,-360.95"/>
<polygon fill="black" stroke="black" points="985.35,-351.24 988.38,-361.78 984.81,-354.98 983.93,-361.14 983.93,-361.14 983.93,-361.14 984.81,-354.98 979.47,-360.5 985.35,-351.24"/>
<text text-anchor="middle" x="1011.25" y="-391.8" font-family="Times New Roman,serif" font-size="11.00">PeriziaAvviata</text>
</g>
<!-- AvvioPeriziaPostDesk -->
<g id="node2" class="node">
<title>AvvioPeriziaPostDesk</title>
<path fill="none" stroke="black" d="M1163.25,-456.25C1163.25,-456.25 1046.75,-456.25 1046.75,-456.25 1040.75,-456.25 1034.75,-450.25 1034.75,-444.25 1034.75,-444.25 1034.75,-432.25 1034.75,-432.25 1034.75,-426.25 1040.75,-420.25 1046.75,-420.25 1046.75,-420.25 1163.25,-420.25 1163.25,-420.25 1169.25,-420.25 1175.25,-426.25 1175.25,-432.25 1175.25,-432.25 1175.25,-444.25 1175.25,-444.25 1175.25,-450.25 1169.25,-456.25 1163.25,-456.25"/>
<text text-anchor="middle" x="1105" y="-432.82" font-family="Times New Roman,serif" font-size="14.00">AvvioPeriziaPostDesk</text>
</g>
<!-- AvvioPeriziaPostDesk&#45;&gt;EsecuzionePerizia -->
<g id="edge4" class="edge">
<title>AvvioPeriziaPostDesk&#45;&gt;EsecuzionePerizia</title>
<path fill="none" stroke="black" d="M1085.42,-419.76C1066.24,-402.63 1036.84,-376.37 1015.35,-357.18"/>
<polygon fill="black" stroke="black" points="1008.17,-350.76 1018.62,-354.07 1010.99,-353.28 1015.62,-357.42 1015.62,-357.42 1015.62,-357.42 1010.99,-353.28 1012.63,-360.78 1008.17,-350.76"/>
<text text-anchor="middle" x="1095.25" y="-391.8" font-family="Times New Roman,serif" font-size="11.00">PeriziaAvviata</text>
</g>
<!-- PeriziaInRevisione -->
<g id="node4" class="node">
<title>PeriziaInRevisione</title>
<path fill="none" stroke="black" d="M1036.38,-265C1036.38,-265 941.62,-265 941.62,-265 935.62,-265 929.62,-259 929.62,-253 929.62,-253 929.62,-241 929.62,-241 929.62,-235 935.62,-229 941.62,-229 941.62,-229 1036.38,-229 1036.38,-229 1042.38,-229 1048.38,-235 1048.38,-241 1048.38,-241 1048.38,-253 1048.38,-253 1048.38,-259 1042.38,-265 1036.38,-265"/>
<text text-anchor="middle" x="989" y="-241.57" font-family="Times New Roman,serif" font-size="14.00">PeriziaInRevisione</text>
</g>
<!-- EsecuzionePerizia&#45;&gt;PeriziaInRevisione -->
<g id="edge5" class="edge">
<title>EsecuzionePerizia&#45;&gt;PeriziaInRevisione</title>
<path fill="none" stroke="black" d="M1040.77,-313.38C1048.02,-308.77 1054.5,-302.99 1059,-295.75 1064.95,-286.19 1061.08,-278.08 1052.74,-271.4"/>
<polygon fill="black" stroke="black" points="1044.56,-266.1 1055.4,-267.77 1047.74,-268.16 1052.95,-271.54 1052.95,-271.54 1052.95,-271.54 1047.74,-268.16 1050.51,-275.32 1044.56,-266.1"/>
<text text-anchor="middle" x="1099.62" y="-285.3" font-family="Times New Roman,serif" font-size="11.00">RevisioneAvviata</text>
</g>
<!-- ComunicazioneEsito -->
<g id="node5" class="node">
<title>ComunicazioneEsito</title>
<path fill="none" stroke="black" d="M1312.38,-265C1312.38,-265 1205.62,-265 1205.62,-265 1199.62,-265 1193.62,-259 1193.62,-253 1193.62,-253 1193.62,-241 1193.62,-241 1193.62,-235 1199.62,-229 1205.62,-229 1205.62,-229 1312.38,-229 1312.38,-229 1318.38,-229 1324.38,-235 1324.38,-241 1324.38,-241 1324.38,-253 1324.38,-253 1324.38,-259 1318.38,-265 1312.38,-265"/>
<text text-anchor="middle" x="1259" y="-241.57" font-family="Times New Roman,serif" font-size="14.00">ComunicazioneEsito</text>
</g>
<!-- EsecuzionePerizia&#45;&gt;ComunicazioneEsito -->
<g id="edge6" class="edge">
<title>EsecuzionePerizia&#45;&gt;ComunicazioneEsito</title>
<path fill="none" stroke="black" d="M1046.37,-319.84C1075.42,-313.82 1110.88,-305.56 1142,-295.75 1165,-288.5 1189.82,-278.67 1210.66,-269.81"/>
<polygon fill="black" stroke="black" points="1219.73,-265.91 1212.33,-273.99 1216.26,-267.4 1210.55,-269.86 1210.55,-269.86 1210.55,-269.86 1216.26,-267.4 1208.77,-265.73 1219.73,-265.91"/>
<text text-anchor="middle" x="1232.75" y="-285.3" font-family="Times New Roman,serif" font-size="11.00">AuthorityNonNecessaria</text>
</g>
<!-- RevisionePerizia -->
<g id="node9" class="node">
<title>RevisionePerizia</title>
<path fill="none" stroke="black" d="M234.75,-456.25C234.75,-456.25 151.25,-456.25 151.25,-456.25 145.25,-456.25 139.25,-450.25 139.25,-444.25 139.25,-444.25 139.25,-432.25 139.25,-432.25 139.25,-426.25 145.25,-420.25 151.25,-420.25 151.25,-420.25 234.75,-420.25 234.75,-420.25 240.75,-420.25 246.75,-426.25 246.75,-432.25 246.75,-432.25 246.75,-444.25 246.75,-444.25 246.75,-450.25 240.75,-456.25 234.75,-456.25"/>
<text text-anchor="middle" x="193" y="-432.82" font-family="Times New Roman,serif" font-size="14.00">RevisionePerizia</text>
</g>
<!-- EsecuzionePerizia&#45;&gt;RevisionePerizia -->
<g id="edge8" class="edge">
<title>EsecuzionePerizia&#45;&gt;RevisionePerizia</title>
<path fill="none" stroke="black" stroke-dasharray="1,5" d="M929.84,-336.43C810.51,-344.64 529.74,-367.38 298,-412.25 284.99,-414.77 271.16,-417.8 257.95,-420.88"/>
<polygon fill="black" stroke="black" points="248.22,-423.18 256.92,-416.5 251.9,-422.31 257.95,-420.88 257.95,-420.88 257.95,-420.88 251.9,-422.31 258.99,-425.26 248.22,-423.18"/>
<text text-anchor="middle" x="467.62" y="-391.8" font-family="Times New Roman,serif" font-size="11.00">RevisioneAvviata</text>
</g>
<!-- CollaborazionePerizia -->
<g id="node12" class="node">
<title>CollaborazionePerizia</title>
<path fill="none" stroke="black" d="M709.38,-562.75C709.38,-562.75 596.62,-562.75 596.62,-562.75 590.62,-562.75 584.62,-556.75 584.62,-550.75 584.62,-550.75 584.62,-538.75 584.62,-538.75 584.62,-532.75 590.62,-526.75 596.62,-526.75 596.62,-526.75 709.38,-526.75 709.38,-526.75 715.38,-526.75 721.38,-532.75 721.38,-538.75 721.38,-538.75 721.38,-550.75 721.38,-550.75 721.38,-556.75 715.38,-562.75 709.38,-562.75"/>
<text text-anchor="middle" x="653" y="-539.33" font-family="Times New Roman,serif" font-size="14.00">CollaborazionePerizia</text>
</g>
<!-- EsecuzionePerizia&#45;&gt;CollaborazionePerizia -->
<g id="edge7" class="edge">
<title>EsecuzionePerizia&#45;&gt;CollaborazionePerizia</title>
<path fill="none" stroke="black" stroke-dasharray="1,5" d="M947.38,-350.23C919.57,-363.84 883.41,-385 858.75,-412.25 833.64,-440 848.49,-461.57 822,-488 806.98,-502.99 798.86,-501.27 779,-508.75 764.15,-514.34 748.03,-519.49 732.42,-524.02"/>
<polygon fill="black" stroke="black" points="722.9,-526.72 731.29,-519.66 726.53,-525.69 732.52,-523.99 732.52,-523.99 732.52,-523.99 726.53,-525.69 733.74,-528.32 722.9,-526.72"/>
<text text-anchor="middle" x="890.12" y="-434.18" font-family="Times New Roman,serif" font-size="11.00">CollabAvviata</text>
</g>
<!-- VerificaAuthority -->
<g id="node16" class="node">
<title>VerificaAuthority</title>
<path fill="none" stroke="black" d="M1469,-349.75C1469,-349.75 1381,-349.75 1381,-349.75 1375,-349.75 1369,-343.75 1369,-337.75 1369,-337.75 1369,-325.75 1369,-325.75 1369,-319.75 1375,-313.75 1381,-313.75 1381,-313.75 1469,-313.75 1469,-313.75 1475,-313.75 1481,-319.75 1481,-325.75 1481,-325.75 1481,-337.75 1481,-337.75 1481,-343.75 1475,-349.75 1469,-349.75"/>
<text text-anchor="middle" x="1425" y="-326.32" font-family="Times New Roman,serif" font-size="14.00">VerificaAuthority</text>
</g>
<!-- EsecuzionePerizia&#45;&gt;VerificaAuthority -->
<g id="edge9" class="edge">
<title>EsecuzionePerizia&#45;&gt;VerificaAuthority</title>
<path fill="none" stroke="black" d="M1046.03,-331.75C1126.69,-331.75 1272.36,-331.75 1357.69,-331.75"/>
<polygon fill="black" stroke="black" points="1367.59,-331.75 1357.59,-336.25 1363.81,-331.75 1357.59,-331.75 1357.59,-331.75 1357.59,-331.75 1363.81,-331.75 1357.59,-327.25 1367.59,-331.75"/>
<text text-anchor="middle" x="1207.44" y="-337.05" font-family="Times New Roman,serif" font-size="11.00">AuthorityNecessaria</text>
</g>
<!-- PeriziaInRevisione&#45;&gt;EsecuzionePerizia -->
<g id="edge10" class="edge">
<title>PeriziaInRevisione&#45;&gt;EsecuzionePerizia</title>
<path fill="none" stroke="black" d="M974.04,-265.43C970.36,-270.74 966.92,-276.81 965,-283 962.8,-290.09 964.27,-297.45 967.31,-304.2"/>
<polygon fill="black" stroke="black" points="972.05,-312.51 963.19,-306.05 970.18,-309.23 967.1,-303.82 967.1,-303.82 967.1,-303.82 970.18,-309.23 971.01,-301.59 972.05,-312.51"/>
<text text-anchor="middle" x="1010" y="-285.3" font-family="Times New Roman,serif" font-size="11.00">RevisioniCompletate</text>
</g>
<!-- PeriziaInRevisione&#45;&gt;PeriziaInRevisione -->
<g id="edge11" class="edge">
<title>PeriziaInRevisione&#45;&gt;PeriziaInRevisione</title>
<path fill="none" stroke="black" d="M1048.69,-254.45C1059.12,-253.46 1066.38,-250.97 1066.38,-247 1066.38,-244.64 1063.82,-242.81 1059.56,-241.5"/>
<polygon fill="black" stroke="black" points="1049.89,-239.77 1060.53,-237.1 1053.62,-240.43 1059.74,-241.53 1059.74,-241.53 1059.74,-241.53 1053.62,-240.43 1058.94,-245.96 1049.89,-239.77"/>
<text text-anchor="middle" x="1120.75" y="-242.93" font-family="Times New Roman,serif" font-size="11.00">RevisioniNonCompletate</text>
</g>
<!-- InvioEmailEsito -->
<g id="node6" class="node">
<title>InvioEmailEsito</title>
<path fill="none" stroke="black" d="M1068.88,-158.5C1068.88,-158.5 989.12,-158.5 989.12,-158.5 983.12,-158.5 977.12,-152.5 977.12,-146.5 977.12,-146.5 977.12,-134.5 977.12,-134.5 977.12,-128.5 983.12,-122.5 989.12,-122.5 989.12,-122.5 1068.88,-122.5 1068.88,-122.5 1074.88,-122.5 1080.88,-128.5 1080.88,-134.5 1080.88,-134.5 1080.88,-146.5 1080.88,-146.5 1080.88,-152.5 1074.88,-158.5 1068.88,-158.5"/>
<text text-anchor="middle" x="1029" y="-135.07" font-family="Times New Roman,serif" font-size="14.00">InvioEmailEsito</text>
</g>
<!-- ComunicazioneEsito&#45;&gt;InvioEmailEsito -->
<g id="edge12" class="edge">
<title>ComunicazioneEsito&#45;&gt;InvioEmailEsito</title>
<path fill="none" stroke="black" d="M1193.18,-230.96C1190.08,-230.29 1187.01,-229.63 1184,-229 1142.8,-220.35 1127.6,-231.8 1091,-211 1072.61,-200.55 1056.82,-182.62 1045.78,-167.6"/>
<polygon fill="black" stroke="black" points="1040.24,-159.7 1049.67,-165.3 1042.41,-162.8 1045.98,-167.89 1045.98,-167.89 1045.98,-167.89 1042.41,-162.8 1042.3,-170.47 1040.24,-159.7"/>
<text text-anchor="middle" x="1128.5" y="-200.55" font-family="Times New Roman,serif" font-size="11.00">EsitoScrittoEmail</text>
</g>
<!-- InvioAtto -->
<g id="node7" class="node">
<title>InvioAtto</title>
<path fill="none" stroke="black" d="M1203.62,-158.5C1203.62,-158.5 1158.38,-158.5 1158.38,-158.5 1152.38,-158.5 1146.38,-152.5 1146.38,-146.5 1146.38,-146.5 1146.38,-134.5 1146.38,-134.5 1146.38,-128.5 1152.38,-122.5 1158.38,-122.5 1158.38,-122.5 1203.62,-122.5 1203.62,-122.5 1209.62,-122.5 1215.62,-128.5 1215.62,-134.5 1215.62,-134.5 1215.62,-146.5 1215.62,-146.5 1215.62,-152.5 1209.62,-158.5 1203.62,-158.5"/>
<text text-anchor="middle" x="1181" y="-135.07" font-family="Times New Roman,serif" font-size="14.00">InvioAtto</text>
</g>
<!-- ComunicazioneEsito&#45;&gt;InvioAtto -->
<g id="edge13" class="edge">
<title>ComunicazioneEsito&#45;&gt;InvioAtto</title>
<path fill="none" stroke="black" d="M1194.48,-228.74C1186.9,-224.15 1180.14,-218.35 1175.25,-211 1167.23,-198.95 1167.95,-183.01 1171,-169.42"/>
<polygon fill="black" stroke="black" points="1173.65,-159.89 1175.31,-170.72 1172.64,-163.53 1170.97,-169.52 1170.97,-169.52 1170.97,-169.52 1172.64,-163.53 1166.64,-168.32 1173.65,-159.89"/>
<text text-anchor="middle" x="1209.88" y="-200.55" font-family="Times New Roman,serif" font-size="11.00">EsitoScrittoAtto</text>
</g>
<!-- VerificaChiusura -->
<g id="node17" class="node">
<title>VerificaChiusura</title>
<path fill="none" stroke="black" d="M1205.5,-52C1205.5,-52 1120.5,-52 1120.5,-52 1114.5,-52 1108.5,-46 1108.5,-40 1108.5,-40 1108.5,-28 1108.5,-28 1108.5,-22 1114.5,-16 1120.5,-16 1120.5,-16 1205.5,-16 1205.5,-16 1211.5,-16 1217.5,-22 1217.5,-28 1217.5,-28 1217.5,-40 1217.5,-40 1217.5,-46 1211.5,-52 1205.5,-52"/>
<text text-anchor="middle" x="1163" y="-28.57" font-family="Times New Roman,serif" font-size="14.00">VerificaChiusura</text>
</g>
<!-- ComunicazioneEsito&#45;&gt;VerificaChiusura -->
<g id="edge15" class="edge">
<title>ComunicazioneEsito&#45;&gt;VerificaChiusura</title>
<path fill="none" stroke="black" d="M1259.91,-228.94C1260.71,-199.03 1258.87,-136.08 1233,-91.75 1225.46,-78.83 1213.79,-67.64 1202.12,-58.7"/>
<polygon fill="black" stroke="black" points="1194.25,-53.02 1204.99,-55.22 1197.32,-55.23 1202.36,-58.87 1202.36,-58.87 1202.36,-58.87 1197.32,-55.23 1199.72,-62.52 1194.25,-53.02"/>
<text text-anchor="middle" x="1335.25" y="-136.43" font-family="Times New Roman,serif" font-size="11.00">AccordoRaggiunto&#45;o&#45;NonRichiesto</text>
</g>
<!-- ConciliazionePerizia -->
<g id="node19" class="node">
<title>ConciliazionePerizia</title>
<path fill="none" stroke="black" d="M802.88,-158.5C802.88,-158.5 699.12,-158.5 699.12,-158.5 693.12,-158.5 687.12,-152.5 687.12,-146.5 687.12,-146.5 687.12,-134.5 687.12,-134.5 687.12,-128.5 693.12,-122.5 699.12,-122.5 699.12,-122.5 802.88,-122.5 802.88,-122.5 808.88,-122.5 814.88,-128.5 814.88,-134.5 814.88,-134.5 814.88,-146.5 814.88,-146.5 814.88,-152.5 808.88,-158.5 802.88,-158.5"/>
<text text-anchor="middle" x="751" y="-135.07" font-family="Times New Roman,serif" font-size="14.00">ConciliazionePerizia</text>
</g>
<!-- ComunicazioneEsito&#45;&gt;ConciliazionePerizia -->
<g id="edge14" class="edge">
<title>ComunicazioneEsito&#45;&gt;ConciliazionePerizia</title>
<path fill="none" stroke="black" d="M1193.25,-230.55C1190.13,-229.99 1187.03,-229.47 1184,-229 1089.12,-214.35 1062.91,-229.71 968.75,-211 911.94,-199.71 849.12,-178.7 805.62,-162.72"/>
<polygon fill="black" stroke="black" points="796.41,-159.31 807.35,-158.57 799.95,-160.62 805.78,-162.79 805.78,-162.79 805.78,-162.79 799.95,-160.62 804.22,-167 796.41,-159.31"/>
<text text-anchor="middle" x="1018.62" y="-200.55" font-family="Times New Roman,serif" font-size="11.00">AccordoNonRaggiunto</text>
</g>
<!-- AttesaRicezioneAtto -->
<g id="node18" class="node">
<title>AttesaRicezioneAtto</title>
<path fill="none" stroke="black" d="M1078.38,-52C1078.38,-52 971.62,-52 971.62,-52 965.62,-52 959.62,-46 959.62,-40 959.62,-40 959.62,-28 959.62,-28 959.62,-22 965.62,-16 971.62,-16 971.62,-16 1078.38,-16 1078.38,-16 1084.38,-16 1090.38,-22 1090.38,-28 1090.38,-28 1090.38,-40 1090.38,-40 1090.38,-46 1084.38,-52 1078.38,-52"/>
<text text-anchor="middle" x="1025" y="-28.57" font-family="Times New Roman,serif" font-size="14.00">AttesaRicezioneAtto</text>
</g>
<!-- InvioEmailEsito&#45;&gt;AttesaRicezioneAtto -->
<g id="edge16" class="edge">
<title>InvioEmailEsito&#45;&gt;AttesaRicezioneAtto</title>
<path fill="none" stroke="black" d="M976.63,-136.43C929.82,-132.47 866.25,-123.64 850.5,-104.5 818.64,-65.78 888.01,-48.5 948.5,-40.87"/>
<polygon fill="black" stroke="black" points="958.06,-39.75 948.66,-45.39 954.31,-40.19 948.13,-40.92 948.13,-40.92 948.13,-40.92 954.31,-40.19 947.6,-36.45 958.06,-39.75"/>
<text text-anchor="middle" x="889.25" y="-94.05" font-family="Times New Roman,serif" font-size="11.00">EmailEsitoInviata</text>
</g>
<!-- InvioAtto&#45;&gt;AttesaRicezioneAtto -->
<g id="edge17" class="edge">
<title>InvioAtto&#45;&gt;AttesaRicezioneAtto</title>
<path fill="none" stroke="black" d="M1182.46,-122.07C1182.3,-111.78 1180.17,-99.32 1172,-91.75 1160.19,-80.81 1115.16,-89.17 1100,-83.75 1084,-78.03 1067.97,-68.29 1054.86,-59.01"/>
<polygon fill="black" stroke="black" points="1046.86,-53.13 1057.58,-55.43 1049.91,-55.37 1054.92,-59.05 1054.92,-59.05 1054.92,-59.05 1049.91,-55.37 1052.25,-62.68 1046.86,-53.13"/>
<text text-anchor="middle" x="1203.75" y="-94.05" font-family="Times New Roman,serif" font-size="11.00">AttoInviato</text>
</g>
<!-- AuthorityNonApprovata -->
<g id="node8" class="node">
<title>AuthorityNonApprovata</title>
<path fill="none" stroke="black" d="M1332.88,-456.25C1332.88,-456.25 1205.12,-456.25 1205.12,-456.25 1199.12,-456.25 1193.12,-450.25 1193.12,-444.25 1193.12,-444.25 1193.12,-432.25 1193.12,-432.25 1193.12,-426.25 1199.12,-420.25 1205.12,-420.25 1205.12,-420.25 1332.88,-420.25 1332.88,-420.25 1338.88,-420.25 1344.88,-426.25 1344.88,-432.25 1344.88,-432.25 1344.88,-444.25 1344.88,-444.25 1344.88,-450.25 1338.88,-456.25 1332.88,-456.25"/>
<text text-anchor="middle" x="1269" y="-432.82" font-family="Times New Roman,serif" font-size="14.00">AuthorityNonApprovata</text>
</g>
<!-- AuthorityNonApprovata&#45;&gt;EsecuzionePerizia -->
<g id="edge18" class="edge">
<title>AuthorityNonApprovata&#45;&gt;EsecuzionePerizia</title>
<path fill="none" stroke="black" d="M1221.97,-419.76C1173.29,-401.66 1097.23,-373.37 1045.13,-354"/>
<polygon fill="black" stroke="black" points="1035.86,-350.55 1046.8,-349.82 1039.4,-351.87 1045.23,-354.03 1045.23,-354.03 1045.23,-354.03 1039.4,-351.87 1043.66,-358.25 1035.86,-350.55"/>
<text text-anchor="middle" x="1217.62" y="-391.8" font-family="Times New Roman,serif" font-size="11.00">PeriziaNonApprovata</text>
</g>
<!-- RevisioneRifiutata -->
<g id="node10" class="node">
<title>RevisioneRifiutata</title>
<path fill="none" stroke="black" d="M121.62,-349.75C121.62,-349.75 28.38,-349.75 28.38,-349.75 22.38,-349.75 16.38,-343.75 16.38,-337.75 16.38,-337.75 16.38,-325.75 16.38,-325.75 16.38,-319.75 22.38,-313.75 28.38,-313.75 28.38,-313.75 121.62,-313.75 121.62,-313.75 127.62,-313.75 133.62,-319.75 133.62,-325.75 133.62,-325.75 133.62,-337.75 133.62,-337.75 133.62,-343.75 127.62,-349.75 121.62,-349.75"/>
<text text-anchor="middle" x="75" y="-326.32" font-family="Times New Roman,serif" font-size="14.00">RevisioneRifiutata</text>
</g>
<!-- RevisionePerizia&#45;&gt;RevisioneRifiutata -->
<g id="edge25" class="edge">
<title>RevisionePerizia&#45;&gt;RevisioneRifiutata</title>
<path fill="none" stroke="black" d="M145.75,-419.93C136.18,-415.12 126.65,-409.24 118.75,-402.25 105.52,-390.54 94.85,-373.88 87.36,-359.81"/>
<polygon fill="black" stroke="black" points="83.02,-351.21 91.54,-358.11 84.72,-354.59 87.53,-360.14 87.53,-360.14 87.53,-360.14 84.72,-354.59 83.51,-362.17 83.02,-351.21"/>
<text text-anchor="middle" x="159.12" y="-391.8" font-family="Times New Roman,serif" font-size="11.00">RevisioneRifiutata</text>
</g>
<!-- RevisioneCompletata -->
<g id="node11" class="node">
<title>RevisioneCompletata</title>
<path fill="none" stroke="black" d="M274.25,-349.75C274.25,-349.75 163.75,-349.75 163.75,-349.75 157.75,-349.75 151.75,-343.75 151.75,-337.75 151.75,-337.75 151.75,-325.75 151.75,-325.75 151.75,-319.75 157.75,-313.75 163.75,-313.75 163.75,-313.75 274.25,-313.75 274.25,-313.75 280.25,-313.75 286.25,-319.75 286.25,-325.75 286.25,-325.75 286.25,-337.75 286.25,-337.75 286.25,-343.75 280.25,-349.75 274.25,-349.75"/>
<text text-anchor="middle" x="219" y="-326.32" font-family="Times New Roman,serif" font-size="14.00">RevisioneCompletata</text>
</g>
<!-- RevisionePerizia&#45;&gt;RevisioneCompletata -->
<g id="edge26" class="edge">
<title>RevisionePerizia&#45;&gt;RevisioneCompletata</title>
<path fill="none" stroke="black" d="M197.29,-419.99C201.3,-403.88 207.35,-379.56 212.05,-360.68"/>
<polygon fill="black" stroke="black" points="214.41,-351.21 216.36,-362 213.49,-354.88 211.99,-360.92 211.99,-360.92 211.99,-360.92 213.49,-354.88 207.62,-359.83 214.41,-351.21"/>
<text text-anchor="middle" x="251.5" y="-391.8" font-family="Times New Roman,serif" font-size="11.00">RevisioneCompletata</text>
</g>
<!-- RevisioneRifiutata&#45;&gt;PeriziaInRevisione -->
<g id="edge27" class="edge">
<title>RevisioneRifiutata&#45;&gt;PeriziaInRevisione</title>
<path fill="none" stroke="black" stroke-dasharray="1,5" d="M116.53,-313.37C125.15,-310.37 134.27,-307.61 143,-305.75 290.22,-274.33 742.13,-256.26 917.96,-250.26"/>
<polygon fill="black" stroke="black" points="927.92,-249.92 918.08,-254.76 924.14,-250.05 917.93,-250.26 917.93,-250.26 917.93,-250.26 924.14,-250.05 917.77,-245.76 927.92,-249.92"/>
</g>
<!-- RevisioneCompletata&#45;&gt;PeriziaInRevisione -->
<g id="edge28" class="edge">
<title>RevisioneCompletata&#45;&gt;PeriziaInRevisione</title>
<path fill="none" stroke="black" stroke-dasharray="1,5" d="M286.66,-323.48C431.51,-307.91 770.45,-271.49 918.13,-255.62"/>
<polygon fill="black" stroke="black" points="928.06,-254.55 918.6,-260.09 924.3,-254.95 918.12,-255.62 918.12,-255.62 918.12,-255.62 924.3,-254.95 917.64,-251.14 928.06,-254.55"/>
</g>
<!-- CollaborazioneRifiutata -->
<g id="node13" class="node">
<title>CollaborazioneRifiutata</title>
<path fill="none" stroke="black" d="M801.25,-456.25C801.25,-456.25 678.75,-456.25 678.75,-456.25 672.75,-456.25 666.75,-450.25 666.75,-444.25 666.75,-444.25 666.75,-432.25 666.75,-432.25 666.75,-426.25 672.75,-420.25 678.75,-420.25 678.75,-420.25 801.25,-420.25 801.25,-420.25 807.25,-420.25 813.25,-426.25 813.25,-432.25 813.25,-432.25 813.25,-444.25 813.25,-444.25 813.25,-450.25 807.25,-456.25 801.25,-456.25"/>
<text text-anchor="middle" x="740" y="-432.82" font-family="Times New Roman,serif" font-size="14.00">CollaborazioneRifiutata</text>
</g>
<!-- CollaborazionePerizia&#45;&gt;CollaborazioneRifiutata -->
<g id="edge19" class="edge">
<title>CollaborazionePerizia&#45;&gt;CollaborazioneRifiutata</title>
<path fill="none" stroke="black" d="M679.96,-526.6C686.98,-521.39 694.19,-515.29 700,-508.75 711.2,-496.14 720.76,-479.91 727.72,-466.3"/>
<polygon fill="black" stroke="black" points="731.98,-457.6 731.62,-468.56 730.32,-461 727.58,-466.58 727.58,-466.58 727.58,-466.58 730.32,-461 723.54,-464.6 731.98,-457.6"/>
<text text-anchor="middle" x="742.62" y="-498.3" font-family="Times New Roman,serif" font-size="11.00">CollabRifiutata</text>
</g>
<!-- CollaborazioneCancellata -->
<g id="node14" class="node">
<title>CollaborazioneCancellata</title>
<path fill="none" stroke="black" d="M455.5,-456.25C455.5,-456.25 322.5,-456.25 322.5,-456.25 316.5,-456.25 310.5,-450.25 310.5,-444.25 310.5,-444.25 310.5,-432.25 310.5,-432.25 310.5,-426.25 316.5,-420.25 322.5,-420.25 322.5,-420.25 455.5,-420.25 455.5,-420.25 461.5,-420.25 467.5,-426.25 467.5,-432.25 467.5,-432.25 467.5,-444.25 467.5,-444.25 467.5,-450.25 461.5,-456.25 455.5,-456.25"/>
<text text-anchor="middle" x="389" y="-432.82" font-family="Times New Roman,serif" font-size="14.00">CollaborazioneCancellata</text>
</g>
<!-- CollaborazionePerizia&#45;&gt;CollaborazioneCancellata -->
<g id="edge20" class="edge">
<title>CollaborazionePerizia&#45;&gt;CollaborazioneCancellata</title>
<path fill="none" stroke="black" d="M584.34,-526.28C550.94,-516.75 510.63,-503.68 476,-488 459.31,-480.44 441.55,-470.8 426.46,-462.1"/>
<polygon fill="black" stroke="black" points="418.02,-457.15 428.92,-458.32 421.28,-459.06 426.65,-462.21 426.65,-462.21 426.65,-462.21 421.28,-459.06 424.38,-466.09 418.02,-457.15"/>
<text text-anchor="middle" x="566.12" y="-498.3" font-family="Times New Roman,serif" font-size="11.00">CollabCancellata</text>
</g>
<!-- CollaborazioneCompletata -->
<g id="node15" class="node">
<title>CollaborazioneCompletata</title>
<path fill="none" stroke="black" d="M636.88,-456.25C636.88,-456.25 497.12,-456.25 497.12,-456.25 491.12,-456.25 485.12,-450.25 485.12,-444.25 485.12,-444.25 485.12,-432.25 485.12,-432.25 485.12,-426.25 491.12,-420.25 497.12,-420.25 497.12,-420.25 636.88,-420.25 636.88,-420.25 642.88,-420.25 648.88,-426.25 648.88,-432.25 648.88,-432.25 648.88,-444.25 648.88,-444.25 648.88,-450.25 642.88,-456.25 636.88,-456.25"/>
<text text-anchor="middle" x="567" y="-432.82" font-family="Times New Roman,serif" font-size="14.00">CollaborazioneCompletata</text>
</g>
<!-- CollaborazionePerizia&#45;&gt;CollaborazioneCompletata -->
<g id="edge21" class="edge">
<title>CollaborazionePerizia&#45;&gt;CollaborazioneCompletata</title>
<path fill="none" stroke="black" d="M637.35,-526.47C632.38,-520.87 626.9,-514.6 622,-508.75 610.12,-494.56 597.27,-478.37 586.97,-465.19"/>
<polygon fill="black" stroke="black" points="581.05,-457.56 590.74,-462.7 583.37,-460.55 587.18,-465.46 587.18,-465.46 587.18,-465.46 583.37,-460.55 583.63,-468.22 581.05,-457.56"/>
<text text-anchor="middle" x="661" y="-498.3" font-family="Times New Roman,serif" font-size="11.00">CollabCompletata</text>
</g>
<!-- CollaborazioneRifiutata&#45;&gt;EsecuzionePerizia -->
<g id="edge22" class="edge">
<title>CollaborazioneRifiutata&#45;&gt;EsecuzionePerizia</title>
<path fill="none" stroke="black" stroke-dasharray="1,5" d="M772.55,-419.77C790.7,-410.31 813.84,-398.71 835,-389.5 864.6,-376.62 898.16,-363.96 926.29,-353.88"/>
<polygon fill="black" stroke="black" points="935.64,-350.56 927.73,-358.15 932.08,-351.82 926.22,-353.91 926.22,-353.91 926.22,-353.91 932.08,-351.82 924.71,-349.67 935.64,-350.56"/>
</g>
<!-- CollaborazioneCancellata&#45;&gt;EsecuzionePerizia -->
<g id="edge23" class="edge">
<title>CollaborazioneCancellata&#45;&gt;EsecuzionePerizia</title>
<path fill="none" stroke="black" stroke-dasharray="1,5" d="M445.83,-419.81C455.83,-417.06 466.18,-414.41 476,-412.25 632.91,-377.67 820.11,-352.64 918.95,-340.67"/>
<polygon fill="black" stroke="black" points="928.76,-339.49 919.37,-345.15 925.01,-339.94 918.83,-340.68 918.83,-340.68 918.83,-340.68 925.01,-339.94 918.3,-336.22 928.76,-339.49"/>
</g>
<!-- CollaborazioneCompletata&#45;&gt;EsecuzionePerizia -->
<g id="edge24" class="edge">
<title>CollaborazioneCompletata&#45;&gt;EsecuzionePerizia</title>
<path fill="none" stroke="black" stroke-dasharray="1,5" d="M629.59,-419.77C639.09,-417.2 648.8,-414.62 658,-412.25 747.87,-389.09 852.05,-364.34 918.93,-348.72"/>
<polygon fill="black" stroke="black" points="928.55,-346.47 919.84,-353.13 924.87,-347.33 918.82,-348.74 918.82,-348.74 918.82,-348.74 924.87,-347.33 917.79,-344.36 928.55,-346.47"/>
</g>
<!-- VerificaAuthority&#45;&gt;ComunicazioneEsito -->
<g id="edge29" class="edge">
<title>VerificaAuthority&#45;&gt;ComunicazioneEsito</title>
<path fill="none" stroke="black" d="M1390.2,-313.4C1365.16,-300.92 1331.17,-283.98 1304.06,-270.46"/>
<polygon fill="black" stroke="black" points="1295.13,-266.01 1306.09,-266.44 1298.51,-267.7 1304.08,-270.47 1304.08,-270.47 1304.08,-270.47 1298.51,-267.7 1302.07,-274.5 1295.13,-266.01"/>
<text text-anchor="middle" x="1389.25" y="-285.3" font-family="Times New Roman,serif" font-size="11.00">PeriziaApprovata</text>
</g>
<!-- VerificaAuthority&#45;&gt;AuthorityNonApprovata -->
<g id="edge30" class="edge">
<title>VerificaAuthority&#45;&gt;AuthorityNonApprovata</title>
<path fill="none" stroke="black" d="M1401.32,-350.23C1388.35,-359.68 1371.93,-371.43 1357,-381.5 1340.73,-392.47 1322.45,-404.15 1306.78,-413.98"/>
<polygon fill="black" stroke="black" points="1298.44,-419.18 1304.54,-410.07 1301.65,-417.18 1306.92,-413.89 1306.92,-413.89 1306.92,-413.89 1301.65,-417.18 1309.3,-417.71 1298.44,-419.18"/>
<text text-anchor="middle" x="1302.41" y="-375.71" font-family="Times New Roman,serif" font-size="11.00">PeriziaNonApprovata</text>
</g>
<!-- VerificaChiusura&#45;&gt;EsecuzionePerizia -->
<g id="edge34" class="edge">
<title>VerificaChiusura&#45;&gt;EsecuzionePerizia</title>
<path fill="none" stroke="black" d="M1217.99,-34.64C1277.98,-37.57 1371.51,-52.6 1417,-114.5 1436.94,-141.63 1430.78,-159.53 1417,-190.25 1411.75,-201.95 1325.45,-282.43 1292,-295.75 1250.66,-312.22 1133.26,-322.12 1057.04,-327"/>
<polygon fill="black" stroke="black" points="1047.32,-327.61 1057.02,-322.49 1051.1,-327.37 1057.3,-326.98 1057.3,-326.98 1057.3,-326.98 1051.1,-327.37 1057.58,-331.47 1047.32,-327.61"/>
<text text-anchor="middle" x="1466.62" y="-200.55" font-family="Times New Roman,serif" font-size="11.00">PeriziaIncompletaAvviata</text>
</g>
<!-- ConciliazionePerizia&#45;&gt;VerificaChiusura -->
<g id="edge32" class="edge">
<title>ConciliazionePerizia&#45;&gt;VerificaChiusura</title>
<path fill="none" stroke="black" d="M815.04,-131.72C849.02,-126.37 891.05,-117.77 927,-104.5 937.87,-100.49 938.62,-94.98 949.75,-91.75 981.65,-82.5 1067.83,-95.21 1099,-83.75 1113.28,-78.5 1126.99,-68.9 1138.03,-59.59"/>
<polygon fill="black" stroke="black" points="1145.36,-53.09 1140.86,-63.09 1142.53,-55.6 1137.88,-59.73 1137.88,-59.73 1137.88,-59.73 1142.53,-55.6 1134.89,-56.36 1145.36,-53.09"/>
<text text-anchor="middle" x="996.62" y="-94.05" font-family="Times New Roman,serif" font-size="11.00">ChiusuraConAccordo</text>
</g>
<!-- ConciliazionePerizia&#45;&gt;VerificaChiusura -->
<g id="edge33" class="edge">
<title>ConciliazionePerizia&#45;&gt;VerificaChiusura</title>
<path fill="none" stroke="black" d="M815.1,-128.83C846.11,-123.94 883.92,-118.39 918,-114.5 974.25,-108.08 991.41,-122.78 1045,-104.5 1054.8,-101.16 1054.98,-95.82 1064.5,-91.75 1078.98,-85.57 1084.76,-90.45 1099,-83.75 1112.13,-77.58 1125.15,-68.38 1135.98,-59.64"/>
<polygon fill="black" stroke="black" points="1143.58,-53.26 1138.82,-63.13 1140.69,-55.69 1135.92,-59.69 1135.92,-59.69 1135.92,-59.69 1140.69,-55.69 1133.03,-56.24 1143.58,-53.26"/>
<text text-anchor="middle" x="1115.75" y="-94.05" font-family="Times New Roman,serif" font-size="11.00">ChiusuraSenzaAccordo</text>
</g>
<!-- EsecuzionePeriziaConciliazione -->
<g id="node20" class="node">
<title>EsecuzionePeriziaConciliazione</title>
<path fill="none" stroke="black" d="M803.38,-52C803.38,-52 636.62,-52 636.62,-52 630.62,-52 624.62,-46 624.62,-40 624.62,-40 624.62,-28 624.62,-28 624.62,-22 630.62,-16 636.62,-16 636.62,-16 803.38,-16 803.38,-16 809.38,-16 815.38,-22 815.38,-28 815.38,-28 815.38,-40 815.38,-40 815.38,-46 809.38,-52 803.38,-52"/>
<text text-anchor="middle" x="720" y="-28.57" font-family="Times New Roman,serif" font-size="14.00">EsecuzionePeriziaConciliazione</text>
</g>
<!-- ConciliazionePerizia&#45;&gt;EsecuzionePeriziaConciliazione -->
<g id="edge31" class="edge">
<title>ConciliazionePerizia&#45;&gt;EsecuzionePeriziaConciliazione</title>
<path fill="none" stroke="black" d="M731.42,-122.33C726.79,-117.12 722.48,-111.03 720,-104.5 715.12,-91.63 714.59,-76.43 715.5,-63.53"/>
<polygon fill="black" stroke="black" points="716.53,-53.68 719.97,-64.09 716.14,-57.44 715.49,-63.62 715.49,-63.62 715.49,-63.62 716.14,-57.44 711.02,-63.15 716.53,-53.68"/>
<text text-anchor="middle" x="780" y="-94.05" font-family="Times New Roman,serif" font-size="11.00">PeriziaConcilazioneAvviata</text>
</g>
<!-- start -->
<g id="node21" class="node">
<title>start</title>
<polygon fill="lightgrey" stroke="black" points="1053.38,-562.75 970.62,-562.75 970.62,-526.75 1053.38,-526.75 1053.38,-562.75"/>
<text text-anchor="middle" x="1012" y="-539.33" font-family="Times New Roman,serif" font-size="14.00">Assessment</text>
</g>
<!-- start&#45;&gt;AvvioPerizia -->
<g id="edge1" class="edge">
<title>start&#45;&gt;AvvioPerizia</title>
<path fill="none" stroke="black" d="M1005.56,-526.49C999.52,-510.31 990.38,-485.83 983.33,-466.92"/>
<polygon fill="black" stroke="black" points="979.88,-457.67 987.59,-465.47 981.2,-461.22 983.37,-467.04 983.37,-467.04 983.37,-467.04 981.2,-461.22 979.16,-468.62 979.88,-457.67"/>
</g>
<!-- start&#45;&gt;AvvioPeriziaPostDesk -->
<g id="edge2" class="edge">
<title>start&#45;&gt;AvvioPeriziaPostDesk</title>
<path fill="none" stroke="black" d="M1027.36,-526.49C1042.3,-509.7 1065.18,-483.99 1082.24,-464.82"/>
<polygon fill="black" stroke="black" points="1088.81,-457.44 1085.52,-467.9 1086.3,-460.27 1082.16,-464.91 1082.16,-464.91 1082.16,-464.91 1086.3,-460.27 1078.8,-461.92 1088.81,-457.44"/>
</g>
</g>
</svg>
