<?xml version="1.0" encoding="UTF-8" standalone="no"?>
<!DOCTYPE svg PUBLIC "-//W3C//DTD SVG 1.1//EN"
 "http://www.w3.org/Graphics/SVG/1.1/DTD/svg11.dtd">
<!-- Generated by graphviz version 2.50.0 (0)
 -->
<!-- sottoprocesso Chiusura Riparazione -->
<!-- Title: finite_state_machine Pages: 1 -->
<svg width="334pt" height="360pt"
 viewBox="0.00 0.00 334.19 360.00" xmlns="http://www.w3.org/2000/svg" xmlns:xlink="http://www.w3.org/1999/xlink">
<g id="graph0" class="graph" transform="scale(0.44 0.44) rotate(0) translate(4 805)">
<title>finite_state_machine</title>
<polygon fill="white" stroke="transparent" points="-4,4 -4,-805 747,-805 747,4 -4,4"/>
<g id="clust1" class="cluster">
<title>cluster_riparazione</title>
<polygon fill="none" stroke="black" points="8,-77 8,-724 681,-724 681,-77 8,-77"/>
<text text-anchor="middle" x="344.5" y="-708.8" font-family="Times New Roman,serif" font-size="14.00">RIPARAZIONE</text>
</g>
<g id="clust3" class="cluster">
<title>cluster_perito</title>
<polygon fill="none" stroke="black" points="16,-85 16,-421 336,-421 336,-85 16,-85"/>
<text text-anchor="middle" x="176" y="-405.8" font-family="Times New Roman,serif" font-size="14.00">PERITO&#45;RIPARAZIONE</text>
</g>
<g id="clust2" class="cluster">
<title>cluster_gestore</title>
<polygon fill="none" stroke="black" points="234,-454 234,-616 416,-616 416,-454 234,-454"/>
<text text-anchor="middle" x="325" y="-600.8" font-family="Times New Roman,serif" font-size="14.00">GESTORE&#45;RIPARAZIONE</text>
</g>
<g id="clust4" class="cluster">
<title>cluster_cat</title>
<polygon fill="none" stroke="black" points="344,-85 344,-421 673,-421 673,-85 344,-85"/>
<text text-anchor="middle" x="508.5" y="-405.8" font-family="Times New Roman,serif" font-size="14.00">RIPARATORE</text>
</g>
<!-- ConfigurazioneRiparazione -->
<g id="node1" class="node">
<title>ConfigurazioneRiparazione</title>
<path fill="none" stroke="black" d="M396,-585C396,-585 254,-585 254,-585 248,-585 242,-579 242,-573 242,-573 242,-561 242,-561 242,-555 248,-549 254,-549 254,-549 396,-549 396,-549 402,-549 408,-555 408,-561 408,-561 408,-573 408,-573 408,-579 402,-585 396,-585"/>
<text text-anchor="middle" x="325" y="-563.3" font-family="Times New Roman,serif" font-size="14.00">ConfigurazioneRiparazione</text>
</g>
<!-- DefinizioneTimeline -->
<g id="node2" class="node">
<title>DefinizioneTimeline</title>
<path fill="none" stroke="black" d="M360,-498C360,-498 254,-498 254,-498 248,-498 242,-492 242,-486 242,-486 242,-474 242,-474 242,-468 248,-462 254,-462 254,-462 360,-462 360,-462 366,-462 372,-468 372,-474 372,-474 372,-486 372,-486 372,-492 366,-498 360,-498"/>
<text text-anchor="middle" x="307" y="-476.3" font-family="Times New Roman,serif" font-size="14.00">DefinizioneTimeline</text>
</g>
<!-- ConfigurazioneRiparazione&#45;&gt;DefinizioneTimeline -->
<g id="edge3" class="edge">
<title>ConfigurazioneRiparazione&#45;&gt;DefinizioneTimeline</title>
<path fill="none" stroke="black" d="M321.36,-548.8C318.89,-537.16 315.59,-521.55 312.77,-508.24"/>
<polygon fill="black" stroke="black" points="316.13,-507.23 310.64,-498.18 309.28,-508.68 316.13,-507.23"/>
<text text-anchor="middle" x="382" y="-519.8" font-family="Times New Roman,serif" font-size="14.00">RiparazioneConfigurata</text>
</g>
<!-- MonitoraggioAttivita -->
<g id="node3" class="node">
<title>MonitoraggioAttivita</title>
<path fill="none" stroke="black" d="M266.5,-390C266.5,-390 157.5,-390 157.5,-390 151.5,-390 145.5,-384 145.5,-378 145.5,-378 145.5,-366 145.5,-366 145.5,-360 151.5,-354 157.5,-354 157.5,-354 266.5,-354 266.5,-354 272.5,-354 278.5,-360 278.5,-366 278.5,-366 278.5,-378 278.5,-378 278.5,-384 272.5,-390 266.5,-390"/>
<text text-anchor="middle" x="212" y="-368.3" font-family="Times New Roman,serif" font-size="14.00">MonitoraggioAttivita</text>
</g>
<!-- DefinizioneTimeline&#45;&gt;MonitoraggioAttivita -->
<g id="edge4" class="edge">
<title>DefinizioneTimeline&#45;&gt;MonitoraggioAttivita</title>
<path fill="none" stroke="black" d="M288.68,-461.92C282.9,-456.33 276.56,-450.02 271,-444 257.39,-429.29 243,-412.01 231.84,-398.18"/>
<polygon fill="black" stroke="black" points="234.32,-395.68 225.34,-390.07 228.86,-400.06 234.32,-395.68"/>
<text text-anchor="middle" x="337" y="-432.8" font-family="Times New Roman,serif" font-size="14.00">MonitoraggioAssegnato</text>
</g>
<!-- PianificazioneAppuntamentoR -->
<g id="node7" class="node">
<title>PianificazioneAppuntamentoR</title>
<path fill="none" stroke="black" d="M524,-390C524,-390 364,-390 364,-390 358,-390 352,-384 352,-378 352,-378 352,-366 352,-366 352,-360 358,-354 364,-354 364,-354 524,-354 524,-354 530,-354 536,-360 536,-366 536,-366 536,-378 536,-378 536,-384 530,-390 524,-390"/>
<text text-anchor="middle" x="444" y="-368.3" font-family="Times New Roman,serif" font-size="14.00">PianificazioneAppuntamentoR</text>
</g>
<!-- DefinizioneTimeline&#45;&gt;PianificazioneAppuntamentoR -->
<g id="edge5" class="edge">
<title>DefinizioneTimeline&#45;&gt;PianificazioneAppuntamentoR</title>
<path fill="none" stroke="black" d="M372.33,-462.22C383.31,-457.5 394.03,-451.53 403,-444 417.04,-432.21 427.33,-414.32 434.09,-399.44"/>
<polygon fill="black" stroke="black" points="437.33,-400.77 438.03,-390.2 430.89,-398.03 437.33,-400.77"/>
<text text-anchor="middle" x="464.5" y="-432.8" font-family="Times New Roman,serif" font-size="14.00">AttivitaAssegnata</text>
</g>
<!-- EsecVisioApprovazBudget -->
<g id="node4" class="node">
<title>EsecVisioApprovazBudget</title>
<path fill="none" stroke="black" d="M309.5,-303C309.5,-303 170.5,-303 170.5,-303 164.5,-303 158.5,-297 158.5,-291 158.5,-291 158.5,-279 158.5,-279 158.5,-273 164.5,-267 170.5,-267 170.5,-267 309.5,-267 309.5,-267 315.5,-267 321.5,-273 321.5,-279 321.5,-279 321.5,-291 321.5,-291 321.5,-297 315.5,-303 309.5,-303"/>
<text text-anchor="middle" x="240" y="-281.3" font-family="Times New Roman,serif" font-size="14.00">EsecVisioApprovazBudget</text>
</g>
<!-- MonitoraggioAttivita&#45;&gt;EsecVisioApprovazBudget -->
<g id="edge6" class="edge">
<title>MonitoraggioAttivita&#45;&gt;EsecVisioApprovazBudget</title>
</g>
<!-- VerificaDocumentiBudget -->
<g id="node5" class="node">
<title>VerificaDocumentiBudget</title>
<path fill="none" stroke="black" d="M246.5,-216C246.5,-216 111.5,-216 111.5,-216 105.5,-216 99.5,-210 99.5,-204 99.5,-204 99.5,-192 99.5,-192 99.5,-186 105.5,-180 111.5,-180 111.5,-180 246.5,-180 246.5,-180 252.5,-180 258.5,-186 258.5,-192 258.5,-192 258.5,-204 258.5,-204 258.5,-210 252.5,-216 246.5,-216"/>
<text text-anchor="middle" x="179" y="-194.3" font-family="Times New Roman,serif" font-size="14.00">VerificaDocumentiBudget</text>
</g>
<!-- EsecVisioApprovazBudget&#45;&gt;VerificaDocumentiBudget -->
<g id="edge7" class="edge">
<title>EsecVisioApprovazBudget&#45;&gt;VerificaDocumentiBudget</title>
</g>
<!-- ChiusuraIntervento -->
<g id="node9" class="node">
<title>ChiusuraIntervento</title>
<path fill="none" stroke="black" d="M466.5,-216C466.5,-216 369.5,-216 369.5,-216 363.5,-216 357.5,-210 357.5,-204 357.5,-204 357.5,-192 357.5,-192 357.5,-186 363.5,-180 369.5,-180 369.5,-180 466.5,-180 466.5,-180 472.5,-180 478.5,-186 478.5,-192 478.5,-192 478.5,-204 478.5,-204 478.5,-210 472.5,-216 466.5,-216"/>
<text text-anchor="middle" x="418" y="-194.3" font-family="Times New Roman,serif" font-size="14.00">ChiusuraIntervento</text>
</g>
<!-- EsecVisioApprovazBudget&#45;&gt;ChiusuraIntervento -->
<g id="edge8" class="edge">
<title>EsecVisioApprovazBudget&#45;&gt;ChiusuraIntervento</title>
<path fill="none" stroke="black" stroke-dasharray="1,5" d="M276.02,-266.8C303.98,-253.45 342.9,-234.86 372.93,-220.52"/>
<polygon fill="black" stroke="black" points="374.82,-223.5 382.34,-216.03 371.8,-217.18 374.82,-223.5"/>
<text text-anchor="middle" x="358" y="-237.8" font-family="Times New Roman,serif" font-size="14.00">Abilita</text>
</g>
<!-- VerificaDocumentiBudget&#45;&gt;MonitoraggioAttivita -->
<g id="edge9" class="edge">
<title>VerificaDocumentiBudget&#45;&gt;MonitoraggioAttivita</title>
<path fill="none" stroke="black" stroke-dasharray="1,5" d="M154.06,-216.04C127.91,-236.15 92.82,-270.91 110,-303 120.75,-323.09 140.34,-338.26 159.51,-349.13"/>
<polygon fill="black" stroke="black" points="158.07,-352.33 168.54,-353.97 161.38,-346.16 158.07,-352.33"/>
<text text-anchor="middle" x="130" y="-281.3" font-family="Times New Roman,serif" font-size="14.00">Chiude</text>
</g>
<!-- VerificaRiparazioneCompletata -->
<g id="node6" class="node">
<title>VerificaRiparazioneCompletata</title>
<path fill="none" stroke="black" d="M200,-129C200,-129 36,-129 36,-129 30,-129 24,-123 24,-117 24,-117 24,-105 24,-105 24,-99 30,-93 36,-93 36,-93 200,-93 200,-93 206,-93 212,-99 212,-105 212,-105 212,-117 212,-117 212,-123 206,-129 200,-129"/>
<text text-anchor="middle" x="118" y="-107.3" font-family="Times New Roman,serif" font-size="14.00">VerificaRiparazioneCompletata</text>
</g>
<!-- VerificaDocumentiBudget&#45;&gt;VerificaRiparazioneCompletata -->
<g id="edge10" class="edge">
<title>VerificaDocumentiBudget&#45;&gt;VerificaRiparazioneCompletata</title>
<path fill="none" stroke="black" d="M166.66,-179.8C157.97,-167.7 146.21,-151.3 136.42,-137.67"/>
<polygon fill="black" stroke="black" points="139,-135.26 130.33,-129.18 133.31,-139.34 139,-135.26"/>
<text text-anchor="middle" x="210" y="-150.8" font-family="Times New Roman,serif" font-size="14.00">TuttiLavoriTerminati</text>
</g>
<!-- VerificaRiparazioneCompletata&#45;&gt;VerificaRiparazioneCompletata -->
<g id="edge11" class="edge">
<title>VerificaRiparazioneCompletata&#45;&gt;VerificaRiparazioneCompletata</title>
<path fill="none" stroke="black" d="M212.37,-117.67C223.07,-116.42 230,-114.2 230,-111 230,-108.95 227.16,-107.3 222.3,-106.05"/>
<polygon fill="black" stroke="black" points="222.82,-102.59 212.37,-104.33 221.63,-109.49 222.82,-102.59"/>
<text text-anchor="middle" x="279" y="-107.3" font-family="Times New Roman,serif" font-size="14.00">DatiNonCompleti</text>
</g>
<!-- PERIZIA -->
<g id="node13" class="node">
<title>PERIZIA</title>
<polygon fill="lightgrey" stroke="black" points="77,-36 9,-36 9,0 77,0 77,-36"/>
<text text-anchor="middle" x="43" y="-14.3" font-family="Times New Roman,serif" font-size="14.00">PERIZIA</text>
</g>
<!-- VerificaRiparazioneCompletata&#45;&gt;PERIZIA -->
<g id="edge12" class="edge">
<title>VerificaRiparazioneCompletata&#45;&gt;PERIZIA</title>
<path fill="none" stroke="black" d="M69.76,-92.78C59.57,-86.84 50.07,-79.06 44,-69 39.99,-62.35 38.66,-54.25 38.63,-46.53"/>
<polygon fill="black" stroke="black" points="42.13,-46.59 39.25,-36.39 35.14,-46.15 42.13,-46.59"/>
<text text-anchor="middle" x="107.5" y="-57.8" font-family="Times New Roman,serif" font-size="14.00">PeriziaPostRiparazione</text>
</g>
<!-- CHIUSURA -->
<g id="node14" class="node">
<title>CHIUSURA</title>
<polygon fill="lightgrey" stroke="black" points="236,-36 150,-36 150,0 236,0 236,-36"/>
<text text-anchor="middle" x="193" y="-14.3" font-family="Times New Roman,serif" font-size="14.00">CHIUSURA</text>
</g>
<!-- VerificaRiparazioneCompletata&#45;&gt;CHIUSURA -->
<g id="edge13" class="edge">
<title>VerificaRiparazioneCompletata&#45;&gt;CHIUSURA</title>
<path fill="none" stroke="black" d="M145.35,-92.89C154.37,-86.26 163.91,-78.07 171,-69 176.4,-62.09 180.77,-53.66 184.14,-45.7"/>
<polygon fill="black" stroke="black" points="187.41,-46.94 187.78,-36.35 180.89,-44.41 187.41,-46.94"/>
<text text-anchor="middle" x="248" y="-57.8" font-family="Times New Roman,serif" font-size="14.00">ChiusuraPostRiparazione</text>
</g>
<!-- PianificazioneAppuntamentoR&#45;&gt;EsecVisioApprovazBudget -->
<g id="edge14" class="edge">
<title>PianificazioneAppuntamentoR&#45;&gt;EsecVisioApprovazBudget</title>
<path fill="none" stroke="black" d="M351.86,-355.1C304.41,-346.73 256,-337.83 254,-336 247.56,-330.12 243.99,-321.55 242.04,-313.16"/>
<polygon fill="black" stroke="black" points="245.48,-312.5 240.38,-303.21 238.57,-313.65 245.48,-312.5"/>
<text text-anchor="middle" x="324" y="-324.8" font-family="Times New Roman,serif" font-size="14.00">AppuntamentoPianificato</text>
</g>
<!-- EsecuzioneSopralluogoR -->
<g id="node8" class="node">
<title>EsecuzioneSopralluogoR</title>
<path fill="none" stroke="black" d="M493.5,-303C493.5,-303 364.5,-303 364.5,-303 358.5,-303 352.5,-297 352.5,-291 352.5,-291 352.5,-279 352.5,-279 352.5,-273 358.5,-267 364.5,-267 364.5,-267 493.5,-267 493.5,-267 499.5,-267 505.5,-273 505.5,-279 505.5,-279 505.5,-291 505.5,-291 505.5,-297 499.5,-303 493.5,-303"/>
<text text-anchor="middle" x="429" y="-281.3" font-family="Times New Roman,serif" font-size="14.00">EsecuzioneSopralluogoR</text>
</g>
<!-- PianificazioneAppuntamentoR&#45;&gt;EsecuzioneSopralluogoR -->
<g id="edge15" class="edge">
<title>PianificazioneAppuntamentoR&#45;&gt;EsecuzioneSopralluogoR</title>
<path fill="none" stroke="black" d="M414.56,-353.71C408.68,-348.79 403.31,-342.86 400,-336 396.03,-327.77 398.55,-319.07 403.45,-311.27"/>
<polygon fill="black" stroke="black" points="406.29,-313.33 409.51,-303.23 400.7,-309.11 406.29,-313.33"/>
<text text-anchor="middle" x="470" y="-324.8" font-family="Times New Roman,serif" font-size="14.00">AppuntamentoPianificato</text>
</g>
<!-- EsecuzioneSopralluogoR&#45;&gt;ChiusuraIntervento -->
<g id="edge16" class="edge">
<title>EsecuzioneSopralluogoR&#45;&gt;ChiusuraIntervento</title>
<path fill="none" stroke="black" d="M423.12,-266.75C421.47,-261.15 419.88,-254.87 419,-249 417.91,-241.73 417.43,-233.8 417.28,-226.44"/>
<polygon fill="black" stroke="black" points="420.78,-226.21 417.25,-216.22 413.78,-226.22 420.78,-226.21"/>
<text text-anchor="middle" x="476" y="-237.8" font-family="Times New Roman,serif" font-size="14.00">SopralluogoEseguito</text>
</g>
<!-- ChiusuraIntervento&#45;&gt;PianificazioneAppuntamentoR -->
<g id="edge17" class="edge">
<title>ChiusuraIntervento&#45;&gt;PianificazioneAppuntamentoR</title>
<path fill="none" stroke="black" d="M478.59,-203.83C498.89,-208.58 519.72,-217.5 533,-234 552.22,-257.87 543.73,-330.67 540,-336 536.76,-340.63 532.83,-344.65 528.45,-348.15"/>
<polygon fill="black" stroke="black" points="526.37,-345.33 520.11,-353.87 530.33,-351.1 526.37,-345.33"/>
<text text-anchor="middle" x="596.5" y="-281.3" font-family="Times New Roman,serif" font-size="14.00">NuovoSopralluogo</text>
</g>
<!-- FineLavori -->
<g id="node10" class="node">
<title>FineLavori</title>
<path fill="none" stroke="black" d="M444.5,-129C444.5,-129 391.5,-129 391.5,-129 385.5,-129 379.5,-123 379.5,-117 379.5,-117 379.5,-105 379.5,-105 379.5,-99 385.5,-93 391.5,-93 391.5,-93 444.5,-93 444.5,-93 450.5,-93 456.5,-99 456.5,-105 456.5,-105 456.5,-117 456.5,-117 456.5,-123 450.5,-129 444.5,-129"/>
<text text-anchor="middle" x="418" y="-107.3" font-family="Times New Roman,serif" font-size="14.00">FineLavori</text>
</g>
<!-- ChiusuraIntervento&#45;&gt;FineLavori -->
<g id="edge18" class="edge">
<title>ChiusuraIntervento&#45;&gt;FineLavori</title>
<path fill="none" stroke="black" d="M418,-179.8C418,-168.16 418,-152.55 418,-139.24"/>
<polygon fill="black" stroke="black" points="421.5,-139.18 418,-129.18 414.5,-139.18 421.5,-139.18"/>
<text text-anchor="middle" x="457.5" y="-150.8" font-family="Times New Roman,serif" font-size="14.00">AttivitaChiusa</text>
</g>
<!-- FineLavori&#45;&gt;VerificaDocumentiBudget -->
<g id="edge19" class="edge">
<title>FineLavori&#45;&gt;VerificaDocumentiBudget</title>
<path fill="none" stroke="black" d="M379.45,-125.71C340.8,-139.45 280.84,-160.78 236.56,-176.53"/>
<polygon fill="black" stroke="black" points="235.33,-173.25 227.08,-179.9 237.67,-179.85 235.33,-173.25"/>
<text text-anchor="middle" x="357" y="-150.8" font-family="Times New Roman,serif" font-size="14.00">LavoriTerminati</text>
</g>
<!-- FineLavori&#45;&gt;PianificazioneAppuntamentoR -->
<g id="edge20" class="edge">
<title>FineLavori&#45;&gt;PianificazioneAppuntamentoR</title>
<path fill="none" stroke="black" d="M456.61,-123.66C512.56,-142.97 613.66,-187.57 652,-267 676.91,-318.62 610.23,-344.97 545.88,-358.2"/>
<polygon fill="black" stroke="black" points="545.14,-354.78 536,-360.14 546.49,-361.65 545.14,-354.78"/>
<text text-anchor="middle" x="691.5" y="-237.8" font-family="Times New Roman,serif" font-size="14.00">NuovoSopralluogo</text>
</g>
<!-- AvvioRiparazione -->
<g id="node11" class="node">
<title>AvvioRiparazione</title>
<path fill="none" stroke="black" d="M370.5,-693C370.5,-693 279.5,-693 279.5,-693 273.5,-693 267.5,-687 267.5,-681 267.5,-681 267.5,-669 267.5,-669 267.5,-663 273.5,-657 279.5,-657 279.5,-657 370.5,-657 370.5,-657 376.5,-657 382.5,-663 382.5,-669 382.5,-669 382.5,-681 382.5,-681 382.5,-687 376.5,-693 370.5,-693"/>
<text text-anchor="middle" x="325" y="-671.3" font-family="Times New Roman,serif" font-size="14.00">AvvioRiparazione</text>
</g>
<!-- AvvioRiparazione&#45;&gt;ConfigurazioneRiparazione -->
<g id="edge2" class="edge">
<title>AvvioRiparazione&#45;&gt;ConfigurazioneRiparazione</title>
<path fill="none" stroke="black" d="M325,-656.97C325,-640.38 325,-614.88 325,-595.43"/>
<polygon fill="black" stroke="black" points="328.5,-595.34 325,-585.34 321.5,-595.34 328.5,-595.34"/>
<text text-anchor="middle" x="379" y="-627.8" font-family="Times New Roman,serif" font-size="14.00">RiparazioneAvviata</text>
</g>
<!-- VenditaRiparazione -->
<g id="node12" class="node">
<title>VenditaRiparazione</title>
<polygon fill="lightgrey" stroke="black" points="386.5,-801 263.5,-801 263.5,-765 386.5,-765 386.5,-801"/>
<text text-anchor="middle" x="325" y="-779.3" font-family="Times New Roman,serif" font-size="14.00">VenditaRiparazione</text>
</g>
<!-- VenditaRiparazione&#45;&gt;AvvioRiparazione -->
<g id="edge1" class="edge">
<title>VenditaRiparazione&#45;&gt;AvvioRiparazione</title>
<path fill="none" stroke="black" d="M325,-764.97C325,-748.38 325,-722.88 325,-703.43"/>
<polygon fill="black" stroke="black" points="328.5,-703.34 325,-693.34 321.5,-703.34 328.5,-703.34"/>
<text text-anchor="middle" x="380" y="-735.8" font-family="Times New Roman,serif" font-size="14.00">RiparazioneVenduta</text>
</g>
</g>
</svg>
