<?xml version="1.0" encoding="UTF-8" standalone="no"?>
<!DOCTYPE svg PUBLIC "-//W3C//DTD SVG 1.1//EN"
 "http://www.w3.org/Graphics/SVG/1.1/DTD/svg11.dtd">
<!-- Generated by graphviz version 9.0.0 (20230911.1827)
 -->
<!-- sottoprocesso Chiusura -->
<!-- Title: finite_state_machine Pages: 1 -->
<svg width="576pt" height="336pt"
 viewBox="0.00 0.00 576.00 336.00" xmlns="http://www.w3.org/2000/svg" xmlns:xlink="http://www.w3.org/1999/xlink">
<g id="graph0" class="graph" transform="scale(0.37721 0.37721) rotate(0) translate(4 886.75)">
<title>finite_state_machine</title>
<polygon fill="white" stroke="none" points="-4,4 -4,-886.75 1523,-886.75 1523,4 -4,4"/>
<text text-anchor="middle" x="759.5" y="-6.45" font-family="Times New Roman,serif" font-size="14.00">Repair</text>
<g id="clust2" class="cluster">
<title>cluster_riparazione</title>
<polygon fill="none" stroke="black" points="8,-31.75 8,-805 1249,-805 1249,-31.75 8,-31.75"/>
<text text-anchor="middle" x="628.5" y="-787.7" font-family="Times New Roman,serif" font-size="14.00">RIPARAZIONE</text>
</g>
<g id="clust5" class="cluster">
<title>cluster_perito</title>
<polygon fill="none" stroke="black" points="434,-303 434,-378.75 886,-378.75 886,-303 434,-303"/>
<text text-anchor="middle" x="660" y="-361.45" font-family="Times New Roman,serif" font-size="14.00">PERITO</text>
</g>
<g id="clust3" class="cluster">
<title>cluster_cat</title>
<polygon fill="none" stroke="black" points="16,-39.75 16,-576 426,-576 426,-39.75 16,-39.75"/>
<text text-anchor="middle" x="221" y="-558.7" font-family="Times New Roman,serif" font-size="14.00">RIPARATORE</text>
</g>
<g id="clust4" class="cluster">
<title>cluster_gestore</title>
<polygon fill="none" stroke="black" points="894,-303 894,-773.25 1241,-773.25 1241,-303 894,-303"/>
<text text-anchor="middle" x="1067.5" y="-755.95" font-family="Times New Roman,serif" font-size="14.00">GESTORE</text>
</g>
<!-- VenditaRiparazione -->
<g id="node1" class="node">
<title>VenditaRiparazione</title>
<polygon fill="lightgrey" stroke="black" points="1107.38,-882.75 982.62,-882.75 982.62,-846.75 1107.38,-846.75 1107.38,-882.75"/>
<text text-anchor="middle" x="1045" y="-859.33" font-family="Times New Roman,serif" font-size="14.00">VenditaRiparazione</text>
</g>
<!-- AvvioRiparazione -->
<g id="node9" class="node">
<title>AvvioRiparazione</title>
<path fill="none" stroke="black" d="M1090.88,-741.5C1090.88,-741.5 999.12,-741.5 999.12,-741.5 993.12,-741.5 987.12,-735.5 987.12,-729.5 987.12,-729.5 987.12,-717.5 987.12,-717.5 987.12,-711.5 993.12,-705.5 999.12,-705.5 999.12,-705.5 1090.88,-705.5 1090.88,-705.5 1096.88,-705.5 1102.88,-711.5 1102.88,-717.5 1102.88,-717.5 1102.88,-729.5 1102.88,-729.5 1102.88,-735.5 1096.88,-741.5 1090.88,-741.5"/>
<text text-anchor="middle" x="1045" y="-718.08" font-family="Times New Roman,serif" font-size="14.00">AvvioRiparazione</text>
</g>
<!-- VenditaRiparazione&#45;&gt;AvvioRiparazione -->
<g id="edge1" class="edge">
<title>VenditaRiparazione&#45;&gt;AvvioRiparazione</title>
<path fill="none" stroke="black" d="M1045,-846.4C1045,-823.02 1045,-781.14 1045,-753.08"/>
<polygon fill="black" stroke="black" points="1048.5,-753.15 1045,-743.15 1041.5,-753.15 1048.5,-753.15"/>
<text text-anchor="middle" x="1101.25" y="-815.45" font-family="Times New Roman,serif" font-size="14.00">RiparazioneVenduta</text>
</g>
<!-- PianificazioneAppuntamentoR -->
<g id="node2" class="node">
<title>PianificazioneAppuntamentoR</title>
<path fill="none" stroke="black" d="M357.38,-544.25C357.38,-544.25 196.62,-544.25 196.62,-544.25 190.62,-544.25 184.62,-538.25 184.62,-532.25 184.62,-532.25 184.62,-520.25 184.62,-520.25 184.62,-514.25 190.62,-508.25 196.62,-508.25 196.62,-508.25 357.38,-508.25 357.38,-508.25 363.38,-508.25 369.38,-514.25 369.38,-520.25 369.38,-520.25 369.38,-532.25 369.38,-532.25 369.38,-538.25 363.38,-544.25 357.38,-544.25"/>
<text text-anchor="middle" x="277" y="-520.83" font-family="Times New Roman,serif" font-size="14.00">PianificazioneAppuntamentoR</text>
</g>
<!-- EsecuzioneSopralluogoR -->
<g id="node3" class="node">
<title>EsecuzioneSopralluogoR</title>
<path fill="none" stroke="black" d="M358.5,-456.5C358.5,-456.5 225.5,-456.5 225.5,-456.5 219.5,-456.5 213.5,-450.5 213.5,-444.5 213.5,-444.5 213.5,-432.5 213.5,-432.5 213.5,-426.5 219.5,-420.5 225.5,-420.5 225.5,-420.5 358.5,-420.5 358.5,-420.5 364.5,-420.5 370.5,-426.5 370.5,-432.5 370.5,-432.5 370.5,-444.5 370.5,-444.5 370.5,-450.5 364.5,-456.5 358.5,-456.5"/>
<text text-anchor="middle" x="292" y="-433.07" font-family="Times New Roman,serif" font-size="14.00">EsecuzioneSopralluogoR</text>
</g>
<!-- PianificazioneAppuntamentoR&#45;&gt;EsecuzioneSopralluogoR -->
<g id="edge16" class="edge">
<title>PianificazioneAppuntamentoR&#45;&gt;EsecuzioneSopralluogoR</title>
<path fill="none" stroke="black" d="M280.04,-507.9C282.05,-496.39 284.74,-481.03 287.05,-467.78"/>
<polygon fill="black" stroke="black" points="290.43,-468.77 288.71,-458.32 283.54,-467.57 290.43,-468.77"/>
<text text-anchor="middle" x="356.5" y="-476.95" font-family="Times New Roman,serif" font-size="14.00">AppuntamentoPianificato</text>
</g>
<!-- BudgetInApprovazione -->
<g id="node4" class="node">
<title>BudgetInApprovazione</title>
<path fill="none" stroke="black" d="M378.88,-347C378.88,-347 257.12,-347 257.12,-347 251.12,-347 245.12,-341 245.12,-335 245.12,-335 245.12,-323 245.12,-323 245.12,-317 251.12,-311 257.12,-311 257.12,-311 378.88,-311 378.88,-311 384.88,-311 390.88,-317 390.88,-323 390.88,-323 390.88,-335 390.88,-335 390.88,-341 384.88,-347 378.88,-347"/>
<text text-anchor="middle" x="318" y="-323.57" font-family="Times New Roman,serif" font-size="14.00">BudgetInApprovazione</text>
</g>
<!-- EsecuzioneSopralluogoR&#45;&gt;BudgetInApprovazione -->
<g id="edge18" class="edge">
<title>EsecuzioneSopralluogoR&#45;&gt;BudgetInApprovazione</title>
<path fill="none" stroke="black" d="M296.18,-420.23C300.21,-403.54 306.4,-377.96 311.16,-358.29"/>
<polygon fill="black" stroke="black" points="314.53,-359.24 313.48,-348.7 307.72,-357.6 314.53,-359.24"/>
<text text-anchor="middle" x="368" y="-389.2" font-family="Times New Roman,serif" font-size="14.00">SoprallugoCompletato</text>
</g>
<!-- AttivitaCancellata -->
<g id="node8" class="node">
<title>AttivitaCancellata</title>
<path fill="none" stroke="black" d="M215.38,-347C215.38,-347 126.62,-347 126.62,-347 120.62,-347 114.62,-341 114.62,-335 114.62,-335 114.62,-323 114.62,-323 114.62,-317 120.62,-311 126.62,-311 126.62,-311 215.38,-311 215.38,-311 221.38,-311 227.38,-317 227.38,-323 227.38,-323 227.38,-335 227.38,-335 227.38,-341 221.38,-347 215.38,-347"/>
<text text-anchor="middle" x="171" y="-323.57" font-family="Times New Roman,serif" font-size="14.00">AttivitaCancellata</text>
</g>
<!-- EsecuzioneSopralluogoR&#45;&gt;AttivitaCancellata -->
<g id="edge19" class="edge">
<title>EsecuzioneSopralluogoR&#45;&gt;AttivitaCancellata</title>
<path fill="none" stroke="black" d="M227.1,-420.02C217.65,-415.43 208.63,-409.68 201.25,-402.5 189.02,-390.6 181.52,-373.02 177.05,-358.14"/>
<polygon fill="black" stroke="black" points="180.54,-357.66 174.58,-348.9 173.78,-359.47 180.54,-357.66"/>
<text text-anchor="middle" x="250.38" y="-389.2" font-family="Times New Roman,serif" font-size="14.00">AttivitaCancellata</text>
</g>
<!-- ApprovazioneBudget -->
<g id="node15" class="node">
<title>ApprovazioneBudget</title>
<path fill="none" stroke="black" d="M717.25,-347C717.25,-347 606.75,-347 606.75,-347 600.75,-347 594.75,-341 594.75,-335 594.75,-335 594.75,-323 594.75,-323 594.75,-317 600.75,-311 606.75,-311 606.75,-311 717.25,-311 717.25,-311 723.25,-311 729.25,-317 729.25,-323 729.25,-323 729.25,-335 729.25,-335 729.25,-341 723.25,-347 717.25,-347"/>
<text text-anchor="middle" x="662" y="-323.57" font-family="Times New Roman,serif" font-size="14.00">ApprovazioneBudget</text>
</g>
<!-- EsecuzioneSopralluogoR&#45;&gt;ApprovazioneBudget -->
<g id="edge17" class="edge">
<title>EsecuzioneSopralluogoR&#45;&gt;ApprovazioneBudget</title>
<path fill="none" stroke="black" stroke-dasharray="1,5" d="M370.73,-429.64C431.03,-421.76 515.41,-406.64 585,-378.75 600.84,-372.4 616.99,-362.75 630.39,-353.71"/>
<polygon fill="black" stroke="black" points="632.16,-356.74 638.37,-348.15 628.17,-351 632.16,-356.74"/>
</g>
<!-- EsecuzioneAttivita -->
<g id="node5" class="node">
<title>EsecuzioneAttivita</title>
<path fill="none" stroke="black" d="M362.38,-259.25C362.38,-259.25 267.62,-259.25 267.62,-259.25 261.62,-259.25 255.62,-253.25 255.62,-247.25 255.62,-247.25 255.62,-235.25 255.62,-235.25 255.62,-229.25 261.62,-223.25 267.62,-223.25 267.62,-223.25 362.38,-223.25 362.38,-223.25 368.38,-223.25 374.38,-229.25 374.38,-235.25 374.38,-235.25 374.38,-247.25 374.38,-247.25 374.38,-253.25 368.38,-259.25 362.38,-259.25"/>
<text text-anchor="middle" x="315" y="-235.82" font-family="Times New Roman,serif" font-size="14.00">EsecuzioneAttivita</text>
</g>
<!-- BudgetInApprovazione&#45;&gt;EsecuzioneAttivita -->
<g id="edge20" class="edge">
<title>BudgetInApprovazione&#45;&gt;EsecuzioneAttivita</title>
<path fill="none" stroke="black" d="M317.39,-310.65C316.99,-299.26 316.46,-284.09 316,-270.93"/>
<polygon fill="black" stroke="black" points="319.51,-270.96 315.66,-261.09 312.51,-271.21 319.51,-270.96"/>
<text text-anchor="middle" x="367.25" y="-279.7" font-family="Times New Roman,serif" font-size="14.00">BudgetApprovato</text>
</g>
<!-- EsecuzioneAttivita&#45;&gt;PianificazioneAppuntamentoR -->
<g id="edge22" class="edge">
<title>EsecuzioneAttivita&#45;&gt;PianificazioneAppuntamentoR</title>
<path fill="none" stroke="black" d="M255.21,-244.8C208.75,-249.92 145.74,-264.19 106,-303 78.07,-330.28 85.46,-348.17 79.5,-386.75 70.13,-447.44 136.28,-484.04 194.52,-504.24"/>
<polygon fill="black" stroke="black" points="193.25,-507.51 203.84,-507.35 195.46,-500.87 193.25,-507.51"/>
<text text-anchor="middle" x="133.25" y="-389.2" font-family="Times New Roman,serif" font-size="14.00">NuovoSopralluogo</text>
</g>
<!-- AttivitaInApprovazione -->
<g id="node6" class="node">
<title>AttivitaInApprovazione</title>
<path fill="none" stroke="black" d="M379.88,-171.5C379.88,-171.5 258.12,-171.5 258.12,-171.5 252.12,-171.5 246.12,-165.5 246.12,-159.5 246.12,-159.5 246.12,-147.5 246.12,-147.5 246.12,-141.5 252.12,-135.5 258.12,-135.5 258.12,-135.5 379.88,-135.5 379.88,-135.5 385.88,-135.5 391.88,-141.5 391.88,-147.5 391.88,-147.5 391.88,-159.5 391.88,-159.5 391.88,-165.5 385.88,-171.5 379.88,-171.5"/>
<text text-anchor="middle" x="319" y="-148.07" font-family="Times New Roman,serif" font-size="14.00">AttivitaInApprovazione</text>
</g>
<!-- EsecuzioneAttivita&#45;&gt;AttivitaInApprovazione -->
<g id="edge23" class="edge">
<title>EsecuzioneAttivita&#45;&gt;AttivitaInApprovazione</title>
<path fill="none" stroke="black" d="M315.81,-222.9C316.34,-211.51 317.05,-196.34 317.66,-183.18"/>
<polygon fill="black" stroke="black" points="321.15,-183.49 318.12,-173.34 314.16,-183.16 321.15,-183.49"/>
<text text-anchor="middle" x="369.75" y="-191.95" font-family="Times New Roman,serif" font-size="14.00">AttivitaCompletata</text>
</g>
<!-- ApprovazioneAttivita -->
<g id="node16" class="node">
<title>ApprovazioneAttivita</title>
<path fill="none" stroke="black" d="M564.25,-347C564.25,-347 453.75,-347 453.75,-347 447.75,-347 441.75,-341 441.75,-335 441.75,-335 441.75,-323 441.75,-323 441.75,-317 447.75,-311 453.75,-311 453.75,-311 564.25,-311 564.25,-311 570.25,-311 576.25,-317 576.25,-323 576.25,-323 576.25,-335 576.25,-335 576.25,-341 570.25,-347 564.25,-347"/>
<text text-anchor="middle" x="509" y="-323.57" font-family="Times New Roman,serif" font-size="14.00">ApprovazioneAttivita</text>
</g>
<!-- EsecuzioneAttivita&#45;&gt;ApprovazioneAttivita -->
<g id="edge21" class="edge">
<title>EsecuzioneAttivita&#45;&gt;ApprovazioneAttivita</title>
<path fill="none" stroke="black" stroke-dasharray="1,5" d="M374.68,-259.59C390.02,-264.69 406.32,-270.68 421,-277.25 438.43,-285.05 456.86,-295.34 472.32,-304.6"/>
<polygon fill="black" stroke="black" points="470.36,-307.51 480.72,-309.72 474.01,-301.53 470.36,-307.51"/>
</g>
<!-- AttivitaApprovata -->
<g id="node7" class="node">
<title>AttivitaApprovata</title>
<path fill="none" stroke="black" d="M384.5,-83.75C384.5,-83.75 293.5,-83.75 293.5,-83.75 287.5,-83.75 281.5,-77.75 281.5,-71.75 281.5,-71.75 281.5,-59.75 281.5,-59.75 281.5,-53.75 287.5,-47.75 293.5,-47.75 293.5,-47.75 384.5,-47.75 384.5,-47.75 390.5,-47.75 396.5,-53.75 396.5,-59.75 396.5,-59.75 396.5,-71.75 396.5,-71.75 396.5,-77.75 390.5,-83.75 384.5,-83.75"/>
<text text-anchor="middle" x="339" y="-60.33" font-family="Times New Roman,serif" font-size="14.00">AttivitaApprovata</text>
</g>
<!-- AttivitaInApprovazione&#45;&gt;AttivitaApprovata -->
<g id="edge24" class="edge">
<title>AttivitaInApprovazione&#45;&gt;AttivitaApprovata</title>
<path fill="none" stroke="black" d="M323.05,-135.15C325.73,-123.64 329.31,-108.28 332.4,-95.03"/>
<polygon fill="black" stroke="black" points="335.75,-96.08 334.61,-85.55 328.93,-94.49 335.75,-96.08"/>
<text text-anchor="middle" x="380.5" y="-104.2" font-family="Times New Roman,serif" font-size="14.00">AttivitaApprovata</text>
</g>
<!-- MonitoraggioAttivita -->
<g id="node14" class="node">
<title>MonitoraggioAttivita</title>
<path fill="none" stroke="black" d="M866.38,-347C866.38,-347 759.62,-347 759.62,-347 753.62,-347 747.62,-341 747.62,-335 747.62,-335 747.62,-323 747.62,-323 747.62,-317 753.62,-311 759.62,-311 759.62,-311 866.38,-311 866.38,-311 872.38,-311 878.38,-317 878.38,-323 878.38,-323 878.38,-335 878.38,-335 878.38,-341 872.38,-347 866.38,-347"/>
<text text-anchor="middle" x="813" y="-323.57" font-family="Times New Roman,serif" font-size="14.00">MonitoraggioAttivita</text>
</g>
<!-- AttivitaApprovata&#45;&gt;MonitoraggioAttivita -->
<g id="edge25" class="edge">
<title>AttivitaApprovata&#45;&gt;MonitoraggioAttivita</title>
<path fill="none" stroke="black" stroke-dasharray="1,5" d="M391.49,-84.12C405.52,-89.29 420.52,-95.31 434,-101.75 566.53,-165.05 713.05,-260.38 778.33,-304.31"/>
<polygon fill="black" stroke="black" points="776.23,-307.11 786.47,-309.8 780.14,-301.31 776.23,-307.11"/>
</g>
<!-- ConfigurazioneRiparazione -->
<g id="node10" class="node">
<title>ConfigurazioneRiparazione</title>
<path fill="none" stroke="black" d="M1116.38,-653.75C1116.38,-653.75 973.62,-653.75 973.62,-653.75 967.62,-653.75 961.62,-647.75 961.62,-641.75 961.62,-641.75 961.62,-629.75 961.62,-629.75 961.62,-623.75 967.62,-617.75 973.62,-617.75 973.62,-617.75 1116.38,-617.75 1116.38,-617.75 1122.38,-617.75 1128.38,-623.75 1128.38,-629.75 1128.38,-629.75 1128.38,-641.75 1128.38,-641.75 1128.38,-647.75 1122.38,-653.75 1116.38,-653.75"/>
<text text-anchor="middle" x="1045" y="-630.33" font-family="Times New Roman,serif" font-size="14.00">ConfigurazioneRiparazione</text>
</g>
<!-- AvvioRiparazione&#45;&gt;ConfigurazioneRiparazione -->
<g id="edge2" class="edge">
<title>AvvioRiparazione&#45;&gt;ConfigurazioneRiparazione</title>
<path fill="none" stroke="black" d="M1045,-705.15C1045,-693.76 1045,-678.59 1045,-665.43"/>
<polygon fill="black" stroke="black" points="1048.5,-665.59 1045,-655.59 1041.5,-665.59 1048.5,-665.59"/>
<text text-anchor="middle" x="1099" y="-674.2" font-family="Times New Roman,serif" font-size="14.00">RiparazioneAvviata</text>
</g>
<!-- DefinizioneTimeline -->
<g id="node11" class="node">
<title>DefinizioneTimeline</title>
<path fill="none" stroke="black" d="M1023.75,-544.25C1023.75,-544.25 922.25,-544.25 922.25,-544.25 916.25,-544.25 910.25,-538.25 910.25,-532.25 910.25,-532.25 910.25,-520.25 910.25,-520.25 910.25,-514.25 916.25,-508.25 922.25,-508.25 922.25,-508.25 1023.75,-508.25 1023.75,-508.25 1029.75,-508.25 1035.75,-514.25 1035.75,-520.25 1035.75,-520.25 1035.75,-532.25 1035.75,-532.25 1035.75,-538.25 1029.75,-544.25 1023.75,-544.25"/>
<text text-anchor="middle" x="973" y="-520.83" font-family="Times New Roman,serif" font-size="14.00">DefinizioneTimeline</text>
</g>
<!-- ConfigurazioneRiparazione&#45;&gt;DefinizioneTimeline -->
<g id="edge3" class="edge">
<title>ConfigurazioneRiparazione&#45;&gt;DefinizioneTimeline</title>
<path fill="none" stroke="black" d="M987.28,-617.32C979.94,-612.74 973.39,-606.98 968.75,-599.75 960.43,-586.77 961.03,-569.64 963.92,-555.3"/>
<polygon fill="black" stroke="black" points="967.22,-556.54 966.24,-545.99 960.43,-554.84 967.22,-556.54"/>
<text text-anchor="middle" x="1033.62" y="-586.45" font-family="Times New Roman,serif" font-size="14.00">RiparazioneConfigurata</text>
</g>
<!-- DefinizioneTimeline&#45;&gt;PianificazioneAppuntamentoR -->
<g id="edge5" class="edge">
<title>DefinizioneTimeline&#45;&gt;PianificazioneAppuntamentoR</title>
<path fill="none" stroke="black" stroke-dasharray="1,5" d="M909.97,-526.25C733.69,-526.25 557.4,-526.25 381.12,-526.25"/>
<polygon fill="black" stroke="black" points="381.29,-522.75 371.29,-526.25 381.29,-529.75 381.29,-522.75"/>
</g>
<!-- AssegnazioneMonitoraggio -->
<g id="node12" class="node">
<title>AssegnazioneMonitoraggio</title>
<path fill="none" stroke="black" d="M1057.75,-456.5C1057.75,-456.5 914.25,-456.5 914.25,-456.5 908.25,-456.5 902.25,-450.5 902.25,-444.5 902.25,-444.5 902.25,-432.5 902.25,-432.5 902.25,-426.5 908.25,-420.5 914.25,-420.5 914.25,-420.5 1057.75,-420.5 1057.75,-420.5 1063.75,-420.5 1069.75,-426.5 1069.75,-432.5 1069.75,-432.5 1069.75,-444.5 1069.75,-444.5 1069.75,-450.5 1063.75,-456.5 1057.75,-456.5"/>
<text text-anchor="middle" x="986" y="-433.07" font-family="Times New Roman,serif" font-size="14.00">AssegnazioneMonitoraggio</text>
</g>
<!-- DefinizioneTimeline&#45;&gt;AssegnazioneMonitoraggio -->
<g id="edge4" class="edge">
<title>DefinizioneTimeline&#45;&gt;AssegnazioneMonitoraggio</title>
<path fill="none" stroke="black" d="M975.63,-507.9C977.36,-496.51 979.66,-481.34 981.65,-468.18"/>
<polygon fill="black" stroke="black" points="985.11,-468.74 983.15,-458.32 978.19,-467.69 985.11,-468.74"/>
<text text-anchor="middle" x="1025" y="-476.95" font-family="Times New Roman,serif" font-size="14.00">TimelineDefinita</text>
</g>
<!-- VerificaChiusuraRiparazione -->
<g id="node13" class="node">
<title>VerificaChiusuraRiparazione</title>
<path fill="none" stroke="black" d="M1201.5,-347C1201.5,-347 1050.5,-347 1050.5,-347 1044.5,-347 1038.5,-341 1038.5,-335 1038.5,-335 1038.5,-323 1038.5,-323 1038.5,-317 1044.5,-311 1050.5,-311 1050.5,-311 1201.5,-311 1201.5,-311 1207.5,-311 1213.5,-317 1213.5,-323 1213.5,-323 1213.5,-335 1213.5,-335 1213.5,-341 1207.5,-347 1201.5,-347"/>
<text text-anchor="middle" x="1126" y="-323.57" font-family="Times New Roman,serif" font-size="14.00">VerificaChiusuraRiparazione</text>
</g>
<!-- AssegnazioneMonitoraggio&#45;&gt;VerificaChiusuraRiparazione -->
<g id="edge6" class="edge">
<title>AssegnazioneMonitoraggio&#45;&gt;VerificaChiusuraRiparazione</title>
<path fill="none" stroke="black" d="M973.96,-420.31C968.26,-409.87 964.05,-396.69 971,-386.75 984.53,-367.38 1005.42,-354.61 1027.53,-346.18"/>
<polygon fill="black" stroke="black" points="1028.38,-349.59 1036.67,-342.99 1026.08,-342.98 1028.38,-349.59"/>
<text text-anchor="middle" x="1037" y="-389.2" font-family="Times New Roman,serif" font-size="14.00">MonitoraggioTerminato</text>
</g>
<!-- AssegnazioneMonitoraggio&#45;&gt;MonitoraggioAttivita -->
<g id="edge7" class="edge">
<title>AssegnazioneMonitoraggio&#45;&gt;MonitoraggioAttivita</title>
<path fill="none" stroke="black" stroke-dasharray="1,5" d="M901.94,-426.88C870.77,-421.29 840.35,-413.31 829.5,-402.5 818.1,-391.14 813.89,-373.65 812.57,-358.7"/>
<polygon fill="black" stroke="black" points="816.08,-358.75 812.12,-348.92 809.08,-359.07 816.08,-358.75"/>
<text text-anchor="middle" x="895.75" y="-389.2" font-family="Times New Roman,serif" font-size="14.00">MonitoraggioAssegnato</text>
</g>
<!-- VerificaChiusuraRiparazione&#45;&gt;ConfigurazioneRiparazione -->
<g id="edge8" class="edge">
<title>VerificaChiusuraRiparazione&#45;&gt;ConfigurazioneRiparazione</title>
<path fill="none" stroke="black" d="M1152.57,-347.49C1183.71,-370.4 1229.26,-412.81 1214,-456.5 1187.17,-533.31 1160.49,-545.33 1100,-599.75 1095.53,-603.77 1090.55,-607.63 1085.46,-611.22"/>
<polygon fill="black" stroke="black" points="1083.88,-608.06 1077.52,-616.53 1087.78,-613.88 1083.88,-608.06"/>
<text text-anchor="middle" x="1271.12" y="-476.95" font-family="Times New Roman,serif" font-size="14.00">RiparazioneNonChiusa</text>
</g>
<!-- VerificaChiusuraRiparazione&#45;&gt;DefinizioneTimeline -->
<g id="edge9" class="edge">
<title>VerificaChiusuraRiparazione&#45;&gt;DefinizioneTimeline</title>
<path fill="none" stroke="black" d="M1122.39,-347.49C1114.42,-384.62 1094.38,-469.58 1074,-490.25 1066.23,-498.13 1056.6,-504.24 1046.4,-508.97"/>
<polygon fill="black" stroke="black" points="1045.35,-505.62 1037.46,-512.68 1048.04,-512.08 1045.35,-505.62"/>
<text text-anchor="middle" x="1156.62" y="-433.07" font-family="Times New Roman,serif" font-size="14.00">DatiNonCompletati</text>
</g>
<!-- PERIZIA -->
<g id="node17" class="node">
<title>PERIZIA</title>
<polygon fill="lightgrey" stroke="black" points="1326.62,-259.25 1257.38,-259.25 1257.38,-223.25 1326.62,-223.25 1326.62,-259.25"/>
<text text-anchor="middle" x="1292" y="-235.82" font-family="Times New Roman,serif" font-size="14.00">PERIZIA</text>
</g>
<!-- VerificaChiusuraRiparazione&#45;&gt;PERIZIA -->
<g id="edge10" class="edge">
<title>VerificaChiusuraRiparazione&#45;&gt;PERIZIA</title>
<path fill="none" stroke="black" d="M1159.59,-310.65C1185.05,-297.5 1220.25,-279.32 1247.96,-265"/>
<polygon fill="black" stroke="black" points="1249.55,-268.12 1256.83,-260.42 1246.34,-261.9 1249.55,-268.12"/>
<text text-anchor="middle" x="1287.12" y="-279.7" font-family="Times New Roman,serif" font-size="14.00">PeriziaPostRiparazione</text>
</g>
<!-- CHIUSURA -->
<g id="node18" class="node">
<title>CHIUSURA</title>
<polygon fill="lightgrey" stroke="black" points="1458.62,-259.25 1371.38,-259.25 1371.38,-223.25 1458.62,-223.25 1458.62,-259.25"/>
<text text-anchor="middle" x="1415" y="-235.82" font-family="Times New Roman,serif" font-size="14.00">CHIUSURA</text>
</g>
<!-- VerificaChiusuraRiparazione&#45;&gt;CHIUSURA -->
<g id="edge11" class="edge">
<title>VerificaChiusuraRiparazione&#45;&gt;CHIUSURA</title>
<path fill="none" stroke="black" d="M1213.75,-325.8C1257.78,-321.96 1310.98,-313.02 1355,-293 1368.39,-286.91 1381.14,-276.95 1391.42,-267.46"/>
<polygon fill="black" stroke="black" points="1393.6,-270.22 1398.35,-260.74 1388.73,-265.19 1393.6,-270.22"/>
<text text-anchor="middle" x="1448.5" y="-279.7" font-family="Times New Roman,serif" font-size="14.00">ChiusuraPostRiparazione</text>
</g>
<!-- MonitoraggioAttivita&#45;&gt;EsecuzioneSopralluogoR -->
<g id="edge13" class="edge">
<title>MonitoraggioAttivita&#45;&gt;EsecuzioneSopralluogoR</title>
<path fill="none" stroke="black" stroke-dasharray="1,5" d="M792.07,-347.27C777.74,-358.13 757.81,-371.43 738,-378.75 620.02,-422.31 473.99,-434.31 381.88,-437.23"/>
<polygon fill="black" stroke="black" points="382.05,-433.72 372.16,-437.5 382.25,-440.72 382.05,-433.72"/>
<text text-anchor="middle" x="722.12" y="-389.2" font-family="Times New Roman,serif" font-size="14.00">annulla</text>
</g>
<!-- MonitoraggioAttivita&#45;&gt;VerificaChiusuraRiparazione -->
<g id="edge12" class="edge">
<title>MonitoraggioAttivita&#45;&gt;VerificaChiusuraRiparazione</title>
<path fill="none" stroke="black" stroke-dasharray="1,5" d="M878.72,-329C928.11,-329 977.5,-329 1026.89,-329"/>
<polygon fill="black" stroke="black" points="1026.59,-332.5 1036.59,-329 1026.59,-325.5 1026.59,-332.5"/>
</g>
<!-- ApprovazioneBudget&#45;&gt;BudgetInApprovazione -->
<g id="edge14" class="edge">
<title>ApprovazioneBudget&#45;&gt;BudgetInApprovazione</title>
<path fill="none" stroke="black" stroke-dasharray="1,5" d="M646.77,-347.28C631.09,-364.53 604.92,-389.27 576,-399.62 518.67,-420.15 497.78,-415.52 439,-399.62 406.19,-390.75 373.14,-370.52 349.9,-353.97"/>
<polygon fill="black" stroke="black" points="352.23,-351.35 342.09,-348.28 348.11,-357 352.23,-351.35"/>
</g>
<!-- ApprovazioneAttivita&#45;&gt;AttivitaInApprovazione -->
<g id="edge15" class="edge">
<title>ApprovazioneAttivita&#45;&gt;AttivitaInApprovazione</title>
<path fill="none" stroke="black" stroke-dasharray="1,5" d="M503.12,-310.84C492.28,-281.69 466.37,-222.42 425,-189.5 418.23,-184.11 410.6,-179.54 402.61,-175.66"/>
<polygon fill="black" stroke="black" points="404.28,-172.57 393.72,-171.72 401.45,-178.97 404.28,-172.57"/>
</g>
</g>
</svg>
