<?xml version="1.0" encoding="UTF-8" standalone="no"?>
<!DOCTYPE svg PUBLIC "-//W3C//DTD SVG 1.1//EN"
 "http://www.w3.org/Graphics/SVG/1.1/DTD/svg11.dtd">
<!-- Generated by graphviz version 2.50.0 (0)
 -->
<!-- sottoprocesso Chiusura Riparazione -->
<!-- Title: finite_state_machine Pages: 1 -->
<svg width="576pt" height="358pt"
 viewBox="0.00 0.00 576.00 358.24" xmlns="http://www.w3.org/2000/svg" xmlns:xlink="http://www.w3.org/1999/xlink">
<g id="graph0" class="graph" transform="scale(0.52 0.52) rotate(0) translate(4 682)">
<title>finite_state_machine</title>
<polygon fill="white" stroke="transparent" points="-4,4 -4,-682 1099,-682 1099,4 -4,4"/>
<text text-anchor="middle" x="547.5" y="-7.8" font-family="Times New Roman,serif" font-size="14.00">Repair</text>
<g id="clust1" class="cluster">
<title>cluster_riparazione</title>
<polygon fill="none" stroke="black" points="8,-31 8,-601 718,-601 718,-31 8,-31"/>
<text text-anchor="middle" x="363" y="-585.8" font-family="Times New Roman,serif" font-size="14.00">RIPARAZIONE</text>
</g>
<g id="clust3" class="cluster">
<title>cluster_gestore</title>
<polygon fill="none" stroke="black" points="316,-321 316,-570 633,-570 633,-321 316,-321"/>
<text text-anchor="middle" x="474.5" y="-554.8" font-family="Times New Roman,serif" font-size="14.00">GESTORE&#45;RIPARAZIONE</text>
</g>
<g id="clust4" class="cluster">
<title>cluster_perito</title>
<polygon fill="none" stroke="black" points="362,-39 362,-288 710,-288 710,-39 362,-39"/>
<text text-anchor="middle" x="536" y="-272.8" font-family="Times New Roman,serif" font-size="14.00">PERITO&#45;RIPARAZIONE</text>
</g>
<g id="clust2" class="cluster">
<title>cluster_cat</title>
<polygon fill="none" stroke="black" points="16,-39 16,-288 354,-288 354,-39 16,-39"/>
<text text-anchor="middle" x="185" y="-272.8" font-family="Times New Roman,serif" font-size="14.00">RIPARATORE</text>
</g>
<!-- PianificazioneAppuntamentoR -->
<g id="node1" class="node">
<title>PianificazioneAppuntamentoR</title>
<path fill="none" stroke="black" d="M334,-257C334,-257 174,-257 174,-257 168,-257 162,-251 162,-245 162,-245 162,-233 162,-233 162,-227 168,-221 174,-221 174,-221 334,-221 334,-221 340,-221 346,-227 346,-233 346,-233 346,-245 346,-245 346,-251 340,-257 334,-257"/>
<text text-anchor="middle" x="254" y="-235.3" font-family="Times New Roman,serif" font-size="14.00">PianificazioneAppuntamentoR</text>
</g>
<!-- EsecuzioneSopralluogoR -->
<g id="node2" class="node">
<title>EsecuzioneSopralluogoR</title>
<path fill="none" stroke="black" d="M243.5,-170C243.5,-170 114.5,-170 114.5,-170 108.5,-170 102.5,-164 102.5,-158 102.5,-158 102.5,-146 102.5,-146 102.5,-140 108.5,-134 114.5,-134 114.5,-134 243.5,-134 243.5,-134 249.5,-134 255.5,-140 255.5,-146 255.5,-146 255.5,-158 255.5,-158 255.5,-164 249.5,-170 243.5,-170"/>
<text text-anchor="middle" x="179" y="-148.3" font-family="Times New Roman,serif" font-size="14.00">EsecuzioneSopralluogoR</text>
</g>
<!-- PianificazioneAppuntamentoR&#45;&gt;EsecuzioneSopralluogoR -->
<g id="edge11" class="edge">
<title>PianificazioneAppuntamentoR&#45;&gt;EsecuzioneSopralluogoR</title>
<path fill="none" stroke="black" d="M201.59,-220.95C193.91,-216.28 186.94,-210.4 182,-203 177.57,-196.36 175.92,-188.06 175.65,-180.14"/>
<polygon fill="black" stroke="black" points="179.14,-180.21 175.94,-170.11 172.15,-180 179.14,-180.21"/>
<text text-anchor="middle" x="252" y="-191.8" font-family="Times New Roman,serif" font-size="14.00">AppuntamentoPianificato</text>
</g>
<!-- EsecVisioApprovazBudget -->
<g id="node10" class="node">
<title>EsecVisioApprovazBudget</title>
<path fill="none" stroke="black" d="M521.5,-170C521.5,-170 382.5,-170 382.5,-170 376.5,-170 370.5,-164 370.5,-158 370.5,-158 370.5,-146 370.5,-146 370.5,-140 376.5,-134 382.5,-134 382.5,-134 521.5,-134 521.5,-134 527.5,-134 533.5,-140 533.5,-146 533.5,-146 533.5,-158 533.5,-158 533.5,-164 527.5,-170 521.5,-170"/>
<text text-anchor="middle" x="452" y="-148.3" font-family="Times New Roman,serif" font-size="14.00">EsecVisioApprovazBudget</text>
</g>
<!-- PianificazioneAppuntamentoR&#45;&gt;EsecVisioApprovazBudget -->
<g id="edge10" class="edge">
<title>PianificazioneAppuntamentoR&#45;&gt;EsecVisioApprovazBudget</title>
<path fill="none" stroke="black" stroke-dasharray="1,5" d="M300.3,-220.88C308.44,-216.14 316.17,-210.24 322,-203 326.33,-197.63 321.15,-192.9 326,-188 331.89,-182.05 344.83,-176.63 360.27,-171.92"/>
<polygon fill="black" stroke="black" points="361.52,-175.2 370.17,-169.08 359.59,-168.47 361.52,-175.2"/>
<text text-anchor="middle" x="396" y="-191.8" font-family="Times New Roman,serif" font-size="14.00">AppuntamentoPianificato</text>
</g>
<!-- FineLavori -->
<g id="node4" class="node">
<title>FineLavori</title>
<path fill="none" stroke="black" d="M238.5,-83C238.5,-83 185.5,-83 185.5,-83 179.5,-83 173.5,-77 173.5,-71 173.5,-71 173.5,-59 173.5,-59 173.5,-53 179.5,-47 185.5,-47 185.5,-47 238.5,-47 238.5,-47 244.5,-47 250.5,-53 250.5,-59 250.5,-59 250.5,-71 250.5,-71 250.5,-77 244.5,-83 238.5,-83"/>
<text text-anchor="middle" x="212" y="-61.3" font-family="Times New Roman,serif" font-size="14.00">FineLavori</text>
</g>
<!-- EsecuzioneSopralluogoR&#45;&gt;FineLavori -->
<g id="edge12" class="edge">
<title>EsecuzioneSopralluogoR&#45;&gt;FineLavori</title>
<path fill="none" stroke="black" d="M185.68,-133.8C190.24,-122.05 196.38,-106.24 201.58,-92.84"/>
<polygon fill="black" stroke="black" points="204.98,-93.76 205.33,-83.18 198.45,-91.23 204.98,-93.76"/>
<text text-anchor="middle" x="255" y="-104.8" font-family="Times New Roman,serif" font-size="14.00">SopralluogoEseguito</text>
</g>
<!-- EsecuzioneAttivita -->
<g id="node3" class="node">
<title>EsecuzioneAttivita</title>
<path fill="none" stroke="black" d="M131.5,-257C131.5,-257 36.5,-257 36.5,-257 30.5,-257 24.5,-251 24.5,-245 24.5,-245 24.5,-233 24.5,-233 24.5,-227 30.5,-221 36.5,-221 36.5,-221 131.5,-221 131.5,-221 137.5,-221 143.5,-227 143.5,-233 143.5,-233 143.5,-245 143.5,-245 143.5,-251 137.5,-257 131.5,-257"/>
<text text-anchor="middle" x="84" y="-235.3" font-family="Times New Roman,serif" font-size="14.00">EsecuzioneAttivita</text>
</g>
<!-- VerificaChiusuraRiparazione -->
<g id="node11" class="node">
<title>VerificaChiusuraRiparazione</title>
<path fill="none" stroke="black" d="M531.5,-83C531.5,-83 382.5,-83 382.5,-83 376.5,-83 370.5,-77 370.5,-71 370.5,-71 370.5,-59 370.5,-59 370.5,-53 376.5,-47 382.5,-47 382.5,-47 531.5,-47 531.5,-47 537.5,-47 543.5,-53 543.5,-59 543.5,-59 543.5,-71 543.5,-71 543.5,-77 537.5,-83 531.5,-83"/>
<text text-anchor="middle" x="457" y="-61.3" font-family="Times New Roman,serif" font-size="14.00">VerificaChiusuraRiparazione</text>
</g>
<!-- FineLavori&#45;&gt;VerificaChiusuraRiparazione -->
<g id="edge13" class="edge">
<title>FineLavori&#45;&gt;VerificaChiusuraRiparazione</title>
<path fill="none" stroke="black" stroke-dasharray="1,5" d="M250.55,-65C279.99,-65 321.9,-65 360.27,-65"/>
<polygon fill="black" stroke="black" points="360.46,-68.5 370.46,-65 360.46,-61.5 360.46,-68.5"/>
<text text-anchor="middle" x="310.5" y="-71.8" font-family="Times New Roman,serif" font-size="14.00">LavoriTerminati</text>
</g>
<!-- AvvioRiparazione -->
<g id="node5" class="node">
<title>AvvioRiparazione</title>
<path fill="none" stroke="black" d="M612.5,-539C612.5,-539 521.5,-539 521.5,-539 515.5,-539 509.5,-533 509.5,-527 509.5,-527 509.5,-515 509.5,-515 509.5,-509 515.5,-503 521.5,-503 521.5,-503 612.5,-503 612.5,-503 618.5,-503 624.5,-509 624.5,-515 624.5,-515 624.5,-527 624.5,-527 624.5,-533 618.5,-539 612.5,-539"/>
<text text-anchor="middle" x="567" y="-517.3" font-family="Times New Roman,serif" font-size="14.00">AvvioRiparazione</text>
</g>
<!-- ConfigurazioneRiparazione -->
<g id="node6" class="node">
<title>ConfigurazioneRiparazione</title>
<path fill="none" stroke="black" d="M588,-452C588,-452 446,-452 446,-452 440,-452 434,-446 434,-440 434,-440 434,-428 434,-428 434,-422 440,-416 446,-416 446,-416 588,-416 588,-416 594,-416 600,-422 600,-428 600,-428 600,-440 600,-440 600,-446 594,-452 588,-452"/>
<text text-anchor="middle" x="517" y="-430.3" font-family="Times New Roman,serif" font-size="14.00">ConfigurazioneRiparazione</text>
</g>
<!-- AvvioRiparazione&#45;&gt;ConfigurazioneRiparazione -->
<g id="edge2" class="edge">
<title>AvvioRiparazione&#45;&gt;ConfigurazioneRiparazione</title>
<path fill="none" stroke="black" d="M540.5,-502.85C534.54,-497.79 528.85,-491.76 525,-485 521.11,-478.17 518.97,-470.02 517.82,-462.29"/>
<polygon fill="black" stroke="black" points="521.28,-461.79 516.8,-452.2 514.32,-462.5 521.28,-461.79"/>
<text text-anchor="middle" x="579" y="-473.8" font-family="Times New Roman,serif" font-size="14.00">RiparazioneAvviata</text>
</g>
<!-- DefinizioneTimeline -->
<g id="node7" class="node">
<title>DefinizioneTimeline</title>
<path fill="none" stroke="black" d="M544,-365C544,-365 438,-365 438,-365 432,-365 426,-359 426,-353 426,-353 426,-341 426,-341 426,-335 432,-329 438,-329 438,-329 544,-329 544,-329 550,-329 556,-335 556,-341 556,-341 556,-353 556,-353 556,-359 550,-365 544,-365"/>
<text text-anchor="middle" x="491" y="-343.3" font-family="Times New Roman,serif" font-size="14.00">DefinizioneTimeline</text>
</g>
<!-- ConfigurazioneRiparazione&#45;&gt;DefinizioneTimeline -->
<g id="edge3" class="edge">
<title>ConfigurazioneRiparazione&#45;&gt;DefinizioneTimeline</title>
<path fill="none" stroke="black" d="M511.74,-415.8C508.14,-404.05 503.31,-388.24 499.21,-374.84"/>
<polygon fill="black" stroke="black" points="502.53,-373.71 496.25,-365.18 495.83,-375.76 502.53,-373.71"/>
<text text-anchor="middle" x="571" y="-386.8" font-family="Times New Roman,serif" font-size="14.00">RiparazioneConfigurata</text>
</g>
<!-- DefinizioneTimeline&#45;&gt;PianificazioneAppuntamentoR -->
<g id="edge5" class="edge">
<title>DefinizioneTimeline&#45;&gt;PianificazioneAppuntamentoR</title>
<path fill="none" stroke="black" stroke-dasharray="1,5" d="M436.97,-328.92C421.61,-323.63 404.99,-317.47 390,-311 356.31,-296.46 319.5,-277.01 292.68,-262.14"/>
<polygon fill="black" stroke="black" points="294.07,-258.91 283.63,-257.09 290.65,-265.02 294.07,-258.91"/>
<text text-anchor="middle" x="438.5" y="-299.8" font-family="Times New Roman,serif" font-size="14.00">AttivitaAssegnata</text>
</g>
<!-- MonitoraggioAttivita -->
<g id="node9" class="node">
<title>MonitoraggioAttivita</title>
<path fill="none" stroke="black" d="M545.5,-257C545.5,-257 436.5,-257 436.5,-257 430.5,-257 424.5,-251 424.5,-245 424.5,-245 424.5,-233 424.5,-233 424.5,-227 430.5,-221 436.5,-221 436.5,-221 545.5,-221 545.5,-221 551.5,-221 557.5,-227 557.5,-233 557.5,-233 557.5,-245 557.5,-245 557.5,-251 551.5,-257 545.5,-257"/>
<text text-anchor="middle" x="491" y="-235.3" font-family="Times New Roman,serif" font-size="14.00">MonitoraggioAttivita</text>
</g>
<!-- DefinizioneTimeline&#45;&gt;MonitoraggioAttivita -->
<g id="edge4" class="edge">
<title>DefinizioneTimeline&#45;&gt;MonitoraggioAttivita</title>
<path fill="none" stroke="black" stroke-dasharray="1,5" d="M491,-328.97C491,-312.38 491,-286.88 491,-267.43"/>
<polygon fill="black" stroke="black" points="494.5,-267.34 491,-257.34 487.5,-267.34 494.5,-267.34"/>
<text text-anchor="middle" x="557" y="-299.8" font-family="Times New Roman,serif" font-size="14.00">MonitoraggioAssegnato</text>
</g>
<!-- AssegnazioneMonitoraggio -->
<g id="node8" class="node">
<title>AssegnazioneMonitoraggio</title>
<path fill="none" stroke="black" d="M479.5,-539C479.5,-539 336.5,-539 336.5,-539 330.5,-539 324.5,-533 324.5,-527 324.5,-527 324.5,-515 324.5,-515 324.5,-509 330.5,-503 336.5,-503 336.5,-503 479.5,-503 479.5,-503 485.5,-503 491.5,-509 491.5,-515 491.5,-515 491.5,-527 491.5,-527 491.5,-533 485.5,-539 479.5,-539"/>
<text text-anchor="middle" x="408" y="-517.3" font-family="Times New Roman,serif" font-size="14.00">AssegnazioneMonitoraggio</text>
</g>
<!-- MonitoraggioAttivita&#45;&gt;EsecVisioApprovazBudget -->
<g id="edge6" class="edge">
<title>MonitoraggioAttivita&#45;&gt;EsecVisioApprovazBudget</title>
<polygon fill="black" stroke="black" points="467.23,-177.8 459.88,-170.18 460.87,-180.72 467.23,-177.8"/>
</g>
<!-- MonitoraggioAttivita&#45;&gt;VerificaChiusuraRiparazione -->
<g id="edge7" class="edge">
<title>MonitoraggioAttivita&#45;&gt;VerificaChiusuraRiparazione</title>
<path fill="none" stroke="black" stroke-dasharray="1,5" d="M509.77,-220.74C529.78,-200.14 556.72,-164.63 542,-134 532.94,-115.14 515.82,-99.88 499.3,-88.63"/>
<polygon fill="black" stroke="black" points="501.07,-85.6 490.77,-83.11 497.27,-91.48 501.07,-85.6"/>
<text text-anchor="middle" x="613" y="-148.3" font-family="Times New Roman,serif" font-size="14.00">MonitoraggioTerminato</text>
</g>
<!-- EsecVisioApprovazBudget&#45;&gt;EsecuzioneSopralluogoR -->
<g id="edge9" class="edge">
<title>EsecVisioApprovazBudget&#45;&gt;EsecuzioneSopralluogoR</title>
<path fill="none" stroke="black" stroke-dasharray="1,5" d="M370.08,-152C337.22,-152 299.31,-152 265.96,-152"/>
<polygon fill="black" stroke="black" points="265.77,-148.5 255.77,-152 265.77,-155.5 265.77,-148.5"/>
<text text-anchor="middle" x="313" y="-158.8" font-family="Times New Roman,serif" font-size="14.00">BudgetApprovato</text>
</g>
<!-- EsecVisioApprovazBudget&#45;&gt;VerificaChiusuraRiparazione -->
<g id="edge8" class="edge">
<title>EsecVisioApprovazBudget&#45;&gt;VerificaChiusuraRiparazione</title>
<polygon fill="black" stroke="black" points="458.9,-93.36 455.99,-83.18 451.91,-92.95 458.9,-93.36"/>
</g>
<!-- VenditaRiparazione -->
<g id="node12" class="node">
<title>VenditaRiparazione</title>
<polygon fill="lightgrey" stroke="black" points="628.5,-678 505.5,-678 505.5,-642 628.5,-642 628.5,-678"/>
<text text-anchor="middle" x="567" y="-656.3" font-family="Times New Roman,serif" font-size="14.00">VenditaRiparazione</text>
</g>
<!-- VenditaRiparazione&#45;&gt;AvvioRiparazione -->
<g id="edge1" class="edge">
<title>VenditaRiparazione&#45;&gt;AvvioRiparazione</title>
<path fill="none" stroke="black" d="M567,-641.93C567,-618.75 567,-577.06 567,-549.46"/>
<polygon fill="black" stroke="black" points="570.5,-549.29 567,-539.29 563.5,-549.29 570.5,-549.29"/>
<text text-anchor="middle" x="622" y="-612.8" font-family="Times New Roman,serif" font-size="14.00">RiparazioneVenduta</text>
</g>
<!-- VerificaRiparazioneCompletata -->
<g id="node13" class="node">
<title>VerificaRiparazioneCompletata</title>
<polygon fill="lightgrey" stroke="black" points="914,-539 726,-539 726,-503 914,-503 914,-539"/>
<text text-anchor="middle" x="820" y="-517.3" font-family="Times New Roman,serif" font-size="14.00">VerificaRiparazioneCompletata</text>
</g>
<!-- VerificaRiparazioneCompletata&#45;&gt;ConfigurazioneRiparazione -->
<g id="edge14" class="edge">
<title>VerificaRiparazioneCompletata&#45;&gt;ConfigurazioneRiparazione</title>
<path fill="none" stroke="black" d="M754.96,-502.92C733.89,-497.31 710.43,-490.98 689,-485 654.39,-475.35 615.98,-464.22 584.26,-454.92"/>
<polygon fill="black" stroke="black" points="585.22,-451.55 574.64,-452.1 583.24,-458.27 585.22,-451.55"/>
<text text-anchor="middle" x="752.5" y="-473.8" font-family="Times New Roman,serif" font-size="14.00">RiparazioneNonChiusa</text>
</g>
<!-- VerificaRiparazioneCompletata&#45;&gt;VerificaRiparazioneCompletata -->
<g id="edge15" class="edge">
<title>VerificaRiparazioneCompletata&#45;&gt;VerificaRiparazioneCompletata</title>
<path fill="none" stroke="black" d="M914.37,-527.67C925.07,-526.42 932,-524.2 932,-521 932,-518.95 929.16,-517.3 924.3,-516.05"/>
<polygon fill="black" stroke="black" points="924.82,-512.59 914.37,-514.33 923.63,-519.49 924.82,-512.59"/>
<text text-anchor="middle" x="986" y="-517.3" font-family="Times New Roman,serif" font-size="14.00">DatiNonCompletati</text>
</g>
<!-- PERIZIA -->
<g id="node14" class="node">
<title>PERIZIA</title>
<polygon fill="lightgrey" stroke="black" points="853,-452 785,-452 785,-416 853,-416 853,-452"/>
<text text-anchor="middle" x="819" y="-430.3" font-family="Times New Roman,serif" font-size="14.00">PERIZIA</text>
</g>
<!-- VerificaRiparazioneCompletata&#45;&gt;PERIZIA -->
<g id="edge16" class="edge">
<title>VerificaRiparazioneCompletata&#45;&gt;PERIZIA</title>
<path fill="none" stroke="black" d="M819.8,-502.8C819.66,-491.16 819.48,-475.55 819.32,-462.24"/>
<polygon fill="black" stroke="black" points="822.82,-462.13 819.2,-452.18 815.82,-462.22 822.82,-462.13"/>
<text text-anchor="middle" x="883.5" y="-473.8" font-family="Times New Roman,serif" font-size="14.00">PeriziaPostRiparazione</text>
</g>
<!-- CHIUSURA -->
<g id="node15" class="node">
<title>CHIUSURA</title>
<polygon fill="lightgrey" stroke="black" points="1012,-452 926,-452 926,-416 1012,-416 1012,-452"/>
<text text-anchor="middle" x="969" y="-430.3" font-family="Times New Roman,serif" font-size="14.00">CHIUSURA</text>
</g>
<!-- VerificaRiparazioneCompletata&#45;&gt;CHIUSURA -->
<g id="edge17" class="edge">
<title>VerificaRiparazioneCompletata&#45;&gt;CHIUSURA</title>
<path fill="none" stroke="black" d="M914.01,-504.49C925.99,-499.64 937.4,-493.3 947,-485 954.01,-478.94 958.88,-470.22 962.21,-461.75"/>
<polygon fill="black" stroke="black" points="965.59,-462.69 965.46,-452.1 958.96,-460.46 965.59,-462.69"/>
<text text-anchor="middle" x="1026" y="-473.8" font-family="Times New Roman,serif" font-size="14.00">ChiusuraPostRiparazione</text>
</g>
</g>
</svg>
