<?xml version="1.0" encoding="UTF-8" standalone="no"?>
<!DOCTYPE svg PUBLIC "-//W3C//DTD SVG 1.1//EN"
 "http://www.w3.org/Graphics/SVG/1.1/DTD/svg11.dtd">
<!-- Generated by graphviz version 9.0.0 (20230911.1827)
 -->
<!--  &#160;&#160;&#160;&#160;&#160;&#160;&#160;ApprovazioneBudget &#160;&#160;&#160;&#160;&#160;&#160;&#160;&#45;&gt; &#160;ApprovazioneAttivita &#160;&#160; -->
<!-- Title: Repair_activity Pages: 1 -->
<svg width="288pt" height="265pt"
 viewBox="0.00 0.00 288.00 265.09" xmlns="http://www.w3.org/2000/svg" xmlns:xlink="http://www.w3.org/1999/xlink">
<g id="graph0" class="graph" transform="scale(0.328767 0.328767) rotate(0) translate(4 802.32)">
<title>Repair_activity</title>
<polygon fill="white" stroke="none" points="-4,4 -4,-802.32 872,-802.32 872,4 -4,4"/>
<g id="clust1" class="cluster">
<title>cluster_perito</title>
<polygon fill="none" stroke="black" points="208,-337.05 208,-412.8 660,-412.8 660,-337.05 208,-337.05"/>
<text text-anchor="middle" x="434" y="-395.5" font-family="Times New Roman,serif" font-size="14.00">PERITO</text>
</g>
<g id="clust2" class="cluster">
<title>cluster_gestore</title>
<polygon fill="none" stroke="black" points="8,-265.05 8,-636.3 200,-636.3 200,-265.05 8,-265.05"/>
<text text-anchor="middle" x="104" y="-619" font-family="Times New Roman,serif" font-size="14.00">GESTORE</text>
</g>
<g id="clust3" class="cluster">
<title>cluster_cat</title>
<polygon fill="none" stroke="black" points="668,-8 668,-560.55 860,-560.55 860,-8 668,-8"/>
<text text-anchor="middle" x="764" y="-543.25" font-family="Times New Roman,serif" font-size="14.00">CAT</text>
</g>
<!-- MonitoraggioAttivita -->
<g id="node1" class="node">
<title>MonitoraggioAttivita</title>
<path fill="none" stroke="black" d="M334.38,-381.05C334.38,-381.05 227.62,-381.05 227.62,-381.05 221.62,-381.05 215.62,-375.05 215.62,-369.05 215.62,-369.05 215.62,-357.05 215.62,-357.05 215.62,-351.05 221.62,-345.05 227.62,-345.05 227.62,-345.05 334.38,-345.05 334.38,-345.05 340.38,-345.05 346.38,-351.05 346.38,-357.05 346.38,-357.05 346.38,-369.05 346.38,-369.05 346.38,-375.05 340.38,-381.05 334.38,-381.05"/>
<text text-anchor="middle" x="281" y="-357.62" font-family="Times New Roman,serif" font-size="14.00">MonitoraggioAttivita</text>
</g>
<!-- VerificaChiusuraRiparazione -->
<g id="node8" class="node">
<title>VerificaChiusuraRiparazione</title>
<path fill="none" stroke="black" d="M179.5,-309.05C179.5,-309.05 28.5,-309.05 28.5,-309.05 22.5,-309.05 16.5,-303.05 16.5,-297.05 16.5,-297.05 16.5,-285.05 16.5,-285.05 16.5,-279.05 22.5,-273.05 28.5,-273.05 28.5,-273.05 179.5,-273.05 179.5,-273.05 185.5,-273.05 191.5,-279.05 191.5,-285.05 191.5,-285.05 191.5,-297.05 191.5,-297.05 191.5,-303.05 185.5,-309.05 179.5,-309.05"/>
<text text-anchor="middle" x="104" y="-285.62" font-family="Times New Roman,serif" font-size="14.00">VerificaChiusuraRiparazione</text>
</g>
<!-- MonitoraggioAttivita&#45;&gt;VerificaChiusuraRiparazione -->
<g id="edge9" class="edge">
<title>MonitoraggioAttivita&#45;&gt;VerificaChiusuraRiparazione</title>
<path fill="none" stroke="black" stroke-dasharray="1,5" d="M236.79,-344.57C212.94,-335.13 183.31,-323.42 158.1,-313.44"/>
<polygon fill="black" stroke="black" points="149.08,-309.88 160.04,-309.37 152.6,-311.27 158.38,-313.56 158.38,-313.56 158.38,-313.56 152.6,-311.27 156.73,-317.74 149.08,-309.88"/>
</g>
<!-- ApprovazioneBudget -->
<g id="node2" class="node">
<title>ApprovazioneBudget</title>
<path fill="none" stroke="black" d="M640.25,-381.05C640.25,-381.05 529.75,-381.05 529.75,-381.05 523.75,-381.05 517.75,-375.05 517.75,-369.05 517.75,-369.05 517.75,-357.05 517.75,-357.05 517.75,-351.05 523.75,-345.05 529.75,-345.05 529.75,-345.05 640.25,-345.05 640.25,-345.05 646.25,-345.05 652.25,-351.05 652.25,-357.05 652.25,-357.05 652.25,-369.05 652.25,-369.05 652.25,-375.05 646.25,-381.05 640.25,-381.05"/>
<text text-anchor="middle" x="585" y="-357.62" font-family="Times New Roman,serif" font-size="14.00">ApprovazioneBudget</text>
</g>
<!-- BudgetInApprovazione -->
<g id="node11" class="node">
<title>BudgetInApprovazione</title>
<path fill="none" stroke="black" d="M809.88,-381.05C809.88,-381.05 688.12,-381.05 688.12,-381.05 682.12,-381.05 676.12,-375.05 676.12,-369.05 676.12,-369.05 676.12,-357.05 676.12,-357.05 676.12,-351.05 682.12,-345.05 688.12,-345.05 688.12,-345.05 809.88,-345.05 809.88,-345.05 815.88,-345.05 821.88,-351.05 821.88,-357.05 821.88,-357.05 821.88,-369.05 821.88,-369.05 821.88,-375.05 815.88,-381.05 809.88,-381.05"/>
<text text-anchor="middle" x="749" y="-357.62" font-family="Times New Roman,serif" font-size="14.00">BudgetInApprovazione</text>
</g>
<!-- ApprovazioneBudget&#45;&gt;BudgetInApprovazione -->
<g id="edge10" class="edge">
<title>ApprovazioneBudget&#45;&gt;BudgetInApprovazione</title>
<path fill="none" stroke="black" stroke-dasharray="1,5" d="M652.59,-363.05C656.72,-363.05 660.86,-363.05 664.99,-363.05"/>
<polygon fill="black" stroke="black" points="674.72,-363.05 664.72,-367.55 670.94,-363.05 664.72,-363.05 664.72,-363.05 664.72,-363.05 670.94,-363.05 664.72,-358.55 674.72,-363.05"/>
</g>
<!-- ApprovazioneAttivita -->
<g id="node3" class="node">
<title>ApprovazioneAttivita</title>
<path fill="none" stroke="black" d="M487.25,-381.05C487.25,-381.05 376.75,-381.05 376.75,-381.05 370.75,-381.05 364.75,-375.05 364.75,-369.05 364.75,-369.05 364.75,-357.05 364.75,-357.05 364.75,-351.05 370.75,-345.05 376.75,-345.05 376.75,-345.05 487.25,-345.05 487.25,-345.05 493.25,-345.05 499.25,-351.05 499.25,-357.05 499.25,-357.05 499.25,-369.05 499.25,-369.05 499.25,-375.05 493.25,-381.05 487.25,-381.05"/>
<text text-anchor="middle" x="432" y="-357.62" font-family="Times New Roman,serif" font-size="14.00">ApprovazioneAttivita</text>
</g>
<!-- AttivitaInApprovazione -->
<g id="node13" class="node">
<title>AttivitaInApprovazione</title>
<path fill="none" stroke="black" d="M809.88,-180.52C809.88,-180.52 688.12,-180.52 688.12,-180.52 682.12,-180.52 676.12,-174.52 676.12,-168.52 676.12,-168.52 676.12,-156.52 676.12,-156.52 676.12,-150.52 682.12,-144.52 688.12,-144.52 688.12,-144.52 809.88,-144.52 809.88,-144.52 815.88,-144.52 821.88,-150.52 821.88,-156.52 821.88,-156.52 821.88,-168.52 821.88,-168.52 821.88,-174.52 815.88,-180.52 809.88,-180.52"/>
<text text-anchor="middle" x="749" y="-157.1" font-family="Times New Roman,serif" font-size="14.00">AttivitaInApprovazione</text>
</g>
<!-- ApprovazioneAttivita&#45;&gt;AttivitaInApprovazione -->
<g id="edge11" class="edge">
<title>ApprovazioneAttivita&#45;&gt;AttivitaInApprovazione</title>
<path fill="none" stroke="black" stroke-dasharray="1,5" d="M459.85,-344.61C517.05,-308.79 647.74,-226.94 711.97,-186.71"/>
<polygon fill="black" stroke="black" points="720.29,-181.5 714.2,-190.63 717.08,-183.51 711.81,-186.81 711.81,-186.81 711.81,-186.81 717.08,-183.51 709.43,-183 720.29,-181.5"/>
</g>
<!-- ConfigurazioneRiparazione -->
<g id="node4" class="node">
<title>ConfigurazioneRiparazione</title>
<path fill="none" stroke="black" d="M179.38,-604.55C179.38,-604.55 36.62,-604.55 36.62,-604.55 30.62,-604.55 24.62,-598.55 24.62,-592.55 24.62,-592.55 24.62,-580.55 24.62,-580.55 24.62,-574.55 30.62,-568.55 36.62,-568.55 36.62,-568.55 179.38,-568.55 179.38,-568.55 185.38,-568.55 191.38,-574.55 191.38,-580.55 191.38,-580.55 191.38,-592.55 191.38,-592.55 191.38,-598.55 185.38,-604.55 179.38,-604.55"/>
<text text-anchor="middle" x="108" y="-581.12" font-family="Times New Roman,serif" font-size="14.00">ConfigurazioneRiparazione</text>
</g>
<!-- DefinizioneTimeline -->
<g id="node5" class="node">
<title>DefinizioneTimeline</title>
<path fill="none" stroke="black" d="M158.75,-528.8C158.75,-528.8 57.25,-528.8 57.25,-528.8 51.25,-528.8 45.25,-522.8 45.25,-516.8 45.25,-516.8 45.25,-504.8 45.25,-504.8 45.25,-498.8 51.25,-492.8 57.25,-492.8 57.25,-492.8 158.75,-492.8 158.75,-492.8 164.75,-492.8 170.75,-498.8 170.75,-504.8 170.75,-504.8 170.75,-516.8 170.75,-516.8 170.75,-522.8 164.75,-528.8 158.75,-528.8"/>
<text text-anchor="middle" x="108" y="-505.37" font-family="Times New Roman,serif" font-size="14.00">DefinizioneTimeline</text>
</g>
<!-- ConfigurazioneRiparazione&#45;&gt;DefinizioneTimeline -->
<g id="edge2" class="edge">
<title>ConfigurazioneRiparazione&#45;&gt;DefinizioneTimeline</title>
<path fill="none" stroke="black" d="M108,-568.07C108,-559.71 108,-549.5 108,-540.07"/>
<polygon fill="black" stroke="black" points="108,-530.37 112.5,-540.37 108,-534.15 108,-540.37 108,-540.37 108,-540.37 108,-534.15 103.5,-540.37 108,-530.37"/>
</g>
<!-- AssegnazioneMonitoraggio -->
<g id="node6" class="node">
<title>AssegnazioneMonitoraggio</title>
<path fill="none" stroke="black" d="M179.75,-456.8C179.75,-456.8 36.25,-456.8 36.25,-456.8 30.25,-456.8 24.25,-450.8 24.25,-444.8 24.25,-444.8 24.25,-432.8 24.25,-432.8 24.25,-426.8 30.25,-420.8 36.25,-420.8 36.25,-420.8 179.75,-420.8 179.75,-420.8 185.75,-420.8 191.75,-426.8 191.75,-432.8 191.75,-432.8 191.75,-444.8 191.75,-444.8 191.75,-450.8 185.75,-456.8 179.75,-456.8"/>
<text text-anchor="middle" x="108" y="-433.37" font-family="Times New Roman,serif" font-size="14.00">AssegnazioneMonitoraggio</text>
</g>
<!-- DefinizioneTimeline&#45;&gt;AssegnazioneMonitoraggio -->
<g id="edge3" class="edge">
<title>DefinizioneTimeline&#45;&gt;AssegnazioneMonitoraggio</title>
<path fill="none" stroke="black" d="M108,-492.5C108,-485.12 108,-476.32 108,-468.05"/>
<polygon fill="black" stroke="black" points="108,-458.12 112.5,-468.12 108,-461.9 108,-468.12 108,-468.12 108,-468.12 108,-461.9 103.5,-468.12 108,-458.12"/>
</g>
<!-- PianificazioneAppuntamento -->
<g id="node9" class="node">
<title>PianificazioneAppuntamento</title>
<path fill="none" stroke="black" d="M839.5,-528.8C839.5,-528.8 688.5,-528.8 688.5,-528.8 682.5,-528.8 676.5,-522.8 676.5,-516.8 676.5,-516.8 676.5,-504.8 676.5,-504.8 676.5,-498.8 682.5,-492.8 688.5,-492.8 688.5,-492.8 839.5,-492.8 839.5,-492.8 845.5,-492.8 851.5,-498.8 851.5,-504.8 851.5,-504.8 851.5,-516.8 851.5,-516.8 851.5,-522.8 845.5,-528.8 839.5,-528.8"/>
<text text-anchor="middle" x="764" y="-505.37" font-family="Times New Roman,serif" font-size="14.00">PianificazioneAppuntamento</text>
</g>
<!-- DefinizioneTimeline&#45;&gt;PianificazioneAppuntamento -->
<g id="edge4" class="edge">
<title>DefinizioneTimeline&#45;&gt;PianificazioneAppuntamento</title>
<path fill="none" stroke="black" stroke-dasharray="1,5" d="M171.1,-510.8C335.88,-510.8 500.65,-510.8 665.43,-510.8"/>
<polygon fill="black" stroke="black" points="675.06,-510.8 665.06,-515.3 671.28,-510.8 665.06,-510.8 665.06,-510.8 665.06,-510.8 671.28,-510.8 665.06,-506.3 675.06,-510.8"/>
</g>
<!-- AssegnazioneMonitoraggio&#45;&gt;MonitoraggioAttivita -->
<g id="edge6" class="edge">
<title>AssegnazioneMonitoraggio&#45;&gt;MonitoraggioAttivita</title>
<path fill="none" stroke="black" stroke-dasharray="1,5" d="M183.95,-420.38C190.83,-418.1 197.6,-415.58 204,-412.8 219.42,-406.11 235.3,-396.58 248.6,-387.71"/>
<polygon fill="black" stroke="black" points="256.78,-382.12 251.07,-391.48 253.66,-384.25 248.53,-387.76 248.53,-387.76 248.53,-387.76 253.66,-384.25 245.99,-384.05 256.78,-382.12"/>
</g>
<!-- EsecuzioneRiparazione -->
<g id="node7" class="node">
<title>EsecuzioneRiparazione</title>
<path fill="none" stroke="black" d="M166.5,-381.05C166.5,-381.05 45.5,-381.05 45.5,-381.05 39.5,-381.05 33.5,-375.05 33.5,-369.05 33.5,-369.05 33.5,-357.05 33.5,-357.05 33.5,-351.05 39.5,-345.05 45.5,-345.05 45.5,-345.05 166.5,-345.05 166.5,-345.05 172.5,-345.05 178.5,-351.05 178.5,-357.05 178.5,-357.05 178.5,-369.05 178.5,-369.05 178.5,-375.05 172.5,-381.05 166.5,-381.05"/>
<text text-anchor="middle" x="106" y="-357.62" font-family="Times New Roman,serif" font-size="14.00">EsecuzioneRiparazione</text>
</g>
<!-- AssegnazioneMonitoraggio&#45;&gt;EsecuzioneRiparazione -->
<g id="edge5" class="edge">
<title>AssegnazioneMonitoraggio&#45;&gt;EsecuzioneRiparazione</title>
<path fill="none" stroke="black" d="M107.53,-420.32C107.3,-411.96 107.02,-401.75 106.77,-392.32"/>
<polygon fill="black" stroke="black" points="106.5,-382.62 111.27,-392.49 106.61,-386.4 106.77,-392.62 106.77,-392.62 106.77,-392.62 106.61,-386.4 102.28,-392.74 106.5,-382.62"/>
</g>
<!-- EsecuzioneRiparazione&#45;&gt;VerificaChiusuraRiparazione -->
<g id="edge7" class="edge">
<title>EsecuzioneRiparazione&#45;&gt;VerificaChiusuraRiparazione</title>
<path fill="none" stroke="black" stroke-dasharray="1,5" d="M105.51,-344.75C105.29,-337.37 105.04,-328.57 104.81,-320.3"/>
<polygon fill="black" stroke="black" points="104.52,-310.37 109.31,-320.24 104.63,-314.15 104.81,-320.37 104.81,-320.37 104.81,-320.37 104.63,-314.15 100.31,-320.5 104.52,-310.37"/>
</g>
<!-- end -->
<g id="node16" class="node">
<title>end</title>
<ellipse fill="lightgrey" stroke="black" cx="104" cy="-162.52" rx="70.52" ry="70.52"/>
<ellipse fill="none" stroke="black" cx="104" cy="-162.52" rx="74.52" ry="74.52"/>
<text text-anchor="middle" x="104" y="-157.1" font-family="Times New Roman,serif" font-size="14.00">FineRiparazione</text>
</g>
<!-- VerificaChiusuraRiparazione&#45;&gt;end -->
<g id="edge8" class="edge">
<title>VerificaChiusuraRiparazione&#45;&gt;end</title>
<path fill="none" stroke="black" d="M104,-272.72C104,-265.86 104,-257.44 104,-248.34"/>
<polygon fill="black" stroke="black" points="104,-238.63 108.5,-248.63 104,-242.41 104,-248.63 104,-248.63 104,-248.63 104,-242.41 99.5,-248.63 104,-238.63"/>
</g>
<!-- EsecuzioneSopralluogo -->
<g id="node10" class="node">
<title>EsecuzioneSopralluogo</title>
<path fill="none" stroke="black" d="M811.62,-456.8C811.62,-456.8 688.38,-456.8 688.38,-456.8 682.38,-456.8 676.38,-450.8 676.38,-444.8 676.38,-444.8 676.38,-432.8 676.38,-432.8 676.38,-426.8 682.38,-420.8 688.38,-420.8 688.38,-420.8 811.62,-420.8 811.62,-420.8 817.62,-420.8 823.62,-426.8 823.62,-432.8 823.62,-432.8 823.62,-444.8 823.62,-444.8 823.62,-450.8 817.62,-456.8 811.62,-456.8"/>
<text text-anchor="middle" x="750" y="-433.37" font-family="Times New Roman,serif" font-size="14.00">EsecuzioneSopralluogo</text>
</g>
<!-- PianificazioneAppuntamento&#45;&gt;EsecuzioneSopralluogo -->
<g id="edge12" class="edge">
<title>PianificazioneAppuntamento&#45;&gt;EsecuzioneSopralluogo</title>
<path fill="none" stroke="black" d="M760.54,-492.5C759.05,-485.04 757.26,-476.12 755.59,-467.76"/>
<polygon fill="black" stroke="black" points="753.66,-458.1 760.03,-467.02 754.4,-461.81 755.62,-467.9 755.62,-467.9 755.62,-467.9 754.4,-461.81 751.21,-468.79 753.66,-458.1"/>
</g>
<!-- EsecuzioneSopralluogo&#45;&gt;ApprovazioneBudget -->
<g id="edge13" class="edge">
<title>EsecuzioneSopralluogo&#45;&gt;ApprovazioneBudget</title>
<path fill="none" stroke="black" stroke-dasharray="1,5" d="M683.15,-420.31C676.59,-418.02 670.11,-415.51 664,-412.8 648.32,-405.84 632.02,-396.24 618.33,-387.4"/>
<polygon fill="black" stroke="black" points="610.33,-382.11 621.15,-383.87 613.48,-384.19 618.67,-387.62 618.67,-387.62 618.67,-387.62 613.48,-384.19 616.19,-391.38 610.33,-382.11"/>
</g>
<!-- EsecuzioneSopralluogo&#45;&gt;BudgetInApprovazione -->
<g id="edge14" class="edge">
<title>EsecuzioneSopralluogo&#45;&gt;BudgetInApprovazione</title>
<path fill="none" stroke="black" d="M749.76,-420.32C749.65,-411.96 749.51,-401.75 749.38,-392.32"/>
<polygon fill="black" stroke="black" points="749.25,-382.62 753.89,-392.56 749.3,-386.4 749.39,-392.62 749.39,-392.62 749.39,-392.62 749.3,-386.4 744.89,-392.68 749.25,-382.62"/>
</g>
<!-- EsecuzioneAttivita -->
<g id="node12" class="node">
<title>EsecuzioneAttivita</title>
<path fill="none" stroke="black" d="M796.38,-309.05C796.38,-309.05 701.62,-309.05 701.62,-309.05 695.62,-309.05 689.62,-303.05 689.62,-297.05 689.62,-297.05 689.62,-285.05 689.62,-285.05 689.62,-279.05 695.62,-273.05 701.62,-273.05 701.62,-273.05 796.38,-273.05 796.38,-273.05 802.38,-273.05 808.38,-279.05 808.38,-285.05 808.38,-285.05 808.38,-297.05 808.38,-297.05 808.38,-303.05 802.38,-309.05 796.38,-309.05"/>
<text text-anchor="middle" x="749" y="-285.62" font-family="Times New Roman,serif" font-size="14.00">EsecuzioneAttivita</text>
</g>
<!-- BudgetInApprovazione&#45;&gt;EsecuzioneAttivita -->
<g id="edge15" class="edge">
<title>BudgetInApprovazione&#45;&gt;EsecuzioneAttivita</title>
<path fill="none" stroke="black" d="M749,-344.75C749,-337.37 749,-328.57 749,-320.3"/>
<polygon fill="black" stroke="black" points="749,-310.37 753.5,-320.37 749,-314.15 749,-320.37 749,-320.37 749,-320.37 749,-314.15 744.5,-320.37 749,-310.37"/>
</g>
<!-- EsecuzioneAttivita&#45;&gt;ApprovazioneAttivita -->
<g id="edge16" class="edge">
<title>EsecuzioneAttivita&#45;&gt;ApprovazioneAttivita</title>
<path fill="none" stroke="black" stroke-dasharray="1,5" d="M689.36,-301.04C640.51,-308.93 569.8,-321.55 509,-337.05 503.91,-338.35 498.66,-339.8 493.41,-341.34"/>
<polygon fill="black" stroke="black" points="483.84,-344.22 492.11,-337.03 487.46,-343.13 493.41,-341.33 493.41,-341.33 493.41,-341.33 487.46,-343.13 494.72,-345.64 483.84,-344.22"/>
</g>
<!-- EsecuzioneAttivita&#45;&gt;AttivitaInApprovazione -->
<g id="edge17" class="edge">
<title>EsecuzioneAttivita&#45;&gt;AttivitaInApprovazione</title>
<path fill="none" stroke="black" d="M749,-272.72C749,-251.81 749,-216.35 749,-191.53"/>
<polygon fill="black" stroke="black" points="749,-181.86 753.5,-191.86 749,-185.64 749,-191.86 749,-191.86 749,-191.86 749,-185.64 744.5,-191.86 749,-181.86"/>
</g>
<!-- AttivitaCompletata -->
<g id="node14" class="node">
<title>AttivitaCompletata</title>
<path fill="none" stroke="black" d="M796.75,-52C796.75,-52 701.25,-52 701.25,-52 695.25,-52 689.25,-46 689.25,-40 689.25,-40 689.25,-28 689.25,-28 689.25,-22 695.25,-16 701.25,-16 701.25,-16 796.75,-16 796.75,-16 802.75,-16 808.75,-22 808.75,-28 808.75,-28 808.75,-40 808.75,-40 808.75,-46 802.75,-52 796.75,-52"/>
<text text-anchor="middle" x="749" y="-28.57" font-family="Times New Roman,serif" font-size="14.00">AttivitaCompletata</text>
</g>
<!-- AttivitaInApprovazione&#45;&gt;AttivitaCompletata -->
<g id="edge18" class="edge">
<title>AttivitaInApprovazione&#45;&gt;AttivitaCompletata</title>
<path fill="none" stroke="black" d="M749,-144.2C749,-123.28 749,-87.83 749,-63.01"/>
<polygon fill="black" stroke="black" points="749,-53.34 753.5,-63.34 749,-57.12 749,-63.34 749,-63.34 749,-63.34 749,-57.12 744.5,-63.34 749,-53.34"/>
</g>
<!-- start -->
<g id="node15" class="node">
<title>start</title>
<ellipse fill="lightgrey" stroke="black" cx="108" cy="-721.31" rx="77.01" ry="77.01"/>
<text text-anchor="middle" x="108" y="-715.89" font-family="Times New Roman,serif" font-size="14.00">AvvioRiparazione</text>
</g>
<!-- start&#45;&gt;ConfigurazioneRiparazione -->
<g id="edge1" class="edge">
<title>start&#45;&gt;ConfigurazioneRiparazione</title>
<path fill="none" stroke="black" d="M108,-643.85C108,-633.82 108,-624.11 108,-615.65"/>
<polygon fill="black" stroke="black" points="108,-605.85 112.5,-615.85 108,-609.63 108,-615.85 108,-615.85 108,-615.85 108,-609.63 103.5,-615.85 108,-605.85"/>
</g>
</g>
</svg>
