<?xml version="1.0" encoding="UTF-8" standalone="no"?>
<!DOCTYPE svg PUBLIC "-//W3C//DTD SVG 1.1//EN"
 "http://www.w3.org/Graphics/SVG/1.1/DTD/svg11.dtd">
<!-- Generated by graphviz version 9.0.0 (20230911.1827)
 -->
<!-- Title: finite_state_machine Pages: 1 -->
<svg width="123pt" height="360pt"
 viewBox="0.00 0.00 122.83 360.00" xmlns="http://www.w3.org/2000/svg" xmlns:xlink="http://www.w3.org/1999/xlink">
<g id="graph0" class="graph" transform="scale(0.238506 0.238506) rotate(0) translate(4 1505.4)">
<title>finite_state_machine</title>
<polygon fill="white" stroke="none" points="-4,4 -4,-1505.4 511,-1505.4 511,4 -4,4"/>
<text text-anchor="middle" x="253.5" y="-6.45" font-family="Times New Roman,serif" font-size="14.00">Closing</text>
<!-- Expertise -->
<g id="node1" class="node">
<title>Expertise</title>
<polygon fill="lightgrey" stroke="black" points="123.89,-1501.4 56.14,-1501.4 56.14,-1465.4 123.89,-1465.4 123.89,-1501.4"/>
<text text-anchor="middle" x="90.02" y="-1477.97" font-family="Times New Roman,serif" font-size="14.00">Expertise</text>
</g>
<!-- AvvioChiusura -->
<g id="node2" class="node">
<title>AvvioChiusura</title>
<ellipse fill="none" stroke="black" cx="90.02" cy="-1358.36" rx="66.03" ry="66.03"/>
<ellipse fill="none" stroke="black" cx="90.02" cy="-1358.36" rx="70.03" ry="70.03"/>
<text text-anchor="middle" x="90.02" y="-1352.94" font-family="Times New Roman,serif" font-size="14.00">AvvioChiusura</text>
</g>
<!-- Expertise&#45;&gt;AvvioChiusura -->
<g id="edge2" class="edge">
<title>Expertise&#45;&gt;AvvioChiusura</title>
<path fill="none" stroke="black" d="M90.02,-1465.03C90.02,-1458.06 90.02,-1449.49 90.02,-1440.28"/>
<polygon fill="black" stroke="black" points="93.52,-1440.3 90.02,-1430.3 86.52,-1440.3 93.52,-1440.3"/>
</g>
<!-- InvioAtto -->
<g id="node3" class="node">
<title>InvioAtto</title>
<ellipse fill="none" stroke="black" cx="90.02" cy="-1190.51" rx="46.07" ry="46.07"/>
<text text-anchor="middle" x="90.02" y="-1185.08" font-family="Times New Roman,serif" font-size="14.00">InvioAtto</text>
</g>
<!-- AvvioChiusura&#45;&gt;InvioAtto -->
<g id="edge1" class="edge">
<title>AvvioChiusura&#45;&gt;InvioAtto</title>
<path fill="none" stroke="black" d="M90.02,-1287.99C90.02,-1274.8 90.02,-1261.15 90.02,-1248.4"/>
<polygon fill="black" stroke="black" points="93.52,-1248.51 90.02,-1238.51 86.52,-1248.51 93.52,-1248.51"/>
<text text-anchor="middle" x="135.77" y="-1257.03" font-family="Times New Roman,serif" font-size="14.00">ChiusuraAvviata</text>
</g>
<!-- AttesaRicezioneAtto -->
<g id="node4" class="node">
<title>AttesaRicezioneAtto</title>
<ellipse fill="none" stroke="black" cx="90.02" cy="-1005.69" rx="86.99" ry="86.99"/>
<text text-anchor="middle" x="90.02" y="-1000.27" font-family="Times New Roman,serif" font-size="14.00">AttesaRicezioneAtto</text>
</g>
<!-- InvioAtto&#45;&gt;AttesaRicezioneAtto -->
<g id="edge3" class="edge">
<title>InvioAtto&#45;&gt;AttesaRicezioneAtto</title>
<path fill="none" stroke="black" d="M90.02,-1144.32C90.02,-1132.05 90.02,-1118.28 90.02,-1104.31"/>
<polygon fill="black" stroke="black" points="93.52,-1104.61 90.02,-1094.61 86.52,-1104.61 93.52,-1104.61"/>
<text text-anchor="middle" x="121.52" y="-1113.13" font-family="Times New Roman,serif" font-size="14.00">AttoInviato</text>
</g>
<!-- VerificaChiusura -->
<g id="node5" class="node">
<title>VerificaChiusura</title>
<ellipse fill="none" stroke="black" cx="74.02" cy="-317.51" rx="72.52" ry="72.52"/>
<text text-anchor="middle" x="74.02" y="-312.09" font-family="Times New Roman,serif" font-size="14.00">VerificaChiusura</text>
</g>
<!-- AttesaRicezioneAtto&#45;&gt;VerificaChiusura -->
<g id="edge4" class="edge">
<title>AttesaRicezioneAtto&#45;&gt;VerificaChiusura</title>
<path fill="none" stroke="black" d="M88.01,-918.48C84.91,-785.57 79,-532.33 75.95,-401.44"/>
<polygon fill="black" stroke="black" points="79.46,-401.74 75.73,-391.82 72.46,-401.9 79.46,-401.74"/>
<text text-anchor="middle" x="135.64" y="-643.7" font-family="Times New Roman,serif" font-size="14.00">AccordoRaggiunto</text>
</g>
<!-- GestioneContestazione -->
<g id="node6" class="node">
<title>GestioneContestazione</title>
<ellipse fill="none" stroke="black" cx="201.02" cy="-770.98" rx="95.97" ry="95.97"/>
<text text-anchor="middle" x="201.02" y="-765.55" font-family="Times New Roman,serif" font-size="14.00">GestioneContestazione</text>
</g>
<!-- AttesaRicezioneAtto&#45;&gt;GestioneContestazione -->
<g id="edge5" class="edge">
<title>AttesaRicezioneAtto&#45;&gt;GestioneContestazione</title>
<path fill="none" stroke="black" d="M127.29,-926.55C136.2,-907.86 145.83,-887.69 155.08,-868.28"/>
<polygon fill="black" stroke="black" points="158.23,-869.81 159.38,-859.27 151.91,-866.79 158.23,-869.81"/>
<text text-anchor="middle" x="211.64" y="-887.4" font-family="Times New Roman,serif" font-size="14.00">AccordoNonRaggiunto</text>
</g>
<!-- VerificaChiusura&#45;&gt;VerificaChiusura -->
<g id="edge6" class="edge">
<title>VerificaChiusura&#45;&gt;VerificaChiusura</title>
<path fill="none" stroke="black" d="M143.85,-338.58C156.05,-335.77 164.54,-328.75 164.54,-317.51 164.54,-309.96 160.71,-304.32 154.49,-300.57"/>
<polygon fill="black" stroke="black" points="155.85,-297.34 145.26,-296.99 153.32,-303.87 155.85,-297.34"/>
<text text-anchor="middle" x="232.79" y="-312.09" font-family="Times New Roman,serif" font-size="14.00">DatiObbligatoriMancanti</text>
</g>
<!-- ChiusuraIncarico -->
<g id="node7" class="node">
<title>ChiusuraIncarico</title>
<ellipse fill="none" stroke="black" cx="74.02" cy="-97.77" rx="74.02" ry="74.02"/>
<text text-anchor="middle" x="74.02" y="-92.34" font-family="Times New Roman,serif" font-size="14.00">ChiusuraIncarico</text>
</g>
<!-- VerificaChiusura&#45;&gt;ChiusuraIncarico -->
<g id="edge7" class="edge">
<title>VerificaChiusura&#45;&gt;ChiusuraIncarico</title>
<path fill="none" stroke="black" d="M74.02,-244.61C74.02,-225.05 74.02,-203.69 74.02,-183.49"/>
<polygon fill="black" stroke="black" points="77.52,-183.6 74.02,-173.6 70.52,-183.6 77.52,-183.6"/>
<text text-anchor="middle" x="125.39" y="-192.24" font-family="Times New Roman,serif" font-size="14.00">ChiusuraVerificata</text>
</g>
<!-- GestioneRevisione -->
<g id="node8" class="node">
<title>GestioneRevisione</title>
<ellipse fill="none" stroke="black" cx="204.02" cy="-543.25" rx="80.01" ry="80.01"/>
<text text-anchor="middle" x="204.02" y="-537.82" font-family="Times New Roman,serif" font-size="14.00">GestioneRevisione</text>
</g>
<!-- GestioneContestazione&#45;&gt;GestioneRevisione -->
<g id="edge8" class="edge">
<title>GestioneContestazione&#45;&gt;GestioneRevisione</title>
<path fill="none" stroke="black" d="M202.29,-674.57C202.46,-661.45 202.64,-648.01 202.81,-634.97"/>
<polygon fill="black" stroke="black" points="206.31,-635.2 202.94,-625.15 199.31,-635.11 206.31,-635.2"/>
<text text-anchor="middle" x="261.89" y="-643.7" font-family="Times New Roman,serif" font-size="14.00">ContestazioneGestita</text>
</g>
<!-- GestioneRevisione&#45;&gt;VerificaChiusura -->
<g id="edge9" class="edge">
<title>GestioneRevisione&#45;&gt;VerificaChiusura</title>
<path fill="none" stroke="black" d="M164.13,-473.6C148.77,-447.17 131.21,-416.94 115.69,-390.23"/>
<polygon fill="black" stroke="black" points="118.88,-388.76 110.83,-381.87 112.83,-392.28 118.88,-388.76"/>
<text text-anchor="middle" x="191.64" y="-431.94" font-family="Times New Roman,serif" font-size="14.00">InvioInChiusura</text>
</g>
<!-- SceltaServizioManuale -->
<g id="node9" class="node">
<title>SceltaServizioManuale</title>
<ellipse fill="none" stroke="black" cx="413.02" cy="-317.51" rx="93.98" ry="93.98"/>
<text text-anchor="middle" x="413.02" y="-312.09" font-family="Times New Roman,serif" font-size="14.00">SceltaServizioManuale</text>
</g>
<!-- GestioneRevisione&#45;&gt;SceltaServizioManuale -->
<g id="edge10" class="edge">
<title>GestioneRevisione&#45;&gt;SceltaServizioManuale</title>
<path fill="none" stroke="black" d="M258.38,-484.05C283.81,-456.83 314.43,-424.05 341.69,-394.87"/>
<polygon fill="black" stroke="black" points="343.98,-397.55 348.25,-387.85 338.86,-392.77 343.98,-397.55"/>
<text text-anchor="middle" x="361.64" y="-431.94" font-family="Times New Roman,serif" font-size="14.00">NuoviAccertamenti</text>
</g>
</g>
</svg>
