<?xml version="1.0" encoding="UTF-8" standalone="no"?>
<!DOCTYPE svg PUBLIC "-//W3C//DTD SVG 1.1//EN"
 "http://www.w3.org/Graphics/SVG/1.1/DTD/svg11.dtd">
<!-- Generated by graphviz version 9.0.0 (20230911.1827)
 -->
<!-- Title: finite_state_machine Pages: 1 -->
<svg width="576pt" height="325pt"
 viewBox="0.00 0.00 576.00 325.42" xmlns="http://www.w3.org/2000/svg" xmlns:xlink="http://www.w3.org/1999/xlink">
<g id="graph0" class="graph" transform="scale(0.488809 0.488809) rotate(0) translate(4 661.75)">
<title>finite_state_machine</title>
<polygon fill="white" stroke="none" points="-4,4 -4,-661.75 1174.38,-661.75 1174.38,4 -4,4"/>
<text text-anchor="middle" x="585.19" y="-8.2" font-family="Times New Roman,serif" font-size="24.00">Chiusura e riapertura</text>
<g id="clust5" class="cluster">
<title>cluster_chiusura</title>
<polygon fill="none" stroke="black" points="354.88,-43 354.88,-338.5 634.88,-338.5 634.88,-43 354.88,-43"/>
<text text-anchor="middle" x="494.88" y="-311.7" font-family="Times New Roman,serif" font-size="24.00">CHIUSURA</text>
</g>
<g id="clust2" class="cluster">
<title>cluster_riapertura</title>
<polygon fill="none" stroke="black" points="48.88,-251.5 48.88,-580 235.88,-580 235.88,-251.5 48.88,-251.5"/>
<text text-anchor="middle" x="142.38" y="-553.2" font-family="Times New Roman,serif" font-size="24.00">RIAPERTURA</text>
</g>
<g id="clust4" class="cluster">
<title>cluster_perizia_2</title>
<polygon fill="lightgrey" stroke="black" points="681.88,-43 681.88,-130 1109.88,-130 1109.88,-43 681.88,-43"/>
<text text-anchor="middle" x="895.88" y="-103.2" font-family="Times New Roman,serif" font-size="24.00">(nuova) PERIZIA</text>
</g>
<g id="clust3" class="cluster">
<title>cluster_perizia_1</title>
<polygon fill="lightgrey" stroke="black" points="433.88,-372.25 433.88,-459.25 789.88,-459.25 789.88,-372.25 433.88,-372.25"/>
<text text-anchor="middle" x="611.88" y="-432.45" font-family="Times New Roman,serif" font-size="24.00">(fine) PERIZIA</text>
</g>
<!-- CreazioneManualeIncarico -->
<g id="node1" class="node">
<title>CreazioneManualeIncarico</title>
<polygon fill="lightgrey" stroke="black" points="163.75,-657.75 0,-657.75 0,-621.75 163.75,-621.75 163.75,-657.75"/>
<text text-anchor="middle" x="81.88" y="-634.33" font-family="Times New Roman,serif" font-size="14.00">CreazioneManualeIncarico</text>
</g>
<!-- GestioneRiapertura -->
<g id="node5" class="node">
<title>GestioneRiapertura</title>
<path fill="none" stroke="black" d="M215.5,-537C215.5,-537 116.25,-537 116.25,-537 110.25,-537 104.25,-531 104.25,-525 104.25,-525 104.25,-513 104.25,-513 104.25,-507 110.25,-501 116.25,-501 116.25,-501 215.5,-501 215.5,-501 221.5,-501 227.5,-507 227.5,-513 227.5,-513 227.5,-525 227.5,-525 227.5,-531 221.5,-537 215.5,-537"/>
<text text-anchor="middle" x="165.88" y="-513.58" font-family="Times New Roman,serif" font-size="14.00">GestioneRiapertura</text>
</g>
<!-- CreazioneManualeIncarico&#45;&gt;GestioneRiapertura -->
<g id="edge1" class="edge">
<title>CreazioneManualeIncarico&#45;&gt;GestioneRiapertura</title>
<path fill="none" stroke="black" d="M94.09,-621.48C108.02,-601.78 130.97,-569.34 147.17,-546.45"/>
<polygon fill="black" stroke="black" points="149.85,-548.71 152.77,-538.52 144.14,-544.67 149.85,-548.71"/>
<text text-anchor="middle" x="169" y="-590.45" font-family="Times New Roman,serif" font-size="14.00">RiaperturaManaule</text>
</g>
<!-- RiaperturaAutomatica -->
<g id="node2" class="node">
<title>RiaperturaAutomatica</title>
<polygon fill="lightgrey" stroke="black" points="319.62,-657.75 182.12,-657.75 182.12,-621.75 319.62,-621.75 319.62,-657.75"/>
<text text-anchor="middle" x="250.88" y="-634.33" font-family="Times New Roman,serif" font-size="14.00">RiaperturaAutomatica</text>
</g>
<!-- RiaperturaAutomatica&#45;&gt;GestioneRiapertura -->
<g id="edge2" class="edge">
<title>RiaperturaAutomatica&#45;&gt;GestioneRiapertura</title>
<path fill="none" stroke="black" d="M243.19,-621.25C238.47,-611.19 231.97,-598.5 224.88,-588 214.81,-573.1 201.87,-557.85 190.68,-545.58"/>
<polygon fill="black" stroke="black" points="193.31,-543.27 183.93,-538.33 188.18,-548.04 193.31,-543.27"/>
<text text-anchor="middle" x="294.62" y="-590.45" font-family="Times New Roman,serif" font-size="14.00">RiaperturaAutomatica</text>
</g>
<!-- ACCERTAMENTI -->
<g id="node3" class="node">
<title>ACCERTAMENTI</title>
<polygon fill="lightgrey" stroke="black" points="880.62,-657.75 755.12,-657.75 755.12,-621.75 880.62,-621.75 880.62,-657.75"/>
<text text-anchor="middle" x="817.88" y="-634.33" font-family="Times New Roman,serif" font-size="14.00">ACCERTAMENTI</text>
</g>
<!-- VerificaChiusura -->
<g id="node15" class="node">
<title>VerificaChiusura</title>
<path fill="none" stroke="black" d="M460.38,-207.75C460.38,-207.75 375.38,-207.75 375.38,-207.75 369.38,-207.75 363.38,-201.75 363.38,-195.75 363.38,-195.75 363.38,-183.75 363.38,-183.75 363.38,-177.75 369.38,-171.75 375.38,-171.75 375.38,-171.75 460.38,-171.75 460.38,-171.75 466.38,-171.75 472.38,-177.75 472.38,-183.75 472.38,-183.75 472.38,-195.75 472.38,-195.75 472.38,-201.75 466.38,-207.75 460.38,-207.75"/>
<text text-anchor="middle" x="417.88" y="-184.32" font-family="Times New Roman,serif" font-size="14.00">VerificaChiusura</text>
</g>
<!-- ACCERTAMENTI&#45;&gt;VerificaChiusura -->
<g id="edge3" class="edge">
<title>ACCERTAMENTI&#45;&gt;VerificaChiusura</title>
<path fill="none" stroke="black" d="M817.88,-621.44C817.88,-598.32 817.88,-556.08 817.88,-520 817.88,-520 817.88,-520 817.88,-276.5 817.88,-263.77 814.33,-258.78 803.88,-251.5 753.32,-216.3 580.22,-200.47 483.9,-194.24"/>
<polygon fill="black" stroke="black" points="484.25,-190.76 474.05,-193.62 483.82,-197.74 484.25,-190.76"/>
<text text-anchor="middle" x="883.12" y="-392.82" font-family="Times New Roman,serif" font-size="14.00">Chiusura Post SelfCare</text>
</g>
<!-- RIPARAZIONE -->
<g id="node4" class="node">
<title>RIPARAZIONE</title>
<polygon fill="lightgrey" stroke="black" points="1039.38,-657.75 930.38,-657.75 930.38,-621.75 1039.38,-621.75 1039.38,-657.75"/>
<text text-anchor="middle" x="984.88" y="-634.33" font-family="Times New Roman,serif" font-size="14.00">RIPARAZIONE</text>
</g>
<!-- RIPARAZIONE&#45;&gt;VerificaChiusura -->
<g id="edge4" class="edge">
<title>RIPARAZIONE&#45;&gt;VerificaChiusura</title>
<path fill="none" stroke="black" d="M988.1,-621.44C995.58,-575.75 1009.46,-450.08 952.88,-372.25 931.86,-343.34 906.03,-362.86 879.88,-338.5 847.56,-308.4 864.51,-281.25 831.88,-251.5 810.73,-232.23 800.56,-232.96 772.88,-225.75 745.7,-218.67 578.83,-204.05 483.86,-196.13"/>
<polygon fill="black" stroke="black" points="484.41,-192.67 474.15,-195.33 483.83,-199.64 484.41,-192.67"/>
<text text-anchor="middle" x="1033.62" y="-392.82" font-family="Times New Roman,serif" font-size="14.00">ChiusuraAvviata</text>
</g>
<!-- GestioneContestazione -->
<g id="node6" class="node">
<title>GestioneContestazione</title>
<path fill="none" stroke="black" d="M189,-416.25C189,-416.25 68.75,-416.25 68.75,-416.25 62.75,-416.25 56.75,-410.25 56.75,-404.25 56.75,-404.25 56.75,-392.25 56.75,-392.25 56.75,-386.25 62.75,-380.25 68.75,-380.25 68.75,-380.25 189,-380.25 189,-380.25 195,-380.25 201,-386.25 201,-392.25 201,-392.25 201,-404.25 201,-404.25 201,-410.25 195,-416.25 189,-416.25"/>
<text text-anchor="middle" x="128.88" y="-392.82" font-family="Times New Roman,serif" font-size="14.00">GestioneContestazione</text>
</g>
<!-- GestioneRiapertura&#45;&gt;GestioneContestazione -->
<g id="edge16" class="edge">
<title>GestioneRiapertura&#45;&gt;GestioneContestazione</title>
<path fill="none" stroke="black" d="M160.49,-500.73C154.49,-481.47 144.7,-450.03 137.6,-427.25"/>
<polygon fill="black" stroke="black" points="141.03,-426.49 134.71,-417.98 134.35,-428.57 141.03,-426.49"/>
<text text-anchor="middle" x="220" y="-469.7" font-family="Times New Roman,serif" font-size="14.00">GestioneContestazione</text>
</g>
<!-- EsecuzionePerizia -->
<g id="node11" class="node">
<title>EsecuzionePerizia</title>
<polygon fill="lightgrey" stroke="black" points="951.75,-87 836,-87 836,-51 951.75,-51 951.75,-87"/>
<text text-anchor="middle" x="893.88" y="-63.58" font-family="Times New Roman,serif" font-size="14.00">EsecuzionePerizia</text>
</g>
<!-- GestioneRiapertura&#45;&gt;EsecuzionePerizia -->
<g id="edge15" class="edge">
<title>GestioneRiapertura&#45;&gt;EsecuzionePerizia</title>
<path fill="none" stroke="black" d="M227.96,-514.9C284.31,-510.9 362.1,-502.04 385.88,-483 427.22,-449.89 387.07,-403.44 429.88,-372.25 456.88,-352.58 547.31,-369.69 579.88,-362.25 740.67,-325.51 806.79,-297.94 886.88,-153.75 896.11,-137.12 897.75,-115.71 897.14,-98.7"/>
<polygon fill="black" stroke="black" points="900.64,-98.48 896.48,-88.73 893.65,-98.95 900.64,-98.48"/>
<text text-anchor="middle" x="870" y="-272.07" font-family="Times New Roman,serif" font-size="14.00">PeriziaIntegrazione</text>
</g>
<!-- SceltaManualeServizio -->
<g id="node18" class="node">
<title>SceltaManualeServizio</title>
<path fill="none" stroke="black" d="M373.5,-416.25C373.5,-416.25 256.25,-416.25 256.25,-416.25 250.25,-416.25 244.25,-410.25 244.25,-404.25 244.25,-404.25 244.25,-392.25 244.25,-392.25 244.25,-386.25 250.25,-380.25 256.25,-380.25 256.25,-380.25 373.5,-380.25 373.5,-380.25 379.5,-380.25 385.5,-386.25 385.5,-392.25 385.5,-392.25 385.5,-404.25 385.5,-404.25 385.5,-410.25 379.5,-416.25 373.5,-416.25"/>
<text text-anchor="middle" x="314.88" y="-392.82" font-family="Times New Roman,serif" font-size="14.00">SceltaManualeServizio</text>
</g>
<!-- GestioneRiapertura&#45;&gt;SceltaManualeServizio -->
<g id="edge17" class="edge">
<title>GestioneRiapertura&#45;&gt;SceltaManualeServizio</title>
<path fill="none" stroke="black" d="M227.99,-512.14C249.3,-507.28 271.81,-498.56 287.88,-483 302.75,-468.6 309.44,-445.98 312.45,-427.87"/>
<polygon fill="black" stroke="black" points="315.91,-428.36 313.77,-417.99 308.97,-427.43 315.91,-428.36"/>
<text text-anchor="middle" x="340.75" y="-469.7" font-family="Times New Roman,serif" font-size="14.00">NonRiapertura</text>
</g>
<!-- FinalizzaContestazione -->
<g id="node7" class="node">
<title>FinalizzaContestazione</title>
<path fill="none" stroke="black" d="M201.25,-295.5C201.25,-295.5 82.5,-295.5 82.5,-295.5 76.5,-295.5 70.5,-289.5 70.5,-283.5 70.5,-283.5 70.5,-271.5 70.5,-271.5 70.5,-265.5 76.5,-259.5 82.5,-259.5 82.5,-259.5 201.25,-259.5 201.25,-259.5 207.25,-259.5 213.25,-265.5 213.25,-271.5 213.25,-271.5 213.25,-283.5 213.25,-283.5 213.25,-289.5 207.25,-295.5 201.25,-295.5"/>
<text text-anchor="middle" x="141.88" y="-272.07" font-family="Times New Roman,serif" font-size="14.00">FinalizzaContestazione</text>
</g>
<!-- GestioneContestazione&#45;&gt;FinalizzaContestazione -->
<g id="edge19" class="edge">
<title>GestioneContestazione&#45;&gt;FinalizzaContestazione</title>
<path fill="none" stroke="black" d="M130.77,-379.98C132.85,-360.9 136.25,-329.86 138.74,-307.12"/>
<polygon fill="black" stroke="black" points="142.21,-307.61 139.82,-297.29 135.25,-306.85 142.21,-307.61"/>
<text text-anchor="middle" x="211.38" y="-348.95" font-family="Times New Roman,serif" font-size="14.00">ContestazioneDaFinalizzare</text>
</g>
<!-- PeriziaContestazione -->
<g id="node13" class="node">
<title>PeriziaContestazione</title>
<polygon fill="lightgrey" stroke="black" points="1101.62,-87 970.12,-87 970.12,-51 1101.62,-51 1101.62,-87"/>
<text text-anchor="middle" x="1035.88" y="-63.58" font-family="Times New Roman,serif" font-size="14.00">PeriziaContestazione</text>
</g>
<!-- GestioneContestazione&#45;&gt;PeriziaContestazione -->
<g id="edge18" class="edge">
<title>GestioneContestazione&#45;&gt;PeriziaContestazione</title>
<path fill="none" stroke="black" d="M193.52,-379.81C207.09,-376.77 221.38,-374.02 234.88,-372.25 277.61,-366.65 978.78,-368.34 1009.88,-338.5 1075.52,-275.52 1056.51,-153.53 1043.53,-98.34"/>
<polygon fill="black" stroke="black" points="1046.96,-97.65 1041.16,-88.79 1040.17,-99.34 1046.96,-97.65"/>
<text text-anchor="middle" x="1112.62" y="-228.2" font-family="Times New Roman,serif" font-size="14.00">PeriziaContestazione</text>
</g>
<!-- FinalizzaContestazione&#45;&gt;VerificaChiusura -->
<g id="edge20" class="edge">
<title>FinalizzaContestazione&#45;&gt;VerificaChiusura</title>
<path fill="none" stroke="black" d="M187.09,-259.11C214.7,-248.79 250.83,-235.8 283.38,-225.75 305.56,-218.9 330.08,-212.25 352.03,-206.63"/>
<polygon fill="black" stroke="black" points="352.62,-210.09 361.45,-204.24 350.9,-203.3 352.62,-210.09"/>
<text text-anchor="middle" x="329.62" y="-228.2" font-family="Times New Roman,serif" font-size="14.00">ChiusuraAvviata</text>
</g>
<!-- ComunicazioneEsito -->
<g id="node8" class="node">
<title>ComunicazioneEsito</title>
<polygon fill="lightgrey" stroke="black" points="782.25,-416.25 651.5,-416.25 651.5,-380.25 782.25,-380.25 782.25,-416.25"/>
<text text-anchor="middle" x="716.88" y="-392.82" font-family="Times New Roman,serif" font-size="14.00">ComunicazioneEsito</text>
</g>
<!-- ComunicazioneEsito&#45;&gt;VerificaChiusura -->
<g id="edge5" class="edge">
<title>ComunicazioneEsito&#45;&gt;VerificaChiusura</title>
<path fill="none" stroke="black" d="M664.2,-379.85C642.89,-370.51 619.61,-357.03 603.62,-338.5 569.02,-298.37 604.12,-261.35 564.88,-225.75 543.02,-205.92 511.98,-196.76 484.05,-192.72"/>
<polygon fill="black" stroke="black" points="484.58,-189.26 474.22,-191.51 483.72,-196.21 484.58,-189.26"/>
<text text-anchor="middle" x="703" y="-272.07" font-family="Times New Roman,serif" font-size="14.00">AccordoRaggiunto&#45;o&#45;NonRichiesto</text>
</g>
<!-- InvioEmailEsito -->
<g id="node9" class="node">
<title>InvioEmailEsito</title>
<polygon fill="lightgrey" stroke="black" points="545.75,-416.25 442,-416.25 442,-380.25 545.75,-380.25 545.75,-416.25"/>
<text text-anchor="middle" x="493.88" y="-392.82" font-family="Times New Roman,serif" font-size="14.00">InvioEmailEsito</text>
</g>
<!-- AttesaRicezioneAtto -->
<g id="node14" class="node">
<title>AttesaRicezioneAtto</title>
<path fill="none" stroke="black" d="M525.25,-295.5C525.25,-295.5 418.5,-295.5 418.5,-295.5 412.5,-295.5 406.5,-289.5 406.5,-283.5 406.5,-283.5 406.5,-271.5 406.5,-271.5 406.5,-265.5 412.5,-259.5 418.5,-259.5 418.5,-259.5 525.25,-259.5 525.25,-259.5 531.25,-259.5 537.25,-265.5 537.25,-271.5 537.25,-271.5 537.25,-283.5 537.25,-283.5 537.25,-289.5 531.25,-295.5 525.25,-295.5"/>
<text text-anchor="middle" x="471.88" y="-272.07" font-family="Times New Roman,serif" font-size="14.00">AttesaRicezioneAtto</text>
</g>
<!-- InvioEmailEsito&#45;&gt;AttesaRicezioneAtto -->
<g id="edge6" class="edge">
<title>InvioEmailEsito&#45;&gt;AttesaRicezioneAtto</title>
<path fill="none" stroke="black" d="M441.68,-391.39C423.52,-386.55 404.94,-377.85 393.88,-362.25 378.18,-340.12 401.42,-317.77 426.53,-301.73"/>
<polygon fill="black" stroke="black" points="428.12,-304.86 434.87,-296.69 424.5,-298.87 428.12,-304.86"/>
<text text-anchor="middle" x="441.88" y="-348.95" font-family="Times New Roman,serif" font-size="14.00">EmailEsitoInviata</text>
</g>
<!-- InvioAtto -->
<g id="node10" class="node">
<title>InvioAtto</title>
<polygon fill="lightgrey" stroke="black" points="633.5,-416.25 564.25,-416.25 564.25,-380.25 633.5,-380.25 633.5,-416.25"/>
<text text-anchor="middle" x="598.88" y="-392.82" font-family="Times New Roman,serif" font-size="14.00">InvioAtto</text>
</g>
<!-- InvioAtto&#45;&gt;AttesaRicezioneAtto -->
<g id="edge7" class="edge">
<title>InvioAtto&#45;&gt;AttesaRicezioneAtto</title>
<path fill="none" stroke="black" d="M571.06,-379.89C565.81,-377.07 560.27,-374.38 554.88,-372.25 537.02,-365.22 527.86,-374.24 512.88,-362.25 495.47,-348.33 484.93,-325.17 478.9,-306.73"/>
<polygon fill="black" stroke="black" points="482.27,-305.75 476.07,-297.16 475.55,-307.74 482.27,-305.75"/>
<text text-anchor="middle" x="544.38" y="-348.95" font-family="Times New Roman,serif" font-size="14.00">AttoInviato</text>
</g>
<!-- ConciliazionePerizia -->
<g id="node12" class="node">
<title>ConciliazionePerizia</title>
<polygon fill="lightgrey" stroke="black" points="817.75,-87 690,-87 690,-51 817.75,-51 817.75,-87"/>
<text text-anchor="middle" x="753.88" y="-63.58" font-family="Times New Roman,serif" font-size="14.00">ConciliazionePerizia</text>
</g>
<!-- AttesaRicezioneAtto&#45;&gt;ConciliazionePerizia -->
<g id="edge8" class="edge">
<title>AttesaRicezioneAtto&#45;&gt;ConciliazionePerizia</title>
<path fill="none" stroke="black" d="M533.47,-259.07C566.04,-247.87 605.47,-231.01 635.88,-207.75 677.67,-175.77 715.18,-126.85 736.19,-96.73"/>
<polygon fill="black" stroke="black" points="739.04,-98.76 741.81,-88.53 733.27,-94.8 739.04,-98.76"/>
<text text-anchor="middle" x="732.38" y="-184.32" font-family="Times New Roman,serif" font-size="14.00">ConciliazioneAvviata</text>
</g>
<!-- AttesaRicezioneAtto&#45;&gt;VerificaChiusura -->
<g id="edge9" class="edge">
<title>AttesaRicezioneAtto&#45;&gt;VerificaChiusura</title>
<path fill="none" stroke="black" d="M406.43,-262.17C396.65,-257.21 387.8,-250.51 381.62,-241.5 376.01,-233.3 379.08,-224.45 385.33,-216.48"/>
<polygon fill="black" stroke="black" points="387.75,-219.02 392.07,-209.35 382.66,-214.22 387.75,-219.02"/>
<text text-anchor="middle" x="416" y="-228.2" font-family="Times New Roman,serif" font-size="14.00">AttoFirmato</text>
</g>
<!-- AttesaRicezioneAtto&#45;&gt;VerificaChiusura -->
<g id="edge10" class="edge">
<title>AttesaRicezioneAtto&#45;&gt;VerificaChiusura</title>
<path fill="none" stroke="black" d="M466.07,-259.33C462.23,-249.15 456.66,-236.23 449.88,-225.75 447.86,-222.64 445.57,-219.54 443.15,-216.55"/>
<polygon fill="black" stroke="black" points="445.9,-214.37 436.7,-209.11 440.61,-218.96 445.9,-214.37"/>
<text text-anchor="middle" x="509.25" y="-228.2" font-family="Times New Roman,serif" font-size="14.00">ForzaturaChiusura</text>
</g>
<!-- VerificaChiusura&#45;&gt;EsecuzionePerizia -->
<g id="edge11" class="edge">
<title>VerificaChiusura&#45;&gt;EsecuzionePerizia</title>
<path fill="none" stroke="black" d="M472.53,-181.75C580.25,-167.84 810.97,-137.42 826.88,-130 844.12,-121.95 860.13,-107.97 872.17,-95.53"/>
<polygon fill="black" stroke="black" points="874.59,-98.07 878.82,-88.36 869.45,-93.32 874.59,-98.07"/>
<text text-anchor="middle" x="833.38" y="-140.45" font-family="Times New Roman,serif" font-size="14.00">PeriziaIncompleta</text>
</g>
<!-- VerificaChiusura&#45;&gt;VerificaChiusura -->
<g id="edge12" class="edge">
<title>VerificaChiusura&#45;&gt;VerificaChiusura</title>
<path fill="none" stroke="black" d="M472.57,-197.58C483,-196.65 490.38,-194.03 490.38,-189.75 490.38,-187.27 487.91,-185.36 483.82,-184"/>
<polygon fill="black" stroke="black" points="484.53,-180.57 474.06,-182.19 483.26,-187.45 484.53,-180.57"/>
<text text-anchor="middle" x="558.62" y="-184.32" font-family="Times New Roman,serif" font-size="14.00">DatiObbligatoriMancanti</text>
</g>
<!-- ChiusuraAutomatica -->
<g id="node16" class="node">
<title>ChiusuraAutomatica</title>
<path fill="none" stroke="black" d="M480.5,-87C480.5,-87 375.25,-87 375.25,-87 369.25,-87 363.25,-81 363.25,-75 363.25,-75 363.25,-63 363.25,-63 363.25,-57 369.25,-51 375.25,-51 375.25,-51 480.5,-51 480.5,-51 486.5,-51 492.5,-57 492.5,-63 492.5,-63 492.5,-75 492.5,-75 492.5,-81 486.5,-87 480.5,-87"/>
<text text-anchor="middle" x="427.88" y="-63.58" font-family="Times New Roman,serif" font-size="14.00">ChiusuraAutomatica</text>
</g>
<!-- VerificaChiusura&#45;&gt;ChiusuraAutomatica -->
<g id="edge13" class="edge">
<title>VerificaChiusura&#45;&gt;ChiusuraAutomatica</title>
<path fill="none" stroke="black" d="M406.35,-171.28C403.4,-165.88 400.64,-159.77 399.12,-153.75 397.42,-146.96 397.73,-144.86 399.12,-138 401.93,-124.15 407.65,-109.62 413.26,-97.56"/>
<polygon fill="black" stroke="black" points="416.38,-99.15 417.62,-88.63 410.09,-96.08 416.38,-99.15"/>
<text text-anchor="middle" x="450.25" y="-140.45" font-family="Times New Roman,serif" font-size="14.00">ChiusuraVerificata</text>
</g>
<!-- ChiusuraManuale -->
<g id="node17" class="node">
<title>ChiusuraManuale</title>
<path fill="none" stroke="black" d="M610.88,-87C610.88,-87 522.88,-87 522.88,-87 516.88,-87 510.88,-81 510.88,-75 510.88,-75 510.88,-63 510.88,-63 510.88,-57 516.88,-51 522.88,-51 522.88,-51 610.88,-51 610.88,-51 616.88,-51 622.88,-57 622.88,-63 622.88,-63 622.88,-75 622.88,-75 622.88,-81 616.88,-87 610.88,-87"/>
<text text-anchor="middle" x="566.88" y="-63.58" font-family="Times New Roman,serif" font-size="14.00">ChiusuraManuale</text>
</g>
<!-- VerificaChiusura&#45;&gt;ChiusuraManuale -->
<g id="edge14" class="edge">
<title>VerificaChiusura&#45;&gt;ChiusuraManuale</title>
<path fill="none" stroke="black" d="M471.23,-171.4C481.95,-166.61 492.71,-160.76 501.88,-153.75 522.14,-138.26 539.51,-115 551.18,-96.92"/>
<polygon fill="black" stroke="black" points="554.1,-98.85 556.42,-88.52 548.16,-95.15 554.1,-98.85"/>
<text text-anchor="middle" x="570.25" y="-140.45" font-family="Times New Roman,serif" font-size="14.00">ChiusuraVerificata</text>
</g>
</g>
</svg>
