<?xml version="1.0" encoding="UTF-8" standalone="no"?>
<!DOCTYPE svg PUBLIC "-//W3C//DTD SVG 1.1//EN"
 "http://www.w3.org/Graphics/SVG/1.1/DTD/svg11.dtd">
<!-- Generated by graphviz version 9.0.0 (20230911.1827)
 -->
<!-- Title: finite_state_machine Pages: 1 -->
<svg width="411pt" height="360pt"
 viewBox="0.00 0.00 411.10 360.00" xmlns="http://www.w3.org/2000/svg" xmlns:xlink="http://www.w3.org/1999/xlink">
<g id="graph0" class="graph" transform="scale(0.563821 0.563821) rotate(0) translate(4 634.5)">
<title>finite_state_machine</title>
<polygon fill="white" stroke="none" points="-4,4 -4,-634.5 725.12,-634.5 725.12,4 -4,4"/>
<text text-anchor="middle" x="360.56" y="-8.2" font-family="Times New Roman,serif" font-size="24.00">Schema globale stati</text>
<g id="clust1" class="cluster">
<title>cluster_chiusura</title>
<polygon fill="none" stroke="black" points="250.62,-114.75 250.62,-552.75 556.62,-552.75 556.62,-114.75 250.62,-114.75"/>
<text text-anchor="middle" x="403.62" y="-525.95" font-family="Times New Roman,serif" font-size="24.00">CHIUSURA e RIAPERTURA</text>
</g>
<!-- AvvioChiusura -->
<g id="node1" class="node">
<title>AvvioChiusura</title>
<path fill="none" stroke="black" d="M412.25,-246.5C412.25,-246.5 337,-246.5 337,-246.5 331,-246.5 325,-240.5 325,-234.5 325,-234.5 325,-222.5 325,-222.5 325,-216.5 331,-210.5 337,-210.5 337,-210.5 412.25,-210.5 412.25,-210.5 418.25,-210.5 424.25,-216.5 424.25,-222.5 424.25,-222.5 424.25,-234.5 424.25,-234.5 424.25,-240.5 418.25,-246.5 412.25,-246.5"/>
<text text-anchor="middle" x="374.62" y="-223.07" font-family="Times New Roman,serif" font-size="14.00">AvvioChiusura</text>
</g>
<!-- VerificaChiusura -->
<g id="node2" class="node">
<title>VerificaChiusura</title>
<path fill="none" stroke="black" d="M369.12,-158.75C369.12,-158.75 284.12,-158.75 284.12,-158.75 278.12,-158.75 272.12,-152.75 272.12,-146.75 272.12,-146.75 272.12,-134.75 272.12,-134.75 272.12,-128.75 278.12,-122.75 284.12,-122.75 284.12,-122.75 369.12,-122.75 369.12,-122.75 375.12,-122.75 381.12,-128.75 381.12,-134.75 381.12,-134.75 381.12,-146.75 381.12,-146.75 381.12,-152.75 375.12,-158.75 369.12,-158.75"/>
<text text-anchor="middle" x="326.62" y="-135.32" font-family="Times New Roman,serif" font-size="14.00">VerificaChiusura</text>
</g>
<!-- AvvioChiusura&#45;&gt;VerificaChiusura -->
<g id="edge5" class="edge">
<title>AvvioChiusura&#45;&gt;VerificaChiusura</title>
<path fill="none" stroke="black" d="M364.91,-210.15C358.28,-198.29 349.35,-182.34 341.78,-168.83"/>
<polygon fill="black" stroke="black" points="345,-167.41 337.06,-160.4 338.89,-170.83 345,-167.41"/>
<text text-anchor="middle" x="400.38" y="-179.2" font-family="Times New Roman,serif" font-size="14.00">ChiusuraAvviata</text>
</g>
<!-- VerificaChiusura&#45;&gt;VerificaChiusura -->
<g id="edge8" class="edge">
<title>VerificaChiusura&#45;&gt;VerificaChiusura</title>
<path fill="none" stroke="black" d="M381.32,-148.58C391.75,-147.65 399.12,-145.03 399.12,-140.75 399.12,-138.27 396.66,-136.36 392.57,-135"/>
<polygon fill="black" stroke="black" points="393.28,-131.57 382.81,-133.19 392.01,-138.45 393.28,-131.57"/>
<text text-anchor="middle" x="467.38" y="-135.32" font-family="Times New Roman,serif" font-size="14.00">DatiObbligatoriMancanti</text>
</g>
<!-- ChiusuraManuale -->
<g id="node10" class="node">
<title>ChiusuraManuale</title>
<polygon fill="lightgrey" stroke="black" points="312.62,-71 200.62,-71 200.62,-35 312.62,-35 312.62,-71"/>
<text text-anchor="middle" x="256.62" y="-47.58" font-family="Times New Roman,serif" font-size="14.00">ChiusuraManuale</text>
</g>
<!-- VerificaChiusura&#45;&gt;ChiusuraManuale -->
<g id="edge6" class="edge">
<title>VerificaChiusura&#45;&gt;ChiusuraManuale</title>
<path fill="none" stroke="black" d="M275.14,-122.43C267.88,-117.81 261.38,-112 256.88,-104.75 252.8,-98.19 251.49,-90.17 251.52,-82.46"/>
<polygon fill="black" stroke="black" points="254.99,-82.99 252.31,-72.74 248.02,-82.43 254.99,-82.99"/>
<text text-anchor="middle" x="308" y="-91.45" font-family="Times New Roman,serif" font-size="14.00">ChiusuraVerificata</text>
</g>
<!-- ChiusuraAutomatica -->
<g id="node11" class="node">
<title>ChiusuraAutomatica</title>
<polygon fill="lightgrey" stroke="black" points="460.25,-71 331,-71 331,-35 460.25,-35 460.25,-71"/>
<text text-anchor="middle" x="395.62" y="-47.58" font-family="Times New Roman,serif" font-size="14.00">ChiusuraAutomatica</text>
</g>
<!-- VerificaChiusura&#45;&gt;ChiusuraAutomatica -->
<g id="edge7" class="edge">
<title>VerificaChiusura&#45;&gt;ChiusuraAutomatica</title>
<path fill="none" stroke="black" d="M346.75,-122.44C352.5,-117.05 358.57,-110.9 363.62,-104.75 369.67,-97.39 375.48,-88.82 380.45,-80.84"/>
<polygon fill="black" stroke="black" points="383.32,-82.85 385.47,-72.47 377.32,-79.25 383.32,-82.85"/>
<text text-anchor="middle" x="425" y="-91.45" font-family="Times New Roman,serif" font-size="14.00">ChiusuraVerificata</text>
</g>
<!-- PERIZIA -->
<g id="node12" class="node">
<title>PERIZIA</title>
<polygon fill="lightgrey" stroke="black" points="242.25,-334.25 173,-334.25 173,-298.25 242.25,-298.25 242.25,-334.25"/>
<text text-anchor="middle" x="207.62" y="-310.82" font-family="Times New Roman,serif" font-size="14.00">PERIZIA</text>
</g>
<!-- VerificaChiusura&#45;&gt;PERIZIA -->
<g id="edge9" class="edge">
<title>VerificaChiusura&#45;&gt;PERIZIA</title>
<path fill="none" stroke="black" d="M279.83,-159.14C256.83,-170.21 231.02,-186.97 216.62,-210.5 202.72,-233.23 201.75,-264.09 203.48,-286.43"/>
<polygon fill="black" stroke="black" points="199.99,-286.76 204.5,-296.35 206.96,-286.04 199.99,-286.76"/>
<text text-anchor="middle" x="266.12" y="-223.07" font-family="Times New Roman,serif" font-size="14.00">PeriziaIncompleta</text>
</g>
<!-- GestioneRiapertura -->
<g id="node3" class="node">
<title>GestioneRiapertura</title>
<path fill="none" stroke="black" d="M370.25,-509.75C370.25,-509.75 271,-509.75 271,-509.75 265,-509.75 259,-503.75 259,-497.75 259,-497.75 259,-485.75 259,-485.75 259,-479.75 265,-473.75 271,-473.75 271,-473.75 370.25,-473.75 370.25,-473.75 376.25,-473.75 382.25,-479.75 382.25,-485.75 382.25,-485.75 382.25,-497.75 382.25,-497.75 382.25,-503.75 376.25,-509.75 370.25,-509.75"/>
<text text-anchor="middle" x="320.62" y="-486.32" font-family="Times New Roman,serif" font-size="14.00">GestioneRiapertura</text>
</g>
<!-- GestioneContestazione -->
<g id="node4" class="node">
<title>GestioneContestazione</title>
<path fill="none" stroke="black" d="M431.75,-422C431.75,-422 311.5,-422 311.5,-422 305.5,-422 299.5,-416 299.5,-410 299.5,-410 299.5,-398 299.5,-398 299.5,-392 305.5,-386 311.5,-386 311.5,-386 431.75,-386 431.75,-386 437.75,-386 443.75,-392 443.75,-398 443.75,-398 443.75,-410 443.75,-410 443.75,-416 437.75,-422 431.75,-422"/>
<text text-anchor="middle" x="371.62" y="-398.57" font-family="Times New Roman,serif" font-size="14.00">GestioneContestazione</text>
</g>
<!-- GestioneRiapertura&#45;&gt;GestioneContestazione -->
<g id="edge10" class="edge">
<title>GestioneRiapertura&#45;&gt;GestioneContestazione</title>
<path fill="none" stroke="black" d="M330.95,-473.4C338,-461.54 347.48,-445.59 355.52,-432.08"/>
<polygon fill="black" stroke="black" points="358.44,-434.01 360.55,-423.63 352.43,-430.43 358.44,-434.01"/>
<text text-anchor="middle" x="414.75" y="-442.45" font-family="Times New Roman,serif" font-size="14.00">GestioneContestazione</text>
</g>
<!-- GestioneRiapertura&#45;&gt;PERIZIA -->
<g id="edge12" class="edge">
<title>GestioneRiapertura&#45;&gt;PERIZIA</title>
<path fill="none" stroke="black" d="M258.65,-474.94C231.52,-464.6 202.29,-448.03 186.38,-422 171.98,-398.46 181.48,-366.93 191.96,-344.64"/>
<polygon fill="black" stroke="black" points="195.01,-346.36 196.41,-335.86 188.77,-343.2 195.01,-346.36"/>
<text text-anchor="middle" x="238.75" y="-398.57" font-family="Times New Roman,serif" font-size="14.00">PeriziaIntegrazione</text>
</g>
<!-- SceltaManualeServizio -->
<g id="node13" class="node">
<title>SceltaManualeServizio</title>
<path fill="none" stroke="black" d="M129.25,-422C129.25,-422 12,-422 12,-422 6,-422 0,-416 0,-410 0,-410 0,-398 0,-398 0,-392 6,-386 12,-386 12,-386 129.25,-386 129.25,-386 135.25,-386 141.25,-392 141.25,-398 141.25,-398 141.25,-410 141.25,-410 141.25,-416 135.25,-422 129.25,-422"/>
<text text-anchor="middle" x="70.62" y="-398.57" font-family="Times New Roman,serif" font-size="14.00">SceltaManualeServizio</text>
</g>
<!-- GestioneRiapertura&#45;&gt;SceltaManualeServizio -->
<g id="edge11" class="edge">
<title>GestioneRiapertura&#45;&gt;SceltaManualeServizio</title>
<path fill="none" stroke="black" d="M258.61,-489.44C196.56,-486.81 106.84,-478.96 81.88,-455.75 75.77,-450.07 72.6,-441.87 71.05,-433.72"/>
<polygon fill="black" stroke="black" points="74.55,-433.54 69.97,-423.99 67.6,-434.32 74.55,-433.54"/>
<text text-anchor="middle" x="123.5" y="-442.45" font-family="Times New Roman,serif" font-size="14.00">NonRiapertura</text>
</g>
<!-- FinalizzaContestazione -->
<g id="node5" class="node">
<title>FinalizzaContestazione</title>
<path fill="none" stroke="black" d="M425,-334.25C425,-334.25 306.25,-334.25 306.25,-334.25 300.25,-334.25 294.25,-328.25 294.25,-322.25 294.25,-322.25 294.25,-310.25 294.25,-310.25 294.25,-304.25 300.25,-298.25 306.25,-298.25 306.25,-298.25 425,-298.25 425,-298.25 431,-298.25 437,-304.25 437,-310.25 437,-310.25 437,-322.25 437,-322.25 437,-328.25 431,-334.25 425,-334.25"/>
<text text-anchor="middle" x="365.62" y="-310.82" font-family="Times New Roman,serif" font-size="14.00">FinalizzaContestazione</text>
</g>
<!-- GestioneContestazione&#45;&gt;FinalizzaContestazione -->
<g id="edge13" class="edge">
<title>GestioneContestazione&#45;&gt;FinalizzaContestazione</title>
<path fill="none" stroke="black" d="M367.45,-385.66C366.3,-380.06 365.2,-373.8 364.62,-368 363.92,-360.92 363.76,-353.26 363.87,-346.09"/>
<polygon fill="black" stroke="black" points="367.37,-346.3 364.21,-336.18 360.37,-346.06 367.37,-346.3"/>
<text text-anchor="middle" x="441.12" y="-354.7" font-family="Times New Roman,serif" font-size="14.00">ContestazioneDaFinalizzare</text>
</g>
<!-- GestioneContestazione&#45;&gt;PERIZIA -->
<g id="edge14" class="edge">
<title>GestioneContestazione&#45;&gt;PERIZIA</title>
<path fill="none" stroke="black" d="M299.15,-387.5C275.93,-381.6 253.74,-374.68 244.12,-368 235.32,-361.88 227.87,-352.92 222.05,-344.23"/>
<polygon fill="black" stroke="black" points="225.2,-342.66 216.97,-335.98 219.24,-346.33 225.2,-342.66"/>
<text text-anchor="middle" x="301.38" y="-354.7" font-family="Times New Roman,serif" font-size="14.00">PeriziaContestazione</text>
</g>
<!-- FinalizzaContestazione&#45;&gt;AvvioChiusura -->
<g id="edge15" class="edge">
<title>FinalizzaContestazione&#45;&gt;AvvioChiusura</title>
<path fill="none" stroke="black" d="M367.45,-297.9C368.64,-286.51 370.23,-271.34 371.61,-258.18"/>
<polygon fill="black" stroke="black" points="375.09,-258.64 372.65,-248.33 368.12,-257.91 375.09,-258.64"/>
<text text-anchor="middle" x="416.38" y="-266.95" font-family="Times New Roman,serif" font-size="14.00">ChiusuraAvviata</text>
</g>
<!-- CreazioneManualeIncarico -->
<g id="node6" class="node">
<title>CreazioneManualeIncarico</title>
<polygon fill="lightgrey" stroke="black" points="265.5,-630.5 101.75,-630.5 101.75,-594.5 265.5,-594.5 265.5,-630.5"/>
<text text-anchor="middle" x="183.62" y="-607.08" font-family="Times New Roman,serif" font-size="14.00">CreazioneManualeIncarico</text>
</g>
<!-- CreazioneManualeIncarico&#45;&gt;GestioneRiapertura -->
<g id="edge1" class="edge">
<title>CreazioneManualeIncarico&#45;&gt;GestioneRiapertura</title>
<path fill="none" stroke="black" d="M198.06,-594.32C206.96,-584.13 218.83,-571.21 230.38,-560.75 247.8,-544.97 268.68,-529.07 285.97,-516.61"/>
<polygon fill="black" stroke="black" points="287.81,-519.6 293.92,-510.95 283.75,-513.89 287.81,-519.6"/>
<text text-anchor="middle" x="282.75" y="-563.2" font-family="Times New Roman,serif" font-size="14.00">RiaperturaManaule</text>
</g>
<!-- RiaperturaAutomatica -->
<g id="node7" class="node">
<title>RiaperturaAutomatica</title>
<polygon fill="lightgrey" stroke="black" points="421.38,-630.5 283.88,-630.5 283.88,-594.5 421.38,-594.5 421.38,-630.5"/>
<text text-anchor="middle" x="352.62" y="-607.08" font-family="Times New Roman,serif" font-size="14.00">RiaperturaAutomatica</text>
</g>
<!-- RiaperturaAutomatica&#45;&gt;GestioneRiapertura -->
<g id="edge2" class="edge">
<title>RiaperturaAutomatica&#45;&gt;GestioneRiapertura</title>
<path fill="none" stroke="black" d="M347.97,-594.23C342.81,-575.06 334.39,-543.82 328.25,-521.06"/>
<polygon fill="black" stroke="black" points="331.66,-520.24 325.68,-511.5 324.9,-522.07 331.66,-520.24"/>
<text text-anchor="middle" x="403.38" y="-563.2" font-family="Times New Roman,serif" font-size="14.00">RiaperturaAutomatica</text>
</g>
<!-- ACCERTAMENTI -->
<g id="node8" class="node">
<title>ACCERTAMENTI</title>
<polygon fill="lightgrey" stroke="black" points="594.38,-630.5 468.88,-630.5 468.88,-594.5 594.38,-594.5 594.38,-630.5"/>
<text text-anchor="middle" x="531.62" y="-607.08" font-family="Times New Roman,serif" font-size="14.00">ACCERTAMENTI</text>
</g>
<!-- ACCERTAMENTI&#45;&gt;AvvioChiusura -->
<g id="edge3" class="edge">
<title>ACCERTAMENTI&#45;&gt;AvvioChiusura</title>
<path fill="none" stroke="black" d="M531.62,-594.19C531.62,-571.07 531.62,-528.83 531.62,-492.75 531.62,-492.75 531.62,-492.75 531.62,-315.25 531.62,-269.58 479.83,-248.09 435.74,-238.06"/>
<polygon fill="black" stroke="black" points="436.72,-234.69 426.21,-236.06 435.28,-241.54 436.72,-234.69"/>
</g>
<!-- RIPARAZIONE -->
<g id="node9" class="node">
<title>RIPARAZIONE</title>
<polygon fill="lightgrey" stroke="black" points="721.12,-630.5 612.12,-630.5 612.12,-594.5 721.12,-594.5 721.12,-630.5"/>
<text text-anchor="middle" x="666.62" y="-607.08" font-family="Times New Roman,serif" font-size="14.00">RIPARAZIONE</text>
</g>
<!-- RIPARAZIONE&#45;&gt;AvvioChiusura -->
<g id="edge4" class="edge">
<title>RIPARAZIONE&#45;&gt;AvvioChiusura</title>
<path fill="none" stroke="black" d="M666.62,-594.19C666.62,-571.07 666.62,-528.83 666.62,-492.75 666.62,-492.75 666.62,-492.75 666.62,-315.25 666.62,-267.58 521.53,-244.51 435.9,-235.04"/>
<polygon fill="black" stroke="black" points="436.31,-231.56 425.99,-233.98 435.57,-238.52 436.31,-231.56"/>
</g>
<!-- PERIZIA&#45;&gt;AvvioChiusura -->
<g id="edge16" class="edge">
<title>PERIZIA&#45;&gt;AvvioChiusura</title>
<path fill="none" stroke="black" d="M241.42,-297.9C267.14,-284.69 302.75,-266.4 330.68,-252.06"/>
<polygon fill="black" stroke="black" points="331.95,-255.35 339.25,-247.67 328.75,-249.12 331.95,-255.35"/>
</g>
</g>
</svg>
