<?xml version="1.0" encoding="UTF-8" standalone="no"?>
<!DOCTYPE svg PUBLIC "-//W3C//DTD SVG 1.1//EN"
 "http://www.w3.org/Graphics/SVG/1.1/DTD/svg11.dtd">
<!-- Generated by graphviz version 9.0.0 (20230911.1827)
 -->
<!-- Title: finite_state_machine Pages: 1 -->
<svg width="148pt" height="360pt"
 viewBox="0.00 0.00 147.83 360.00" xmlns="http://www.w3.org/2000/svg" xmlns:xlink="http://www.w3.org/1999/xlink">
<g id="graph0" class="graph" transform="scale(0.208477 0.208477) rotate(0) translate(4 1722.81)">
<title>finite_state_machine</title>
<polygon fill="white" stroke="none" points="-4,4 -4,-1722.81 705.09,-1722.81 705.09,4 -4,4"/>
<text text-anchor="middle" x="350.55" y="-6.45" font-family="Times New Roman,serif" font-size="14.00">Closing</text>
<!-- AvvioChiusura -->
<g id="node1" class="node">
<title>AvvioChiusura</title>
<ellipse fill="none" stroke="black" cx="279.59" cy="-544.25" rx="66.03" ry="66.03"/>
<ellipse fill="none" stroke="black" cx="279.59" cy="-544.25" rx="70.03" ry="70.03"/>
<text text-anchor="middle" x="279.59" y="-538.83" font-family="Times New Roman,serif" font-size="14.00">AvvioChiusura</text>
</g>
<!-- VerificaChiusura -->
<g id="node2" class="node">
<title>VerificaChiusura</title>
<ellipse fill="none" stroke="black" cx="279.59" cy="-349.95" rx="72.52" ry="72.52"/>
<text text-anchor="middle" x="279.59" y="-344.52" font-family="Times New Roman,serif" font-size="14.00">VerificaChiusura</text>
</g>
<!-- AvvioChiusura&#45;&gt;VerificaChiusura -->
<g id="edge1" class="edge">
<title>AvvioChiusura&#45;&gt;VerificaChiusura</title>
<path fill="none" stroke="black" d="M279.59,-473.83C279.59,-461.01 279.59,-447.51 279.59,-434.33"/>
<polygon fill="black" stroke="black" points="283.09,-434.38 279.59,-424.38 276.09,-434.38 283.09,-434.38"/>
<text text-anchor="middle" x="325.34" y="-442.92" font-family="Times New Roman,serif" font-size="14.00">ChiusuraAvviata</text>
</g>
<!-- VerificaChiusura&#45;&gt;VerificaChiusura -->
<g id="edge3" class="edge">
<title>VerificaChiusura&#45;&gt;VerificaChiusura</title>
<path fill="none" stroke="black" d="M350.56,-367.02C362.15,-364.57 370.11,-358.88 370.11,-349.95 370.11,-344.08 366.68,-339.62 361.05,-336.55"/>
<polygon fill="black" stroke="black" points="362.58,-333.38 351.99,-333.38 360.27,-339.98 362.58,-333.38"/>
<text text-anchor="middle" x="438.36" y="-344.52" font-family="Times New Roman,serif" font-size="14.00">DatiObbligatoriMancanti</text>
</g>
<!-- ChiusuraManuale -->
<g id="node5" class="node">
<title>ChiusuraManuale</title>
<ellipse fill="none" stroke="black" cx="100.59" cy="-124.71" rx="74.52" ry="74.52"/>
<text text-anchor="middle" x="100.59" y="-119.29" font-family="Times New Roman,serif" font-size="14.00">ChiusuraManuale</text>
</g>
<!-- VerificaChiusura&#45;&gt;ChiusuraManuale -->
<g id="edge4" class="edge">
<title>VerificaChiusura&#45;&gt;ChiusuraManuale</title>
<path fill="none" stroke="black" d="M221.06,-306.58C204.26,-292.73 186.75,-276.48 172.84,-259.43 159,-242.45 146.53,-222.42 136.01,-203.1"/>
<polygon fill="black" stroke="black" points="139.18,-201.61 131.4,-194.42 133,-204.9 139.18,-201.61"/>
<text text-anchor="middle" x="224.97" y="-246.13" font-family="Times New Roman,serif" font-size="14.00">ChiusuraVerificata</text>
</g>
<!-- ChiusuraAutomatica -->
<g id="node6" class="node">
<title>ChiusuraAutomatica</title>
<ellipse fill="none" stroke="black" cx="279.59" cy="-124.71" rx="85.99" ry="85.99"/>
<text text-anchor="middle" x="279.59" y="-119.29" font-family="Times New Roman,serif" font-size="14.00">ChiusuraAutomatica</text>
</g>
<!-- VerificaChiusura&#45;&gt;ChiusuraAutomatica -->
<g id="edge5" class="edge">
<title>VerificaChiusura&#45;&gt;ChiusuraAutomatica</title>
<path fill="none" stroke="black" d="M279.59,-277.09C279.59,-259.67 279.59,-240.77 279.59,-222.42"/>
<polygon fill="black" stroke="black" points="283.09,-222.59 279.59,-212.59 276.09,-222.59 283.09,-222.59"/>
<text text-anchor="middle" x="330.97" y="-246.13" font-family="Times New Roman,serif" font-size="14.00">ChiusuraVerificata</text>
</g>
<!-- EseguiPeriziaIncompleta -->
<g id="node7" class="node">
<title>EseguiPeriziaIncompleta</title>
<ellipse fill="none" stroke="black" cx="484.59" cy="-124.71" rx="100.96" ry="100.96"/>
<text text-anchor="middle" x="484.59" y="-119.29" font-family="Times New Roman,serif" font-size="14.00">EseguiPeriziaIncompleta</text>
</g>
<!-- VerificaChiusura&#45;&gt;EseguiPeriziaIncompleta -->
<g id="edge6" class="edge">
<title>VerificaChiusura&#45;&gt;EseguiPeriziaIncompleta</title>
<path fill="none" stroke="black" d="M337.13,-305.13C353.83,-291.29 371.6,-275.42 386.59,-259.43 398.66,-246.56 410.56,-232.19 421.69,-217.78"/>
<polygon fill="black" stroke="black" points="424.33,-220.09 427.6,-210.02 418.76,-215.85 424.33,-220.09"/>
<text text-anchor="middle" x="469.09" y="-246.13" font-family="Times New Roman,serif" font-size="14.00">PeriziaIncompletaAvviata</text>
</g>
<!-- Riapertura -->
<g id="node3" class="node">
<title>Riapertura</title>
<ellipse fill="none" stroke="black" cx="599.59" cy="-1609.87" rx="49.07" ry="49.07"/>
<ellipse fill="none" stroke="black" cx="599.59" cy="-1609.87" rx="53.07" ry="53.07"/>
<text text-anchor="middle" x="599.59" y="-1604.44" font-family="Times New Roman,serif" font-size="14.00">Riapertura</text>
</g>
<!-- Expertise -->
<g id="node4" class="node">
<title>Expertise</title>
<ellipse fill="none" stroke="black" cx="263.59" cy="-761.01" rx="45.08" ry="45.08"/>
<text text-anchor="middle" x="263.59" y="-755.59" font-family="Times New Roman,serif" font-size="14.00">Expertise</text>
</g>
<!-- Expertise&#45;&gt;AvvioChiusura -->
<g id="edge2" class="edge">
<title>Expertise&#45;&gt;AvvioChiusura</title>
<path fill="none" stroke="black" d="M266.89,-715.77C268.83,-689.75 271.34,-656.04 273.62,-625.48"/>
<polygon fill="black" stroke="black" points="277.08,-626.12 274.33,-615.89 270.1,-625.6 277.08,-626.12"/>
</g>
<!-- RiaperturaAutomatica -->
<g id="node8" class="node">
<title>RiaperturaAutomatica</title>
<ellipse fill="none" stroke="black" cx="201.59" cy="-1609.87" rx="91.48" ry="91.48"/>
<text text-anchor="middle" x="201.59" y="-1604.44" font-family="Times New Roman,serif" font-size="14.00">RiaperturaAutomatica</text>
</g>
<!-- SelezioneTipoRiapertura -->
<g id="node9" class="node">
<title>SelezioneTipoRiapertura</title>
<ellipse fill="none" stroke="black" cx="310.59" cy="-1347.21" rx="101.96" ry="101.96"/>
<text text-anchor="middle" x="310.59" y="-1341.78" font-family="Times New Roman,serif" font-size="14.00">SelezioneTipoRiapertura</text>
</g>
<!-- RiaperturaAutomatica&#45;&gt;SelezioneTipoRiapertura -->
<g id="edge7" class="edge">
<title>RiaperturaAutomatica&#45;&gt;SelezioneTipoRiapertura</title>
<path fill="none" stroke="black" d="M236.68,-1524.96C246.43,-1501.65 257.13,-1476.06 267.29,-1451.77"/>
<polygon fill="black" stroke="black" points="270.39,-1453.42 271.02,-1442.84 263.93,-1450.72 270.39,-1453.42"/>
<text text-anchor="middle" x="320.34" y="-1469.62" font-family="Times New Roman,serif" font-size="14.00">RiaperturaAutomatica</text>
</g>
<!-- EseguiPerizia -->
<g id="node10" class="node">
<title>EseguiPerizia</title>
<ellipse fill="none" stroke="black" cx="386.59" cy="-761.01" rx="59.55" ry="59.55"/>
<text text-anchor="middle" x="386.59" y="-755.59" font-family="Times New Roman,serif" font-size="14.00">EseguiPerizia</text>
</g>
<!-- SelezioneTipoRiapertura&#45;&gt;EseguiPerizia -->
<g id="edge8" class="edge">
<title>SelezioneTipoRiapertura&#45;&gt;EseguiPerizia</title>
<path fill="none" stroke="black" d="M213.21,-1315.66C155.95,-1292.12 88.31,-1253.27 54.34,-1193.5 -8.4,-1083.07 -26.34,-1005.82 54.34,-907.74 130.09,-815.65 216.94,-919.91 317.59,-855.99 330.79,-847.6 342.31,-835.72 351.96,-823.22"/>
<polygon fill="black" stroke="black" points="354.69,-825.41 357.76,-815.27 349.03,-821.29 354.69,-825.41"/>
<text text-anchor="middle" x="106.72" y="-1045.19" font-family="Times New Roman,serif" font-size="14.00">IntegrazionePerizia</text>
</g>
<!-- SceltaManualeServizioEseguiPerizia -->
<g id="node11" class="node">
<title>SceltaManualeServizioEseguiPerizia</title>
<ellipse fill="none" stroke="black" cx="310.59" cy="-1050.62" rx="142.88" ry="142.88"/>
<text text-anchor="middle" x="310.59" y="-1045.19" font-family="Times New Roman,serif" font-size="14.00">SceltaManualeServizioEseguiPerizia</text>
</g>
<!-- SelezioneTipoRiapertura&#45;&gt;SceltaManualeServizioEseguiPerizia -->
<g id="edge9" class="edge">
<title>SelezioneTipoRiapertura&#45;&gt;SceltaManualeServizioEseguiPerizia</title>
<path fill="none" stroke="black" d="M310.59,-1244.83C310.59,-1231.95 310.59,-1218.56 310.59,-1205.1"/>
<polygon fill="black" stroke="black" points="314.09,-1205.3 310.59,-1195.3 307.09,-1205.3 314.09,-1205.3"/>
<text text-anchor="middle" x="351.47" y="-1213.95" font-family="Times New Roman,serif" font-size="14.00">NonRiapertura</text>
</g>
<!-- GestioneContestazione -->
<g id="node12" class="node">
<title>GestioneContestazione</title>
<ellipse fill="none" stroke="black" cx="567.59" cy="-1050.62" rx="95.97" ry="95.97"/>
<text text-anchor="middle" x="567.59" y="-1045.19" font-family="Times New Roman,serif" font-size="14.00">GestioneContestazione</text>
</g>
<!-- SelezioneTipoRiapertura&#45;&gt;GestioneContestazione -->
<g id="edge10" class="edge">
<title>SelezioneTipoRiapertura&#45;&gt;GestioneContestazione</title>
<path fill="none" stroke="black" d="M384.35,-1276.41C409.96,-1251.07 438.33,-1221.72 462.59,-1193.5 477.36,-1176.32 492.35,-1157.24 506.2,-1138.78"/>
<polygon fill="black" stroke="black" points="508.84,-1141.1 512,-1130.99 503.22,-1136.92 508.84,-1141.1"/>
<text text-anchor="middle" x="506.72" y="-1213.95" font-family="Times New Roman,serif" font-size="14.00">GestioneContestazione</text>
</g>
<!-- GestioneContestazione&#45;&gt;EseguiPerizia -->
<g id="edge12" class="edge">
<title>GestioneContestazione&#45;&gt;EseguiPerizia</title>
<path fill="none" stroke="black" d="M520.04,-966.94C504.15,-945.13 484.76,-923.36 462.59,-907.74 440.01,-891.83 420.95,-910.82 403.09,-889.74 389.62,-873.83 383.77,-852.57 381.78,-831.96"/>
<polygon fill="black" stroke="black" points="385.28,-831.88 381.15,-822.13 378.3,-832.33 385.28,-831.88"/>
<text text-anchor="middle" x="481.34" y="-876.44" font-family="Times New Roman,serif" font-size="14.00">PeriziaContestazioneAvviata</text>
</g>
<!-- FinalizzaContestazione -->
<g id="node14" class="node">
<title>FinalizzaContestazione</title>
<ellipse fill="none" stroke="black" cx="563.59" cy="-761.01" rx="94.98" ry="94.98"/>
<text text-anchor="middle" x="563.59" y="-755.59" font-family="Times New Roman,serif" font-size="14.00">FinalizzaContestazione</text>
</g>
<!-- GestioneContestazione&#45;&gt;FinalizzaContestazione -->
<g id="edge13" class="edge">
<title>GestioneContestazione&#45;&gt;FinalizzaContestazione</title>
<path fill="none" stroke="black" d="M566.27,-954.25C565.88,-926.39 565.45,-895.78 565.06,-867.34"/>
<polygon fill="black" stroke="black" points="568.56,-867.61 564.92,-857.66 561.56,-867.7 568.56,-867.61"/>
<text text-anchor="middle" x="632.84" y="-876.44" font-family="Times New Roman,serif" font-size="14.00">ContestazioneFinalizzata</text>
</g>
<!-- CreazioneManualeIncarico -->
<g id="node13" class="node">
<title>CreazioneManualeIncarico</title>
<ellipse fill="none" stroke="black" cx="419.59" cy="-1609.87" rx="108.95" ry="108.95"/>
<text text-anchor="middle" x="419.59" y="-1604.44" font-family="Times New Roman,serif" font-size="14.00">CreazioneManualeIncarico</text>
</g>
<!-- CreazioneManualeIncarico&#45;&gt;SelezioneTipoRiapertura -->
<g id="edge11" class="edge">
<title>CreazioneManualeIncarico&#45;&gt;SelezioneTipoRiapertura</title>
<path fill="none" stroke="black" d="M398.19,-1502.78C394.54,-1490.58 390.36,-1478.47 385.59,-1467.17 382.01,-1458.68 377.86,-1450.11 373.38,-1441.66"/>
<polygon fill="black" stroke="black" points="376.59,-1440.23 368.71,-1433.15 370.45,-1443.6 376.59,-1440.23"/>
<text text-anchor="middle" x="442.72" y="-1469.62" font-family="Times New Roman,serif" font-size="14.00">RiaperturaManaule</text>
</g>
<!-- FinalizzaContestazione&#45;&gt;AvvioChiusura -->
<g id="edge14" class="edge">
<title>FinalizzaContestazione&#45;&gt;AvvioChiusura</title>
<path fill="none" stroke="black" d="M493.11,-696.65C480.8,-686.18 467.97,-675.62 455.59,-666.04 420.91,-639.18 380.67,-611.34 347.43,-589.16"/>
<polygon fill="black" stroke="black" points="349.77,-586.52 339.51,-583.9 345.9,-592.35 349.77,-586.52"/>
<text text-anchor="middle" x="473.34" y="-634.74" font-family="Times New Roman,serif" font-size="14.00">ChiusuraAvviata</text>
</g>
</g>
</svg>
