<?xml version="1.0" encoding="UTF-8" standalone="no"?>
<!DOCTYPE svg PUBLIC "-//W3C//DTD SVG 1.1//EN"
 "http://www.w3.org/Graphics/SVG/1.1/DTD/svg11.dtd">
<!-- Generated by graphviz version 9.0.0 (20230911.1827)
 -->
<!-- Title: finite_state_machine Pages: 1 -->
<svg width="232pt" height="360pt"
 viewBox="0.00 0.00 231.99 360.00" xmlns="http://www.w3.org/2000/svg" xmlns:xlink="http://www.w3.org/1999/xlink">
<g id="graph0" class="graph" transform="scale(0.155782 0.155782) rotate(0) translate(4 2306.92)">
<title>finite_state_machine</title>
<polygon fill="white" stroke="none" points="-4,4 -4,-2306.92 1485.22,-2306.92 1485.22,4 -4,4"/>
<text text-anchor="middle" x="740.61" y="-6.45" font-family="Times New Roman,serif" font-size="14.00">Opening</text>
<!-- InizializzazioneIncarico -->
<g id="node1" class="node">
<title>InizializzazioneIncarico</title>
<polygon fill="lightgrey" stroke="black" points="467.1,-2302.92 322.85,-2302.92 322.85,-2266.92 467.1,-2266.92 467.1,-2302.92"/>
<text text-anchor="middle" x="394.97" y="-2279.5" font-family="Times New Roman,serif" font-size="14.00">InizializzazioneIncarico</text>
</g>
<!-- CreazioneAutomaticaIncarico -->
<g id="node11" class="node">
<title>CreazioneAutomaticaIncarico</title>
<ellipse fill="none" stroke="black" cx="394.97" cy="-2094.75" rx="120.42" ry="120.42"/>
<text text-anchor="middle" x="394.97" y="-2089.32" font-family="Times New Roman,serif" font-size="14.00">CreazioneAutomaticaIncarico</text>
</g>
<!-- InizializzazioneIncarico&#45;&gt;CreazioneAutomaticaIncarico -->
<g id="edge1" class="edge">
<title>InizializzazioneIncarico&#45;&gt;CreazioneAutomaticaIncarico</title>
<path fill="none" stroke="black" d="M394.97,-2266.56C394.97,-2256.28 394.97,-2242.23 394.97,-2226.56"/>
<polygon fill="black" stroke="black" points="398.47,-2227 394.97,-2217 391.47,-2227 398.47,-2227"/>
<text text-anchor="middle" x="436.22" y="-2235.62" font-family="Times New Roman,serif" font-size="14.00">Inizializzazione</text>
</g>
<!-- CreazioneManualeIncarico -->
<g id="node2" class="node">
<title>CreazioneManualeIncarico</title>
<polygon fill="lightgrey" stroke="black" points="219.85,-2112.75 56.1,-2112.75 56.1,-2076.75 219.85,-2076.75 219.85,-2112.75"/>
<text text-anchor="middle" x="137.97" y="-2089.32" font-family="Times New Roman,serif" font-size="14.00">CreazioneManualeIncarico</text>
</g>
<!-- CompletamentoManualeIncarico -->
<g id="node12" class="node">
<title>CompletamentoManualeIncarico</title>
<ellipse fill="none" stroke="black" cx="394.97" cy="-1791.67" rx="130.9" ry="130.9"/>
<text text-anchor="middle" x="394.97" y="-1786.25" font-family="Times New Roman,serif" font-size="14.00">CompletamentoManualeIncarico</text>
</g>
<!-- CreazioneManualeIncarico&#45;&gt;CompletamentoManualeIncarico -->
<g id="edge2" class="edge">
<title>CreazioneManualeIncarico&#45;&gt;CompletamentoManualeIncarico</title>
<path fill="none" stroke="black" d="M152.9,-2076.26C181.76,-2042.45 247.27,-1965.7 302.87,-1900.57"/>
<polygon fill="black" stroke="black" points="305.49,-1902.9 309.32,-1893.02 300.16,-1898.35 305.49,-1902.9"/>
<text text-anchor="middle" x="307.22" y="-1943.02" font-family="Times New Roman,serif" font-size="14.00">Inizializzazione</text>
</g>
<!-- AvvioSopralluogoPCE -->
<g id="node3" class="node">
<title>AvvioSopralluogoPCE</title>
<ellipse fill="lightgrey" stroke="black" cx="95.97" cy="-119.72" rx="95.97" ry="95.97"/>
<text text-anchor="middle" x="95.97" y="-114.3" font-family="Times New Roman,serif" font-size="14.00">AvvioSopralluogoPCE</text>
</g>
<!-- AvvioVisio -->
<g id="node4" class="node">
<title>AvvioVisio</title>
<ellipse fill="lightgrey" stroke="black" cx="1395.97" cy="-119.72" rx="52.56" ry="52.56"/>
<text text-anchor="middle" x="1395.97" y="-114.3" font-family="Times New Roman,serif" font-size="14.00">AvvioVisio</text>
</g>
<!-- AvvioDesk -->
<g id="node5" class="node">
<title>AvvioDesk</title>
<ellipse fill="lightgrey" stroke="black" cx="1217.97" cy="-119.72" rx="52.06" ry="52.06"/>
<text text-anchor="middle" x="1217.97" y="-114.3" font-family="Times New Roman,serif" font-size="14.00">AvvioDesk</text>
</g>
<!-- AvvioSopralluogo -->
<g id="node6" class="node">
<title>AvvioSopralluogo</title>
<ellipse fill="lightgrey" stroke="black" cx="761.97" cy="-119.72" rx="78.51" ry="78.51"/>
<text text-anchor="middle" x="761.97" y="-114.3" font-family="Times New Roman,serif" font-size="14.00">AvvioSopralluogo</text>
</g>
<!-- AvvioManualeVisio -->
<g id="node7" class="node">
<title>AvvioManualeVisio</title>
<ellipse fill="lightgrey" stroke="black" cx="428.97" cy="-613.6" rx="83.5" ry="83.5"/>
<text text-anchor="middle" x="428.97" y="-608.18" font-family="Times New Roman,serif" font-size="14.00">AvvioManualeVisio</text>
</g>
<!-- AvvioManualeDesk -->
<g id="node8" class="node">
<title>AvvioManualeDesk</title>
<ellipse fill="lightgrey" stroke="black" cx="206.97" cy="-613.6" rx="83" ry="83"/>
<text text-anchor="middle" x="206.97" y="-608.18" font-family="Times New Roman,serif" font-size="14.00">AvvioManualeDesk</text>
</g>
<!-- AvvioAccertSelfCare -->
<g id="node9" class="node">
<title>AvvioAccertSelfCare</title>
<ellipse fill="lightgrey" stroke="black" cx="947.97" cy="-119.72" rx="89.99" ry="89.99"/>
<text text-anchor="middle" x="947.97" y="-114.3" font-family="Times New Roman,serif" font-size="14.00">AvvioAccertSelfCare</text>
</g>
<!-- AvvioRiparazione -->
<g id="node10" class="node">
<title>AvvioRiparazione</title>
<ellipse fill="lightgrey" stroke="black" cx="247.97" cy="-842.83" rx="77.01" ry="77.01"/>
<text text-anchor="middle" x="247.97" y="-837.41" font-family="Times New Roman,serif" font-size="14.00">AvvioRiparazione</text>
</g>
<!-- CreazioneAutomaticaIncarico&#45;&gt;CompletamentoManualeIncarico -->
<g id="edge3" class="edge">
<title>CreazioneAutomaticaIncarico&#45;&gt;CompletamentoManualeIncarico</title>
<path fill="none" stroke="black" d="M394.97,-1973.89C394.97,-1960.82 394.97,-1947.43 394.97,-1934.14"/>
<polygon fill="black" stroke="black" points="398.47,-1934.51 394.97,-1924.51 391.47,-1934.51 398.47,-1934.51"/>
<text text-anchor="middle" x="443.72" y="-1943.02" font-family="Times New Roman,serif" font-size="14.00">DatiNonCompleti</text>
</g>
<!-- VenditaRiparazione -->
<g id="node13" class="node">
<title>VenditaRiparazione</title>
<ellipse fill="none" stroke="black" cx="372.97" cy="-1071.56" rx="83" ry="83"/>
<text text-anchor="middle" x="372.97" y="-1066.13" font-family="Times New Roman,serif" font-size="14.00">VenditaRiparazione</text>
</g>
<!-- CreazioneAutomaticaIncarico&#45;&gt;VenditaRiparazione -->
<g id="edge4" class="edge">
<title>CreazioneAutomaticaIncarico&#45;&gt;VenditaRiparazione</title>
<path fill="none" stroke="black" d="M310.48,-2008.84C289.17,-1983.03 268.53,-1953.31 254.97,-1922.57 231.43,-1869.19 235.97,-1851.02 235.97,-1792.67 235.97,-1792.67 235.97,-1792.67 235.97,-1304.77 235.97,-1243.03 272.35,-1183.26 307.61,-1139.82"/>
<polygon fill="black" stroke="black" points="310.21,-1142.18 313.91,-1132.25 304.82,-1137.7 310.21,-1142.18"/>
<text text-anchor="middle" x="290.35" y="-1527.58" font-family="Times New Roman,serif" font-size="14.00">VenditaRiparazione</text>
</g>
<!-- EsecuzioneTriage -->
<g id="node14" class="node">
<title>EsecuzioneTriage</title>
<ellipse fill="none" stroke="black" cx="856.97" cy="-1533" rx="76.01" ry="76.01"/>
<text text-anchor="middle" x="856.97" y="-1527.58" font-family="Times New Roman,serif" font-size="14.00">EsecuzioneTriage</text>
</g>
<!-- CreazioneAutomaticaIncarico&#45;&gt;EsecuzioneTriage -->
<g id="edge5" class="edge">
<title>CreazioneAutomaticaIncarico&#45;&gt;EsecuzioneTriage</title>
<path fill="none" stroke="black" d="M501.57,-2038.29C551.06,-2008.77 608.07,-1968.97 649.97,-1922.57 733,-1830.64 793.87,-1699.37 827.35,-1615.42"/>
<polygon fill="black" stroke="black" points="830.53,-1616.91 830.94,-1606.33 824.02,-1614.34 830.53,-1616.91"/>
<text text-anchor="middle" x="874.1" y="-1786.25" font-family="Times New Roman,serif" font-size="14.00">RiparazioneNonPrevista</text>
</g>
<!-- CompletamentoManualeIncarico&#45;&gt;CompletamentoManualeIncarico -->
<g id="edge6" class="edge">
<title>CompletamentoManualeIncarico&#45;&gt;CompletamentoManualeIncarico</title>
<path fill="none" stroke="black" d="M524.15,-1815.24C536.24,-1810.4 543.88,-1802.54 543.88,-1791.67 543.88,-1784.2 540.27,-1778.15 534.08,-1773.53"/>
<polygon fill="black" stroke="black" points="535.93,-1770.55 525.47,-1768.83 532.58,-1776.69 535.93,-1770.55"/>
<text text-anchor="middle" x="592.63" y="-1786.25" font-family="Times New Roman,serif" font-size="14.00">DatiNonCompleti</text>
</g>
<!-- CompletamentoManualeIncarico&#45;&gt;VenditaRiparazione -->
<g id="edge7" class="edge">
<title>CompletamentoManualeIncarico&#45;&gt;VenditaRiparazione</title>
<path fill="none" stroke="black" d="M390.99,-1660.63C386.62,-1517.91 379.71,-1292.36 375.84,-1166.09"/>
<polygon fill="black" stroke="black" points="379.35,-1166.34 375.54,-1156.45 372.35,-1166.55 379.35,-1166.34"/>
<text text-anchor="middle" x="438.35" y="-1425.69" font-family="Times New Roman,serif" font-size="14.00">VenditaRiparazione</text>
</g>
<!-- CompletamentoManualeIncarico&#45;&gt;EsecuzioneTriage -->
<g id="edge8" class="edge">
<title>CompletamentoManualeIncarico&#45;&gt;EsecuzioneTriage</title>
<path fill="none" stroke="black" d="M488.3,-1699.91C518.6,-1673.83 553.52,-1647.06 588.72,-1627.02 646.33,-1594.22 717.44,-1570.21 771.97,-1554.81"/>
<polygon fill="black" stroke="black" points="772.84,-1558.2 781.54,-1552.15 770.96,-1551.46 772.84,-1558.2"/>
<text text-anchor="middle" x="655.1" y="-1629.47" font-family="Times New Roman,serif" font-size="14.00">RiparazioneNonPrevista</text>
</g>
<!-- VenditaRiparazione&#45;&gt;AvvioRiparazione -->
<g id="edge9" class="edge">
<title>VenditaRiparazione&#45;&gt;AvvioRiparazione</title>
<path fill="none" stroke="black" d="M293.56,-1046.4C257.2,-1030.92 217.58,-1006.77 196.47,-970.56 186.28,-953.07 188.58,-933.19 196.19,-914.43"/>
<polygon fill="black" stroke="black" points="199.29,-916.08 200.28,-905.53 192.93,-913.15 199.29,-916.08"/>
<text text-anchor="middle" x="252.22" y="-957.26" font-family="Times New Roman,serif" font-size="14.00">RiparazioneVenduta</text>
</g>
<!-- SceltaManualeServizio -->
<g id="node15" class="node">
<title>SceltaManualeServizio</title>
<ellipse fill="none" stroke="black" cx="451.97" cy="-842.83" rx="93.98" ry="93.98"/>
<text text-anchor="middle" x="451.97" y="-837.41" font-family="Times New Roman,serif" font-size="14.00">SceltaManualeServizio</text>
</g>
<!-- VenditaRiparazione&#45;&gt;SceltaManualeServizio -->
<g id="edge10" class="edge">
<title>VenditaRiparazione&#45;&gt;SceltaManualeServizio</title>
<path fill="none" stroke="black" d="M416.76,-1000.72C421.76,-990.84 426.36,-980.62 429.97,-970.56 432.67,-963.05 435.05,-955.16 437.14,-947.15"/>
<polygon fill="black" stroke="black" points="440.48,-948.19 439.45,-937.65 433.68,-946.54 440.48,-948.19"/>
<text text-anchor="middle" x="502.22" y="-957.26" font-family="Times New Roman,serif" font-size="14.00">RiparazioneNonVenduta</text>
</g>
<!-- SceltaAutomaticaServizio -->
<g id="node16" class="node">
<title>SceltaAutomaticaServizio</title>
<ellipse fill="none" stroke="black" cx="947.97" cy="-372.9" rx="105.45" ry="105.45"/>
<text text-anchor="middle" x="947.97" y="-367.48" font-family="Times New Roman,serif" font-size="14.00">SceltaAutomaticaServizio</text>
</g>
<!-- VenditaRiparazione&#45;&gt;SceltaAutomaticaServizio -->
<g id="edge11" class="edge">
<title>VenditaRiparazione&#45;&gt;SceltaAutomaticaServizio</title>
<path fill="none" stroke="black" d="M454.9,-1056.82C524,-1040.64 619.48,-1006.55 669.97,-936.81 699.03,-896.68 659.07,-750.76 693.47,-715.1 732.91,-674.24 778.91,-736.33 819.97,-697.1 885.63,-634.38 821.74,-579.62 857.97,-496.36 862.69,-485.52 868.51,-474.73 874.9,-464.3"/>
<polygon fill="black" stroke="black" points="877.7,-466.42 880.11,-456.1 871.79,-462.66 877.7,-466.42"/>
<text text-anchor="middle" x="741.72" y="-717.55" font-family="Times New Roman,serif" font-size="14.00">DatiNonCompleti</text>
</g>
<!-- EsecuzioneTriage&#45;&gt;AvvioSopralluogoPCE -->
<g id="edge12" class="edge">
<title>EsecuzioneTriage&#45;&gt;AvvioSopralluogoPCE</title>
<path fill="none" stroke="black" d="M783.62,-1511.59C717.45,-1491.09 619.26,-1455.35 543.97,-1405.24 296.75,-1240.69 185.87,-1209.16 67.47,-936.81 29.72,-849.97 57.97,-818.66 57.97,-723.98 57.97,-723.98 57.97,-723.98 57.97,-371.9 57.97,-323.32 65.01,-270.03 73.03,-225.09"/>
<polygon fill="black" stroke="black" points="76.45,-225.81 74.81,-215.34 69.57,-224.55 76.45,-225.81"/>
<text text-anchor="middle" x="115.22" y="-837.41" font-family="Times New Roman,serif" font-size="14.00">SopralluogoPCE</text>
</g>
<!-- EsecuzioneTriage&#45;&gt;AvvioVisio -->
<g id="edge13" class="edge">
<title>EsecuzioneTriage&#45;&gt;AvvioVisio</title>
<path fill="none" stroke="black" d="M932.87,-1526.56C1035.53,-1516.24 1221.29,-1486.96 1355.97,-1405.24 1408.23,-1373.53 1451.97,-1367.89 1451.97,-1306.77 1451.97,-1306.77 1451.97,-1306.77 1451.97,-371.9 1451.97,-305.1 1432.87,-230.64 1416.98,-180.26"/>
<polygon fill="black" stroke="black" points="1420.4,-179.46 1414,-171.01 1413.73,-181.6 1420.4,-179.46"/>
<text text-anchor="middle" x="1466.6" y="-837.41" font-family="Times New Roman,serif" font-size="14.00">Visio</text>
</g>
<!-- EsecuzioneTriage&#45;&gt;AvvioDesk -->
<g id="edge14" class="edge">
<title>EsecuzioneTriage&#45;&gt;AvvioDesk</title>
<path fill="none" stroke="black" d="M931.51,-1516.65C1077.48,-1484.42 1386.97,-1404.56 1386.97,-1306.77 1386.97,-1306.77 1386.97,-1306.77 1386.97,-371.9 1386.97,-285.2 1316.8,-205.94 1266.89,-160.54"/>
<polygon fill="black" stroke="black" points="1269.37,-158.06 1259.58,-154.01 1264.71,-163.28 1269.37,-158.06"/>
<text text-anchor="middle" x="1401.22" y="-837.41" font-family="Times New Roman,serif" font-size="14.00">Desk</text>
</g>
<!-- EsecuzioneTriage&#45;&gt;AvvioSopralluogo -->
<g id="edge15" class="edge">
<title>EsecuzioneTriage&#45;&gt;AvvioSopralluogo</title>
<path fill="none" stroke="black" d="M869.8,-1457.87C881.12,-1388.46 896.75,-1281.71 902.97,-1188.31 916.71,-982.13 848.86,-935.46 819.97,-730.85 793.93,-546.37 776.38,-328.81 767.89,-209.73"/>
<polygon fill="black" stroke="black" points="771.4,-209.76 767.2,-200.03 764.41,-210.25 771.4,-209.76"/>
<text text-anchor="middle" x="904.1" y="-837.41" font-family="Times New Roman,serif" font-size="14.00">Sopralluogo</text>
</g>
<!-- EsecuzioneTriage&#45;&gt;SceltaManualeServizio -->
<g id="edge16" class="edge">
<title>EsecuzioneTriage&#45;&gt;SceltaManualeServizio</title>
<path fill="none" stroke="black" d="M782.47,-1515.97C736.03,-1502.5 678.06,-1478.85 639.97,-1438.99 557.74,-1352.94 567.01,-1305.42 545.72,-1188.31 527.02,-1085.41 617.46,-1050.38 574.97,-954.81 566.47,-935.67 552.85,-918.45 537.72,-903.59"/>
<polygon fill="black" stroke="black" points="540.47,-901.37 530.79,-897.07 535.67,-906.47 540.47,-901.37"/>
<text text-anchor="middle" x="588.1" y="-1175.01" font-family="Times New Roman,serif" font-size="14.00">NessunServizio</text>
</g>
<!-- EsecuzioneTriage&#45;&gt;SceltaManualeServizio -->
<g id="edge17" class="edge">
<title>EsecuzioneTriage&#45;&gt;SceltaManualeServizio</title>
<path fill="none" stroke="black" d="M812.84,-1470.58C766.78,-1403.94 695.27,-1293.01 651.47,-1188.31 610.1,-1089.41 649.3,-1044.76 590.97,-954.81 577.72,-934.36 559.42,-915.98 540.46,-900.32"/>
<polygon fill="black" stroke="black" points="542.89,-897.79 532.9,-894.27 538.52,-903.25 542.89,-897.79"/>
<text text-anchor="middle" x="699.72" y="-1175.01" font-family="Times New Roman,serif" font-size="14.00">DatiNonCompleti</text>
</g>
<!-- InvioLinkSelfCare -->
<g id="node17" class="node">
<title>InvioLinkSelfCare</title>
<ellipse fill="none" stroke="black" cx="947.97" cy="-613.6" rx="78.01" ry="78.01"/>
<text text-anchor="middle" x="947.97" y="-608.18" font-family="Times New Roman,serif" font-size="14.00">InvioLinkSelfCare</text>
</g>
<!-- EsecuzioneTriage&#45;&gt;InvioLinkSelfCare -->
<g id="edge18" class="edge">
<title>EsecuzioneTriage&#45;&gt;InvioLinkSelfCare</title>
<path fill="none" stroke="black" d="M908.33,-1476.38C917.01,-1464.69 925.09,-1451.96 930.97,-1438.99 955.64,-1384.6 954.97,-1366.5 954.97,-1306.77 954.97,-1306.77 954.97,-1306.77 954.97,-841.83 954.97,-796.1 953.54,-745.21 951.97,-703.21"/>
<polygon fill="black" stroke="black" points="955.47,-703.26 951.59,-693.4 948.48,-703.53 955.47,-703.26"/>
<text text-anchor="middle" x="1005.6" y="-1066.13" font-family="Times New Roman,serif" font-size="14.00">InvioLinkSelfCare</text>
</g>
<!-- VenditaRiparazionePA1 -->
<g id="node18" class="node">
<title>VenditaRiparazionePA1</title>
<ellipse fill="none" stroke="black" cx="1082.97" cy="-1305.77" rx="99.47" ry="99.47"/>
<text text-anchor="middle" x="1082.97" y="-1300.35" font-family="Times New Roman,serif" font-size="14.00">VenditaRiparazionePA1</text>
</g>
<!-- EsecuzioneTriage&#45;&gt;VenditaRiparazionePA1 -->
<g id="edge19" class="edge">
<title>EsecuzioneTriage&#45;&gt;VenditaRiparazionePA1</title>
<path fill="none" stroke="black" d="M916.7,-1485.5C934.08,-1471.15 952.74,-1454.93 968.97,-1438.99 983.89,-1424.34 999.05,-1407.99 1013.23,-1391.92"/>
<polygon fill="black" stroke="black" points="1015.61,-1394.52 1019.55,-1384.69 1010.34,-1389.91 1015.61,-1394.52"/>
<text text-anchor="middle" x="1048.72" y="-1425.69" font-family="Times New Roman,serif" font-size="14.00">VenditaRiparazionePA1</text>
</g>
<!-- SceltaManualeServizio&#45;&gt;AvvioSopralluogoPCE -->
<g id="edge20" class="edge">
<title>SceltaManualeServizio&#45;&gt;AvvioSopralluogoPCE</title>
<path fill="none" stroke="black" d="M382.67,-779.09C367.43,-767.69 350.8,-756.89 333.97,-748.85 243.73,-705.74 178.14,-774.64 114.97,-697.1 58.35,-627.6 71.65,-373.27 84.75,-226.73"/>
<polygon fill="black" stroke="black" points="88.22,-227.28 85.64,-217 81.25,-226.65 88.22,-227.28"/>
<text text-anchor="middle" x="122.22" y="-498.81" font-family="Times New Roman,serif" font-size="14.00">SopralluogoPCE</text>
</g>
<!-- SceltaManualeServizio&#45;&gt;AvvioSopralluogo -->
<g id="edge21" class="edge">
<title>SceltaManualeServizio&#45;&gt;AvvioSopralluogo</title>
<path fill="none" stroke="black" d="M384.95,-776.62C365.64,-753.53 347.07,-726.04 336.97,-697.1 312.52,-627.03 307.93,-598.41 336.97,-530.11 407.75,-363.65 583.05,-232.08 685.04,-166.44"/>
<polygon fill="black" stroke="black" points="686.85,-169.44 693.39,-161.11 683.08,-163.54 686.85,-169.44"/>
<text text-anchor="middle" x="386.1" y="-498.81" font-family="Times New Roman,serif" font-size="14.00">Sopralluogo</text>
</g>
<!-- SceltaManualeServizio&#45;&gt;AvvioManualeVisio -->
<g id="edge22" class="edge">
<title>SceltaManualeServizio&#45;&gt;AvvioManualeVisio</title>
<path fill="none" stroke="black" d="M442.59,-749.08C441.22,-735.56 439.81,-721.64 438.44,-708.1"/>
<polygon fill="black" stroke="black" points="441.94,-707.95 437.45,-698.35 434.98,-708.65 441.94,-707.95"/>
<text text-anchor="middle" x="454.6" y="-717.55" font-family="Times New Roman,serif" font-size="14.00">Visio</text>
</g>
<!-- SceltaManualeServizio&#45;&gt;AvvioManualeDesk -->
<g id="edge23" class="edge">
<title>SceltaManualeServizio&#45;&gt;AvvioManualeDesk</title>
<path fill="none" stroke="black" d="M381.86,-779.81C366.75,-768.43 350.37,-757.45 333.97,-748.85 309.88,-736.22 296.82,-747.71 275.47,-730.85 264.45,-722.15 254.83,-711.14 246.56,-699.39"/>
<polygon fill="black" stroke="black" points="249.51,-697.49 241.06,-691.1 243.67,-701.36 249.51,-697.49"/>
<text text-anchor="middle" x="289.22" y="-717.55" font-family="Times New Roman,serif" font-size="14.00">Desk</text>
</g>
<!-- SceltaManualeServizio&#45;&gt;VenditaRiparazione -->
<g id="edge24" class="edge">
<title>SceltaManualeServizio&#45;&gt;VenditaRiparazione</title>
<path fill="none" stroke="black" d="M377.75,-900.57C348.51,-923.73 320.94,-946.93 317.22,-954.81 310.85,-968.31 311.62,-982.67 316.24,-996.5"/>
<polygon fill="black" stroke="black" points="312.91,-997.6 319.9,-1005.56 319.4,-994.98 312.91,-997.6"/>
<text text-anchor="middle" x="371.35" y="-957.26" font-family="Times New Roman,serif" font-size="14.00">VenditaRiparazione</text>
</g>
<!-- SceltaManualeServizio&#45;&gt;SceltaManualeServizio -->
<g id="edge25" class="edge">
<title>SceltaManualeServizio&#45;&gt;SceltaManualeServizio</title>
<path fill="none" stroke="black" d="M544.23,-862.53C556.1,-859.11 563.95,-852.55 563.95,-842.83 563.95,-836.3 560.41,-831.2 554.48,-827.51"/>
<polygon fill="black" stroke="black" points="556.19,-824.44 545.62,-823.73 553.44,-830.88 556.19,-824.44"/>
<text text-anchor="middle" x="612.7" y="-837.41" font-family="Times New Roman,serif" font-size="14.00">DatiNonCompleti</text>
</g>
<!-- SceltaManualeServizio&#45;&gt;InvioLinkSelfCare -->
<g id="edge26" class="edge">
<title>SceltaManualeServizio&#45;&gt;InvioLinkSelfCare</title>
<path fill="none" stroke="black" d="M543.77,-821.12C614.83,-802.99 714.39,-772.94 794.97,-730.85 825.13,-715.1 855.54,-693.46 881.21,-673.11"/>
<polygon fill="black" stroke="black" points="883.3,-675.92 888.91,-666.92 878.92,-670.46 883.3,-675.92"/>
<text text-anchor="middle" x="872.6" y="-717.55" font-family="Times New Roman,serif" font-size="14.00">InvioLinkSelfCare</text>
</g>
<!-- SceltaAutomaticaServizio&#45;&gt;AvvioSopralluogoPCE -->
<g id="edge33" class="edge">
<title>SceltaAutomaticaServizio&#45;&gt;AvvioSopralluogoPCE</title>
<path fill="none" stroke="black" d="M846.89,-342.1C683.53,-293.94 363.21,-199.51 198.76,-151.03"/>
<polygon fill="black" stroke="black" points="200.19,-147.8 189.61,-148.33 198.21,-154.51 200.19,-147.8"/>
<text text-anchor="middle" x="569.22" y="-236.15" font-family="Times New Roman,serif" font-size="14.00">SopralluogoPCE</text>
</g>
<!-- SceltaAutomaticaServizio&#45;&gt;AvvioVisio -->
<g id="edge34" class="edge">
<title>SceltaAutomaticaServizio&#45;&gt;AvvioVisio</title>
<path fill="none" stroke="black" d="M1046.07,-333C1113.7,-304.43 1204.47,-262.55 1278.97,-215.7 1303.29,-200.4 1328.28,-180.75 1348.88,-163.3"/>
<polygon fill="black" stroke="black" points="1350.96,-166.12 1356.28,-156.96 1346.41,-160.81 1350.96,-166.12"/>
<text text-anchor="middle" x="1259.6" y="-236.15" font-family="Times New Roman,serif" font-size="14.00">Visio</text>
</g>
<!-- SceltaAutomaticaServizio&#45;&gt;AvvioDesk -->
<g id="edge35" class="edge">
<title>SceltaAutomaticaServizio&#45;&gt;AvvioDesk</title>
<path fill="none" stroke="black" d="M1024.98,-300.26C1072.42,-256.13 1131.66,-201.02 1171.9,-163.59"/>
<polygon fill="black" stroke="black" points="1174.14,-166.28 1179.08,-156.91 1169.37,-161.15 1174.14,-166.28"/>
<text text-anchor="middle" x="1105.22" y="-236.15" font-family="Times New Roman,serif" font-size="14.00">Desk</text>
</g>
<!-- SceltaAutomaticaServizio&#45;&gt;AvvioSopralluogo -->
<g id="edge36" class="edge">
<title>SceltaAutomaticaServizio&#45;&gt;AvvioSopralluogo</title>
<path fill="none" stroke="black" d="M885.52,-287.56C862.66,-256.7 837.03,-222.09 815.07,-192.43"/>
<polygon fill="black" stroke="black" points="818.04,-190.56 809.28,-184.61 812.42,-194.72 818.04,-190.56"/>
<text text-anchor="middle" x="889.1" y="-236.15" font-family="Times New Roman,serif" font-size="14.00">Sopralluogo</text>
</g>
<!-- SceltaAutomaticaServizio&#45;&gt;AvvioAccertSelfCare -->
<g id="edge37" class="edge">
<title>SceltaAutomaticaServizio&#45;&gt;AvvioAccertSelfCare</title>
<path fill="none" stroke="black" d="M947.97,-267.2C947.97,-252.07 947.97,-236.53 947.97,-221.49"/>
<polygon fill="black" stroke="black" points="951.47,-221.61 947.97,-211.61 944.47,-221.61 951.47,-221.61"/>
<text text-anchor="middle" x="971.97" y="-236.15" font-family="Times New Roman,serif" font-size="14.00">SelfCare</text>
</g>
<!-- SceltaAutomaticaServizio&#45;&gt;SceltaManualeServizio -->
<g id="edge38" class="edge">
<title>SceltaAutomaticaServizio&#45;&gt;SceltaManualeServizio</title>
<path fill="none" stroke="black" d="M843.7,-389.21C755.91,-407.59 633.51,-447.07 561.72,-530.11 511.76,-587.9 546.6,-625.13 520.97,-697.1 514.94,-714.04 507.56,-731.65 499.9,-748.5"/>
<polygon fill="black" stroke="black" points="496.75,-746.97 495.73,-757.51 503.1,-749.91 496.75,-746.97"/>
<text text-anchor="middle" x="604.1" y="-608.18" font-family="Times New Roman,serif" font-size="14.00">NessunServizio</text>
</g>
<!-- SceltaAutomaticaServizio&#45;&gt;SceltaManualeServizio -->
<g id="edge39" class="edge">
<title>SceltaAutomaticaServizio&#45;&gt;SceltaManualeServizio</title>
<path fill="none" stroke="black" d="M854.71,-422.58C810.13,-449.51 758.72,-486.39 722.47,-530.11 670.6,-592.67 698.9,-633.76 647.97,-697.1 618.9,-733.27 578.75,-765.01 542.36,-789.49"/>
<polygon fill="black" stroke="black" points="540.86,-786.28 534.46,-794.72 544.73,-792.12 540.86,-786.28"/>
<text text-anchor="middle" x="770.72" y="-608.18" font-family="Times New Roman,serif" font-size="14.00">DatiNonCompleti</text>
</g>
<!-- InvioLinkSelfCare&#45;&gt;SceltaAutomaticaServizio -->
<g id="edge27" class="edge">
<title>InvioLinkSelfCare&#45;&gt;SceltaAutomaticaServizio</title>
<path fill="none" stroke="black" d="M947.97,-535.1C947.97,-520.64 947.97,-505.25 947.97,-489.92"/>
<polygon fill="black" stroke="black" points="951.47,-490.3 947.97,-480.3 944.47,-490.3 951.47,-490.3"/>
<text text-anchor="middle" x="995.97" y="-498.81" font-family="Times New Roman,serif" font-size="14.00">SelfCareEseguito</text>
</g>
<!-- InvioLinkSelfCare&#45;&gt;SceltaAutomaticaServizio -->
<g id="edge28" class="edge">
<title>InvioLinkSelfCare&#45;&gt;SceltaAutomaticaServizio</title>
<path fill="none" stroke="black" d="M1013.8,-570.84C1036.82,-550.57 1054.78,-524.53 1044.97,-496.36 1040.51,-483.52 1034.07,-471.02 1026.61,-459.21"/>
<polygon fill="black" stroke="black" points="1029.71,-457.56 1021.26,-451.16 1023.88,-461.43 1029.71,-457.56"/>
<text text-anchor="middle" x="1106.97" y="-498.81" font-family="Times New Roman,serif" font-size="14.00">SelfCareNonEseguito</text>
</g>
<!-- InvioLinkSelfCare&#45;&gt;SceltaAutomaticaServizio -->
<g id="edge29" class="edge">
<title>InvioLinkSelfCare&#45;&gt;SceltaAutomaticaServizio</title>
<path fill="none" stroke="black" d="M886.81,-564.72C869.33,-545.09 856.82,-521.17 864.47,-496.36 867.63,-486.14 871.96,-476.01 877,-466.21"/>
<polygon fill="black" stroke="black" points="880.06,-467.91 881.77,-457.46 873.91,-464.56 880.06,-467.91"/>
<text text-anchor="middle" x="903.72" y="-498.81" font-family="Times New Roman,serif" font-size="14.00">TimerScaduto</text>
</g>
<!-- VenditaRiparazionePA1&#45;&gt;VenditaRiparazione -->
<g id="edge30" class="edge">
<title>VenditaRiparazionePA1&#45;&gt;VenditaRiparazione</title>
<path fill="none" stroke="black" d="M992,-1264.79C926.34,-1236.8 835.16,-1199.72 752.97,-1172.56 656.05,-1140.52 542.6,-1111.77 465.06,-1093.41"/>
<polygon fill="black" stroke="black" points="465.89,-1090.01 455.36,-1091.12 464.29,-1096.82 465.89,-1090.01"/>
<text text-anchor="middle" x="852.35" y="-1175.01" font-family="Times New Roman,serif" font-size="14.00">InteressatoRiparazione</text>
</g>
<!-- VenditaRiparazionePA1&#45;&gt;SceltaAutomaticaServizio -->
<g id="edge31" class="edge">
<title>VenditaRiparazionePA1&#45;&gt;SceltaAutomaticaServizio</title>
<path fill="none" stroke="black" d="M1077.69,-1206.1C1073.55,-1094.37 1072.21,-907.25 1098.22,-748.85 1117.15,-633.61 1230.45,-596.86 1170.97,-496.36 1146.45,-454.92 1102.38,-426.57 1059.85,-407.67"/>
<polygon fill="black" stroke="black" points="1061.34,-404.5 1050.77,-403.78 1058.58,-410.93 1061.34,-404.5"/>
<text text-anchor="middle" x="1173.35" y="-837.41" font-family="Times New Roman,serif" font-size="14.00">NonInteressatoRiparazione</text>
</g>
<!-- VenditaRiparazionePA1&#45;&gt;SceltaAutomaticaServizio -->
<g id="edge32" class="edge">
<title>VenditaRiparazionePA1&#45;&gt;SceltaAutomaticaServizio</title>
<path fill="none" stroke="black" d="M1164.89,-1248.78C1215.55,-1206.92 1270.97,-1144.66 1270.97,-1072.56 1270.97,-1072.56 1270.97,-1072.56 1270.97,-612.6 1270.97,-505.01 1153.63,-440.4 1060.39,-406.04"/>
<polygon fill="black" stroke="black" points="1061.75,-402.81 1051.15,-402.72 1059.38,-409.4 1061.75,-402.81"/>
<text text-anchor="middle" x="1310.72" y="-837.41" font-family="Times New Roman,serif" font-size="14.00">TimerScaduto</text>
</g>
</g>
</svg>
