<?xml version="1.0" encoding="UTF-8" standalone="no"?>
<!DOCTYPE svg PUBLIC "-//W3C//DTD SVG 1.1//EN"
 "http://www.w3.org/Graphics/SVG/1.1/DTD/svg11.dtd">
<!-- Generated by graphviz version 9.0.0 (20230911.1827)
 -->
<!-- Title: finite_state_machine Pages: 1 -->
<svg width="576pt" height="220pt"
 viewBox="0.00 0.00 576.00 219.84" xmlns="http://www.w3.org/2000/svg" xmlns:xlink="http://www.w3.org/1999/xlink">
<g id="graph0" class="graph" transform="scale(0.32235 0.32235) rotate(0) translate(4 678)">
<title>finite_state_machine</title>
<polygon fill="white" stroke="none" points="-4,4 -4,-678 1782.88,-678 1782.88,4 -4,4"/>
<text text-anchor="middle" x="889.44" y="-6.45" font-family="Times New Roman,serif" font-size="14.00">Opening</text>
<!-- AvvioSopralluogoPCE -->
<g id="node1" class="node">
<title>AvvioSopralluogoPCE</title>
<polygon fill="lightgrey" stroke="black" points="1555.5,-59.75 1411.25,-59.75 1411.25,-23.75 1555.5,-23.75 1555.5,-59.75"/>
<text text-anchor="middle" x="1483.38" y="-36.33" font-family="Times New Roman,serif" font-size="14.00">AvvioSopralluogoPCE</text>
</g>
<!-- AvvioVisio -->
<g id="node2" class="node">
<title>AvvioVisio</title>
<polygon fill="lightgrey" stroke="black" points="161.88,-59.75 82.88,-59.75 82.88,-23.75 161.88,-23.75 161.88,-59.75"/>
<text text-anchor="middle" x="122.38" y="-36.33" font-family="Times New Roman,serif" font-size="14.00">AvvioVisio</text>
</g>
<!-- AvvioDesk -->
<g id="node3" class="node">
<title>AvvioDesk</title>
<polygon fill="lightgrey" stroke="black" points="964.5,-59.75 886.25,-59.75 886.25,-23.75 964.5,-23.75 964.5,-59.75"/>
<text text-anchor="middle" x="925.38" y="-36.33" font-family="Times New Roman,serif" font-size="14.00">AvvioDesk</text>
</g>
<!-- AvvioSopralluogo -->
<g id="node4" class="node">
<title>AvvioSopralluogo</title>
<polygon fill="lightgrey" stroke="black" points="1386.38,-59.75 1268.38,-59.75 1268.38,-23.75 1386.38,-23.75 1386.38,-59.75"/>
<text text-anchor="middle" x="1327.38" y="-36.33" font-family="Times New Roman,serif" font-size="14.00">AvvioSopralluogo</text>
</g>
<!-- AvvioManualeVisio -->
<g id="node5" class="node">
<title>AvvioManualeVisio</title>
<polygon fill="lightgrey" stroke="black" points="1108.12,-59.75 982.62,-59.75 982.62,-23.75 1108.12,-23.75 1108.12,-59.75"/>
<text text-anchor="middle" x="1045.38" y="-36.33" font-family="Times New Roman,serif" font-size="14.00">AvvioManualeVisio</text>
</g>
<!-- AvvioManualeDesk -->
<g id="node6" class="node">
<title>AvvioManualeDesk</title>
<polygon fill="lightgrey" stroke="black" points="1250.75,-59.75 1126,-59.75 1126,-23.75 1250.75,-23.75 1250.75,-59.75"/>
<text text-anchor="middle" x="1188.38" y="-36.33" font-family="Times New Roman,serif" font-size="14.00">AvvioManualeDesk</text>
</g>
<!-- AvvioAccertSelfCare -->
<g id="node7" class="node">
<title>AvvioAccertSelfCare</title>
<polygon fill="lightgrey" stroke="black" points="315,-59.75 179.75,-59.75 179.75,-23.75 315,-23.75 315,-59.75"/>
<text text-anchor="middle" x="247.38" y="-36.33" font-family="Times New Roman,serif" font-size="14.00">AvvioAccertSelfCare</text>
</g>
<!-- InizializzazioneIncarico -->
<g id="node8" class="node">
<title>InizializzazioneIncarico</title>
<polygon fill="lightgrey" stroke="black" points="357.5,-674 213.25,-674 213.25,-638 357.5,-638 357.5,-674"/>
<text text-anchor="middle" x="285.38" y="-650.58" font-family="Times New Roman,serif" font-size="14.00">InizializzazioneIncarico</text>
</g>
<!-- CreazioneAutomaticaIncarico -->
<g id="node11" class="node">
<title>CreazioneAutomaticaIncarico</title>
<path fill="none" stroke="black" d="M363.88,-586.25C363.88,-586.25 206.88,-586.25 206.88,-586.25 200.88,-586.25 194.88,-580.25 194.88,-574.25 194.88,-574.25 194.88,-562.25 194.88,-562.25 194.88,-556.25 200.88,-550.25 206.88,-550.25 206.88,-550.25 363.88,-550.25 363.88,-550.25 369.88,-550.25 375.88,-556.25 375.88,-562.25 375.88,-562.25 375.88,-574.25 375.88,-574.25 375.88,-580.25 369.88,-586.25 363.88,-586.25"/>
<text text-anchor="middle" x="285.38" y="-562.83" font-family="Times New Roman,serif" font-size="14.00">CreazioneAutomaticaIncarico</text>
</g>
<!-- InizializzazioneIncarico&#45;&gt;CreazioneAutomaticaIncarico -->
<g id="edge1" class="edge">
<title>InizializzazioneIncarico&#45;&gt;CreazioneAutomaticaIncarico</title>
<path fill="none" stroke="black" d="M285.38,-637.65C285.38,-626.26 285.38,-611.09 285.38,-597.93"/>
<polygon fill="black" stroke="black" points="288.88,-598.09 285.38,-588.09 281.88,-598.09 288.88,-598.09"/>
<text text-anchor="middle" x="326.62" y="-606.7" font-family="Times New Roman,serif" font-size="14.00">Inizializzazione</text>
</g>
<!-- CreazioneManualeIncarico -->
<g id="node9" class="node">
<title>CreazioneManualeIncarico</title>
<polygon fill="lightgrey" stroke="black" points="176.25,-674 12.5,-674 12.5,-638 176.25,-638 176.25,-674"/>
<text text-anchor="middle" x="94.38" y="-650.58" font-family="Times New Roman,serif" font-size="14.00">CreazioneManualeIncarico</text>
</g>
<!-- CompletamentoManualeIncarico -->
<g id="node12" class="node">
<title>CompletamentoManualeIncarico</title>
<path fill="none" stroke="black" d="M184.75,-498.5C184.75,-498.5 12,-498.5 12,-498.5 6,-498.5 0,-492.5 0,-486.5 0,-486.5 0,-474.5 0,-474.5 0,-468.5 6,-462.5 12,-462.5 12,-462.5 184.75,-462.5 184.75,-462.5 190.75,-462.5 196.75,-468.5 196.75,-474.5 196.75,-474.5 196.75,-486.5 196.75,-486.5 196.75,-492.5 190.75,-498.5 184.75,-498.5"/>
<text text-anchor="middle" x="98.38" y="-475.07" font-family="Times New Roman,serif" font-size="14.00">CompletamentoManualeIncarico</text>
</g>
<!-- CreazioneManualeIncarico&#45;&gt;CompletamentoManualeIncarico -->
<g id="edge2" class="edge">
<title>CreazioneManualeIncarico&#45;&gt;CompletamentoManualeIncarico</title>
<path fill="none" stroke="black" d="M94.77,-637.73C95.46,-607.93 96.88,-546.55 97.71,-510.23"/>
<polygon fill="black" stroke="black" points="101.21,-510.55 97.94,-500.47 94.21,-510.39 101.21,-510.55"/>
<text text-anchor="middle" x="138.62" y="-562.83" font-family="Times New Roman,serif" font-size="14.00">Inizializzazione</text>
</g>
<!-- AvvioRiparazione -->
<g id="node10" class="node">
<title>AvvioRiparazione</title>
<polygon fill="lightgrey" stroke="black" points="524.25,-59.75 408.5,-59.75 408.5,-23.75 524.25,-23.75 524.25,-59.75"/>
<text text-anchor="middle" x="466.38" y="-36.33" font-family="Times New Roman,serif" font-size="14.00">AvvioRiparazione</text>
</g>
<!-- CreazioneAutomaticaIncarico&#45;&gt;CompletamentoManualeIncarico -->
<g id="edge3" class="edge">
<title>CreazioneAutomaticaIncarico&#45;&gt;CompletamentoManualeIncarico</title>
<path fill="none" stroke="black" d="M195.03,-549.8C180.46,-545.19 165.9,-539.43 152.88,-532.25 141.09,-525.75 129.87,-516.14 120.71,-507.03"/>
<polygon fill="black" stroke="black" points="123.42,-504.79 113.97,-499.99 118.37,-509.64 123.42,-504.79"/>
<text text-anchor="middle" x="202.12" y="-518.95" font-family="Times New Roman,serif" font-size="14.00">DatiNonCompleti</text>
</g>
<!-- VenditaRiparazione -->
<g id="node13" class="node">
<title>VenditaRiparazione</title>
<path fill="none" stroke="black" d="M321.75,-235.25C321.75,-235.25 221,-235.25 221,-235.25 215,-235.25 209,-229.25 209,-223.25 209,-223.25 209,-211.25 209,-211.25 209,-205.25 215,-199.25 221,-199.25 221,-199.25 321.75,-199.25 321.75,-199.25 327.75,-199.25 333.75,-205.25 333.75,-211.25 333.75,-211.25 333.75,-223.25 333.75,-223.25 333.75,-229.25 327.75,-235.25 321.75,-235.25"/>
<text text-anchor="middle" x="271.38" y="-211.82" font-family="Times New Roman,serif" font-size="14.00">VenditaRiparazione</text>
</g>
<!-- CreazioneAutomaticaIncarico&#45;&gt;VenditaRiparazione -->
<g id="edge4" class="edge">
<title>CreazioneAutomaticaIncarico&#45;&gt;VenditaRiparazione</title>
<path fill="none" stroke="black" d="M278.5,-549.82C272.37,-532.7 264.38,-505.72 264.38,-481.5 264.38,-481.5 264.38,-481.5 264.38,-304 264.38,-284.89 266.12,-263.46 267.87,-246.81"/>
<polygon fill="black" stroke="black" points="271.32,-247.46 268.95,-237.13 264.37,-246.68 271.32,-247.46"/>
<text text-anchor="middle" x="318.75" y="-387.32" font-family="Times New Roman,serif" font-size="14.00">VenditaRiparazione</text>
</g>
<!-- EsecuzioneTriage -->
<g id="node14" class="node">
<title>EsecuzioneTriage</title>
<path fill="none" stroke="black" d="M741.5,-410.75C741.5,-410.75 651.25,-410.75 651.25,-410.75 645.25,-410.75 639.25,-404.75 639.25,-398.75 639.25,-398.75 639.25,-386.75 639.25,-386.75 639.25,-380.75 645.25,-374.75 651.25,-374.75 651.25,-374.75 741.5,-374.75 741.5,-374.75 747.5,-374.75 753.5,-380.75 753.5,-386.75 753.5,-386.75 753.5,-398.75 753.5,-398.75 753.5,-404.75 747.5,-410.75 741.5,-410.75"/>
<text text-anchor="middle" x="696.38" y="-387.32" font-family="Times New Roman,serif" font-size="14.00">EsecuzioneTriage</text>
</g>
<!-- CreazioneAutomaticaIncarico&#45;&gt;EsecuzioneTriage -->
<g id="edge5" class="edge">
<title>CreazioneAutomaticaIncarico&#45;&gt;EsecuzioneTriage</title>
<path fill="none" stroke="black" d="M326.67,-549.82C402.14,-517.96 562.16,-450.41 644.72,-415.56"/>
<polygon fill="black" stroke="black" points="645.87,-418.87 653.72,-411.76 643.14,-412.42 645.87,-418.87"/>
<text text-anchor="middle" x="598.5" y="-475.07" font-family="Times New Roman,serif" font-size="14.00">RiparazioneNonPrevista</text>
</g>
<!-- CompletamentoManualeIncarico&#45;&gt;VenditaRiparazione -->
<g id="edge6" class="edge">
<title>CompletamentoManualeIncarico&#45;&gt;VenditaRiparazione</title>
<path fill="none" stroke="black" d="M100.89,-462.13C105.48,-434.67 117.09,-380.32 141.62,-341 166.66,-300.88 207.91,-265 237.17,-242.55"/>
<polygon fill="black" stroke="black" points="239.12,-245.46 245.01,-236.65 234.91,-239.87 239.12,-245.46"/>
<text text-anchor="middle" x="196.75" y="-343.45" font-family="Times New Roman,serif" font-size="14.00">VenditaRiparazione</text>
</g>
<!-- CompletamentoManualeIncarico&#45;&gt;EsecuzioneTriage -->
<g id="edge7" class="edge">
<title>CompletamentoManualeIncarico&#45;&gt;EsecuzioneTriage</title>
<path fill="none" stroke="black" d="M176.7,-462.05C227.39,-451.25 294.91,-437.77 355.12,-428.75 449.14,-414.67 558.57,-404.54 627.66,-398.91"/>
<polygon fill="black" stroke="black" points="627.62,-402.43 637.3,-398.13 627.05,-395.45 627.62,-402.43"/>
<text text-anchor="middle" x="421.5" y="-431.2" font-family="Times New Roman,serif" font-size="14.00">RiparazioneNonPrevista</text>
</g>
<!-- VenditaRiparazione&#45;&gt;AvvioRiparazione -->
<g id="edge8" class="edge">
<title>VenditaRiparazione&#45;&gt;AvvioRiparazione</title>
<path fill="none" stroke="black" d="M272.75,-198.84C275.42,-176.08 283.23,-136.2 305.88,-111.5 329.88,-85.32 365.54,-68.7 397.15,-58.38"/>
<polygon fill="black" stroke="black" points="398.17,-61.73 406.7,-55.43 396.11,-55.04 398.17,-61.73"/>
<text text-anchor="middle" x="361.62" y="-124.08" font-family="Times New Roman,serif" font-size="14.00">RiparazioneVenduta</text>
</g>
<!-- VenditaRiparazione&#45;&gt;VenditaRiparazione -->
<g id="edge9" class="edge">
<title>VenditaRiparazione&#45;&gt;VenditaRiparazione</title>
<path fill="none" stroke="black" d="M334.06,-224.9C344.53,-223.83 351.75,-221.28 351.75,-217.25 351.75,-214.92 349.34,-213.09 345.28,-211.75"/>
<polygon fill="black" stroke="black" points="346.02,-208.33 335.54,-209.89 344.71,-215.2 346.02,-208.33"/>
<text text-anchor="middle" x="414.75" y="-211.82" font-family="Times New Roman,serif" font-size="14.00">CampiObbligMancanti</text>
</g>
<!-- VenditaRiparazione&#45;&gt;EsecuzioneTriage -->
<g id="edge10" class="edge">
<title>VenditaRiparazione&#45;&gt;EsecuzioneTriage</title>
<path fill="none" stroke="black" d="M292.32,-235.7C298.38,-241.1 304.84,-247.22 310.38,-253.25 336.6,-281.84 330.51,-301.61 362.88,-323 443.16,-376.06 556.2,-389.44 627.87,-392.15"/>
<polygon fill="black" stroke="black" points="627.39,-395.63 637.49,-392.45 627.6,-388.64 627.39,-395.63"/>
<text text-anchor="middle" x="430.62" y="-299.57" font-family="Times New Roman,serif" font-size="14.00">RiparazioneNonVenduta</text>
</g>
<!-- EsecuzioneTriage&#45;&gt;AvvioSopralluogoPCE -->
<g id="edge11" class="edge">
<title>EsecuzioneTriage&#45;&gt;AvvioSopralluogoPCE</title>
<path fill="none" stroke="black" d="M753.94,-391.15C915.11,-389.18 1368.64,-381.52 1515.38,-356.75 1592.71,-343.7 1684.38,-384.42 1684.38,-306 1684.38,-306 1684.38,-306 1684.38,-128.5 1684.38,-74.55 1622.35,-54.08 1567.22,-46.54"/>
<polygon fill="black" stroke="black" points="1567.79,-43.08 1557.44,-45.34 1566.94,-50.03 1567.79,-43.08"/>
<text text-anchor="middle" x="1731.62" y="-211.82" font-family="Times New Roman,serif" font-size="14.00">SopralluogoPCE</text>
</g>
<!-- EsecuzioneTriage&#45;&gt;AvvioVisio -->
<g id="edge12" class="edge">
<title>EsecuzioneTriage&#45;&gt;AvvioVisio</title>
<path fill="none" stroke="black" d="M639,-391.28C577.11,-389.36 476.29,-382.12 393.38,-356.75 341.77,-340.96 193.88,-264.88 171.12,-235.25 133.64,-186.44 124.73,-112.08 122.77,-71.55"/>
<polygon fill="black" stroke="black" points="126.27,-71.51 122.41,-61.64 119.27,-71.76 126.27,-71.51"/>
<text text-anchor="middle" x="186" y="-211.82" font-family="Times New Roman,serif" font-size="14.00">Visio</text>
</g>
<!-- EsecuzioneTriage&#45;&gt;AvvioDesk -->
<g id="edge13" class="edge">
<title>EsecuzioneTriage&#45;&gt;AvvioDesk</title>
<path fill="none" stroke="black" d="M753.98,-390.86C923.92,-387.49 1411.38,-372.07 1411.38,-306 1411.38,-306 1411.38,-306 1411.38,-172.38 1411.38,-104.46 1357.91,-91.4 1291.38,-77.75 1156.22,-50.03 1114.28,-85.76 975.95,-59.89"/>
<polygon fill="black" stroke="black" points="976.91,-56.51 966.43,-58.03 975.57,-63.38 976.91,-56.51"/>
<text text-anchor="middle" x="1425.62" y="-211.82" font-family="Times New Roman,serif" font-size="14.00">Desk</text>
</g>
<!-- EsecuzioneTriage&#45;&gt;AvvioSopralluogo -->
<g id="edge14" class="edge">
<title>EsecuzioneTriage&#45;&gt;AvvioSopralluogo</title>
<path fill="none" stroke="black" d="M753.7,-392.22C949.59,-393.08 1580.38,-389.36 1580.38,-306 1580.38,-306 1580.38,-306 1580.38,-128.5 1580.38,-109.11 1472.36,-78.45 1397.48,-59.52"/>
<polygon fill="black" stroke="black" points="1398.71,-56.22 1388.16,-57.19 1397.01,-63.01 1398.71,-56.22"/>
<text text-anchor="middle" x="1614.5" y="-211.82" font-family="Times New Roman,serif" font-size="14.00">Sopralluogo</text>
</g>
<!-- VenditaRiparazionePA1 -->
<g id="node15" class="node">
<title>VenditaRiparazionePA1</title>
<path fill="none" stroke="black" d="M759.12,-323C759.12,-323 633.62,-323 633.62,-323 627.62,-323 621.62,-317 621.62,-311 621.62,-311 621.62,-299 621.62,-299 621.62,-293 627.62,-287 633.62,-287 633.62,-287 759.12,-287 759.12,-287 765.12,-287 771.12,-293 771.12,-299 771.12,-299 771.12,-311 771.12,-311 771.12,-317 765.12,-323 759.12,-323"/>
<text text-anchor="middle" x="696.38" y="-299.57" font-family="Times New Roman,serif" font-size="14.00">VenditaRiparazionePA1</text>
</g>
<!-- EsecuzioneTriage&#45;&gt;VenditaRiparazionePA1 -->
<g id="edge15" class="edge">
<title>EsecuzioneTriage&#45;&gt;VenditaRiparazionePA1</title>
<path fill="none" stroke="black" d="M696.38,-374.4C696.38,-363.01 696.38,-347.84 696.38,-334.68"/>
<polygon fill="black" stroke="black" points="699.88,-334.84 696.38,-324.84 692.88,-334.84 699.88,-334.84"/>
<text text-anchor="middle" x="763.12" y="-343.45" font-family="Times New Roman,serif" font-size="14.00">VenditaRiparazionePA1</text>
</g>
<!-- InvioLinkSelfCare -->
<g id="node16" class="node">
<title>InvioLinkSelfCare</title>
<path fill="none" stroke="black" d="M722,-59.75C722,-59.75 628.75,-59.75 628.75,-59.75 622.75,-59.75 616.75,-53.75 616.75,-47.75 616.75,-47.75 616.75,-35.75 616.75,-35.75 616.75,-29.75 622.75,-23.75 628.75,-23.75 628.75,-23.75 722,-23.75 722,-23.75 728,-23.75 734,-29.75 734,-35.75 734,-35.75 734,-47.75 734,-47.75 734,-53.75 728,-59.75 722,-59.75"/>
<text text-anchor="middle" x="675.38" y="-36.33" font-family="Times New Roman,serif" font-size="14.00">InvioLinkSelfCare</text>
</g>
<!-- EsecuzioneTriage&#45;&gt;InvioLinkSelfCare -->
<g id="edge16" class="edge">
<title>EsecuzioneTriage&#45;&gt;InvioLinkSelfCare</title>
<path fill="none" stroke="black" d="M665.03,-374.39C628.66,-353.11 568.44,-314.25 527.38,-269 503.21,-242.37 506.52,-229.04 486.38,-199.25 470.09,-175.17 455.77,-175.01 446.38,-147.5 441.21,-132.36 436.83,-124.34 446.38,-111.5 465.56,-85.71 545.33,-65.96 605.37,-54.39"/>
<polygon fill="black" stroke="black" points="605.67,-57.89 614.85,-52.6 604.37,-51.01 605.67,-57.89"/>
<text text-anchor="middle" x="555" y="-211.82" font-family="Times New Roman,serif" font-size="14.00">InvioLinkSelfCare</text>
</g>
<!-- SceltaManualeServizio -->
<g id="node17" class="node">
<title>SceltaManualeServizio</title>
<path fill="none" stroke="black" d="M1123,-147.5C1123,-147.5 1005.75,-147.5 1005.75,-147.5 999.75,-147.5 993.75,-141.5 993.75,-135.5 993.75,-135.5 993.75,-123.5 993.75,-123.5 993.75,-117.5 999.75,-111.5 1005.75,-111.5 1005.75,-111.5 1123,-111.5 1123,-111.5 1129,-111.5 1135,-117.5 1135,-123.5 1135,-123.5 1135,-135.5 1135,-135.5 1135,-141.5 1129,-147.5 1123,-147.5"/>
<text text-anchor="middle" x="1064.38" y="-124.08" font-family="Times New Roman,serif" font-size="14.00">SceltaManualeServizio</text>
</g>
<!-- EsecuzioneTriage&#45;&gt;SceltaManualeServizio -->
<g id="edge17" class="edge">
<title>EsecuzioneTriage&#45;&gt;SceltaManualeServizio</title>
<path fill="none" stroke="black" d="M753.69,-384.03C851.71,-367.32 1048.38,-317.6 1125.38,-181.25 1131.18,-170.96 1126.26,-161.87 1117.13,-154.33"/>
<polygon fill="black" stroke="black" points="1119.23,-151.52 1109.01,-148.72 1115.24,-157.28 1119.23,-151.52"/>
<text text-anchor="middle" x="1106.5" y="-255.7" font-family="Times New Roman,serif" font-size="14.00">NessunServizio</text>
</g>
<!-- EsecuzioneTriage&#45;&gt;SceltaManualeServizio -->
<g id="edge18" class="edge">
<title>EsecuzioneTriage&#45;&gt;SceltaManualeServizio</title>
<path fill="none" stroke="black" d="M753.59,-385.39C865.68,-371.57 1107.33,-334.67 1153.38,-269 1168.87,-246.9 1209.29,-257.45 1140.38,-165.5 1137.17,-161.22 1133.31,-157.45 1129.06,-154.13"/>
<polygon fill="black" stroke="black" points="1131.36,-151.45 1121.11,-148.77 1127.44,-157.26 1131.36,-151.45"/>
<text text-anchor="middle" x="1233.38" y="-255.7" font-family="Times New Roman,serif" font-size="14.00">CampiObbligMancanti</text>
</g>
<!-- VenditaRiparazionePA1&#45;&gt;VenditaRiparazione -->
<g id="edge19" class="edge">
<title>VenditaRiparazionePA1&#45;&gt;VenditaRiparazione</title>
<path fill="none" stroke="black" d="M621.37,-288.87C543.58,-273.17 422.71,-248.78 345.31,-233.17"/>
<polygon fill="black" stroke="black" points="346.2,-229.78 335.7,-231.23 344.81,-236.64 346.2,-229.78"/>
<text text-anchor="middle" x="584.75" y="-255.7" font-family="Times New Roman,serif" font-size="14.00">InteressatoRiparazione</text>
</g>
<!-- SceltaAutomaticaServizio -->
<g id="node18" class="node">
<title>SceltaAutomaticaServizio</title>
<path fill="none" stroke="black" d="M911.62,-235.25C911.62,-235.25 777.12,-235.25 777.12,-235.25 771.12,-235.25 765.12,-229.25 765.12,-223.25 765.12,-223.25 765.12,-211.25 765.12,-211.25 765.12,-205.25 771.12,-199.25 777.12,-199.25 777.12,-199.25 911.62,-199.25 911.62,-199.25 917.62,-199.25 923.62,-205.25 923.62,-211.25 923.62,-211.25 923.62,-223.25 923.62,-223.25 923.62,-229.25 917.62,-235.25 911.62,-235.25"/>
<text text-anchor="middle" x="844.38" y="-211.82" font-family="Times New Roman,serif" font-size="14.00">SceltaAutomaticaServizio</text>
</g>
<!-- VenditaRiparazionePA1&#45;&gt;SceltaAutomaticaServizio -->
<g id="edge20" class="edge">
<title>VenditaRiparazionePA1&#45;&gt;SceltaAutomaticaServizio</title>
<path fill="none" stroke="black" d="M691.89,-286.66C690.2,-275.9 690.19,-262.43 697.62,-253.25 705.59,-243.41 728.48,-236.01 753.87,-230.61"/>
<polygon fill="black" stroke="black" points="754.26,-234.1 763.39,-228.71 752.9,-227.24 754.26,-234.1"/>
<text text-anchor="middle" x="772.75" y="-255.7" font-family="Times New Roman,serif" font-size="14.00">NonInteressatoRiparazione</text>
</g>
<!-- VenditaRiparazionePA1&#45;&gt;SceltaAutomaticaServizio -->
<g id="edge21" class="edge">
<title>VenditaRiparazionePA1&#45;&gt;SceltaAutomaticaServizio</title>
<path fill="none" stroke="black" d="M771.34,-295.56C804.51,-290.13 838.3,-281.66 848.38,-269 853.33,-262.77 854.31,-254.65 853.49,-246.73"/>
<polygon fill="black" stroke="black" points="856.94,-246.14 851.55,-237.01 850.07,-247.5 856.94,-246.14"/>
<text text-anchor="middle" x="893.12" y="-255.7" font-family="Times New Roman,serif" font-size="14.00">TimerScaduto</text>
</g>
<!-- InvioLinkSelfCare&#45;&gt;SceltaAutomaticaServizio -->
<g id="edge29" class="edge">
<title>InvioLinkSelfCare&#45;&gt;SceltaAutomaticaServizio</title>
<path fill="none" stroke="black" d="M628.78,-60.23C585.47,-79.19 531.28,-111.6 557.38,-147.5 580.4,-179.19 678.31,-197.55 753.43,-207.2"/>
<polygon fill="black" stroke="black" points="752.94,-210.66 763.3,-208.43 753.81,-203.72 752.94,-210.66"/>
<text text-anchor="middle" x="605.38" y="-124.08" font-family="Times New Roman,serif" font-size="14.00">SelfCareEseguito</text>
</g>
<!-- InvioLinkSelfCare&#45;&gt;SceltaAutomaticaServizio -->
<g id="edge30" class="edge">
<title>InvioLinkSelfCare&#45;&gt;SceltaAutomaticaServizio</title>
<path fill="none" stroke="black" d="M672.87,-60.24C670.64,-82.74 670.23,-121.95 689.38,-147.5 705.75,-169.35 730.6,-184.39 755.65,-194.69"/>
<polygon fill="black" stroke="black" points="754.36,-197.95 764.95,-198.28 756.88,-191.41 754.36,-197.95"/>
<text text-anchor="middle" x="749.38" y="-124.08" font-family="Times New Roman,serif" font-size="14.00">SelfCareNonEseguito</text>
</g>
<!-- InvioLinkSelfCare&#45;&gt;SceltaAutomaticaServizio -->
<g id="edge31" class="edge">
<title>InvioLinkSelfCare&#45;&gt;SceltaAutomaticaServizio</title>
<path fill="none" stroke="black" d="M684.27,-60.04C691,-71.35 701.31,-85.47 714.38,-93.5 750.98,-116.01 777,-83.24 809.38,-111.5 821,-121.65 831.85,-160.47 838.3,-187.87"/>
<polygon fill="black" stroke="black" points="834.82,-188.35 840.44,-197.33 841.64,-186.8 834.82,-188.35"/>
<text text-anchor="middle" x="866.12" y="-124.08" font-family="Times New Roman,serif" font-size="14.00">TimerScaduto</text>
</g>
<!-- SceltaManualeServizio&#45;&gt;AvvioSopralluogoPCE -->
<g id="edge33" class="edge">
<title>SceltaManualeServizio&#45;&gt;AvvioSopralluogoPCE</title>
<path fill="none" stroke="black" d="M1135.27,-119.53C1180.22,-113.36 1239.46,-104.33 1291.38,-93.5 1332.06,-85.01 1376.99,-73.27 1413.16,-63.21"/>
<polygon fill="black" stroke="black" points="1413.94,-66.63 1422.63,-60.56 1412.05,-59.89 1413.94,-66.63"/>
<text text-anchor="middle" x="1401.62" y="-80.2" font-family="Times New Roman,serif" font-size="14.00">SopralluogoPCE</text>
</g>
<!-- SceltaManualeServizio&#45;&gt;AvvioSopralluogo -->
<g id="edge34" class="edge">
<title>SceltaManualeServizio&#45;&gt;AvvioSopralluogo</title>
<path fill="none" stroke="black" d="M1117.91,-111.04C1159.96,-97.34 1218.64,-78.2 1263.19,-63.68"/>
<polygon fill="black" stroke="black" points="1264.05,-67.08 1272.47,-60.65 1261.88,-60.42 1264.05,-67.08"/>
<text text-anchor="middle" x="1253.5" y="-80.2" font-family="Times New Roman,serif" font-size="14.00">Sopralluogo</text>
</g>
<!-- SceltaManualeServizio&#45;&gt;AvvioManualeVisio -->
<g id="edge35" class="edge">
<title>SceltaManualeServizio&#45;&gt;AvvioManualeVisio</title>
<path fill="none" stroke="black" d="M1060.53,-111.15C1057.98,-99.64 1054.58,-84.28 1051.64,-71.03"/>
<polygon fill="black" stroke="black" points="1055.12,-70.56 1049.54,-61.55 1048.29,-72.08 1055.12,-70.56"/>
<text text-anchor="middle" x="1071" y="-80.2" font-family="Times New Roman,serif" font-size="14.00">Visio</text>
</g>
<!-- SceltaManualeServizio&#45;&gt;AvvioManualeDesk -->
<g id="edge36" class="edge">
<title>SceltaManualeServizio&#45;&gt;AvvioManualeDesk</title>
<path fill="none" stroke="black" d="M1089.47,-111.15C1108.04,-98.3 1133.56,-80.66 1154.02,-66.5"/>
<polygon fill="black" stroke="black" points="1155.84,-69.5 1162.07,-60.94 1151.86,-63.75 1155.84,-69.5"/>
<text text-anchor="middle" x="1151.62" y="-80.2" font-family="Times New Roman,serif" font-size="14.00">Desk</text>
</g>
<!-- SceltaManualeServizio&#45;&gt;AvvioRiparazione -->
<g id="edge32" class="edge">
<title>SceltaManualeServizio&#45;&gt;AvvioRiparazione</title>
<path fill="none" stroke="black" d="M993.45,-113.48C989.03,-112.75 984.65,-112.08 980.38,-111.5 870.11,-96.43 840.96,-108.02 730.62,-93.5 663.93,-84.72 588.65,-69.76 535.55,-58.35"/>
<polygon fill="black" stroke="black" points="536.56,-54.99 526.05,-56.29 535.08,-61.83 536.56,-54.99"/>
<text text-anchor="middle" x="780.25" y="-80.2" font-family="Times New Roman,serif" font-size="14.00">AvvioRiparazione</text>
</g>
<!-- SceltaManualeServizio&#45;&gt;InvioLinkSelfCare -->
<g id="edge37" class="edge">
<title>SceltaManualeServizio&#45;&gt;InvioLinkSelfCare</title>
<path fill="none" stroke="black" d="M993.4,-112.83C947.94,-102.8 887.69,-89.5 834.38,-77.75 805.26,-71.33 773.15,-64.26 745.45,-58.17"/>
<polygon fill="black" stroke="black" points="746.27,-54.76 735.75,-56.03 744.77,-61.6 746.27,-54.76"/>
<text text-anchor="middle" x="954" y="-80.2" font-family="Times New Roman,serif" font-size="14.00">InvioLinkSelfCare</text>
</g>
<!-- SceltaManualeServizio&#45;&gt;SceltaManualeServizio -->
<g id="edge38" class="edge">
<title>SceltaManualeServizio&#45;&gt;SceltaManualeServizio</title>
<path fill="none" stroke="black" d="M1135.3,-136.96C1145.86,-135.8 1153,-133.31 1153,-129.5 1153,-127.3 1150.61,-125.53 1146.56,-124.22"/>
<polygon fill="black" stroke="black" points="1147.27,-120.79 1136.79,-122.32 1145.94,-127.66 1147.27,-120.79"/>
<text text-anchor="middle" x="1216" y="-124.08" font-family="Times New Roman,serif" font-size="14.00">CampiObbligMancanti</text>
</g>
<!-- SceltaAutomaticaServizio&#45;&gt;AvvioSopralluogoPCE -->
<g id="edge22" class="edge">
<title>SceltaAutomaticaServizio&#45;&gt;AvvioSopralluogoPCE</title>
<path fill="none" stroke="black" d="M924.09,-212.3C1054.01,-204.83 1304.9,-185.84 1384.38,-147.5 1419.45,-130.58 1427.69,-122.77 1453.38,-93.5 1459.64,-86.36 1465.31,-77.73 1469.98,-69.62"/>
<polygon fill="black" stroke="black" points="1472.91,-71.57 1474.63,-61.12 1466.76,-68.22 1472.91,-71.57"/>
<text text-anchor="middle" x="1483.62" y="-124.08" font-family="Times New Roman,serif" font-size="14.00">SopralluogoPCE</text>
</g>
<!-- SceltaAutomaticaServizio&#45;&gt;AvvioVisio -->
<g id="edge23" class="edge">
<title>SceltaAutomaticaServizio&#45;&gt;AvvioVisio</title>
<path fill="none" stroke="black" d="M764.89,-211.83C711.38,-207.39 639.67,-198.59 578.38,-181.25 505.29,-160.58 494.67,-134.78 422.38,-111.5 316.94,-77.55 282.66,-89.58 173.15,-60.32"/>
<polygon fill="black" stroke="black" points="174.34,-57.02 163.78,-57.76 172.5,-63.77 174.34,-57.02"/>
<text text-anchor="middle" x="514" y="-124.08" font-family="Times New Roman,serif" font-size="14.00">Visio</text>
</g>
<!-- SceltaAutomaticaServizio&#45;&gt;AvvioDesk -->
<g id="edge24" class="edge">
<title>SceltaAutomaticaServizio&#45;&gt;AvvioDesk</title>
<path fill="none" stroke="black" d="M849.6,-199.23C853.71,-188.32 860.42,-174.57 870.38,-165.5 886.3,-150.99 898.09,-160.35 915.38,-147.5 939.99,-129.19 948.25,-122.46 958.38,-93.5 960.68,-86.89 960.96,-84.26 958.38,-77.75 957.16,-74.69 955.54,-71.75 953.67,-68.96"/>
<polygon fill="black" stroke="black" points="956.48,-66.87 947.49,-61.27 951.02,-71.26 956.48,-66.87"/>
<text text-anchor="middle" x="964.62" y="-124.08" font-family="Times New Roman,serif" font-size="14.00">Desk</text>
</g>
<!-- SceltaAutomaticaServizio&#45;&gt;AvvioSopralluogo -->
<g id="edge25" class="edge">
<title>SceltaAutomaticaServizio&#45;&gt;AvvioSopralluogo</title>
<path fill="none" stroke="black" d="M923.98,-213.78C1036.69,-208.68 1235.03,-193.28 1288.38,-147.5 1310.67,-128.36 1320.24,-95.22 1324.33,-71.33"/>
<polygon fill="black" stroke="black" points="1327.77,-72.03 1325.75,-61.63 1320.84,-71.01 1327.77,-72.03"/>
<text text-anchor="middle" x="1346.5" y="-124.08" font-family="Times New Roman,serif" font-size="14.00">Sopralluogo</text>
</g>
<!-- SceltaAutomaticaServizio&#45;&gt;AvvioAccertSelfCare -->
<g id="edge26" class="edge">
<title>SceltaAutomaticaServizio&#45;&gt;AvvioAccertSelfCare</title>
<path fill="none" stroke="black" d="M764.89,-210.18C603.18,-197.43 249.61,-167.42 232.38,-147.5 214.11,-126.39 222.81,-93.44 232.9,-70.14"/>
<polygon fill="black" stroke="black" points="235.99,-71.79 237.06,-61.25 229.65,-68.83 235.99,-71.79"/>
<text text-anchor="middle" x="256.38" y="-124.08" font-family="Times New Roman,serif" font-size="14.00">SelfCare</text>
</g>
<!-- SceltaAutomaticaServizio&#45;&gt;SceltaManualeServizio -->
<g id="edge27" class="edge">
<title>SceltaAutomaticaServizio&#45;&gt;SceltaManualeServizio</title>
<path fill="none" stroke="black" d="M924.11,-210.3C954.44,-205.47 988.4,-196.79 1016.38,-181.25 1027.35,-175.16 1037.29,-165.69 1045.25,-156.58"/>
<polygon fill="black" stroke="black" points="1047.92,-158.85 1051.55,-148.9 1042.5,-154.41 1047.92,-158.85"/>
<text text-anchor="middle" x="1078.5" y="-167.95" font-family="Times New Roman,serif" font-size="14.00">NessunServizio</text>
</g>
<!-- SceltaAutomaticaServizio&#45;&gt;SceltaManualeServizio -->
<g id="edge28" class="edge">
<title>SceltaAutomaticaServizio&#45;&gt;SceltaManualeServizio</title>
<path fill="none" stroke="black" d="M854.26,-198.97C861.65,-187.66 872.79,-173.54 886.38,-165.5 922.98,-143.84 938.64,-155.72 980.38,-147.5 981.04,-147.37 981.7,-147.24 982.37,-147.11"/>
<polygon fill="black" stroke="black" points="982.74,-150.6 991.87,-145.22 981.38,-143.74 982.74,-150.6"/>
<text text-anchor="middle" x="949.38" y="-167.95" font-family="Times New Roman,serif" font-size="14.00">CampiObbligMancanti</text>
</g>
</g>
</svg>
