<?xml version="1.0" encoding="UTF-8" standalone="no"?>
<!DOCTYPE svg PUBLIC "-//W3C//DTD SVG 1.1//EN"
 "http://www.w3.org/Graphics/SVG/1.1/DTD/svg11.dtd">
<!-- Generated by graphviz version 9.0.0 (20230911.1827)
 -->
<!-- Title: finite_state_machine Pages: 1 -->
<svg width="576pt" height="297pt"
 viewBox="0.00 0.00 576.00 296.70" xmlns="http://www.w3.org/2000/svg" xmlns:xlink="http://www.w3.org/1999/xlink">
<g id="graph0" class="graph" transform="scale(0.385445 0.385445) rotate(0) translate(4 765.75)">
<title>finite_state_machine</title>
<polygon fill="white" stroke="none" points="-4,4 -4,-765.75 1490.38,-765.75 1490.38,4 -4,4"/>
<text text-anchor="middle" x="743.19" y="-6.45" font-family="Times New Roman,serif" font-size="14.00">Opening</text>
<!-- InizializzazioneIncarico -->
<g id="node1" class="node">
<title>InizializzazioneIncarico</title>
<polygon fill="lightgrey" stroke="black" points="580.25,-761.75 436,-761.75 436,-725.75 580.25,-725.75 580.25,-761.75"/>
<text text-anchor="middle" x="508.12" y="-738.33" font-family="Times New Roman,serif" font-size="14.00">InizializzazioneIncarico</text>
</g>
<!-- CreazioneAutomaticaIncarico -->
<g id="node11" class="node">
<title>CreazioneAutomaticaIncarico</title>
<path fill="none" stroke="black" d="M586.62,-674C586.62,-674 429.62,-674 429.62,-674 423.62,-674 417.62,-668 417.62,-662 417.62,-662 417.62,-650 417.62,-650 417.62,-644 423.62,-638 429.62,-638 429.62,-638 586.62,-638 586.62,-638 592.62,-638 598.62,-644 598.62,-650 598.62,-650 598.62,-662 598.62,-662 598.62,-668 592.62,-674 586.62,-674"/>
<text text-anchor="middle" x="508.12" y="-650.58" font-family="Times New Roman,serif" font-size="14.00">CreazioneAutomaticaIncarico</text>
</g>
<!-- InizializzazioneIncarico&#45;&gt;CreazioneAutomaticaIncarico -->
<g id="edge1" class="edge">
<title>InizializzazioneIncarico&#45;&gt;CreazioneAutomaticaIncarico</title>
<path fill="none" stroke="black" d="M508.12,-725.4C508.12,-714.01 508.12,-698.84 508.12,-685.68"/>
<polygon fill="black" stroke="black" points="511.63,-685.84 508.13,-675.84 504.63,-685.84 511.63,-685.84"/>
<text text-anchor="middle" x="549.38" y="-694.45" font-family="Times New Roman,serif" font-size="14.00">Inizializzazione</text>
</g>
<!-- CreazioneManualeIncarico -->
<g id="node2" class="node">
<title>CreazioneManualeIncarico</title>
<polygon fill="lightgrey" stroke="black" points="399,-761.75 235.25,-761.75 235.25,-725.75 399,-725.75 399,-761.75"/>
<text text-anchor="middle" x="317.12" y="-738.33" font-family="Times New Roman,serif" font-size="14.00">CreazioneManualeIncarico</text>
</g>
<!-- CompletamentoManualeIncarico -->
<g id="node12" class="node">
<title>CompletamentoManualeIncarico</title>
<path fill="none" stroke="black" d="M487.5,-586.25C487.5,-586.25 314.75,-586.25 314.75,-586.25 308.75,-586.25 302.75,-580.25 302.75,-574.25 302.75,-574.25 302.75,-562.25 302.75,-562.25 302.75,-556.25 308.75,-550.25 314.75,-550.25 314.75,-550.25 487.5,-550.25 487.5,-550.25 493.5,-550.25 499.5,-556.25 499.5,-562.25 499.5,-562.25 499.5,-574.25 499.5,-574.25 499.5,-580.25 493.5,-586.25 487.5,-586.25"/>
<text text-anchor="middle" x="401.12" y="-562.83" font-family="Times New Roman,serif" font-size="14.00">CompletamentoManualeIncarico</text>
</g>
<!-- CreazioneManualeIncarico&#45;&gt;CompletamentoManualeIncarico -->
<g id="edge2" class="edge">
<title>CreazioneManualeIncarico&#45;&gt;CompletamentoManualeIncarico</title>
<path fill="none" stroke="black" d="M315.04,-725.42C313.22,-703.77 312.74,-666.17 326.62,-638 335.32,-620.35 350.63,-605.01 365.12,-593.32"/>
<polygon fill="black" stroke="black" points="366.97,-596.31 372.77,-587.45 362.7,-590.76 366.97,-596.31"/>
<text text-anchor="middle" x="367.38" y="-650.58" font-family="Times New Roman,serif" font-size="14.00">Inizializzazione</text>
</g>
<!-- AvvioRiparazione -->
<g id="node3" class="node">
<title>AvvioRiparazione</title>
<polygon fill="lightgrey" stroke="black" points="406,-59.75 290.25,-59.75 290.25,-23.75 406,-23.75 406,-59.75"/>
<text text-anchor="middle" x="348.12" y="-36.33" font-family="Times New Roman,serif" font-size="14.00">AvvioRiparazione</text>
</g>
<!-- AvvioSopralluogoPCE -->
<g id="node4" class="node">
<title>AvvioSopralluogoPCE</title>
<polygon fill="lightgrey" stroke="black" points="1225.25,-59.75 1081,-59.75 1081,-23.75 1225.25,-23.75 1225.25,-59.75"/>
<text text-anchor="middle" x="1153.12" y="-36.33" font-family="Times New Roman,serif" font-size="14.00">AvvioSopralluogoPCE</text>
</g>
<!-- AvvioVisio -->
<g id="node5" class="node">
<title>AvvioVisio</title>
<polygon fill="lightgrey" stroke="black" points="1400.62,-59.75 1321.62,-59.75 1321.62,-23.75 1400.62,-23.75 1400.62,-59.75"/>
<text text-anchor="middle" x="1361.12" y="-36.33" font-family="Times New Roman,serif" font-size="14.00">AvvioVisio</text>
</g>
<!-- AvvioDesk -->
<g id="node6" class="node">
<title>AvvioDesk</title>
<polygon fill="lightgrey" stroke="black" points="78.25,-59.75 0,-59.75 0,-23.75 78.25,-23.75 78.25,-59.75"/>
<text text-anchor="middle" x="39.12" y="-36.33" font-family="Times New Roman,serif" font-size="14.00">AvvioDesk</text>
</g>
<!-- AvvioSopralluogo -->
<g id="node7" class="node">
<title>AvvioSopralluogo</title>
<polygon fill="lightgrey" stroke="black" points="1063.12,-59.75 945.12,-59.75 945.12,-23.75 1063.12,-23.75 1063.12,-59.75"/>
<text text-anchor="middle" x="1004.12" y="-36.33" font-family="Times New Roman,serif" font-size="14.00">AvvioSopralluogo</text>
</g>
<!-- AvvioManualeVisio -->
<g id="node8" class="node">
<title>AvvioManualeVisio</title>
<polygon fill="lightgrey" stroke="black" points="733.88,-59.75 608.38,-59.75 608.38,-23.75 733.88,-23.75 733.88,-59.75"/>
<text text-anchor="middle" x="671.12" y="-36.33" font-family="Times New Roman,serif" font-size="14.00">AvvioManualeVisio</text>
</g>
<!-- AvvioManualeDesk -->
<g id="node9" class="node">
<title>AvvioManualeDesk</title>
<polygon fill="lightgrey" stroke="black" points="876.5,-59.75 751.75,-59.75 751.75,-23.75 876.5,-23.75 876.5,-59.75"/>
<text text-anchor="middle" x="814.12" y="-36.33" font-family="Times New Roman,serif" font-size="14.00">AvvioManualeDesk</text>
</g>
<!-- AvvioAccertSelfCare -->
<g id="node10" class="node">
<title>AvvioAccertSelfCare</title>
<polygon fill="lightgrey" stroke="black" points="271.75,-59.75 136.5,-59.75 136.5,-23.75 271.75,-23.75 271.75,-59.75"/>
<text text-anchor="middle" x="204.12" y="-36.33" font-family="Times New Roman,serif" font-size="14.00">AvvioAccertSelfCare</text>
</g>
<!-- CreazioneAutomaticaIncarico&#45;&gt;CompletamentoManualeIncarico -->
<g id="edge3" class="edge">
<title>CreazioneAutomaticaIncarico&#45;&gt;CompletamentoManualeIncarico</title>
<path fill="none" stroke="black" d="M483.13,-637.61C475.48,-632.12 467.11,-625.93 459.62,-620 449.3,-611.82 438.3,-602.46 428.67,-594.03"/>
<polygon fill="black" stroke="black" points="431.2,-591.61 421.39,-587.61 426.57,-596.85 431.2,-591.61"/>
<text text-anchor="middle" x="507.88" y="-606.7" font-family="Times New Roman,serif" font-size="14.00">DatiNonCompleti</text>
</g>
<!-- VenditaRiparazione -->
<g id="node13" class="node">
<title>VenditaRiparazione</title>
<path fill="none" stroke="black" d="M217.5,-498.5C217.5,-498.5 116.75,-498.5 116.75,-498.5 110.75,-498.5 104.75,-492.5 104.75,-486.5 104.75,-486.5 104.75,-474.5 104.75,-474.5 104.75,-468.5 110.75,-462.5 116.75,-462.5 116.75,-462.5 217.5,-462.5 217.5,-462.5 223.5,-462.5 229.5,-468.5 229.5,-474.5 229.5,-474.5 229.5,-486.5 229.5,-486.5 229.5,-492.5 223.5,-498.5 217.5,-498.5"/>
<text text-anchor="middle" x="167.12" y="-475.07" font-family="Times New Roman,serif" font-size="14.00">VenditaRiparazione</text>
</g>
<!-- CreazioneAutomaticaIncarico&#45;&gt;VenditaRiparazione -->
<g id="edge4" class="edge">
<title>CreazioneAutomaticaIncarico&#45;&gt;VenditaRiparazione</title>
<path fill="none" stroke="black" d="M417.46,-638.26C324.88,-620.78 193.56,-594.75 185.38,-586.25 166.18,-566.32 163.21,-533.83 164.04,-510.31"/>
<polygon fill="black" stroke="black" points="167.52,-510.65 164.66,-500.45 160.54,-510.21 167.52,-510.65"/>
<text text-anchor="middle" x="240.5" y="-562.83" font-family="Times New Roman,serif" font-size="14.00">VenditaRiparazione</text>
</g>
<!-- EsecuzioneTriage -->
<g id="node14" class="node">
<title>EsecuzioneTriage</title>
<path fill="none" stroke="black" d="M616.25,-410.75C616.25,-410.75 526,-410.75 526,-410.75 520,-410.75 514,-404.75 514,-398.75 514,-398.75 514,-386.75 514,-386.75 514,-380.75 520,-374.75 526,-374.75 526,-374.75 616.25,-374.75 616.25,-374.75 622.25,-374.75 628.25,-380.75 628.25,-386.75 628.25,-386.75 628.25,-398.75 628.25,-398.75 628.25,-404.75 622.25,-410.75 616.25,-410.75"/>
<text text-anchor="middle" x="571.12" y="-387.32" font-family="Times New Roman,serif" font-size="14.00">EsecuzioneTriage</text>
</g>
<!-- CreazioneAutomaticaIncarico&#45;&gt;EsecuzioneTriage -->
<g id="edge5" class="edge">
<title>CreazioneAutomaticaIncarico&#45;&gt;EsecuzioneTriage</title>
<path fill="none" stroke="black" d="M541.27,-637.54C547.54,-632.7 553.32,-626.86 557.12,-620 592.26,-556.63 584.1,-467.38 576.74,-422.26"/>
<polygon fill="black" stroke="black" points="580.21,-421.75 575.04,-412.5 573.31,-422.96 580.21,-421.75"/>
<text text-anchor="middle" x="649.25" y="-518.95" font-family="Times New Roman,serif" font-size="14.00">RiparazioneNonPrevista</text>
</g>
<!-- CompletamentoManualeIncarico&#45;&gt;VenditaRiparazione -->
<g id="edge6" class="edge">
<title>CompletamentoManualeIncarico&#45;&gt;VenditaRiparazione</title>
<path fill="none" stroke="black" d="M339.68,-549.83C322.32,-544.55 303.5,-538.49 286.38,-532.25 262.77,-523.66 237.08,-512.91 215.6,-503.51"/>
<polygon fill="black" stroke="black" points="217.06,-500.33 206.5,-499.5 214.23,-506.74 217.06,-500.33"/>
<text text-anchor="middle" x="341.5" y="-518.95" font-family="Times New Roman,serif" font-size="14.00">VenditaRiparazione</text>
</g>
<!-- CompletamentoManualeIncarico&#45;&gt;EsecuzioneTriage -->
<g id="edge7" class="edge">
<title>CompletamentoManualeIncarico&#45;&gt;EsecuzioneTriage</title>
<path fill="none" stroke="black" d="M400.21,-550.07C399.93,-527.56 402.67,-487.96 422.88,-462.5 442.81,-437.37 474.05,-421.03 502.72,-410.61"/>
<polygon fill="black" stroke="black" points="503.8,-413.95 512.13,-407.4 501.53,-407.32 503.8,-413.95"/>
<text text-anchor="middle" x="489.25" y="-475.07" font-family="Times New Roman,serif" font-size="14.00">RiparazioneNonPrevista</text>
</g>
<!-- VenditaRiparazione&#45;&gt;AvvioRiparazione -->
<g id="edge8" class="edge">
<title>VenditaRiparazione&#45;&gt;AvvioRiparazione</title>
<path fill="none" stroke="black" d="M115.39,-462.15C86.04,-448.69 55.12,-426.69 55.12,-393.75 55.12,-393.75 55.12,-393.75 55.12,-128.5 55.12,-27 169.63,-73.97 278.58,-59.82"/>
<polygon fill="black" stroke="black" points="278.91,-63.31 288.28,-58.36 277.87,-56.39 278.91,-63.31"/>
<text text-anchor="middle" x="111.38" y="-255.7" font-family="Times New Roman,serif" font-size="14.00">RiparazioneVenduta</text>
</g>
<!-- VenditaRiparazione&#45;&gt;VenditaRiparazione -->
<g id="edge9" class="edge">
<title>VenditaRiparazione&#45;&gt;VenditaRiparazione</title>
<path fill="none" stroke="black" d="M229.81,-488.15C240.28,-487.08 247.5,-484.53 247.5,-480.5 247.5,-478.17 245.09,-476.34 241.03,-475"/>
<polygon fill="black" stroke="black" points="241.77,-471.58 231.29,-473.14 240.46,-478.45 241.77,-471.58"/>
<text text-anchor="middle" x="310.5" y="-475.07" font-family="Times New Roman,serif" font-size="14.00">CampiObbligMancanti</text>
</g>
<!-- VenditaRiparazione&#45;&gt;EsecuzioneTriage -->
<g id="edge10" class="edge">
<title>VenditaRiparazione&#45;&gt;EsecuzioneTriage</title>
<path fill="none" stroke="black" d="M191.92,-462.2C209.66,-450.73 234.57,-436.43 258.62,-428.75 339.7,-402.87 437.91,-395.53 502.33,-393.75"/>
<polygon fill="black" stroke="black" points="502.13,-397.25 512.04,-393.52 501.96,-390.26 502.13,-397.25"/>
<text text-anchor="middle" x="327.38" y="-431.2" font-family="Times New Roman,serif" font-size="14.00">RiparazioneNonVenduta</text>
</g>
<!-- EsecuzioneTriage&#45;&gt;AvvioSopralluogoPCE -->
<g id="edge11" class="edge">
<title>EsecuzioneTriage&#45;&gt;AvvioSopralluogoPCE</title>
<path fill="none" stroke="black" d="M628.49,-391.24C804.68,-388.93 1326.12,-376.16 1326.12,-306 1326.12,-306 1326.12,-306 1326.12,-172.38 1326.12,-118.18 1271.08,-83.88 1223.09,-64.28"/>
<polygon fill="black" stroke="black" points="1224.66,-61.13 1214.07,-60.75 1222.11,-67.65 1224.66,-61.13"/>
<text text-anchor="middle" x="1373.38" y="-211.82" font-family="Times New Roman,serif" font-size="14.00">SopralluogoPCE</text>
</g>
<!-- EsecuzioneTriage&#45;&gt;AvvioVisio -->
<g id="edge12" class="edge">
<title>EsecuzioneTriage&#45;&gt;AvvioVisio</title>
<path fill="none" stroke="black" d="M628.58,-392.23C824.91,-393.13 1457.12,-389.55 1457.12,-306 1457.12,-306 1457.12,-306 1457.12,-128.5 1457.12,-100.64 1434.35,-79.57 1410.99,-65.3"/>
<polygon fill="black" stroke="black" points="1412.74,-62.26 1402.32,-60.34 1409.26,-68.34 1412.74,-62.26"/>
<text text-anchor="middle" x="1471.75" y="-211.82" font-family="Times New Roman,serif" font-size="14.00">Visio</text>
</g>
<!-- EsecuzioneTriage&#45;&gt;AvvioDesk -->
<g id="edge13" class="edge">
<title>EsecuzioneTriage&#45;&gt;AvvioDesk</title>
<path fill="none" stroke="black" d="M513.53,-382.24C477.33,-375.89 429.77,-366.87 388.12,-356.75 336.78,-344.27 322,-345.37 274.12,-323 223.37,-299.28 217,-282.35 169.12,-253.25 155.01,-244.67 150.02,-244.9 136.62,-235.25 89.86,-201.55 64.81,-200.05 41.12,-147.5 30.28,-123.43 31.09,-92.99 33.82,-71.13"/>
<polygon fill="black" stroke="black" points="37.25,-71.87 35.26,-61.47 30.33,-70.85 37.25,-71.87"/>
<text text-anchor="middle" x="151.38" y="-211.82" font-family="Times New Roman,serif" font-size="14.00">Desk</text>
</g>
<!-- EsecuzioneTriage&#45;&gt;AvvioSopralluogo -->
<g id="edge14" class="edge">
<title>EsecuzioneTriage&#45;&gt;AvvioSopralluogo</title>
<path fill="none" stroke="black" d="M628.64,-387.01C676.91,-382.14 747.35,-372.92 807.12,-356.75 916.9,-327.06 1213.95,-243.99 1274.12,-147.5 1282.59,-133.92 1283.94,-124.13 1274.12,-111.5 1273.34,-110.48 1154.19,-80.42 1074.46,-60.38"/>
<polygon fill="black" stroke="black" points="1075.5,-57.04 1064.95,-58 1073.8,-63.83 1075.5,-57.04"/>
<text text-anchor="middle" x="1251.25" y="-211.82" font-family="Times New Roman,serif" font-size="14.00">Sopralluogo</text>
</g>
<!-- VenditaRiparazionePA1 -->
<g id="node15" class="node">
<title>VenditaRiparazionePA1</title>
<path fill="none" stroke="black" d="M625.88,-323C625.88,-323 500.38,-323 500.38,-323 494.38,-323 488.38,-317 488.38,-311 488.38,-311 488.38,-299 488.38,-299 488.38,-293 494.38,-287 500.38,-287 500.38,-287 625.88,-287 625.88,-287 631.88,-287 637.88,-293 637.88,-299 637.88,-299 637.88,-311 637.88,-311 637.88,-317 631.88,-323 625.88,-323"/>
<text text-anchor="middle" x="563.12" y="-299.57" font-family="Times New Roman,serif" font-size="14.00">VenditaRiparazionePA1</text>
</g>
<!-- EsecuzioneTriage&#45;&gt;VenditaRiparazionePA1 -->
<g id="edge15" class="edge">
<title>EsecuzioneTriage&#45;&gt;VenditaRiparazionePA1</title>
<path fill="none" stroke="black" d="M569.51,-374.4C568.44,-363.01 567.03,-347.84 565.8,-334.68"/>
<polygon fill="black" stroke="black" points="569.3,-334.47 564.88,-324.83 562.33,-335.12 569.3,-334.47"/>
<text text-anchor="middle" x="633.88" y="-343.45" font-family="Times New Roman,serif" font-size="14.00">VenditaRiparazionePA1</text>
</g>
<!-- InvioLinkSelfCare -->
<g id="node16" class="node">
<title>InvioLinkSelfCare</title>
<path fill="none" stroke="black" d="M529.75,-59.75C529.75,-59.75 436.5,-59.75 436.5,-59.75 430.5,-59.75 424.5,-53.75 424.5,-47.75 424.5,-47.75 424.5,-35.75 424.5,-35.75 424.5,-29.75 430.5,-23.75 436.5,-23.75 436.5,-23.75 529.75,-23.75 529.75,-23.75 535.75,-23.75 541.75,-29.75 541.75,-35.75 541.75,-35.75 541.75,-47.75 541.75,-47.75 541.75,-53.75 535.75,-59.75 529.75,-59.75"/>
<text text-anchor="middle" x="483.12" y="-36.33" font-family="Times New Roman,serif" font-size="14.00">InvioLinkSelfCare</text>
</g>
<!-- EsecuzioneTriage&#45;&gt;InvioLinkSelfCare -->
<g id="edge16" class="edge">
<title>EsecuzioneTriage&#45;&gt;InvioLinkSelfCare</title>
<path fill="none" stroke="black" d="M513.72,-379.78C414.3,-355.62 212.64,-290.61 128.12,-147.5 35.09,10.03 51.95,-134.76 413.15,-60.07"/>
<polygon fill="black" stroke="black" points="413.67,-63.54 422.73,-58.05 412.22,-56.69 413.67,-63.54"/>
<text text-anchor="middle" x="253.75" y="-211.82" font-family="Times New Roman,serif" font-size="14.00">InvioLinkSelfCare</text>
</g>
<!-- SceltaManualeServizio -->
<g id="node17" class="node">
<title>SceltaManualeServizio</title>
<path fill="none" stroke="black" d="M803.75,-147.5C803.75,-147.5 686.5,-147.5 686.5,-147.5 680.5,-147.5 674.5,-141.5 674.5,-135.5 674.5,-135.5 674.5,-123.5 674.5,-123.5 674.5,-117.5 680.5,-111.5 686.5,-111.5 686.5,-111.5 803.75,-111.5 803.75,-111.5 809.75,-111.5 815.75,-117.5 815.75,-123.5 815.75,-123.5 815.75,-135.5 815.75,-135.5 815.75,-141.5 809.75,-147.5 803.75,-147.5"/>
<text text-anchor="middle" x="745.12" y="-124.08" font-family="Times New Roman,serif" font-size="14.00">SceltaManualeServizio</text>
</g>
<!-- EsecuzioneTriage&#45;&gt;SceltaManualeServizio -->
<g id="edge17" class="edge">
<title>EsecuzioneTriage&#45;&gt;SceltaManualeServizio</title>
<path fill="none" stroke="black" d="M628.62,-384C653.4,-378.88 681.95,-370.46 705.12,-356.75 751.32,-329.41 759,-314.09 788.12,-269 814.55,-228.09 850.69,-206.32 824.12,-165.5 821.46,-161.4 818.18,-157.77 814.51,-154.57"/>
<polygon fill="black" stroke="black" points="816.64,-151.8 806.5,-148.73 812.52,-157.45 816.64,-151.8"/>
<text text-anchor="middle" x="841.25" y="-255.7" font-family="Times New Roman,serif" font-size="14.00">NessunServizio</text>
</g>
<!-- EsecuzioneTriage&#45;&gt;SceltaManualeServizio -->
<g id="edge18" class="edge">
<title>EsecuzioneTriage&#45;&gt;SceltaManualeServizio</title>
<path fill="none" stroke="black" d="M628.57,-389.56C704.63,-383.11 835.29,-358.77 888.12,-269 909.48,-232.71 910.12,-225.33 841.12,-165.5 835.54,-160.66 829.23,-156.47 822.58,-152.84"/>
<polygon fill="black" stroke="black" points="824.52,-149.89 814,-148.59 821.41,-156.16 824.52,-149.89"/>
<text text-anchor="middle" x="959.12" y="-255.7" font-family="Times New Roman,serif" font-size="14.00">CampiObbligMancanti</text>
</g>
<!-- VenditaRiparazionePA1&#45;&gt;VenditaRiparazione -->
<g id="edge19" class="edge">
<title>VenditaRiparazionePA1&#45;&gt;VenditaRiparazione</title>
<path fill="none" stroke="black" d="M488.17,-323.4C416.13,-342.25 305.99,-376.78 221.12,-428.75 209.98,-435.57 199.18,-444.97 190.21,-453.82"/>
<polygon fill="black" stroke="black" points="187.73,-451.35 183.27,-460.96 192.75,-456.23 187.73,-451.35"/>
<text text-anchor="middle" x="392.5" y="-387.32" font-family="Times New Roman,serif" font-size="14.00">InteressatoRiparazione</text>
</g>
<!-- SceltaAutomaticaServizio -->
<g id="node18" class="node">
<title>SceltaAutomaticaServizio</title>
<path fill="none" stroke="black" d="M634.38,-235.25C634.38,-235.25 499.88,-235.25 499.88,-235.25 493.88,-235.25 487.88,-229.25 487.88,-223.25 487.88,-223.25 487.88,-211.25 487.88,-211.25 487.88,-205.25 493.88,-199.25 499.88,-199.25 499.88,-199.25 634.38,-199.25 634.38,-199.25 640.38,-199.25 646.38,-205.25 646.38,-211.25 646.38,-211.25 646.38,-223.25 646.38,-223.25 646.38,-229.25 640.38,-235.25 634.38,-235.25"/>
<text text-anchor="middle" x="567.12" y="-211.82" font-family="Times New Roman,serif" font-size="14.00">SceltaAutomaticaServizio</text>
</g>
<!-- VenditaRiparazionePA1&#45;&gt;SceltaAutomaticaServizio -->
<g id="edge20" class="edge">
<title>VenditaRiparazionePA1&#45;&gt;SceltaAutomaticaServizio</title>
<path fill="none" stroke="black" d="M613.03,-286.71C620.24,-282.07 626.7,-276.25 631.12,-269 637.46,-258.61 632.35,-249.48 622.76,-241.93"/>
<polygon fill="black" stroke="black" points="624.89,-239.14 614.61,-236.55 621.03,-244.98 624.89,-239.14"/>
<text text-anchor="middle" x="708.5" y="-255.7" font-family="Times New Roman,serif" font-size="14.00">NonInteressatoRiparazione</text>
</g>
<!-- VenditaRiparazionePA1&#45;&gt;SceltaAutomaticaServizio -->
<g id="edge21" class="edge">
<title>VenditaRiparazionePA1&#45;&gt;SceltaAutomaticaServizio</title>
<path fill="none" stroke="black" d="M552.94,-286.72C548.42,-276.95 544.71,-264.48 547.62,-253.25 548.26,-250.79 549.12,-248.32 550.11,-245.89"/>
<polygon fill="black" stroke="black" points="553.2,-247.55 554.48,-237.03 546.92,-244.45 553.2,-247.55"/>
<text text-anchor="middle" x="586.88" y="-255.7" font-family="Times New Roman,serif" font-size="14.00">TimerScaduto</text>
</g>
<!-- InvioLinkSelfCare&#45;&gt;SceltaAutomaticaServizio -->
<g id="edge29" class="edge">
<title>InvioLinkSelfCare&#45;&gt;SceltaAutomaticaServizio</title>
<path fill="none" stroke="black" d="M526.98,-60.14C534.35,-64.85 541.2,-70.66 546.12,-77.75 568.81,-110.4 571.08,-157.83 569.77,-187.85"/>
<polygon fill="black" stroke="black" points="566.28,-187.47 569.16,-197.67 573.27,-187.91 566.28,-187.47"/>
<text text-anchor="middle" x="616.12" y="-124.08" font-family="Times New Roman,serif" font-size="14.00">SelfCareEseguito</text>
</g>
<!-- InvioLinkSelfCare&#45;&gt;SceltaAutomaticaServizio -->
<g id="edge30" class="edge">
<title>InvioLinkSelfCare&#45;&gt;SceltaAutomaticaServizio</title>
<path fill="none" stroke="black" d="M424.03,-57.42C376.92,-70.44 316.54,-90.61 302.12,-111.5 293.04,-124.67 292.36,-134.83 302.12,-147.5 323.52,-175.27 408.28,-193.87 476.25,-204.64"/>
<polygon fill="black" stroke="black" points="475.52,-208.07 485.94,-206.14 476.59,-201.15 475.52,-208.07"/>
<text text-anchor="middle" x="362.12" y="-124.08" font-family="Times New Roman,serif" font-size="14.00">SelfCareNonEseguito</text>
</g>
<!-- InvioLinkSelfCare&#45;&gt;SceltaAutomaticaServizio -->
<g id="edge31" class="edge">
<title>InvioLinkSelfCare&#45;&gt;SceltaAutomaticaServizio</title>
<path fill="none" stroke="black" d="M442.86,-60.1C436.15,-64.82 430.09,-70.66 426.12,-77.75 422.71,-83.86 423.52,-87 426.12,-93.5 444.02,-138.2 488.53,-172.32 522.79,-193.1"/>
<polygon fill="black" stroke="black" points="520.91,-196.05 531.3,-198.1 524.45,-190.02 520.91,-196.05"/>
<text text-anchor="middle" x="501.88" y="-124.08" font-family="Times New Roman,serif" font-size="14.00">TimerScaduto</text>
</g>
<!-- SceltaManualeServizio&#45;&gt;AvvioRiparazione -->
<g id="edge32" class="edge">
<title>SceltaManualeServizio&#45;&gt;AvvioRiparazione</title>
<path fill="none" stroke="black" d="M674.26,-113.75C669.49,-112.94 664.74,-112.18 660.12,-111.5 574.99,-99.05 550.79,-114.6 467.38,-93.5 441.41,-86.93 413.81,-75.5 391.71,-65.15"/>
<polygon fill="black" stroke="black" points="393.23,-62 382.7,-60.83 390.21,-68.31 393.23,-62"/>
<text text-anchor="middle" x="517" y="-80.2" font-family="Times New Roman,serif" font-size="14.00">AvvioRiparazione</text>
</g>
<!-- SceltaManualeServizio&#45;&gt;AvvioSopralluogoPCE -->
<g id="edge33" class="edge">
<title>SceltaManualeServizio&#45;&gt;AvvioSopralluogoPCE</title>
<path fill="none" stroke="black" d="M816.19,-113.56C886.77,-98.73 994.95,-75.99 1069.59,-60.31"/>
<polygon fill="black" stroke="black" points="1070.27,-63.74 1079.33,-58.26 1068.83,-56.89 1070.27,-63.74"/>
<text text-anchor="middle" x="1032.38" y="-80.2" font-family="Times New Roman,serif" font-size="14.00">SopralluogoPCE</text>
</g>
<!-- SceltaManualeServizio&#45;&gt;AvvioSopralluogo -->
<g id="edge34" class="edge">
<title>SceltaManualeServizio&#45;&gt;AvvioSopralluogo</title>
<path fill="none" stroke="black" d="M772.43,-111.03C781.01,-105.48 790.49,-99.28 799.12,-93.5 809.34,-86.65 810.54,-82.51 821.88,-77.75 841.92,-69.33 891.47,-60.06 933.85,-53.18"/>
<polygon fill="black" stroke="black" points="934.2,-56.67 943.52,-51.63 933.09,-49.76 934.2,-56.67"/>
<text text-anchor="middle" x="855.25" y="-80.2" font-family="Times New Roman,serif" font-size="14.00">Sopralluogo</text>
</g>
<!-- SceltaManualeServizio&#45;&gt;AvvioManualeVisio -->
<g id="edge35" class="edge">
<title>SceltaManualeServizio&#45;&gt;AvvioManualeVisio</title>
<path fill="none" stroke="black" d="M730.15,-111.15C719.62,-98.94 705.34,-82.4 693.47,-68.64"/>
<polygon fill="black" stroke="black" points="696.25,-66.51 687.07,-61.22 690.95,-71.08 696.25,-66.51"/>
<text text-anchor="middle" x="728.75" y="-80.2" font-family="Times New Roman,serif" font-size="14.00">Visio</text>
</g>
<!-- SceltaManualeServizio&#45;&gt;AvvioManualeDesk -->
<g id="edge36" class="edge">
<title>SceltaManualeServizio&#45;&gt;AvvioManualeDesk</title>
<path fill="none" stroke="black" d="M751.52,-111.44C755.92,-101.05 762.45,-87.88 770.62,-77.75 773.57,-74.1 776.96,-70.58 780.51,-67.27"/>
<polygon fill="black" stroke="black" points="782.55,-70.14 787.84,-60.96 777.98,-64.84 782.55,-70.14"/>
<text text-anchor="middle" x="784.38" y="-80.2" font-family="Times New Roman,serif" font-size="14.00">Desk</text>
</g>
<!-- SceltaManualeServizio&#45;&gt;InvioLinkSelfCare -->
<g id="edge37" class="edge">
<title>SceltaManualeServizio&#45;&gt;InvioLinkSelfCare</title>
<path fill="none" stroke="black" d="M674.39,-114.27C643.19,-107.51 610.35,-99.59 595.88,-93.5 583.86,-88.44 582.73,-83.69 571.12,-77.75 561.99,-73.08 552.07,-68.6 542.31,-64.51"/>
<polygon fill="black" stroke="black" points="543.79,-61.33 533.21,-60.79 541.14,-67.81 543.79,-61.33"/>
<text text-anchor="middle" x="645.75" y="-80.2" font-family="Times New Roman,serif" font-size="14.00">InvioLinkSelfCare</text>
</g>
<!-- SceltaManualeServizio&#45;&gt;SceltaManualeServizio -->
<g id="edge38" class="edge">
<title>SceltaManualeServizio&#45;&gt;SceltaManualeServizio</title>
<path fill="none" stroke="black" d="M816.05,-136.96C826.61,-135.8 833.75,-133.31 833.75,-129.5 833.75,-127.3 831.36,-125.53 827.31,-124.22"/>
<polygon fill="black" stroke="black" points="828.02,-120.79 817.54,-122.32 826.69,-127.66 828.02,-120.79"/>
<text text-anchor="middle" x="896.75" y="-124.08" font-family="Times New Roman,serif" font-size="14.00">CampiObbligMancanti</text>
</g>
<!-- SceltaAutomaticaServizio&#45;&gt;AvvioSopralluogoPCE -->
<g id="edge22" class="edge">
<title>SceltaAutomaticaServizio&#45;&gt;AvvioSopralluogoPCE</title>
<path fill="none" stroke="black" d="M646.78,-213.37C771,-207.57 1003.8,-191.1 1073.12,-147.5 1103.16,-128.61 1126.16,-94.18 1139.63,-69.96"/>
<polygon fill="black" stroke="black" points="1142.63,-71.76 1144.26,-61.29 1136.46,-68.46 1142.63,-71.76"/>
<text text-anchor="middle" x="1157.38" y="-124.08" font-family="Times New Roman,serif" font-size="14.00">SopralluogoPCE</text>
</g>
<!-- SceltaAutomaticaServizio&#45;&gt;AvvioVisio -->
<g id="edge23" class="edge">
<title>SceltaAutomaticaServizio&#45;&gt;AvvioVisio</title>
<path fill="none" stroke="black" d="M646.72,-213.22C795.34,-206.67 1109.03,-188.34 1209.12,-147.5 1256.79,-128.05 1304.47,-91.78 1333.4,-67.44"/>
<polygon fill="black" stroke="black" points="1335.63,-70.14 1340.95,-60.98 1331.08,-64.82 1335.63,-70.14"/>
<text text-anchor="middle" x="1287.75" y="-124.08" font-family="Times New Roman,serif" font-size="14.00">Visio</text>
</g>
<!-- SceltaAutomaticaServizio&#45;&gt;AvvioDesk -->
<g id="edge24" class="edge">
<title>SceltaAutomaticaServizio&#45;&gt;AvvioDesk</title>
<path fill="none" stroke="black" d="M487.68,-216.13C407.6,-212.85 282.71,-198.87 188.62,-147.5 144.95,-123.66 98.61,-89.66 69.31,-66.93"/>
<polygon fill="black" stroke="black" points="71.64,-64.31 61.61,-60.91 67.33,-69.82 71.64,-64.31"/>
<text text-anchor="middle" x="203.38" y="-124.08" font-family="Times New Roman,serif" font-size="14.00">Desk</text>
</g>
<!-- SceltaAutomaticaServizio&#45;&gt;AvvioSopralluogo -->
<g id="edge25" class="edge">
<title>SceltaAutomaticaServizio&#45;&gt;AvvioSopralluogo</title>
<path fill="none" stroke="black" d="M646.47,-210.3C748.14,-201.4 917.47,-181.86 969.12,-147.5 993.77,-131.1 999.02,-121.67 1008.12,-93.5 1010.38,-86.52 1010.75,-78.73 1010.23,-71.39"/>
<polygon fill="black" stroke="black" points="1013.71,-71.01 1008.93,-61.55 1006.77,-71.92 1013.71,-71.01"/>
<text text-anchor="middle" x="1035.25" y="-124.08" font-family="Times New Roman,serif" font-size="14.00">Sopralluogo</text>
</g>
<!-- SceltaAutomaticaServizio&#45;&gt;AvvioAccertSelfCare -->
<g id="edge26" class="edge">
<title>SceltaAutomaticaServizio&#45;&gt;AvvioAccertSelfCare</title>
<path fill="none" stroke="black" d="M487.42,-209.48C402.63,-200.59 276.22,-181.89 243.12,-147.5 223.07,-126.66 213.15,-94.59 208.36,-71.42"/>
<polygon fill="black" stroke="black" points="211.82,-70.91 206.57,-61.71 204.94,-72.18 211.82,-70.91"/>
<text text-anchor="middle" x="267.12" y="-124.08" font-family="Times New Roman,serif" font-size="14.00">SelfCare</text>
</g>
<!-- SceltaAutomaticaServizio&#45;&gt;SceltaManualeServizio -->
<g id="edge27" class="edge">
<title>SceltaAutomaticaServizio&#45;&gt;SceltaManualeServizio</title>
<path fill="none" stroke="black" d="M646.62,-212.37C672.97,-207.64 700.95,-198.5 722.12,-181.25 729.32,-175.39 734.35,-166.79 737.83,-158.33"/>
<polygon fill="black" stroke="black" points="741.11,-159.56 741.07,-148.96 734.5,-157.27 741.11,-159.56"/>
<text text-anchor="middle" x="777.25" y="-167.95" font-family="Times New Roman,serif" font-size="14.00">NessunServizio</text>
</g>
<!-- SceltaAutomaticaServizio&#45;&gt;SceltaManualeServizio -->
<g id="edge28" class="edge">
<title>SceltaAutomaticaServizio&#45;&gt;SceltaManualeServizio</title>
<path fill="none" stroke="black" d="M571.39,-199.2C575.06,-188 581.49,-173.91 592.12,-165.5 595.3,-162.99 628.4,-155.29 663,-147.75"/>
<polygon fill="black" stroke="black" points="663.74,-151.17 672.78,-145.63 662.26,-144.33 663.74,-151.17"/>
<text text-anchor="middle" x="655.12" y="-167.95" font-family="Times New Roman,serif" font-size="14.00">CampiObbligMancanti</text>
</g>
</g>
</svg>
