<?xml version="1.0" encoding="UTF-8" standalone="no"?>
<!DOCTYPE svg PUBLIC "-//W3C//DTD SVG 1.1//EN"
 "http://www.w3.org/Graphics/SVG/1.1/DTD/svg11.dtd">
<!-- Generated by graphviz version 9.0.0 (20230911.1827)
 -->
<!-- Title: finite_state_machine Pages: 1 -->
<svg width="382pt" height="360pt"
 viewBox="0.00 0.00 381.85 360.00" xmlns="http://www.w3.org/2000/svg" xmlns:xlink="http://www.w3.org/1999/xlink">
<g id="graph0" class="graph" transform="scale(0.19423 0.19423) rotate(0) translate(4 1849.47)">
<title>finite_state_machine</title>
<polygon fill="white" stroke="none" points="-4,4 -4,-1849.47 1961.97,-1849.47 1961.97,4 -4,4"/>
<text text-anchor="middle" x="978.98" y="-6.45" font-family="Times New Roman,serif" font-size="14.00">Opening</text>
<!-- AvvioSopralluogoPCE -->
<g id="node1" class="node">
<title>AvvioSopralluogoPCE</title>
<ellipse fill="lightgrey" stroke="black" cx="872.9" cy="-119.72" rx="95.97" ry="95.97"/>
<text text-anchor="middle" x="872.9" y="-114.3" font-family="Times New Roman,serif" font-size="14.00">AvvioSopralluogoPCE</text>
</g>
<!-- AvvioVisio -->
<g id="node2" class="node">
<title>AvvioVisio</title>
<ellipse fill="lightgrey" stroke="black" cx="1109.9" cy="-119.72" rx="52.56" ry="52.56"/>
<text text-anchor="middle" x="1109.9" y="-114.3" font-family="Times New Roman,serif" font-size="14.00">AvvioVisio</text>
</g>
<!-- AvvioDesk -->
<g id="node3" class="node">
<title>AvvioDesk</title>
<ellipse fill="lightgrey" stroke="black" cx="1905.9" cy="-119.72" rx="52.06" ry="52.06"/>
<text text-anchor="middle" x="1905.9" y="-114.3" font-family="Times New Roman,serif" font-size="14.00">AvvioDesk</text>
</g>
<!-- AvvioSopralluogo -->
<g id="node4" class="node">
<title>AvvioSopralluogo</title>
<ellipse fill="lightgrey" stroke="black" cx="1737.9" cy="-119.72" rx="78.51" ry="78.51"/>
<text text-anchor="middle" x="1737.9" y="-114.3" font-family="Times New Roman,serif" font-size="14.00">AvvioSopralluogo</text>
</g>
<!-- AvvioManualeVisio -->
<g id="node5" class="node">
<title>AvvioManualeVisio</title>
<ellipse fill="lightgrey" stroke="black" cx="1106.9" cy="-613.6" rx="83.5" ry="83.5"/>
<text text-anchor="middle" x="1106.9" y="-608.18" font-family="Times New Roman,serif" font-size="14.00">AvvioManualeVisio</text>
</g>
<!-- AvvioManualeDesk -->
<g id="node6" class="node">
<title>AvvioManualeDesk</title>
<ellipse fill="lightgrey" stroke="black" cx="1290.9" cy="-613.6" rx="83" ry="83"/>
<text text-anchor="middle" x="1290.9" y="-608.18" font-family="Times New Roman,serif" font-size="14.00">AvvioManualeDesk</text>
</g>
<!-- AvvioAccertSelfCare -->
<g id="node7" class="node">
<title>AvvioAccertSelfCare</title>
<ellipse fill="lightgrey" stroke="black" cx="1339.9" cy="-119.72" rx="89.99" ry="89.99"/>
<text text-anchor="middle" x="1339.9" y="-114.3" font-family="Times New Roman,serif" font-size="14.00">AvvioAccertSelfCare</text>
</g>
<!-- InizializzazioneIncarico -->
<g id="node8" class="node">
<title>InizializzazioneIncarico</title>
<polygon fill="lightgrey" stroke="black" points="477.03,-1845.47 332.78,-1845.47 332.78,-1809.47 477.03,-1809.47 477.03,-1845.47"/>
<text text-anchor="middle" x="404.9" y="-1822.04" font-family="Times New Roman,serif" font-size="14.00">InizializzazioneIncarico</text>
</g>
<!-- CreazioneAutomaticaIncarico -->
<g id="node11" class="node">
<title>CreazioneAutomaticaIncarico</title>
<ellipse fill="none" stroke="black" cx="404.9" cy="-1637.29" rx="120.42" ry="120.42"/>
<text text-anchor="middle" x="404.9" y="-1631.87" font-family="Times New Roman,serif" font-size="14.00">CreazioneAutomaticaIncarico</text>
</g>
<!-- InizializzazioneIncarico&#45;&gt;CreazioneAutomaticaIncarico -->
<g id="edge1" class="edge">
<title>InizializzazioneIncarico&#45;&gt;CreazioneAutomaticaIncarico</title>
<path fill="none" stroke="black" d="M404.9,-1809.1C404.9,-1798.83 404.9,-1784.77 404.9,-1769.11"/>
<polygon fill="black" stroke="black" points="408.4,-1769.55 404.9,-1759.55 401.4,-1769.55 408.4,-1769.55"/>
<text text-anchor="middle" x="446.15" y="-1778.17" font-family="Times New Roman,serif" font-size="14.00">Inizializzazione</text>
</g>
<!-- CreazioneManualeIncarico -->
<g id="node9" class="node">
<title>CreazioneManualeIncarico</title>
<polygon fill="lightgrey" stroke="black" points="212.78,-1655.29 49.03,-1655.29 49.03,-1619.29 212.78,-1619.29 212.78,-1655.29"/>
<text text-anchor="middle" x="130.9" y="-1631.87" font-family="Times New Roman,serif" font-size="14.00">CreazioneManualeIncarico</text>
</g>
<!-- CompletamentoManualeIncarico -->
<g id="node12" class="node">
<title>CompletamentoManualeIncarico</title>
<ellipse fill="none" stroke="black" cx="130.9" cy="-1334.22" rx="130.9" ry="130.9"/>
<text text-anchor="middle" x="130.9" y="-1328.79" font-family="Times New Roman,serif" font-size="14.00">CompletamentoManualeIncarico</text>
</g>
<!-- CreazioneManualeIncarico&#45;&gt;CompletamentoManualeIncarico -->
<g id="edge2" class="edge">
<title>CreazioneManualeIncarico&#45;&gt;CompletamentoManualeIncarico</title>
<path fill="none" stroke="black" d="M130.9,-1618.81C130.9,-1590.69 130.9,-1532.87 130.9,-1476.73"/>
<polygon fill="black" stroke="black" points="134.4,-1477.04 130.9,-1467.04 127.4,-1477.04 134.4,-1477.04"/>
<text text-anchor="middle" x="172.15" y="-1485.57" font-family="Times New Roman,serif" font-size="14.00">Inizializzazione</text>
</g>
<!-- AvvioRiparazione -->
<g id="node10" class="node">
<title>AvvioRiparazione</title>
<ellipse fill="lightgrey" stroke="black" cx="314.9" cy="-372.9" rx="77.01" ry="77.01"/>
<text text-anchor="middle" x="314.9" y="-367.48" font-family="Times New Roman,serif" font-size="14.00">AvvioRiparazione</text>
</g>
<!-- CreazioneAutomaticaIncarico&#45;&gt;CompletamentoManualeIncarico -->
<g id="edge3" class="edge">
<title>CreazioneAutomaticaIncarico&#45;&gt;CompletamentoManualeIncarico</title>
<path fill="none" stroke="black" d="M324.18,-1547.59C293.49,-1513.87 258.24,-1475.13 226.31,-1440.06"/>
<polygon fill="black" stroke="black" points="229.04,-1437.86 219.72,-1432.82 223.87,-1442.57 229.04,-1437.86"/>
<text text-anchor="middle" x="325.65" y="-1485.57" font-family="Times New Roman,serif" font-size="14.00">DatiNonCompleti</text>
</g>
<!-- VenditaRiparazione -->
<g id="node13" class="node">
<title>VenditaRiparazione</title>
<ellipse fill="none" stroke="black" cx="314.9" cy="-613.6" rx="83" ry="83"/>
<text text-anchor="middle" x="314.9" y="-608.18" font-family="Times New Roman,serif" font-size="14.00">VenditaRiparazione</text>
</g>
<!-- CreazioneAutomaticaIncarico&#45;&gt;VenditaRiparazione -->
<g id="edge4" class="edge">
<title>CreazioneAutomaticaIncarico&#45;&gt;VenditaRiparazione</title>
<path fill="none" stroke="black" d="M404.8,-1516.68C403.88,-1422.27 400.7,-1287.31 390.9,-1169.56 377.28,-1005.83 348.53,-816.51 330.56,-706.68"/>
<polygon fill="black" stroke="black" points="334.07,-706.44 329,-697.14 327.16,-707.58 334.07,-706.44"/>
<text text-anchor="middle" x="444.28" y="-1070.12" font-family="Times New Roman,serif" font-size="14.00">VenditaRiparazione</text>
</g>
<!-- EsecuzioneTriage -->
<g id="node14" class="node">
<title>EsecuzioneTriage</title>
<ellipse fill="none" stroke="black" cx="703.9" cy="-1075.55" rx="76.01" ry="76.01"/>
<text text-anchor="middle" x="703.9" y="-1070.12" font-family="Times New Roman,serif" font-size="14.00">EsecuzioneTriage</text>
</g>
<!-- CreazioneAutomaticaIncarico&#45;&gt;EsecuzioneTriage -->
<g id="edge5" class="edge">
<title>CreazioneAutomaticaIncarico&#45;&gt;EsecuzioneTriage</title>
<path fill="none" stroke="black" d="M461.32,-1530.68C520.08,-1420.68 610.7,-1251.02 662.95,-1153.21"/>
<polygon fill="black" stroke="black" points="666.01,-1154.91 667.64,-1144.44 659.84,-1151.61 666.01,-1154.91"/>
<text text-anchor="middle" x="703.03" y="-1328.79" font-family="Times New Roman,serif" font-size="14.00">RiparazioneNonPrevista</text>
</g>
<!-- CompletamentoManualeIncarico&#45;&gt;CompletamentoManualeIncarico -->
<g id="edge6" class="edge">
<title>CompletamentoManualeIncarico&#45;&gt;CompletamentoManualeIncarico</title>
<path fill="none" stroke="black" d="M260.08,-1357.78C272.17,-1352.94 279.81,-1345.09 279.81,-1334.22 279.81,-1326.74 276.2,-1320.69 270.01,-1316.07"/>
<polygon fill="black" stroke="black" points="271.86,-1313.09 261.4,-1311.37 268.51,-1319.24 271.86,-1313.09"/>
<text text-anchor="middle" x="328.56" y="-1328.79" font-family="Times New Roman,serif" font-size="14.00">DatiNonCompleti</text>
</g>
<!-- CompletamentoManualeIncarico&#45;&gt;VenditaRiparazione -->
<g id="edge7" class="edge">
<title>CompletamentoManualeIncarico&#45;&gt;VenditaRiparazione</title>
<path fill="none" stroke="black" d="M163.16,-1207.22C199.94,-1063.58 259.16,-832.29 291.68,-705.31"/>
<polygon fill="black" stroke="black" points="294.99,-706.5 294.08,-695.94 288.21,-704.76 294.99,-706.5"/>
<text text-anchor="middle" x="277.28" y="-968.24" font-family="Times New Roman,serif" font-size="14.00">VenditaRiparazione</text>
</g>
<!-- CompletamentoManualeIncarico&#45;&gt;EsecuzioneTriage -->
<g id="edge8" class="edge">
<title>CompletamentoManualeIncarico&#45;&gt;EsecuzioneTriage</title>
<path fill="none" stroke="black" d="M234.46,-1253.5C279.79,-1222.49 335.02,-1189.64 389.65,-1169.56 443.26,-1149.86 461.72,-1166.3 516.9,-1151.56 553.19,-1141.87 591.94,-1127.11 624.7,-1113.24"/>
<polygon fill="black" stroke="black" points="625.91,-1116.53 633.72,-1109.37 623.15,-1110.1 625.91,-1116.53"/>
<text text-anchor="middle" x="457.03" y="-1172.01" font-family="Times New Roman,serif" font-size="14.00">RiparazioneNonPrevista</text>
</g>
<!-- VenditaRiparazione&#45;&gt;AvvioRiparazione -->
<g id="edge9" class="edge">
<title>VenditaRiparazione&#45;&gt;AvvioRiparazione</title>
<path fill="none" stroke="black" d="M314.9,-530.12C314.9,-508.09 314.9,-484.2 314.9,-461.88"/>
<polygon fill="black" stroke="black" points="318.4,-461.89 314.9,-451.89 311.4,-461.89 318.4,-461.89"/>
<text text-anchor="middle" x="371.15" y="-498.81" font-family="Times New Roman,serif" font-size="14.00">RiparazioneVenduta</text>
</g>
<!-- VenditaRiparazione&#45;&gt;VenditaRiparazione -->
<g id="edge10" class="edge">
<title>VenditaRiparazione&#45;&gt;VenditaRiparazione</title>
<path fill="none" stroke="black" d="M396.14,-632.11C407.95,-629.17 415.9,-623 415.9,-613.6 415.9,-607.44 412.48,-602.66 406.78,-599.27"/>
<polygon fill="black" stroke="black" points="408.13,-596.04 397.55,-595.65 405.58,-602.56 408.13,-596.04"/>
<text text-anchor="middle" x="478.9" y="-608.18" font-family="Times New Roman,serif" font-size="14.00">CampiObbligMancanti</text>
</g>
<!-- SceltaManualeServizio -->
<g id="node15" class="node">
<title>SceltaManualeServizio</title>
<ellipse fill="none" stroke="black" cx="944.9" cy="-848.32" rx="93.98" ry="93.98"/>
<text text-anchor="middle" x="944.9" y="-842.89" font-family="Times New Roman,serif" font-size="14.00">SceltaManualeServizio</text>
</g>
<!-- VenditaRiparazione&#45;&gt;SceltaManualeServizio -->
<g id="edge11" class="edge">
<title>VenditaRiparazione&#45;&gt;SceltaManualeServizio</title>
<path fill="none" stroke="black" d="M391.73,-646.09C438.43,-663.91 499.7,-685 555.9,-697.1 638.82,-714.96 666.01,-686.62 745.9,-715.1 757.75,-719.33 758.94,-723.88 769.4,-730.85 797.97,-749.9 829.18,-770.64 857.27,-789.27"/>
<polygon fill="black" stroke="black" points="855.13,-792.06 865.4,-794.67 859,-786.23 855.13,-792.06"/>
<text text-anchor="middle" x="838.15" y="-717.55" font-family="Times New Roman,serif" font-size="14.00">RiparazioneNonVenduta</text>
</g>
<!-- EsecuzioneTriage&#45;&gt;AvvioSopralluogoPCE -->
<g id="edge12" class="edge">
<title>EsecuzioneTriage&#45;&gt;AvvioSopralluogoPCE</title>
<path fill="none" stroke="black" d="M634.76,-1042.81C596.69,-1026.86 548.12,-1008.97 502.9,-999.54 296.91,-956.56 53.9,-1059.75 53.9,-849.32 53.9,-849.32 53.9,-849.32 53.9,-371.9 53.9,-291.42 100.82,-273.26 170.9,-233.7 270.72,-177.35 595.12,-143.3 765.75,-128.85"/>
<polygon fill="black" stroke="black" points="765.83,-132.36 775.51,-128.04 765.25,-125.38 765.83,-132.36"/>
<text text-anchor="middle" x="101.15" y="-608.18" font-family="Times New Roman,serif" font-size="14.00">SopralluogoPCE</text>
</g>
<!-- EsecuzioneTriage&#45;&gt;AvvioVisio -->
<g id="edge13" class="edge">
<title>EsecuzioneTriage&#45;&gt;AvvioVisio</title>
<path fill="none" stroke="black" d="M634.72,-1042.97C596.64,-1027.08 548.07,-1009.17 502.9,-999.54 471.98,-992.94 243.27,-1001.69 218.9,-981.54 172.15,-942.86 184.9,-909.99 184.9,-849.32 184.9,-849.32 184.9,-849.32 184.9,-371.9 184.9,-321.53 187.92,-296.74 228.9,-267.45 364.64,-170.43 820.97,-272.33 977.9,-215.7 1009.22,-204.39 1039.7,-183.35 1063.46,-163.94"/>
<polygon fill="black" stroke="black" points="1065.64,-166.68 1071.07,-157.57 1061.15,-161.31 1065.64,-166.68"/>
<text text-anchor="middle" x="199.53" y="-608.18" font-family="Times New Roman,serif" font-size="14.00">Visio</text>
</g>
<!-- EsecuzioneTriage&#45;&gt;AvvioDesk -->
<g id="edge14" class="edge">
<title>EsecuzioneTriage&#45;&gt;AvvioDesk</title>
<path fill="none" stroke="black" d="M780.33,-1073.66C949.33,-1070.36 1366.69,-1054.79 1706.9,-981.54 1817.68,-957.68 1924.9,-962.64 1924.9,-849.32 1924.9,-849.32 1924.9,-849.32 1924.9,-371.9 1924.9,-307.39 1918.59,-233.83 1913.25,-183.06"/>
<polygon fill="black" stroke="black" points="1916.73,-182.71 1912.18,-173.14 1909.77,-183.45 1916.73,-182.71"/>
<text text-anchor="middle" x="1939.15" y="-608.18" font-family="Times New Roman,serif" font-size="14.00">Desk</text>
</g>
<!-- EsecuzioneTriage&#45;&gt;AvvioSopralluogo -->
<g id="edge15" class="edge">
<title>EsecuzioneTriage&#45;&gt;AvvioSopralluogo</title>
<path fill="none" stroke="black" d="M780.24,-1075.43C1032.12,-1076.32 1820.9,-1062.11 1820.9,-849.32 1820.9,-849.32 1820.9,-849.32 1820.9,-371.9 1820.9,-312.32 1799.59,-248.62 1778.56,-200.28"/>
<polygon fill="black" stroke="black" points="1781.82,-198.99 1774.56,-191.28 1775.42,-201.84 1781.82,-198.99"/>
<text text-anchor="middle" x="1855.03" y="-608.18" font-family="Times New Roman,serif" font-size="14.00">Sopralluogo</text>
</g>
<!-- EsecuzioneTriage&#45;&gt;SceltaManualeServizio -->
<g id="edge16" class="edge">
<title>EsecuzioneTriage&#45;&gt;SceltaManualeServizio</title>
<path fill="none" stroke="black" d="M758.9,-1022.76C778.1,-1004.71 799.81,-984.33 819.65,-965.79 835.26,-951.2 851.99,-935.61 867.98,-920.73"/>
<polygon fill="black" stroke="black" points="870.22,-923.43 875.15,-914.06 865.45,-918.31 870.22,-923.43"/>
<text text-anchor="middle" x="863.03" y="-968.24" font-family="Times New Roman,serif" font-size="14.00">NessunServizio</text>
</g>
<!-- EsecuzioneTriage&#45;&gt;SceltaManualeServizio -->
<g id="edge17" class="edge">
<title>EsecuzioneTriage&#45;&gt;SceltaManualeServizio</title>
<path fill="none" stroke="black" d="M777.69,-1057.04C820.7,-1043.25 872.82,-1019.79 905.9,-981.54 913.5,-972.76 919.61,-962.56 924.54,-951.79"/>
<polygon fill="black" stroke="black" points="927.7,-953.3 928.32,-942.72 921.24,-950.61 927.7,-953.3"/>
<text text-anchor="middle" x="979.9" y="-968.24" font-family="Times New Roman,serif" font-size="14.00">CampiObbligMancanti</text>
</g>
<!-- VenditaRiparazionePA1 -->
<g id="node16" class="node">
<title>VenditaRiparazionePA1</title>
<ellipse fill="none" stroke="black" cx="590.9" cy="-848.32" rx="99.47" ry="99.47"/>
<text text-anchor="middle" x="590.9" y="-842.89" font-family="Times New Roman,serif" font-size="14.00">VenditaRiparazionePA1</text>
</g>
<!-- EsecuzioneTriage&#45;&gt;VenditaRiparazionePA1 -->
<g id="edge18" class="edge">
<title>EsecuzioneTriage&#45;&gt;VenditaRiparazionePA1</title>
<path fill="none" stroke="black" d="M662.31,-1011.6C656.35,-1001.7 650.52,-991.45 645.4,-981.54 640.55,-972.12 635.79,-962.17 631.25,-952.12"/>
<polygon fill="black" stroke="black" points="634.46,-950.74 627.2,-943.02 628.06,-953.58 634.46,-950.74"/>
<text text-anchor="middle" x="712.65" y="-968.24" font-family="Times New Roman,serif" font-size="14.00">VenditaRiparazionePA1</text>
</g>
<!-- InvioLinkSelfCare -->
<g id="node17" class="node">
<title>InvioLinkSelfCare</title>
<ellipse fill="none" stroke="black" cx="1631.9" cy="-613.6" rx="78.01" ry="78.01"/>
<text text-anchor="middle" x="1631.9" y="-608.18" font-family="Times New Roman,serif" font-size="14.00">InvioLinkSelfCare</text>
</g>
<!-- EsecuzioneTriage&#45;&gt;InvioLinkSelfCare -->
<g id="edge19" class="edge">
<title>EsecuzioneTriage&#45;&gt;InvioLinkSelfCare</title>
<path fill="none" stroke="black" d="M778.76,-1060.77C876.02,-1041.6 1050.16,-1002.91 1191.9,-947.79 1383.68,-873.2 1472.83,-891.9 1600.9,-730.85 1607.78,-722.21 1613.13,-712.18 1617.31,-701.7"/>
<polygon fill="black" stroke="black" points="1620.51,-703.13 1620.59,-692.53 1613.92,-700.77 1620.51,-703.13"/>
<text text-anchor="middle" x="1634.53" y="-842.89" font-family="Times New Roman,serif" font-size="14.00">InvioLinkSelfCare</text>
</g>
<!-- SceltaManualeServizio&#45;&gt;AvvioSopralluogoPCE -->
<g id="edge20" class="edge">
<title>SceltaManualeServizio&#45;&gt;AvvioSopralluogoPCE</title>
<path fill="none" stroke="black" d="M918.04,-758C912.57,-738.07 907.19,-716.95 902.9,-697.1 885.34,-615.79 880.91,-595.04 874.4,-512.11 866.85,-415.9 867.22,-305.99 869.04,-227.19"/>
<polygon fill="black" stroke="black" points="872.53,-227.39 869.28,-217.3 865.54,-227.21 872.53,-227.39"/>
<text text-anchor="middle" x="922.15" y="-498.81" font-family="Times New Roman,serif" font-size="14.00">SopralluogoPCE</text>
</g>
<!-- SceltaManualeServizio&#45;&gt;AvvioSopralluogo -->
<g id="edge21" class="edge">
<title>SceltaManualeServizio&#45;&gt;AvvioSopralluogo</title>
<path fill="none" stroke="black" d="M1028.66,-805.1C1074.49,-784.14 1132.97,-760.81 1187.9,-748.85 1367.43,-709.79 1419.55,-760.32 1600.9,-730.85 1654.74,-722.11 1685.35,-740.11 1718.9,-697.1 1733.6,-678.27 1736.94,-367.18 1737.69,-210.06"/>
<polygon fill="black" stroke="black" points="1741.19,-210.09 1737.74,-200.07 1734.19,-210.05 1741.19,-210.09"/>
<text text-anchor="middle" x="1767.03" y="-498.81" font-family="Times New Roman,serif" font-size="14.00">Sopralluogo</text>
</g>
<!-- SceltaManualeServizio&#45;&gt;AvvioManualeVisio -->
<g id="edge22" class="edge">
<title>SceltaManualeServizio&#45;&gt;AvvioManualeVisio</title>
<path fill="none" stroke="black" d="M998.4,-770.47C1015.96,-745.24 1035.49,-717.2 1053.08,-691.93"/>
<polygon fill="black" stroke="black" points="1055.76,-694.2 1058.6,-684 1050.01,-690.2 1055.76,-694.2"/>
<text text-anchor="middle" x="1050.53" y="-717.55" font-family="Times New Roman,serif" font-size="14.00">Visio</text>
</g>
<!-- SceltaManualeServizio&#45;&gt;AvvioManualeDesk -->
<g id="edge23" class="edge">
<title>SceltaManualeServizio&#45;&gt;AvvioManualeDesk</title>
<path fill="none" stroke="black" d="M1027.85,-803.71C1078.78,-775.63 1144.46,-737.01 1198.9,-697.1 1206.78,-691.33 1214.77,-685 1222.57,-678.49"/>
<polygon fill="black" stroke="black" points="1224.44,-681.5 1229.81,-672.36 1219.91,-676.16 1224.44,-681.5"/>
<text text-anchor="middle" x="1187.15" y="-717.55" font-family="Times New Roman,serif" font-size="14.00">Desk</text>
</g>
<!-- SceltaManualeServizio&#45;&gt;VenditaRiparazione -->
<g id="edge24" class="edge">
<title>SceltaManualeServizio&#45;&gt;VenditaRiparazione</title>
<path fill="none" stroke="black" d="M858.7,-810.03C811.91,-790.49 752.76,-766.94 698.9,-748.85 670.18,-739.21 662.02,-740.06 633.15,-730.85 554.32,-705.71 466.03,-673.1 402.48,-648.82"/>
<polygon fill="black" stroke="black" points="404.11,-645.69 393.52,-645.39 401.6,-652.23 404.11,-645.69"/>
<text text-anchor="middle" x="688.28" y="-717.55" font-family="Times New Roman,serif" font-size="14.00">VenditaRiparazione</text>
</g>
<!-- SceltaManualeServizio&#45;&gt;SceltaManualeServizio -->
<g id="edge25" class="edge">
<title>SceltaManualeServizio&#45;&gt;SceltaManualeServizio</title>
<path fill="none" stroke="black" d="M1036.72,-869.04C1048.84,-865.51 1056.88,-858.6 1056.88,-848.32 1056.88,-841.41 1053.25,-836.03 1047.2,-832.16"/>
<polygon fill="black" stroke="black" points="1048.68,-828.99 1038.11,-828.2 1045.88,-835.41 1048.68,-828.99"/>
<text text-anchor="middle" x="1119.88" y="-842.89" font-family="Times New Roman,serif" font-size="14.00">CampiObbligMancanti</text>
</g>
<!-- SceltaManualeServizio&#45;&gt;InvioLinkSelfCare -->
<g id="edge26" class="edge">
<title>SceltaManualeServizio&#45;&gt;InvioLinkSelfCare</title>
<path fill="none" stroke="black" d="M1038.79,-838.7C1160.9,-824.22 1377.73,-787.19 1539.9,-697.1 1549.92,-691.54 1559.77,-684.7 1569.07,-677.37"/>
<polygon fill="black" stroke="black" points="1571.13,-680.21 1576.65,-671.17 1566.69,-674.79 1571.13,-680.21"/>
<text text-anchor="middle" x="1546.53" y="-717.55" font-family="Times New Roman,serif" font-size="14.00">InvioLinkSelfCare</text>
</g>
<!-- VenditaRiparazionePA1&#45;&gt;VenditaRiparazione -->
<g id="edge27" class="edge">
<title>VenditaRiparazionePA1&#45;&gt;VenditaRiparazione</title>
<path fill="none" stroke="black" d="M510.57,-789.13C486.52,-771 460.38,-750.58 437.15,-730.85 418.57,-715.07 399.15,-697.25 381.39,-680.4"/>
<polygon fill="black" stroke="black" points="384.11,-678.15 374.46,-673.78 379.28,-683.22 384.11,-678.15"/>
<text text-anchor="middle" x="501.28" y="-717.55" font-family="Times New Roman,serif" font-size="14.00">InteressatoRiparazione</text>
</g>
<!-- SceltaAutomaticaServizio -->
<g id="node18" class="node">
<title>SceltaAutomaticaServizio</title>
<ellipse fill="none" stroke="black" cx="1339.9" cy="-372.9" rx="105.45" ry="105.45"/>
<text text-anchor="middle" x="1339.9" y="-367.48" font-family="Times New Roman,serif" font-size="14.00">SceltaAutomaticaServizio</text>
</g>
<!-- VenditaRiparazionePA1&#45;&gt;SceltaAutomaticaServizio -->
<g id="edge28" class="edge">
<title>VenditaRiparazionePA1&#45;&gt;SceltaAutomaticaServizio</title>
<path fill="none" stroke="black" d="M578.32,-749.27C570.27,-668.67 565.71,-562.64 592.15,-530.11 670.35,-433.93 1033.04,-394.92 1223.06,-380.87"/>
<polygon fill="black" stroke="black" points="1223.25,-384.37 1232.97,-380.15 1222.75,-377.39 1223.25,-384.37"/>
<text text-anchor="middle" x="668.28" y="-608.18" font-family="Times New Roman,serif" font-size="14.00">NonInteressatoRiparazione</text>
</g>
<!-- VenditaRiparazionePA1&#45;&gt;SceltaAutomaticaServizio -->
<g id="edge29" class="edge">
<title>VenditaRiparazionePA1&#45;&gt;SceltaAutomaticaServizio</title>
<path fill="none" stroke="black" d="M596.08,-748.49C600.58,-735.93 607.23,-724.28 616.9,-715.1 657.93,-676.16 697.25,-730.51 742.9,-697.1 824.66,-637.27 765.4,-550.71 850.9,-496.36 964.74,-423.99 1118.77,-394.38 1223.32,-382.26"/>
<polygon fill="black" stroke="black" points="1223.49,-385.77 1233.04,-381.18 1222.71,-378.81 1223.49,-385.77"/>
<text text-anchor="middle" x="856.65" y="-608.18" font-family="Times New Roman,serif" font-size="14.00">TimerScaduto</text>
</g>
<!-- InvioLinkSelfCare&#45;&gt;SceltaAutomaticaServizio -->
<g id="edge37" class="edge">
<title>InvioLinkSelfCare&#45;&gt;SceltaAutomaticaServizio</title>
<path fill="none" stroke="black" d="M1579.25,-555.55C1567.27,-545.55 1553.91,-536.35 1539.9,-530.11 1506.02,-514.99 1401.83,-536.54 1373.9,-512.11 1366.27,-505.43 1360.21,-497.34 1355.42,-488.46"/>
<polygon fill="black" stroke="black" points="1358.62,-487.04 1351.17,-479.5 1352.29,-490.04 1358.62,-487.04"/>
<text text-anchor="middle" x="1421.9" y="-498.81" font-family="Times New Roman,serif" font-size="14.00">SelfCareEseguito</text>
</g>
<!-- InvioLinkSelfCare&#45;&gt;SceltaAutomaticaServizio -->
<g id="edge38" class="edge">
<title>InvioLinkSelfCare&#45;&gt;SceltaAutomaticaServizio</title>
<path fill="none" stroke="black" d="M1577.07,-557.64C1565.4,-547.65 1552.72,-537.93 1539.9,-530.11 1520.81,-518.45 1511.97,-523.8 1492.9,-512.11 1477.56,-502.69 1450.65,-479.34 1423.63,-454.45"/>
<polygon fill="black" stroke="black" points="1426.08,-451.95 1416.37,-447.72 1421.32,-457.08 1426.08,-451.95"/>
<text text-anchor="middle" x="1552.9" y="-498.81" font-family="Times New Roman,serif" font-size="14.00">SelfCareNonEseguito</text>
</g>
<!-- InvioLinkSelfCare&#45;&gt;SceltaAutomaticaServizio -->
<g id="edge39" class="edge">
<title>InvioLinkSelfCare&#45;&gt;SceltaAutomaticaServizio</title>
<path fill="none" stroke="black" d="M1630.14,-535.35C1626.93,-521.34 1621.57,-507.62 1612.9,-496.36 1574.23,-446.07 1510.32,-415.89 1454.06,-398.08"/>
<polygon fill="black" stroke="black" points="1455.32,-394.81 1444.73,-395.23 1453.28,-401.5 1455.32,-394.81"/>
<text text-anchor="middle" x="1660.65" y="-498.81" font-family="Times New Roman,serif" font-size="14.00">TimerScaduto</text>
</g>
<!-- SceltaAutomaticaServizio&#45;&gt;AvvioSopralluogoPCE -->
<g id="edge30" class="edge">
<title>SceltaAutomaticaServizio&#45;&gt;AvvioSopralluogoPCE</title>
<path fill="none" stroke="black" d="M1247.11,-322.45C1189.69,-291.79 1114.46,-251.56 1047.9,-215.7 1021.59,-201.52 993.1,-186.09 966.89,-171.86"/>
<polygon fill="black" stroke="black" points="968.75,-168.89 958.29,-167.2 965.41,-175.05 968.75,-168.89"/>
<text text-anchor="middle" x="1151.15" y="-236.15" font-family="Times New Roman,serif" font-size="14.00">SopralluogoPCE</text>
</g>
<!-- SceltaAutomaticaServizio&#45;&gt;AvvioVisio -->
<g id="edge31" class="edge">
<title>SceltaAutomaticaServizio&#45;&gt;AvvioVisio</title>
<path fill="none" stroke="black" d="M1269.02,-294.49C1230.89,-252.85 1185.14,-202.89 1152.51,-167.25"/>
<polygon fill="black" stroke="black" points="1155.28,-165.09 1145.94,-160.08 1150.12,-169.82 1155.28,-165.09"/>
<text text-anchor="middle" x="1239.53" y="-236.15" font-family="Times New Roman,serif" font-size="14.00">Visio</text>
</g>
<!-- SceltaAutomaticaServizio&#45;&gt;AvvioDesk -->
<g id="edge32" class="edge">
<title>SceltaAutomaticaServizio&#45;&gt;AvvioDesk</title>
<path fill="none" stroke="black" d="M1444,-355.8C1547.74,-335.96 1708.14,-294.69 1825.9,-215.7 1842.97,-204.25 1858.42,-188.15 1871.1,-172.46"/>
<polygon fill="black" stroke="black" points="1873.52,-175.05 1876.91,-165.01 1868,-170.74 1873.52,-175.05"/>
<text text-anchor="middle" x="1804.15" y="-236.15" font-family="Times New Roman,serif" font-size="14.00">Desk</text>
</g>
<!-- SceltaAutomaticaServizio&#45;&gt;AvvioSopralluogo -->
<g id="edge33" class="edge">
<title>SceltaAutomaticaServizio&#45;&gt;AvvioSopralluogo</title>
<path fill="none" stroke="black" d="M1428.73,-315.84C1498.82,-271.61 1595.55,-210.57 1662.04,-168.6"/>
<polygon fill="black" stroke="black" points="1663.76,-171.65 1670.35,-163.36 1660.02,-165.73 1663.76,-171.65"/>
<text text-anchor="middle" x="1584.03" y="-236.15" font-family="Times New Roman,serif" font-size="14.00">Sopralluogo</text>
</g>
<!-- SceltaAutomaticaServizio&#45;&gt;AvvioAccertSelfCare -->
<g id="edge34" class="edge">
<title>SceltaAutomaticaServizio&#45;&gt;AvvioAccertSelfCare</title>
<path fill="none" stroke="black" d="M1339.9,-267.2C1339.9,-252.07 1339.9,-236.53 1339.9,-221.49"/>
<polygon fill="black" stroke="black" points="1343.4,-221.61 1339.9,-211.61 1336.4,-221.61 1343.4,-221.61"/>
<text text-anchor="middle" x="1363.9" y="-236.15" font-family="Times New Roman,serif" font-size="14.00">SelfCare</text>
</g>
<!-- SceltaAutomaticaServizio&#45;&gt;SceltaManualeServizio -->
<g id="edge35" class="edge">
<title>SceltaAutomaticaServizio&#45;&gt;SceltaManualeServizio</title>
<path fill="none" stroke="black" d="M1241.08,-410.66C1120.15,-455.75 931.01,-526.69 928.65,-530.11 881.96,-597.79 921.47,-633.42 930.9,-715.1 931.96,-724.25 933.03,-733.76 934.07,-743.29"/>
<polygon fill="black" stroke="black" points="930.57,-743.41 935.13,-752.97 937.52,-742.65 930.57,-743.41"/>
<text text-anchor="middle" x="972.03" y="-608.18" font-family="Times New Roman,serif" font-size="14.00">NessunServizio</text>
</g>
<!-- SceltaAutomaticaServizio&#45;&gt;SceltaManualeServizio -->
<g id="edge36" class="edge">
<title>SceltaAutomaticaServizio&#45;&gt;SceltaManualeServizio</title>
<path fill="none" stroke="black" d="M1344.16,-478.53C1347.33,-490.35 1351.76,-501.82 1357.9,-512.11 1364.92,-523.86 1376.66,-517.92 1382.9,-530.11 1416.74,-596.16 1426.04,-636.7 1382.9,-697.1 1307.81,-802.25 1154.36,-834.58 1050.54,-844.08"/>
<polygon fill="black" stroke="black" points="1050.26,-840.59 1040.59,-844.92 1050.85,-847.56 1050.26,-840.59"/>
<text text-anchor="middle" x="1474.9" y="-608.18" font-family="Times New Roman,serif" font-size="14.00">CampiObbligMancanti</text>
</g>
</g>
</svg>
