<?xml version="1.0" encoding="UTF-8" standalone="no"?>
<!DOCTYPE svg PUBLIC "-//W3C//DTD SVG 1.1//EN"
 "http://www.w3.org/Graphics/SVG/1.1/DTD/svg11.dtd">
<!-- Generated by graphviz version 9.0.0 (20230911.1827)
 -->
<!-- Title: finite_state_machine Pages: 1 -->
<svg width="239pt" height="360pt"
 viewBox="0.00 0.00 239.20 360.00" xmlns="http://www.w3.org/2000/svg" xmlns:xlink="http://www.w3.org/1999/xlink">
<g id="graph0" class="graph" transform="scale(0.155782 0.155782) rotate(0) translate(4 2306.92)">
<title>finite_state_machine</title>
<polygon fill="white" stroke="none" points="-4,4 -4,-2306.92 1531.47,-2306.92 1531.47,4 -4,4"/>
<text text-anchor="middle" x="763.73" y="-6.45" font-family="Times New Roman,serif" font-size="14.00">Opening</text>
<!-- InizializzazioneIncarico -->
<g id="node1" class="node">
<title>InizializzazioneIncarico</title>
<polygon fill="lightgrey" stroke="black" points="1138.19,-2302.92 993.94,-2302.92 993.94,-2266.92 1138.19,-2266.92 1138.19,-2302.92"/>
<text text-anchor="middle" x="1066.06" y="-2279.5" font-family="Times New Roman,serif" font-size="14.00">InizializzazioneIncarico</text>
</g>
<!-- CreazioneAutomaticaIncarico -->
<g id="node11" class="node">
<title>CreazioneAutomaticaIncarico</title>
<ellipse fill="none" stroke="black" cx="1066.06" cy="-2094.75" rx="120.42" ry="120.42"/>
<text text-anchor="middle" x="1066.06" y="-2089.32" font-family="Times New Roman,serif" font-size="14.00">CreazioneAutomaticaIncarico</text>
</g>
<!-- InizializzazioneIncarico&#45;&gt;CreazioneAutomaticaIncarico -->
<g id="edge1" class="edge">
<title>InizializzazioneIncarico&#45;&gt;CreazioneAutomaticaIncarico</title>
<path fill="none" stroke="black" d="M1066.06,-2266.56C1066.06,-2256.28 1066.06,-2242.23 1066.06,-2226.56"/>
<polygon fill="black" stroke="black" points="1069.56,-2227 1066.06,-2217 1062.56,-2227 1069.56,-2227"/>
<text text-anchor="middle" x="1107.31" y="-2235.62" font-family="Times New Roman,serif" font-size="14.00">Inizializzazione</text>
</g>
<!-- CreazioneManualeIncarico -->
<g id="node2" class="node">
<title>CreazioneManualeIncarico</title>
<polygon fill="lightgrey" stroke="black" points="1367.94,-2112.75 1204.19,-2112.75 1204.19,-2076.75 1367.94,-2076.75 1367.94,-2112.75"/>
<text text-anchor="middle" x="1286.06" y="-2089.32" font-family="Times New Roman,serif" font-size="14.00">CreazioneManualeIncarico</text>
</g>
<!-- CompletamentoManualeIncarico -->
<g id="node12" class="node">
<title>CompletamentoManualeIncarico</title>
<ellipse fill="none" stroke="black" cx="1281.06" cy="-1791.67" rx="130.9" ry="130.9"/>
<text text-anchor="middle" x="1281.06" y="-1786.25" font-family="Times New Roman,serif" font-size="14.00">CompletamentoManualeIncarico</text>
</g>
<!-- CreazioneManualeIncarico&#45;&gt;CompletamentoManualeIncarico -->
<g id="edge2" class="edge">
<title>CreazioneManualeIncarico&#45;&gt;CompletamentoManualeIncarico</title>
<path fill="none" stroke="black" d="M1285.77,-2076.26C1285.3,-2048.14 1284.34,-1990.32 1283.41,-1934.18"/>
<polygon fill="black" stroke="black" points="1286.92,-1934.44 1283.25,-1924.5 1279.92,-1934.56 1286.92,-1934.44"/>
<text text-anchor="middle" x="1325.31" y="-1943.02" font-family="Times New Roman,serif" font-size="14.00">Inizializzazione</text>
</g>
<!-- AvvioRiparazione -->
<g id="node3" class="node">
<title>AvvioRiparazione</title>
<ellipse fill="lightgrey" stroke="black" cx="1254.06" cy="-842.83" rx="77.01" ry="77.01"/>
<text text-anchor="middle" x="1254.06" y="-837.41" font-family="Times New Roman,serif" font-size="14.00">AvvioRiparazione</text>
</g>
<!-- AvvioSopralluogoPCE -->
<g id="node4" class="node">
<title>AvvioSopralluogoPCE</title>
<ellipse fill="lightgrey" stroke="black" cx="1289.06" cy="-119.72" rx="95.97" ry="95.97"/>
<text text-anchor="middle" x="1289.06" y="-114.3" font-family="Times New Roman,serif" font-size="14.00">AvvioSopralluogoPCE</text>
</g>
<!-- AvvioVisio -->
<g id="node5" class="node">
<title>AvvioVisio</title>
<ellipse fill="lightgrey" stroke="black" cx="268.06" cy="-119.72" rx="52.56" ry="52.56"/>
<text text-anchor="middle" x="268.06" y="-114.3" font-family="Times New Roman,serif" font-size="14.00">AvvioVisio</text>
</g>
<!-- AvvioDesk -->
<g id="node6" class="node">
<title>AvvioDesk</title>
<ellipse fill="lightgrey" stroke="black" cx="52.06" cy="-119.72" rx="52.06" ry="52.06"/>
<text text-anchor="middle" x="52.06" y="-114.3" font-family="Times New Roman,serif" font-size="14.00">AvvioDesk</text>
</g>
<!-- AvvioSopralluogo -->
<g id="node7" class="node">
<title>AvvioSopralluogo</title>
<ellipse fill="lightgrey" stroke="black" cx="427.06" cy="-119.72" rx="78.51" ry="78.51"/>
<text text-anchor="middle" x="427.06" y="-114.3" font-family="Times New Roman,serif" font-size="14.00">AvvioSopralluogo</text>
</g>
<!-- AvvioManualeVisio -->
<g id="node8" class="node">
<title>AvvioManualeVisio</title>
<ellipse fill="lightgrey" stroke="black" cx="1216.06" cy="-613.6" rx="83.5" ry="83.5"/>
<text text-anchor="middle" x="1216.06" y="-608.18" font-family="Times New Roman,serif" font-size="14.00">AvvioManualeVisio</text>
</g>
<!-- AvvioManualeDesk -->
<g id="node9" class="node">
<title>AvvioManualeDesk</title>
<ellipse fill="lightgrey" stroke="black" cx="1032.06" cy="-613.6" rx="83" ry="83"/>
<text text-anchor="middle" x="1032.06" y="-608.18" font-family="Times New Roman,serif" font-size="14.00">AvvioManualeDesk</text>
</g>
<!-- AvvioAccertSelfCare -->
<g id="node10" class="node">
<title>AvvioAccertSelfCare</title>
<ellipse fill="lightgrey" stroke="black" cx="613.06" cy="-119.72" rx="89.99" ry="89.99"/>
<text text-anchor="middle" x="613.06" y="-114.3" font-family="Times New Roman,serif" font-size="14.00">AvvioAccertSelfCare</text>
</g>
<!-- CreazioneAutomaticaIncarico&#45;&gt;CompletamentoManualeIncarico -->
<g id="edge3" class="edge">
<title>CreazioneAutomaticaIncarico&#45;&gt;CompletamentoManualeIncarico</title>
<path fill="none" stroke="black" d="M1135.57,-1996.41C1155.75,-1968.15 1177.98,-1937.02 1198.86,-1907.78"/>
<polygon fill="black" stroke="black" points="1201.45,-1910.18 1204.41,-1900.01 1195.75,-1906.11 1201.45,-1910.18"/>
<text text-anchor="middle" x="1222.81" y="-1943.02" font-family="Times New Roman,serif" font-size="14.00">DatiNonCompleti</text>
</g>
<!-- VenditaRiparazione -->
<g id="node13" class="node">
<title>VenditaRiparazione</title>
<ellipse fill="none" stroke="black" cx="1081.06" cy="-1071.56" rx="83" ry="83"/>
<text text-anchor="middle" x="1081.06" y="-1066.13" font-family="Times New Roman,serif" font-size="14.00">VenditaRiparazione</text>
</g>
<!-- CreazioneAutomaticaIncarico&#45;&gt;VenditaRiparazione -->
<g id="edge4" class="edge">
<title>CreazioneAutomaticaIncarico&#45;&gt;VenditaRiparazione</title>
<path fill="none" stroke="black" d="M1068.96,-1973.98C1070.07,-1918.78 1071.06,-1852.4 1071.06,-1792.67 1071.06,-1792.67 1071.06,-1792.67 1071.06,-1304.77 1071.06,-1259.12 1073.01,-1208.47 1075.19,-1166.15"/>
<polygon fill="black" stroke="black" points="1078.69,-1166.42 1075.72,-1156.25 1071.7,-1166.05 1078.69,-1166.42"/>
<text text-anchor="middle" x="1125.44" y="-1527.58" font-family="Times New Roman,serif" font-size="14.00">VenditaRiparazione</text>
</g>
<!-- EsecuzioneTriage -->
<g id="node14" class="node">
<title>EsecuzioneTriage</title>
<ellipse fill="none" stroke="black" cx="597.06" cy="-1533" rx="76.01" ry="76.01"/>
<text text-anchor="middle" x="597.06" y="-1527.58" font-family="Times New Roman,serif" font-size="14.00">EsecuzioneTriage</text>
</g>
<!-- CreazioneAutomaticaIncarico&#45;&gt;EsecuzioneTriage -->
<g id="edge5" class="edge">
<title>CreazioneAutomaticaIncarico&#45;&gt;EsecuzioneTriage</title>
<path fill="none" stroke="black" d="M989.14,-2001.94C894.67,-1889.2 736.7,-1700.65 653.02,-1600.79"/>
<polygon fill="black" stroke="black" points="655.73,-1598.57 646.62,-1593.15 650.36,-1603.06 655.73,-1598.57"/>
<text text-anchor="middle" x="983.19" y="-1786.25" font-family="Times New Roman,serif" font-size="14.00">RiparazioneNonPrevista</text>
</g>
<!-- CompletamentoManualeIncarico&#45;&gt;CompletamentoManualeIncarico -->
<g id="edge6" class="edge">
<title>CompletamentoManualeIncarico&#45;&gt;CompletamentoManualeIncarico</title>
<path fill="none" stroke="black" d="M1410.23,-1815.24C1422.33,-1810.4 1429.97,-1802.54 1429.97,-1791.67 1429.97,-1784.2 1426.36,-1778.15 1420.17,-1773.53"/>
<polygon fill="black" stroke="black" points="1422.02,-1770.55 1411.56,-1768.83 1418.66,-1776.69 1422.02,-1770.55"/>
<text text-anchor="middle" x="1478.72" y="-1786.25" font-family="Times New Roman,serif" font-size="14.00">DatiNonCompleti</text>
</g>
<!-- CompletamentoManualeIncarico&#45;&gt;VenditaRiparazione -->
<g id="edge7" class="edge">
<title>CompletamentoManualeIncarico&#45;&gt;VenditaRiparazione</title>
<path fill="none" stroke="black" d="M1359.68,-1686.62C1405.56,-1612.66 1448.11,-1511.24 1413.06,-1423.24 1362.06,-1295.18 1239.63,-1186.96 1158.55,-1125.92"/>
<polygon fill="black" stroke="black" points="1160.69,-1123.15 1150.58,-1119.98 1156.51,-1128.77 1160.69,-1123.15"/>
<text text-anchor="middle" x="1472.44" y="-1425.69" font-family="Times New Roman,serif" font-size="14.00">VenditaRiparazione</text>
</g>
<!-- CompletamentoManualeIncarico&#45;&gt;EsecuzioneTriage -->
<g id="edge8" class="edge">
<title>CompletamentoManualeIncarico&#45;&gt;EsecuzioneTriage</title>
<path fill="none" stroke="black" d="M1158.38,-1744.64C1019.56,-1692.54 797.34,-1609.16 678.42,-1564.53"/>
<polygon fill="black" stroke="black" points="679.95,-1561.37 669.36,-1561.13 677.49,-1567.92 679.95,-1561.37"/>
<text text-anchor="middle" x="945.19" y="-1629.47" font-family="Times New Roman,serif" font-size="14.00">RiparazioneNonPrevista</text>
</g>
<!-- VenditaRiparazione&#45;&gt;AvvioRiparazione -->
<g id="edge9" class="edge">
<title>VenditaRiparazione&#45;&gt;AvvioRiparazione</title>
<path fill="none" stroke="black" d="M1151.66,-1027.35C1172.78,-1011.63 1194.44,-992.31 1210.06,-970.56 1219.08,-958 1226.38,-943.43 1232.25,-928.74"/>
<polygon fill="black" stroke="black" points="1235.49,-930.06 1235.74,-919.47 1228.94,-927.59 1235.49,-930.06"/>
<text text-anchor="middle" x="1276.31" y="-957.26" font-family="Times New Roman,serif" font-size="14.00">RiparazioneVenduta</text>
</g>
<!-- VenditaRiparazione&#45;&gt;VenditaRiparazione -->
<g id="edge10" class="edge">
<title>VenditaRiparazione&#45;&gt;VenditaRiparazione</title>
<path fill="none" stroke="black" d="M1162.29,-1089.98C1174.11,-1087.05 1182.06,-1080.91 1182.06,-1071.56 1182.06,-1065.42 1178.63,-1060.66 1172.94,-1057.29"/>
<polygon fill="black" stroke="black" points="1174.29,-1054.06 1163.7,-1053.69 1171.75,-1060.58 1174.29,-1054.06"/>
<text text-anchor="middle" x="1245.06" y="-1066.13" font-family="Times New Roman,serif" font-size="14.00">CampiObbligMancanti</text>
</g>
<!-- SceltaManualeServizio -->
<g id="node15" class="node">
<title>SceltaManualeServizio</title>
<ellipse fill="none" stroke="black" cx="921.06" cy="-842.83" rx="93.98" ry="93.98"/>
<text text-anchor="middle" x="921.06" y="-837.41" font-family="Times New Roman,serif" font-size="14.00">SceltaManualeServizio</text>
</g>
<!-- VenditaRiparazione&#45;&gt;SceltaManualeServizio -->
<g id="edge11" class="edge">
<title>VenditaRiparazione&#45;&gt;SceltaManualeServizio</title>
<path fill="none" stroke="black" d="M1076.21,-988.5C1073.3,-976.68 1069.08,-965.07 1063.06,-954.81 1050.16,-932.83 1031.09,-913.61 1011.09,-897.6"/>
<polygon fill="black" stroke="black" points="1013.42,-894.98 1003.37,-891.64 1009.14,-900.52 1013.42,-894.98"/>
<text text-anchor="middle" x="1138.31" y="-957.26" font-family="Times New Roman,serif" font-size="14.00">RiparazioneNonVenduta</text>
</g>
<!-- EsecuzioneTriage&#45;&gt;AvvioSopralluogoPCE -->
<g id="edge12" class="edge">
<title>EsecuzioneTriage&#45;&gt;AvvioSopralluogoPCE</title>
<path fill="none" stroke="black" d="M672.15,-1518.96C871.52,-1483.3 1399.06,-1381.84 1399.06,-1306.77 1399.06,-1306.77 1399.06,-1306.77 1399.06,-371.9 1399.06,-314.58 1374.72,-255.61 1348.95,-209.22"/>
<polygon fill="black" stroke="black" points="1351.99,-207.5 1344,-200.54 1345.91,-210.96 1351.99,-207.5"/>
<text text-anchor="middle" x="1446.31" y="-837.41" font-family="Times New Roman,serif" font-size="14.00">SopralluogoPCE</text>
</g>
<!-- EsecuzioneTriage&#45;&gt;AvvioVisio -->
<g id="edge13" class="edge">
<title>EsecuzioneTriage&#45;&gt;AvvioVisio</title>
<path fill="none" stroke="black" d="M521.71,-1521.94C437.89,-1509.15 299.46,-1483.24 187.06,-1438.99 113.5,-1410.03 68.06,-1385.83 68.06,-1306.77 68.06,-1306.77 68.06,-1306.77 68.06,-371.9 68.06,-277.45 155.67,-198 214.92,-155.06"/>
<polygon fill="black" stroke="black" points="216.81,-158.01 222.94,-149.37 212.76,-152.31 216.81,-158.01"/>
<text text-anchor="middle" x="82.69" y="-837.41" font-family="Times New Roman,serif" font-size="14.00">Visio</text>
</g>
<!-- EsecuzioneTriage&#45;&gt;AvvioDesk -->
<g id="edge14" class="edge">
<title>EsecuzioneTriage&#45;&gt;AvvioDesk</title>
<path fill="none" stroke="black" d="M521.27,-1522.49C391.21,-1504.8 132.83,-1463.3 64.06,-1405.24 24.73,-1372.03 3.06,-1358.25 3.06,-1306.77 3.06,-1306.77 3.06,-1306.77 3.06,-371.9 3.06,-305.61 19.71,-231.26 33.6,-180.77"/>
<polygon fill="black" stroke="black" points="36.95,-181.77 36.28,-171.19 30.21,-179.88 36.95,-181.77"/>
<text text-anchor="middle" x="17.31" y="-837.41" font-family="Times New Roman,serif" font-size="14.00">Desk</text>
</g>
<!-- EsecuzioneTriage&#45;&gt;AvvioSopralluogo -->
<g id="edge15" class="edge">
<title>EsecuzioneTriage&#45;&gt;AvvioSopralluogo</title>
<path fill="none" stroke="black" d="M520.7,-1528.76C388.99,-1518.62 133.06,-1477.02 133.06,-1306.77 133.06,-1306.77 133.06,-1306.77 133.06,-961.68 133.06,-623.55 193.47,-531.25 354.06,-233.7 361,-220.84 368.91,-207.52 376.89,-194.74"/>
<polygon fill="black" stroke="black" points="379.81,-196.68 382.19,-186.36 373.89,-192.94 379.81,-196.68"/>
<text text-anchor="middle" x="179.19" y="-837.41" font-family="Times New Roman,serif" font-size="14.00">Sopralluogo</text>
</g>
<!-- EsecuzioneTriage&#45;&gt;SceltaManualeServizio -->
<g id="edge16" class="edge">
<title>EsecuzioneTriage&#45;&gt;SceltaManualeServizio</title>
<path fill="none" stroke="black" d="M598.85,-1456.55C603.1,-1381.54 616.53,-1264.67 657.81,-1172.56 702.38,-1073.1 784.3,-978.02 844.96,-915.93"/>
<polygon fill="black" stroke="black" points="847.41,-918.43 851.93,-908.85 842.42,-913.52 847.41,-918.43"/>
<text text-anchor="middle" x="701.19" y="-1175.01" font-family="Times New Roman,serif" font-size="14.00">NessunServizio</text>
</g>
<!-- EsecuzioneTriage&#45;&gt;SceltaManualeServizio -->
<g id="edge17" class="edge">
<title>EsecuzioneTriage&#45;&gt;SceltaManualeServizio</title>
<path fill="none" stroke="black" d="M656.77,-1485.46C728.59,-1425.51 845.97,-1313.97 898.06,-1188.31 929.65,-1112.1 933.92,-1018.26 931.12,-947.78"/>
<polygon fill="black" stroke="black" points="934.63,-948.02 930.68,-938.19 927.64,-948.34 934.63,-948.02"/>
<text text-anchor="middle" x="967.06" y="-1175.01" font-family="Times New Roman,serif" font-size="14.00">CampiObbligMancanti</text>
</g>
<!-- VenditaRiparazionePA1 -->
<g id="node16" class="node">
<title>VenditaRiparazionePA1</title>
<ellipse fill="none" stroke="black" cx="394.06" cy="-1305.77" rx="99.47" ry="99.47"/>
<text text-anchor="middle" x="394.06" y="-1300.35" font-family="Times New Roman,serif" font-size="14.00">VenditaRiparazionePA1</text>
</g>
<!-- EsecuzioneTriage&#45;&gt;VenditaRiparazionePA1 -->
<g id="edge18" class="edge">
<title>EsecuzioneTriage&#45;&gt;VenditaRiparazionePA1</title>
<path fill="none" stroke="black" d="M521.84,-1520.39C473.71,-1508.64 414.81,-1485.25 384.56,-1438.99 379.65,-1431.47 376.45,-1423.18 374.56,-1414.51"/>
<polygon fill="black" stroke="black" points="378.06,-1414.21 373.08,-1404.87 371.14,-1415.28 378.06,-1414.21"/>
<text text-anchor="middle" x="451.81" y="-1425.69" font-family="Times New Roman,serif" font-size="14.00">VenditaRiparazionePA1</text>
</g>
<!-- InvioLinkSelfCare -->
<g id="node17" class="node">
<title>InvioLinkSelfCare</title>
<ellipse fill="none" stroke="black" cx="531.06" cy="-613.6" rx="78.01" ry="78.01"/>
<text text-anchor="middle" x="531.06" y="-608.18" font-family="Times New Roman,serif" font-size="14.00">InvioLinkSelfCare</text>
</g>
<!-- EsecuzioneTriage&#45;&gt;InvioLinkSelfCare -->
<g id="edge19" class="edge">
<title>EsecuzioneTriage&#45;&gt;InvioLinkSelfCare</title>
<path fill="none" stroke="black" d="M566.28,-1462.98C549.47,-1419.14 532.06,-1360.7 532.06,-1306.77 532.06,-1306.77 532.06,-1306.77 532.06,-961.68 532.06,-873.78 531.74,-773.36 531.46,-703.22"/>
<polygon fill="black" stroke="black" points="534.96,-703.3 531.42,-693.31 527.96,-703.33 534.96,-703.3"/>
<text text-anchor="middle" x="582.69" y="-1066.13" font-family="Times New Roman,serif" font-size="14.00">InvioLinkSelfCare</text>
</g>
<!-- SceltaManualeServizio&#45;&gt;AvvioSopralluogoPCE -->
<g id="edge20" class="edge">
<title>SceltaManualeServizio&#45;&gt;AvvioSopralluogoPCE</title>
<path fill="none" stroke="black" d="M1009.04,-808.57C1056.18,-790.78 1115.26,-768.55 1168.06,-748.85 1230.22,-725.67 1270.15,-751.54 1308.06,-697.1 1350.48,-636.2 1335.98,-598.88 1308.06,-530.11 1303.86,-519.77 1294.78,-522.44 1290.56,-512.11 1253.22,-420.63 1257.81,-306.8 1268.75,-225.52"/>
<polygon fill="black" stroke="black" points="1272.2,-226.16 1270.12,-215.77 1265.27,-225.19 1272.2,-226.16"/>
<text text-anchor="middle" x="1337.31" y="-498.81" font-family="Times New Roman,serif" font-size="14.00">SopralluogoPCE</text>
</g>
<!-- SceltaManualeServizio&#45;&gt;AvvioSopralluogo -->
<g id="edge21" class="edge">
<title>SceltaManualeServizio&#45;&gt;AvvioSopralluogo</title>
<path fill="none" stroke="black" d="M925.74,-748.56C932.85,-587.18 942.13,-269.57 907.06,-233.7 876.51,-202.44 553.66,-234.22 514.06,-215.7 501.88,-210 490.62,-201.73 480.51,-192.42"/>
<polygon fill="black" stroke="black" points="482.98,-189.94 473.39,-185.45 478.09,-194.95 482.98,-189.94"/>
<text text-anchor="middle" x="967.19" y="-498.81" font-family="Times New Roman,serif" font-size="14.00">Sopralluogo</text>
</g>
<!-- SceltaManualeServizio&#45;&gt;AvvioManualeVisio -->
<g id="edge22" class="edge">
<title>SceltaManualeServizio&#45;&gt;AvvioManualeVisio</title>
<path fill="none" stroke="black" d="M998.71,-789.51C1037.17,-762.83 1083.86,-729.3 1124.06,-697.1 1131.4,-691.22 1138.93,-684.94 1146.36,-678.56"/>
<polygon fill="black" stroke="black" points="1148.62,-681.23 1153.88,-672.04 1144.03,-675.94 1148.62,-681.23"/>
<text text-anchor="middle" x="1112.69" y="-717.55" font-family="Times New Roman,serif" font-size="14.00">Visio</text>
</g>
<!-- SceltaManualeServizio&#45;&gt;AvvioManualeDesk -->
<g id="edge23" class="edge">
<title>SceltaManualeServizio&#45;&gt;AvvioManualeDesk</title>
<path fill="none" stroke="black" d="M962.08,-757.87C971.5,-738.58 981.52,-718.06 990.95,-698.76"/>
<polygon fill="black" stroke="black" points="994.06,-700.37 995.3,-689.85 987.77,-697.3 994.06,-700.37"/>
<text text-anchor="middle" x="994.31" y="-717.55" font-family="Times New Roman,serif" font-size="14.00">Desk</text>
</g>
<!-- SceltaManualeServizio&#45;&gt;VenditaRiparazione -->
<g id="edge24" class="edge">
<title>SceltaManualeServizio&#45;&gt;VenditaRiparazione</title>
<path fill="none" stroke="black" d="M934.4,-936.22C938.4,-948.32 943.59,-960.12 950.31,-970.56 963.08,-990.38 981.2,-1007.81 999.89,-1022.33"/>
<polygon fill="black" stroke="black" points="997.78,-1025.12 1007.88,-1028.32 1001.98,-1019.52 997.78,-1025.12"/>
<text text-anchor="middle" x="1005.44" y="-957.26" font-family="Times New Roman,serif" font-size="14.00">VenditaRiparazione</text>
</g>
<!-- SceltaManualeServizio&#45;&gt;SceltaManualeServizio -->
<g id="edge25" class="edge">
<title>SceltaManualeServizio&#45;&gt;SceltaManualeServizio</title>
<path fill="none" stroke="black" d="M1013.31,-862.53C1025.19,-859.11 1033.04,-852.55 1033.04,-842.83 1033.04,-836.3 1029.5,-831.2 1023.57,-827.51"/>
<polygon fill="black" stroke="black" points="1025.28,-824.44 1014.71,-823.73 1022.53,-830.88 1025.28,-824.44"/>
<text text-anchor="middle" x="1096.04" y="-837.41" font-family="Times New Roman,serif" font-size="14.00">CampiObbligMancanti</text>
</g>
<!-- SceltaManualeServizio&#45;&gt;InvioLinkSelfCare -->
<g id="edge26" class="edge">
<title>SceltaManualeServizio&#45;&gt;InvioLinkSelfCare</title>
<path fill="none" stroke="black" d="M826.98,-836.62C746.79,-827.18 633.87,-801.27 564.81,-730.85 556.67,-722.55 550.47,-712.41 545.76,-701.61"/>
<polygon fill="black" stroke="black" points="549.1,-700.56 542.22,-692.51 542.58,-703.1 549.1,-700.56"/>
<text text-anchor="middle" x="615.69" y="-717.55" font-family="Times New Roman,serif" font-size="14.00">InvioLinkSelfCare</text>
</g>
<!-- VenditaRiparazionePA1&#45;&gt;VenditaRiparazione -->
<g id="edge27" class="edge">
<title>VenditaRiparazionePA1&#45;&gt;VenditaRiparazione</title>
<path fill="none" stroke="black" d="M490.79,-1280.78C563.59,-1260.88 664.73,-1229.24 748.06,-1188.31 759.26,-1182.8 760.09,-1178.03 771.31,-1172.56 841.5,-1138.32 926.18,-1111.9 989.25,-1094.84"/>
<polygon fill="black" stroke="black" points="990.15,-1098.23 998.91,-1092.26 988.34,-1091.46 990.15,-1098.23"/>
<text text-anchor="middle" x="835.44" y="-1175.01" font-family="Times New Roman,serif" font-size="14.00">InteressatoRiparazione</text>
</g>
<!-- SceltaAutomaticaServizio -->
<g id="node18" class="node">
<title>SceltaAutomaticaServizio</title>
<ellipse fill="none" stroke="black" cx="484.06" cy="-372.9" rx="105.45" ry="105.45"/>
<text text-anchor="middle" x="484.06" y="-367.48" font-family="Times New Roman,serif" font-size="14.00">SceltaAutomaticaServizio</text>
</g>
<!-- VenditaRiparazionePA1&#45;&gt;SceltaAutomaticaServizio -->
<g id="edge28" class="edge">
<title>VenditaRiparazionePA1&#45;&gt;SceltaAutomaticaServizio</title>
<path fill="none" stroke="black" d="M319.7,-1239.81C279.12,-1196.98 237.06,-1137.04 237.06,-1072.56 237.06,-1072.56 237.06,-1072.56 237.06,-612.6 237.06,-528.77 311.55,-465.02 378.72,-424.59"/>
<polygon fill="black" stroke="black" points="380.42,-427.65 387.26,-419.56 376.87,-421.61 380.42,-427.65"/>
<text text-anchor="middle" x="312.44" y="-837.41" font-family="Times New Roman,serif" font-size="14.00">NonInteressatoRiparazione</text>
</g>
<!-- VenditaRiparazionePA1&#45;&gt;SceltaAutomaticaServizio -->
<g id="edge29" class="edge">
<title>VenditaRiparazionePA1&#45;&gt;SceltaAutomaticaServizio</title>
<path fill="none" stroke="black" d="M393.67,-1206.04C392.86,-992.2 391.33,-504.68 394.06,-496.36 397.81,-484.94 403.07,-473.7 409.19,-462.95"/>
<polygon fill="black" stroke="black" points="412.11,-464.89 414.25,-454.52 406.11,-461.29 412.11,-464.89"/>
<text text-anchor="middle" x="432.81" y="-837.41" font-family="Times New Roman,serif" font-size="14.00">TimerScaduto</text>
</g>
<!-- InvioLinkSelfCare&#45;&gt;SceltaAutomaticaServizio -->
<g id="edge37" class="edge">
<title>InvioLinkSelfCare&#45;&gt;SceltaAutomaticaServizio</title>
<path fill="none" stroke="black" d="M497.31,-542.88C493.57,-532.75 490.31,-522.3 488.06,-512.11 486.47,-504.86 485.2,-497.35 484.2,-489.74"/>
<polygon fill="black" stroke="black" points="487.71,-489.6 483.1,-480.06 480.75,-490.39 487.71,-489.6"/>
<text text-anchor="middle" x="536.06" y="-498.81" font-family="Times New Roman,serif" font-size="14.00">SelfCareEseguito</text>
</g>
<!-- InvioLinkSelfCare&#45;&gt;SceltaAutomaticaServizio -->
<g id="edge38" class="edge">
<title>InvioLinkSelfCare&#45;&gt;SceltaAutomaticaServizio</title>
<path fill="none" stroke="black" d="M578.33,-551.27C586.5,-533.78 590.54,-514.53 584.06,-496.36 579.29,-482.96 572.35,-469.98 564.33,-457.78"/>
<polygon fill="black" stroke="black" points="567.42,-456.1 558.85,-449.86 561.66,-460.08 567.42,-456.1"/>
<text text-anchor="middle" x="647.06" y="-498.81" font-family="Times New Roman,serif" font-size="14.00">SelfCareNonEseguito</text>
</g>
<!-- InvioLinkSelfCare&#45;&gt;SceltaAutomaticaServizio -->
<g id="edge39" class="edge">
<title>InvioLinkSelfCare&#45;&gt;SceltaAutomaticaServizio</title>
<path fill="none" stroke="black" d="M462.26,-576.16C438.87,-559.93 415.41,-538.46 402.56,-512.11 393.89,-494.31 396.31,-475.75 404.33,-458.22"/>
<polygon fill="black" stroke="black" points="407.43,-459.85 408.96,-449.37 401.23,-456.61 407.43,-459.85"/>
<text text-anchor="middle" x="442.81" y="-498.81" font-family="Times New Roman,serif" font-size="14.00">TimerScaduto</text>
</g>
<!-- SceltaAutomaticaServizio&#45;&gt;AvvioSopralluogoPCE -->
<g id="edge30" class="edge">
<title>SceltaAutomaticaServizio&#45;&gt;AvvioSopralluogoPCE</title>
<path fill="none" stroke="black" d="M584.79,-340.47C738.88,-292.39 1031.51,-201.09 1186.61,-152.69"/>
<polygon fill="black" stroke="black" points="1187.59,-156.05 1196.1,-149.73 1185.51,-149.37 1187.59,-156.05"/>
<text text-anchor="middle" x="958.31" y="-236.15" font-family="Times New Roman,serif" font-size="14.00">SopralluogoPCE</text>
</g>
<!-- SceltaAutomaticaServizio&#45;&gt;AvvioVisio -->
<g id="edge31" class="edge">
<title>SceltaAutomaticaServizio&#45;&gt;AvvioVisio</title>
<path fill="none" stroke="black" d="M411.23,-296.69C387.62,-271.46 361.69,-242.84 339.06,-215.7 327.6,-201.95 315.73,-186.58 305.06,-172.29"/>
<polygon fill="black" stroke="black" points="307.9,-170.24 299.13,-164.29 302.27,-174.41 307.9,-170.24"/>
<text text-anchor="middle" x="380.69" y="-236.15" font-family="Times New Roman,serif" font-size="14.00">Visio</text>
</g>
<!-- SceltaAutomaticaServizio&#45;&gt;AvvioDesk -->
<g id="edge32" class="edge">
<title>SceltaAutomaticaServizio&#45;&gt;AvvioDesk</title>
<path fill="none" stroke="black" d="M391.81,-321.3C337.44,-291.17 267.48,-251.87 206.06,-215.7 172.38,-195.86 135.06,-172.87 105.59,-154.48"/>
<polygon fill="black" stroke="black" points="107.53,-151.56 97.2,-149.23 103.82,-157.5 107.53,-151.56"/>
<text text-anchor="middle" x="273.31" y="-236.15" font-family="Times New Roman,serif" font-size="14.00">Desk</text>
</g>
<!-- SceltaAutomaticaServizio&#45;&gt;AvvioSopralluogo -->
<g id="edge33" class="edge">
<title>SceltaAutomaticaServizio&#45;&gt;AvvioSopralluogo</title>
<path fill="none" stroke="black" d="M460.88,-269.74C456.2,-249.11 451.32,-227.61 446.77,-207.57"/>
<polygon fill="black" stroke="black" points="450.24,-207.05 444.61,-198.07 443.41,-208.6 450.24,-207.05"/>
<text text-anchor="middle" x="490.19" y="-236.15" font-family="Times New Roman,serif" font-size="14.00">Sopralluogo</text>
</g>
<!-- SceltaAutomaticaServizio&#45;&gt;AvvioAccertSelfCare -->
<g id="edge34" class="edge">
<title>SceltaAutomaticaServizio&#45;&gt;AvvioAccertSelfCare</title>
<path fill="none" stroke="black" d="M531.91,-278.73C543.42,-256.33 555.68,-232.46 567.09,-210.23"/>
<polygon fill="black" stroke="black" points="570.13,-211.98 571.58,-201.49 563.9,-208.79 570.13,-211.98"/>
<text text-anchor="middle" x="577.06" y="-236.15" font-family="Times New Roman,serif" font-size="14.00">SelfCare</text>
</g>
<!-- SceltaAutomaticaServizio&#45;&gt;SceltaManualeServizio -->
<g id="edge35" class="edge">
<title>SceltaAutomaticaServizio&#45;&gt;SceltaManualeServizio</title>
<path fill="none" stroke="black" d="M585.76,-402.14C632.57,-420.8 683.7,-450.5 711.06,-496.36 714.65,-502.37 715.13,-506.41 711.06,-512.11 696.8,-532.1 673.07,-510.11 658.81,-530.11 615.72,-590.53 621.08,-633.19 658.81,-697.1 693.47,-755.81 761.4,-792.34 819.44,-814.02"/>
<polygon fill="black" stroke="black" points="818.13,-817.27 828.72,-817.38 820.51,-810.68 818.13,-817.27"/>
<text text-anchor="middle" x="702.19" y="-608.18" font-family="Times New Roman,serif" font-size="14.00">NessunServizio</text>
</g>
<!-- SceltaAutomaticaServizio&#45;&gt;SceltaManualeServizio -->
<g id="edge36" class="edge">
<title>SceltaAutomaticaServizio&#45;&gt;SceltaManualeServizio</title>
<path fill="none" stroke="black" d="M583.81,-407.82C631.52,-427.85 686.85,-457.07 727.06,-496.36 793.15,-560.93 737.53,-615.61 781.06,-697.1 796.1,-725.25 818.21,-751.73 840.45,-774.15"/>
<polygon fill="black" stroke="black" points="837.97,-776.63 847.55,-781.16 842.89,-771.64 837.97,-776.63"/>
<text text-anchor="middle" x="844.06" y="-608.18" font-family="Times New Roman,serif" font-size="14.00">CampiObbligMancanti</text>
</g>
</g>
</svg>
