<?xml version="1.0" encoding="UTF-8" standalone="no"?>
<!DOCTYPE svg PUBLIC "-//W3C//DTD SVG 1.1//EN"
 "http://www.w3.org/Graphics/SVG/1.1/DTD/svg11.dtd">
<!-- Generated by graphviz version 9.0.0 (20230911.1827)
 -->
<!-- Title: finite_state_machine Pages: 1 -->
<svg width="387pt" height="360pt"
 viewBox="0.00 0.00 387.45 360.00" xmlns="http://www.w3.org/2000/svg" xmlns:xlink="http://www.w3.org/1999/xlink">
<g id="graph0" class="graph" transform="scale(0.162809 0.162809) rotate(0) translate(4 2207.18)">
<title>finite_state_machine</title>
<polygon fill="white" stroke="none" points="-4,4 -4,-2207.18 2375.77,-2207.18 2375.77,4 -4,4"/>
<text text-anchor="middle" x="1185.89" y="-6.45" font-family="Times New Roman,serif" font-size="14.00">Assessment</text>
<!-- Apertura -->
<g id="node1" class="node">
<title>Apertura</title>
<polygon fill="lightgrey" stroke="black" points="64.75,-1625.18 0,-1625.18 0,-1589.18 64.75,-1589.18 64.75,-1625.18"/>
<text text-anchor="middle" x="32.38" y="-1601.76" font-family="Times New Roman,serif" font-size="14.00">Apertura</text>
</g>
<!-- AvvioVisio -->
<g id="node4" class="node">
<title>AvvioVisio</title>
<ellipse fill="none" stroke="black" cx="201.72" cy="-1943.18" rx="52.56" ry="52.56"/>
<ellipse fill="none" stroke="black" cx="201.72" cy="-1943.18" rx="56.56" ry="56.56"/>
<text text-anchor="middle" x="201.72" y="-1937.76" font-family="Times New Roman,serif" font-size="14.00">AvvioVisio</text>
</g>
<!-- Apertura&#45;&gt;AvvioVisio -->
<g id="edge9" class="edge">
<title>Apertura&#45;&gt;AvvioVisio</title>
<path fill="none" stroke="black" d="M35.01,-1625.32C39.98,-1677.25 56.19,-1825.34 82.75,-1865.18 96.74,-1886.17 118.5,-1902.88 139.54,-1915.36"/>
<polygon fill="black" stroke="black" points="137.7,-1918.34 148.13,-1920.22 141.15,-1912.25 137.7,-1918.34"/>
</g>
<!-- AvvioAccertSelfCare -->
<g id="node6" class="node">
<title>AvvioAccertSelfCare</title>
<ellipse fill="none" stroke="black" cx="201.72" cy="-1729.18" rx="89.99" ry="89.99"/>
<ellipse fill="none" stroke="black" cx="201.72" cy="-1729.18" rx="93.99" ry="93.99"/>
<text text-anchor="middle" x="201.72" y="-1723.76" font-family="Times New Roman,serif" font-size="14.00">AvvioAccertSelfCare</text>
</g>
<!-- Apertura&#45;&gt;AvvioAccertSelfCare -->
<g id="edge10" class="edge">
<title>Apertura&#45;&gt;AvvioAccertSelfCare</title>
<path fill="none" stroke="black" d="M58.43,-1625.45C73.99,-1636.79 94.98,-1652.09 116.05,-1667.46"/>
<polygon fill="black" stroke="black" points="113.71,-1670.08 123.85,-1673.14 117.83,-1664.42 113.71,-1670.08"/>
</g>
<!-- AvvioDesk -->
<g id="node7" class="node">
<title>AvvioDesk</title>
<ellipse fill="none" stroke="black" cx="201.72" cy="-1483.18" rx="52.06" ry="52.06"/>
<ellipse fill="none" stroke="black" cx="201.72" cy="-1483.18" rx="56.06" ry="56.06"/>
<text text-anchor="middle" x="201.72" y="-1477.76" font-family="Times New Roman,serif" font-size="14.00">AvvioDesk</text>
</g>
<!-- Apertura&#45;&gt;AvvioDesk -->
<g id="edge11" class="edge">
<title>Apertura&#45;&gt;AvvioDesk</title>
<path fill="none" stroke="black" d="M58.07,-1588.89C81.39,-1571.61 117.14,-1545.12 147.02,-1522.98"/>
<polygon fill="black" stroke="black" points="148.91,-1525.93 154.86,-1517.16 144.75,-1520.31 148.91,-1525.93"/>
</g>
<!-- AvvioManualeDesk -->
<g id="node9" class="node">
<title>AvvioManualeDesk</title>
<ellipse fill="none" stroke="black" cx="1500.73" cy="-1558.18" rx="83" ry="83"/>
<ellipse fill="none" stroke="black" cx="1500.73" cy="-1558.18" rx="87" ry="87"/>
<text text-anchor="middle" x="1500.73" y="-1552.76" font-family="Times New Roman,serif" font-size="14.00">AvvioManualeDesk</text>
</g>
<!-- Apertura&#45;&gt;AvvioManualeDesk -->
<g id="edge12" class="edge">
<title>Apertura&#45;&gt;AvvioManualeDesk</title>
<path fill="none" stroke="black" d="M65.01,-1608.91C137.57,-1612.78 321.63,-1622.05 475.7,-1625.18 780.91,-1631.39 857.75,-1628.33 1162.36,-1608.18 1238.53,-1603.15 1257.86,-1603.4 1333.36,-1592.18 1356.42,-1588.76 1381.1,-1584.21 1404.21,-1579.55"/>
<polygon fill="black" stroke="black" points="1404.83,-1583 1413.92,-1577.56 1403.43,-1576.14 1404.83,-1583"/>
</g>
<!-- AvvioManualeVisio -->
<g id="node10" class="node">
<title>AvvioManualeVisio</title>
<ellipse fill="none" stroke="black" cx="1500.73" cy="-2010.18" rx="83.5" ry="83.5"/>
<ellipse fill="none" stroke="black" cx="1500.73" cy="-2010.18" rx="87.5" ry="87.5"/>
<text text-anchor="middle" x="1500.73" y="-2004.76" font-family="Times New Roman,serif" font-size="14.00">AvvioManualeVisio</text>
</g>
<!-- Apertura&#45;&gt;AvvioManualeVisio -->
<g id="edge13" class="edge">
<title>Apertura&#45;&gt;AvvioManualeVisio</title>
<path fill="none" stroke="black" d="M33.04,-1625.63C33.32,-1668.82 40.45,-1777.02 101.75,-1832.18 135.05,-1862.15 155.93,-1851.18 200.72,-1851.18 200.72,-1851.18 200.72,-1851.18 1038.95,-1851.18 1175.84,-1851.18 1323.72,-1914.67 1414.03,-1961.41"/>
<polygon fill="black" stroke="black" points="1412.39,-1964.5 1422.87,-1966.04 1415.64,-1958.3 1412.39,-1964.5"/>
</g>
<!-- AvvioSopralluogo -->
<g id="node11" class="node">
<title>AvvioSopralluogo</title>
<ellipse fill="none" stroke="black" cx="201.72" cy="-1267.18" rx="78.51" ry="78.51"/>
<ellipse fill="none" stroke="black" cx="201.72" cy="-1267.18" rx="82.51" ry="82.51"/>
<text text-anchor="middle" x="201.72" y="-1261.76" font-family="Times New Roman,serif" font-size="14.00">AvvioSopralluogo</text>
</g>
<!-- Apertura&#45;&gt;AvvioSopralluogo -->
<g id="edge14" class="edge">
<title>Apertura&#45;&gt;AvvioSopralluogo</title>
<path fill="none" stroke="black" d="M38.44,-1588.89C48.31,-1554.46 71.79,-1478.11 101.75,-1418.18 114.44,-1392.8 130.53,-1366.49 146.03,-1343.08"/>
<polygon fill="black" stroke="black" points="148.9,-1345.09 151.55,-1334.84 143.08,-1341.2 148.9,-1345.09"/>
</g>
<!-- AvvioSopralluogoPCE -->
<g id="node13" class="node">
<title>AvvioSopralluogoPCE</title>
<ellipse fill="none" stroke="black" cx="201.72" cy="-666.18" rx="95.97" ry="95.97"/>
<ellipse fill="none" stroke="black" cx="201.72" cy="-666.18" rx="99.97" ry="99.97"/>
<text text-anchor="middle" x="201.72" y="-660.76" font-family="Times New Roman,serif" font-size="14.00">AvvioSopralluogoPCE</text>
</g>
<!-- Apertura&#45;&gt;AvvioSopralluogoPCE -->
<g id="edge15" class="edge">
<title>Apertura&#45;&gt;AvvioSopralluogoPCE</title>
<path fill="none" stroke="black" d="M36.01,-1589.04C44.71,-1529.57 73.54,-1335.21 101.75,-1175.18 126.14,-1036.82 157.58,-877.99 178.4,-775.07"/>
<polygon fill="black" stroke="black" points="181.78,-776.03 180.34,-765.53 174.92,-774.64 181.78,-776.03"/>
</g>
<!-- Chiusura -->
<g id="node2" class="node">
<title>Chiusura</title>
<ellipse fill="lightgrey" stroke="black" cx="600.11" cy="-1754.18" rx="43.58" ry="43.58"/>
<text text-anchor="middle" x="600.11" y="-1748.76" font-family="Times New Roman,serif" font-size="14.00">Chiusura</text>
</g>
<!-- AvvioPerizia -->
<g id="node3" class="node">
<title>AvvioPerizia</title>
<ellipse fill="lightgrey" stroke="black" cx="2314.22" cy="-1125.18" rx="57.55" ry="57.55"/>
<text text-anchor="middle" x="2314.22" y="-1119.76" font-family="Times New Roman,serif" font-size="14.00">AvvioPerizia</text>
</g>
<!-- EsecuzioneVisio -->
<g id="node5" class="node">
<title>EsecuzioneVisio</title>
<ellipse fill="none" stroke="black" cx="600.11" cy="-1951.18" rx="72.02" ry="72.02"/>
<text text-anchor="middle" x="600.11" y="-1945.76" font-family="Times New Roman,serif" font-size="14.00">EsecuzioneVisio</text>
</g>
<!-- AvvioVisio&#45;&gt;EsecuzioneVisio -->
<g id="edge1" class="edge">
<title>AvvioVisio&#45;&gt;EsecuzioneVisio</title>
<path fill="none" stroke="black" d="M258.68,-1944.31C325.9,-1945.67 439.27,-1947.96 516.56,-1949.52"/>
<polygon fill="black" stroke="black" points="516.11,-1953.01 526.18,-1949.71 516.25,-1946.01 516.11,-1953.01"/>
<text text-anchor="middle" x="388.7" y="-1950.63" font-family="Times New Roman,serif" font-size="14.00">VisioPianificata</text>
</g>
<!-- EsecuzioneVisio&#45;&gt;AvvioPerizia -->
<g id="edge17" class="edge">
<title>EsecuzioneVisio&#45;&gt;AvvioPerizia</title>
<path fill="none" stroke="black" d="M670.5,-1935.14C756.14,-1916.77 906.45,-1889.18 1036.95,-1889.18 1036.95,-1889.18 1036.95,-1889.18 2011.01,-1889.18 2143.66,-1889.18 2175.22,-1812.68 2238.67,-1696.18 2285.08,-1610.98 2303.97,-1326.75 2310.39,-1194.26"/>
<polygon fill="black" stroke="black" points="2313.87,-1194.74 2310.85,-1184.58 2306.88,-1194.41 2313.87,-1194.74"/>
<text text-anchor="middle" x="1500.73" y="-1891.63" font-family="Times New Roman,serif" font-size="14.00">VisioCompletata</text>
</g>
<!-- EsecuzioneVisio&#45;&gt;EsecuzioneVisio -->
<g id="edge18" class="edge">
<title>EsecuzioneVisio&#45;&gt;EsecuzioneVisio</title>
<path fill="none" stroke="black" d="M588,-2022.5C589.81,-2033.62 593.85,-2041.21 600.11,-2041.21 604.03,-2041.21 607.07,-2038.24 609.25,-2033.31"/>
<polygon fill="black" stroke="black" points="612.54,-2034.53 611.82,-2023.96 605.79,-2032.67 612.54,-2034.53"/>
<text text-anchor="middle" x="600.11" y="-2043.66" font-family="Times New Roman,serif" font-size="14.00">AppuntamentoModificato</text>
</g>
<!-- EsecuzioneVisio&#45;&gt;EsecuzioneVisio -->
<g id="edge19" class="edge">
<title>EsecuzioneVisio&#45;&gt;EsecuzioneVisio</title>
<path fill="none" stroke="black" d="M573.69,-2018.7C573.69,-2041.2 582.5,-2059.21 600.11,-2059.21 614.7,-2059.21 623.25,-2046.86 625.76,-2029.83"/>
<polygon fill="black" stroke="black" points="629.23,-2030.43 626.43,-2020.21 622.24,-2029.94 629.23,-2030.43"/>
<text text-anchor="middle" x="600.11" y="-2061.66" font-family="Times New Roman,serif" font-size="14.00">AppuntamentoAnnullato</text>
</g>
<!-- EsecuzioneVisio&#45;&gt;EsecuzioneVisio -->
<g id="edge20" class="edge">
<title>EsecuzioneVisio&#45;&gt;EsecuzioneVisio</title>
<path fill="none" stroke="black" d="M562.24,-2012.78C555.49,-2046.41 568.11,-2077.21 600.11,-2077.21 628.49,-2077.21 641.63,-2052.99 639.54,-2024.06"/>
<polygon fill="black" stroke="black" points="643.02,-2023.71 638.2,-2014.28 636.09,-2024.66 643.02,-2023.71"/>
<text text-anchor="middle" x="600.11" y="-2079.66" font-family="Times New Roman,serif" font-size="14.00">DatiObbligatoriMancanti</text>
</g>
<!-- EsecuzioneVisio&#45;&gt;AvvioManualeVisio -->
<g id="edge16" class="edge">
<title>EsecuzioneVisio&#45;&gt;AvvioManualeVisio</title>
<path fill="none" stroke="black" d="M672.16,-1947.55C778.84,-1942.95 986.65,-1937.31 1162.36,-1952.43 1244.52,-1959.51 1336.74,-1975.88 1403.98,-1989.4"/>
<polygon fill="black" stroke="black" points="1402.99,-1992.77 1413.48,-1991.32 1404.38,-1985.91 1402.99,-1992.77"/>
<text text-anchor="middle" x="1037.95" y="-1955.63" font-family="Times New Roman,serif" font-size="14.00">VisioCompletataNuovaVisio</text>
</g>
<!-- RiassegnazioneVisio -->
<g id="node15" class="node">
<title>RiassegnazioneVisio</title>
<ellipse fill="none" stroke="black" cx="1037.95" cy="-2116.18" rx="86.99" ry="86.99"/>
<text text-anchor="middle" x="1037.95" y="-2110.76" font-family="Times New Roman,serif" font-size="14.00">RiassegnazioneVisio</text>
</g>
<!-- EsecuzioneVisio&#45;&gt;RiassegnazioneVisio -->
<g id="edge21" class="edge">
<title>EsecuzioneVisio&#45;&gt;RiassegnazioneVisio</title>
<path fill="none" stroke="black" d="M667.08,-1978.89C690.79,-1988.67 717.78,-1999.62 742.53,-2009.18 809.86,-2035.22 886.52,-2063.02 944.74,-2083.76"/>
<polygon fill="black" stroke="black" points="943.37,-2086.98 953.96,-2087.04 945.71,-2080.39 943.37,-2086.98"/>
<text text-anchor="middle" x="819.03" y="-2068.63" font-family="Times New Roman,serif" font-size="14.00">VisioRifiutata</text>
</g>
<!-- AvvioAccertSelfCare&#45;&gt;Chiusura -->
<g id="edge3" class="edge">
<title>AvvioAccertSelfCare&#45;&gt;Chiusura</title>
<path fill="none" stroke="black" d="M295.91,-1735.06C373.36,-1739.95 480.9,-1746.73 544.91,-1750.77"/>
<polygon fill="black" stroke="black" points="544.63,-1754.25 554.83,-1751.39 545.07,-1747.27 544.63,-1754.25"/>
<text text-anchor="middle" x="388.7" y="-1747.63" font-family="Times New Roman,serif" font-size="14.00">SelfCareCompletato</text>
</g>
<!-- AvvioAccertSelfCare&#45;&gt;AvvioPerizia -->
<g id="edge2" class="edge">
<title>AvvioAccertSelfCare&#45;&gt;AvvioPerizia</title>
<path fill="none" stroke="black" d="M294.47,-1712.08C374.57,-1698.64 494.12,-1682.18 599.11,-1682.18 599.11,-1682.18 599.11,-1682.18 2011.01,-1682.18 2230.68,-1682.18 2291.53,-1343.33 2307.67,-1194.21"/>
<polygon fill="black" stroke="black" points="2311.13,-1194.77 2308.69,-1184.46 2304.17,-1194.04 2311.13,-1194.77"/>
<text text-anchor="middle" x="1256.86" y="-1684.63" font-family="Times New Roman,serif" font-size="14.00">PeriziaDaEseguire</text>
</g>
<!-- EsecuzioneDesk -->
<g id="node8" class="node">
<title>EsecuzioneDesk</title>
<ellipse fill="none" stroke="black" cx="600.11" cy="-1443.18" rx="71.52" ry="71.52"/>
<text text-anchor="middle" x="600.11" y="-1437.76" font-family="Times New Roman,serif" font-size="14.00">EsecuzioneDesk</text>
</g>
<!-- AvvioDesk&#45;&gt;EsecuzioneDesk -->
<g id="edge4" class="edge">
<title>AvvioDesk&#45;&gt;EsecuzioneDesk</title>
<path fill="none" stroke="black" d="M257.84,-1477.62C325.26,-1470.82 439.97,-1459.24 517.59,-1451.41"/>
<polygon fill="black" stroke="black" points="517.66,-1454.92 527.26,-1450.43 516.96,-1447.96 517.66,-1454.92"/>
<text text-anchor="middle" x="388.7" y="-1474.63" font-family="Times New Roman,serif" font-size="14.00">DeskPianificata</text>
</g>
<!-- EsecuzioneDesk&#45;&gt;AvvioPerizia -->
<g id="edge24" class="edge">
<title>EsecuzioneDesk&#45;&gt;AvvioPerizia</title>
<path fill="none" stroke="black" d="M665.71,-1414.06C727.85,-1387.5 825.12,-1349.66 913.53,-1331.18 1446.74,-1219.76 1620.89,-1419.57 2135.92,-1242.18 2182.17,-1226.25 2228.1,-1195.42 2261.61,-1169.4"/>
<polygon fill="black" stroke="black" points="2263.42,-1172.44 2269.1,-1163.5 2259.08,-1166.94 2263.42,-1172.44"/>
<text text-anchor="middle" x="1500.73" y="-1321.63" font-family="Times New Roman,serif" font-size="14.00">DeskCompletata</text>
</g>
<!-- EsecuzioneDesk&#45;&gt;EsecuzioneDesk -->
<g id="edge25" class="edge">
<title>EsecuzioneDesk&#45;&gt;EsecuzioneDesk</title>
<path fill="none" stroke="black" d="M588,-1514.1C589.81,-1525.17 593.85,-1532.71 600.11,-1532.71 604.03,-1532.71 607.07,-1529.76 609.25,-1524.85"/>
<polygon fill="black" stroke="black" points="612.52,-1526.13 611.82,-1515.56 605.78,-1524.27 612.52,-1526.13"/>
<text text-anchor="middle" x="600.11" y="-1535.16" font-family="Times New Roman,serif" font-size="14.00">AppuntamentoModificato</text>
</g>
<!-- EsecuzioneDesk&#45;&gt;EsecuzioneDesk -->
<g id="edge26" class="edge">
<title>EsecuzioneDesk&#45;&gt;EsecuzioneDesk</title>
<path fill="none" stroke="black" d="M573.69,-1510.12C573.62,-1532.65 582.43,-1550.71 600.11,-1550.71 614.76,-1550.71 623.32,-1538.32 625.79,-1521.27"/>
<polygon fill="black" stroke="black" points="629.26,-1521.85 626.44,-1511.63 622.27,-1521.38 629.26,-1521.85"/>
<text text-anchor="middle" x="600.11" y="-1553.16" font-family="Times New Roman,serif" font-size="14.00">AppuntamentoAnnullato</text>
</g>
<!-- EsecuzioneDesk&#45;&gt;EsecuzioneDesk -->
<g id="edge27" class="edge">
<title>EsecuzioneDesk&#45;&gt;EsecuzioneDesk</title>
<path fill="none" stroke="black" d="M562.3,-1504.21C555.4,-1537.83 568.01,-1568.71 600.11,-1568.71 628.58,-1568.71 641.72,-1544.43 639.52,-1515.49"/>
<polygon fill="black" stroke="black" points="643,-1515.12 638.14,-1505.71 636.07,-1516.1 643,-1515.12"/>
<text text-anchor="middle" x="600.11" y="-1571.16" font-family="Times New Roman,serif" font-size="14.00">DatiObbligatoriMancanti</text>
</g>
<!-- EsecuzioneDesk&#45;&gt;AvvioManualeDesk -->
<g id="edge23" class="edge">
<title>EsecuzioneDesk&#45;&gt;AvvioManualeDesk</title>
<path fill="none" stroke="black" d="M668.95,-1463.92C731.75,-1482.2 828.04,-1507.93 913.53,-1521.18 1083.95,-1547.61 1285.03,-1555.27 1401.89,-1557.42"/>
<polygon fill="black" stroke="black" points="1401.71,-1560.92 1411.76,-1557.59 1401.83,-1553.92 1401.71,-1560.92"/>
<text text-anchor="middle" x="1037.95" y="-1549.63" font-family="Times New Roman,serif" font-size="14.00">DeskCompletataNuovaDesk</text>
</g>
<!-- RiassegnazioneDesk -->
<g id="node16" class="node">
<title>RiassegnazioneDesk</title>
<ellipse fill="none" stroke="black" cx="1037.95" cy="-1426.18" rx="86.49" ry="86.49"/>
<text text-anchor="middle" x="1037.95" y="-1420.76" font-family="Times New Roman,serif" font-size="14.00">RiassegnazioneDesk</text>
</g>
<!-- EsecuzioneDesk&#45;&gt;RiassegnazioneDesk -->
<g id="edge28" class="edge">
<title>EsecuzioneDesk&#45;&gt;RiassegnazioneDesk</title>
<path fill="none" stroke="black" d="M671.62,-1440.43C744.45,-1437.59 858.62,-1433.14 939.93,-1429.97"/>
<polygon fill="black" stroke="black" points="939.81,-1433.48 949.67,-1429.59 939.54,-1426.48 939.81,-1433.48"/>
<text text-anchor="middle" x="819.03" y="-1440.63" font-family="Times New Roman,serif" font-size="14.00">DeskRifiutata</text>
</g>
<!-- AvvioManualeDesk&#45;&gt;EsecuzioneDesk -->
<g id="edge5" class="edge">
<title>AvvioManualeDesk&#45;&gt;EsecuzioneDesk</title>
<path fill="none" stroke="black" d="M1413.93,-1566.39C1242.26,-1581.56 862.69,-1608.42 742.53,-1562.18 710.38,-1549.82 680.33,-1526.9 656.27,-1504.45"/>
<polygon fill="black" stroke="black" points="658.75,-1501.98 649.11,-1497.59 653.91,-1507.04 658.75,-1501.98"/>
<text text-anchor="middle" x="1037.95" y="-1590.63" font-family="Times New Roman,serif" font-size="14.00">DeskPianificata</text>
</g>
<!-- AvvioManualeVisio&#45;&gt;EsecuzioneVisio -->
<g id="edge6" class="edge">
<title>AvvioManualeVisio&#45;&gt;EsecuzioneVisio</title>
<path fill="none" stroke="black" d="M1413.2,-2004.5C1240.15,-1993.14 853.5,-1967.76 683.73,-1956.61"/>
<polygon fill="black" stroke="black" points="684.1,-1953.13 673.89,-1955.96 683.64,-1960.11 684.1,-1953.13"/>
<text text-anchor="middle" x="1037.95" y="-1990.63" font-family="Times New Roman,serif" font-size="14.00">VisioPianificata</text>
</g>
<!-- AssegnazioneSopralluogo -->
<g id="node12" class="node">
<title>AssegnazioneSopralluogo</title>
<ellipse fill="none" stroke="black" cx="600.11" cy="-1089.18" rx="106.95" ry="106.95"/>
<text text-anchor="middle" x="600.11" y="-1083.76" font-family="Times New Roman,serif" font-size="14.00">AssegnazioneSopralluogo</text>
</g>
<!-- AvvioSopralluogo&#45;&gt;AssegnazioneSopralluogo -->
<g id="edge7" class="edge">
<title>AvvioSopralluogo&#45;&gt;AssegnazioneSopralluogo</title>
<path fill="none" stroke="black" d="M277.28,-1233.7C337.76,-1206.55 423.8,-1167.91 491.71,-1137.41"/>
<polygon fill="black" stroke="black" points="492.95,-1140.7 500.64,-1133.41 490.08,-1134.31 492.95,-1140.7"/>
<text text-anchor="middle" x="388.7" y="-1217.63" font-family="Times New Roman,serif" font-size="14.00">SopralluogoAvviato</text>
</g>
<!-- PianificazioneSopralluogo -->
<g id="node17" class="node">
<title>PianificazioneSopralluogo</title>
<ellipse fill="none" stroke="black" cx="1037.95" cy="-960.18" rx="106.95" ry="106.95"/>
<text text-anchor="middle" x="1037.95" y="-954.76" font-family="Times New Roman,serif" font-size="14.00">PianificazioneSopralluogo</text>
</g>
<!-- AssegnazioneSopralluogo&#45;&gt;PianificazioneSopralluogo -->
<g id="edge30" class="edge">
<title>AssegnazioneSopralluogo&#45;&gt;PianificazioneSopralluogo</title>
<path fill="none" stroke="black" d="M703.02,-1059.02C769.29,-1039.41 855.75,-1013.82 924.09,-993.59"/>
<polygon fill="black" stroke="black" points="924.85,-997.01 933.45,-990.82 922.87,-990.3 924.85,-997.01"/>
<text text-anchor="middle" x="819.03" y="-1046.63" font-family="Times New Roman,serif" font-size="14.00">SopralluogoAssegnato</text>
</g>
<!-- AssegnazioneSopralluogoPCE -->
<g id="node14" class="node">
<title>AssegnazioneSopralluogoPCE</title>
<ellipse fill="none" stroke="black" cx="600.11" cy="-434.18" rx="124.42" ry="124.42"/>
<text text-anchor="middle" x="600.11" y="-428.76" font-family="Times New Roman,serif" font-size="14.00">AssegnazioneSopralluogoPCE</text>
</g>
<!-- AvvioSopralluogoPCE&#45;&gt;AssegnazioneSopralluogoPCE -->
<g id="edge8" class="edge">
<title>AvvioSopralluogoPCE&#45;&gt;AssegnazioneSopralluogoPCE</title>
<path fill="none" stroke="black" d="M288.25,-616.13C344.96,-582.94 420.09,-538.96 482.29,-502.56"/>
<polygon fill="black" stroke="black" points="483.99,-505.62 490.85,-497.55 480.45,-499.58 483.99,-505.62"/>
<text text-anchor="middle" x="388.7" y="-600.63" font-family="Times New Roman,serif" font-size="14.00">SopralluogoPCEAvviato</text>
</g>
<!-- PianificazioneSopralluogoPCE -->
<g id="node21" class="node">
<title>PianificazioneSopralluogoPCE</title>
<ellipse fill="none" stroke="black" cx="1037.95" cy="-322.18" rx="124.42" ry="124.42"/>
<text text-anchor="middle" x="1037.95" y="-316.76" font-family="Times New Roman,serif" font-size="14.00">PianificazioneSopralluogoPCE</text>
</g>
<!-- AssegnazioneSopralluogoPCE&#45;&gt;PianificazioneSopralluogoPCE -->
<g id="edge42" class="edge">
<title>AssegnazioneSopralluogoPCE&#45;&gt;PianificazioneSopralluogoPCE</title>
<path fill="none" stroke="black" d="M721.07,-403.36C778.48,-388.61 847.34,-370.91 906.09,-355.81"/>
<polygon fill="black" stroke="black" points="906.66,-359.28 915.47,-353.4 904.92,-352.5 906.66,-359.28"/>
<text text-anchor="middle" x="819.03" y="-397.63" font-family="Times New Roman,serif" font-size="14.00">SopralluogoPCEAssegnato</text>
</g>
<!-- RiassegnazioneVisio&#45;&gt;AvvioManualeVisio -->
<g id="edge22" class="edge">
<title>RiassegnazioneVisio&#45;&gt;AvvioManualeVisio</title>
<path fill="none" stroke="black" d="M1123.19,-2096.8C1202.52,-2078.56 1321.21,-2051.25 1404.07,-2032.19"/>
<polygon fill="black" stroke="black" points="1404.82,-2035.61 1413.78,-2029.96 1403.25,-2028.79 1404.82,-2035.61"/>
<text text-anchor="middle" x="1256.86" y="-2084.63" font-family="Times New Roman,serif" font-size="14.00">VisioAssegnata</text>
</g>
<!-- RiassegnazioneDesk&#45;&gt;AvvioManualeDesk -->
<g id="edge29" class="edge">
<title>RiassegnazioneDesk&#45;&gt;AvvioManualeDesk</title>
<path fill="none" stroke="black" d="M1121.59,-1449.86C1201.4,-1472.72 1322.12,-1507.31 1405.6,-1531.22"/>
<polygon fill="black" stroke="black" points="1404.58,-1534.57 1415.15,-1533.96 1406.5,-1527.84 1404.58,-1534.57"/>
<text text-anchor="middle" x="1256.86" y="-1510.63" font-family="Times New Roman,serif" font-size="14.00">DeskAssegnata</text>
</g>
<!-- EsecuzioneSopralluogo -->
<g id="node18" class="node">
<title>EsecuzioneSopralluogo</title>
<ellipse fill="none" stroke="black" cx="1500.73" cy="-792.18" rx="97.97" ry="97.97"/>
<text text-anchor="middle" x="1500.73" y="-786.76" font-family="Times New Roman,serif" font-size="14.00">EsecuzioneSopralluogo</text>
</g>
<!-- PianificazioneSopralluogo&#45;&gt;EsecuzioneSopralluogo -->
<g id="edge31" class="edge">
<title>PianificazioneSopralluogo&#45;&gt;EsecuzioneSopralluogo</title>
<path fill="none" stroke="black" d="M1112.62,-883.16C1132.99,-865.89 1156.19,-849.44 1180.36,-838.43 1246.38,-808.37 1327.31,-796.89 1391.18,-792.88"/>
<polygon fill="black" stroke="black" points="1391.2,-796.38 1400.99,-792.32 1390.8,-789.4 1391.2,-796.38"/>
<text text-anchor="middle" x="1256.86" y="-841.63" font-family="Times New Roman,serif" font-size="14.00">SopralluogoPianificato</text>
</g>
<!-- VerificaSopralluogoDopoRifiuto -->
<g id="node19" class="node">
<title>VerificaSopralluogoDopoRifiuto</title>
<ellipse fill="none" stroke="black" cx="1500.73" cy="-1107.18" rx="131.9" ry="131.9"/>
<text text-anchor="middle" x="1500.73" y="-1101.76" font-family="Times New Roman,serif" font-size="14.00">VerificaSopralluogoDopoRifiuto</text>
</g>
<!-- PianificazioneSopralluogo&#45;&gt;VerificaSopralluogoDopoRifiuto -->
<g id="edge32" class="edge">
<title>PianificazioneSopralluogo&#45;&gt;VerificaSopralluogoDopoRifiuto</title>
<path fill="none" stroke="black" d="M1145.09,-958.24C1202.44,-960.33 1273.55,-968.11 1333.36,-990.43 1352.19,-997.46 1370.87,-1007.14 1388.55,-1017.94"/>
<polygon fill="black" stroke="black" points="1386.65,-1020.88 1396.98,-1023.24 1390.38,-1014.95 1386.65,-1020.88"/>
<text text-anchor="middle" x="1256.86" y="-993.63" font-family="Times New Roman,serif" font-size="14.00">SopralluogoRifiutato</text>
</g>
<!-- EsecuzioneSopralluogo&#45;&gt;AvvioPerizia -->
<g id="edge33" class="edge">
<title>EsecuzioneSopralluogo&#45;&gt;AvvioPerizia</title>
<path fill="none" stroke="black" d="M1597.22,-811.74C1724.82,-840.21 1955.78,-899.96 2135.92,-992.43 2181.77,-1015.97 2228.21,-1051.25 2262.05,-1079.52"/>
<polygon fill="black" stroke="black" points="2259.76,-1082.17 2269.66,-1085.94 2264.27,-1076.82 2259.76,-1082.17"/>
<text text-anchor="middle" x="2010.01" y="-995.63" font-family="Times New Roman,serif" font-size="14.00">SoprallugoCompletato</text>
</g>
<!-- EsecuzioneSopralluogo&#45;&gt;PianificazioneSopralluogo -->
<g id="edge34" class="edge">
<title>EsecuzioneSopralluogo&#45;&gt;PianificazioneSopralluogo</title>
<path fill="none" stroke="black" d="M1420.66,-849.38C1393.97,-866.52 1363.34,-883.99 1333.36,-896.18 1276.93,-919.14 1210.9,-934.46 1155.69,-944.33"/>
<polygon fill="black" stroke="black" points="1155.18,-940.87 1145.93,-946.04 1156.38,-947.77 1155.18,-940.87"/>
<text text-anchor="middle" x="1256.86" y="-941.63" font-family="Times New Roman,serif" font-size="14.00">AppuntamentoAnnullato</text>
</g>
<!-- EsecuzioneSopralluogo&#45;&gt;PianificazioneSopralluogo -->
<g id="edge35" class="edge">
<title>EsecuzioneSopralluogo&#45;&gt;PianificazioneSopralluogo</title>
<path fill="none" stroke="black" d="M1409.75,-829.68C1385.3,-838.78 1358.59,-847.73 1333.36,-854.18 1266.79,-871.22 1245.15,-853.55 1180.36,-876.43 1165.96,-881.52 1151.41,-888.14 1137.39,-895.43"/>
<polygon fill="black" stroke="black" points="1135.78,-892.32 1128.62,-900.13 1139.08,-898.49 1135.78,-892.32"/>
<text text-anchor="middle" x="1256.86" y="-879.63" font-family="Times New Roman,serif" font-size="14.00">ChiusuraAttivita</text>
</g>
<!-- EsecuzioneSopralluogo&#45;&gt;EsecuzioneSopralluogo -->
<g id="edge36" class="edge">
<title>EsecuzioneSopralluogo&#45;&gt;EsecuzioneSopralluogo</title>
<path fill="none" stroke="black" d="M1480.95,-888.61C1484.49,-900.41 1491.08,-908.15 1500.73,-908.15 1507.21,-908.15 1512.31,-904.66 1516.04,-898.79"/>
<polygon fill="black" stroke="black" points="1519.08,-900.56 1519.9,-889.99 1512.67,-897.74 1519.08,-900.56"/>
<text text-anchor="middle" x="1500.73" y="-910.6" font-family="Times New Roman,serif" font-size="14.00">AppuntamentoModificato</text>
</g>
<!-- EsecuzioneSopralluogo&#45;&gt;EsecuzioneSopralluogo -->
<g id="edge37" class="edge">
<title>EsecuzioneSopralluogo&#45;&gt;EsecuzioneSopralluogo</title>
<path fill="none" stroke="black" d="M1455.07,-879.16C1456.22,-905.54 1471.44,-926.15 1500.73,-926.15 1525.67,-926.15 1540.41,-911.2 1544.94,-890.48"/>
<polygon fill="black" stroke="black" points="1548.4,-891.02 1546.19,-880.66 1541.46,-890.14 1548.4,-891.02"/>
<text text-anchor="middle" x="1500.73" y="-928.6" font-family="Times New Roman,serif" font-size="14.00">DatiObbligatoriMancanti</text>
</g>
<!-- ApprovazioneSopralluogo -->
<g id="node20" class="node">
<title>ApprovazioneSopralluogo</title>
<ellipse fill="none" stroke="black" cx="2010.01" cy="-1125.18" rx="108.45" ry="108.45"/>
<text text-anchor="middle" x="2010.01" y="-1119.76" font-family="Times New Roman,serif" font-size="14.00">ApprovazioneSopralluogo</text>
</g>
<!-- EsecuzioneSopralluogo&#45;&gt;ApprovazioneSopralluogo -->
<g id="edge38" class="edge">
<title>EsecuzioneSopralluogo&#45;&gt;ApprovazioneSopralluogo</title>
<path fill="none" stroke="black" d="M1569.53,-861.96C1598.45,-889.69 1633.47,-920.74 1668.09,-945.18 1741.32,-996.87 1831.22,-1043.74 1900.32,-1076.68"/>
<polygon fill="black" stroke="black" points="1898.45,-1079.67 1908.99,-1080.79 1901.45,-1073.35 1898.45,-1079.67"/>
<text text-anchor="middle" x="1767.09" y="-1062.63" font-family="Times New Roman,serif" font-size="14.00">SopralluogoCompletatoNuovo</text>
</g>
<!-- VerificaSopralluogoDopoRifiuto&#45;&gt;PianificazioneSopralluogo -->
<g id="edge39" class="edge">
<title>VerificaSopralluogoDopoRifiuto&#45;&gt;PianificazioneSopralluogo</title>
<path fill="none" stroke="black" d="M1374.52,-1067.85C1315.57,-1049.26 1244.32,-1026.7 1180.36,-1006.18 1170.79,-1003.12 1160.87,-999.92 1150.91,-996.7"/>
<polygon fill="black" stroke="black" points="1152.14,-993.42 1141.55,-993.67 1149.99,-1000.08 1152.14,-993.42"/>
<text text-anchor="middle" x="1256.86" y="-1056.63" font-family="Times New Roman,serif" font-size="14.00">SopralluogoAssegnato</text>
</g>
<!-- ApprovazioneSopralluogo&#45;&gt;AvvioPerizia -->
<g id="edge41" class="edge">
<title>ApprovazioneSopralluogo&#45;&gt;AvvioPerizia</title>
<path fill="none" stroke="black" d="M2118.83,-1125.18C2160.93,-1125.18 2207.91,-1125.18 2245.14,-1125.18"/>
<polygon fill="black" stroke="black" points="2244.86,-1128.68 2254.86,-1125.18 2244.86,-1121.68 2244.86,-1128.68"/>
<text text-anchor="middle" x="2196.3" y="-1127.63" font-family="Times New Roman,serif" font-size="14.00">NonApprovato</text>
</g>
<!-- ApprovazioneSopralluogo&#45;&gt;AvvioSopralluogo -->
<g id="edge40" class="edge">
<title>ApprovazioneSopralluogo&#45;&gt;AvvioSopralluogo</title>
<path fill="none" stroke="black" d="M1910.7,-1169.92C1810.13,-1211.54 1648.28,-1267.18 1501.73,-1267.18 599.11,-1267.18 599.11,-1267.18 599.11,-1267.18 495.27,-1267.18 376.11,-1267.18 295.79,-1267.18"/>
<polygon fill="black" stroke="black" points="296.23,-1263.68 286.23,-1267.18 296.23,-1270.68 296.23,-1263.68"/>
<text text-anchor="middle" x="1037.95" y="-1269.63" font-family="Times New Roman,serif" font-size="14.00">Approvato</text>
</g>
<!-- EsecuzioneSopralluogoPCE -->
<g id="node22" class="node">
<title>EsecuzioneSopralluogoPCE</title>
<ellipse fill="none" stroke="black" cx="1500.73" cy="-139.18" rx="115.43" ry="115.43"/>
<text text-anchor="middle" x="1500.73" y="-133.76" font-family="Times New Roman,serif" font-size="14.00">EsecuzioneSopralluogoPCE</text>
</g>
<!-- PianificazioneSopralluogoPCE&#45;&gt;EsecuzioneSopralluogoPCE -->
<g id="edge43" class="edge">
<title>PianificazioneSopralluogoPCE&#45;&gt;EsecuzioneSopralluogoPCE</title>
<path fill="none" stroke="black" d="M1124.28,-232.41C1141.63,-218.18 1160.64,-205.02 1180.36,-195.43 1240.18,-166.35 1312.81,-152.13 1373.68,-145.25"/>
<polygon fill="black" stroke="black" points="1373.83,-148.75 1383.4,-144.21 1373.08,-141.79 1373.83,-148.75"/>
<text text-anchor="middle" x="1256.86" y="-198.63" font-family="Times New Roman,serif" font-size="14.00">SopralluogoPCEPianificato</text>
</g>
<!-- VerificaSopralluogoPCEDopoRifiuto -->
<g id="node23" class="node">
<title>VerificaSopralluogoPCEDopoRifiuto</title>
<ellipse fill="none" stroke="black" cx="1500.73" cy="-489.18" rx="149.37" ry="149.37"/>
<text text-anchor="middle" x="1500.73" y="-483.76" font-family="Times New Roman,serif" font-size="14.00">VerificaSopralluogoPCEDopoRifiuto</text>
</g>
<!-- PianificazioneSopralluogoPCE&#45;&gt;VerificaSopralluogoPCEDopoRifiuto -->
<g id="edge44" class="edge">
<title>PianificazioneSopralluogoPCE&#45;&gt;VerificaSopralluogoPCEDopoRifiuto</title>
<path fill="none" stroke="black" d="M1162.79,-320.26C1216.93,-323.29 1280.09,-332.23 1333.36,-354.43 1350.14,-361.43 1366.58,-370.67 1382.19,-381.04"/>
<polygon fill="black" stroke="black" points="1379.81,-383.65 1390.04,-386.41 1383.77,-377.87 1379.81,-383.65"/>
<text text-anchor="middle" x="1256.86" y="-357.63" font-family="Times New Roman,serif" font-size="14.00">SopralluogoPCERifiutato</text>
</g>
<!-- EsecuzioneSopralluogoPCE&#45;&gt;AvvioPerizia -->
<g id="edge45" class="edge">
<title>EsecuzioneSopralluogoPCE&#45;&gt;AvvioPerizia</title>
<path fill="none" stroke="black" d="M1610.48,-175.77C1751.73,-228.76 1996.68,-340.13 2135.92,-515.43 2265.78,-678.93 2300.54,-934.24 2309.83,-1056.03"/>
<polygon fill="black" stroke="black" points="2306.33,-1056.16 2310.55,-1065.88 2313.31,-1055.66 2306.33,-1056.16"/>
<text text-anchor="middle" x="2010.01" y="-518.63" font-family="Times New Roman,serif" font-size="14.00">SoprallugoCompletato</text>
</g>
<!-- EsecuzioneSopralluogoPCE&#45;&gt;PianificazioneSopralluogoPCE -->
<g id="edge46" class="edge">
<title>EsecuzioneSopralluogoPCE&#45;&gt;PianificazioneSopralluogoPCE</title>
<path fill="none" stroke="black" d="M1409.16,-210.12C1385.49,-226.12 1359.31,-241.74 1333.36,-253.18 1282.91,-275.44 1224.29,-291.05 1172.7,-301.72"/>
<polygon fill="black" stroke="black" points="1172.06,-298.28 1162.95,-303.69 1173.44,-305.14 1172.06,-298.28"/>
<text text-anchor="middle" x="1256.86" y="-302.63" font-family="Times New Roman,serif" font-size="14.00">AppuntamentoAnnullato</text>
</g>
<!-- EsecuzioneSopralluogoPCE&#45;&gt;PianificazioneSopralluogoPCE -->
<g id="edge47" class="edge">
<title>EsecuzioneSopralluogoPCE&#45;&gt;PianificazioneSopralluogoPCE</title>
<path fill="none" stroke="black" d="M1396.1,-189.01C1375.65,-197.41 1354.1,-205.3 1333.36,-211.18 1267.26,-229.94 1244.85,-209.72 1180.36,-233.43 1170.47,-237.07 1160.53,-241.47 1150.76,-246.33"/>
<polygon fill="black" stroke="black" points="1149.28,-243.16 1142,-250.87 1152.49,-249.38 1149.28,-243.16"/>
<text text-anchor="middle" x="1256.86" y="-236.63" font-family="Times New Roman,serif" font-size="14.00">ChiusuraAttivita</text>
</g>
<!-- EsecuzioneSopralluogoPCE&#45;&gt;EsecuzioneSopralluogoPCE -->
<g id="edge48" class="edge">
<title>EsecuzioneSopralluogoPCE&#45;&gt;EsecuzioneSopralluogoPCE</title>
<path fill="none" stroke="black" d="M1481.93,-253.54C1485.65,-265.19 1491.92,-272.62 1500.73,-272.62 1506.51,-272.62 1511.2,-269.42 1514.78,-263.93"/>
<polygon fill="black" stroke="black" points="1517.93,-265.47 1518.89,-254.92 1511.56,-262.57 1517.93,-265.47"/>
<text text-anchor="middle" x="1500.73" y="-275.07" font-family="Times New Roman,serif" font-size="14.00">AppuntamentoModificato</text>
</g>
<!-- EsecuzioneSopralluogoPCE&#45;&gt;EsecuzioneSopralluogoPCE -->
<g id="edge49" class="edge">
<title>EsecuzioneSopralluogoPCE&#45;&gt;EsecuzioneSopralluogoPCE</title>
<path fill="none" stroke="black" d="M1455.81,-246.02C1459.32,-271.64 1474.29,-290.62 1500.73,-290.62 1523.14,-290.62 1537.31,-276.98 1543.24,-257.22"/>
<polygon fill="black" stroke="black" points="1546.65,-258.01 1545.33,-247.5 1539.81,-256.55 1546.65,-258.01"/>
<text text-anchor="middle" x="1500.73" y="-293.07" font-family="Times New Roman,serif" font-size="14.00">DatiObbligatoriMancanti</text>
</g>
<!-- ApprovazioneSopralluogoPCE -->
<g id="node24" class="node">
<title>ApprovazioneSopralluogoPCE</title>
<ellipse fill="none" stroke="black" cx="2010.01" cy="-666.18" rx="125.91" ry="125.91"/>
<text text-anchor="middle" x="2010.01" y="-660.76" font-family="Times New Roman,serif" font-size="14.00">ApprovazioneSopralluogoPCE</text>
</g>
<!-- EsecuzioneSopralluogoPCE&#45;&gt;ApprovazioneSopralluogoPCE -->
<g id="edge50" class="edge">
<title>EsecuzioneSopralluogoPCE&#45;&gt;ApprovazioneSopralluogoPCE</title>
<path fill="none" stroke="black" d="M1573.51,-228.61C1602.16,-263.22 1635.93,-302.72 1668.09,-337.18 1745.62,-420.24 1838.74,-509.46 1908.06,-574"/>
<polygon fill="black" stroke="black" points="1905.57,-576.47 1915.28,-580.72 1910.34,-571.34 1905.57,-576.47"/>
<text text-anchor="middle" x="1767.09" y="-530.63" font-family="Times New Roman,serif" font-size="14.00">SopralluogoPCECompletatoNuovo</text>
</g>
<!-- VerificaSopralluogoPCEDopoRifiuto&#45;&gt;PianificazioneSopralluogoPCE -->
<g id="edge51" class="edge">
<title>VerificaSopralluogoPCEDopoRifiuto&#45;&gt;PianificazioneSopralluogoPCE</title>
<path fill="none" stroke="black" d="M1360.08,-438.57C1298.31,-416.18 1226.17,-390.04 1165.94,-368.21"/>
<polygon fill="black" stroke="black" points="1167.24,-364.96 1156.64,-364.84 1164.85,-371.54 1167.24,-364.96"/>
<text text-anchor="middle" x="1256.86" y="-428.63" font-family="Times New Roman,serif" font-size="14.00">SopralluogoPCEAssegnato</text>
</g>
<!-- ApprovazioneSopralluogoPCE&#45;&gt;AvvioPerizia -->
<g id="edge53" class="edge">
<title>ApprovazioneSopralluogoPCE&#45;&gt;AvvioPerizia</title>
<path fill="none" stroke="black" d="M2106.97,-746.78C2152.15,-788.94 2203.66,-843.73 2238.67,-901.43 2268.1,-949.94 2287.51,-1011.5 2299.13,-1057.76"/>
<polygon fill="black" stroke="black" points="2295.71,-1058.52 2301.49,-1067.41 2302.51,-1056.86 2295.71,-1058.52"/>
<text text-anchor="middle" x="2196.3" y="-904.63" font-family="Times New Roman,serif" font-size="14.00">NonApprovato</text>
</g>
<!-- ApprovazioneSopralluogoPCE&#45;&gt;AvvioSopralluogoPCE -->
<g id="edge52" class="edge">
<title>ApprovazioneSopralluogoPCE&#45;&gt;AvvioSopralluogoPCE</title>
<path fill="none" stroke="black" d="M1883.66,-666.18C1781,-666.18 1631.96,-666.18 1501.73,-666.18 599.11,-666.18 599.11,-666.18 599.11,-666.18 502.69,-666.18 393.08,-666.18 313.6,-666.18"/>
<polygon fill="black" stroke="black" points="313.61,-662.68 303.61,-666.18 313.61,-669.68 313.61,-662.68"/>
<text text-anchor="middle" x="1037.95" y="-668.63" font-family="Times New Roman,serif" font-size="14.00">Approvato</text>
</g>
</g>
</svg>
