<?xml version="1.0" encoding="UTF-8" standalone="no"?>
<!DOCTYPE svg PUBLIC "-//W3C//DTD SVG 1.1//EN"
 "http://www.w3.org/Graphics/SVG/1.1/DTD/svg11.dtd">
<!-- Generated by graphviz version 9.0.0 (20230911.1827)
 -->
<!-- Title: finite_state_machine Pages: 1 -->
<svg width="576pt" height="322pt"
 viewBox="0.00 0.00 576.00 322.32" xmlns="http://www.w3.org/2000/svg" xmlns:xlink="http://www.w3.org/1999/xlink">
<g id="graph0" class="graph" transform="scale(0.186663 0.186663) rotate(0) translate(4 1722.77)">
<title>finite_state_machine</title>
<polygon fill="white" stroke="none" points="-4,4 -4,-1722.77 3081.77,-1722.77 3081.77,4 -4,4"/>
<text text-anchor="middle" x="1538.89" y="-6.45" font-family="Times New Roman,serif" font-size="14.00">Assessment</text>
<!-- Apertura -->
<g id="node1" class="node">
<title>Apertura</title>
<polygon fill="lightgrey" stroke="black" points="918.4,-1718.77 853.65,-1718.77 853.65,-1682.77 918.4,-1682.77 918.4,-1718.77"/>
<text text-anchor="middle" x="886.02" y="-1695.35" font-family="Times New Roman,serif" font-size="14.00">Apertura</text>
</g>
<!-- AvvioVisio -->
<g id="node4" class="node">
<title>AvvioVisio</title>
<ellipse fill="none" stroke="black" cx="549.02" cy="-1545.8" rx="52.56" ry="52.56"/>
<ellipse fill="none" stroke="black" cx="549.02" cy="-1545.8" rx="56.56" ry="56.56"/>
<text text-anchor="middle" x="549.02" y="-1540.37" font-family="Times New Roman,serif" font-size="14.00">AvvioVisio</text>
</g>
<!-- Apertura&#45;&gt;AvvioVisio -->
<g id="edge9" class="edge">
<title>Apertura&#45;&gt;AvvioVisio</title>
<path fill="none" stroke="black" d="M853.56,-1698.65C792.88,-1696.03 665.03,-1687.86 628.02,-1664.77 606.45,-1651.31 589.43,-1629.54 576.8,-1608.35"/>
<polygon fill="black" stroke="black" points="579.86,-1606.64 571.88,-1599.67 573.77,-1610.1 579.86,-1606.64"/>
</g>
<!-- AvvioAccertSelfCare -->
<g id="node6" class="node">
<title>AvvioAccertSelfCare</title>
<ellipse fill="none" stroke="black" cx="764.02" cy="-1545.8" rx="89.99" ry="89.99"/>
<ellipse fill="none" stroke="black" cx="764.02" cy="-1545.8" rx="93.99" ry="93.99"/>
<text text-anchor="middle" x="764.02" y="-1540.37" font-family="Times New Roman,serif" font-size="14.00">AvvioAccertSelfCare</text>
</g>
<!-- Apertura&#45;&gt;AvvioAccertSelfCare -->
<g id="edge10" class="edge">
<title>Apertura&#45;&gt;AvvioAccertSelfCare</title>
<path fill="none" stroke="black" d="M872.26,-1682.52C861.47,-1668.98 845.58,-1649.07 829.29,-1628.64"/>
<polygon fill="black" stroke="black" points="832.21,-1626.69 823.24,-1621.05 826.74,-1631.05 832.21,-1626.69"/>
</g>
<!-- AvvioDesk -->
<g id="node7" class="node">
<title>AvvioDesk</title>
<ellipse fill="none" stroke="black" cx="1089.02" cy="-1545.8" rx="52.06" ry="52.06"/>
<ellipse fill="none" stroke="black" cx="1089.02" cy="-1545.8" rx="56.06" ry="56.06"/>
<text text-anchor="middle" x="1089.02" y="-1540.37" font-family="Times New Roman,serif" font-size="14.00">AvvioDesk</text>
</g>
<!-- Apertura&#45;&gt;AvvioDesk -->
<g id="edge11" class="edge">
<title>Apertura&#45;&gt;AvvioDesk</title>
<path fill="none" stroke="black" d="M908.91,-1682.52C939.38,-1659.57 994.18,-1618.27 1035.36,-1587.24"/>
<polygon fill="black" stroke="black" points="1037.36,-1590.11 1043.24,-1581.3 1033.15,-1584.52 1037.36,-1590.11"/>
</g>
<!-- AvvioManualeDesk -->
<g id="node9" class="node">
<title>AvvioManualeDesk</title>
<ellipse fill="none" stroke="black" cx="1123.02" cy="-643.54" rx="83" ry="83"/>
<ellipse fill="none" stroke="black" cx="1123.02" cy="-643.54" rx="87" ry="87"/>
<text text-anchor="middle" x="1123.02" y="-638.12" font-family="Times New Roman,serif" font-size="14.00">AvvioManualeDesk</text>
</g>
<!-- Apertura&#45;&gt;AvvioManualeDesk -->
<g id="edge12" class="edge">
<title>Apertura&#45;&gt;AvvioManualeDesk</title>
<path fill="none" stroke="black" d="M886.02,-1682.34C886.02,-1653.94 886.02,-1595.93 886.02,-1546.8 886.02,-1546.8 886.02,-1546.8 886.02,-1118.37 886.02,-996.43 852.12,-954.53 905.02,-844.66 921.29,-810.88 989.86,-750.58 1045.81,-704.97"/>
<polygon fill="black" stroke="black" points="1047.93,-707.76 1053.49,-698.74 1043.52,-702.32 1047.93,-707.76"/>
</g>
<!-- AvvioManualeVisio -->
<g id="node10" class="node">
<title>AvvioManualeVisio</title>
<ellipse fill="none" stroke="black" cx="307.02" cy="-643.54" rx="83.5" ry="83.5"/>
<ellipse fill="none" stroke="black" cx="307.02" cy="-643.54" rx="87.5" ry="87.5"/>
<text text-anchor="middle" x="307.02" y="-638.12" font-family="Times New Roman,serif" font-size="14.00">AvvioManualeVisio</text>
</g>
<!-- Apertura&#45;&gt;AvvioManualeVisio -->
<g id="edge13" class="edge">
<title>Apertura&#45;&gt;AvvioManualeVisio</title>
<path fill="none" stroke="black" d="M853.24,-1696.25C797.38,-1689.57 687.24,-1673.22 661.02,-1645.77 630.08,-1613.38 642.02,-1591.59 642.02,-1546.8 642.02,-1546.8 642.02,-1546.8 642.02,-968.08 642.02,-831.67 496.53,-734.54 397.31,-684.16"/>
<polygon fill="black" stroke="black" points="399.13,-681.16 388.62,-679.82 396,-687.42 399.13,-681.16"/>
</g>
<!-- AvvioSopralluogo -->
<g id="node11" class="node">
<title>AvvioSopralluogo</title>
<ellipse fill="none" stroke="black" cx="1860.02" cy="-1545.8" rx="78.51" ry="78.51"/>
<ellipse fill="none" stroke="black" cx="1860.02" cy="-1545.8" rx="82.51" ry="82.51"/>
<text text-anchor="middle" x="1860.02" y="-1540.37" font-family="Times New Roman,serif" font-size="14.00">AvvioSopralluogo</text>
</g>
<!-- Apertura&#45;&gt;AvvioSopralluogo -->
<g id="edge14" class="edge">
<title>Apertura&#45;&gt;AvvioSopralluogo</title>
<path fill="none" stroke="black" d="M918.71,-1694.64C1051.88,-1673.72 1556.46,-1594.47 1766.94,-1561.42"/>
<polygon fill="black" stroke="black" points="1767.42,-1564.88 1776.76,-1559.88 1766.34,-1557.97 1767.42,-1564.88"/>
</g>
<!-- AvvioSopralluogoPCE -->
<g id="node13" class="node">
<title>AvvioSopralluogoPCE</title>
<ellipse fill="none" stroke="black" cx="2472.02" cy="-1545.8" rx="95.97" ry="95.97"/>
<ellipse fill="none" stroke="black" cx="2472.02" cy="-1545.8" rx="99.97" ry="99.97"/>
<text text-anchor="middle" x="2472.02" y="-1540.37" font-family="Times New Roman,serif" font-size="14.00">AvvioSopralluogoPCE</text>
</g>
<!-- Apertura&#45;&gt;AvvioSopralluogoPCE -->
<g id="edge15" class="edge">
<title>Apertura&#45;&gt;AvvioSopralluogoPCE</title>
<path fill="none" stroke="black" d="M918.87,-1699.75C1049.78,-1699.32 1546.79,-1694.37 1952.02,-1645.77 2095.3,-1628.59 2258.46,-1595.25 2363.2,-1572.04"/>
<polygon fill="black" stroke="black" points="2363.93,-1575.46 2372.93,-1569.87 2362.41,-1568.62 2363.93,-1575.46"/>
</g>
<!-- Chiusura -->
<g id="node2" class="node">
<title>Chiusura</title>
<ellipse fill="lightgrey" stroke="black" cx="714.02" cy="-1269.66" rx="43.58" ry="43.58"/>
<text text-anchor="middle" x="714.02" y="-1264.23" font-family="Times New Roman,serif" font-size="14.00">Chiusura</text>
</g>
<!-- AvvioPerizia -->
<g id="node3" class="node">
<title>AvvioPerizia</title>
<ellipse fill="lightgrey" stroke="black" cx="1726.02" cy="-81.3" rx="57.55" ry="57.55"/>
<text text-anchor="middle" x="1726.02" y="-75.88" font-family="Times New Roman,serif" font-size="14.00">AvvioPerizia</text>
</g>
<!-- EsecuzioneVisio -->
<g id="node5" class="node">
<title>EsecuzioneVisio</title>
<ellipse fill="none" stroke="black" cx="72.02" cy="-1269.66" rx="72.02" ry="72.02"/>
<text text-anchor="middle" x="72.02" y="-1264.23" font-family="Times New Roman,serif" font-size="14.00">EsecuzioneVisio</text>
</g>
<!-- AvvioVisio&#45;&gt;EsecuzioneVisio -->
<g id="edge1" class="edge">
<title>AvvioVisio&#45;&gt;EsecuzioneVisio</title>
<path fill="none" stroke="black" d="M500.22,-1516.75C415.85,-1468.26 242.38,-1368.56 144.09,-1312.08"/>
<polygon fill="black" stroke="black" points="145.96,-1309.12 135.55,-1307.17 142.48,-1315.19 145.96,-1309.12"/>
<text text-anchor="middle" x="383.15" y="-1414.53" font-family="Times New Roman,serif" font-size="14.00">VisioPianificata</text>
</g>
<!-- EsecuzioneVisio&#45;&gt;AvvioPerizia -->
<g id="edge17" class="edge">
<title>EsecuzioneVisio&#45;&gt;AvvioPerizia</title>
<path fill="none" stroke="black" d="M63.49,-1197.89C56.94,-1137.47 49.02,-1048.19 49.02,-970.08 49.02,-970.08 49.02,-970.08 49.02,-315.51 49.02,-150.37 1341.28,-95.45 1657.04,-84.5"/>
<polygon fill="black" stroke="black" points="1656.91,-88.01 1666.78,-84.16 1656.67,-81.01 1656.91,-88.01"/>
<text text-anchor="middle" x="95.52" y="-638.12" font-family="Times New Roman,serif" font-size="14.00">VisioCompletata</text>
</g>
<!-- EsecuzioneVisio&#45;&gt;EsecuzioneVisio -->
<g id="edge18" class="edge">
<title>EsecuzioneVisio&#45;&gt;EsecuzioneVisio</title>
<path fill="none" stroke="black" d="M143.7,-1278.22C154.63,-1276.92 162.04,-1274.06 162.04,-1269.66 162.04,-1266.98 159.29,-1264.87 154.67,-1263.33"/>
<polygon fill="black" stroke="black" points="155.68,-1259.97 145.19,-1261.4 154.28,-1266.83 155.68,-1259.97"/>
<text text-anchor="middle" x="234.04" y="-1264.23" font-family="Times New Roman,serif" font-size="14.00">AppuntamentoModificato</text>
</g>
<!-- EsecuzioneVisio&#45;&gt;EsecuzioneVisio -->
<g id="edge19" class="edge">
<title>EsecuzioneVisio&#45;&gt;EsecuzioneVisio</title>
<path fill="none" stroke="black" d="M142.55,-1285.83C212.72,-1292.25 306.04,-1286.86 306.04,-1269.66 306.04,-1253.37 222.3,-1247.67 153.83,-1252.57"/>
<polygon fill="black" stroke="black" points="153.75,-1249.07 144.06,-1253.36 154.31,-1256.04 153.75,-1249.07"/>
<text text-anchor="middle" x="373.92" y="-1264.23" font-family="Times New Roman,serif" font-size="14.00">AppuntamentoAnnullato</text>
</g>
<!-- EsecuzioneVisio&#45;&gt;EsecuzioneVisio -->
<g id="edge20" class="edge">
<title>EsecuzioneVisio&#45;&gt;EsecuzioneVisio</title>
<path fill="none" stroke="black" d="M141.59,-1290C250.64,-1305.13 441.79,-1298.35 441.79,-1269.66 441.79,-1241.92 263.13,-1234.66 152.71,-1247.88"/>
<polygon fill="black" stroke="black" points="152.56,-1244.37 143.09,-1249.12 153.45,-1251.31 152.56,-1244.37"/>
<text text-anchor="middle" x="510.04" y="-1264.23" font-family="Times New Roman,serif" font-size="14.00">DatiObbligatoriMancanti</text>
</g>
<!-- EsecuzioneVisio&#45;&gt;AvvioManualeVisio -->
<g id="edge16" class="edge">
<title>EsecuzioneVisio&#45;&gt;AvvioManualeVisio</title>
<path fill="none" stroke="black" d="M119.76,-1215.5C146.43,-1182.69 177.71,-1138.39 195.02,-1093.49 235.12,-989.51 197.99,-952.52 226.02,-844.66 235.76,-807.18 250.83,-767.36 265.34,-733.2"/>
<polygon fill="black" stroke="black" points="268.49,-734.74 269.23,-724.17 262.06,-731.98 268.49,-734.74"/>
<text text-anchor="middle" x="305.52" y="-963.65" font-family="Times New Roman,serif" font-size="14.00">VisioCompletataNuovaVisio</text>
</g>
<!-- RiassegnazioneVisio -->
<g id="node15" class="node">
<title>RiassegnazioneVisio</title>
<ellipse fill="none" stroke="black" cx="481.02" cy="-969.08" rx="86.99" ry="86.99"/>
<text text-anchor="middle" x="481.02" y="-963.65" font-family="Times New Roman,serif" font-size="14.00">RiassegnazioneVisio</text>
</g>
<!-- EsecuzioneVisio&#45;&gt;RiassegnazioneVisio -->
<g id="edge21" class="edge">
<title>EsecuzioneVisio&#45;&gt;RiassegnazioneVisio</title>
<path fill="none" stroke="black" d="M138.05,-1239.87C203.62,-1209.37 304.93,-1156.88 380.02,-1093.49 395.46,-1080.46 410.31,-1064.83 423.64,-1049.13"/>
<polygon fill="black" stroke="black" points="426.22,-1051.52 429.92,-1041.59 420.84,-1047.04 426.22,-1051.52"/>
<text text-anchor="middle" x="387.9" y="-1113.94" font-family="Times New Roman,serif" font-size="14.00">VisioRifiutata</text>
</g>
<!-- AvvioAccertSelfCare&#45;&gt;Chiusura -->
<g id="edge3" class="edge">
<title>AvvioAccertSelfCare&#45;&gt;Chiusura</title>
<path fill="none" stroke="black" d="M711.79,-1467.36C705.4,-1454.62 699.86,-1441.2 696.27,-1427.83 687.04,-1393.46 691.7,-1353.62 698.56,-1322.64"/>
<polygon fill="black" stroke="black" points="701.91,-1323.67 700.81,-1313.13 695.1,-1322.06 701.91,-1323.67"/>
<text text-anchor="middle" x="751.4" y="-1414.53" font-family="Times New Roman,serif" font-size="14.00">SelfCareInChiusura</text>
</g>
<!-- AvvioAccertSelfCare&#45;&gt;AvvioPerizia -->
<g id="edge2" class="edge">
<title>AvvioAccertSelfCare&#45;&gt;AvvioPerizia</title>
<path fill="none" stroke="black" d="M797.21,-1457.65C800.21,-1447.69 802.91,-1437.61 805.02,-1427.83 819.85,-1359.28 819.02,-1340.79 819.02,-1270.66 819.02,-1270.66 819.02,-1270.66 819.02,-315.51 819.02,-142.59 1445.22,-96.02 1656.99,-85.22"/>
<polygon fill="black" stroke="black" points="1656.93,-88.73 1666.74,-84.73 1656.58,-81.73 1656.93,-88.73"/>
<text text-anchor="middle" x="867.02" y="-813.36" font-family="Times New Roman,serif" font-size="14.00">SelfCareInPerizia</text>
</g>
<!-- EsecuzioneDesk -->
<g id="node8" class="node">
<title>EsecuzioneDesk</title>
<ellipse fill="none" stroke="black" cx="1193.02" cy="-1269.66" rx="71.52" ry="71.52"/>
<text text-anchor="middle" x="1193.02" y="-1264.23" font-family="Times New Roman,serif" font-size="14.00">EsecuzioneDesk</text>
</g>
<!-- AvvioDesk&#45;&gt;EsecuzioneDesk -->
<g id="edge4" class="edge">
<title>AvvioDesk&#45;&gt;EsecuzioneDesk</title>
<path fill="none" stroke="black" d="M1108.71,-1492.91C1124.28,-1451.87 1146.25,-1393.95 1163.86,-1347.52"/>
<polygon fill="black" stroke="black" points="1167.08,-1348.9 1167.36,-1338.31 1160.54,-1346.42 1167.08,-1348.9"/>
<text text-anchor="middle" x="1179.77" y="-1414.53" font-family="Times New Roman,serif" font-size="14.00">DeskPianificata</text>
</g>
<!-- EsecuzioneDesk&#45;&gt;EsecuzioneDesk -->
<g id="edge24" class="edge">
<title>EsecuzioneDesk&#45;&gt;EsecuzioneDesk</title>
<path fill="none" stroke="black" d="M1264.31,-1278.22C1275.17,-1276.92 1282.54,-1274.06 1282.54,-1269.66 1282.54,-1267.04 1279.94,-1264.98 1275.56,-1263.45"/>
<polygon fill="black" stroke="black" points="1276.29,-1260.03 1265.79,-1261.4 1274.86,-1266.88 1276.29,-1260.03"/>
<text text-anchor="middle" x="1354.54" y="-1264.23" font-family="Times New Roman,serif" font-size="14.00">AppuntamentoModificato</text>
</g>
<!-- EsecuzioneDesk&#45;&gt;EsecuzioneDesk -->
<g id="edge25" class="edge">
<title>EsecuzioneDesk&#45;&gt;EsecuzioneDesk</title>
<path fill="none" stroke="black" d="M1263.07,-1285.8C1333.11,-1292.26 1426.54,-1286.88 1426.54,-1269.66 1426.54,-1253.35 1342.7,-1247.66 1274.32,-1252.59"/>
<polygon fill="black" stroke="black" points="1274.25,-1249.09 1264.57,-1253.39 1274.83,-1256.06 1274.25,-1249.09"/>
<text text-anchor="middle" x="1494.42" y="-1264.23" font-family="Times New Roman,serif" font-size="14.00">AppuntamentoAnnullato</text>
</g>
<!-- EsecuzioneDesk&#45;&gt;EsecuzioneDesk -->
<g id="edge26" class="edge">
<title>EsecuzioneDesk&#45;&gt;EsecuzioneDesk</title>
<path fill="none" stroke="black" d="M1262.03,-1289.94C1370.85,-1305.15 1562.29,-1298.39 1562.29,-1269.66 1562.29,-1241.88 1383.35,-1234.64 1273.13,-1247.93"/>
<polygon fill="black" stroke="black" points="1273,-1244.42 1263.53,-1249.18 1273.9,-1251.36 1273,-1244.42"/>
<text text-anchor="middle" x="1630.54" y="-1264.23" font-family="Times New Roman,serif" font-size="14.00">DatiObbligatoriMancanti</text>
</g>
<!-- EsecuzioneDesk&#45;&gt;AvvioManualeDesk -->
<g id="edge23" class="edge">
<title>EsecuzioneDesk&#45;&gt;AvvioManualeDesk</title>
<path fill="none" stroke="black" d="M1257.2,-1237.43C1309.13,-1208.22 1378.6,-1159.24 1410.02,-1093.49 1457.71,-993.71 1474.22,-934.71 1410.02,-844.66 1399.79,-830.3 1274.78,-802.55 1260.02,-792.91 1231.15,-774.05 1204.23,-747.77 1182.04,-722.56"/>
<polygon fill="black" stroke="black" points="1184.87,-720.49 1175.68,-715.21 1179.57,-725.07 1184.87,-720.49"/>
<text text-anchor="middle" x="1530.77" y="-963.65" font-family="Times New Roman,serif" font-size="14.00">DeskCompletataNuovaDesk</text>
</g>
<!-- RiassegnazioneDesk -->
<g id="node16" class="node">
<title>RiassegnazioneDesk</title>
<ellipse fill="none" stroke="black" cx="1000.02" cy="-969.08" rx="86.49" ry="86.49"/>
<text text-anchor="middle" x="1000.02" y="-963.65" font-family="Times New Roman,serif" font-size="14.00">RiassegnazioneDesk</text>
</g>
<!-- EsecuzioneDesk&#45;&gt;RiassegnazioneDesk -->
<g id="edge27" class="edge">
<title>EsecuzioneDesk&#45;&gt;RiassegnazioneDesk</title>
<path fill="none" stroke="black" d="M1154.43,-1208.95C1125.29,-1163.87 1084.96,-1101.48 1052.83,-1051.77"/>
<polygon fill="black" stroke="black" points="1055.91,-1050.1 1047.55,-1043.6 1050.04,-1053.9 1055.91,-1050.1"/>
<text text-anchor="middle" x="1134.52" y="-1113.94" font-family="Times New Roman,serif" font-size="14.00">DeskRifiutata</text>
</g>
<!-- AvvioPeriziaPostDesk -->
<g id="node17" class="node">
<title>AvvioPeriziaPostDesk</title>
<ellipse fill="none" stroke="black" cx="1198.02" cy="-969.08" rx="93.48" ry="93.48"/>
<text text-anchor="middle" x="1198.02" y="-963.65" font-family="Times New Roman,serif" font-size="14.00">AvvioPeriziaPostDesk</text>
</g>
<!-- EsecuzioneDesk&#45;&gt;AvvioPeriziaPostDesk -->
<g id="edge28" class="edge">
<title>EsecuzioneDesk&#45;&gt;AvvioPeriziaPostDesk</title>
<path fill="none" stroke="black" d="M1194.21,-1197.9C1194.82,-1161.01 1195.59,-1115.19 1196.28,-1074.33"/>
<polygon fill="black" stroke="black" points="1199.77,-1074.52 1196.44,-1064.46 1192.77,-1074.4 1199.77,-1074.52"/>
<text text-anchor="middle" x="1241.15" y="-1113.94" font-family="Times New Roman,serif" font-size="14.00">DeskCompletata</text>
</g>
<!-- AvvioManualeDesk&#45;&gt;EsecuzioneDesk -->
<g id="edge5" class="edge">
<title>AvvioManualeDesk&#45;&gt;EsecuzioneDesk</title>
<path fill="none" stroke="black" d="M1181.48,-708.42C1231.79,-763.74 1296.82,-836.2 1300.02,-844.66 1323.13,-905.65 1334.76,-1032.7 1291.02,-1127.24 1278.62,-1154.05 1261.18,-1181.24 1244.44,-1204.53"/>
<polygon fill="black" stroke="black" points="1241.79,-1202.22 1238.72,-1212.36 1247.45,-1206.35 1241.79,-1202.22"/>
<text text-anchor="middle" x="1362.77" y="-963.65" font-family="Times New Roman,serif" font-size="14.00">DeskPianificata</text>
</g>
<!-- AvvioManualeVisio&#45;&gt;EsecuzioneVisio -->
<g id="edge6" class="edge">
<title>AvvioManualeVisio&#45;&gt;EsecuzioneVisio</title>
<path fill="none" stroke="black" d="M241.38,-701.71C189.81,-748.18 124.21,-811.32 108.77,-844.66 81.59,-903.37 74.4,-1080.16 72.57,-1186.01"/>
<polygon fill="black" stroke="black" points="69.07,-1185.73 72.41,-1195.78 76.07,-1185.84 69.07,-1185.73"/>
<text text-anchor="middle" x="152.15" y="-963.65" font-family="Times New Roman,serif" font-size="14.00">VisioPianificata</text>
</g>
<!-- AssegnazioneSopralluogo -->
<g id="node12" class="node">
<title>AssegnazioneSopralluogo</title>
<ellipse fill="none" stroke="black" cx="1860.02" cy="-1269.66" rx="106.95" ry="106.95"/>
<text text-anchor="middle" x="1860.02" y="-1264.23" font-family="Times New Roman,serif" font-size="14.00">AssegnazioneSopralluogo</text>
</g>
<!-- AvvioSopralluogo&#45;&gt;AssegnazioneSopralluogo -->
<g id="edge7" class="edge">
<title>AvvioSopralluogo&#45;&gt;AssegnazioneSopralluogo</title>
<path fill="none" stroke="black" d="M1860.02,-1462.92C1860.02,-1439.52 1860.02,-1413.55 1860.02,-1388.46"/>
<polygon fill="black" stroke="black" points="1863.52,-1388.52 1860.02,-1378.52 1856.52,-1388.52 1863.52,-1388.52"/>
<text text-anchor="middle" x="1915.9" y="-1414.53" font-family="Times New Roman,serif" font-size="14.00">SopralluogoAvviato</text>
</g>
<!-- PianificazioneSopralluogo -->
<g id="node18" class="node">
<title>PianificazioneSopralluogo</title>
<ellipse fill="none" stroke="black" cx="1783.02" cy="-969.08" rx="106.95" ry="106.95"/>
<text text-anchor="middle" x="1783.02" y="-963.65" font-family="Times New Roman,serif" font-size="14.00">PianificazioneSopralluogo</text>
</g>
<!-- AssegnazioneSopralluogo&#45;&gt;PianificazioneSopralluogo -->
<g id="edge30" class="edge">
<title>AssegnazioneSopralluogo&#45;&gt;PianificazioneSopralluogo</title>
<path fill="none" stroke="black" d="M1833.52,-1165.9C1826.72,-1139.51 1819.36,-1110.97 1812.41,-1084.05"/>
<polygon fill="black" stroke="black" points="1815.83,-1083.3 1809.95,-1074.49 1809.06,-1085.04 1815.83,-1083.3"/>
<text text-anchor="middle" x="1884.4" y="-1113.94" font-family="Times New Roman,serif" font-size="14.00">SopralluogoAssegnato</text>
</g>
<!-- AssegnazioneSopralluogoPCE -->
<g id="node14" class="node">
<title>AssegnazioneSopralluogoPCE</title>
<ellipse fill="none" stroke="black" cx="2472.02" cy="-1269.66" rx="124.42" ry="124.42"/>
<text text-anchor="middle" x="2472.02" y="-1264.23" font-family="Times New Roman,serif" font-size="14.00">AssegnazioneSopralluogoPCE</text>
</g>
<!-- AvvioSopralluogoPCE&#45;&gt;AssegnazioneSopralluogoPCE -->
<g id="edge8" class="edge">
<title>AvvioSopralluogoPCE&#45;&gt;AssegnazioneSopralluogoPCE</title>
<path fill="none" stroke="black" d="M2472.02,-1445.44C2472.02,-1432.51 2472.02,-1419.1 2472.02,-1405.71"/>
<polygon fill="black" stroke="black" points="2475.52,-1405.99 2472.02,-1395.99 2468.52,-1405.99 2475.52,-1405.99"/>
<text text-anchor="middle" x="2541.02" y="-1414.53" font-family="Times New Roman,serif" font-size="14.00">SopralluogoPCEAvviato</text>
</g>
<!-- PianificazioneSopralluogoPCE -->
<g id="node22" class="node">
<title>PianificazioneSopralluogoPCE</title>
<ellipse fill="none" stroke="black" cx="2472.02" cy="-969.08" rx="124.42" ry="124.42"/>
<text text-anchor="middle" x="2472.02" y="-963.65" font-family="Times New Roman,serif" font-size="14.00">PianificazioneSopralluogoPCE</text>
</g>
<!-- AssegnazioneSopralluogoPCE&#45;&gt;PianificazioneSopralluogoPCE -->
<g id="edge42" class="edge">
<title>AssegnazioneSopralluogoPCE&#45;&gt;PianificazioneSopralluogoPCE</title>
<path fill="none" stroke="black" d="M2472.02,-1145.06C2472.02,-1131.77 2472.02,-1118.21 2472.02,-1104.8"/>
<polygon fill="black" stroke="black" points="2475.52,-1105.1 2472.02,-1095.1 2468.52,-1105.1 2475.52,-1105.1"/>
<text text-anchor="middle" x="2548.52" y="-1113.94" font-family="Times New Roman,serif" font-size="14.00">SopralluogoPCEAssegnato</text>
</g>
<!-- RiassegnazioneVisio&#45;&gt;AvvioManualeVisio -->
<g id="edge22" class="edge">
<title>RiassegnazioneVisio&#45;&gt;AvvioManualeVisio</title>
<path fill="none" stroke="black" d="M440.01,-891.81C414.06,-843.56 380.45,-781.07 353.51,-730.98"/>
<polygon fill="black" stroke="black" points="356.75,-729.62 348.93,-722.47 350.58,-732.93 356.75,-729.62"/>
<text text-anchor="middle" x="448.15" y="-813.36" font-family="Times New Roman,serif" font-size="14.00">VisioAssegnata</text>
</g>
<!-- RiassegnazioneDesk&#45;&gt;AvvioManualeDesk -->
<g id="edge29" class="edge">
<title>RiassegnazioneDesk&#45;&gt;AvvioManualeDesk</title>
<path fill="none" stroke="black" d="M1030.58,-887.69C1048.08,-841.67 1070.09,-783.77 1088.25,-736.01"/>
<polygon fill="black" stroke="black" points="1091.48,-737.37 1091.76,-726.78 1084.93,-734.88 1091.48,-737.37"/>
<text text-anchor="middle" x="1100.77" y="-813.36" font-family="Times New Roman,serif" font-size="14.00">DeskAssegnata</text>
</g>
<!-- EsecuzioneSopralluogo -->
<g id="node19" class="node">
<title>EsecuzioneSopralluogo</title>
<ellipse fill="none" stroke="black" cx="1655.02" cy="-643.54" rx="97.97" ry="97.97"/>
<text text-anchor="middle" x="1655.02" y="-638.12" font-family="Times New Roman,serif" font-size="14.00">EsecuzioneSopralluogo</text>
</g>
<!-- PianificazioneSopralluogo&#45;&gt;EsecuzioneSopralluogo -->
<g id="edge31" class="edge">
<title>PianificazioneSopralluogo&#45;&gt;EsecuzioneSopralluogo</title>
<path fill="none" stroke="black" d="M1716.62,-884.8C1704.6,-866.48 1693.34,-846.58 1685.27,-826.66 1675.84,-803.37 1669.35,-777.26 1664.88,-752.25"/>
<polygon fill="black" stroke="black" points="1668.39,-752.01 1663.28,-742.73 1661.49,-753.17 1668.39,-752.01"/>
<text text-anchor="middle" x="1748.4" y="-813.36" font-family="Times New Roman,serif" font-size="14.00">SopralluogoPianificato</text>
</g>
<!-- VerificaSopralluogoDopoRifiuto -->
<g id="node20" class="node">
<title>VerificaSopralluogoDopoRifiuto</title>
<ellipse fill="none" stroke="black" cx="1401.02" cy="-643.54" rx="131.9" ry="131.9"/>
<text text-anchor="middle" x="1401.02" y="-638.12" font-family="Times New Roman,serif" font-size="14.00">VerificaSopralluogoDopoRifiuto</text>
</g>
<!-- PianificazioneSopralluogo&#45;&gt;VerificaSopralluogoDopoRifiuto -->
<g id="edge32" class="edge">
<title>PianificazioneSopralluogo&#45;&gt;VerificaSopralluogoDopoRifiuto</title>
<path fill="none" stroke="black" d="M1703.38,-897.35C1675.92,-876.84 1643.79,-856.73 1611.02,-844.66 1565.98,-828.07 1428.27,-861.99 1395.77,-826.66 1384.55,-814.46 1378.14,-799.62 1375.05,-783.74"/>
<polygon fill="black" stroke="black" points="1378.55,-783.48 1373.64,-774.09 1371.62,-784.5 1378.55,-783.48"/>
<text text-anchor="middle" x="1453.15" y="-813.36" font-family="Times New Roman,serif" font-size="14.00">SopralluogoRifiutato</text>
</g>
<!-- EsecuzioneSopralluogo&#45;&gt;AvvioPerizia -->
<g id="edge33" class="edge">
<title>EsecuzioneSopralluogo&#45;&gt;AvvioPerizia</title>
<path fill="none" stroke="black" d="M1643.32,-545.77C1635.24,-452.88 1631.11,-309.54 1664.02,-190.6 1669,-172.62 1677.64,-154.48 1686.92,-138.32"/>
<polygon fill="black" stroke="black" points="1689.87,-140.22 1691.98,-129.84 1683.86,-136.63 1689.87,-140.22"/>
<text text-anchor="middle" x="1727.02" y="-311.09" font-family="Times New Roman,serif" font-size="14.00">SoprallugoCompletato</text>
</g>
<!-- EsecuzioneSopralluogo&#45;&gt;PianificazioneSopralluogo -->
<g id="edge34" class="edge">
<title>EsecuzioneSopralluogo&#45;&gt;PianificazioneSopralluogo</title>
<path fill="none" stroke="black" d="M1732.57,-704.01C1763.49,-732.56 1795.6,-769.57 1812.02,-810.91 1817.75,-825.33 1819.59,-840.95 1818.97,-856.56"/>
<polygon fill="black" stroke="black" points="1815.49,-856.16 1818.22,-866.4 1822.47,-856.69 1815.49,-856.16"/>
<text text-anchor="middle" x="1882.9" y="-813.36" font-family="Times New Roman,serif" font-size="14.00">AppuntamentoAnnullato</text>
</g>
<!-- EsecuzioneSopralluogo&#45;&gt;PianificazioneSopralluogo -->
<g id="edge35" class="edge">
<title>EsecuzioneSopralluogo&#45;&gt;PianificazioneSopralluogo</title>
<path fill="none" stroke="black" d="M1749.87,-669.04C1820.15,-692.71 1911.05,-736.24 1955.02,-810.91 1980.81,-854.7 1939.87,-893.36 1891.48,-921.38"/>
<polygon fill="black" stroke="black" points="1890.06,-918.16 1883.04,-926.1 1893.48,-924.27 1890.06,-918.16"/>
<text text-anchor="middle" x="2004.65" y="-813.36" font-family="Times New Roman,serif" font-size="14.00">ChiusuraAttivita</text>
</g>
<!-- EsecuzioneSopralluogo&#45;&gt;EsecuzioneSopralluogo -->
<g id="edge36" class="edge">
<title>EsecuzioneSopralluogo&#45;&gt;EsecuzioneSopralluogo</title>
<path fill="none" stroke="black" d="M1752.31,-657.57C1763.63,-654.98 1770.99,-650.3 1770.99,-643.54 1770.99,-639.21 1767.97,-635.74 1762.82,-633.12"/>
<polygon fill="black" stroke="black" points="1764.34,-629.94 1753.74,-630.01 1762.07,-636.56 1764.34,-629.94"/>
<text text-anchor="middle" x="1842.99" y="-638.12" font-family="Times New Roman,serif" font-size="14.00">AppuntamentoModificato</text>
</g>
<!-- EsecuzioneSopralluogo&#45;&gt;EsecuzioneSopralluogo -->
<g id="edge37" class="edge">
<title>EsecuzioneSopralluogo&#45;&gt;EsecuzioneSopralluogo</title>
<path fill="none" stroke="black" d="M1748.63,-673.51C1824.46,-681.94 1914.99,-671.95 1914.99,-643.54 1914.99,-616.52 1833.08,-606.17 1759.83,-612.48"/>
<polygon fill="black" stroke="black" points="1759.74,-608.97 1750.13,-613.43 1760.43,-615.94 1759.74,-608.97"/>
<text text-anchor="middle" x="1983.24" y="-638.12" font-family="Times New Roman,serif" font-size="14.00">DatiObbligatoriMancanti</text>
</g>
<!-- ApprovazioneSopralluogo -->
<g id="node21" class="node">
<title>ApprovazioneSopralluogo</title>
<ellipse fill="none" stroke="black" cx="1907.02" cy="-316.51" rx="108.45" ry="108.45"/>
<text text-anchor="middle" x="1907.02" y="-311.09" font-family="Times New Roman,serif" font-size="14.00">ApprovazioneSopralluogo</text>
</g>
<!-- EsecuzioneSopralluogo&#45;&gt;ApprovazioneSopralluogo -->
<g id="edge38" class="edge">
<title>EsecuzioneSopralluogo&#45;&gt;ApprovazioneSopralluogo</title>
<path fill="none" stroke="black" d="M1714.74,-565.52C1750.44,-519.48 1796.05,-460.65 1833.89,-411.84"/>
<polygon fill="black" stroke="black" points="1836.57,-414.09 1839.93,-404.04 1831.04,-409.8 1836.57,-414.09"/>
<text text-anchor="middle" x="1881.9" y="-462.88" font-family="Times New Roman,serif" font-size="14.00">SopralluogoCompletatoNuovo</text>
</g>
<!-- VerificaSopralluogoDopoRifiuto&#45;&gt;PianificazioneSopralluogo -->
<g id="edge39" class="edge">
<title>VerificaSopralluogoDopoRifiuto&#45;&gt;PianificazioneSopralluogo</title>
<path fill="none" stroke="black" d="M1472.82,-754.6C1494.65,-781.31 1520.56,-807.62 1549.27,-826.66 1573.1,-842.46 1585.32,-832.15 1611.02,-844.66 1638.69,-858.13 1666.65,-875.99 1691.76,-893.92"/>
<polygon fill="black" stroke="black" points="1689.5,-896.61 1699.65,-899.64 1693.61,-890.94 1689.5,-896.61"/>
<text text-anchor="middle" x="1612.4" y="-813.36" font-family="Times New Roman,serif" font-size="14.00">SopralluogoAssegnato</text>
</g>
<!-- ApprovazioneSopralluogo&#45;&gt;AvvioPerizia -->
<g id="edge41" class="edge">
<title>ApprovazioneSopralluogo&#45;&gt;AvvioPerizia</title>
<path fill="none" stroke="black" d="M1840.91,-230.33C1816.49,-198.86 1789.51,-164.1 1767.83,-136.17"/>
<polygon fill="black" stroke="black" points="1770.81,-134.31 1761.92,-128.55 1765.28,-138.6 1770.81,-134.31"/>
<text text-anchor="middle" x="1836.4" y="-159.3" font-family="Times New Roman,serif" font-size="14.00">NonApprovato</text>
</g>
<!-- ApprovazioneSopralluogo&#45;&gt;AvvioSopralluogo -->
<g id="edge40" class="edge">
<title>ApprovazioneSopralluogo&#45;&gt;AvvioSopralluogo</title>
<path fill="none" stroke="black" d="M1978.12,-398.66C1991.75,-413.49 2006.12,-428.62 2020.02,-442.43 2044.53,-466.77 2061.92,-463.61 2078.02,-494.18 2109,-553 2097.02,-576.07 2097.02,-642.54 2097.02,-1270.66 2097.02,-1270.66 2097.02,-1270.66 2097.02,-1368.8 2009.02,-1449.13 1940.26,-1496.91"/>
<polygon fill="black" stroke="black" points="1938.66,-1493.77 1932.38,-1502.3 1942.61,-1499.55 1938.66,-1493.77"/>
<text text-anchor="middle" x="2127.4" y="-963.65" font-family="Times New Roman,serif" font-size="14.00">Approvato</text>
</g>
<!-- EsecuzioneSopralluogoPCE -->
<g id="node23" class="node">
<title>EsecuzioneSopralluogoPCE</title>
<ellipse fill="none" stroke="black" cx="2557.02" cy="-643.54" rx="115.43" ry="115.43"/>
<text text-anchor="middle" x="2557.02" y="-638.12" font-family="Times New Roman,serif" font-size="14.00">EsecuzioneSopralluogoPCE</text>
</g>
<!-- PianificazioneSopralluogoPCE&#45;&gt;EsecuzioneSopralluogoPCE -->
<g id="edge43" class="edge">
<title>PianificazioneSopralluogoPCE&#45;&gt;EsecuzioneSopralluogoPCE</title>
<path fill="none" stroke="black" d="M2467.44,-844.3C2468.63,-832.93 2470.43,-821.65 2473.02,-810.91 2477.7,-791.54 2484.99,-771.86 2493.36,-753.14"/>
<polygon fill="black" stroke="black" points="2496.47,-754.76 2497.48,-744.22 2490.11,-751.83 2496.47,-754.76"/>
<text text-anchor="middle" x="2549.52" y="-813.36" font-family="Times New Roman,serif" font-size="14.00">SopralluogoPCEPianificato</text>
</g>
<!-- VerificaSopralluogoPCEDopoRifiuto -->
<g id="node24" class="node">
<title>VerificaSopralluogoPCEDopoRifiuto</title>
<ellipse fill="none" stroke="black" cx="2274.02" cy="-643.54" rx="149.37" ry="149.37"/>
<text text-anchor="middle" x="2274.02" y="-638.12" font-family="Times New Roman,serif" font-size="14.00">VerificaSopralluogoPCEDopoRifiuto</text>
</g>
<!-- PianificazioneSopralluogoPCE&#45;&gt;VerificaSopralluogoPCEDopoRifiuto -->
<g id="edge44" class="edge">
<title>PianificazioneSopralluogoPCE&#45;&gt;VerificaSopralluogoPCEDopoRifiuto</title>
<path fill="none" stroke="black" d="M2356.19,-923.5C2260.19,-886 2138.36,-836.91 2131.52,-826.66 2111.93,-797.31 2122.59,-766.64 2145.05,-739.02"/>
<polygon fill="black" stroke="black" points="2147.49,-741.55 2151.38,-731.7 2142.19,-736.97 2147.49,-741.55"/>
<text text-anchor="middle" x="2202.27" y="-813.36" font-family="Times New Roman,serif" font-size="14.00">SopralluogoPCERifiutato</text>
</g>
<!-- EsecuzioneSopralluogoPCE&#45;&gt;AvvioPerizia -->
<g id="edge45" class="edge">
<title>EsecuzioneSopralluogoPCE&#45;&gt;AvvioPerizia</title>
<path fill="none" stroke="black" d="M2490.5,-548.77C2473.16,-528.84 2453.31,-509.28 2432.02,-494.18 2379.28,-456.75 2350.98,-476.52 2296.02,-442.43 2156.03,-355.58 2164.66,-276.39 2024.02,-190.6 1950.65,-145.85 1855.94,-115.4 1793.2,-98.45"/>
<polygon fill="black" stroke="black" points="1794.28,-95.12 1783.72,-95.94 1792.49,-101.89 1794.28,-95.12"/>
<text text-anchor="middle" x="2359.02" y="-311.09" font-family="Times New Roman,serif" font-size="14.00">SoprallugoCompletato</text>
</g>
<!-- EsecuzioneSopralluogoPCE&#45;&gt;PianificazioneSopralluogoPCE -->
<g id="edge46" class="edge">
<title>EsecuzioneSopralluogoPCE&#45;&gt;PianificazioneSopralluogoPCE</title>
<path fill="none" stroke="black" d="M2621.68,-739.35C2633.31,-767.68 2638.33,-798.65 2626.02,-826.66 2615.8,-849.92 2599.65,-871.04 2581.59,-889.44"/>
<polygon fill="black" stroke="black" points="2579.5,-886.59 2574.82,-896.1 2584.4,-891.58 2579.5,-886.59"/>
<text text-anchor="middle" x="2697.9" y="-813.36" font-family="Times New Roman,serif" font-size="14.00">AppuntamentoAnnullato</text>
</g>
<!-- EsecuzioneSopralluogoPCE&#45;&gt;PianificazioneSopralluogoPCE -->
<g id="edge47" class="edge">
<title>EsecuzioneSopralluogoPCE&#45;&gt;PianificazioneSopralluogoPCE</title>
<path fill="none" stroke="black" d="M2665.16,-684.62C2735.39,-717.22 2807.47,-767.45 2770.02,-826.66 2733.42,-884.54 2665.99,-919.2 2604.52,-939.71"/>
<polygon fill="black" stroke="black" points="2603.8,-936.26 2595.36,-942.66 2605.95,-942.93 2603.8,-936.26"/>
<text text-anchor="middle" x="2820.65" y="-813.36" font-family="Times New Roman,serif" font-size="14.00">ChiusuraAttivita</text>
</g>
<!-- EsecuzioneSopralluogoPCE&#45;&gt;EsecuzioneSopralluogoPCE -->
<g id="edge48" class="edge">
<title>EsecuzioneSopralluogoPCE&#45;&gt;EsecuzioneSopralluogoPCE</title>
<path fill="none" stroke="black" d="M2671.85,-656.94C2683.22,-654.26 2690.46,-649.79 2690.46,-643.54 2690.46,-639.54 2687.49,-636.27 2682.36,-633.73"/>
<polygon fill="black" stroke="black" points="2683.88,-630.55 2673.28,-630.64 2681.62,-637.18 2683.88,-630.55"/>
<text text-anchor="middle" x="2762.46" y="-638.12" font-family="Times New Roman,serif" font-size="14.00">AppuntamentoModificato</text>
</g>
<!-- EsecuzioneSopralluogoPCE&#45;&gt;EsecuzioneSopralluogoPCE -->
<g id="edge49" class="edge">
<title>EsecuzioneSopralluogoPCE&#45;&gt;EsecuzioneSopralluogoPCE</title>
<path fill="none" stroke="black" d="M2668.47,-674.47C2746.91,-681.06 2834.46,-670.75 2834.46,-643.54 2834.46,-617.61 2754.92,-607.03 2679.55,-611.8"/>
<polygon fill="black" stroke="black" points="2679.69,-608.28 2669.97,-612.5 2680.2,-615.26 2679.69,-608.28"/>
<text text-anchor="middle" x="2902.71" y="-638.12" font-family="Times New Roman,serif" font-size="14.00">DatiObbligatoriMancanti</text>
</g>
<!-- ApprovazioneSopralluogoPCE -->
<g id="node25" class="node">
<title>ApprovazioneSopralluogoPCE</title>
<ellipse fill="none" stroke="black" cx="2557.02" cy="-316.51" rx="125.91" ry="125.91"/>
<text text-anchor="middle" x="2557.02" y="-311.09" font-family="Times New Roman,serif" font-size="14.00">ApprovazioneSopralluogoPCE</text>
</g>
<!-- EsecuzioneSopralluogoPCE&#45;&gt;ApprovazioneSopralluogoPCE -->
<g id="edge50" class="edge">
<title>EsecuzioneSopralluogoPCE&#45;&gt;ApprovazioneSopralluogoPCE</title>
<path fill="none" stroke="black" d="M2557.02,-527.95C2557.02,-504.02 2557.02,-478.56 2557.02,-453.93"/>
<polygon fill="black" stroke="black" points="2560.52,-454.19 2557.02,-444.19 2553.52,-454.19 2560.52,-454.19"/>
<text text-anchor="middle" x="2656.02" y="-462.88" font-family="Times New Roman,serif" font-size="14.00">SopralluogoPCECompletatoNuovo</text>
</g>
<!-- VerificaSopralluogoPCEDopoRifiuto&#45;&gt;PianificazioneSopralluogoPCE -->
<g id="edge51" class="edge">
<title>VerificaSopralluogoPCEDopoRifiuto&#45;&gt;PianificazioneSopralluogoPCE</title>
<path fill="none" stroke="black" d="M2296.73,-791.31C2301.22,-803.66 2306.59,-815.62 2313.02,-826.66 2326.04,-849.01 2343.82,-869.7 2362.8,-887.99"/>
<polygon fill="black" stroke="black" points="2360.2,-890.35 2369.89,-894.64 2364.99,-885.24 2360.2,-890.35"/>
<text text-anchor="middle" x="2389.52" y="-813.36" font-family="Times New Roman,serif" font-size="14.00">SopralluogoPCEAssegnato</text>
</g>
<!-- ApprovazioneSopralluogoPCE&#45;&gt;AvvioPerizia -->
<g id="edge53" class="edge">
<title>ApprovazioneSopralluogoPCE&#45;&gt;AvvioPerizia</title>
<path fill="none" stroke="black" d="M2450.34,-249.26C2414.28,-228.64 2373.21,-207.03 2334.02,-190.6 2149.51,-113.27 1910.97,-91.13 1795.18,-84.81"/>
<polygon fill="black" stroke="black" points="1795.37,-81.32 1785.2,-84.3 1795.01,-88.31 1795.37,-81.32"/>
<text text-anchor="middle" x="2313.4" y="-159.3" font-family="Times New Roman,serif" font-size="14.00">NonApprovato</text>
</g>
<!-- ApprovazioneSopralluogoPCE&#45;&gt;AvvioSopralluogoPCE -->
<g id="edge52" class="edge">
<title>ApprovazioneSopralluogoPCE&#45;&gt;AvvioSopralluogoPCE</title>
<path fill="none" stroke="black" d="M2682.29,-332.97C2783.92,-352.5 2922.31,-396.34 2998.02,-494.18 3038.71,-546.75 3017.02,-576.07 3017.02,-642.54 3017.02,-1270.66 3017.02,-1270.66 3017.02,-1270.66 3017.02,-1463.04 2742.65,-1520.43 2583.26,-1537.54"/>
<polygon fill="black" stroke="black" points="2583.08,-1534.04 2573.49,-1538.55 2583.8,-1541 2583.08,-1534.04"/>
<text text-anchor="middle" x="3047.4" y="-963.65" font-family="Times New Roman,serif" font-size="14.00">Approvato</text>
</g>
</g>
</svg>
