<?xml version="1.0" encoding="UTF-8" standalone="no"?>
<!DOCTYPE svg PUBLIC "-//W3C//DTD SVG 1.1//EN"
 "http://www.w3.org/Graphics/SVG/1.1/DTD/svg11.dtd">
<!-- Generated by graphviz version 9.0.0 (20230911.1827)
 -->
<!-- ACCERTAMENTI -->
<!-- Title: finite_state_machine Pages: 1 -->
<svg width="576pt" height="150pt"
 viewBox="0.00 0.00 576.00 149.95" xmlns="http://www.w3.org/2000/svg" xmlns:xlink="http://www.w3.org/1999/xlink">
<g id="graph0" class="graph" transform="scale(0.149688 0.149688) rotate(0) translate(4 997.75)">
<title>finite_state_machine</title>
<polygon fill="white" stroke="none" points="-4,4 -4,-997.75 3844,-997.75 3844,4 -4,4"/>
<text text-anchor="middle" x="1920" y="-6.45" font-family="Times New Roman,serif" font-size="14.00">Assessment</text>
<g id="clust2" class="cluster">
<title>cluster_Accertamenti</title>
<polygon fill="none" stroke="black" points="8,-31.75 8,-892.75 3563,-892.75 3563,-31.75 8,-31.75"/>
<text text-anchor="middle" x="1785.5" y="-875.45" font-family="Times New Roman,serif" font-size="14.00">Assessment</text>
</g>
<g id="clust4" class="cluster">
<title>cluster_desk</title>
<polygon fill="none" stroke="black" points="1184,-478.5 1184,-861 1778,-861 1778,-478.5 1184,-478.5"/>
<text text-anchor="middle" x="1481" y="-843.7" font-family="Times New Roman,serif" font-size="14.00">DESK</text>
</g>
<g id="clust5" class="cluster">
<title>cluster_visio</title>
<polygon fill="none" stroke="black" points="1786,-478.5 1786,-861 2380,-861 2380,-478.5 1786,-478.5"/>
<text text-anchor="middle" x="2083" y="-843.7" font-family="Times New Roman,serif" font-size="14.00">VISIO</text>
</g>
<g id="clust3" class="cluster">
<title>cluster_sopralluogoPce</title>
<polygon fill="none" stroke="black" points="16,-39.75 16,-554.25 1176,-554.25 1176,-39.75 16,-39.75"/>
<text text-anchor="middle" x="596" y="-536.95" font-family="Times New Roman,serif" font-size="14.00">SOPRALLUOGOPCE</text>
</g>
<g id="clust6" class="cluster">
<title>cluster_sopralluogo</title>
<polygon fill="none" stroke="black" points="2388,-303 2388,-861 3555,-861 3555,-303 2388,-303"/>
<text text-anchor="middle" x="2971.5" y="-843.7" font-family="Times New Roman,serif" font-size="14.00">SOPRALLUOGO</text>
</g>
<g id="clust7" class="cluster">
<title>cluster_selfcare</title>
<polygon fill="none" stroke="black" points="985,-588 985,-861 1176,-861 1176,-588 985,-588"/>
<text text-anchor="middle" x="1080.5" y="-843.7" font-family="Times New Roman,serif" font-size="14.00">SELFCARE</text>
</g>
<g id="clust8" class="cluster">
<title>cluster_perizia</title>
<polygon fill="lightgrey" stroke="black" points="3571,-588 3571,-663.75 3832,-663.75 3832,-588 3571,-588"/>
<text text-anchor="middle" x="3701.5" y="-646.45" font-family="Times New Roman,serif" font-size="14.00">PERIZIA</text>
</g>
<!-- Apertura -->
<g id="node1" class="node">
<title>Apertura</title>
<polygon fill="lightgrey" stroke="black" points="1095.38,-993.75 1030.62,-993.75 1030.62,-957.75 1095.38,-957.75 1095.38,-993.75"/>
<text text-anchor="middle" x="1063" y="-970.33" font-family="Times New Roman,serif" font-size="14.00">Apertura</text>
</g>
<!-- AvvioSopralluogoPCE -->
<g id="node2" class="node">
<title>AvvioSopralluogoPCE</title>
<path fill="none" stroke="black" d="M951.12,-522.5C951.12,-522.5 830.88,-522.5 830.88,-522.5 824.88,-522.5 818.88,-516.5 818.88,-510.5 818.88,-510.5 818.88,-498.5 818.88,-498.5 818.88,-492.5 824.88,-486.5 830.88,-486.5 830.88,-486.5 951.12,-486.5 951.12,-486.5 957.12,-486.5 963.12,-492.5 963.12,-498.5 963.12,-498.5 963.12,-510.5 963.12,-510.5 963.12,-516.5 957.12,-522.5 951.12,-522.5"/>
<text text-anchor="middle" x="891" y="-499.07" font-family="Times New Roman,serif" font-size="14.00">AvvioSopralluogoPCE</text>
</g>
<!-- Apertura&#45;&gt;AvvioSopralluogoPCE -->
<g id="edge7" class="edge">
<title>Apertura&#45;&gt;AvvioSopralluogoPCE</title>
<path fill="none" stroke="black" d="M1030.24,-971.22C980.34,-964.93 891,-949.62 891,-920.75 891,-920.75 891,-920.75 891,-613 891,-586.2 891,-555.64 891,-533.97"/>
<polygon fill="black" stroke="black" points="894.5,-534.14 891,-524.14 887.5,-534.14 894.5,-534.14"/>
</g>
<!-- AvvioDesk -->
<g id="node10" class="node">
<title>AvvioDesk</title>
<path fill="none" stroke="black" d="M1459.12,-829.25C1459.12,-829.25 1404.88,-829.25 1404.88,-829.25 1398.88,-829.25 1392.88,-823.25 1392.88,-817.25 1392.88,-817.25 1392.88,-805.25 1392.88,-805.25 1392.88,-799.25 1398.88,-793.25 1404.88,-793.25 1404.88,-793.25 1459.12,-793.25 1459.12,-793.25 1465.12,-793.25 1471.12,-799.25 1471.12,-805.25 1471.12,-805.25 1471.12,-817.25 1471.12,-817.25 1471.12,-823.25 1465.12,-829.25 1459.12,-829.25"/>
<text text-anchor="middle" x="1432" y="-805.83" font-family="Times New Roman,serif" font-size="14.00">AvvioDesk</text>
</g>
<!-- Apertura&#45;&gt;AvvioDesk -->
<g id="edge4" class="edge">
<title>Apertura&#45;&gt;AvvioDesk</title>
<path fill="none" stroke="black" d="M1095.86,-968.55C1147.43,-957.97 1249.59,-933.51 1328,-892.75 1356.64,-877.86 1385.36,-854.87 1405.34,-837.27"/>
<polygon fill="black" stroke="black" points="1407.64,-839.9 1412.74,-830.62 1402.97,-834.69 1407.64,-839.9"/>
</g>
<!-- AvvioManualeDesk -->
<g id="node11" class="node">
<title>AvvioManualeDesk</title>
<path fill="none" stroke="black" d="M1366.38,-522.5C1366.38,-522.5 1265.62,-522.5 1265.62,-522.5 1259.62,-522.5 1253.62,-516.5 1253.62,-510.5 1253.62,-510.5 1253.62,-498.5 1253.62,-498.5 1253.62,-492.5 1259.62,-486.5 1265.62,-486.5 1265.62,-486.5 1366.38,-486.5 1366.38,-486.5 1372.38,-486.5 1378.38,-492.5 1378.38,-498.5 1378.38,-498.5 1378.38,-510.5 1378.38,-510.5 1378.38,-516.5 1372.38,-522.5 1366.38,-522.5"/>
<text text-anchor="middle" x="1316" y="-499.07" font-family="Times New Roman,serif" font-size="14.00">AvvioManualeDesk</text>
</g>
<!-- Apertura&#45;&gt;AvvioManualeDesk -->
<g id="edge5" class="edge">
<title>Apertura&#45;&gt;AvvioManualeDesk</title>
<path fill="none" stroke="black" d="M1030.22,-975.1C990.55,-973.6 929,-964.27 929,-920.75 929,-920.75 929,-920.75 929,-613 929,-588.05 932.16,-575.97 953,-562.25 974.08,-548.37 1155.21,-559.01 1180,-554.25 1209.64,-548.56 1241.45,-537.45 1266.86,-527.27"/>
<polygon fill="black" stroke="black" points="1268,-530.59 1275.93,-523.56 1265.35,-524.11 1268,-530.59"/>
</g>
<!-- AvvioVisio -->
<g id="node15" class="node">
<title>AvvioVisio</title>
<path fill="none" stroke="black" d="M2062.5,-829.25C2062.5,-829.25 2007.5,-829.25 2007.5,-829.25 2001.5,-829.25 1995.5,-823.25 1995.5,-817.25 1995.5,-817.25 1995.5,-805.25 1995.5,-805.25 1995.5,-799.25 2001.5,-793.25 2007.5,-793.25 2007.5,-793.25 2062.5,-793.25 2062.5,-793.25 2068.5,-793.25 2074.5,-799.25 2074.5,-805.25 2074.5,-805.25 2074.5,-817.25 2074.5,-817.25 2074.5,-823.25 2068.5,-829.25 2062.5,-829.25"/>
<text text-anchor="middle" x="2035" y="-805.83" font-family="Times New Roman,serif" font-size="14.00">AvvioVisio</text>
</g>
<!-- Apertura&#45;&gt;AvvioVisio -->
<g id="edge2" class="edge">
<title>Apertura&#45;&gt;AvvioVisio</title>
<path fill="none" stroke="black" d="M1095.66,-974.09C1234.32,-970.89 1774.4,-954.66 1931,-892.75 1961.89,-880.54 1991.26,-856.21 2010.86,-837.48"/>
<polygon fill="black" stroke="black" points="2013.13,-840.16 2017.81,-830.65 2008.22,-835.16 2013.13,-840.16"/>
</g>
<!-- AvvioManualeVisio -->
<g id="node16" class="node">
<title>AvvioManualeVisio</title>
<path fill="none" stroke="black" d="M1969.75,-522.5C1969.75,-522.5 1868.25,-522.5 1868.25,-522.5 1862.25,-522.5 1856.25,-516.5 1856.25,-510.5 1856.25,-510.5 1856.25,-498.5 1856.25,-498.5 1856.25,-492.5 1862.25,-486.5 1868.25,-486.5 1868.25,-486.5 1969.75,-486.5 1969.75,-486.5 1975.75,-486.5 1981.75,-492.5 1981.75,-498.5 1981.75,-498.5 1981.75,-510.5 1981.75,-510.5 1981.75,-516.5 1975.75,-522.5 1969.75,-522.5"/>
<text text-anchor="middle" x="1919" y="-499.07" font-family="Times New Roman,serif" font-size="14.00">AvvioManualeVisio</text>
</g>
<!-- Apertura&#45;&gt;AvvioManualeVisio -->
<g id="edge3" class="edge">
<title>Apertura&#45;&gt;AvvioManualeVisio</title>
<path fill="none" stroke="black" d="M1030.23,-970.07C1002.42,-964.02 967,-950.49 967,-920.75 967,-920.75 967,-920.75 967,-613 967,-600.27 970.45,-595.13 981,-588 1054.88,-538.05 1091.04,-568.58 1180,-562.25 1246.73,-557.51 1716.16,-566.07 1782,-554.25 1812.11,-548.85 1844.42,-537.63 1870.09,-527.32"/>
<polygon fill="black" stroke="black" points="1871.34,-530.59 1879.26,-523.55 1868.68,-524.12 1871.34,-530.59"/>
</g>
<!-- AvvioSopralluogo -->
<g id="node20" class="node">
<title>AvvioSopralluogo</title>
<path fill="none" stroke="black" d="M2612,-829.25C2612,-829.25 2518,-829.25 2518,-829.25 2512,-829.25 2506,-823.25 2506,-817.25 2506,-817.25 2506,-805.25 2506,-805.25 2506,-799.25 2512,-793.25 2518,-793.25 2518,-793.25 2612,-793.25 2612,-793.25 2618,-793.25 2624,-799.25 2624,-805.25 2624,-805.25 2624,-817.25 2624,-817.25 2624,-823.25 2618,-829.25 2612,-829.25"/>
<text text-anchor="middle" x="2565" y="-805.83" font-family="Times New Roman,serif" font-size="14.00">AvvioSopralluogo</text>
</g>
<!-- Apertura&#45;&gt;AvvioSopralluogo -->
<g id="edge6" class="edge">
<title>Apertura&#45;&gt;AvvioSopralluogo</title>
<path fill="none" stroke="black" d="M1095.75,-974.32C1274.03,-971.74 2128.81,-956.19 2384,-892.75 2434.73,-880.14 2489.03,-854.13 2524.77,-835.07"/>
<polygon fill="black" stroke="black" points="2526.33,-838.21 2533.46,-830.37 2523,-832.05 2526.33,-838.21"/>
</g>
<!-- AvvioAccertSelfCare -->
<g id="node28" class="node">
<title>AvvioAccertSelfCare</title>
<path fill="none" stroke="black" d="M1118.62,-829.25C1118.62,-829.25 1007.38,-829.25 1007.38,-829.25 1001.38,-829.25 995.38,-823.25 995.38,-817.25 995.38,-817.25 995.38,-805.25 995.38,-805.25 995.38,-799.25 1001.38,-793.25 1007.38,-793.25 1007.38,-793.25 1118.62,-793.25 1118.62,-793.25 1124.62,-793.25 1130.62,-799.25 1130.62,-805.25 1130.62,-805.25 1130.62,-817.25 1130.62,-817.25 1130.62,-823.25 1124.62,-829.25 1118.62,-829.25"/>
<text text-anchor="middle" x="1063" y="-805.83" font-family="Times New Roman,serif" font-size="14.00">AvvioAccertSelfCare</text>
</g>
<!-- Apertura&#45;&gt;AvvioAccertSelfCare -->
<g id="edge1" class="edge">
<title>Apertura&#45;&gt;AvvioAccertSelfCare</title>
<path fill="none" stroke="black" d="M1063,-957.36C1063,-929.5 1063,-874.6 1063,-840.89"/>
<polygon fill="black" stroke="black" points="1066.5,-841.03 1063,-831.03 1059.5,-841.03 1066.5,-841.03"/>
</g>
<!-- AssegnazioneSopralluogoPCE -->
<g id="node3" class="node">
<title>AssegnazioneSopralluogoPCE</title>
<path fill="none" stroke="black" d="M972.5,-434.75C972.5,-434.75 809.5,-434.75 809.5,-434.75 803.5,-434.75 797.5,-428.75 797.5,-422.75 797.5,-422.75 797.5,-410.75 797.5,-410.75 797.5,-404.75 803.5,-398.75 809.5,-398.75 809.5,-398.75 972.5,-398.75 972.5,-398.75 978.5,-398.75 984.5,-404.75 984.5,-410.75 984.5,-410.75 984.5,-422.75 984.5,-422.75 984.5,-428.75 978.5,-434.75 972.5,-434.75"/>
<text text-anchor="middle" x="891" y="-411.32" font-family="Times New Roman,serif" font-size="14.00">AssegnazioneSopralluogoPCE</text>
</g>
<!-- AvvioSopralluogoPCE&#45;&gt;AssegnazioneSopralluogoPCE -->
<g id="edge50" class="edge">
<title>AvvioSopralluogoPCE&#45;&gt;AssegnazioneSopralluogoPCE</title>
<path fill="none" stroke="black" d="M891,-486.15C891,-474.76 891,-459.59 891,-446.43"/>
<polygon fill="black" stroke="black" points="894.5,-446.59 891,-436.59 887.5,-446.59 894.5,-446.59"/>
<text text-anchor="middle" x="947.62" y="-455.2" font-family="Times New Roman,serif" font-size="14.00">SopralluogoAvvioto</text>
</g>
<!-- PianificazioneSopralluogoPCE -->
<g id="node4" class="node">
<title>PianificazioneSopralluogoPCE</title>
<path fill="none" stroke="black" d="M912.5,-347C912.5,-347 749.5,-347 749.5,-347 743.5,-347 737.5,-341 737.5,-335 737.5,-335 737.5,-323 737.5,-323 737.5,-317 743.5,-311 749.5,-311 749.5,-311 912.5,-311 912.5,-311 918.5,-311 924.5,-317 924.5,-323 924.5,-323 924.5,-335 924.5,-335 924.5,-341 918.5,-347 912.5,-347"/>
<text text-anchor="middle" x="831" y="-323.57" font-family="Times New Roman,serif" font-size="14.00">PianificazioneSopralluogoPCE</text>
</g>
<!-- AssegnazioneSopralluogoPCE&#45;&gt;PianificazioneSopralluogoPCE -->
<g id="edge51" class="edge">
<title>AssegnazioneSopralluogoPCE&#45;&gt;PianificazioneSopralluogoPCE</title>
<path fill="none" stroke="black" stroke-dasharray="1,5" d="M878.86,-398.4C870.48,-386.43 859.18,-370.28 849.67,-356.68"/>
<polygon fill="black" stroke="black" points="852.59,-354.75 843.99,-348.57 846.86,-358.77 852.59,-354.75"/>
<text text-anchor="middle" x="929.38" y="-367.45" font-family="Times New Roman,serif" font-size="14.00">SopralluogoAssegnato</text>
</g>
<!-- EsecuzioneSopralluogoPCE -->
<g id="node5" class="node">
<title>EsecuzioneSopralluogoPCE</title>
<path fill="none" stroke="black" d="M500.75,-259.25C500.75,-259.25 351.25,-259.25 351.25,-259.25 345.25,-259.25 339.25,-253.25 339.25,-247.25 339.25,-247.25 339.25,-235.25 339.25,-235.25 339.25,-229.25 345.25,-223.25 351.25,-223.25 351.25,-223.25 500.75,-223.25 500.75,-223.25 506.75,-223.25 512.75,-229.25 512.75,-235.25 512.75,-235.25 512.75,-247.25 512.75,-247.25 512.75,-253.25 506.75,-259.25 500.75,-259.25"/>
<text text-anchor="middle" x="426" y="-235.82" font-family="Times New Roman,serif" font-size="14.00">EsecuzioneSopralluogoPCE</text>
</g>
<!-- PianificazioneSopralluogoPCE&#45;&gt;EsecuzioneSopralluogoPCE -->
<g id="edge52" class="edge">
<title>PianificazioneSopralluogoPCE&#45;&gt;EsecuzioneSopralluogoPCE</title>
<path fill="none" stroke="black" d="M737.31,-326.02C647.76,-322.84 519.97,-314.56 475.25,-293 463.52,-287.34 453.05,-277.66 444.82,-268.26"/>
<polygon fill="black" stroke="black" points="447.63,-266.17 438.59,-260.64 442.21,-270.6 447.63,-266.17"/>
<text text-anchor="middle" x="538.38" y="-279.7" font-family="Times New Roman,serif" font-size="14.00">SopralluogoPianificato</text>
</g>
<!-- VerificaSopralluogoPCEDopoRifiuto -->
<g id="node6" class="node">
<title>VerificaSopralluogoPCEDopoRifiuto</title>
<path fill="none" stroke="black" d="M1156.25,-259.25C1156.25,-259.25 955.75,-259.25 955.75,-259.25 949.75,-259.25 943.75,-253.25 943.75,-247.25 943.75,-247.25 943.75,-235.25 943.75,-235.25 943.75,-229.25 949.75,-223.25 955.75,-223.25 955.75,-223.25 1156.25,-223.25 1156.25,-223.25 1162.25,-223.25 1168.25,-229.25 1168.25,-235.25 1168.25,-235.25 1168.25,-247.25 1168.25,-247.25 1168.25,-253.25 1162.25,-259.25 1156.25,-259.25"/>
<text text-anchor="middle" x="1056" y="-235.82" font-family="Times New Roman,serif" font-size="14.00">VerificaSopralluogoPCEDopoRifiuto</text>
</g>
<!-- PianificazioneSopralluogoPCE&#45;&gt;VerificaSopralluogoPCEDopoRifiuto -->
<g id="edge53" class="edge">
<title>PianificazioneSopralluogoPCE&#45;&gt;VerificaSopralluogoPCEDopoRifiuto</title>
<path fill="none" stroke="black" d="M924.94,-319.51C967.91,-314.04 1012.99,-305.55 1030,-293 1037.73,-287.3 1043.33,-278.63 1047.32,-270.06"/>
<polygon fill="black" stroke="black" points="1050.52,-271.48 1050.97,-260.89 1044.01,-268.89 1050.52,-271.48"/>
<text text-anchor="middle" x="1101.12" y="-279.7" font-family="Times New Roman,serif" font-size="14.00">SopralluogoRifiutato</text>
</g>
<!-- EsecuzioneSopralluogoPCE&#45;&gt;PianificazioneSopralluogoPCE -->
<g id="edge54" class="edge">
<title>EsecuzioneSopralluogoPCE&#45;&gt;PianificazioneSopralluogoPCE</title>
<path fill="none" stroke="black" d="M513.08,-252.5C542.1,-257.75 574.12,-265.6 602,-277.25 613.52,-282.06 613.67,-288.35 625.25,-293 656.82,-305.68 692.9,-313.77 725.95,-318.92"/>
<polygon fill="black" stroke="black" points="725.13,-322.34 735.53,-320.34 726.15,-315.42 725.13,-322.34"/>
<text text-anchor="middle" x="692.88" y="-279.7" font-family="Times New Roman,serif" font-size="14.00">AppuntamentoAnnullato</text>
</g>
<!-- EsecuzioneSopralluogoPCE&#45;&gt;PianificazioneSopralluogoPCE -->
<g id="edge55" class="edge">
<title>EsecuzioneSopralluogoPCE&#45;&gt;PianificazioneSopralluogoPCE</title>
<path fill="none" stroke="black" d="M513.17,-246.24C597,-251 717.24,-260.49 761,-277.25 763.3,-278.13 781.61,-291.43 798.93,-304.19"/>
<polygon fill="black" stroke="black" points="796.46,-306.72 806.59,-309.84 800.62,-301.09 796.46,-306.72"/>
<text text-anchor="middle" x="825.62" y="-279.7" font-family="Times New Roman,serif" font-size="14.00">ChiusuraAttivita</text>
</g>
<!-- EsecuzioneSopralluogoPCE&#45;&gt;PianificazioneSopralluogoPCE -->
<g id="edge56" class="edge">
<title>EsecuzioneSopralluogoPCE&#45;&gt;PianificazioneSopralluogoPCE</title>
<path fill="none" stroke="black" d="M338.83,-259.47C318.08,-267.31 305.45,-278.23 319.25,-293 346.36,-322.03 584.26,-327.6 725.96,-328.3"/>
<polygon fill="black" stroke="black" points="725.72,-331.8 735.74,-328.34 725.75,-324.8 725.72,-331.8"/>
<text text-anchor="middle" x="383.88" y="-279.7" font-family="Times New Roman,serif" font-size="14.00">ChiusuraSoprallVariato</text>
</g>
<!-- EsecuzioneSopralluogoPCE&#45;&gt;EsecuzioneSopralluogoPCE -->
<g id="edge57" class="edge">
<title>EsecuzioneSopralluogoPCE&#45;&gt;EsecuzioneSopralluogoPCE</title>
<path fill="none" stroke="black" d="M513.09,-244.81C523.76,-244.17 530.75,-242.99 530.75,-241.25 530.75,-240.25 528.41,-239.43 524.38,-238.79"/>
<polygon fill="black" stroke="black" points="524.89,-235.32 514.6,-237.84 524.21,-242.29 524.89,-235.32"/>
<text text-anchor="middle" x="602.75" y="-235.82" font-family="Times New Roman,serif" font-size="14.00">AppuntamentoModificato</text>
</g>
<!-- EsecuzioneSopralluogoPCE&#45;&gt;EsecuzioneSopralluogoPCE -->
<g id="edge58" class="edge">
<title>EsecuzioneSopralluogoPCE&#45;&gt;EsecuzioneSopralluogoPCE</title>
<path fill="none" stroke="black" d="M513.12,-248.7C586.04,-250.9 674.75,-248.42 674.75,-241.25 674.75,-234.45 594.82,-231.86 524.34,-233.5"/>
<polygon fill="black" stroke="black" points="524.54,-229.99 514.64,-233.76 524.73,-236.99 524.54,-229.99"/>
<text text-anchor="middle" x="743" y="-235.82" font-family="Times New Roman,serif" font-size="14.00">DatiObbligatoriMancanti</text>
</g>
<!-- ApprovazioneSopralluogoPCE -->
<g id="node7" class="node">
<title>ApprovazioneSopralluogoPCE</title>
<path fill="none" stroke="black" d="M837.62,-171.5C837.62,-171.5 672.38,-171.5 672.38,-171.5 666.38,-171.5 660.38,-165.5 660.38,-159.5 660.38,-159.5 660.38,-147.5 660.38,-147.5 660.38,-141.5 666.38,-135.5 672.38,-135.5 672.38,-135.5 837.62,-135.5 837.62,-135.5 843.62,-135.5 849.62,-141.5 849.62,-147.5 849.62,-147.5 849.62,-159.5 849.62,-159.5 849.62,-165.5 843.62,-171.5 837.62,-171.5"/>
<text text-anchor="middle" x="755" y="-148.07" font-family="Times New Roman,serif" font-size="14.00">ApprovazioneSopralluogoPCE</text>
</g>
<!-- EsecuzioneSopralluogoPCE&#45;&gt;ApprovazioneSopralluogoPCE -->
<g id="edge59" class="edge">
<title>EsecuzioneSopralluogoPCE&#45;&gt;ApprovazioneSopralluogoPCE</title>
<path fill="none" stroke="black" stroke-dasharray="1,5" d="M492.97,-222.79C546.34,-208.88 621.15,-189.39 677.18,-174.78"/>
<polygon fill="black" stroke="black" points="677.86,-178.22 686.65,-172.31 676.1,-171.45 677.86,-178.22"/>
<text text-anchor="middle" x="697.75" y="-191.95" font-family="Times New Roman,serif" font-size="14.00">RichiestaNuovoSopralluogo</text>
</g>
<!-- VerificaSopralluogoPCEDopoRifiuto&#45;&gt;PianificazioneSopralluogoPCE -->
<g id="edge60" class="edge">
<title>VerificaSopralluogoPCEDopoRifiuto&#45;&gt;PianificazioneSopralluogoPCE</title>
<path fill="none" stroke="black" d="M946.67,-259.75C930.35,-264.32 914.04,-270.05 899.25,-277.25 889.31,-282.09 888.78,-286.28 880,-293 875.34,-296.56 870.38,-300.24 865.46,-303.82"/>
<polygon fill="black" stroke="black" points="863.46,-300.94 857.39,-309.62 867.55,-306.63 863.46,-300.94"/>
<text text-anchor="middle" x="962.38" y="-279.7" font-family="Times New Roman,serif" font-size="14.00">SopralluogoAssegnato</text>
</g>
<!-- ApprovazioneSopralluogoPCE&#45;&gt;PianificazioneSopralluogoPCE -->
<g id="edge61" class="edge">
<title>ApprovazioneSopralluogoPCE&#45;&gt;PianificazioneSopralluogoPCE</title>
<path fill="none" stroke="black" stroke-dasharray="1,5" d="M783.34,-171.9C813.6,-192.55 859.08,-230.19 873,-277.25 874.99,-283.96 875.97,-286.66 873,-293 871.34,-296.55 869.12,-299.86 866.57,-302.92"/>
<polygon fill="black" stroke="black" points="864.31,-300.23 859.76,-309.79 869.28,-305.16 864.31,-300.23"/>
<text text-anchor="middle" x="895.38" y="-235.82" font-family="Times New Roman,serif" font-size="14.00">Approvato</text>
</g>
<!-- NuovoSopralluogoNonApprovatoPCE -->
<g id="node8" class="node">
<title>NuovoSopralluogoNonApprovatoPCE</title>
<path fill="none" stroke="black" d="M859.75,-83.75C859.75,-83.75 650.25,-83.75 650.25,-83.75 644.25,-83.75 638.25,-77.75 638.25,-71.75 638.25,-71.75 638.25,-59.75 638.25,-59.75 638.25,-53.75 644.25,-47.75 650.25,-47.75 650.25,-47.75 859.75,-47.75 859.75,-47.75 865.75,-47.75 871.75,-53.75 871.75,-59.75 871.75,-59.75 871.75,-71.75 871.75,-71.75 871.75,-77.75 865.75,-83.75 859.75,-83.75"/>
<text text-anchor="middle" x="755" y="-60.33" font-family="Times New Roman,serif" font-size="14.00">NuovoSopralluogoNonApprovatoPCE</text>
</g>
<!-- ApprovazioneSopralluogoPCE&#45;&gt;NuovoSopralluogoNonApprovatoPCE -->
<g id="edge62" class="edge">
<title>ApprovazioneSopralluogoPCE&#45;&gt;NuovoSopralluogoNonApprovatoPCE</title>
<path fill="none" stroke="black" d="M755,-135.15C755,-123.76 755,-108.59 755,-95.43"/>
<polygon fill="black" stroke="black" points="758.5,-95.59 755,-85.59 751.5,-95.59 758.5,-95.59"/>
<text text-anchor="middle" x="797.38" y="-104.2" font-family="Times New Roman,serif" font-size="14.00">NonApprovato</text>
</g>
<!-- Pa_SopralluogoPCE -->
<g id="node9" class="node">
<title>Pa_SopralluogoPCE</title>
<path fill="none" stroke="black" d="M191.12,-347C191.12,-347 82.88,-347 82.88,-347 76.88,-347 70.88,-341 70.88,-335 70.88,-335 70.88,-323 70.88,-323 70.88,-317 76.88,-311 82.88,-311 82.88,-311 191.12,-311 191.12,-311 197.12,-311 203.12,-317 203.12,-323 203.12,-323 203.12,-335 203.12,-335 203.12,-341 197.12,-347 191.12,-347"/>
<text text-anchor="middle" x="137" y="-323.57" font-family="Times New Roman,serif" font-size="14.00">Pa_SopralluogoPCE</text>
</g>
<!-- Pa_SopralluogoPCE&#45;&gt;EsecuzioneSopralluogoPCE -->
<g id="edge63" class="edge">
<title>Pa_SopralluogoPCE&#45;&gt;EsecuzioneSopralluogoPCE</title>
<path fill="none" stroke="black" stroke-dasharray="1,5" d="M148.73,-310.51C157.36,-299.1 170.15,-284.96 185,-277.25 209.62,-264.47 272.31,-255.6 327.58,-249.98"/>
<polygon fill="black" stroke="black" points="327.77,-253.48 337.38,-249.02 327.08,-246.52 327.77,-253.48"/>
<text text-anchor="middle" x="242" y="-279.7" font-family="Times New Roman,serif" font-size="14.00">RichiestaPaRicevuta</text>
</g>
<!-- Pa_SopralluogoPCE&#45;&gt;EsecuzioneSopralluogoPCE -->
<g id="edge64" class="edge">
<title>Pa_SopralluogoPCE&#45;&gt;EsecuzioneSopralluogoPCE</title>
<path fill="none" stroke="black" stroke-dasharray="1,5" d="M70.68,-313.59C46.29,-305.32 27.81,-293.34 42.5,-277.25 61.42,-256.53 220.45,-247.93 327.69,-244.47"/>
<polygon fill="black" stroke="black" points="327.8,-247.97 337.69,-244.16 327.58,-240.97 327.8,-247.97"/>
<text text-anchor="middle" x="101.25" y="-279.7" font-family="Times New Roman,serif" font-size="14.00">ConfermaPaRicevuta</text>
</g>
<!-- EsecuzioneDesk -->
<g id="node12" class="node">
<title>EsecuzioneDesk</title>
<path fill="none" stroke="black" d="M1287.75,-741.5C1287.75,-741.5 1204.25,-741.5 1204.25,-741.5 1198.25,-741.5 1192.25,-735.5 1192.25,-729.5 1192.25,-729.5 1192.25,-717.5 1192.25,-717.5 1192.25,-711.5 1198.25,-705.5 1204.25,-705.5 1204.25,-705.5 1287.75,-705.5 1287.75,-705.5 1293.75,-705.5 1299.75,-711.5 1299.75,-717.5 1299.75,-717.5 1299.75,-729.5 1299.75,-729.5 1299.75,-735.5 1293.75,-741.5 1287.75,-741.5"/>
<text text-anchor="middle" x="1246" y="-718.08" font-family="Times New Roman,serif" font-size="14.00">EsecuzioneDesk</text>
</g>
<!-- AvvioDesk&#45;&gt;EsecuzioneDesk -->
<g id="edge22" class="edge">
<title>AvvioDesk&#45;&gt;EsecuzioneDesk</title>
<path fill="none" stroke="black" d="M1445.87,-793.18C1452.76,-782.53 1458.07,-769.08 1450,-759.5 1432.47,-738.7 1364.33,-730.26 1311.57,-726.84"/>
<polygon fill="black" stroke="black" points="1311.93,-723.35 1301.74,-726.25 1311.51,-730.34 1311.93,-723.35"/>
<text text-anchor="middle" x="1496.75" y="-761.95" font-family="Times New Roman,serif" font-size="14.00">DeskPianificata</text>
</g>
<!-- AvvioManualeDesk&#45;&gt;EsecuzioneDesk -->
<g id="edge23" class="edge">
<title>AvvioManualeDesk&#45;&gt;EsecuzioneDesk</title>
<path fill="none" stroke="black" d="M1283.9,-522.8C1261.25,-536.99 1232.69,-559.37 1219.5,-588 1203.5,-622.73 1218.02,-666.85 1231.06,-694.89"/>
<polygon fill="black" stroke="black" points="1227.88,-696.35 1235.43,-703.79 1234.16,-693.27 1227.88,-696.35"/>
<text text-anchor="middle" x="1261.75" y="-608.58" font-family="Times New Roman,serif" font-size="14.00">DeskPianificata</text>
</g>
<!-- EsecuzioneDesk&#45;&gt;AvvioManualeDesk -->
<g id="edge24" class="edge">
<title>EsecuzioneDesk&#45;&gt;AvvioManualeDesk</title>
<path fill="none" stroke="black" d="M1300.16,-714.9C1355.39,-705.87 1435.38,-688.81 1453,-663.75 1479,-626.76 1475.55,-596.47 1446,-562.25 1431.13,-545.03 1410.06,-532.85 1389.2,-524.31"/>
<polygon fill="black" stroke="black" points="1390.69,-521.13 1380.09,-520.83 1388.19,-527.67 1390.69,-521.13"/>
<text text-anchor="middle" x="1548.75" y="-608.58" font-family="Times New Roman,serif" font-size="14.00">DeskCompletataNuovaDesk</text>
</g>
<!-- EsecuzioneDesk&#45;&gt;EsecuzioneDesk -->
<g id="edge25" class="edge">
<title>EsecuzioneDesk&#45;&gt;EsecuzioneDesk</title>
<path fill="none" stroke="black" d="M1300.13,-726.11C1310.45,-725.8 1317.75,-724.93 1317.75,-723.5 1317.75,-722.7 1315.44,-722.07 1311.58,-721.62"/>
<polygon fill="black" stroke="black" points="1311.84,-718.13 1301.64,-720.99 1311.4,-725.11 1311.84,-718.13"/>
<text text-anchor="middle" x="1389.75" y="-718.08" font-family="Times New Roman,serif" font-size="14.00">AppuntamentoModificato</text>
</g>
<!-- EsecuzioneDesk&#45;&gt;EsecuzioneDesk -->
<g id="edge26" class="edge">
<title>EsecuzioneDesk&#45;&gt;EsecuzioneDesk</title>
<path fill="none" stroke="black" d="M1300.11,-727.92C1365.23,-730.24 1461.75,-728.77 1461.75,-723.5 1461.75,-718.53 1375.85,-716.94 1311.45,-718.73"/>
<polygon fill="black" stroke="black" points="1311.51,-715.22 1301.62,-719.04 1311.73,-722.22 1311.51,-715.22"/>
<text text-anchor="middle" x="1529.62" y="-718.08" font-family="Times New Roman,serif" font-size="14.00">AppuntamentoAnnullato</text>
</g>
<!-- EsecuzioneDesk&#45;&gt;EsecuzioneDesk -->
<g id="edge27" class="edge">
<title>EsecuzioneDesk&#45;&gt;EsecuzioneDesk</title>
<path fill="none" stroke="black" d="M1300.1,-728.96C1400.52,-733.99 1597.5,-732.17 1597.5,-723.5 1597.5,-715.15 1414.5,-713.16 1311.35,-717.52"/>
<polygon fill="black" stroke="black" points="1311.44,-714.02 1301.61,-717.97 1311.76,-721.01 1311.44,-714.02"/>
<text text-anchor="middle" x="1665.75" y="-718.08" font-family="Times New Roman,serif" font-size="14.00">DatiObbligatoriMancanti</text>
</g>
<!-- RiassegnazioneDesk -->
<g id="node13" class="node">
<title>RiassegnazioneDesk</title>
<path fill="none" stroke="black" d="M1432,-632C1432,-632 1326,-632 1326,-632 1320,-632 1314,-626 1314,-620 1314,-620 1314,-608 1314,-608 1314,-602 1320,-596 1326,-596 1326,-596 1432,-596 1432,-596 1438,-596 1444,-602 1444,-608 1444,-608 1444,-620 1444,-620 1444,-626 1438,-632 1432,-632"/>
<text text-anchor="middle" x="1379" y="-608.58" font-family="Times New Roman,serif" font-size="14.00">RiassegnazioneDesk</text>
</g>
<!-- EsecuzioneDesk&#45;&gt;RiassegnazioneDesk -->
<g id="edge28" class="edge">
<title>EsecuzioneDesk&#45;&gt;RiassegnazioneDesk</title>
<path fill="none" stroke="black" d="M1267.37,-705.23C1289.47,-687.36 1324.17,-659.31 1349.02,-639.23"/>
<polygon fill="black" stroke="black" points="1350.93,-642.19 1356.51,-633.18 1346.53,-636.74 1350.93,-642.19"/>
<text text-anchor="middle" x="1345.5" y="-674.2" font-family="Times New Roman,serif" font-size="14.00">DeskRifiutata</text>
</g>
<!-- AvvioPeriziaPostDesk -->
<g id="node32" class="node">
<title>AvvioPeriziaPostDesk</title>
<path fill="none" stroke="black" d="M3812.25,-632C3812.25,-632 3695.75,-632 3695.75,-632 3689.75,-632 3683.75,-626 3683.75,-620 3683.75,-620 3683.75,-608 3683.75,-608 3683.75,-602 3689.75,-596 3695.75,-596 3695.75,-596 3812.25,-596 3812.25,-596 3818.25,-596 3824.25,-602 3824.25,-608 3824.25,-608 3824.25,-620 3824.25,-620 3824.25,-626 3818.25,-632 3812.25,-632"/>
<text text-anchor="middle" x="3754" y="-608.58" font-family="Times New Roman,serif" font-size="14.00">AvvioPeriziaPostDesk</text>
</g>
<!-- EsecuzioneDesk&#45;&gt;AvvioPeriziaPostDesk -->
<g id="edge29" class="edge">
<title>EsecuzioneDesk&#45;&gt;AvvioPeriziaPostDesk</title>
<path fill="none" stroke="black" d="M1300.01,-720.4C1396.66,-716.73 1605.61,-709.18 1782,-705.5 1832.05,-704.46 3537.05,-704.87 3584,-687.5 3594.21,-683.72 3592.75,-676.04 3602.75,-671.75 3632.03,-659.19 3643.85,-674.06 3674,-663.75 3691.01,-657.93 3708.24,-648.06 3722.33,-638.71"/>
<polygon fill="black" stroke="black" points="3724.03,-641.78 3730.29,-633.23 3720.07,-636.01 3724.03,-641.78"/>
<text text-anchor="middle" x="3648.12" y="-674.2" font-family="Times New Roman,serif" font-size="14.00">DeskCompletata</text>
</g>
<!-- RiassegnazioneDesk&#45;&gt;AvvioManualeDesk -->
<g id="edge30" class="edge">
<title>RiassegnazioneDesk&#45;&gt;AvvioManualeDesk</title>
<path fill="none" stroke="black" d="M1368.88,-595.73C1358.87,-578.65 1343.4,-552.25 1331.78,-532.42"/>
<polygon fill="black" stroke="black" points="1334.94,-530.89 1326.86,-524.03 1328.9,-534.43 1334.94,-530.89"/>
<text text-anchor="middle" x="1398.75" y="-564.7" font-family="Times New Roman,serif" font-size="14.00">DeskAssegnata</text>
</g>
<!-- Pa_Desk -->
<g id="node14" class="node">
<title>Pa_Desk</title>
<path fill="none" stroke="black" d="M1307.12,-829.25C1307.12,-829.25 1264.88,-829.25 1264.88,-829.25 1258.88,-829.25 1252.88,-823.25 1252.88,-817.25 1252.88,-817.25 1252.88,-805.25 1252.88,-805.25 1252.88,-799.25 1258.88,-793.25 1264.88,-793.25 1264.88,-793.25 1307.12,-793.25 1307.12,-793.25 1313.12,-793.25 1319.12,-799.25 1319.12,-805.25 1319.12,-805.25 1319.12,-817.25 1319.12,-817.25 1319.12,-823.25 1313.12,-829.25 1307.12,-829.25"/>
<text text-anchor="middle" x="1286" y="-805.83" font-family="Times New Roman,serif" font-size="14.00">Pa_Desk</text>
</g>
<!-- Pa_Desk&#45;&gt;EsecuzioneDesk -->
<g id="edge31" class="edge">
<title>Pa_Desk&#45;&gt;EsecuzioneDesk</title>
<path fill="none" stroke="black" stroke-dasharray="1,5" d="M1252.44,-803.3C1237.04,-798.25 1220.19,-789.67 1211,-775.25 1205.68,-766.9 1208.78,-757.95 1214.9,-749.93"/>
<polygon fill="black" stroke="black" points="1217.28,-752.52 1221.46,-742.79 1212.12,-747.79 1217.28,-752.52"/>
<text text-anchor="middle" x="1268" y="-761.95" font-family="Times New Roman,serif" font-size="14.00">RichiestaPaRicevuta</text>
</g>
<!-- Pa_Desk&#45;&gt;EsecuzioneDesk -->
<g id="edge32" class="edge">
<title>Pa_Desk&#45;&gt;EsecuzioneDesk</title>
<path fill="none" stroke="black" stroke-dasharray="1,5" d="M1312.41,-792.9C1323.6,-783.32 1332.51,-771.05 1325,-759.5 1321.08,-753.48 1315.86,-748.48 1309.97,-744.34"/>
<polygon fill="black" stroke="black" points="1311.91,-741.43 1301.53,-739.29 1308.32,-747.43 1311.91,-741.43"/>
<text text-anchor="middle" x="1386.25" y="-761.95" font-family="Times New Roman,serif" font-size="14.00">ConfermaPaRicevuta</text>
</g>
<!-- EsecuzioneVisio -->
<g id="node17" class="node">
<title>EsecuzioneVisio</title>
<path fill="none" stroke="black" d="M1890.12,-741.5C1890.12,-741.5 1805.88,-741.5 1805.88,-741.5 1799.88,-741.5 1793.88,-735.5 1793.88,-729.5 1793.88,-729.5 1793.88,-717.5 1793.88,-717.5 1793.88,-711.5 1799.88,-705.5 1805.88,-705.5 1805.88,-705.5 1890.12,-705.5 1890.12,-705.5 1896.12,-705.5 1902.12,-711.5 1902.12,-717.5 1902.12,-717.5 1902.12,-729.5 1902.12,-729.5 1902.12,-735.5 1896.12,-741.5 1890.12,-741.5"/>
<text text-anchor="middle" x="1848" y="-718.08" font-family="Times New Roman,serif" font-size="14.00">EsecuzioneVisio</text>
</g>
<!-- AvvioVisio&#45;&gt;EsecuzioneVisio -->
<g id="edge11" class="edge">
<title>AvvioVisio&#45;&gt;EsecuzioneVisio</title>
<path fill="none" stroke="black" d="M2048.37,-793.14C2054.99,-782.48 2060.03,-769.02 2052,-759.5 2034.47,-738.7 1966.33,-730.26 1913.57,-726.84"/>
<polygon fill="black" stroke="black" points="1913.93,-723.35 1903.74,-726.25 1913.51,-730.34 1913.93,-723.35"/>
<text text-anchor="middle" x="2099.12" y="-761.95" font-family="Times New Roman,serif" font-size="14.00">VisioPianificata</text>
</g>
<!-- AvvioManualeVisio&#45;&gt;EsecuzioneVisio -->
<g id="edge12" class="edge">
<title>AvvioManualeVisio&#45;&gt;EsecuzioneVisio</title>
<path fill="none" stroke="black" d="M1886.66,-522.74C1863.84,-536.89 1835.05,-559.27 1821.75,-588 1805.69,-622.69 1820.13,-666.82 1833.11,-694.87"/>
<polygon fill="black" stroke="black" points="1829.93,-696.33 1837.46,-703.77 1836.21,-693.25 1829.93,-696.33"/>
<text text-anchor="middle" x="1864.12" y="-608.58" font-family="Times New Roman,serif" font-size="14.00">VisioPianificata</text>
</g>
<!-- EsecuzioneVisio&#45;&gt;AvvioManualeVisio -->
<g id="edge13" class="edge">
<title>EsecuzioneVisio&#45;&gt;AvvioManualeVisio</title>
<path fill="none" stroke="black" d="M1902.43,-714.94C1957.92,-705.95 2038.31,-688.92 2056,-663.75 2082,-626.76 2078.55,-596.47 2049,-562.25 2034.2,-545.11 2013.25,-532.96 1992.49,-524.43"/>
<polygon fill="black" stroke="black" points="1994.02,-521.27 1983.43,-520.95 1991.51,-527.8 1994.02,-521.27"/>
<text text-anchor="middle" x="2152.5" y="-608.58" font-family="Times New Roman,serif" font-size="14.00">VisioCompletataNuovaVisio</text>
</g>
<!-- EsecuzioneVisio&#45;&gt;EsecuzioneVisio -->
<g id="edge14" class="edge">
<title>EsecuzioneVisio&#45;&gt;EsecuzioneVisio</title>
<path fill="none" stroke="black" d="M1902.41,-726.11C1912.79,-725.8 1920.12,-724.93 1920.12,-723.5 1920.12,-722.67 1917.67,-722.04 1913.6,-721.58"/>
<polygon fill="black" stroke="black" points="1914.12,-718.11 1903.92,-720.98 1913.69,-725.09 1914.12,-718.11"/>
<text text-anchor="middle" x="1992.12" y="-718.08" font-family="Times New Roman,serif" font-size="14.00">AppuntamentoModificato</text>
</g>
<!-- EsecuzioneVisio&#45;&gt;EsecuzioneVisio -->
<g id="edge15" class="edge">
<title>EsecuzioneVisio&#45;&gt;EsecuzioneVisio</title>
<path fill="none" stroke="black" d="M1902.5,-727.93C1967.73,-730.24 2064.12,-728.76 2064.12,-723.5 2064.12,-718.54 1978.34,-716.94 1913.86,-718.72"/>
<polygon fill="black" stroke="black" points="1913.9,-715.22 1904.01,-719.03 1914.12,-722.21 1913.9,-715.22"/>
<text text-anchor="middle" x="2132" y="-718.08" font-family="Times New Roman,serif" font-size="14.00">AppuntamentoAnnullato</text>
</g>
<!-- EsecuzioneVisio&#45;&gt;EsecuzioneVisio -->
<g id="edge16" class="edge">
<title>EsecuzioneVisio&#45;&gt;EsecuzioneVisio</title>
<path fill="none" stroke="black" d="M1902.57,-728.98C2003.23,-733.98 2199.88,-732.16 2199.88,-723.5 2199.88,-715.16 2017.18,-713.16 1913.84,-717.51"/>
<polygon fill="black" stroke="black" points="1913.91,-714 1904.08,-717.95 1914.23,-720.99 1913.91,-714"/>
<text text-anchor="middle" x="2268.12" y="-718.08" font-family="Times New Roman,serif" font-size="14.00">DatiObbligatoriMancanti</text>
</g>
<!-- RiassegnazioneVisio -->
<g id="node18" class="node">
<title>RiassegnazioneVisio</title>
<path fill="none" stroke="black" d="M2035.38,-632C2035.38,-632 1928.62,-632 1928.62,-632 1922.62,-632 1916.62,-626 1916.62,-620 1916.62,-620 1916.62,-608 1916.62,-608 1916.62,-602 1922.62,-596 1928.62,-596 1928.62,-596 2035.38,-596 2035.38,-596 2041.38,-596 2047.38,-602 2047.38,-608 2047.38,-608 2047.38,-620 2047.38,-620 2047.38,-626 2041.38,-632 2035.38,-632"/>
<text text-anchor="middle" x="1982" y="-608.58" font-family="Times New Roman,serif" font-size="14.00">RiassegnazioneVisio</text>
</g>
<!-- EsecuzioneVisio&#45;&gt;RiassegnazioneVisio -->
<g id="edge17" class="edge">
<title>EsecuzioneVisio&#45;&gt;RiassegnazioneVisio</title>
<path fill="none" stroke="black" d="M1869.53,-705.23C1891.8,-687.36 1926.76,-659.31 1951.79,-639.23"/>
<polygon fill="black" stroke="black" points="1953.73,-642.16 1959.34,-633.18 1949.35,-636.7 1953.73,-642.16"/>
<text text-anchor="middle" x="1947.88" y="-674.2" font-family="Times New Roman,serif" font-size="14.00">VisioRifiutata</text>
</g>
<!-- AvvioPerizia -->
<g id="node31" class="node">
<title>AvvioPerizia</title>
<path fill="none" stroke="black" d="M3653.25,-632C3653.25,-632 3590.75,-632 3590.75,-632 3584.75,-632 3578.75,-626 3578.75,-620 3578.75,-620 3578.75,-608 3578.75,-608 3578.75,-602 3584.75,-596 3590.75,-596 3590.75,-596 3653.25,-596 3653.25,-596 3659.25,-596 3665.25,-602 3665.25,-608 3665.25,-608 3665.25,-620 3665.25,-620 3665.25,-626 3659.25,-632 3653.25,-632"/>
<text text-anchor="middle" x="3622" y="-608.58" font-family="Times New Roman,serif" font-size="14.00">AvvioPerizia</text>
</g>
<!-- EsecuzioneVisio&#45;&gt;AvvioPerizia -->
<g id="edge18" class="edge">
<title>EsecuzioneVisio&#45;&gt;AvvioPerizia</title>
<path fill="none" stroke="black" d="M1902.39,-720.45C1999.21,-716.88 2207.85,-709.5 2384,-705.5 2402.26,-705.09 3686.17,-700.5 3699,-687.5 3703.92,-682.52 3703.09,-677.43 3699,-671.75 3692.43,-662.63 3684.69,-669.46 3675,-663.75 3664.34,-657.46 3654,-648.75 3645.32,-640.42"/>
<polygon fill="black" stroke="black" points="3647.86,-638.01 3638.32,-633.41 3642.9,-642.96 3647.86,-638.01"/>
<text text-anchor="middle" x="3748.5" y="-674.2" font-family="Times New Roman,serif" font-size="14.00">VisioCompletata</text>
</g>
<!-- RiassegnazioneVisio&#45;&gt;AvvioManualeVisio -->
<g id="edge19" class="edge">
<title>RiassegnazioneVisio&#45;&gt;AvvioManualeVisio</title>
<path fill="none" stroke="black" d="M1971.88,-595.73C1961.87,-578.65 1946.4,-552.25 1934.78,-532.42"/>
<polygon fill="black" stroke="black" points="1937.94,-530.89 1929.86,-524.03 1931.9,-534.43 1937.94,-530.89"/>
<text text-anchor="middle" x="2002.12" y="-564.7" font-family="Times New Roman,serif" font-size="14.00">VisioAssegnata</text>
</g>
<!-- Pa_Visio -->
<g id="node19" class="node">
<title>Pa_Visio</title>
<path fill="none" stroke="black" d="M1909.5,-829.25C1909.5,-829.25 1866.5,-829.25 1866.5,-829.25 1860.5,-829.25 1854.5,-823.25 1854.5,-817.25 1854.5,-817.25 1854.5,-805.25 1854.5,-805.25 1854.5,-799.25 1860.5,-793.25 1866.5,-793.25 1866.5,-793.25 1909.5,-793.25 1909.5,-793.25 1915.5,-793.25 1921.5,-799.25 1921.5,-805.25 1921.5,-805.25 1921.5,-817.25 1921.5,-817.25 1921.5,-823.25 1915.5,-829.25 1909.5,-829.25"/>
<text text-anchor="middle" x="1888" y="-805.83" font-family="Times New Roman,serif" font-size="14.00">Pa_Visio</text>
</g>
<!-- Pa_Visio&#45;&gt;EsecuzioneVisio -->
<g id="edge20" class="edge">
<title>Pa_Visio&#45;&gt;EsecuzioneVisio</title>
<path fill="none" stroke="black" stroke-dasharray="1,5" d="M1854.05,-803.17C1838.75,-798.1 1822.11,-789.55 1813,-775.25 1807.68,-766.9 1810.78,-757.95 1816.9,-749.93"/>
<polygon fill="black" stroke="black" points="1819.28,-752.52 1823.46,-742.79 1814.12,-747.79 1819.28,-752.52"/>
<text text-anchor="middle" x="1870" y="-761.95" font-family="Times New Roman,serif" font-size="14.00">RichiestaPaRicevuta</text>
</g>
<!-- Pa_Visio&#45;&gt;EsecuzioneVisio -->
<g id="edge21" class="edge">
<title>Pa_Visio&#45;&gt;EsecuzioneVisio</title>
<path fill="none" stroke="black" stroke-dasharray="1,5" d="M1914.41,-792.9C1925.6,-783.32 1934.51,-771.05 1927,-759.5 1923.08,-753.48 1917.86,-748.48 1911.97,-744.34"/>
<polygon fill="black" stroke="black" points="1913.91,-741.43 1903.53,-739.29 1910.32,-747.43 1913.91,-741.43"/>
<text text-anchor="middle" x="1988.25" y="-761.95" font-family="Times New Roman,serif" font-size="14.00">ConfermaPaRicevuta</text>
</g>
<!-- AssegnazioneSopralluogo -->
<g id="node21" class="node">
<title>AssegnazioneSopralluogo</title>
<path fill="none" stroke="black" d="M2744.38,-741.5C2744.38,-741.5 2607.62,-741.5 2607.62,-741.5 2601.62,-741.5 2595.62,-735.5 2595.62,-729.5 2595.62,-729.5 2595.62,-717.5 2595.62,-717.5 2595.62,-711.5 2601.62,-705.5 2607.62,-705.5 2607.62,-705.5 2744.38,-705.5 2744.38,-705.5 2750.38,-705.5 2756.38,-711.5 2756.38,-717.5 2756.38,-717.5 2756.38,-729.5 2756.38,-729.5 2756.38,-735.5 2750.38,-741.5 2744.38,-741.5"/>
<text text-anchor="middle" x="2676" y="-718.08" font-family="Times New Roman,serif" font-size="14.00">AssegnazioneSopralluogo</text>
</g>
<!-- AvvioSopralluogo&#45;&gt;AssegnazioneSopralluogo -->
<g id="edge33" class="edge">
<title>AvvioSopralluogo&#45;&gt;AssegnazioneSopralluogo</title>
<path fill="none" stroke="black" d="M2587.46,-792.9C2603.86,-780.23 2626.31,-762.89 2644.5,-748.83"/>
<polygon fill="black" stroke="black" points="2646.6,-751.64 2652.37,-742.75 2642.32,-746.1 2646.6,-751.64"/>
<text text-anchor="middle" x="2686.62" y="-761.95" font-family="Times New Roman,serif" font-size="14.00">SopralluogoAvvioto</text>
</g>
<!-- PianificazioneSopralluogo -->
<g id="node22" class="node">
<title>PianificazioneSopralluogo</title>
<path fill="none" stroke="black" d="M3133.38,-632C3133.38,-632 2996.62,-632 2996.62,-632 2990.62,-632 2984.62,-626 2984.62,-620 2984.62,-620 2984.62,-608 2984.62,-608 2984.62,-602 2990.62,-596 2996.62,-596 2996.62,-596 3133.38,-596 3133.38,-596 3139.38,-596 3145.38,-602 3145.38,-608 3145.38,-608 3145.38,-620 3145.38,-620 3145.38,-626 3139.38,-632 3133.38,-632"/>
<text text-anchor="middle" x="3065" y="-608.58" font-family="Times New Roman,serif" font-size="14.00">PianificazioneSopralluogo</text>
</g>
<!-- AssegnazioneSopralluogo&#45;&gt;PianificazioneSopralluogo -->
<g id="edge34" class="edge">
<title>AssegnazioneSopralluogo&#45;&gt;PianificazioneSopralluogo</title>
<path fill="none" stroke="black" stroke-dasharray="1,5" d="M2738.93,-705.11C2807.76,-686.09 2917.96,-655.64 2990.91,-635.48"/>
<polygon fill="black" stroke="black" points="2991.67,-638.9 3000.38,-632.86 2989.81,-632.15 2991.67,-638.9"/>
<text text-anchor="middle" x="2921.38" y="-674.2" font-family="Times New Roman,serif" font-size="14.00">SopralluogoAssegnato</text>
</g>
<!-- EsecuzioneSopralluogo -->
<g id="node23" class="node">
<title>EsecuzioneSopralluogo</title>
<path fill="none" stroke="black" d="M2761.62,-522.5C2761.62,-522.5 2638.38,-522.5 2638.38,-522.5 2632.38,-522.5 2626.38,-516.5 2626.38,-510.5 2626.38,-510.5 2626.38,-498.5 2626.38,-498.5 2626.38,-492.5 2632.38,-486.5 2638.38,-486.5 2638.38,-486.5 2761.62,-486.5 2761.62,-486.5 2767.62,-486.5 2773.62,-492.5 2773.62,-498.5 2773.62,-498.5 2773.62,-510.5 2773.62,-510.5 2773.62,-516.5 2767.62,-522.5 2761.62,-522.5"/>
<text text-anchor="middle" x="2700" y="-499.07" font-family="Times New Roman,serif" font-size="14.00">EsecuzioneSopralluogo</text>
</g>
<!-- PianificazioneSopralluogo&#45;&gt;EsecuzioneSopralluogo -->
<g id="edge35" class="edge">
<title>PianificazioneSopralluogo&#45;&gt;EsecuzioneSopralluogo</title>
<path fill="none" stroke="black" d="M2984.22,-604.11C2937.69,-599.11 2878.08,-592.91 2825,-588 2811.26,-586.73 2710.69,-588.06 2701.25,-578 2690.51,-566.56 2689.93,-549.06 2692.17,-534.13"/>
<polygon fill="black" stroke="black" points="2695.6,-534.84 2694.13,-524.35 2688.73,-533.47 2695.6,-534.84"/>
<text text-anchor="middle" x="2764.38" y="-564.7" font-family="Times New Roman,serif" font-size="14.00">SopralluogoPianificato</text>
</g>
<!-- VerificaSopralluogoDopoRifiuto -->
<g id="node24" class="node">
<title>VerificaSopralluogoDopoRifiuto</title>
<path fill="none" stroke="black" d="M3399.12,-522.5C3399.12,-522.5 3224.88,-522.5 3224.88,-522.5 3218.88,-522.5 3212.88,-516.5 3212.88,-510.5 3212.88,-510.5 3212.88,-498.5 3212.88,-498.5 3212.88,-492.5 3218.88,-486.5 3224.88,-486.5 3224.88,-486.5 3399.12,-486.5 3399.12,-486.5 3405.12,-486.5 3411.12,-492.5 3411.12,-498.5 3411.12,-498.5 3411.12,-510.5 3411.12,-510.5 3411.12,-516.5 3405.12,-522.5 3399.12,-522.5"/>
<text text-anchor="middle" x="3312" y="-499.07" font-family="Times New Roman,serif" font-size="14.00">VerificaSopralluogoDopoRifiuto</text>
</g>
<!-- PianificazioneSopralluogo&#45;&gt;VerificaSopralluogoDopoRifiuto -->
<g id="edge36" class="edge">
<title>PianificazioneSopralluogo&#45;&gt;VerificaSopralluogoDopoRifiuto</title>
<path fill="none" stroke="black" d="M3145.8,-610.18C3240.03,-606.05 3385.14,-596.7 3402,-578 3419.04,-559.1 3397.11,-541.14 3370.65,-527.82"/>
<polygon fill="black" stroke="black" points="3372.26,-524.71 3361.72,-523.6 3369.27,-531.04 3372.26,-524.71"/>
<text text-anchor="middle" x="3466.12" y="-564.7" font-family="Times New Roman,serif" font-size="14.00">SopralluogoRifiutato</text>
</g>
<!-- EsecuzioneSopralluogo&#45;&gt;AssegnazioneSopralluogoPCE -->
<g id="edge44" class="edge">
<title>EsecuzioneSopralluogo&#45;&gt;AssegnazioneSopralluogoPCE</title>
<path fill="none" stroke="black" d="M2625.99,-496.84C2561.99,-491.27 2466.95,-483.47 2384,-478.5 1863.67,-447.34 1240.36,-427.67 996.29,-420.65"/>
<polygon fill="black" stroke="black" points="996.57,-417.15 986.47,-420.37 996.36,-424.15 996.57,-417.15"/>
<text text-anchor="middle" x="2253.38" y="-455.2" font-family="Times New Roman,serif" font-size="14.00">AnnullamentoSopralluogo</text>
</g>
<!-- EsecuzioneSopralluogo&#45;&gt;AssegnazioneSopralluogo -->
<g id="edge37" class="edge">
<title>EsecuzioneSopralluogo&#45;&gt;AssegnazioneSopralluogo</title>
<path fill="none" stroke="black" d="M2696.13,-522.8C2693.75,-534 2690.83,-548.93 2689,-562.25 2682.72,-608.1 2679.12,-661.79 2677.36,-693.92"/>
<polygon fill="black" stroke="black" points="2673.88,-693.44 2676.86,-703.61 2680.87,-693.81 2673.88,-693.44"/>
<text text-anchor="middle" x="2757.38" y="-608.58" font-family="Times New Roman,serif" font-size="14.00">AnnullamentoSopralluogo</text>
</g>
<!-- EsecuzioneSopralluogo&#45;&gt;PianificazioneSopralluogo -->
<g id="edge38" class="edge">
<title>EsecuzioneSopralluogo&#45;&gt;PianificazioneSopralluogo</title>
<path fill="none" stroke="black" d="M2744.48,-522.92C2769.54,-533.3 2801.11,-547.34 2828,-562.25 2838.91,-568.3 2839.65,-573.38 2851.25,-578 2889.57,-593.25 2934.28,-601.86 2972.88,-606.72"/>
<polygon fill="black" stroke="black" points="2972.28,-610.17 2982.62,-607.87 2973.1,-603.22 2972.28,-610.17"/>
<text text-anchor="middle" x="2918.88" y="-564.7" font-family="Times New Roman,serif" font-size="14.00">AppuntamentoAnnullato</text>
</g>
<!-- EsecuzioneSopralluogo&#45;&gt;PianificazioneSopralluogo -->
<g id="edge39" class="edge">
<title>EsecuzioneSopralluogo&#45;&gt;PianificazioneSopralluogo</title>
<path fill="none" stroke="black" d="M2774.09,-511.74C2833.53,-518.71 2918.12,-533.1 2987,-562.25 2998.33,-567.04 2999.5,-571.21 3009.75,-578 3015.53,-581.83 3021.69,-585.82 3027.73,-589.68"/>
<polygon fill="black" stroke="black" points="3025.44,-592.37 3035.76,-594.78 3029.19,-586.46 3025.44,-592.37"/>
<text text-anchor="middle" x="3053.62" y="-564.7" font-family="Times New Roman,serif" font-size="14.00">ChiusuraAttivita</text>
</g>
<!-- EsecuzioneSopralluogo&#45;&gt;PianificazioneSopralluogo -->
<g id="edge40" class="edge">
<title>EsecuzioneSopralluogo&#45;&gt;PianificazioneSopralluogo</title>
<path fill="none" stroke="black" d="M2773.7,-504.96C2877.23,-505.96 3057.73,-514.69 3099,-562.25 3105.66,-569.92 3102.58,-578.95 3096.11,-587.25"/>
<polygon fill="black" stroke="black" points="3093.68,-584.73 3089.45,-594.44 3098.82,-589.49 3093.68,-584.73"/>
<text text-anchor="middle" x="3166.88" y="-564.7" font-family="Times New Roman,serif" font-size="14.00">ChiusuraSoprallVariato</text>
</g>
<!-- EsecuzioneSopralluogo&#45;&gt;EsecuzioneSopralluogo -->
<g id="edge41" class="edge">
<title>EsecuzioneSopralluogo&#45;&gt;EsecuzioneSopralluogo</title>
<path fill="none" stroke="black" d="M2774.06,-508.19C2784.57,-507.59 2791.62,-506.36 2791.62,-504.5 2791.62,-503.42 2789.27,-502.56 2785.25,-501.9"/>
<polygon fill="black" stroke="black" points="2785.86,-498.45 2775.56,-500.96 2785.18,-505.41 2785.86,-498.45"/>
<text text-anchor="middle" x="2863.62" y="-499.07" font-family="Times New Roman,serif" font-size="14.00">AppuntamentoModificato</text>
</g>
<!-- EsecuzioneSopralluogo&#45;&gt;EsecuzioneSopralluogo -->
<g id="edge42" class="edge">
<title>EsecuzioneSopralluogo&#45;&gt;EsecuzioneSopralluogo</title>
<path fill="none" stroke="black" d="M2773.87,-511.69C2844.18,-514.33 2935.62,-511.93 2935.62,-504.5 2935.62,-497.46 2853.57,-494.94 2785.15,-496.94"/>
<polygon fill="black" stroke="black" points="2785.26,-493.43 2775.38,-497.26 2785.49,-500.43 2785.26,-493.43"/>
<text text-anchor="middle" x="3003.88" y="-499.07" font-family="Times New Roman,serif" font-size="14.00">DatiObbligatoriMancanti</text>
</g>
<!-- ApprovazioneSopralluogo -->
<g id="node25" class="node">
<title>ApprovazioneSopralluogo</title>
<path fill="none" stroke="black" d="M3326.5,-434.75C3326.5,-434.75 3187.5,-434.75 3187.5,-434.75 3181.5,-434.75 3175.5,-428.75 3175.5,-422.75 3175.5,-422.75 3175.5,-410.75 3175.5,-410.75 3175.5,-404.75 3181.5,-398.75 3187.5,-398.75 3187.5,-398.75 3326.5,-398.75 3326.5,-398.75 3332.5,-398.75 3338.5,-404.75 3338.5,-410.75 3338.5,-410.75 3338.5,-422.75 3338.5,-422.75 3338.5,-428.75 3332.5,-434.75 3326.5,-434.75"/>
<text text-anchor="middle" x="3257" y="-411.32" font-family="Times New Roman,serif" font-size="14.00">ApprovazioneSopralluogo</text>
</g>
<!-- EsecuzioneSopralluogo&#45;&gt;ApprovazioneSopralluogo -->
<g id="edge43" class="edge">
<title>EsecuzioneSopralluogo&#45;&gt;ApprovazioneSopralluogo</title>
<path fill="none" stroke="black" stroke-dasharray="1,5" d="M2773.97,-492.11C2874.43,-476.65 3054.03,-449 3163.66,-432.12"/>
<polygon fill="black" stroke="black" points="3164.18,-435.58 3173.53,-430.6 3163.11,-428.66 3164.18,-435.58"/>
<text text-anchor="middle" x="3106.75" y="-455.2" font-family="Times New Roman,serif" font-size="14.00">RichiestaNuovoSopralluogo</text>
</g>
<!-- VerificaSopralluogoDopoRifiuto&#45;&gt;PianificazioneSopralluogo -->
<g id="edge45" class="edge">
<title>VerificaSopralluogoDopoRifiuto&#45;&gt;PianificazioneSopralluogo</title>
<path fill="none" stroke="black" d="M3299.8,-522.84C3285.97,-541.99 3263.83,-571.04 3252,-578 3223.49,-594.79 3188.65,-603.8 3156.81,-608.55"/>
<polygon fill="black" stroke="black" points="3156.62,-605.04 3147.18,-609.85 3157.56,-611.98 3156.62,-605.04"/>
<text text-anchor="middle" x="3331.38" y="-564.7" font-family="Times New Roman,serif" font-size="14.00">SopralluogoAssegnato</text>
</g>
<!-- ApprovazioneSopralluogo&#45;&gt;PianificazioneSopralluogo -->
<g id="edge46" class="edge">
<title>ApprovazioneSopralluogo&#45;&gt;PianificazioneSopralluogo</title>
<path fill="none" stroke="black" stroke-dasharray="1,5" d="M3338.58,-434.15C3440.36,-458.03 3593.5,-507.36 3528,-578 3503.36,-604.57 3284.89,-611.08 3157.05,-612.61"/>
<polygon fill="black" stroke="black" points="3157.2,-609.1 3147.24,-612.71 3157.28,-616.1 3157.2,-609.1"/>
<text text-anchor="middle" x="3573.38" y="-499.07" font-family="Times New Roman,serif" font-size="14.00">Approvato</text>
</g>
<!-- NuovoSopralluogoNonApprovato -->
<g id="node26" class="node">
<title>NuovoSopralluogoNonApprovato</title>
<path fill="none" stroke="black" d="M3348.62,-347C3348.62,-347 3165.38,-347 3165.38,-347 3159.38,-347 3153.38,-341 3153.38,-335 3153.38,-335 3153.38,-323 3153.38,-323 3153.38,-317 3159.38,-311 3165.38,-311 3165.38,-311 3348.62,-311 3348.62,-311 3354.62,-311 3360.62,-317 3360.62,-323 3360.62,-323 3360.62,-335 3360.62,-335 3360.62,-341 3354.62,-347 3348.62,-347"/>
<text text-anchor="middle" x="3257" y="-323.57" font-family="Times New Roman,serif" font-size="14.00">NuovoSopralluogoNonApprovato</text>
</g>
<!-- ApprovazioneSopralluogo&#45;&gt;NuovoSopralluogoNonApprovato -->
<g id="edge47" class="edge">
<title>ApprovazioneSopralluogo&#45;&gt;NuovoSopralluogoNonApprovato</title>
<path fill="none" stroke="black" d="M3257,-398.4C3257,-387.01 3257,-371.84 3257,-358.68"/>
<polygon fill="black" stroke="black" points="3260.5,-358.84 3257,-348.84 3253.5,-358.84 3260.5,-358.84"/>
<text text-anchor="middle" x="3299.38" y="-367.45" font-family="Times New Roman,serif" font-size="14.00">NonApprovato</text>
</g>
<!-- Pa_Sopralluogo -->
<g id="node27" class="node">
<title>Pa_Sopralluogo</title>
<path fill="none" stroke="black" d="M2544,-632C2544,-632 2462,-632 2462,-632 2456,-632 2450,-626 2450,-620 2450,-620 2450,-608 2450,-608 2450,-602 2456,-596 2462,-596 2462,-596 2544,-596 2544,-596 2550,-596 2556,-602 2556,-608 2556,-608 2556,-620 2556,-620 2556,-626 2550,-632 2544,-632"/>
<text text-anchor="middle" x="2503" y="-608.58" font-family="Times New Roman,serif" font-size="14.00">Pa_Sopralluogo</text>
</g>
<!-- Pa_Sopralluogo&#45;&gt;EsecuzioneSopralluogo -->
<g id="edge48" class="edge">
<title>Pa_Sopralluogo&#45;&gt;EsecuzioneSopralluogo</title>
<path fill="none" stroke="black" stroke-dasharray="1,5" d="M2518.19,-595.71C2528.34,-584.97 2542.45,-571.5 2557,-562.25 2579.78,-547.77 2606.86,-535.88 2631.29,-526.79"/>
<polygon fill="black" stroke="black" points="2632.3,-530.15 2640.51,-523.46 2629.92,-523.57 2632.3,-530.15"/>
<text text-anchor="middle" x="2614" y="-564.7" font-family="Times New Roman,serif" font-size="14.00">RichiestaPaRicevuta</text>
</g>
<!-- Pa_Sopralluogo&#45;&gt;EsecuzioneSopralluogo -->
<g id="edge49" class="edge">
<title>Pa_Sopralluogo&#45;&gt;EsecuzioneSopralluogo</title>
<path fill="none" stroke="black" stroke-dasharray="1,5" d="M2449.78,-601.34C2423.3,-593.05 2399.78,-580.18 2414.5,-562.25 2439.51,-531.78 2540.04,-517.37 2614.78,-510.77"/>
<polygon fill="black" stroke="black" points="2614.89,-514.27 2624.56,-509.94 2614.3,-507.29 2614.89,-514.27"/>
<text text-anchor="middle" x="2473.25" y="-564.7" font-family="Times New Roman,serif" font-size="14.00">ConfermaPaRicevuta</text>
</g>
<!-- GestioneSelfCare -->
<g id="node29" class="node">
<title>GestioneSelfCare</title>
<path fill="none" stroke="black" d="M1096.75,-741.5C1096.75,-741.5 1007.25,-741.5 1007.25,-741.5 1001.25,-741.5 995.25,-735.5 995.25,-729.5 995.25,-729.5 995.25,-717.5 995.25,-717.5 995.25,-711.5 1001.25,-705.5 1007.25,-705.5 1007.25,-705.5 1096.75,-705.5 1096.75,-705.5 1102.75,-705.5 1108.75,-711.5 1108.75,-717.5 1108.75,-717.5 1108.75,-729.5 1108.75,-729.5 1108.75,-735.5 1102.75,-741.5 1096.75,-741.5"/>
<text text-anchor="middle" x="1052" y="-718.08" font-family="Times New Roman,serif" font-size="14.00">GestioneSelfCare</text>
</g>
<!-- AvvioAccertSelfCare&#45;&gt;GestioneSelfCare -->
<g id="edge8" class="edge">
<title>AvvioAccertSelfCare&#45;&gt;GestioneSelfCare</title>
<path fill="none" stroke="black" d="M1058.77,-792.89C1057.54,-787.29 1056.31,-781.03 1055.5,-775.25 1054.51,-768.19 1053.79,-760.54 1053.28,-753.37"/>
<polygon fill="black" stroke="black" points="1056.77,-753.23 1052.68,-743.46 1049.79,-753.65 1056.77,-753.23"/>
<text text-anchor="middle" x="1117.25" y="-761.95" font-family="Times New Roman,serif" font-size="14.00">AccertSelfCareAvviati</text>
</g>
<!-- AvvioChiusura -->
<g id="node30" class="node">
<title>AvvioChiusura</title>
<path fill="none" stroke="black" d="M1082.62,-632C1082.62,-632 1007.38,-632 1007.38,-632 1001.38,-632 995.38,-626 995.38,-620 995.38,-620 995.38,-608 995.38,-608 995.38,-602 1001.38,-596 1007.38,-596 1007.38,-596 1082.62,-596 1082.62,-596 1088.62,-596 1094.62,-602 1094.62,-608 1094.62,-608 1094.62,-620 1094.62,-620 1094.62,-626 1088.62,-632 1082.62,-632"/>
<text text-anchor="middle" x="1045" y="-608.58" font-family="Times New Roman,serif" font-size="14.00">AvvioChiusura</text>
</g>
<!-- GestioneSelfCare&#45;&gt;AvvioChiusura -->
<g id="edge9" class="edge">
<title>GestioneSelfCare&#45;&gt;AvvioChiusura</title>
<path fill="none" stroke="black" d="M1033.82,-705.12C1029.52,-699.91 1025.53,-693.87 1023.25,-687.5 1018.01,-672.86 1022.26,-656.26 1028.35,-642.64"/>
<polygon fill="black" stroke="black" points="1031.43,-644.31 1032.8,-633.8 1025.18,-641.16 1031.43,-644.31"/>
<text text-anchor="middle" x="1101.38" y="-674.2" font-family="Times New Roman,serif" font-size="14.00">AvvioChiusuraPostSelfCare</text>
</g>
<!-- GestioneSelfCare&#45;&gt;AvvioPerizia -->
<g id="edge10" class="edge">
<title>GestioneSelfCare&#45;&gt;AvvioPerizia</title>
<path fill="none" stroke="black" d="M1109.19,-713.36C1131.26,-710.24 1156.74,-707.13 1180,-705.5 1245.92,-700.89 3498.97,-715.14 3559,-687.5 3579.45,-678.09 3595.85,-658.44 3606.78,-641.98"/>
<polygon fill="black" stroke="black" points="3609.73,-643.87 3612.07,-633.53 3603.79,-640.15 3609.73,-643.87"/>
<text text-anchor="middle" x="2289.11" y="-691.84" font-family="Times New Roman,serif" font-size="14.00">AvvioPeriziaPostSelfCare</text>
</g>
</g>
</svg>
