<?xml version="1.0" encoding="UTF-8" standalone="no"?>
<!DOCTYPE svg PUBLIC "-//W3C//DTD SVG 1.1//EN"
 "http://www.w3.org/Graphics/SVG/1.1/DTD/svg11.dtd">
<!-- Generated by graphviz version 9.0.0 (20230911.1827)
 -->
<!-- Title: finite_state_machine Pages: 1 -->
<svg width="414pt" height="360pt"
 viewBox="0.00 0.00 413.87 360.00" xmlns="http://www.w3.org/2000/svg" xmlns:xlink="http://www.w3.org/1999/xlink">
<g id="graph0" class="graph" transform="scale(0.170334 0.170334) rotate(0) translate(4 2109.49)">
<title>finite_state_machine</title>
<polygon fill="white" stroke="none" points="-4,4 -4,-2109.49 2425.74,-2109.49 2425.74,4 -4,4"/>
<text text-anchor="middle" x="1210.87" y="-6.45" font-family="Times New Roman,serif" font-size="14.00">Assessment</text>
<!-- Apertura -->
<g id="node1" class="node">
<title>Apertura</title>
<polygon fill="lightgrey" stroke="black" points="64.75,-1503.74 0,-1503.74 0,-1467.74 64.75,-1467.74 64.75,-1503.74"/>
<text text-anchor="middle" x="32.38" y="-1480.31" font-family="Times New Roman,serif" font-size="14.00">Apertura</text>
</g>
<!-- AvvioVisio -->
<g id="node3" class="node">
<title>AvvioVisio</title>
<ellipse fill="none" stroke="black" cx="201.72" cy="-1814.74" rx="52.56" ry="52.56"/>
<ellipse fill="none" stroke="black" cx="201.72" cy="-1814.74" rx="56.56" ry="56.56"/>
<text text-anchor="middle" x="201.72" y="-1809.31" font-family="Times New Roman,serif" font-size="14.00">AvvioVisio</text>
</g>
<!-- Apertura&#45;&gt;AvvioVisio -->
<g id="edge8" class="edge">
<title>Apertura&#45;&gt;AvvioVisio</title>
<path fill="none" stroke="black" d="M33.29,-1504.08C33.9,-1545.35 39.97,-1647.36 82.75,-1717.74 97.69,-1742.32 121.16,-1763.49 143.24,-1779.73"/>
<polygon fill="black" stroke="black" points="141.18,-1782.56 151.36,-1785.5 145.24,-1776.85 141.18,-1782.56"/>
</g>
<!-- AvvioAccertSelfCare -->
<g id="node5" class="node">
<title>AvvioAccertSelfCare</title>
<ellipse fill="none" stroke="black" cx="413.68" cy="-1594.74" rx="89.99" ry="89.99"/>
<ellipse fill="none" stroke="black" cx="413.68" cy="-1594.74" rx="93.99" ry="93.99"/>
<text text-anchor="middle" x="413.68" y="-1589.31" font-family="Times New Roman,serif" font-size="14.00">AvvioAccertSelfCare</text>
</g>
<!-- Apertura&#45;&gt;AvvioAccertSelfCare -->
<g id="edge9" class="edge">
<title>Apertura&#45;&gt;AvvioAccertSelfCare</title>
<path fill="none" stroke="black" d="M65.06,-1494.85C118.74,-1510.27 229.72,-1542.16 311.92,-1565.78"/>
<polygon fill="black" stroke="black" points="310.77,-1569.1 321.35,-1568.49 312.71,-1562.37 310.77,-1569.1"/>
</g>
<!-- AvvioDesk -->
<g id="node6" class="node">
<title>AvvioDesk</title>
<ellipse fill="none" stroke="black" cx="201.72" cy="-1401.74" rx="52.06" ry="52.06"/>
<ellipse fill="none" stroke="black" cx="201.72" cy="-1401.74" rx="56.06" ry="56.06"/>
<text text-anchor="middle" x="201.72" y="-1396.31" font-family="Times New Roman,serif" font-size="14.00">AvvioDesk</text>
</g>
<!-- Apertura&#45;&gt;AvvioDesk -->
<g id="edge10" class="edge">
<title>Apertura&#45;&gt;AvvioDesk</title>
<path fill="none" stroke="black" d="M65.25,-1469.74C86.68,-1458.98 115.59,-1444.47 141.19,-1431.62"/>
<polygon fill="black" stroke="black" points="142.47,-1434.89 149.84,-1427.28 139.33,-1428.64 142.47,-1434.89"/>
</g>
<!-- AvvioManualeDesk -->
<g id="node8" class="node">
<title>AvvioManualeDesk</title>
<ellipse fill="none" stroke="black" cx="1550.7" cy="-1453.74" rx="83" ry="83"/>
<ellipse fill="none" stroke="black" cx="1550.7" cy="-1453.74" rx="87" ry="87"/>
<text text-anchor="middle" x="1550.7" y="-1448.31" font-family="Times New Roman,serif" font-size="14.00">AvvioManualeDesk</text>
</g>
<!-- Apertura&#45;&gt;AvvioManualeDesk -->
<g id="edge11" class="edge">
<title>Apertura&#45;&gt;AvvioManualeDesk</title>
<path fill="none" stroke="black" d="M65.03,-1483.89C157.71,-1478.92 426.99,-1467.7 507.67,-1499.74 517.62,-1503.69 515.68,-1511.89 525.67,-1515.74 707.25,-1585.73 768.9,-1518.85 963.5,-1519.74 1074.09,-1520.24 1101.88,-1525.22 1212.33,-1519.74 1288.61,-1515.96 1308.37,-1517.37 1383.33,-1502.74 1407.55,-1498.01 1433.31,-1491.29 1457.15,-1484.34"/>
<polygon fill="black" stroke="black" points="1457.91,-1487.76 1466.5,-1481.56 1455.92,-1481.05 1457.91,-1487.76"/>
</g>
<!-- AvvioManualeVisio -->
<g id="node9" class="node">
<title>AvvioManualeVisio</title>
<ellipse fill="none" stroke="black" cx="1550.7" cy="-1801.74" rx="83.5" ry="83.5"/>
<ellipse fill="none" stroke="black" cx="1550.7" cy="-1801.74" rx="87.5" ry="87.5"/>
<text text-anchor="middle" x="1550.7" y="-1796.31" font-family="Times New Roman,serif" font-size="14.00">AvvioManualeVisio</text>
</g>
<!-- Apertura&#45;&gt;AvvioManualeVisio -->
<g id="edge12" class="edge">
<title>Apertura&#45;&gt;AvvioManualeVisio</title>
<path fill="none" stroke="black" d="M37.84,-1503.95C51.87,-1556.35 100.29,-1703.74 200.72,-1703.74 200.72,-1703.74 200.72,-1703.74 1088.92,-1703.74 1218.59,-1703.74 1364.39,-1741.33 1456.6,-1769.95"/>
<polygon fill="black" stroke="black" points="1455.54,-1773.29 1466.13,-1772.94 1457.64,-1766.61 1455.54,-1773.29"/>
</g>
<!-- AvvioSopralluogo -->
<g id="node10" class="node">
<title>AvvioSopralluogo</title>
<ellipse fill="none" stroke="black" cx="201.72" cy="-995.74" rx="78.51" ry="78.51"/>
<ellipse fill="none" stroke="black" cx="201.72" cy="-995.74" rx="82.51" ry="82.51"/>
<text text-anchor="middle" x="201.72" y="-990.31" font-family="Times New Roman,serif" font-size="14.00">AvvioSopralluogo</text>
</g>
<!-- Apertura&#45;&gt;AvvioSopralluogo -->
<g id="edge13" class="edge">
<title>Apertura&#45;&gt;AvvioSopralluogo</title>
<path fill="none" stroke="black" d="M39.63,-1467.43C60.66,-1405.85 129.77,-1203.48 170.32,-1084.76"/>
<polygon fill="black" stroke="black" points="173.62,-1085.92 173.54,-1075.33 167,-1083.66 173.62,-1085.92"/>
</g>
<!-- AvvioSopralluogoPCE -->
<g id="node12" class="node">
<title>AvvioSopralluogoPCE</title>
<ellipse fill="none" stroke="black" cx="201.72" cy="-410.74" rx="95.97" ry="95.97"/>
<ellipse fill="none" stroke="black" cx="201.72" cy="-410.74" rx="99.97" ry="99.97"/>
<text text-anchor="middle" x="201.72" y="-405.31" font-family="Times New Roman,serif" font-size="14.00">AvvioSopralluogoPCE</text>
</g>
<!-- Apertura&#45;&gt;AvvioSopralluogoPCE -->
<g id="edge14" class="edge">
<title>Apertura&#45;&gt;AvvioSopralluogoPCE</title>
<path fill="none" stroke="black" d="M34.97,-1467.56C41.38,-1395.73 66.64,-1124.79 101.75,-903.74 122.9,-770.57 154.56,-618.63 176.35,-519.04"/>
<polygon fill="black" stroke="black" points="179.71,-520.06 178.43,-509.55 172.87,-518.56 179.71,-520.06"/>
</g>
<!-- AvvioPerizia -->
<g id="node2" class="node">
<title>AvvioPerizia</title>
<ellipse fill="lightgrey" stroke="black" cx="2364.19" cy="-1097.74" rx="57.55" ry="57.55"/>
<text text-anchor="middle" x="2364.19" y="-1092.31" font-family="Times New Roman,serif" font-size="14.00">AvvioPerizia</text>
</g>
<!-- EsecuzioneVisio -->
<g id="node4" class="node">
<title>EsecuzioneVisio</title>
<ellipse fill="none" stroke="black" cx="650.08" cy="-1840.74" rx="72.02" ry="72.02"/>
<text text-anchor="middle" x="650.08" y="-1835.31" font-family="Times New Roman,serif" font-size="14.00">EsecuzioneVisio</text>
</g>
<!-- AvvioVisio&#45;&gt;EsecuzioneVisio -->
<g id="edge1" class="edge">
<title>AvvioVisio&#45;&gt;EsecuzioneVisio</title>
<path fill="none" stroke="black" d="M258.35,-1817.98C335.9,-1822.5 477.04,-1830.72 566.78,-1835.95"/>
<polygon fill="black" stroke="black" points="566.3,-1839.42 576.49,-1836.51 566.71,-1832.44 566.3,-1839.42"/>
<text text-anchor="middle" x="413.68" y="-1835.19" font-family="Times New Roman,serif" font-size="14.00">VisioAvviata</text>
</g>
<!-- EsecuzioneVisio&#45;&gt;AvvioPerizia -->
<g id="edge17" class="edge">
<title>EsecuzioneVisio&#45;&gt;AvvioPerizia</title>
<path fill="none" stroke="black" d="M694.2,-1898.24C719.96,-1929.48 754.93,-1966.9 792.5,-1992.74 906.01,-2070.81 949.15,-2089.74 1086.92,-2089.74 1086.92,-2089.74 1086.92,-2089.74 2060.98,-2089.74 2254.31,-2089.74 2335.96,-1391.57 2357.24,-1166.66"/>
<polygon fill="black" stroke="black" points="2360.71,-1167.15 2358.16,-1156.87 2353.74,-1166.5 2360.71,-1167.15"/>
<text text-anchor="middle" x="1550.7" y="-2092.19" font-family="Times New Roman,serif" font-size="14.00">VisioCompletata</text>
</g>
<!-- EsecuzioneVisio&#45;&gt;EsecuzioneVisio -->
<g id="edge18" class="edge">
<title>EsecuzioneVisio&#45;&gt;EsecuzioneVisio</title>
<path fill="none" stroke="black" d="M609.2,-1900.47C610.8,-1917.57 624.43,-1930.76 650.08,-1930.76 669.93,-1930.76 682.57,-1922.87 688.03,-1911.39"/>
<polygon fill="black" stroke="black" points="691.35,-1912.5 690.58,-1901.93 684.59,-1910.68 691.35,-1912.5"/>
<text text-anchor="middle" x="650.08" y="-1933.21" font-family="Times New Roman,serif" font-size="14.00">AppuntamentoModificato</text>
</g>
<!-- EsecuzioneVisio&#45;&gt;AvvioManualeVisio -->
<g id="edge15" class="edge">
<title>EsecuzioneVisio&#45;&gt;AvvioManualeVisio</title>
<path fill="none" stroke="black" d="M707.25,-1884.84C766.91,-1928.64 865.89,-1992.88 963.5,-2018.74 1070.41,-2047.06 1106.23,-2049.92 1212.33,-2018.74 1312.68,-1989.25 1411.4,-1919.68 1475.87,-1867.2"/>
<polygon fill="black" stroke="black" points="1478.06,-1869.93 1483.56,-1860.88 1473.61,-1864.52 1478.06,-1869.93"/>
<text text-anchor="middle" x="1087.92" y="-2044.19" font-family="Times New Roman,serif" font-size="14.00">AppuntamentoAnnullato</text>
</g>
<!-- EsecuzioneVisio&#45;&gt;AvvioManualeVisio -->
<g id="edge16" class="edge">
<title>EsecuzioneVisio&#45;&gt;AvvioManualeVisio</title>
<path fill="none" stroke="black" d="M722,-1832.37C785.24,-1825.3 880.4,-1815.59 963.5,-1810.99 1134.88,-1801.49 1334.84,-1800.49 1451.36,-1800.92"/>
<polygon fill="black" stroke="black" points="1451.19,-1804.42 1461.21,-1800.96 1451.22,-1797.42 1451.19,-1804.42"/>
<text text-anchor="middle" x="1087.92" y="-1814.19" font-family="Times New Roman,serif" font-size="14.00">VisioCompletataNuovaVisio</text>
</g>
<!-- RiassegnazioneVisio -->
<g id="node14" class="node">
<title>RiassegnazioneVisio</title>
<ellipse fill="none" stroke="black" cx="1087.92" cy="-1922.74" rx="86.99" ry="86.99"/>
<text text-anchor="middle" x="1087.92" y="-1917.31" font-family="Times New Roman,serif" font-size="14.00">RiassegnazioneVisio</text>
</g>
<!-- EsecuzioneVisio&#45;&gt;RiassegnazioneVisio -->
<g id="edge19" class="edge">
<title>EsecuzioneVisio&#45;&gt;RiassegnazioneVisio</title>
<path fill="none" stroke="black" d="M721.11,-1853.91C794.19,-1867.66 909.29,-1889.32 990.84,-1904.66"/>
<polygon fill="black" stroke="black" points="990.15,-1908.1 1000.63,-1906.5 991.45,-1901.22 990.15,-1908.1"/>
<text text-anchor="middle" x="869" y="-1897.19" font-family="Times New Roman,serif" font-size="14.00">VisioRifiutata</text>
</g>
<!-- AvvioAccertSelfCare&#45;&gt;AvvioPerizia -->
<g id="edge2" class="edge">
<title>AvvioAccertSelfCare&#45;&gt;AvvioPerizia</title>
<path fill="none" stroke="black" d="M508.01,-1593.44C599.66,-1592.27 743.45,-1590.74 868,-1590.74 868,-1590.74 868,-1590.74 2060.98,-1590.74 2257.98,-1590.74 2330.54,-1301.06 2353.68,-1165.81"/>
<polygon fill="black" stroke="black" points="2357.08,-1166.71 2355.27,-1156.27 2350.17,-1165.56 2357.08,-1166.71"/>
<text text-anchor="middle" x="1306.83" y="-1593.19" font-family="Times New Roman,serif" font-size="14.00">SelfCareCompletato</text>
</g>
<!-- EsecuzioneDesk -->
<g id="node7" class="node">
<title>EsecuzioneDesk</title>
<ellipse fill="none" stroke="black" cx="650.08" cy="-1401.74" rx="71.52" ry="71.52"/>
<text text-anchor="middle" x="650.08" y="-1396.31" font-family="Times New Roman,serif" font-size="14.00">EsecuzioneDesk</text>
</g>
<!-- AvvioDesk&#45;&gt;EsecuzioneDesk -->
<g id="edge3" class="edge">
<title>AvvioDesk&#45;&gt;EsecuzioneDesk</title>
<path fill="none" stroke="black" d="M257.9,-1401.74C335.41,-1401.74 477.08,-1401.74 566.98,-1401.74"/>
<polygon fill="black" stroke="black" points="566.71,-1405.24 576.71,-1401.74 566.71,-1398.24 566.71,-1405.24"/>
<text text-anchor="middle" x="413.68" y="-1404.19" font-family="Times New Roman,serif" font-size="14.00">DeskAvviata</text>
</g>
<!-- EsecuzioneDesk&#45;&gt;AvvioPerizia -->
<g id="edge23" class="edge">
<title>EsecuzioneDesk&#45;&gt;AvvioPerizia</title>
<path fill="none" stroke="black" d="M701.51,-1351.8C759.19,-1298.53 859.2,-1217.41 963.5,-1184.74 1069.04,-1151.68 1102.08,-1176.04 1212.33,-1184.74 1297.12,-1191.43 1316.54,-1208.05 1401.33,-1214.74 1748.95,-1242.16 1851.92,-1315 2185.89,-1214.74 2232.91,-1200.62 2278.96,-1169.56 2312.35,-1142.98"/>
<polygon fill="black" stroke="black" points="2314.25,-1145.95 2319.81,-1136.93 2309.84,-1140.51 2314.25,-1145.95"/>
<text text-anchor="middle" x="1550.7" y="-1254.19" font-family="Times New Roman,serif" font-size="14.00">DEskCompletata</text>
</g>
<!-- EsecuzioneDesk&#45;&gt;EsecuzioneDesk -->
<g id="edge24" class="edge">
<title>EsecuzioneDesk&#45;&gt;EsecuzioneDesk</title>
<path fill="none" stroke="black" d="M609.16,-1460.72C610.57,-1477.93 624.22,-1491.26 650.08,-1491.26 670.09,-1491.26 682.78,-1483.29 688.16,-1471.71"/>
<polygon fill="black" stroke="black" points="691.51,-1472.74 690.63,-1462.18 684.74,-1470.99 691.51,-1472.74"/>
<text text-anchor="middle" x="650.08" y="-1493.71" font-family="Times New Roman,serif" font-size="14.00">AppuntamentoModificato</text>
</g>
<!-- EsecuzioneDesk&#45;&gt;AvvioManualeDesk -->
<g id="edge21" class="edge">
<title>EsecuzioneDesk&#45;&gt;AvvioManualeDesk</title>
<path fill="none" stroke="black" d="M712.47,-1436.95C736.63,-1449.03 765.1,-1461.15 792.5,-1467.74 1024.56,-1523.51 1308.23,-1493.15 1453.64,-1470.77"/>
<polygon fill="black" stroke="black" points="1453.89,-1474.27 1463.23,-1469.27 1452.81,-1467.36 1453.89,-1474.27"/>
<text text-anchor="middle" x="1087.92" y="-1502.19" font-family="Times New Roman,serif" font-size="14.00">AppuntamentoAnnullato</text>
</g>
<!-- EsecuzioneDesk&#45;&gt;AvvioManualeDesk -->
<g id="edge22" class="edge">
<title>EsecuzioneDesk&#45;&gt;AvvioManualeDesk</title>
<path fill="none" stroke="black" d="M721.53,-1410.14C744.18,-1412.73 769.38,-1415.49 792.5,-1417.74 868.4,-1425.14 887.38,-1427.2 963.5,-1431.74 1135.18,-1441.98 1335.45,-1448.29 1451.88,-1451.39"/>
<polygon fill="black" stroke="black" points="1451.63,-1454.88 1461.72,-1451.65 1451.81,-1447.89 1451.63,-1454.88"/>
<text text-anchor="middle" x="1087.92" y="-1446.19" font-family="Times New Roman,serif" font-size="14.00">DeskCompletataNuovaDesk</text>
</g>
<!-- RiassegnazioneDesk -->
<g id="node15" class="node">
<title>RiassegnazioneDesk</title>
<ellipse fill="none" stroke="black" cx="1087.92" cy="-1279.74" rx="86.49" ry="86.49"/>
<text text-anchor="middle" x="1087.92" y="-1274.31" font-family="Times New Roman,serif" font-size="14.00">RiassegnazioneDesk</text>
</g>
<!-- EsecuzioneDesk&#45;&gt;RiassegnazioneDesk -->
<g id="edge25" class="edge">
<title>EsecuzioneDesk&#45;&gt;RiassegnazioneDesk</title>
<path fill="none" stroke="black" d="M719.18,-1382.68C792.96,-1362.02 911.14,-1328.94 993.55,-1305.87"/>
<polygon fill="black" stroke="black" points="994.28,-1309.3 1002.97,-1303.24 992.4,-1302.56 994.28,-1309.3"/>
<text text-anchor="middle" x="869" y="-1362.19" font-family="Times New Roman,serif" font-size="14.00">DeskRifiutata</text>
</g>
<!-- AvvioManualeDesk&#45;&gt;EsecuzioneDesk -->
<g id="edge4" class="edge">
<title>AvvioManualeDesk&#45;&gt;EsecuzioneDesk</title>
<path fill="none" stroke="black" d="M1464.26,-1442.12C1396.17,-1433.36 1298.33,-1421.88 1212.33,-1415.99 1042.34,-1404.34 842.8,-1401.96 733.33,-1401.62"/>
<polygon fill="black" stroke="black" points="733.58,-1398.12 723.57,-1401.59 733.56,-1405.12 733.58,-1398.12"/>
<text text-anchor="middle" x="1087.92" y="-1419.19" font-family="Times New Roman,serif" font-size="14.00">DeskPianificata</text>
</g>
<!-- AvvioManualeVisio&#45;&gt;EsecuzioneVisio -->
<g id="edge5" class="edge">
<title>AvvioManualeVisio&#45;&gt;EsecuzioneVisio</title>
<path fill="none" stroke="black" d="M1464.28,-1785.74C1322.25,-1762.31 1029.71,-1727.6 792.5,-1787.74 770.97,-1793.2 748.2,-1800.85 727.36,-1808.64"/>
<polygon fill="black" stroke="black" points="726.18,-1805.35 718.08,-1812.18 728.67,-1811.89 726.18,-1805.35"/>
<text text-anchor="middle" x="1087.92" y="-1762.19" font-family="Times New Roman,serif" font-size="14.00">VisioPianificata</text>
</g>
<!-- AssegnazioneSopralluogo -->
<g id="node11" class="node">
<title>AssegnazioneSopralluogo</title>
<ellipse fill="none" stroke="black" cx="650.08" cy="-995.74" rx="106.95" ry="106.95"/>
<text text-anchor="middle" x="650.08" y="-990.31" font-family="Times New Roman,serif" font-size="14.00">AssegnazioneSopralluogo</text>
</g>
<!-- AvvioSopralluogo&#45;&gt;AssegnazioneSopralluogo -->
<g id="edge6" class="edge">
<title>AvvioSopralluogo&#45;&gt;AssegnazioneSopralluogo</title>
<path fill="none" stroke="black" d="M284.59,-995.74C353.8,-995.74 453.8,-995.74 531.56,-995.74"/>
<polygon fill="black" stroke="black" points="531.35,-999.24 541.35,-995.74 531.35,-992.24 531.35,-999.24"/>
<text text-anchor="middle" x="413.68" y="-998.19" font-family="Times New Roman,serif" font-size="14.00">SopralluogoAvviato</text>
</g>
<!-- PianificazioneSopralluogo -->
<g id="node16" class="node">
<title>PianificazioneSopralluogo</title>
<ellipse fill="none" stroke="black" cx="1087.92" cy="-995.74" rx="106.95" ry="106.95"/>
<text text-anchor="middle" x="1087.92" y="-990.31" font-family="Times New Roman,serif" font-size="14.00">PianificazioneSopralluogo</text>
</g>
<!-- AssegnazioneSopralluogo&#45;&gt;PianificazioneSopralluogo -->
<g id="edge27" class="edge">
<title>AssegnazioneSopralluogo&#45;&gt;PianificazioneSopralluogo</title>
<path fill="none" stroke="black" d="M757.42,-995.74C821.5,-995.74 903.2,-995.74 969.22,-995.74"/>
<polygon fill="black" stroke="black" points="969,-999.24 979,-995.74 969,-992.24 969,-999.24"/>
<text text-anchor="middle" x="869" y="-998.19" font-family="Times New Roman,serif" font-size="14.00">SopralluogoAssegnato</text>
</g>
<!-- AssegnazioneSopralluogoPCE -->
<g id="node13" class="node">
<title>AssegnazioneSopralluogoPCE</title>
<ellipse fill="none" stroke="black" cx="650.08" cy="-410.74" rx="124.42" ry="124.42"/>
<text text-anchor="middle" x="650.08" y="-405.31" font-family="Times New Roman,serif" font-size="14.00">AssegnazioneSopralluogoPCE</text>
</g>
<!-- AvvioSopralluogoPCE&#45;&gt;AssegnazioneSopralluogoPCE -->
<g id="edge7" class="edge">
<title>AvvioSopralluogoPCE&#45;&gt;AssegnazioneSopralluogoPCE</title>
<path fill="none" stroke="black" d="M302.06,-410.74C364.48,-410.74 445.81,-410.74 514.04,-410.74"/>
<polygon fill="black" stroke="black" points="513.79,-414.24 523.79,-410.74 513.79,-407.24 513.79,-414.24"/>
<text text-anchor="middle" x="413.68" y="-413.19" font-family="Times New Roman,serif" font-size="14.00">SopralluogoPCEAvviato</text>
</g>
<!-- PianificazioneSopralluogoPCE -->
<g id="node20" class="node">
<title>PianificazioneSopralluogoPCE</title>
<ellipse fill="none" stroke="black" cx="1087.92" cy="-410.74" rx="124.42" ry="124.42"/>
<text text-anchor="middle" x="1087.92" y="-405.31" font-family="Times New Roman,serif" font-size="14.00">PianificazioneSopralluogoPCE</text>
</g>
<!-- AssegnazioneSopralluogoPCE&#45;&gt;PianificazioneSopralluogoPCE -->
<g id="edge38" class="edge">
<title>AssegnazioneSopralluogoPCE&#45;&gt;PianificazioneSopralluogoPCE</title>
<path fill="none" stroke="black" d="M774.81,-410.74C830.14,-410.74 895.49,-410.74 952.07,-410.74"/>
<polygon fill="black" stroke="black" points="951.75,-414.24 961.75,-410.74 951.75,-407.24 951.75,-414.24"/>
<text text-anchor="middle" x="869" y="-413.19" font-family="Times New Roman,serif" font-size="14.00">SopralluogoPCEAssegnato</text>
</g>
<!-- RiassegnazioneVisio&#45;&gt;AvvioManualeVisio -->
<g id="edge20" class="edge">
<title>RiassegnazioneVisio&#45;&gt;AvvioManualeVisio</title>
<path fill="none" stroke="black" d="M1172.36,-1900.83C1251.91,-1879.94 1371.57,-1848.52 1454.73,-1826.68"/>
<polygon fill="black" stroke="black" points="1455.46,-1830.1 1464.24,-1824.18 1453.68,-1823.33 1455.46,-1830.1"/>
<text text-anchor="middle" x="1306.83" y="-1886.19" font-family="Times New Roman,serif" font-size="14.00">VisioAssegnata</text>
</g>
<!-- RiassegnazioneDesk&#45;&gt;AvvioManualeDesk -->
<g id="edge26" class="edge">
<title>RiassegnazioneDesk&#45;&gt;AvvioManualeDesk</title>
<path fill="none" stroke="black" d="M1171.95,-1302.07C1231.59,-1319 1313.45,-1344.06 1383.33,-1371.99 1409.85,-1382.59 1437.97,-1395.66 1463.39,-1408.21"/>
<polygon fill="black" stroke="black" points="1461.5,-1411.18 1472.01,-1412.5 1464.62,-1404.91 1461.5,-1411.18"/>
<text text-anchor="middle" x="1306.83" y="-1375.19" font-family="Times New Roman,serif" font-size="14.00">DeskAssegnata</text>
</g>
<!-- EsecuzioneSopralluogo -->
<g id="node17" class="node">
<title>EsecuzioneSopralluogo</title>
<ellipse fill="none" stroke="black" cx="1550.7" cy="-1073.74" rx="97.97" ry="97.97"/>
<text text-anchor="middle" x="1550.7" y="-1068.31" font-family="Times New Roman,serif" font-size="14.00">EsecuzioneSopralluogo</text>
</g>
<!-- PianificazioneSopralluogo&#45;&gt;EsecuzioneSopralluogo -->
<g id="edge28" class="edge">
<title>PianificazioneSopralluogo&#45;&gt;EsecuzioneSopralluogo</title>
<path fill="none" stroke="black" d="M1194.7,-985.4C1251.3,-982.55 1321.83,-983.35 1383.33,-996.99 1407.3,-1002.3 1431.94,-1011.39 1454.66,-1021.49"/>
<polygon fill="black" stroke="black" points="1453.03,-1024.59 1463.58,-1025.56 1455.94,-1018.23 1453.03,-1024.59"/>
<text text-anchor="middle" x="1306.83" y="-1000.19" font-family="Times New Roman,serif" font-size="14.00">SopralluogoPianificato</text>
</g>
<!-- VerificaSopralluogoDopoRifiuto -->
<g id="node18" class="node">
<title>VerificaSopralluogoDopoRifiuto</title>
<ellipse fill="none" stroke="black" cx="1550.7" cy="-825.74" rx="131.9" ry="131.9"/>
<text text-anchor="middle" x="1550.7" y="-820.31" font-family="Times New Roman,serif" font-size="14.00">VerificaSopralluogoDopoRifiuto</text>
</g>
<!-- PianificazioneSopralluogo&#45;&gt;VerificaSopralluogoDopoRifiuto -->
<g id="edge29" class="edge">
<title>PianificazioneSopralluogo&#45;&gt;VerificaSopralluogoDopoRifiuto</title>
<path fill="none" stroke="black" d="M1172.01,-929.01C1190.42,-916.59 1210.4,-904.78 1230.33,-895.99 1286.09,-871.4 1351.24,-855.08 1408.1,-844.41"/>
<polygon fill="black" stroke="black" points="1408.66,-847.87 1417.87,-842.63 1407.4,-840.98 1408.66,-847.87"/>
<text text-anchor="middle" x="1306.83" y="-899.19" font-family="Times New Roman,serif" font-size="14.00">SopralluogoRifiutato</text>
</g>
<!-- EsecuzioneSopralluogo&#45;&gt;AvvioPerizia -->
<g id="edge30" class="edge">
<title>EsecuzioneSopralluogo&#45;&gt;AvvioPerizia</title>
<path fill="none" stroke="black" d="M1639.9,-1032.11C1764.32,-979.3 1997.23,-902.19 2185.89,-964.99 2235.67,-981.56 2282.75,-1018.17 2315.87,-1048.76"/>
<polygon fill="black" stroke="black" points="2313.2,-1051.05 2322.88,-1055.35 2317.99,-1045.95 2313.2,-1051.05"/>
<text text-anchor="middle" x="2059.98" y="-968.19" font-family="Times New Roman,serif" font-size="14.00">SoprallugoCompletato</text>
</g>
<!-- EsecuzioneSopralluogo&#45;&gt;PianificazioneSopralluogo -->
<g id="edge31" class="edge">
<title>EsecuzioneSopralluogo&#45;&gt;PianificazioneSopralluogo</title>
<path fill="none" stroke="black" d="M1452.5,-1074.76C1388.63,-1073.56 1303.64,-1068.36 1230.33,-1051.74 1219.31,-1049.24 1208.01,-1046.01 1196.85,-1042.36"/>
<polygon fill="black" stroke="black" points="1198.23,-1039.14 1187.63,-1039.24 1195.98,-1045.76 1198.23,-1039.14"/>
<text text-anchor="middle" x="1306.83" y="-1074.19" font-family="Times New Roman,serif" font-size="14.00">AppuntamentoAnnullato</text>
</g>
<!-- EsecuzioneSopralluogo&#45;&gt;PianificazioneSopralluogo -->
<g id="edge32" class="edge">
<title>EsecuzioneSopralluogo&#45;&gt;PianificazioneSopralluogo</title>
<path fill="none" stroke="black" d="M1456,-1048.08C1432.41,-1042.21 1407.05,-1036.41 1383.33,-1031.99 1374.3,-1030.31 1283.75,-1019.22 1205.43,-1009.75"/>
<polygon fill="black" stroke="black" points="1206.32,-1006.33 1195.97,-1008.61 1205.48,-1013.28 1206.32,-1006.33"/>
<text text-anchor="middle" x="1306.83" y="-1035.19" font-family="Times New Roman,serif" font-size="14.00">ChiusuraAttivita</text>
</g>
<!-- EsecuzioneSopralluogo&#45;&gt;EsecuzioneSopralluogo -->
<g id="edge33" class="edge">
<title>EsecuzioneSopralluogo&#45;&gt;EsecuzioneSopralluogo</title>
<path fill="none" stroke="black" d="M1507.32,-1161.73C1512.66,-1178.15 1527.12,-1189.71 1550.7,-1189.71 1568.93,-1189.71 1581.72,-1182.79 1589.04,-1172.06"/>
<polygon fill="black" stroke="black" points="1592.18,-1173.61 1593.41,-1163.09 1585.89,-1170.55 1592.18,-1173.61"/>
<text text-anchor="middle" x="1550.7" y="-1192.16" font-family="Times New Roman,serif" font-size="14.00">AppuntamentoModificato</text>
</g>
<!-- ApprovazioneSopralluogo -->
<g id="node19" class="node">
<title>ApprovazioneSopralluogo</title>
<ellipse fill="none" stroke="black" cx="2059.98" cy="-1097.74" rx="108.45" ry="108.45"/>
<text text-anchor="middle" x="2059.98" y="-1092.31" font-family="Times New Roman,serif" font-size="14.00">ApprovazioneSopralluogo</text>
</g>
<!-- EsecuzioneSopralluogo&#45;&gt;ApprovazioneSopralluogo -->
<g id="edge34" class="edge">
<title>EsecuzioneSopralluogo&#45;&gt;ApprovazioneSopralluogo</title>
<path fill="none" stroke="black" d="M1648.91,-1078.34C1731.87,-1082.26 1851.45,-1087.92 1940.1,-1092.11"/>
<polygon fill="black" stroke="black" points="1939.9,-1095.61 1950.06,-1092.59 1940.23,-1088.62 1939.9,-1095.61"/>
<text text-anchor="middle" x="1817.07" y="-1093.19" font-family="Times New Roman,serif" font-size="14.00">SopralluogoCompletatoNuovo</text>
</g>
<!-- VerificaSopralluogoDopoRifiuto&#45;&gt;PianificazioneSopralluogo -->
<g id="edge35" class="edge">
<title>VerificaSopralluogoDopoRifiuto&#45;&gt;PianificazioneSopralluogo</title>
<path fill="none" stroke="black" d="M1434.72,-888.9C1417.74,-897.14 1400.26,-905.03 1383.33,-911.74 1325.31,-934.75 1258.58,-954.32 1203.33,-968.77"/>
<polygon fill="black" stroke="black" points="1202.71,-965.32 1193.9,-971.21 1204.46,-972.09 1202.71,-965.32"/>
<text text-anchor="middle" x="1306.83" y="-964.19" font-family="Times New Roman,serif" font-size="14.00">SopralluogoAssegnato</text>
</g>
<!-- ApprovazioneSopralluogo&#45;&gt;AvvioPerizia -->
<g id="edge37" class="edge">
<title>ApprovazioneSopralluogo&#45;&gt;AvvioPerizia</title>
<path fill="none" stroke="black" d="M2168.8,-1097.74C2210.9,-1097.74 2257.88,-1097.74 2295.12,-1097.74"/>
<polygon fill="black" stroke="black" points="2294.83,-1101.24 2304.83,-1097.74 2294.83,-1094.24 2294.83,-1101.24"/>
<text text-anchor="middle" x="2246.27" y="-1100.19" font-family="Times New Roman,serif" font-size="14.00">NonApprovato</text>
</g>
<!-- ApprovazioneSopralluogo&#45;&gt;AvvioSopralluogo -->
<g id="edge36" class="edge">
<title>ApprovazioneSopralluogo&#45;&gt;AvvioSopralluogo</title>
<path fill="none" stroke="black" d="M1976.68,-1027.78C1962.05,-1014.27 1947.27,-999.91 1934.07,-985.74 1818.52,-861.79 1847.23,-768.74 1700.07,-684.74 1642.33,-651.78 1618.18,-665.74 1551.7,-665.74 649.08,-665.74 649.08,-665.74 649.08,-665.74 479.46,-665.74 332.09,-821.73 256.55,-919.21"/>
<polygon fill="black" stroke="black" points="253.92,-916.9 250.61,-926.96 259.47,-921.15 253.92,-916.9"/>
<text text-anchor="middle" x="1087.92" y="-668.19" font-family="Times New Roman,serif" font-size="14.00">Approvato</text>
</g>
<!-- EsecuzioneSopralluogoPCE -->
<g id="node21" class="node">
<title>EsecuzioneSopralluogoPCE</title>
<ellipse fill="none" stroke="black" cx="1550.7" cy="-488.74" rx="115.43" ry="115.43"/>
<text text-anchor="middle" x="1550.7" y="-483.31" font-family="Times New Roman,serif" font-size="14.00">EsecuzioneSopralluogoPCE</text>
</g>
<!-- PianificazioneSopralluogoPCE&#45;&gt;EsecuzioneSopralluogoPCE -->
<g id="edge39" class="edge">
<title>PianificazioneSopralluogoPCE&#45;&gt;EsecuzioneSopralluogoPCE</title>
<path fill="none" stroke="black" d="M1211.76,-426.44C1277.24,-435.03 1350.85,-445.09 1383.33,-450.99 1397.5,-453.56 1412.28,-456.52 1426.94,-459.62"/>
<polygon fill="black" stroke="black" points="1426.12,-463.02 1436.63,-461.7 1427.59,-456.18 1426.12,-463.02"/>
<text text-anchor="middle" x="1306.83" y="-454.19" font-family="Times New Roman,serif" font-size="14.00">SopralluogoPCEPianificato</text>
</g>
<!-- VerificaSopralluogoPCEDopoRifiuto -->
<g id="node22" class="node">
<title>VerificaSopralluogoPCEDopoRifiuto</title>
<ellipse fill="none" stroke="black" cx="1550.7" cy="-205.74" rx="149.37" ry="149.37"/>
<text text-anchor="middle" x="1550.7" y="-200.31" font-family="Times New Roman,serif" font-size="14.00">VerificaSopralluogoPCEDopoRifiuto</text>
</g>
<!-- PianificazioneSopralluogoPCE&#45;&gt;VerificaSopralluogoPCEDopoRifiuto -->
<g id="edge40" class="edge">
<title>PianificazioneSopralluogoPCE&#45;&gt;VerificaSopralluogoPCEDopoRifiuto</title>
<path fill="none" stroke="black" d="M1201.93,-360.46C1262.63,-333.45 1338.17,-299.85 1403.32,-270.86"/>
<polygon fill="black" stroke="black" points="1404.58,-274.13 1412.3,-266.87 1401.74,-267.74 1404.58,-274.13"/>
<text text-anchor="middle" x="1306.83" y="-347.19" font-family="Times New Roman,serif" font-size="14.00">SopralluogoPCERifiutato</text>
</g>
<!-- EsecuzioneSopralluogoPCE&#45;&gt;AvvioPerizia -->
<g id="edge41" class="edge">
<title>EsecuzioneSopralluogoPCE&#45;&gt;AvvioPerizia</title>
<path fill="none" stroke="black" d="M1661.53,-455.09C1798.41,-420.39 2032.91,-385.63 2185.89,-497.99 2272.53,-561.63 2331.22,-885.64 2353.36,-1029.16"/>
<polygon fill="black" stroke="black" points="2349.88,-1029.56 2354.85,-1038.92 2356.8,-1028.5 2349.88,-1029.56"/>
<text text-anchor="middle" x="2059.98" y="-501.19" font-family="Times New Roman,serif" font-size="14.00">SoprallugoCompletato</text>
</g>
<!-- EsecuzioneSopralluogoPCE&#45;&gt;PianificazioneSopralluogoPCE -->
<g id="edge42" class="edge">
<title>EsecuzioneSopralluogoPCE&#45;&gt;PianificazioneSopralluogoPCE</title>
<path fill="none" stroke="black" d="M1449.31,-432.6C1428.12,-423.24 1405.47,-414.96 1383.33,-409.99 1331.87,-398.42 1274.06,-396.3 1223.37,-397.9"/>
<polygon fill="black" stroke="black" points="1223.38,-394.39 1213.51,-398.26 1223.64,-401.39 1223.38,-394.39"/>
<text text-anchor="middle" x="1306.83" y="-413.19" font-family="Times New Roman,serif" font-size="14.00">AppuntamentoAnnullato</text>
</g>
<!-- EsecuzioneSopralluogoPCE&#45;&gt;PianificazioneSopralluogoPCE -->
<g id="edge43" class="edge">
<title>EsecuzioneSopralluogoPCE&#45;&gt;PianificazioneSopralluogoPCE</title>
<path fill="none" stroke="black" d="M1435.02,-489.34C1373.64,-487.54 1297.14,-481.88 1230.33,-466.74 1224.84,-465.49 1219.28,-464.07 1213.71,-462.5"/>
<polygon fill="black" stroke="black" points="1215.01,-459.23 1204.42,-459.75 1213.02,-465.95 1215.01,-459.23"/>
<text text-anchor="middle" x="1306.83" y="-489.19" font-family="Times New Roman,serif" font-size="14.00">ChiusuraAttivita</text>
</g>
<!-- EsecuzioneSopralluogoPCE&#45;&gt;EsecuzioneSopralluogoPCE -->
<g id="edge44" class="edge">
<title>EsecuzioneSopralluogoPCE&#45;&gt;EsecuzioneSopralluogoPCE</title>
<path fill="none" stroke="black" d="M1509.9,-597.12C1516.62,-612.13 1530.22,-622.17 1550.7,-622.17 1566.38,-622.17 1578.03,-616.29 1585.64,-606.79"/>
<polygon fill="black" stroke="black" points="1588.53,-608.78 1590.72,-598.41 1582.54,-605.15 1588.53,-608.78"/>
<text text-anchor="middle" x="1550.7" y="-624.62" font-family="Times New Roman,serif" font-size="14.00">AppuntamentoModificato</text>
</g>
<!-- ApprovazioneSopralluogoPCE -->
<g id="node23" class="node">
<title>ApprovazioneSopralluogoPCE</title>
<ellipse fill="none" stroke="black" cx="2059.98" cy="-648.74" rx="125.91" ry="125.91"/>
<text text-anchor="middle" x="2059.98" y="-643.31" font-family="Times New Roman,serif" font-size="14.00">ApprovazioneSopralluogoPCE</text>
</g>
<!-- EsecuzioneSopralluogoPCE&#45;&gt;ApprovazioneSopralluogoPCE -->
<g id="edge45" class="edge">
<title>EsecuzioneSopralluogoPCE&#45;&gt;ApprovazioneSopralluogoPCE</title>
<path fill="none" stroke="black" d="M1661.15,-523.26C1739.69,-548.03 1845.87,-581.52 1928.77,-607.67"/>
<polygon fill="black" stroke="black" points="1927.5,-610.94 1938.09,-610.61 1929.61,-604.27 1927.5,-610.94"/>
<text text-anchor="middle" x="1817.07" y="-604.19" font-family="Times New Roman,serif" font-size="14.00">SopralluogoPCECompletatoNuovo</text>
</g>
<!-- VerificaSopralluogoPCEDopoRifiuto&#45;&gt;PianificazioneSopralluogoPCE -->
<g id="edge46" class="edge">
<title>VerificaSopralluogoPCEDopoRifiuto&#45;&gt;PianificazioneSopralluogoPCE</title>
<path fill="none" stroke="black" d="M1401.11,-214.19C1345.03,-222.17 1282.27,-237.15 1230.33,-264.99 1210.3,-275.72 1191.4,-290.29 1174.31,-306.08"/>
<polygon fill="black" stroke="black" points="1172.01,-303.45 1167.18,-312.88 1176.83,-308.52 1172.01,-303.45"/>
<text text-anchor="middle" x="1306.83" y="-268.19" font-family="Times New Roman,serif" font-size="14.00">SopralluogoPCEAssegnato</text>
</g>
<!-- ApprovazioneSopralluogoPCE&#45;&gt;AvvioPerizia -->
<g id="edge48" class="edge">
<title>ApprovazioneSopralluogoPCE&#45;&gt;AvvioPerizia</title>
<path fill="none" stroke="black" d="M2146.92,-740.05C2192.82,-791.9 2248.05,-859.56 2288.64,-925.99 2309.21,-959.65 2327.03,-1000 2340.09,-1033.13"/>
<polygon fill="black" stroke="black" points="2336.73,-1034.14 2343.61,-1042.2 2343.26,-1031.61 2336.73,-1034.14"/>
<text text-anchor="middle" x="2246.27" y="-929.19" font-family="Times New Roman,serif" font-size="14.00">NonApprovato</text>
</g>
<!-- ApprovazioneSopralluogoPCE&#45;&gt;AvvioSopralluogoPCE -->
<g id="edge47" class="edge">
<title>ApprovazioneSopralluogoPCE&#45;&gt;AvvioSopralluogoPCE</title>
<path fill="none" stroke="black" d="M1968.5,-561.65C1956.22,-547.87 1944.33,-533.33 1934.07,-518.74 1799.53,-327.59 1890.5,-183.27 1700.07,-47.74 1645.9,-9.19 1618.18,-28.74 1551.7,-28.74 649.08,-28.74 649.08,-28.74 649.08,-28.74 473.49,-28.74 332.2,-201.5 258.49,-314.66"/>
<polygon fill="black" stroke="black" points="255.73,-312.48 253.25,-322.79 261.61,-316.28 255.73,-312.48"/>
<text text-anchor="middle" x="1087.92" y="-31.19" font-family="Times New Roman,serif" font-size="14.00">Approvato</text>
</g>
</g>
</svg>
