<?xml version="1.0" encoding="UTF-8" standalone="no"?>
<!DOCTYPE svg PUBLIC "-//W3C//DTD SVG 1.1//EN"
 "http://www.w3.org/Graphics/SVG/1.1/DTD/svg11.dtd">
<!-- Generated by graphviz version 9.0.0 (20230911.1827)
 -->
<!-- Title: finite_state_machine Pages: 1 -->
<svg width="556pt" height="360pt"
 viewBox="0.00 0.00 555.77 360.00" xmlns="http://www.w3.org/2000/svg" xmlns:xlink="http://www.w3.org/1999/xlink">
<g id="graph0" class="graph" transform="scale(0.692974 0.692974) rotate(0) translate(4 515.5)">
<title>finite_state_machine</title>
<polygon fill="white" stroke="none" points="-4,4 -4,-515.5 798,-515.5 798,4 -4,4"/>
<text text-anchor="middle" x="397" y="-6.45" font-family="Times New Roman,serif" font-size="14.00">Accertamenti&#45;Desk</text>
<g id="clust3" class="cluster">
<title>cluster_Accertamenti</title>
<polygon fill="none" stroke="black" points="8,-31.75 8,-410.5 618,-410.5 618,-31.75 8,-31.75"/>
<text text-anchor="middle" x="313" y="-393.2" font-family="Times New Roman,serif" font-size="14.00">Accertamenti</text>
</g>
<g id="clust4" class="cluster">
<title>cluster_visio</title>
<polygon fill="none" stroke="black" points="16,-39.75 16,-378.75 610,-378.75 610,-39.75 16,-39.75"/>
<text text-anchor="middle" x="313" y="-361.45" font-family="Times New Roman,serif" font-size="14.00">DESK</text>
</g>
<!-- Apertura -->
<g id="node1" class="node">
<title>Apertura</title>
<polygon fill="lightgrey" stroke="black" points="643.38,-511.5 578.62,-511.5 578.62,-475.5 643.38,-475.5 643.38,-511.5"/>
<text text-anchor="middle" x="611" y="-488.07" font-family="Times New Roman,serif" font-size="14.00">Apertura</text>
</g>
<!-- AvvioDesk -->
<g id="node3" class="node">
<title>AvvioDesk</title>
<path fill="none" stroke="black" d="M522.12,-347C522.12,-347 467.88,-347 467.88,-347 461.88,-347 455.88,-341 455.88,-335 455.88,-335 455.88,-323 455.88,-323 455.88,-317 461.88,-311 467.88,-311 467.88,-311 522.12,-311 522.12,-311 528.12,-311 534.12,-317 534.12,-323 534.12,-323 534.12,-335 534.12,-335 534.12,-341 528.12,-347 522.12,-347"/>
<text text-anchor="middle" x="495" y="-323.57" font-family="Times New Roman,serif" font-size="14.00">AvvioDesk</text>
</g>
<!-- Apertura&#45;&gt;AvvioDesk -->
<g id="edge1" class="edge">
<title>Apertura&#45;&gt;AvvioDesk</title>
<path fill="none" stroke="black" d="M598.59,-475.11C578.27,-446.64 537.78,-389.92 513.88,-356.45"/>
<polygon fill="black" stroke="black" points="516.86,-354.6 508.2,-348.5 511.17,-358.67 516.86,-354.6"/>
</g>
<!-- AvvioManualeDesk -->
<g id="node4" class="node">
<title>AvvioManualeDesk</title>
<path fill="none" stroke="black" d="M353.38,-83.75C353.38,-83.75 252.62,-83.75 252.62,-83.75 246.62,-83.75 240.62,-77.75 240.62,-71.75 240.62,-71.75 240.62,-59.75 240.62,-59.75 240.62,-53.75 246.62,-47.75 252.62,-47.75 252.62,-47.75 353.38,-47.75 353.38,-47.75 359.38,-47.75 365.38,-53.75 365.38,-59.75 365.38,-59.75 365.38,-71.75 365.38,-71.75 365.38,-77.75 359.38,-83.75 353.38,-83.75"/>
<text text-anchor="middle" x="303" y="-60.33" font-family="Times New Roman,serif" font-size="14.00">AvvioManualeDesk</text>
</g>
<!-- Apertura&#45;&gt;AvvioManualeDesk -->
<g id="edge2" class="edge">
<title>Apertura&#45;&gt;AvvioManualeDesk</title>
<path fill="none" stroke="black" d="M643.72,-489.6C696.35,-484.01 794,-469.47 794,-438.5 794,-438.5 794,-438.5 794,-152.5 794,-110.68 514.02,-83.12 376.9,-72.13"/>
<polygon fill="black" stroke="black" points="377.44,-68.67 367.19,-71.37 376.89,-75.64 377.44,-68.67"/>
</g>
<!-- AvvioPeriziaPostDesk -->
<g id="node2" class="node">
<title>AvvioPeriziaPostDesk</title>
<polygon fill="lightgrey" stroke="black" points="766.25,-171.5 625.75,-171.5 625.75,-135.5 766.25,-135.5 766.25,-171.5"/>
<text text-anchor="middle" x="696" y="-148.07" font-family="Times New Roman,serif" font-size="14.00">AvvioPeriziaPostDesk</text>
</g>
<!-- EsecuzioneDesk -->
<g id="node5" class="node">
<title>EsecuzioneDesk</title>
<path fill="none" stroke="black" d="M119.75,-259.25C119.75,-259.25 36.25,-259.25 36.25,-259.25 30.25,-259.25 24.25,-253.25 24.25,-247.25 24.25,-247.25 24.25,-235.25 24.25,-235.25 24.25,-229.25 30.25,-223.25 36.25,-223.25 36.25,-223.25 119.75,-223.25 119.75,-223.25 125.75,-223.25 131.75,-229.25 131.75,-235.25 131.75,-235.25 131.75,-247.25 131.75,-247.25 131.75,-253.25 125.75,-259.25 119.75,-259.25"/>
<text text-anchor="middle" x="78" y="-235.82" font-family="Times New Roman,serif" font-size="14.00">EsecuzioneDesk</text>
</g>
<!-- AvvioDesk&#45;&gt;EsecuzioneDesk -->
<g id="edge3" class="edge">
<title>AvvioDesk&#45;&gt;EsecuzioneDesk</title>
<path fill="none" stroke="black" d="M455.52,-316.43C416.51,-305.29 355.02,-288.52 301,-277.25 248.24,-266.24 187.81,-256.96 143.18,-250.72"/>
<polygon fill="black" stroke="black" points="143.78,-247.27 133.39,-249.37 142.82,-254.21 143.78,-247.27"/>
<text text-anchor="middle" x="407.75" y="-279.7" font-family="Times New Roman,serif" font-size="14.00">DeskPianificata</text>
</g>
<!-- AvvioManualeDesk&#45;&gt;EsecuzioneDesk -->
<g id="edge4" class="edge">
<title>AvvioManualeDesk&#45;&gt;EsecuzioneDesk</title>
<path fill="none" stroke="black" d="M293.21,-83.99C279.66,-106.56 253.31,-146.23 222,-171.5 197.45,-191.31 166.24,-207.1 139.16,-218.53"/>
<polygon fill="black" stroke="black" points="137.95,-215.24 130.02,-222.27 140.6,-221.72 137.95,-215.24"/>
<text text-anchor="middle" x="299.75" y="-148.07" font-family="Times New Roman,serif" font-size="14.00">DeskPianificata</text>
</g>
<!-- EsecuzioneDesk&#45;&gt;AvvioPeriziaPostDesk -->
<g id="edge10" class="edge">
<title>EsecuzioneDesk&#45;&gt;AvvioPeriziaPostDesk</title>
<path fill="none" stroke="black" d="M131.91,-235.14C228.84,-225.55 438.78,-202.96 614,-171.5 614.12,-171.48 614.23,-171.46 614.35,-171.44"/>
<polygon fill="black" stroke="black" points="614.69,-174.93 623.89,-169.67 613.42,-168.05 614.69,-174.93"/>
<text text-anchor="middle" x="543.12" y="-191.95" font-family="Times New Roman,serif" font-size="14.00">DeskCompletata</text>
</g>
<!-- EsecuzioneDesk&#45;&gt;AvvioManualeDesk -->
<g id="edge5" class="edge">
<title>EsecuzioneDesk&#45;&gt;AvvioManualeDesk</title>
<path fill="none" stroke="black" d="M67.81,-222.77C56.19,-200.29 41.15,-161.09 60.5,-135.5 80.94,-108.46 165.48,-88.96 229.03,-77.79"/>
<polygon fill="black" stroke="black" points="229.48,-81.26 238.74,-76.12 228.29,-74.36 229.48,-81.26"/>
<text text-anchor="middle" x="139.75" y="-148.07" font-family="Times New Roman,serif" font-size="14.00">DeskCompletataNuovaDesk</text>
</g>
<!-- EsecuzioneDesk&#45;&gt;EsecuzioneDesk -->
<g id="edge6" class="edge">
<title>EsecuzioneDesk&#45;&gt;EsecuzioneDesk</title>
<path fill="none" stroke="black" d="M132.13,-243.86C142.45,-243.55 149.75,-242.68 149.75,-241.25 149.75,-240.45 147.44,-239.82 143.58,-239.37"/>
<polygon fill="black" stroke="black" points="143.84,-235.88 133.64,-238.74 143.4,-242.86 143.84,-235.88"/>
<text text-anchor="middle" x="221.75" y="-235.82" font-family="Times New Roman,serif" font-size="14.00">AppuntamentoModificato</text>
</g>
<!-- EsecuzioneDesk&#45;&gt;EsecuzioneDesk -->
<g id="edge7" class="edge">
<title>EsecuzioneDesk&#45;&gt;EsecuzioneDesk</title>
<path fill="none" stroke="black" d="M132.11,-245.67C197.23,-247.99 293.75,-246.52 293.75,-241.25 293.75,-236.28 207.85,-234.69 143.45,-236.48"/>
<polygon fill="black" stroke="black" points="143.51,-232.97 133.62,-236.79 143.73,-239.97 143.51,-232.97"/>
<text text-anchor="middle" x="361.62" y="-235.82" font-family="Times New Roman,serif" font-size="14.00">AppuntamentoAnnullato</text>
</g>
<!-- EsecuzioneDesk&#45;&gt;EsecuzioneDesk -->
<g id="edge8" class="edge">
<title>EsecuzioneDesk&#45;&gt;EsecuzioneDesk</title>
<path fill="none" stroke="black" d="M132.1,-246.71C232.52,-251.74 429.5,-249.92 429.5,-241.25 429.5,-232.9 246.5,-230.91 143.35,-235.27"/>
<polygon fill="black" stroke="black" points="143.44,-231.77 133.61,-235.72 143.76,-238.76 143.44,-231.77"/>
<text text-anchor="middle" x="497.75" y="-235.82" font-family="Times New Roman,serif" font-size="14.00">DatiObbligatoriMancanti</text>
</g>
<!-- RiassegnazioneDesk -->
<g id="node6" class="node">
<title>RiassegnazioneDesk</title>
<path fill="none" stroke="black" d="M476,-171.5C476,-171.5 370,-171.5 370,-171.5 364,-171.5 358,-165.5 358,-159.5 358,-159.5 358,-147.5 358,-147.5 358,-141.5 364,-135.5 370,-135.5 370,-135.5 476,-135.5 476,-135.5 482,-135.5 488,-141.5 488,-147.5 488,-147.5 488,-159.5 488,-159.5 488,-165.5 482,-171.5 476,-171.5"/>
<text text-anchor="middle" x="423" y="-148.07" font-family="Times New Roman,serif" font-size="14.00">RiassegnazioneDesk</text>
</g>
<!-- EsecuzioneDesk&#45;&gt;RiassegnazioneDesk -->
<g id="edge9" class="edge">
<title>EsecuzioneDesk&#45;&gt;RiassegnazioneDesk</title>
<path fill="none" stroke="black" d="M132.19,-231.36C168.33,-225.05 216.78,-215.83 259,-205.25 292.99,-196.73 330.35,-185.33 360.81,-175.5"/>
<polygon fill="black" stroke="black" points="361.84,-178.85 370.26,-172.42 359.67,-172.19 361.84,-178.85"/>
<text text-anchor="middle" x="350.5" y="-191.95" font-family="Times New Roman,serif" font-size="14.00">DeskRifiutata</text>
</g>
<!-- RiassegnazioneDesk&#45;&gt;AvvioManualeDesk -->
<g id="edge11" class="edge">
<title>RiassegnazioneDesk&#45;&gt;AvvioManualeDesk</title>
<path fill="none" stroke="black" d="M398.72,-135.15C380.82,-122.36 356.27,-104.82 336.51,-90.7"/>
<polygon fill="black" stroke="black" points="338.65,-87.92 328.48,-84.96 334.58,-93.62 338.65,-87.92"/>
<text text-anchor="middle" x="415.75" y="-104.2" font-family="Times New Roman,serif" font-size="14.00">DeskAssegnata</text>
</g>
<!-- PortaleAssicurato -->
<g id="node7" class="node">
<title>PortaleAssicurato</title>
<polygon fill="lightgrey" stroke="black" points="188.5,-347 73.5,-347 73.5,-311 188.5,-311 188.5,-347"/>
<text text-anchor="middle" x="131" y="-323.57" font-family="Times New Roman,serif" font-size="14.00">PortaleAssicurato</text>
</g>
<!-- PortaleAssicurato&#45;&gt;EsecuzioneDesk -->
<g id="edge12" class="edge">
<title>PortaleAssicurato&#45;&gt;EsecuzioneDesk</title>
<path fill="none" stroke="black" stroke-dasharray="1,5" d="M78.96,-310.51C71.82,-305.91 65.43,-300.17 61,-293 56.63,-285.94 57.39,-277.62 60.22,-269.78"/>
<polygon fill="black" stroke="black" points="63.3,-271.46 64.43,-260.93 56.98,-268.46 63.3,-271.46"/>
<text text-anchor="middle" x="118" y="-279.7" font-family="Times New Roman,serif" font-size="14.00">RichiestaPaRicevuta</text>
</g>
<!-- PortaleAssicurato&#45;&gt;EsecuzioneDesk -->
<g id="edge13" class="edge">
<title>PortaleAssicurato&#45;&gt;EsecuzioneDesk</title>
<path fill="none" stroke="black" stroke-dasharray="1,5" d="M160.96,-310.64C173.41,-301.16 183.24,-288.99 175,-277.25 167.2,-266.15 155.52,-258.55 142.94,-253.36"/>
<polygon fill="black" stroke="black" points="144.24,-250.11 133.65,-250.04 141.89,-256.7 144.24,-250.11"/>
<text text-anchor="middle" x="237.25" y="-279.7" font-family="Times New Roman,serif" font-size="14.00">ConfermaPaRicevuta</text>
</g>
</g>
</svg>
