<?xml version="1.0" encoding="UTF-8" standalone="no"?>
<!DOCTYPE svg PUBLIC "-//W3C//DTD SVG 1.1//EN"
 "http://www.w3.org/Graphics/SVG/1.1/DTD/svg11.dtd">
<!-- Generated by graphviz version 9.0.0 (20230911.1827)
 -->
<!-- ACCERTAMENTI -->
<!-- Title: finite_state_machine Pages: 1 -->
<svg width="328pt" height="360pt"
 viewBox="0.00 0.00 328.46 360.00" xmlns="http://www.w3.org/2000/svg" xmlns:xlink="http://www.w3.org/1999/xlink">
<g id="graph0" class="graph" transform="scale(0.914286 0.914286) rotate(0) translate(4 389.75)">
<title>finite_state_machine</title>
<polygon fill="white" stroke="none" points="-4,4 -4,-389.75 355.26,-389.75 355.26,4 -4,4"/>
<text text-anchor="middle" x="175.63" y="-6.45" font-family="Times New Roman,serif" font-size="14.00">Self care</text>
<g id="clust1" class="cluster">
<title>cluster_Accertamenti</title>
<polygon fill="none" stroke="black" points="8,-31.75 8,-322.75 215,-322.75 215,-31.75 8,-31.75"/>
<text text-anchor="middle" x="111.5" y="-305.45" font-family="Times New Roman,serif" font-size="14.00">Accertamenti</text>
</g>
<g id="clust2" class="cluster">
<title>cluster_selfcare</title>
<polygon fill="none" stroke="black" points="16,-39.75 16,-291 207,-291 207,-39.75 16,-39.75"/>
<text text-anchor="middle" x="111.5" y="-273.7" font-family="Times New Roman,serif" font-size="14.00">SELFCARE</text>
</g>
<!-- AvvioAccertSelfCare -->
<g id="node1" class="node">
<title>AvvioAccertSelfCare</title>
<path fill="none" stroke="black" d="M147.62,-259.25C147.62,-259.25 36.38,-259.25 36.38,-259.25 30.38,-259.25 24.38,-253.25 24.38,-247.25 24.38,-247.25 24.38,-235.25 24.38,-235.25 24.38,-229.25 30.38,-223.25 36.38,-223.25 36.38,-223.25 147.62,-223.25 147.62,-223.25 153.62,-223.25 159.62,-229.25 159.62,-235.25 159.62,-235.25 159.62,-247.25 159.62,-247.25 159.62,-253.25 153.62,-259.25 147.62,-259.25"/>
<text text-anchor="middle" x="92" y="-235.82" font-family="Times New Roman,serif" font-size="14.00">AvvioAccertSelfCare</text>
</g>
<!-- GestioneSelfCare -->
<g id="node2" class="node">
<title>GestioneSelfCare</title>
<path fill="none" stroke="black" d="M125.75,-171.5C125.75,-171.5 36.25,-171.5 36.25,-171.5 30.25,-171.5 24.25,-165.5 24.25,-159.5 24.25,-159.5 24.25,-147.5 24.25,-147.5 24.25,-141.5 30.25,-135.5 36.25,-135.5 36.25,-135.5 125.75,-135.5 125.75,-135.5 131.75,-135.5 137.75,-141.5 137.75,-147.5 137.75,-147.5 137.75,-159.5 137.75,-159.5 137.75,-165.5 131.75,-171.5 125.75,-171.5"/>
<text text-anchor="middle" x="81" y="-148.07" font-family="Times New Roman,serif" font-size="14.00">GestioneSelfCare</text>
</g>
<!-- AvvioAccertSelfCare&#45;&gt;GestioneSelfCare -->
<g id="edge2" class="edge">
<title>AvvioAccertSelfCare&#45;&gt;GestioneSelfCare</title>
<path fill="none" stroke="black" d="M89.77,-222.9C88.31,-211.51 86.37,-196.34 84.68,-183.18"/>
<polygon fill="black" stroke="black" points="88.16,-182.8 83.42,-173.33 81.22,-183.69 88.16,-182.8"/>
<text text-anchor="middle" x="150.25" y="-191.95" font-family="Times New Roman,serif" font-size="14.00">AccertSelfCareAvviati</text>
</g>
<!-- AvvioChiusura -->
<g id="node3" class="node">
<title>AvvioChiusura</title>
<polygon fill="lightgrey" stroke="black" points="123.62,-83.75 24.38,-83.75 24.38,-47.75 123.62,-47.75 123.62,-83.75"/>
<text text-anchor="middle" x="74" y="-60.33" font-family="Times New Roman,serif" font-size="14.00">AvvioChiusura</text>
</g>
<!-- GestioneSelfCare&#45;&gt;AvvioChiusura -->
<g id="edge3" class="edge">
<title>GestioneSelfCare&#45;&gt;AvvioChiusura</title>
<path fill="none" stroke="black" d="M79.58,-135.15C78.65,-123.76 77.42,-108.59 76.34,-95.43"/>
<polygon fill="black" stroke="black" points="79.84,-95.27 75.54,-85.59 72.86,-95.84 79.84,-95.27"/>
<text text-anchor="middle" x="157.38" y="-104.2" font-family="Times New Roman,serif" font-size="14.00">AvvioChiusuraPostSelfCare</text>
</g>
<!-- AvvioPerizia -->
<g id="node5" class="node">
<title>AvvioPerizia</title>
<polygon fill="lightgrey" stroke="black" points="309.25,-83.75 222.75,-83.75 222.75,-47.75 309.25,-47.75 309.25,-83.75"/>
<text text-anchor="middle" x="266" y="-60.33" font-family="Times New Roman,serif" font-size="14.00">AvvioPerizia</text>
</g>
<!-- GestioneSelfCare&#45;&gt;AvvioPerizia -->
<g id="edge4" class="edge">
<title>GestioneSelfCare&#45;&gt;AvvioPerizia</title>
<path fill="none" stroke="black" d="M137.87,-151.68C170.67,-148.55 211.02,-139.86 240,-117.5 247.61,-111.63 253.18,-102.92 257.17,-94.37"/>
<polygon fill="black" stroke="black" points="260.36,-95.83 260.85,-85.24 253.87,-93.21 260.36,-95.83"/>
<text text-anchor="middle" x="279.26" y="-138.33" font-family="Times New Roman,serif" font-size="14.00">AvvioPeriziaPostSelfCare</text>
</g>
<!-- Apertura -->
<g id="node4" class="node">
<title>Apertura</title>
<polygon fill="lightgrey" stroke="black" points="124.38,-385.75 59.62,-385.75 59.62,-349.75 124.38,-349.75 124.38,-385.75"/>
<text text-anchor="middle" x="92" y="-362.32" font-family="Times New Roman,serif" font-size="14.00">Apertura</text>
</g>
<!-- Apertura&#45;&gt;AvvioAccertSelfCare -->
<g id="edge1" class="edge">
<title>Apertura&#45;&gt;AvvioAccertSelfCare</title>
<path fill="none" stroke="black" d="M92,-349.44C92,-329.09 92,-295.03 92,-270.76"/>
<polygon fill="black" stroke="black" points="95.5,-270.93 92,-260.93 88.5,-270.93 95.5,-270.93"/>
</g>
</g>
</svg>
