<?xml version="1.0" encoding="UTF-8" standalone="no"?>
<!DOCTYPE svg PUBLIC "-//W3C//DTD SVG 1.1//EN"
 "http://www.w3.org/Graphics/SVG/1.1/DTD/svg11.dtd">
<!-- Generated by graphviz version 9.0.0 (20230911.1827)
 -->
<!-- ACCERTAMENTI -->
<!-- Title: finite_state_machine Pages: 1 -->
<svg width="576pt" height="294pt"
 viewBox="0.00 0.00 576.00 293.64" xmlns="http://www.w3.org/2000/svg" xmlns:xlink="http://www.w3.org/1999/xlink">
<g id="graph0" class="graph" transform="scale(0.465549 0.465549) rotate(0) translate(4 626.75)">
<title>finite_state_machine</title>
<polygon fill="white" stroke="none" points="-4,4 -4,-626.75 1233.25,-626.75 1233.25,4 -4,4"/>
<text text-anchor="middle" x="614.62" y="-6.45" font-family="Times New Roman,serif" font-size="14.00">Sopralluogo</text>
<g id="clust2" class="cluster">
<title>cluster_Accertamenti</title>
<polygon fill="none" stroke="black" points="8,-31.75 8,-559.75 1135,-559.75 1135,-31.75 8,-31.75"/>
<text text-anchor="middle" x="571.5" y="-542.45" font-family="Times New Roman,serif" font-size="14.00">Accertamenti</text>
</g>
<g id="clust3" class="cluster">
<title>cluster_sopralluogo</title>
<polygon fill="none" stroke="black" points="16,-39.75 16,-528 1127,-528 1127,-39.75 16,-39.75"/>
<text text-anchor="middle" x="571.5" y="-510.7" font-family="Times New Roman,serif" font-size="14.00">SOPRALLUOGO</text>
</g>
<g id="clust5" class="cluster">
<title>cluster_sopralluoghista</title>
<polygon fill="none" stroke="black" points="256,-135.5 256,-299 843,-299 843,-135.5 256,-135.5"/>
<text text-anchor="middle" x="549.5" y="-281.7" font-family="Times New Roman,serif" font-size="14.00">Sopralluoghista</text>
</g>
<g id="clust4" class="cluster">
<title>cluster_gestoreReferente</title>
<polygon fill="none" stroke="black" points="24,-47.75 24,-496.25 248,-496.25 248,-47.75 24,-47.75"/>
<text text-anchor="middle" x="136" y="-478.95" font-family="Times New Roman,serif" font-size="14.00">Gestore Referente</text>
</g>
<!-- AvvioSopralluogo -->
<g id="node1" class="node">
<title>AvvioSopralluogo</title>
<path fill="none" stroke="black" d="M175,-464.5C175,-464.5 81,-464.5 81,-464.5 75,-464.5 69,-458.5 69,-452.5 69,-452.5 69,-440.5 69,-440.5 69,-434.5 75,-428.5 81,-428.5 81,-428.5 175,-428.5 175,-428.5 181,-428.5 187,-434.5 187,-440.5 187,-440.5 187,-452.5 187,-452.5 187,-458.5 181,-464.5 175,-464.5"/>
<text text-anchor="middle" x="128" y="-441.07" font-family="Times New Roman,serif" font-size="14.00">AvvioSopralluogo</text>
</g>
<!-- AssegnazioneSopralluogo -->
<g id="node2" class="node">
<title>AssegnazioneSopralluogo</title>
<path fill="none" stroke="black" d="M226.38,-376.75C226.38,-376.75 89.62,-376.75 89.62,-376.75 83.62,-376.75 77.62,-370.75 77.62,-364.75 77.62,-364.75 77.62,-352.75 77.62,-352.75 77.62,-346.75 83.62,-340.75 89.62,-340.75 89.62,-340.75 226.38,-340.75 226.38,-340.75 232.38,-340.75 238.38,-346.75 238.38,-352.75 238.38,-352.75 238.38,-364.75 238.38,-364.75 238.38,-370.75 232.38,-376.75 226.38,-376.75"/>
<text text-anchor="middle" x="158" y="-353.32" font-family="Times New Roman,serif" font-size="14.00">AssegnazioneSopralluogo</text>
</g>
<!-- AvvioSopralluogo&#45;&gt;AssegnazioneSopralluogo -->
<g id="edge1" class="edge">
<title>AvvioSopralluogo&#45;&gt;AssegnazioneSopralluogo</title>
<path fill="none" stroke="black" d="M134.07,-428.15C138.14,-416.52 143.58,-400.97 148.25,-387.63"/>
<polygon fill="black" stroke="black" points="151.44,-389.1 151.44,-378.51 144.83,-386.79 151.44,-389.1"/>
<text text-anchor="middle" x="200.88" y="-397.2" font-family="Times New Roman,serif" font-size="14.00">SopralluogoAvviato</text>
</g>
<!-- VerificaSopralluogoDopoRifiuto -->
<g id="node3" class="node">
<title>VerificaSopralluogoDopoRifiuto</title>
<path fill="none" stroke="black" d="M218.12,-267.25C218.12,-267.25 43.88,-267.25 43.88,-267.25 37.88,-267.25 31.88,-261.25 31.88,-255.25 31.88,-255.25 31.88,-243.25 31.88,-243.25 31.88,-237.25 37.88,-231.25 43.88,-231.25 43.88,-231.25 218.12,-231.25 218.12,-231.25 224.12,-231.25 230.12,-237.25 230.12,-243.25 230.12,-243.25 230.12,-255.25 230.12,-255.25 230.12,-261.25 224.12,-267.25 218.12,-267.25"/>
<text text-anchor="middle" x="131" y="-243.82" font-family="Times New Roman,serif" font-size="14.00">VerificaSopralluogoDopoRifiuto</text>
</g>
<!-- AssegnazioneSopralluogo&#45;&gt;VerificaSopralluogoDopoRifiuto -->
<g id="edge2" class="edge">
<title>AssegnazioneSopralluogo&#45;&gt;VerificaSopralluogoDopoRifiuto</title>
</g>
<!-- PianificazioneSopralluogo -->
<g id="node4" class="node">
<title>PianificazioneSopralluogo</title>
<path fill="none" stroke="black" d="M512.38,-267.25C512.38,-267.25 375.62,-267.25 375.62,-267.25 369.62,-267.25 363.62,-261.25 363.62,-255.25 363.62,-255.25 363.62,-243.25 363.62,-243.25 363.62,-237.25 369.62,-231.25 375.62,-231.25 375.62,-231.25 512.38,-231.25 512.38,-231.25 518.38,-231.25 524.38,-237.25 524.38,-243.25 524.38,-243.25 524.38,-255.25 524.38,-255.25 524.38,-261.25 518.38,-267.25 512.38,-267.25"/>
<text text-anchor="middle" x="444" y="-243.82" font-family="Times New Roman,serif" font-size="14.00">PianificazioneSopralluogo</text>
</g>
<!-- AssegnazioneSopralluogo&#45;&gt;PianificazioneSopralluogo -->
<g id="edge3" class="edge">
<title>AssegnazioneSopralluogo&#45;&gt;PianificazioneSopralluogo</title>
<path fill="none" stroke="black" stroke-dasharray="1,5" d="M204.27,-340.36C254.11,-321.62 333.47,-291.79 387.1,-271.64"/>
<polygon fill="black" stroke="black" points="388.25,-274.94 396.38,-268.15 385.79,-268.39 388.25,-274.94"/>
<text text-anchor="middle" x="355.38" y="-309.45" font-family="Times New Roman,serif" font-size="14.00">SopralluogoAssegnato</text>
</g>
<!-- VerificaSopralluogoDopoRifiuto&#45;&gt;PianificazioneSopralluogo -->
<g id="edge5" class="edge">
<title>VerificaSopralluogoDopoRifiuto&#45;&gt;PianificazioneSopralluogo</title>
<path fill="none" stroke="black" stroke-dasharray="1,5" d="M230.34,-249.25C270.9,-249.25 311.46,-249.25 352.02,-249.25"/>
<polygon fill="black" stroke="black" points="351.95,-252.75 361.95,-249.25 351.95,-245.75 351.95,-252.75"/>
<text text-anchor="middle" x="296.88" y="-235.95" font-family="Times New Roman,serif" font-size="14.00">SopralluogoAssegnato</text>
</g>
<!-- ApprovazioneSopralluogo -->
<g id="node5" class="node">
<title>ApprovazioneSopralluogo</title>
<path fill="none" stroke="black" d="M183.5,-179.5C183.5,-179.5 44.5,-179.5 44.5,-179.5 38.5,-179.5 32.5,-173.5 32.5,-167.5 32.5,-167.5 32.5,-155.5 32.5,-155.5 32.5,-149.5 38.5,-143.5 44.5,-143.5 44.5,-143.5 183.5,-143.5 183.5,-143.5 189.5,-143.5 195.5,-149.5 195.5,-155.5 195.5,-155.5 195.5,-167.5 195.5,-167.5 195.5,-173.5 189.5,-179.5 183.5,-179.5"/>
<text text-anchor="middle" x="114" y="-156.07" font-family="Times New Roman,serif" font-size="14.00">ApprovazioneSopralluogo</text>
</g>
<!-- VerificaSopralluogoDopoRifiuto&#45;&gt;ApprovazioneSopralluogo -->
<g id="edge4" class="edge">
<title>VerificaSopralluogoDopoRifiuto&#45;&gt;ApprovazioneSopralluogo</title>
</g>
<!-- PianificazioneSopralluogo&#45;&gt;VerificaSopralluogoDopoRifiuto -->
<g id="edge8" class="edge">
<title>PianificazioneSopralluogo&#45;&gt;VerificaSopralluogoDopoRifiuto</title>
<path fill="none" stroke="black" stroke-dasharray="1,5" d="M363.36,-249.25C326.39,-249.25 281.97,-249.25 241.91,-249.25"/>
<polygon fill="black" stroke="black" points="241.98,-245.75 231.98,-249.25 241.98,-252.75 241.98,-245.75"/>
<text text-anchor="middle" x="296.88" y="-254.7" font-family="Times New Roman,serif" font-size="14.00">SopralluogoRifiutato</text>
</g>
<!-- EsecuzioneSopralluogo -->
<g id="node7" class="node">
<title>EsecuzioneSopralluogo</title>
<path fill="none" stroke="black" d="M506.62,-179.5C506.62,-179.5 383.38,-179.5 383.38,-179.5 377.38,-179.5 371.38,-173.5 371.38,-167.5 371.38,-167.5 371.38,-155.5 371.38,-155.5 371.38,-149.5 377.38,-143.5 383.38,-143.5 383.38,-143.5 506.62,-143.5 506.62,-143.5 512.62,-143.5 518.62,-149.5 518.62,-155.5 518.62,-155.5 518.62,-167.5 518.62,-167.5 518.62,-173.5 512.62,-179.5 506.62,-179.5"/>
<text text-anchor="middle" x="445" y="-156.07" font-family="Times New Roman,serif" font-size="14.00">EsecuzioneSopralluogo</text>
</g>
<!-- PianificazioneSopralluogo&#45;&gt;EsecuzioneSopralluogo -->
<g id="edge9" class="edge">
<title>PianificazioneSopralluogo&#45;&gt;EsecuzioneSopralluogo</title>
<path fill="none" stroke="black" d="M363.15,-246.42C310.77,-242.22 256.83,-230.24 283.25,-197.5 293.46,-184.84 326.27,-176.54 359.7,-171.21"/>
<polygon fill="black" stroke="black" points="360.15,-174.68 369.53,-169.74 359.12,-167.75 360.15,-174.68"/>
<text text-anchor="middle" x="346.38" y="-199.95" font-family="Times New Roman,serif" font-size="14.00">SopralluogoPianificato</text>
</g>
<!-- ApprovazioneSopralluogo&#45;&gt;PianificazioneSopralluogo -->
<g id="edge7" class="edge">
<title>ApprovazioneSopralluogo&#45;&gt;PianificazioneSopralluogo</title>
<path fill="none" stroke="black" stroke-dasharray="1,5" d="M141.42,-179.96C160.34,-191.2 186.44,-205.16 211.25,-213.25 256.36,-227.96 308.44,-236.52 351.88,-241.49"/>
<polygon fill="black" stroke="black" points="351.48,-244.97 361.8,-242.58 352.24,-238.01 351.48,-244.97"/>
<text text-anchor="middle" x="241.38" y="-199.95" font-family="Times New Roman,serif" font-size="14.00">Approvato</text>
</g>
<!-- NuovoSopralluogoNonApprovato -->
<g id="node6" class="node">
<title>NuovoSopralluogoNonApprovato</title>
<path fill="none" stroke="black" d="M227.62,-91.75C227.62,-91.75 44.38,-91.75 44.38,-91.75 38.38,-91.75 32.37,-85.75 32.37,-79.75 32.37,-79.75 32.37,-67.75 32.37,-67.75 32.37,-61.75 38.37,-55.75 44.37,-55.75 44.37,-55.75 227.62,-55.75 227.62,-55.75 233.62,-55.75 239.62,-61.75 239.62,-67.75 239.62,-67.75 239.62,-79.75 239.62,-79.75 239.62,-85.75 233.62,-91.75 227.62,-91.75"/>
<text text-anchor="middle" x="136" y="-68.33" font-family="Times New Roman,serif" font-size="14.00">NuovoSopralluogoNonApprovato</text>
</g>
<!-- ApprovazioneSopralluogo&#45;&gt;NuovoSopralluogoNonApprovato -->
<g id="edge6" class="edge">
<title>ApprovazioneSopralluogo&#45;&gt;NuovoSopralluogoNonApprovato</title>
<path fill="none" stroke="black" d="M118.45,-143.15C121.4,-131.64 125.35,-116.28 128.75,-103.03"/>
<polygon fill="black" stroke="black" points="132.08,-104.1 131.18,-93.54 125.3,-102.36 132.08,-104.1"/>
<text text-anchor="middle" x="168.38" y="-112.2" font-family="Times New Roman,serif" font-size="14.00">NonApprovato</text>
</g>
<!-- EsecuzioneSopralluogo&#45;&gt;AssegnazioneSopralluogo -->
<g id="edge10" class="edge">
<title>EsecuzioneSopralluogo&#45;&gt;AssegnazioneSopralluogo</title>
<path fill="none" stroke="black" d="M518.8,-161.73C634.46,-161.88 841.59,-168.27 804,-213.25 775.11,-247.82 747.57,-218.9 704.25,-231.25 625.53,-253.68 611.32,-275.23 533,-299 485.14,-313.53 472.28,-314.19 423,-322.75 365.83,-332.68 301.28,-341.26 250.21,-347.44"/>
<polygon fill="black" stroke="black" points="249.87,-343.95 240.36,-348.62 250.71,-350.9 249.87,-343.95"/>
<text text-anchor="middle" x="776.38" y="-243.82" font-family="Times New Roman,serif" font-size="14.00">AnnullamentoSopralluogo</text>
</g>
<!-- EsecuzioneSopralluogo&#45;&gt;PianificazioneSopralluogo -->
<g id="edge12" class="edge">
<title>EsecuzioneSopralluogo&#45;&gt;PianificazioneSopralluogo</title>
<path fill="none" stroke="black" d="M438.01,-179.67C436.06,-185.26 434.22,-191.55 433.25,-197.5 432.06,-204.76 432.73,-212.56 434.19,-219.81"/>
<polygon fill="black" stroke="black" points="430.8,-220.68 436.7,-229.48 437.57,-218.92 430.8,-220.68"/>
<text text-anchor="middle" x="500.88" y="-199.95" font-family="Times New Roman,serif" font-size="14.00">AppuntamentoAnnullato</text>
</g>
<!-- EsecuzioneSopralluogo&#45;&gt;PianificazioneSopralluogo -->
<g id="edge13" class="edge">
<title>EsecuzioneSopralluogo&#45;&gt;PianificazioneSopralluogo</title>
<path fill="none" stroke="black" d="M518.83,-169.77C555.01,-176.45 587.27,-189.16 569,-213.25 563.94,-219.92 551.27,-225.67 535.85,-230.47"/>
<polygon fill="black" stroke="black" points="534.89,-227.11 526.25,-233.23 536.82,-233.84 534.89,-227.11"/>
<text text-anchor="middle" x="618.62" y="-199.95" font-family="Times New Roman,serif" font-size="14.00">ChiusuraAttivita</text>
</g>
<!-- EsecuzioneSopralluogo&#45;&gt;PianificazioneSopralluogo -->
<g id="edge14" class="edge">
<title>EsecuzioneSopralluogo&#45;&gt;PianificazioneSopralluogo</title>
<path fill="none" stroke="black" d="M519.03,-164.15C576.01,-167.17 648.11,-175.4 667,-197.5 671.55,-202.82 671.55,-207.93 667,-213.25 649.94,-233.2 589.66,-241.85 536.07,-245.57"/>
<polygon fill="black" stroke="black" points="536.03,-242.07 526.27,-246.2 536.47,-249.05 536.03,-242.07"/>
<text text-anchor="middle" x="734.88" y="-199.95" font-family="Times New Roman,serif" font-size="14.00">ChiusuraSoprallVariato</text>
</g>
<!-- EsecuzioneSopralluogo&#45;&gt;ApprovazioneSopralluogo -->
<g id="edge11" class="edge">
<title>EsecuzioneSopralluogo&#45;&gt;ApprovazioneSopralluogo</title>
<path fill="none" stroke="black" stroke-dasharray="1,5" d="M370.9,-161.5C322.47,-161.5 258.84,-161.5 207.03,-161.5"/>
<polygon fill="black" stroke="black" points="207.33,-158 197.33,-161.5 207.33,-165 207.33,-158"/>
<text text-anchor="middle" x="283.44" y="-166.95" font-family="Times New Roman,serif" font-size="14.00">RichiestaNuovoSopralluogo</text>
</g>
<!-- EsecuzioneSopralluogo&#45;&gt;EsecuzioneSopralluogo -->
<g id="edge15" class="edge">
<title>EsecuzioneSopralluogo&#45;&gt;EsecuzioneSopralluogo</title>
<path fill="none" stroke="black" d="M519.06,-165.19C529.57,-164.59 536.62,-163.36 536.62,-161.5 536.62,-160.42 534.27,-159.56 530.25,-158.9"/>
<polygon fill="black" stroke="black" points="530.86,-155.45 520.56,-157.96 530.18,-162.41 530.86,-155.45"/>
<text text-anchor="middle" x="608.62" y="-156.07" font-family="Times New Roman,serif" font-size="14.00">AppuntamentoModificato</text>
</g>
<!-- EsecuzioneSopralluogo&#45;&gt;EsecuzioneSopralluogo -->
<g id="edge16" class="edge">
<title>EsecuzioneSopralluogo&#45;&gt;EsecuzioneSopralluogo</title>
<path fill="none" stroke="black" d="M518.87,-168.69C589.18,-171.33 680.62,-168.93 680.62,-161.5 680.62,-154.46 598.57,-151.94 530.15,-153.94"/>
<polygon fill="black" stroke="black" points="530.26,-150.43 520.38,-154.26 530.49,-157.43 530.26,-150.43"/>
<text text-anchor="middle" x="748.88" y="-156.07" font-family="Times New Roman,serif" font-size="14.00">DatiObbligatoriMancanti</text>
</g>
<!-- AvvioPerizia -->
<g id="node8" class="node">
<title>AvvioPerizia</title>
<polygon fill="lightgrey" stroke="black" points="1229.25,-91.75 1142.75,-91.75 1142.75,-55.75 1229.25,-55.75 1229.25,-91.75"/>
<text text-anchor="middle" x="1186" y="-68.33" font-family="Times New Roman,serif" font-size="14.00">AvvioPerizia</text>
</g>
<!-- EsecuzioneSopralluogo&#45;&gt;AvvioPerizia -->
<g id="edge17" class="edge">
<title>EsecuzioneSopralluogo&#45;&gt;AvvioPerizia</title>
<path fill="none" stroke="black" d="M519.1,-151.92C667.83,-134.71 999.66,-96.31 1130.98,-81.12"/>
<polygon fill="black" stroke="black" points="1131.28,-84.61 1140.81,-79.98 1130.47,-77.65 1131.28,-84.61"/>
<text text-anchor="middle" x="947.75" y="-112.2" font-family="Times New Roman,serif" font-size="14.00">SopralluogoCompletato</text>
</g>
<!-- PortaleAssicurato -->
<g id="node9" class="node">
<title>PortaleAssicurato</title>
<polygon fill="lightgrey" stroke="black" points="1116.5,-267.25 1001.5,-267.25 1001.5,-231.25 1116.5,-231.25 1116.5,-267.25"/>
<text text-anchor="middle" x="1059" y="-243.82" font-family="Times New Roman,serif" font-size="14.00">PortaleAssicurato</text>
</g>
<!-- PortaleAssicurato&#45;&gt;EsecuzioneSopralluogo -->
<g id="edge19" class="edge">
<title>PortaleAssicurato&#45;&gt;EsecuzioneSopralluogo</title>
<path fill="none" stroke="black" stroke-dasharray="1,5" d="M1001.33,-244.32C961.54,-240.08 908.08,-231.32 864,-213.25 852.54,-208.55 852.66,-201.68 841,-197.5 785.77,-177.7 629.24,-168.76 530.32,-164.99"/>
<polygon fill="black" stroke="black" points="530.48,-161.49 520.36,-164.62 530.22,-168.49 530.48,-161.49"/>
<text text-anchor="middle" x="921" y="-199.95" font-family="Times New Roman,serif" font-size="14.00">RichiestaPaRicevuta</text>
</g>
<!-- PortaleAssicurato&#45;&gt;EsecuzioneSopralluogo -->
<g id="edge20" class="edge">
<title>PortaleAssicurato&#45;&gt;EsecuzioneSopralluogo</title>
<path fill="none" stroke="black" stroke-dasharray="1,5" d="M1037.8,-230.83C1022.26,-219.15 1000.11,-204.65 978,-197.5 897.22,-171.39 659.33,-164.72 530.4,-163.05"/>
<polygon fill="black" stroke="black" points="530.59,-159.55 520.54,-162.93 530.5,-166.55 530.59,-159.55"/>
<text text-anchor="middle" x="1070.25" y="-199.95" font-family="Times New Roman,serif" font-size="14.00">ConfermaPaRicevuta</text>
</g>
<!-- Apertura -->
<g id="node10" class="node">
<title>Apertura</title>
<polygon fill="lightgrey" stroke="black" points="160.38,-622.75 95.62,-622.75 95.62,-586.75 160.38,-586.75 160.38,-622.75"/>
<text text-anchor="middle" x="128" y="-599.33" font-family="Times New Roman,serif" font-size="14.00">Apertura</text>
</g>
<!-- Apertura&#45;&gt;AvvioSopralluogo -->
<g id="edge18" class="edge">
<title>Apertura&#45;&gt;AvvioSopralluogo</title>
<path fill="none" stroke="black" d="M128,-586.43C128,-559.8 128,-508.5 128,-476.24"/>
<polygon fill="black" stroke="black" points="131.5,-476.41 128,-466.41 124.5,-476.41 131.5,-476.41"/>
</g>
</g>
</svg>
