<?xml version="1.0" encoding="UTF-8" standalone="no"?>
<!DOCTYPE svg PUBLIC "-//W3C//DTD SVG 1.1//EN"
 "http://www.w3.org/Graphics/SVG/1.1/DTD/svg11.dtd">
<!-- Generated by graphviz version 9.0.0 (20230911.1827)
 -->
<!-- ACCERTAMENTI -->
<!-- Title: finite_state_machine Pages: 1 -->
<svg width="576pt" height="288pt"
 viewBox="0.00 0.00 576.00 287.60" xmlns="http://www.w3.org/2000/svg" xmlns:xlink="http://www.w3.org/1999/xlink">
<g id="graph0" class="graph" transform="scale(0.455967 0.455967) rotate(0) translate(4 626.75)">
<title>finite_state_machine</title>
<polygon fill="white" stroke="none" points="-4,4 -4,-626.75 1259.25,-626.75 1259.25,4 -4,4"/>
<text text-anchor="middle" x="627.62" y="-6.45" font-family="Times New Roman,serif" font-size="14.00">SopralluogoPCE</text>
<g id="clust2" class="cluster">
<title>cluster_Accertamenti</title>
<polygon fill="none" stroke="black" points="8,-31.75 8,-559.75 1161,-559.75 1161,-31.75 8,-31.75"/>
<text text-anchor="middle" x="584.5" y="-542.45" font-family="Times New Roman,serif" font-size="14.00">Accertamenti</text>
</g>
<g id="clust3" class="cluster">
<title>cluster_sopralluogo</title>
<polygon fill="none" stroke="black" points="16,-39.75 16,-528 1153,-528 1153,-39.75 16,-39.75"/>
<text text-anchor="middle" x="584.5" y="-510.7" font-family="Times New Roman,serif" font-size="14.00">SOPRALLUOGO PCE</text>
</g>
<g id="clust4" class="cluster">
<title>cluster_gestoreReferente</title>
<polygon fill="none" stroke="black" points="24,-47.75 24,-496.25 274,-496.25 274,-47.75 24,-47.75"/>
<text text-anchor="middle" x="149" y="-478.95" font-family="Times New Roman,serif" font-size="14.00">Gestore Referente</text>
</g>
<g id="clust5" class="cluster">
<title>cluster_sopralluoghista</title>
<polygon fill="none" stroke="black" points="282,-135.5 282,-299 895,-299 895,-135.5 282,-135.5"/>
<text text-anchor="middle" x="588.5" y="-281.7" font-family="Times New Roman,serif" font-size="14.00">Sopralluoghista</text>
</g>
<!-- AvvioSopralluogoPCE -->
<g id="node1" class="node">
<title>AvvioSopralluogoPCE</title>
<path fill="none" stroke="black" d="M214.12,-464.5C214.12,-464.5 93.88,-464.5 93.88,-464.5 87.88,-464.5 81.88,-458.5 81.88,-452.5 81.88,-452.5 81.88,-440.5 81.88,-440.5 81.88,-434.5 87.88,-428.5 93.88,-428.5 93.88,-428.5 214.12,-428.5 214.12,-428.5 220.12,-428.5 226.12,-434.5 226.12,-440.5 226.12,-440.5 226.12,-452.5 226.12,-452.5 226.12,-458.5 220.12,-464.5 214.12,-464.5"/>
<text text-anchor="middle" x="154" y="-441.07" font-family="Times New Roman,serif" font-size="14.00">AvvioSopralluogoPCE</text>
</g>
<!-- AssegnazioneSopralluogoPCE -->
<g id="node2" class="node">
<title>AssegnazioneSopralluogoPCE</title>
<path fill="none" stroke="black" d="M251.5,-376.75C251.5,-376.75 88.5,-376.75 88.5,-376.75 82.5,-376.75 76.5,-370.75 76.5,-364.75 76.5,-364.75 76.5,-352.75 76.5,-352.75 76.5,-346.75 82.5,-340.75 88.5,-340.75 88.5,-340.75 251.5,-340.75 251.5,-340.75 257.5,-340.75 263.5,-346.75 263.5,-352.75 263.5,-352.75 263.5,-364.75 263.5,-364.75 263.5,-370.75 257.5,-376.75 251.5,-376.75"/>
<text text-anchor="middle" x="170" y="-353.32" font-family="Times New Roman,serif" font-size="14.00">AssegnazioneSopralluogoPCE</text>
</g>
<!-- AvvioSopralluogoPCE&#45;&gt;AssegnazioneSopralluogoPCE -->
<g id="edge1" class="edge">
<title>AvvioSopralluogoPCE&#45;&gt;AssegnazioneSopralluogoPCE</title>
<path fill="none" stroke="black" d="M157.24,-428.15C159.38,-416.64 162.25,-401.28 164.72,-388.03"/>
<polygon fill="black" stroke="black" points="168.1,-389.04 166.49,-378.56 161.21,-387.75 168.1,-389.04"/>
<text text-anchor="middle" x="218.88" y="-397.2" font-family="Times New Roman,serif" font-size="14.00">SopralluogoAvviato</text>
</g>
<!-- VerificaSopralluogoPCEDopoRifiuto -->
<g id="node3" class="node">
<title>VerificaSopralluogoPCEDopoRifiuto</title>
<path fill="none" stroke="black" d="M244.25,-267.25C244.25,-267.25 43.75,-267.25 43.75,-267.25 37.75,-267.25 31.75,-261.25 31.75,-255.25 31.75,-255.25 31.75,-243.25 31.75,-243.25 31.75,-237.25 37.75,-231.25 43.75,-231.25 43.75,-231.25 244.25,-231.25 244.25,-231.25 250.25,-231.25 256.25,-237.25 256.25,-243.25 256.25,-243.25 256.25,-255.25 256.25,-255.25 256.25,-261.25 250.25,-267.25 244.25,-267.25"/>
<text text-anchor="middle" x="144" y="-243.82" font-family="Times New Roman,serif" font-size="14.00">VerificaSopralluogoPCEDopoRifiuto</text>
</g>
<!-- AssegnazioneSopralluogoPCE&#45;&gt;VerificaSopralluogoPCEDopoRifiuto -->
<g id="edge2" class="edge">
<title>AssegnazioneSopralluogoPCE&#45;&gt;VerificaSopralluogoPCEDopoRifiuto</title>
</g>
<!-- PianificazioneSopralluogoPCE -->
<g id="node4" class="node">
<title>PianificazioneSopralluogoPCE</title>
<path fill="none" stroke="black" d="M564.5,-267.25C564.5,-267.25 401.5,-267.25 401.5,-267.25 395.5,-267.25 389.5,-261.25 389.5,-255.25 389.5,-255.25 389.5,-243.25 389.5,-243.25 389.5,-237.25 395.5,-231.25 401.5,-231.25 401.5,-231.25 564.5,-231.25 564.5,-231.25 570.5,-231.25 576.5,-237.25 576.5,-243.25 576.5,-243.25 576.5,-255.25 576.5,-255.25 576.5,-261.25 570.5,-267.25 564.5,-267.25"/>
<text text-anchor="middle" x="483" y="-243.82" font-family="Times New Roman,serif" font-size="14.00">PianificazioneSopralluogoPCE</text>
</g>
<!-- AssegnazioneSopralluogoPCE&#45;&gt;PianificazioneSopralluogoPCE -->
<g id="edge3" class="edge">
<title>AssegnazioneSopralluogoPCE&#45;&gt;PianificazioneSopralluogoPCE</title>
<path fill="none" stroke="black" stroke-dasharray="1,5" d="M220.64,-340.36C275.45,-321.53 362.87,-291.51 421.57,-271.35"/>
<polygon fill="black" stroke="black" points="422.42,-274.76 430.74,-268.2 420.15,-268.14 422.42,-274.76"/>
<text text-anchor="middle" x="380.38" y="-309.45" font-family="Times New Roman,serif" font-size="14.00">SopralluogoAssegnato</text>
</g>
<!-- VerificaSopralluogoPCEDopoRifiuto&#45;&gt;PianificazioneSopralluogoPCE -->
<g id="edge5" class="edge">
<title>VerificaSopralluogoPCEDopoRifiuto&#45;&gt;PianificazioneSopralluogoPCE</title>
<path fill="none" stroke="black" stroke-dasharray="1,5" d="M256.56,-249.25C296.98,-249.25 337.41,-249.25 377.84,-249.25"/>
<polygon fill="black" stroke="black" points="377.73,-252.75 387.73,-249.25 377.73,-245.75 377.73,-252.75"/>
<text text-anchor="middle" x="322.88" y="-235.95" font-family="Times New Roman,serif" font-size="14.00">SopralluogoAssegnato</text>
</g>
<!-- ApprovazioneSopralluogoPCE -->
<g id="node5" class="node">
<title>ApprovazioneSopralluogoPCE</title>
<path fill="none" stroke="black" d="M209.62,-179.5C209.62,-179.5 44.38,-179.5 44.38,-179.5 38.38,-179.5 32.38,-173.5 32.38,-167.5 32.38,-167.5 32.38,-155.5 32.38,-155.5 32.38,-149.5 38.38,-143.5 44.38,-143.5 44.38,-143.5 209.62,-143.5 209.62,-143.5 215.62,-143.5 221.62,-149.5 221.62,-155.5 221.62,-155.5 221.62,-167.5 221.62,-167.5 221.62,-173.5 215.62,-179.5 209.62,-179.5"/>
<text text-anchor="middle" x="127" y="-156.07" font-family="Times New Roman,serif" font-size="14.00">ApprovazioneSopralluogoPCE</text>
</g>
<!-- VerificaSopralluogoPCEDopoRifiuto&#45;&gt;ApprovazioneSopralluogoPCE -->
<g id="edge4" class="edge">
<title>VerificaSopralluogoPCEDopoRifiuto&#45;&gt;ApprovazioneSopralluogoPCE</title>
</g>
<!-- PianificazioneSopralluogoPCE&#45;&gt;VerificaSopralluogoPCEDopoRifiuto -->
<g id="edge8" class="edge">
<title>PianificazioneSopralluogoPCE&#45;&gt;VerificaSopralluogoPCEDopoRifiuto</title>
<path fill="none" stroke="black" stroke-dasharray="1,5" d="M389,-249.25C351.53,-249.25 307.86,-249.25 267.86,-249.25"/>
<polygon fill="black" stroke="black" points="267.92,-245.75 257.92,-249.25 267.92,-252.75 267.92,-245.75"/>
<text text-anchor="middle" x="322.88" y="-254.7" font-family="Times New Roman,serif" font-size="14.00">SopralluogoRifiutato</text>
</g>
<!-- EsecuzioneSopralluogoPCE -->
<g id="node7" class="node">
<title>EsecuzioneSopralluogoPCE</title>
<path fill="none" stroke="black" d="M558.75,-179.5C558.75,-179.5 409.25,-179.5 409.25,-179.5 403.25,-179.5 397.25,-173.5 397.25,-167.5 397.25,-167.5 397.25,-155.5 397.25,-155.5 397.25,-149.5 403.25,-143.5 409.25,-143.5 409.25,-143.5 558.75,-143.5 558.75,-143.5 564.75,-143.5 570.75,-149.5 570.75,-155.5 570.75,-155.5 570.75,-167.5 570.75,-167.5 570.75,-173.5 564.75,-179.5 558.75,-179.5"/>
<text text-anchor="middle" x="484" y="-156.07" font-family="Times New Roman,serif" font-size="14.00">EsecuzioneSopralluogoPCE</text>
</g>
<!-- PianificazioneSopralluogoPCE&#45;&gt;EsecuzioneSopralluogoPCE -->
<g id="edge9" class="edge">
<title>PianificazioneSopralluogoPCE&#45;&gt;EsecuzioneSopralluogoPCE</title>
<path fill="none" stroke="black" d="M389.06,-247.24C334.59,-243.21 281.71,-231.1 309.25,-197.5 319.74,-184.71 351.95,-176.49 385.91,-171.27"/>
<polygon fill="black" stroke="black" points="386.08,-174.78 395.47,-169.89 385.08,-167.85 386.08,-174.78"/>
<text text-anchor="middle" x="372.38" y="-199.95" font-family="Times New Roman,serif" font-size="14.00">SopralluogoPianificato</text>
</g>
<!-- ApprovazioneSopralluogoPCE&#45;&gt;PianificazioneSopralluogoPCE -->
<g id="edge7" class="edge">
<title>ApprovazioneSopralluogoPCE&#45;&gt;PianificazioneSopralluogoPCE</title>
<path fill="none" stroke="black" stroke-dasharray="1,5" d="M158.37,-179.92C179.93,-191.13 209.56,-205.09 237.25,-213.25 282.41,-226.55 333.78,-234.87 377.83,-240.04"/>
<polygon fill="black" stroke="black" points="377.33,-243.51 387.66,-241.15 378.11,-236.55 377.33,-243.51"/>
<text text-anchor="middle" x="267.38" y="-199.95" font-family="Times New Roman,serif" font-size="14.00">Approvato</text>
</g>
<!-- NuovoSopralluogoPCENonApprovato -->
<g id="node6" class="node">
<title>NuovoSopralluogoPCENonApprovato</title>
<path fill="none" stroke="black" d="M253.75,-91.75C253.75,-91.75 44.25,-91.75 44.25,-91.75 38.25,-91.75 32.25,-85.75 32.25,-79.75 32.25,-79.75 32.25,-67.75 32.25,-67.75 32.25,-61.75 38.25,-55.75 44.25,-55.75 44.25,-55.75 253.75,-55.75 253.75,-55.75 259.75,-55.75 265.75,-61.75 265.75,-67.75 265.75,-67.75 265.75,-79.75 265.75,-79.75 265.75,-85.75 259.75,-91.75 253.75,-91.75"/>
<text text-anchor="middle" x="149" y="-68.33" font-family="Times New Roman,serif" font-size="14.00">NuovoSopralluogoPCENonApprovato</text>
</g>
<!-- ApprovazioneSopralluogoPCE&#45;&gt;NuovoSopralluogoPCENonApprovato -->
<g id="edge6" class="edge">
<title>ApprovazioneSopralluogoPCE&#45;&gt;NuovoSopralluogoPCENonApprovato</title>
<path fill="none" stroke="black" d="M131.45,-143.15C134.4,-131.64 138.35,-116.28 141.75,-103.03"/>
<polygon fill="black" stroke="black" points="145.08,-104.1 144.18,-93.54 138.3,-102.36 145.08,-104.1"/>
<text text-anchor="middle" x="181.38" y="-112.2" font-family="Times New Roman,serif" font-size="14.00">NonApprovato</text>
</g>
<!-- EsecuzioneSopralluogoPCE&#45;&gt;AssegnazioneSopralluogoPCE -->
<g id="edge10" class="edge">
<title>EsecuzioneSopralluogoPCE&#45;&gt;AssegnazioneSopralluogoPCE</title>
<path fill="none" stroke="black" d="M571.13,-162.25C684.25,-163.55 863.42,-171.99 829,-213.25 800.42,-247.51 772.74,-217.65 730.25,-231.25 662.79,-252.84 653.57,-277.75 586,-299 526.63,-317.67 509.56,-313.58 448,-322.75 390.96,-331.24 327.13,-339.38 275.03,-345.66"/>
<polygon fill="black" stroke="black" points="274.78,-342.17 265.27,-346.83 275.61,-349.12 274.78,-342.17"/>
<text text-anchor="middle" x="802.38" y="-243.82" font-family="Times New Roman,serif" font-size="14.00">AnnullamentoSopralluogo</text>
</g>
<!-- EsecuzioneSopralluogoPCE&#45;&gt;PianificazioneSopralluogoPCE -->
<g id="edge12" class="edge">
<title>EsecuzioneSopralluogoPCE&#45;&gt;PianificazioneSopralluogoPCE</title>
<path fill="none" stroke="black" d="M468.58,-179.87C464.78,-185.17 461.23,-191.26 459.25,-197.5 456.77,-205.31 458.49,-213.48 461.93,-220.93"/>
<polygon fill="black" stroke="black" points="458.87,-222.63 466.9,-229.54 464.93,-219.13 458.87,-222.63"/>
<text text-anchor="middle" x="526.88" y="-199.95" font-family="Times New Roman,serif" font-size="14.00">AppuntamentoAnnullato</text>
</g>
<!-- EsecuzioneSopralluogoPCE&#45;&gt;PianificazioneSopralluogoPCE -->
<g id="edge13" class="edge">
<title>EsecuzioneSopralluogoPCE&#45;&gt;PianificazioneSopralluogoPCE</title>
<path fill="none" stroke="black" d="M571.07,-176.94C593.22,-184.58 607.61,-196.09 595,-213.25 591.93,-217.43 588.37,-221.12 584.43,-224.38"/>
<polygon fill="black" stroke="black" points="582.66,-221.34 576.52,-229.98 586.71,-227.06 582.66,-221.34"/>
<text text-anchor="middle" x="643.62" y="-199.95" font-family="Times New Roman,serif" font-size="14.00">ChiusuraAttivita</text>
</g>
<!-- EsecuzioneSopralluogoPCE&#45;&gt;PianificazioneSopralluogoPCE -->
<g id="edge14" class="edge">
<title>EsecuzioneSopralluogoPCE&#45;&gt;PianificazioneSopralluogoPCE</title>
<path fill="none" stroke="black" d="M571.02,-166.1C620.75,-170.19 676.27,-178.91 692,-197.5 696.52,-202.84 696.52,-207.91 692,-213.25 678.06,-229.72 633.01,-238.45 588.29,-243.07"/>
<polygon fill="black" stroke="black" points="588.07,-239.57 578.45,-244.01 588.74,-246.54 588.07,-239.57"/>
<text text-anchor="middle" x="759.88" y="-199.95" font-family="Times New Roman,serif" font-size="14.00">ChiusuraSoprallVariato</text>
</g>
<!-- EsecuzioneSopralluogoPCE&#45;&gt;ApprovazioneSopralluogoPCE -->
<g id="edge11" class="edge">
<title>EsecuzioneSopralluogoPCE&#45;&gt;ApprovazioneSopralluogoPCE</title>
<path fill="none" stroke="black" stroke-dasharray="1,5" d="M396.79,-161.5C347.4,-161.5 285.25,-161.5 233.05,-161.5"/>
<polygon fill="black" stroke="black" points="233.25,-158 223.25,-161.5 233.25,-165 233.25,-158"/>
<text text-anchor="middle" x="309.44" y="-166.95" font-family="Times New Roman,serif" font-size="14.00">RichiestaNuovoSopralluogo</text>
</g>
<!-- EsecuzioneSopralluogoPCE&#45;&gt;EsecuzioneSopralluogoPCE -->
<g id="edge15" class="edge">
<title>EsecuzioneSopralluogoPCE&#45;&gt;EsecuzioneSopralluogoPCE</title>
<path fill="none" stroke="black" d="M571.09,-165.06C581.76,-164.42 588.75,-163.24 588.75,-161.5 588.75,-160.5 586.41,-159.68 582.38,-159.04"/>
<polygon fill="black" stroke="black" points="582.89,-155.57 572.6,-158.09 582.21,-162.54 582.89,-155.57"/>
<text text-anchor="middle" x="660.75" y="-156.07" font-family="Times New Roman,serif" font-size="14.00">AppuntamentoModificato</text>
</g>
<!-- EsecuzioneSopralluogoPCE&#45;&gt;EsecuzioneSopralluogoPCE -->
<g id="edge16" class="edge">
<title>EsecuzioneSopralluogoPCE&#45;&gt;EsecuzioneSopralluogoPCE</title>
<path fill="none" stroke="black" d="M571.12,-168.95C644.04,-171.15 732.75,-168.67 732.75,-161.5 732.75,-154.7 652.82,-152.11 582.34,-153.75"/>
<polygon fill="black" stroke="black" points="582.54,-150.24 572.64,-154.01 582.73,-157.24 582.54,-150.24"/>
<text text-anchor="middle" x="801" y="-156.07" font-family="Times New Roman,serif" font-size="14.00">DatiObbligatoriMancanti</text>
</g>
<!-- AvvioPerizia -->
<g id="node8" class="node">
<title>AvvioPerizia</title>
<polygon fill="lightgrey" stroke="black" points="1255.25,-91.75 1168.75,-91.75 1168.75,-55.75 1255.25,-55.75 1255.25,-91.75"/>
<text text-anchor="middle" x="1212" y="-68.33" font-family="Times New Roman,serif" font-size="14.00">AvvioPerizia</text>
</g>
<!-- EsecuzioneSopralluogoPCE&#45;&gt;AvvioPerizia -->
<g id="edge17" class="edge">
<title>EsecuzioneSopralluogoPCE&#45;&gt;AvvioPerizia</title>
<path fill="none" stroke="black" d="M571.09,-150.24C722.97,-132.35 1032.05,-95.95 1157.38,-81.18"/>
<polygon fill="black" stroke="black" points="1157.54,-84.69 1167.07,-80.04 1156.73,-77.74 1157.54,-84.69"/>
<text text-anchor="middle" x="979.75" y="-112.2" font-family="Times New Roman,serif" font-size="14.00">SopralluogoCompletato</text>
</g>
<!-- PortaleAssicurato -->
<g id="node9" class="node">
<title>PortaleAssicurato</title>
<polygon fill="lightgrey" stroke="black" points="1142.5,-267.25 1027.5,-267.25 1027.5,-231.25 1142.5,-231.25 1142.5,-267.25"/>
<text text-anchor="middle" x="1085" y="-243.82" font-family="Times New Roman,serif" font-size="14.00">PortaleAssicurato</text>
</g>
<!-- PortaleAssicurato&#45;&gt;EsecuzioneSopralluogoPCE -->
<g id="edge19" class="edge">
<title>PortaleAssicurato&#45;&gt;EsecuzioneSopralluogoPCE</title>
<path fill="none" stroke="black" stroke-dasharray="1,5" d="M1027.33,-244.32C987.54,-240.08 934.08,-231.32 890,-213.25 878.54,-208.55 878.66,-201.7 867,-197.5 816.52,-179.31 678.47,-170.17 582.7,-165.88"/>
<polygon fill="black" stroke="black" points="582.89,-162.38 572.75,-165.45 582.59,-169.38 582.89,-162.38"/>
<text text-anchor="middle" x="947" y="-199.95" font-family="Times New Roman,serif" font-size="14.00">RichiestaPaRicevuta</text>
</g>
<!-- PortaleAssicurato&#45;&gt;EsecuzioneSopralluogoPCE -->
<g id="edge20" class="edge">
<title>PortaleAssicurato&#45;&gt;EsecuzioneSopralluogoPCE</title>
<path fill="none" stroke="black" stroke-dasharray="1,5" d="M1063.79,-230.85C1048.25,-219.17 1026.1,-204.66 1004,-197.5 928.28,-172.96 711.03,-165.62 582.55,-163.43"/>
<polygon fill="black" stroke="black" points="582.73,-159.93 572.68,-163.27 582.62,-166.93 582.73,-159.93"/>
<text text-anchor="middle" x="1096.25" y="-199.95" font-family="Times New Roman,serif" font-size="14.00">ConfermaPaRicevuta</text>
</g>
<!-- Apertura -->
<g id="node10" class="node">
<title>Apertura</title>
<polygon fill="lightgrey" stroke="black" points="186.38,-622.75 121.62,-622.75 121.62,-586.75 186.38,-586.75 186.38,-622.75"/>
<text text-anchor="middle" x="154" y="-599.33" font-family="Times New Roman,serif" font-size="14.00">Apertura</text>
</g>
<!-- Apertura&#45;&gt;AvvioSopralluogoPCE -->
<g id="edge18" class="edge">
<title>Apertura&#45;&gt;AvvioSopralluogoPCE</title>
<path fill="none" stroke="black" d="M154,-586.43C154,-559.8 154,-508.5 154,-476.24"/>
<polygon fill="black" stroke="black" points="157.5,-476.41 154,-466.41 150.5,-476.41 157.5,-476.41"/>
</g>
</g>
</svg>
