<?xml version="1.0" encoding="UTF-8" standalone="no"?>
<!DOCTYPE svg PUBLIC "-//W3C//DTD SVG 1.1//EN"
 "http://www.w3.org/Graphics/SVG/1.1/DTD/svg11.dtd">
<!-- Generated by graphviz version 9.0.0 (20230911.1827)
 -->
<!-- Title: finite_state_machine Pages: 1 -->
<svg width="518pt" height="360pt"
 viewBox="0.00 0.00 518.34 360.00" xmlns="http://www.w3.org/2000/svg" xmlns:xlink="http://www.w3.org/1999/xlink">
<g id="graph0" class="graph" transform="scale(0.692974 0.692974) rotate(0) translate(4 515.5)">
<title>finite_state_machine</title>
<polygon fill="white" stroke="none" points="-4,4 -4,-515.5 744,-515.5 744,4 -4,4"/>
<text text-anchor="middle" x="370" y="-6.45" font-family="Times New Roman,serif" font-size="14.00">Accertamenti&#45;Visio</text>
<g id="clust4" class="cluster">
<title>cluster_Accertamenti</title>
<polygon fill="none" stroke="black" points="8,-31.75 8,-410.5 618,-410.5 618,-31.75 8,-31.75"/>
<text text-anchor="middle" x="313" y="-393.2" font-family="Times New Roman,serif" font-size="14.00">Accertamenti</text>
</g>
<g id="clust5" class="cluster">
<title>cluster_visio</title>
<polygon fill="none" stroke="black" points="16,-39.75 16,-378.75 610,-378.75 610,-39.75 16,-39.75"/>
<text text-anchor="middle" x="313" y="-361.45" font-family="Times New Roman,serif" font-size="14.00">VISIO</text>
</g>
<!-- Apertura -->
<g id="node1" class="node">
<title>Apertura</title>
<polygon fill="lightgrey" stroke="black" points="616.38,-511.5 551.62,-511.5 551.62,-475.5 616.38,-475.5 616.38,-511.5"/>
<text text-anchor="middle" x="584" y="-488.07" font-family="Times New Roman,serif" font-size="14.00">Apertura</text>
</g>
<!-- AvvioVisio -->
<g id="node3" class="node">
<title>AvvioVisio</title>
<path fill="none" stroke="black" d="M522.5,-347C522.5,-347 467.5,-347 467.5,-347 461.5,-347 455.5,-341 455.5,-335 455.5,-335 455.5,-323 455.5,-323 455.5,-317 461.5,-311 467.5,-311 467.5,-311 522.5,-311 522.5,-311 528.5,-311 534.5,-317 534.5,-323 534.5,-323 534.5,-335 534.5,-335 534.5,-341 528.5,-347 522.5,-347"/>
<text text-anchor="middle" x="495" y="-323.57" font-family="Times New Roman,serif" font-size="14.00">AvvioVisio</text>
</g>
<!-- Apertura&#45;&gt;AvvioVisio -->
<g id="edge1" class="edge">
<title>Apertura&#45;&gt;AvvioVisio</title>
<path fill="none" stroke="black" d="M574.48,-475.11C559.02,-446.89 528.35,-390.9 509.96,-357.32"/>
<polygon fill="black" stroke="black" points="513.06,-355.68 505.18,-348.59 506.92,-359.04 513.06,-355.68"/>
</g>
<!-- AvvioManualeVisio -->
<g id="node4" class="node">
<title>AvvioManualeVisio</title>
<path fill="none" stroke="black" d="M354.75,-83.75C354.75,-83.75 253.25,-83.75 253.25,-83.75 247.25,-83.75 241.25,-77.75 241.25,-71.75 241.25,-71.75 241.25,-59.75 241.25,-59.75 241.25,-53.75 247.25,-47.75 253.25,-47.75 253.25,-47.75 354.75,-47.75 354.75,-47.75 360.75,-47.75 366.75,-53.75 366.75,-59.75 366.75,-59.75 366.75,-71.75 366.75,-71.75 366.75,-77.75 360.75,-83.75 354.75,-83.75"/>
<text text-anchor="middle" x="304" y="-60.33" font-family="Times New Roman,serif" font-size="14.00">AvvioManualeVisio</text>
</g>
<!-- Apertura&#45;&gt;AvvioManualeVisio -->
<g id="edge2" class="edge">
<title>Apertura&#45;&gt;AvvioManualeVisio</title>
<path fill="none" stroke="black" d="M616.7,-487.93C662.45,-480.6 740,-464.37 740,-438.5 740,-438.5 740,-438.5 740,-152.5 740,-79.65 502.72,-67.62 378.25,-66.32"/>
<polygon fill="black" stroke="black" points="378.47,-62.82 368.45,-66.24 378.42,-69.82 378.47,-62.82"/>
</g>
<!-- AvvioPerizia -->
<g id="node2" class="node">
<title>AvvioPerizia</title>
<polygon fill="lightgrey" stroke="black" points="712.25,-171.5 625.75,-171.5 625.75,-135.5 712.25,-135.5 712.25,-171.5"/>
<text text-anchor="middle" x="669" y="-148.07" font-family="Times New Roman,serif" font-size="14.00">AvvioPerizia</text>
</g>
<!-- EsecuzioneVisio -->
<g id="node5" class="node">
<title>EsecuzioneVisio</title>
<path fill="none" stroke="black" d="M120.12,-259.25C120.12,-259.25 35.88,-259.25 35.88,-259.25 29.88,-259.25 23.88,-253.25 23.88,-247.25 23.88,-247.25 23.88,-235.25 23.88,-235.25 23.88,-229.25 29.88,-223.25 35.88,-223.25 35.88,-223.25 120.12,-223.25 120.12,-223.25 126.12,-223.25 132.12,-229.25 132.12,-235.25 132.12,-235.25 132.12,-247.25 132.12,-247.25 132.12,-253.25 126.12,-259.25 120.12,-259.25"/>
<text text-anchor="middle" x="78" y="-235.82" font-family="Times New Roman,serif" font-size="14.00">EsecuzioneVisio</text>
</g>
<!-- AvvioVisio&#45;&gt;EsecuzioneVisio -->
<g id="edge3" class="edge">
<title>AvvioVisio&#45;&gt;EsecuzioneVisio</title>
<path fill="none" stroke="black" d="M455.15,-316.32C416.12,-305.19 354.85,-288.49 301,-277.25 248.42,-266.27 188.21,-257.02 143.62,-250.79"/>
<polygon fill="black" stroke="black" points="144.23,-247.34 133.85,-249.44 143.28,-254.27 144.23,-247.34"/>
<text text-anchor="middle" x="408.12" y="-279.7" font-family="Times New Roman,serif" font-size="14.00">VisioPianificata</text>
</g>
<!-- AvvioManualeVisio&#45;&gt;EsecuzioneVisio -->
<g id="edge4" class="edge">
<title>AvvioManualeVisio&#45;&gt;EsecuzioneVisio</title>
<path fill="none" stroke="black" d="M294.22,-84C280.68,-106.59 254.34,-146.28 223,-171.5 198.38,-191.32 167.11,-207.07 139.91,-218.47"/>
<polygon fill="black" stroke="black" points="138.67,-215.2 130.72,-222.21 141.3,-221.68 138.67,-215.2"/>
<text text-anchor="middle" x="301.12" y="-148.07" font-family="Times New Roman,serif" font-size="14.00">VisioPianificata</text>
</g>
<!-- EsecuzioneVisio&#45;&gt;AvvioPerizia -->
<g id="edge10" class="edge">
<title>EsecuzioneVisio&#45;&gt;AvvioPerizia</title>
<path fill="none" stroke="black" d="M132.25,-236.83C229.73,-229.92 440.51,-211.39 614,-171.5 614.12,-171.47 614.23,-171.45 614.35,-171.42"/>
<polygon fill="black" stroke="black" points="615.03,-174.86 623.86,-169.01 613.31,-168.07 615.03,-174.86"/>
<text text-anchor="middle" x="558.5" y="-191.95" font-family="Times New Roman,serif" font-size="14.00">VisioCompletata</text>
</g>
<!-- EsecuzioneVisio&#45;&gt;AvvioManualeVisio -->
<g id="edge5" class="edge">
<title>EsecuzioneVisio&#45;&gt;AvvioManualeVisio</title>
<path fill="none" stroke="black" d="M67.68,-222.77C55.9,-200.29 40.62,-161.1 60,-135.5 80.58,-108.32 165.64,-88.85 229.58,-77.72"/>
<polygon fill="black" stroke="black" points="230.08,-81.19 239.36,-76.06 228.91,-74.29 230.08,-81.19"/>
<text text-anchor="middle" x="139.5" y="-148.07" font-family="Times New Roman,serif" font-size="14.00">VisioCompletataNuovaVisio</text>
</g>
<!-- EsecuzioneVisio&#45;&gt;EsecuzioneVisio -->
<g id="edge6" class="edge">
<title>EsecuzioneVisio&#45;&gt;EsecuzioneVisio</title>
<path fill="none" stroke="black" d="M132.41,-243.86C142.79,-243.55 150.12,-242.68 150.12,-241.25 150.12,-240.42 147.67,-239.79 143.6,-239.33"/>
<polygon fill="black" stroke="black" points="144.12,-235.86 133.92,-238.73 143.69,-242.84 144.12,-235.86"/>
<text text-anchor="middle" x="222.12" y="-235.82" font-family="Times New Roman,serif" font-size="14.00">AppuntamentoModificato</text>
</g>
<!-- EsecuzioneVisio&#45;&gt;EsecuzioneVisio -->
<g id="edge7" class="edge">
<title>EsecuzioneVisio&#45;&gt;EsecuzioneVisio</title>
<path fill="none" stroke="black" d="M132.5,-245.68C197.73,-247.99 294.12,-246.51 294.12,-241.25 294.12,-236.29 208.34,-234.69 143.86,-236.47"/>
<polygon fill="black" stroke="black" points="143.9,-232.97 134.01,-236.78 144.12,-239.96 143.9,-232.97"/>
<text text-anchor="middle" x="362" y="-235.82" font-family="Times New Roman,serif" font-size="14.00">AppuntamentoAnnullato</text>
</g>
<!-- EsecuzioneVisio&#45;&gt;EsecuzioneVisio -->
<g id="edge8" class="edge">
<title>EsecuzioneVisio&#45;&gt;EsecuzioneVisio</title>
<path fill="none" stroke="black" d="M132.57,-246.73C233.23,-251.73 429.88,-249.91 429.88,-241.25 429.88,-232.91 247.18,-230.91 143.84,-235.26"/>
<polygon fill="black" stroke="black" points="143.91,-231.75 134.08,-235.7 144.23,-238.74 143.91,-231.75"/>
<text text-anchor="middle" x="498.12" y="-235.82" font-family="Times New Roman,serif" font-size="14.00">DatiObbligatoriMancanti</text>
</g>
<!-- RiassegnazioneVisio -->
<g id="node6" class="node">
<title>RiassegnazioneVisio</title>
<path fill="none" stroke="black" d="M478.38,-171.5C478.38,-171.5 371.62,-171.5 371.62,-171.5 365.62,-171.5 359.62,-165.5 359.62,-159.5 359.62,-159.5 359.62,-147.5 359.62,-147.5 359.62,-141.5 365.62,-135.5 371.62,-135.5 371.62,-135.5 478.38,-135.5 478.38,-135.5 484.38,-135.5 490.38,-141.5 490.38,-147.5 490.38,-147.5 490.38,-159.5 490.38,-159.5 490.38,-165.5 484.38,-171.5 478.38,-171.5"/>
<text text-anchor="middle" x="425" y="-148.07" font-family="Times New Roman,serif" font-size="14.00">RiassegnazioneVisio</text>
</g>
<!-- EsecuzioneVisio&#45;&gt;RiassegnazioneVisio -->
<g id="edge9" class="edge">
<title>EsecuzioneVisio&#45;&gt;RiassegnazioneVisio</title>
<path fill="none" stroke="black" d="M132.49,-231.36C168.83,-225.05 217.54,-215.83 260,-205.25 294.34,-196.69 332.1,-185.23 362.83,-175.37"/>
<polygon fill="black" stroke="black" points="363.51,-178.83 371.94,-172.42 361.35,-172.17 363.51,-178.83"/>
<text text-anchor="middle" x="351.88" y="-191.95" font-family="Times New Roman,serif" font-size="14.00">VisioRifiutata</text>
</g>
<!-- RiassegnazioneVisio&#45;&gt;AvvioManualeVisio -->
<g id="edge11" class="edge">
<title>RiassegnazioneVisio&#45;&gt;AvvioManualeVisio</title>
<path fill="none" stroke="black" d="M400.51,-135.15C382.47,-122.36 357.71,-104.82 337.79,-90.7"/>
<polygon fill="black" stroke="black" points="339.87,-87.88 329.68,-84.95 335.82,-93.59 339.87,-87.88"/>
<text text-anchor="middle" x="418.12" y="-104.2" font-family="Times New Roman,serif" font-size="14.00">VisioAssegnata</text>
</g>
<!-- PortaleAssicurato -->
<g id="node7" class="node">
<title>PortaleAssicurato</title>
<polygon fill="lightgrey" stroke="black" points="188.5,-347 73.5,-347 73.5,-311 188.5,-311 188.5,-347"/>
<text text-anchor="middle" x="131" y="-323.57" font-family="Times New Roman,serif" font-size="14.00">PortaleAssicurato</text>
</g>
<!-- PortaleAssicurato&#45;&gt;EsecuzioneVisio -->
<g id="edge12" class="edge">
<title>PortaleAssicurato&#45;&gt;EsecuzioneVisio</title>
<path fill="none" stroke="black" stroke-dasharray="1,5" d="M78.96,-310.51C71.82,-305.91 65.43,-300.17 61,-293 56.63,-285.94 57.39,-277.62 60.22,-269.78"/>
<polygon fill="black" stroke="black" points="63.3,-271.46 64.43,-260.93 56.98,-268.46 63.3,-271.46"/>
<text text-anchor="middle" x="118" y="-279.7" font-family="Times New Roman,serif" font-size="14.00">RichiestaPaRicevuta</text>
</g>
<!-- PortaleAssicurato&#45;&gt;EsecuzioneVisio -->
<g id="edge13" class="edge">
<title>PortaleAssicurato&#45;&gt;EsecuzioneVisio</title>
<path fill="none" stroke="black" stroke-dasharray="1,5" d="M160.96,-310.64C173.41,-301.16 183.24,-288.99 175,-277.25 167.24,-266.2 155.64,-258.63 143.13,-253.44"/>
<polygon fill="black" stroke="black" points="144.5,-250.21 133.9,-250.13 142.13,-256.8 144.5,-250.21"/>
<text text-anchor="middle" x="237.25" y="-279.7" font-family="Times New Roman,serif" font-size="14.00">ConfermaPaRicevuta</text>
</g>
</g>
</svg>
